<?xml version="1.0" encoding="UTF-8"?>
<svg width="35px" height="35px" viewBox="0 0 35 35" version="1.1" xmlns="http://www.w3.org/2000/svg" xmlns:xlink="http://www.w3.org/1999/xlink">
    <!-- Generator: Sketch 48.2 (47327) - http://www.bohemiancoding.com/sketch -->
    <title>Page 1</title>
    <desc>Created with Sketch.</desc>
    <defs>
        <polygon id="path-1" points="0 0 35 0 35 35 0 35"></polygon>
        <linearGradient x1="50%" y1="0%" x2="50%" y2="100%" id="linearGradient-3">
            <stop stop-color="#67308F" offset="0%"></stop>
            <stop stop-color="#9C1F60" offset="100%"></stop>
        </linearGradient>
    </defs>
    <g id="Desktop-HD" stroke="none" stroke-width="1" fill="none" fill-rule="evenodd" transform="translate(-1085.000000, -46.000000)">
        <g id="Page-1" transform="translate(1085.000000, 46.000000)">
            <mask id="mask-2" fill="white">
                <use xlink:href="#path-1"></use>
            </mask>
            <g id="Clip-2"></g>
            <path d="M1.63147727,18.2950387 L7.97920455,18.2950387 C8.08818182,21.1411104 8.76670455,23.8821845 9.95193182,26.3782641 C8.63863636,27.0074544 7.40568182,27.8084589 6.27295455,28.75821 C3.55886364,26.0529306 1.83431818,22.3716506 1.63147727,18.2950387 Z M6.27295455,6.24099452 C7.40568182,7.19074566 8.63863636,7.99175019 9.95193182,8.62094043 C8.76670455,11.1170201 8.08818182,13.8588896 7.97920455,16.7041658 L1.63147727,16.7041658 C1.83431818,12.6283494 3.55965909,8.94627395 6.27295455,6.24099452 Z M33.3693182,16.7041658 L27.0207955,16.7041658 C26.9126136,13.8588896 26.2332955,11.1178155 25.0480682,8.62173587 C26.3621591,7.99254562 27.5951136,7.19074566 28.7278409,6.24099452 C31.4411364,8.94627395 33.1664773,12.6283494 33.3693182,16.7041658 Z M24.3051136,27.7877776 C25.45375,28.3318561 26.5347727,29.0183178 27.5330682,29.8320493 C25.3567045,31.6050772 22.7014773,32.7998227 19.7972727,33.2237904 C21.62125,31.6679166 23.1365909,29.8256858 24.3051136,27.7877776 Z M15.2035227,33.2237904 C12.2993182,32.7998227 9.64409091,31.6050772 7.46772727,29.8320493 C8.46681818,29.0183178 9.54784091,28.3318561 10.6956818,27.788573 C11.865,29.8256858 13.3795455,31.6679166 15.2035227,33.2237904 Z M16.7045455,26.2867889 L16.7045455,32.3941501 C14.8702273,30.924979 13.3461364,29.1559283 12.1815909,27.1776778 C13.6277273,26.6638258 15.1486364,26.3639463 16.7045455,26.2867889 Z M16.7045455,18.2950387 L16.7045455,24.695916 C14.8829545,24.777846 13.1027273,25.1334061 11.4203409,25.7562328 C10.31625,23.4534442 9.67909091,20.9239563 9.57011364,18.2950387 L16.7045455,18.2950387 Z M16.7045455,10.304084 L16.7045455,16.7041658 L9.57011364,16.7041658 C9.67909091,14.0760437 10.31625,11.5457603 11.4203409,9.24297175 C13.1027273,9.86659394 14.8829545,10.222154 16.7045455,10.304084 Z M10.6956818,7.21142701 C9.54704545,6.66814391 8.46681818,5.98168223 7.46772727,5.16715529 C9.64409091,3.39412741 12.2993182,2.19938183 15.2035227,1.77620963 C13.3795455,3.33128793 11.865,5.17431422 10.6956818,7.21142701 Z M16.7045455,2.60584987 L16.7045455,8.71321106 C15.1486364,8.63525829 13.6277273,8.33537874 12.1815909,7.82232222 C13.3461364,5.84407173 14.8702273,4.07422559 16.7045455,2.60584987 Z M19.7988636,1.77620963 C22.7022727,2.20017727 25.3575,3.39492284 27.5330682,5.16715529 C26.5339773,5.98168223 25.4529545,6.66814391 24.3043182,7.21142701 C23.1357955,5.17431422 21.62125,3.33128793 19.7988636,1.77620963 Z M18.2954545,8.71321106 L18.2954545,2.6066453 C20.1305682,4.07502102 21.6546591,5.84407173 22.8192045,7.82232222 C21.3722727,8.33537874 19.8521591,8.63525829 18.2954545,8.71321106 Z M18.2954545,16.7041658 L18.2954545,10.304084 C20.1178409,10.222154 21.8972727,9.86659394 23.5796591,9.24376719 C24.68375,11.5465558 25.3217045,14.0760437 25.4298864,16.7041658 L18.2954545,16.7041658 Z M18.2954545,24.695916 L18.2954545,18.2950387 L25.4298864,18.2950387 C25.3217045,20.9239563 24.68375,23.4534442 23.5804545,25.7562328 C21.8980682,25.1334061 20.1178409,24.777846 18.2954545,24.695916 Z M18.2954545,32.3933547 L18.2954545,26.2867889 C19.8529545,26.3639463 21.3730682,26.6638258 22.8192045,27.1768823 C21.6546591,29.1551328 20.1305682,30.924979 18.2954545,32.3933547 Z M28.7278409,28.75821 C27.5951136,27.8084589 26.3629545,27.0074544 25.0488636,26.3782641 C26.2340909,23.8821845 26.9126136,21.1411104 27.0207955,18.2950387 L33.3693182,18.2950387 C33.1664773,22.3716506 31.4411364,26.0529306 28.7278409,28.75821 Z M35,17.4996023 C35,12.4294902 32.8307955,7.85732142 29.3729545,4.65807595 C29.3665909,4.65091702 29.365,4.64137179 29.3578409,4.63341742 C29.3443182,4.61909957 29.3252273,4.61273607 29.3101136,4.59921365 C26.1951136,1.74439217 22.0484091,0 17.5,0 C12.9460227,0 8.79295455,1.74996023 5.67636364,4.61194064 C5.66681818,4.62148588 5.65409091,4.62466762 5.64454545,4.6350083 C5.63977273,4.64057635 5.63897727,4.64693984 5.63420455,4.6525079 C2.17318182,7.85095793 0,12.4255131 0,17.4996023 C0,22.5721006 2.17159091,27.1450649 5.63022727,30.3435149 C5.63659091,30.3498784 5.63738636,30.3586282 5.64295455,30.3649917 C5.65409091,30.3761278 5.67,30.380105 5.68113636,30.3920365 C8.69590909,33.1585646 12.6819318,34.8798891 17.0609091,34.9880685 C17.0935227,34.9920456 17.1253409,35 17.1579545,35 C17.1770455,35 17.1953409,34.9936365 17.2144318,34.9920456 C17.3098864,34.9936365 17.4045455,34.9992046 17.5,34.9992046 C17.6034091,34.9992046 17.7052273,34.9928411 17.8078409,34.9912502 C17.8173864,34.9920456 17.8261364,34.9952274 17.8356818,34.9952274 C17.8515909,34.9952274 17.8667045,34.9904548 17.8834091,34.9896593 C22.2870455,34.8942069 26.2953409,33.1681098 29.3236364,30.3872639 C29.3339773,30.3777187 29.3467045,30.3745369 29.35625,30.3641963 C29.3602273,30.3594236 29.3618182,30.3522647 29.3657955,30.3474921 C32.8276136,27.1482466 35,22.5736915 35,17.4996023 Z" id="Fill-1" fill="url(#linearGradient-3)" mask="url(#mask-2)"></path>
        </g>
    </g>
</svg>