<?xml version="1.0" encoding="UTF-8"?>
<svg width="31px" height="31px" viewBox="0 0 31 31" version="1.1" xmlns="http://www.w3.org/2000/svg" xmlns:xlink="http://www.w3.org/1999/xlink">
    <!-- Generator: Sketch 48.2 (47327) - http://www.bohemiancoding.com/sketch -->
    <title>Group 2</title>
    <desc>Created with Sketch.</desc>
    <defs>
        <linearGradient x1="50%" y1="2.34175702%" x2="50%" y2="98.2342156%" id="linearGradient-1">
            <stop stop-color="#68328F" offset="0%"></stop>
            <stop stop-color="#AB2367" offset="100%"></stop>
        </linearGradient>
    </defs>
    <g id="Mobile" stroke="none" stroke-width="1" fill="none" fill-rule="evenodd" transform="translate(-15.000000, -13.000000)">
        <g id="Group-2" transform="translate(16.000000, 14.000000)">
            <g id="telegram-logo" transform="translate(4.000000, 7.000000)" fill="url(#linearGradient-1)" fill-rule="nonzero">
                <path d="M14.4905537,15 C14.3499528,15 14.2103019,14.9612341 14.0905061,14.8855608 L9.56458238,12.0253771 L7.13712695,13.652662 C6.94674574,13.7802002 6.70135918,13.8123281 6.48029277,13.7386905 C6.25951137,13.6648759 6.0918353,13.4945004 6.03198492,13.2832349 L4.81312717,8.97986039 L0.45801449,7.42842583 C0.183842747,7.33071439 0.00201159098,7.0863473 1.65783021e-05,6.81286149 C-0.00197843438,6.53937567 0.176242698,6.2927074 0.449084433,6.19154421 L17.0088297,0.0527170612 C17.0839752,0.0229787982 17.1634907,0.00580849159 17.2436712,0.00120614137 C17.2723614,-0.000386979862 17.3011466,-0.000386979862 17.3297417,0.00111763463 C17.4958028,0.0103223351 17.6589188,0.0733391305 17.7862196,0.18963698 C17.7994247,0.201673896 17.8119648,0.213976332 17.8238399,0.226809809 C17.9292905,0.339036349 17.9872409,0.475867762 17.998166,0.615265869 C18.000826,0.650314536 18.000636,0.685805737 17.997311,0.721296938 C17.995031,0.746609864 17.9911359,0.771834284 17.9856259,0.79688169 L15.1904231,14.4604629 C15.1454879,14.6799596 14.9851268,14.8636996 14.7635854,14.9492856 C14.6757099,14.9832722 14.5828943,15 14.4905537,15 Z M9.9619699,10.6722862 L13.9935105,13.2199525 L16.1684544,2.5881695 L8.31313942,9.63029638 L9.94296978,10.6603378 C9.94952482,10.6641436 9.95579486,10.6682149 9.9619699,10.6722862 Z M6.60588357,10.1057546 L7.145677,12.0113046 L8.30867439,11.2316487 L6.78581471,10.2692265 C6.71503926,10.2246191 6.65442888,10.1690369 6.60588357,10.1057546 Z M2.67295357,6.7959567 L5.66338258,7.86113526 C5.87760894,7.93742806 6.03929997,8.10523683 6.09782034,8.31181155 L6.47706275,9.65082995 C6.49444786,9.49638569 6.56959334,9.35105763 6.69166911,9.2415748 L14.1766717,2.53152519 L2.67295357,6.7959567 Z" id="Shape"></path>
            </g>
            <circle id="Oval" stroke="url(#linearGradient-1)" cx="14.5" cy="14.5" r="14.5"></circle>
        </g>
    </g>
</svg>