<?xml version="1.0" encoding="utf-8"?>
<!-- Generator: Adobe Illustrator 21.0.0, SVG Export Plug-In . SVG Version: 6.00 Build 0)  -->
<svg version="1.1" id="Capa_1" xmlns="http://www.w3.org/2000/svg" xmlns:xlink="http://www.w3.org/1999/xlink" x="0px" y="0px"
	 viewBox="0 0 475.1 475.1" style="enable-background:new 0 0 475.1 475.1;" xml:space="preserve">
<style type="text/css">
	.st0{fill:#3F3B3A;}
</style>
<g>
	<path class="st0" d="M286.6,180.4c-1.6-2.3-4-4.5-7.1-6.6c-3.1-2.1-6-3.7-8.7-4.9c-2.7-1.2-6.1-2.4-10.1-3.7
		c-4.1-1.3-7.3-2.1-9.7-2.6c-2.4-0.5-5.5-1.1-9.2-1.9c-3.7-0.8-5.9-1.2-6.7-1.4l-11.6,52.1c0.6,0.1,2.5,0.6,5.8,1.4
		c3.3,0.8,6,1.4,7.9,1.8c1.9,0.4,4.8,0.9,8.6,1.5c3.8,0.7,6.9,1,9.5,1.1c2.6,0.1,5.6,0.1,9.1,0.1c3.5,0,6.5-0.5,8.9-1.3
		c2.4-0.8,4.9-1.9,7.3-3.2c2.4-1.3,4.4-3.1,6-5.5c1.6-2.4,2.7-5.1,3.4-8.3c0.8-3.7,0.9-7.2,0.1-10.4
		C289.4,185.4,288.2,182.7,286.6,180.4z"/>
	<path class="st0" d="M237.5,0C106.3,0,0,106.3,0,237.5s106.3,237.5,237.5,237.5s237.5-106.3,237.5-237.5S368.7,0,237.5,0z
		 M341.2,198.1c-2.5,21-13.2,34-32,38.8c12.5,6.1,21.1,14.1,25.8,24.1c4.7,9.9,4.5,22.6-0.4,38c-2.6,7.9-6,14.5-10.2,20
		c-4.2,5.5-9,9.7-14.3,12.7c-5.3,3-11.5,5.1-18.7,6.3c-7.1,1.2-14.5,1.6-21.9,1.3c-7.5-0.3-15.9-1.3-25.2-2.9l-9.6,43.3l-26.1-5.8
		l9.5-42.6c-9-2-15.9-3.6-20.7-4.8l-9.5,42.8l-26.1-5.8l9.6-43.3c-2-0.5-5.1-1.2-9.1-2.1c-4.1-1-7.2-1.7-9.3-2.2l-33.9-7.5
		l12.2-29.9l18.8,4.2c5.7,1.3,9.6-0.9,11.8-6.5l15.2-68.2l2.7,0.6c-0.7-0.3-1.5-0.5-2.7-0.8l10.8-48.7c0.2-8-3.9-13-12.5-14.9
		l-18.8-4.2l6.2-27.8l35.9,8.2c7.2,1.6,12.7,2.8,16.5,3.5l9.5-42.8l26.1,5.8l-9.3,41.9c9.3,1.8,16.2,3.3,20.8,4.3l9.2-41.6l26.1,5.8
		l-9.5,42.8c8.8,2.8,16.4,5.8,22.9,9.1c6.5,3.3,12.3,7.3,17.5,11.9c5.1,4.6,8.8,10.1,11.1,16.3C341.6,183.6,342.2,190.5,341.2,198.1
		z"/>
	<path class="st0" d="M279.5,261.8c-2-2.6-4.9-5-8.6-7.3c-3.7-2.3-7.2-4.2-10.4-5.6c-3.2-1.4-7.3-2.9-12.2-4.3
		c-4.9-1.4-8.8-2.5-11.6-3.1c-2.8-0.6-6.5-1.4-11-2.3c-4.5-0.9-7.2-1.4-8.1-1.6l-12.8,57.3c0.9,0.2,3,0.7,6.3,1.5
		c3.3,0.8,6,1.4,8.1,1.9c2.1,0.5,5.2,1.1,9,1.7c3.9,0.7,7.2,1.2,10.1,1.5c2.8,0.3,6.2,0.6,10,0.7c3.8,0.1,7.1,0,9.9-0.3
		c2.8-0.3,5.8-0.9,8.8-1.8c3.1-0.9,5.7-2.1,7.8-3.6c2.1-1.5,4-3.5,5.7-5.9c1.7-2.4,2.8-5.1,3.5-8.3c0.9-4.1,0.9-7.9-0.1-11.4
		C283,267.5,281.5,264.4,279.5,261.8z"/>
</g>
</svg>
