<?xml version="1.0" encoding="utf-8"?>
<!-- Generator: Adobe Illustrator 21.0.2, SVG Export Plug-In . SVG Version: 6.00 Build 0)  -->
<svg version="1.1" id="Layer_1" xmlns="http://www.w3.org/2000/svg" xmlns:xlink="http://www.w3.org/1999/xlink" x="0px" y="0px">
<style type="text/css">
	.st0{fill:#272626;}
</style>
<path class="st0" d="M306,320c-35.3,0-64,28.7-64,64c0,35.3,28.7,64,64,64s64-28.7,64-64C370,348.7,341.3,320,306,320z M341,415.1
	c0,2.1-1.7,3.9-3.9,3.9h-17.8v-27.1h9.1l1.4-10.6h-10.5v-6.7c0-3.1,0.8-5.1,5.2-5.1l5.6,0V360c-1-0.1-4.3-0.4-8.2-0.4
	c-8.1,0-13.6,4.9-13.6,14v7.8h-9.1v10.6h9.1V419h-33.5c-2.1,0-3.9-1.7-3.9-3.9v-62.3c0-2.1,1.7-3.9,3.9-3.9h62.3
	c2.1,0,3.9,1.7,3.9,3.9V415.1z"/>
</svg>
