<?xml version="1.0" encoding="utf-8"?>
<!-- Generator: Adobe Illustrator 21.0.0, SVG Export Plug-In . SVG Version: 6.00 Build 0)  -->
<svg version="1.1" id="Слой_1" xmlns="http://www.w3.org/2000/svg" xmlns:xlink="http://www.w3.org/1999/xlink" x="0px" y="0px"
	 viewBox="0 0 612 607.5" style="enable-background:new 0 0 612 607.5;" xml:space="preserve">
<style type="text/css">
	.st0{fill:#FFFFFF;stroke:#53207F;stroke-width:4;stroke-miterlimit:10;}
	.st1{fill:#FFFFFF;}
	.st2{fill:url(#SVGID_1_);}
	.st3{fill:url(#SVGID_2_);}
	.st4{fill:url(#SVGID_3_);}
</style>
<g>
	<circle class="st0" cx="307.2" cy="308.8" r="139.9"/>
	<circle class="st1" cx="307.2" cy="308.8" r="301.9"/>
	<g>
		<linearGradient id="SVGID_1_" gradientUnits="userSpaceOnUse" x1="93.7038" y1="308.7774" x2="520.7501" y2="308.7774">
			<stop  offset="0" style="stop-color:#ED3285"/>
			<stop  offset="0.5989" style="stop-color:#B9266D"/>
			<stop  offset="0.9086" style="stop-color:#9C1F60"/>
		</linearGradient>
		<path class="st2" d="M307.2,522.3c-117.7,0-213.5-95.8-213.5-213.5S189.5,95.3,307.2,95.3S520.8,191,520.8,308.8
			S425,522.3,307.2,522.3z M307.2,133c-96.9,0-175.8,78.9-175.8,175.8s78.9,175.8,175.8,175.8S483,405.7,483,308.8
			S404.2,133,307.2,133z"/>
	</g>
	<g>
		<linearGradient id="SVGID_2_" gradientUnits="userSpaceOnUse" x1="186.5957" y1="245.1689" x2="264.3588" y2="245.1689">
			<stop  offset="0" style="stop-color:#ED3285"/>
			<stop  offset="0.5989" style="stop-color:#B9266D"/>
			<stop  offset="0.9086" style="stop-color:#9C1F60"/>
		</linearGradient>
		<path class="st3" d="M225.5,284.1c21.4,0,38.9-17.4,38.9-38.9c0-21.4-17.4-38.9-38.9-38.9s-38.9,17.4-38.9,38.9
			S204,284.1,225.5,284.1z M225.5,220.3c13.7,0,24.9,11.2,24.9,24.9c0,13.7-11.2,24.9-24.9,24.9s-24.9-11.2-24.9-24.9
			S211.7,220.3,225.5,220.3z"/>
		<linearGradient id="SVGID_3_" gradientUnits="userSpaceOnUse" x1="134.7141" y1="363.3799" x2="483.8031" y2="363.3799">
			<stop  offset="0" style="stop-color:#ED3285"/>
			<stop  offset="0.5989" style="stop-color:#B9266D"/>
			<stop  offset="0.9086" style="stop-color:#9C1F60"/>
		</linearGradient>
		<path class="st4" d="M483.8,478.6v-83.8 M134.7,394.8 M469.8,316.1L397.8,250c-1.4-1.2-3.2-1.9-5-1.8c-1.9,0.1-3.6,0.9-4.8,2.3
			l-68.4,74.9l-33.1-33.1c-2.6-2.6-6.8-2.7-9.6-0.3L160,394.8h21.1l100-88l71.9,71.9c2.7,2.7,7.1,2.7,9.9,0c2.7-2.7,2.7-7.1,0-9.9
			l-33.6-33.6l64.1-70.2l76.4,70V316.1z M469.8,464.6"/>
	</g>
</g>
</svg>
