<?xml version="1.0" encoding="utf-8"?>
<!-- Generator: Adobe Illustrator 21.0.2, SVG Export Plug-In . SVG Version: 6.00 Build 0)  -->
<svg version="1.1" id="Layer_1" xmlns="http://www.w3.org/2000/svg" xmlns:xlink="http://www.w3.org/1999/xlink" x="0px" y="0px"
	 viewBox="0 0 533.8 533.8" style="enable-background:new 0 0 533.8 533.8;" xml:space="preserve">
<style type="text/css">
	.st0{fill:#403D3D;}
</style>
<g>
	<path class="st0" d="M206.5,368.9c-5.3-3.2-11.1-3.1-16.2,0.4c-5.8,3.8-5.4,9.9-5.1,15.9c9.1,0,17.9,0,26.9,0
		C212.4,378.9,212.8,372.6,206.5,368.9z"/>
	<path class="st0" d="M267.2,369.1c-5.1-3.3-10.8-3.3-16-0.3c-6.3,3.6-6,9.9-5.7,16.3c9.1,0,18,0,27,0
		C272.6,379,273,372.9,267.2,369.1z"/>
	<path class="st0" d="M267.6,4.9C121.6,4.9,3.2,123.3,3.2,269.4c0,146,118.4,264.4,264.4,264.4c146,0,264.4-118.4,264.4-264.4
		C532,123.3,413.6,4.9,267.6,4.9z M299.2,155c0.5-4.8,2.7-9,5.4-12.9c4.6-6.7,10.2-12.5,16.7-17.4c0.5-0.4,2-1.3,2.7-1.6
		c1.2-0.4,1.8-0.2,1.8,1.7c0,0.1,0,0.4,0,0.5c-0.4,4-1,7.9-1.4,11.9c-1,10.6,1.4,20.4,6.1,29.8c6,12,11.7,24.2,17.3,36.4
		c4.1,8.8,7.8,17.6,10,27.1c1.3,5.3,0.7,10.2-2.2,14.8c-6.3,10.3-14.2,19.2-23.5,26.8c-0.8,0.7-1.8,1.2-2.7,1.7
		c-1.1,0.6-1.8,0.2-1.8-1.7c0.4-1.4,1-3.3,1.5-5.2c1.2-5,2.6-9.9,3.6-15c1.3-6.9-0.4-13.4-3.3-19.6c-4.6-10-9.3-19.9-14-29.9
		c-5.2-11.1-10.6-22.1-14.1-33.8C300,164.2,298.7,159.7,299.2,155z M229.9,143.2c0.6-6.2,3.5-11.4,6.9-16.4
		c5.9-8.5,13-15.9,21.2-22.1c0.6-0.5,2.6-1.7,3.4-2c1.5-0.5,2.3-0.2,2.2,2.2c0,0.1-0.1,0.5-0.1,0.6c-0.5,5-1.3,10.1-1.7,15.1
		c-1.3,13.4,1.8,25.8,7.8,37.9c7.6,15.3,14.9,30.7,22,46.2c5.2,11.1,9.9,22.4,12.7,34.4c1.6,6.7,0.9,12.9-2.8,18.8
		c-8,13-18,24.4-29.8,34.1c-1,0.9-2.2,1.5-3.5,2.2c-1.4,0.7-2.3,0.2-2.2-2.2c0.5-1.8,1.3-4.2,1.9-6.6c1.6-6.3,3.3-12.6,4.5-19
		c1.6-8.7-0.6-17-4.2-24.8c-5.9-12.7-11.8-25.3-17.8-37.9c-6.6-14-13.4-28-17.9-42.9C230.9,154.9,229.3,149.2,229.9,143.2z
		 M105.5,420.7c-6.9,1.3-13.6,0-19.9-2.9c-2.3-1.1-3.1-3.1-2.2-5.1c0.9-2.1,2.9-2.9,5.5-1.9c4.3,1.8,8.7,3.1,13.5,2.9
		c6.5-0.4,10.3-4.6,9.5-10.6c-0.5-3.4-2.6-5.5-5.6-6.9c-3.7-1.7-7.5-3.2-11.2-4.9c-1.8-0.8-3.6-1.7-5.3-2.8
		c-9.6-6.1-8.8-20.5,1-26.2c3.7-2.2,7.8-2.9,12-3c2,0,9.5,1.3,13,2.7c2.9,0.9,4,3.1,3.2,5.4c-0.8,2.2-3.1,2.8-6,1.7
		c-4.5-1.8-9.2-2.8-14.1-2c-4.4,0.7-7.1,3.2-7.6,6.7c-0.6,4.1,1.3,7.4,5.5,9.3c4.3,1.9,8.8,3.5,13,5.5c4.8,2.2,8.4,5.7,9.8,11.1
		C121.9,409.2,115.6,418.7,105.5,420.7z M146.2,406.4c0.4,4,3.2,6.7,7.2,6.7c2.1,0,4.2-0.3,6.2-0.3c2.1,0,3.5,1,3.9,3.1
		c0.3,1.9-0.5,3.4-2.2,4.2c-8.8,4.1-20.2-1.3-22.7-10.8c-0.4-1.6-0.6-3.4-0.6-5.1c0-21.2,0-42.3,0-63.5c0-0.3,0-0.5,0-0.8
		c0.1-2.6,1.6-4.3,3.9-4.4c2.4-0.1,4.2,1.6,4.2,4.4c0.1,5.7,0,11.4,0,17.2c0,1,0,2,0,3.3c4.2,0,8,0,11.8,0c0.8,0,1.6,0,2.4,0.1
		c2,0.3,3.4,2.1,3.3,4c-0.1,2-1.6,3.5-3.8,3.6c-3.1,0.1-6.2,0-9.3,0.1c-1.4,0-2.7,0-4.2,0c-0.1,0.8-0.2,1.5-0.2,2.2
		c0,11.3,0,22.5,0,33.8C146.1,405,146.1,405.7,146.2,406.4z M220.3,386.6c-0.1,4.1-2.2,6.2-6.3,6.2c-8.5,0-17.1,0-25.6,0
		c-1,0-2,0-3.3,0c0,2.4,0,4.4,0,6.4c0.2,10.2,6.6,15.8,16.7,14.2c2.8-0.4,5.6-1.5,8.4-2.3c1-0.3,1.9-0.8,2.8-1
		c2-0.5,3.6,0.3,4.5,2.1c0.9,1.7,0.2,4-1.7,4.9c-8.7,4.1-17.6,5.8-26.8,2c-7.1-2.9-11.2-8.6-11.7-16.1c-0.5-8.4-0.6-16.9,0-25.3
		c0.7-11.1,10.1-18.6,21.8-18.3c12.5,0.3,20.8,8.7,21.1,21.3C220.3,382.6,220.3,384.6,220.3,386.6z M233.3,244.9
		c-6.3,10.3-14.2,19.2-23.5,26.8c-0.8,0.7-1.8,1.2-2.7,1.7c-1.1,0.6-1.8,0.2-1.8-1.7c0.4-1.4,1-3.3,1.5-5.2c1.2-5,2.6-9.9,3.6-15
		c1.3-6.9-0.4-13.4-3.3-19.6c-4.6-10-9.3-19.9-14-29.9c-5.2-11.1-10.6-22.1-14.1-33.8c-1.4-4.4-2.6-9-2.1-13.7
		c0.5-4.8,2.7-9,5.4-12.9c4.6-6.7,10.2-12.5,16.7-17.4c0.5-0.4,2-1.3,2.7-1.6c1.2-0.4,1.8-0.2,1.8,1.7c0,0.1,0,0.4,0,0.5
		c-0.4,4-1,7.9-1.4,11.9c-1,10.6,1.4,20.4,6.1,29.8c6,12,11.7,24.2,17.3,36.4c4.1,8.8,7.8,17.6,10,27.1
		C236.7,235.4,236.1,240.2,233.3,244.9z M280.5,386.7c-0.1,4.1-2.2,6.1-6.4,6.1c-8.5,0-17.1,0-25.6,0c-1,0-2,0-2.9,0
		c0,3.5-0.4,6.8,0.1,9.9c1.3,8,7.8,12.1,16.7,10.6c2.7-0.5,5.4-1.5,8.1-2.3c1-0.3,1.9-0.8,2.8-1c2-0.4,3.7,0.3,4.5,2.2
		c0.8,1.9,0.4,3.8-1.5,4.7c-9.1,4.4-18.5,6.1-28,1.6c-6-2.8-9.9-7.9-10.4-14.4c-0.6-9.2-0.9-18.5,0-27.7c1-10.9,10.3-17.5,21.9-17.2
		c11.3,0.3,19.5,7.7,20.5,18.6C280.6,380.9,280.6,383.8,280.5,386.7z M373,416.1c0,3.1-1.6,5.1-4.1,5c-2.4-0.1-4-2-4-5.2
		c0-11.4-0.5-22.9,0.1-34.3c0.6-10.6-7.8-18.3-20.3-13.2c-4.3,1.8-4.4,1.9-4.4,6.5c0,13.9,0,27.8,0,41.7c0,2.2-0.8,3.7-2.9,4.4
		c-1.9,0.5-3.5-0.3-4.3-1.9c-0.5-0.9-0.5-2.1-0.5-3.1c0-12.8,0-25.6,0-38.4c0-6.8-3-10-9.7-10.6c-3.9-0.4-10.8,0.7-14.9,2.4
		c0,0.9,0,1.9,0,2.9c0,14.1,0,28.2,0,42.2c0,0.6,0,1.3,0,1.9c-0.1,2.9-1.7,4.8-4.1,4.8c-2.4,0-4-1.9-4-4.8c0-16,0-32,0-48
		c0-2.7,1.2-4.6,3.8-5.6c5.8-2.2,11.8-3.4,18.1-3.4c5.3,0,10,1.6,13.9,5.2c2.7-1.2,5.2-2.7,7.9-3.6c6.8-2.3,13.6-2.5,19.9,1.6
		c6.1,4,9.5,9.7,9.5,17.1C373,391.8,373,404,373,416.1z M403.5,390.4c0,8.3,0,16.5,0,24.8c0,0.8,0.1,1.6-0.1,2.4
		c-0.3,2-2.1,3.5-4,3.4c-2-0.1-3.4-1.2-3.9-3.2c-0.2-0.8-0.2-1.6-0.2-2.4c0-16.9,0-33.8,0-50.7c0-0.4,0-0.7,0-1.1
		c0.2-2.7,1.9-4.5,4.2-4.4c2.3,0.1,3.8,1.8,3.9,4.4c0.1,2.9,0,5.8,0,8.7C403.5,378.5,403.5,384.5,403.5,390.4z M399.5,346.4
		c-2.9,0-5.3-2.4-5.3-5.4c0-3,2.3-5.4,5.3-5.4c3,0,5.3,2.3,5.3,5.3C404.8,344,402.4,346.4,399.5,346.4z M434.6,404.1
		c0,1.3,0.1,2.7,0.5,4c0.8,2.9,3.3,4.9,6.4,5c2.2,0.1,4.3-0.3,6.5-0.3c2.2,0,3.8,1.3,4,3.2c0.3,2.2-0.9,4.1-3.1,4.4
		c-2.7,0.4-5.4,0.8-8.1,0.6c-7.1-0.5-12.5-5.5-13.9-12.5c-0.3-1.6-0.4-3.2-0.4-4.9c0-20.7,0-41.4,0-62.1c0-0.6,0-1.3,0-1.9
		c0.3-2.4,1.9-4,4.1-4c2.3,0,4,1.7,4,4.3c0.1,5.8,0,11.6,0,17.4c0,1,0,2,0,3.2c4.6,0,8.8,0,13.1,0c2,0,3.6,0.7,4.3,2.7
		c0.9,2.6-0.9,5-4,5.1c-3.4,0.1-6.9,0-10.4,0c-0.9,0-1.8,0-2.8,0c-0.1,0.8-0.2,1.4-0.2,2C434.6,381.6,434.6,392.8,434.6,404.1z"/>
</g>
</svg>
