<?xml version="1.0" encoding="utf-8"?>
<!-- Generator: Adobe Illustrator 21.0.2, SVG Export Plug-In . SVG Version: 6.00 Build 0)  -->
<svg version="1.1" id="Layer_1" xmlns="http://www.w3.org/2000/svg" xmlns:xlink="http://www.w3.org/1999/xlink" x="0px" y="0px"
	 viewBox="0 0 2500 2500" style="enable-background:new 0 0 2500 2500;" xml:space="preserve">
<style type="text/css">
	.st0{fill:#3F3D3D;}
	.st1{fill:#FFFFFF;}
</style>
<circle class="st0" cx="1250" cy="1250" r="1229.8"/>
<g>
	<path class="st1" d="M1587.4,997.5c-160.8,8.4-300.6,57.2-414.2,167.3c-114.7,111.3-167.1,247.6-152.8,416.7
		c-62.9-7.8-120.1-16.4-177.7-21.2c-19.9-1.7-43.5,0.7-60.3,10.2c-55.9,31.5-109.5,67.2-173,106.9c11.7-52.7,19.2-98.9,32.6-143.3
		c9.8-32.6,5.3-50.8-24.8-72.1c-193-136.3-274.4-340.3-213.5-550.3C460,717.4,598.4,599.6,786.4,538.2c256.6-83.8,545,1.7,701,205.4
		C1543.7,817.2,1578.3,899.8,1587.4,997.5L1587.4,997.5z M847.3,932c1.5-38.4-31.8-73-71.3-74.2c-40.5-1.2-73.8,29.7-74.9,69.6
		c-1.2,40.4,29.7,72.8,70.5,73.8C811.9,1002.4,845.8,971.4,847.3,932L847.3,932z M1233.4,857.8c-39.7,0.7-73.2,34.5-72.5,73.1
		c0.7,40,33.6,71.2,74.4,70.7c40.9-0.5,71.9-32.1,71.5-72.9C1306.6,888.7,1273.8,857.1,1233.4,857.8L1233.4,857.8z"/>
	<path class="st1" d="M1948.7,2000c-50.9-22.7-97.6-56.7-147.4-61.9c-49.5-5.2-101.6,23.4-153.4,28.7
		c-157.9,16.2-299.3-27.8-415.9-135.7c-221.8-205.2-190.1-519.7,66.5-687.9c228.1-149.4,562.6-99.6,723.4,107.7
		c140.3,180.9,123.8,421.1-47.5,573.1c-49.6,44-67.4,80.2-35.6,138.2C1944.6,1972.9,1945.3,1986.5,1948.7,2000L1948.7,2000z
		 M1369.1,1438.8c32.4,0,59.1-25.3,60.3-57.4c1.3-33.9-26-62.3-59.9-62.5c-33.6-0.2-61.8,28.7-60.6,62.1
		C1310,1412.9,1336.9,1438.8,1369.1,1438.8L1369.1,1438.8z M1742.7,1319.1c-31.4-0.2-58.2,25.5-59.5,57.3c-1.4,34,25.1,61.9,58.7,62
		c32.5,0.1,58.2-24.5,59.4-56.9C1802.6,1347.5,1776.2,1319.3,1742.7,1319.1z"/>
</g>
</svg>
