<svg width="51" height="61" xmlns="http://www.w3.org/2000/svg" xmlns:xlink="http://www.w3.org/1999/xlink"><defs><path id="a" d="M0 .007h50.798v28.404H0z"/><path id="c" d="M.009.225h28.218v28.864H.009z"/></defs><g fill="none" fill-rule="evenodd"><g transform="translate(0 32.589)"><mask id="b" fill="#fff"><use xlink:href="#a"/></mask><path d="M2.117 26.239c.528-13.364 10.77-24.06 23.282-24.06 12.513 0 22.754 10.696 23.283 24.06H2.117zM25.399.007C11.388.007-.01 12.273 0 27.345a1.06 1.06 0 0 0 1.048 1.066H49.75a1.06 1.06 0 0 0 1.047-1.066C50.808 12.272 39.411.007 25.4.007z" fill="#1A0A2B" mask="url(#b)"/></g><g transform="translate(10.863)"><mask id="d" fill="#fff"><use xlink:href="#c"/></mask><path d="M14.118 2.218c6.667 0 12.091 5.581 12.091 12.439s-5.424 12.438-12.091 12.438c-6.668 0-12.092-5.58-12.092-12.438 0-6.858 5.425-12.439 12.092-12.439m0 26.871c7.78 0 14.109-6.473 14.109-14.432 0-7.959-6.329-14.433-14.109-14.433S.008 6.7.008 14.657s6.33 14.432 14.11 14.432" fill="#1A0A2B" mask="url(#d)"/></g><path d="M23.585 40.482h4.765l-2.287 2.125-2.478-2.125zm3.346 4.3l4.957-4.606c.341-.317.443-.716.258-1.13-.184-.416-.62-.608-1.103-.608H20.7c-.483 0-.918.192-1.103.607-.185.415-.083.853.26 1.17 0 0 5.177 4.57 5.18 4.574-.022.034-6.653 13.65-6.653 13.65l1.932.883v.004l5.493-11.04 5.366 11.043 2.25-.895s-6.403-13.562-6.494-13.652z" fill="#1A0A2B"/></g></svg>