<svg width="73" height="87" xmlns="http://www.w3.org/2000/svg" xmlns:xlink="http://www.w3.org/1999/xlink"><defs><path id="a" d="M.767.338h41.96v43.425H.766z"/></defs><g fill="none" fill-rule="evenodd"><path d="M3.031 83.662c.757-18.46 15.424-33.235 33.344-33.235S68.962 65.202 69.72 83.662H3.031zm33.344-36.235C16.31 47.427-.015 64.37 0 85.19c0 .817.683 1.472 1.5 1.472h69.75c.817 0 1.5-.655 1.5-1.472.014-20.821-16.308-37.763-36.375-37.763z" fill="#1A0A2B"/><g transform="translate(14 -.338)"><mask id="b" fill="#fff"><use xlink:href="#a"/></mask><path d="M21.747 3.337c9.914 0 17.98 8.396 17.98 18.713 0 10.318-8.066 18.713-17.98 18.713-9.915 0-17.98-8.395-17.98-18.712s8.066-18.713 17.98-18.713m0 40.425c11.568 0 20.98-9.738 20.98-21.712 0-11.973-9.41-21.713-20.98-21.713C10.178.337.767 10.077.767 22.05c0 11.973 9.411 21.713 20.98 21.713" fill="#1A0A2B" mask="url(#b)"/></g><path d="M40.244 68.978c-.545.396-.774.911-.566 1.552l1.474 4.443-3.86-2.853c-.546-.396-1.289-.419-1.834-.024l-3.86 2.793 1.474-4.545c.208-.639-.02-.968-.566-1.363l-3.862-2.427h4.773c.674 0 1.275-.819 1.483-1.459l1.475-4.73 1.474 4.825c.208.641.81 1.364 1.483 1.364h4.773l-3.86 2.424zm10.142-4.788c-.208-.64-.809-.636-1.483-.636h-8.438l-2.607-8.466c-.209-.64-.81-1.298-1.483-1.298s-1.275.768-1.483 1.41l-2.607 8.354h-8.438c-.674 0-1.275-.004-1.483.636-.208.641.021 1.127.566 1.523l6.827 4.85-2.608 7.97c-.208.64.022 1.32.567 1.716a1.563 1.563 0 0 0 1.832-.015l6.827-4.967 6.827 4.957a1.561 1.561 0 0 0 2.398-1.746l-2.607-8.025 6.827-4.74c.545-.396.774-.882.566-1.523z" fill="#1A0A2B"/></g></svg>