<svg width="20" height="20" xmlns="http://www.w3.org/2000/svg"><path d="M13.867 11.748a.566.566 0 0 1-.566.567H6.697a.565.565 0 1 1 0-1.133h6.604c.312 0 .566.253.566.566zM6.132 8.25c0-.313.253-.566.565-.566h4.717a.566.566 0 1 1 0 1.132H6.697a.565.565 0 0 1-.565-.566zm12.22 9.691a.374.374 0 0 1-.109.318.38.38 0 0 1-.32.105l-3.289-.478a1.482 1.482 0 0 0-.858.135 8.864 8.864 0 0 1-4.72.799c-3.841-.397-7.526-4.12-7.885-7.968-.24-2.565.588-5.01 2.33-6.886a8.885 8.885 0 0 1 6.503-2.835c.058 0 .115 0 .172.002 4.682.09 8.58 3.972 8.69 8.651a8.775 8.775 0 0 1-.825 3.957 1.48 1.48 0 0 0-.133.827l.444 3.373zm.679-3.52a.344.344 0 0 1 .035-.198 9.898 9.898 0 0 0 .931-4.465C19.872 4.48 15.477.103 10.198 0 7.361-.023 4.61 1.11 2.672 3.196a10.039 10.039 0 0 0-2.628 7.76C.448 15.3 4.606 19.5 8.94 19.947c.35.036.702.054 1.05.054a9.947 9.947 0 0 0 4.274-.958.36.36 0 0 1 .209-.035l3.288.478a1.51 1.51 0 0 0 1.712-1.69l-.442-3.375z" fill="#979797" fill-rule="evenodd"/></svg>