<svg width="101" height="16" xmlns="http://www.w3.org/2000/svg"><g fill="none" fill-rule="evenodd"><path d="M1.672 14.372C16.257 6.124 33.107 1.418 51.055 1.418c17.872 0 34.653 4.666 49.195 12.848" stroke="#FF2C8B" stroke-width="1.165"/><path d="M4.886 7.756l-3.5 6.11a.972.972 0 1 0 .848 1.456l7.037-.021a.97.97 0 0 0 .839-.491.97.97 0 0 0-.002-.973L6.571 7.751a.975.975 0 0 0-1.685.005" fill="#FFF"/><path d="M4.886 7.756l-3.5 6.11a.972.972 0 1 0 .848 1.456l7.037-.021a.97.97 0 0 0 .839-.491.97.97 0 0 0-.002-.973L6.571 7.751a.975.975 0 0 0-1.685.005z" stroke="#FF2C8B" stroke-width="1.165"/></g></svg>