<svg width="85" height="79" xmlns="http://www.w3.org/2000/svg" xmlns:xlink="http://www.w3.org/1999/xlink"><defs><path d="M32.629.245a22.32 22.32 0 0 0-19.337 11.179L3.49 28.428a22.386 22.386 0 0 0 0 22.359l9.802 17.005a22.324 22.324 0 0 0 19.337 11.179h19.607a22.325 22.325 0 0 0 19.336-11.179l9.805-17.005a22.386 22.386 0 0 0 0-22.36l-9.805-17.003A22.322 22.322 0 0 0 52.236.245" id="a"/><path d="M32.629.245a22.32 22.32 0 0 0-19.337 11.179L3.49 28.428a22.386 22.386 0 0 0 0 22.359l9.802 17.005a22.324 22.324 0 0 0 19.337 11.179h19.607a22.325 22.325 0 0 0 19.336-11.179l9.805-17.005a22.386 22.386 0 0 0 0-22.36l-9.805-17.003A22.322 22.322 0 0 0 52.236.245" id="c"/><path d="M32.629.245a22.32 22.32 0 0 0-19.337 11.179L3.49 28.428a22.386 22.386 0 0 0 0 22.359l9.802 17.005a22.324 22.324 0 0 0 19.337 11.179h19.607a22.325 22.325 0 0 0 19.336-11.179l9.805-17.005a22.386 22.386 0 0 0 0-22.36l-9.805-17.003A22.322 22.322 0 0 0 52.236.245" id="e"/><path d="M32.629.245a22.32 22.32 0 0 0-19.337 11.179L3.49 28.428a22.386 22.386 0 0 0 0 22.359l9.802 17.005a22.324 22.324 0 0 0 19.337 11.179h19.607a22.325 22.325 0 0 0 19.336-11.179l9.805-17.005a22.386 22.386 0 0 0 0-22.36l-9.805-17.003A22.322 22.322 0 0 0 52.236.245" id="g"/><path d="M32.629.245a22.32 22.32 0 0 0-19.337 11.179L3.49 28.428a22.386 22.386 0 0 0 0 22.359l9.802 17.005a22.324 22.324 0 0 0 19.337 11.179h19.607a22.325 22.325 0 0 0 19.336-11.179l9.805-17.005a22.386 22.386 0 0 0 0-22.36l-9.805-17.003A22.322 22.322 0 0 0 52.236.245" id="i"/><path d="M32.629.245a22.32 22.32 0 0 0-19.337 11.179L3.49 28.428a22.386 22.386 0 0 0 0 22.359l9.802 17.005a22.324 22.324 0 0 0 19.337 11.179h19.607a22.325 22.325 0 0 0 19.336-11.179l9.805-17.005a22.386 22.386 0 0 0 0-22.36l-9.805-17.003A22.322 22.322 0 0 0 52.236.245" id="k"/><path d="M32.629.245a22.32 22.32 0 0 0-19.337 11.179L3.49 28.428a22.386 22.386 0 0 0 0 22.359l9.802 17.005a22.324 22.324 0 0 0 19.337 11.179h19.607a22.325 22.325 0 0 0 19.336-11.179l9.805-17.005a22.386 22.386 0 0 0 0-22.36l-9.805-17.003A22.322 22.322 0 0 0 52.236.245" id="m"/><path d="M32.629.245a22.32 22.32 0 0 0-19.337 11.179L3.49 28.428a22.386 22.386 0 0 0 0 22.359l9.802 17.005a22.324 22.324 0 0 0 19.337 11.179h19.607a22.325 22.325 0 0 0 19.336-11.179l9.805-17.005a22.386 22.386 0 0 0 0-22.36l-9.805-17.003A22.322 22.322 0 0 0 52.236.245" id="o"/><path d="M32.629.245a22.32 22.32 0 0 0-19.337 11.179L3.49 28.428a22.386 22.386 0 0 0 0 22.359l9.802 17.005a22.324 22.324 0 0 0 19.337 11.179h19.607a22.325 22.325 0 0 0 19.336-11.179l9.805-17.005a22.386 22.386 0 0 0 0-22.36l-9.805-17.003A22.322 22.322 0 0 0 52.236.245" id="q"/><path d="M32.629.245a22.32 22.32 0 0 0-19.337 11.179L3.49 28.428a22.386 22.386 0 0 0 0 22.359l9.802 17.005a22.324 22.324 0 0 0 19.337 11.179h19.607a22.325 22.325 0 0 0 19.336-11.179l9.805-17.005a22.386 22.386 0 0 0 0-22.36l-9.805-17.003A22.322 22.322 0 0 0 52.236.245" id="s"/><path d="M32.629.245a22.32 22.32 0 0 0-19.337 11.179L3.49 28.428a22.386 22.386 0 0 0 0 22.359l9.802 17.005a22.324 22.324 0 0 0 19.337 11.179h19.607a22.325 22.325 0 0 0 19.336-11.179l9.805-17.005a22.386 22.386 0 0 0 0-22.36l-9.805-17.003A22.322 22.322 0 0 0 52.236.245" id="u"/><path d="M32.629.245a22.32 22.32 0 0 0-19.337 11.179L3.49 28.428a22.386 22.386 0 0 0 0 22.359l9.802 17.005a22.324 22.324 0 0 0 19.337 11.179h19.607a22.325 22.325 0 0 0 19.336-11.179l9.805-17.005a22.386 22.386 0 0 0 0-22.36l-9.805-17.003A22.322 22.322 0 0 0 52.236.245" id="w"/><path d="M32.629.245a22.32 22.32 0 0 0-19.337 11.179L3.49 28.428a22.386 22.386 0 0 0 0 22.359l9.802 17.005a22.324 22.324 0 0 0 19.337 11.179h19.607a22.325 22.325 0 0 0 19.336-11.179l9.805-17.005a22.386 22.386 0 0 0 0-22.36l-9.805-17.003A22.322 22.322 0 0 0 52.236.245" id="y"/><path d="M32.629.245a22.32 22.32 0 0 0-19.337 11.179L3.49 28.428a22.386 22.386 0 0 0 0 22.359l9.802 17.005a22.324 22.324 0 0 0 19.337 11.179h19.607a22.325 22.325 0 0 0 19.336-11.179l9.805-17.005a22.386 22.386 0 0 0 0-22.36l-9.805-17.003A22.322 22.322 0 0 0 52.236.245" id="A"/><path d="M32.629.245a22.32 22.32 0 0 0-19.337 11.179L3.49 28.428a22.386 22.386 0 0 0 0 22.359l9.802 17.005a22.324 22.324 0 0 0 19.337 11.179h19.607a22.325 22.325 0 0 0 19.336-11.179l9.805-17.005a22.386 22.386 0 0 0 0-22.36l-9.805-17.003A22.322 22.322 0 0 0 52.236.245" id="C"/><path d="M32.629.245a22.32 22.32 0 0 0-19.337 11.179L3.49 28.428a22.386 22.386 0 0 0 0 22.359l9.802 17.005a22.324 22.324 0 0 0 19.337 11.179h19.607a22.325 22.325 0 0 0 19.336-11.179l9.805-17.005a22.386 22.386 0 0 0 0-22.36l-9.805-17.003A22.322 22.322 0 0 0 52.236.245" id="E"/><path d="M32.629.245a22.32 22.32 0 0 0-19.337 11.179L3.49 28.428a22.386 22.386 0 0 0 0 22.359l9.802 17.005a22.324 22.324 0 0 0 19.337 11.179h19.607a22.325 22.325 0 0 0 19.336-11.179l9.805-17.005a22.386 22.386 0 0 0 0-22.36l-9.805-17.003A22.322 22.322 0 0 0 52.236.245" id="G"/><path d="M32.629.245a22.32 22.32 0 0 0-19.337 11.179L3.49 28.428a22.386 22.386 0 0 0 0 22.359l9.802 17.005a22.324 22.324 0 0 0 19.337 11.179h19.607a22.325 22.325 0 0 0 19.336-11.179l9.805-17.005a22.386 22.386 0 0 0 0-22.36l-9.805-17.003A22.322 22.322 0 0 0 52.236.245" id="I"/><path d="M32.629.245a22.32 22.32 0 0 0-19.337 11.179L3.49 28.428a22.386 22.386 0 0 0 0 22.359l9.802 17.005a22.324 22.324 0 0 0 19.337 11.179h19.607a22.325 22.325 0 0 0 19.336-11.179l9.805-17.005a22.386 22.386 0 0 0 0-22.36l-9.805-17.003A22.322 22.322 0 0 0 52.236.245" id="K"/><path d="M32.629.245a22.32 22.32 0 0 0-19.337 11.179L3.49 28.428a22.386 22.386 0 0 0 0 22.359l9.802 17.005a22.324 22.324 0 0 0 19.337 11.179h19.607a22.325 22.325 0 0 0 19.336-11.179l9.805-17.005a22.386 22.386 0 0 0 0-22.36l-9.805-17.003A22.322 22.322 0 0 0 52.236.245" id="M"/><path d="M32.629.245a22.32 22.32 0 0 0-19.337 11.179L3.49 28.428a22.386 22.386 0 0 0 0 22.359l9.802 17.005a22.324 22.324 0 0 0 19.337 11.179h19.607a22.325 22.325 0 0 0 19.336-11.179l9.805-17.005a22.386 22.386 0 0 0 0-22.36l-9.805-17.003A22.322 22.322 0 0 0 52.236.245" id="O"/><path d="M32.629.245a22.32 22.32 0 0 0-19.337 11.179L3.49 28.428a22.386 22.386 0 0 0 0 22.359l9.802 17.005a22.324 22.324 0 0 0 19.337 11.179h19.607a22.325 22.325 0 0 0 19.336-11.179l9.805-17.005a22.386 22.386 0 0 0 0-22.36l-9.805-17.003A22.322 22.322 0 0 0 52.236.245" id="Q"/><path d="M32.629.245a22.32 22.32 0 0 0-19.337 11.179L3.49 28.428a22.386 22.386 0 0 0 0 22.359l9.802 17.005a22.324 22.324 0 0 0 19.337 11.179h19.607a22.325 22.325 0 0 0 19.336-11.179l9.805-17.005a22.386 22.386 0 0 0 0-22.36l-9.805-17.003A22.322 22.322 0 0 0 52.236.245" id="S"/><path d="M32.629.245a22.32 22.32 0 0 0-19.337 11.179L3.49 28.428a22.386 22.386 0 0 0 0 22.359l9.802 17.005a22.324 22.324 0 0 0 19.337 11.179h19.607a22.325 22.325 0 0 0 19.336-11.179l9.805-17.005a22.386 22.386 0 0 0 0-22.36l-9.805-17.003A22.322 22.322 0 0 0 52.236.245" id="U"/><path d="M32.629.245a22.32 22.32 0 0 0-19.337 11.179L3.49 28.428a22.386 22.386 0 0 0 0 22.359l9.802 17.005a22.324 22.324 0 0 0 19.337 11.179h19.607a22.325 22.325 0 0 0 19.336-11.179l9.805-17.005a22.386 22.386 0 0 0 0-22.36l-9.805-17.003A22.322 22.322 0 0 0 52.236.245" id="W"/><path d="M32.629.245a22.32 22.32 0 0 0-19.337 11.179L3.49 28.428a22.386 22.386 0 0 0 0 22.359l9.802 17.005a22.324 22.324 0 0 0 19.337 11.179h19.607a22.325 22.325 0 0 0 19.336-11.179l9.805-17.005a22.386 22.386 0 0 0 0-22.36l-9.805-17.003A22.322 22.322 0 0 0 52.236.245" id="Y"/><path d="M32.629.245a22.32 22.32 0 0 0-19.337 11.179L3.49 28.428a22.386 22.386 0 0 0 0 22.359l9.802 17.005a22.324 22.324 0 0 0 19.337 11.179h19.607a22.325 22.325 0 0 0 19.336-11.179l9.805-17.005a22.386 22.386 0 0 0 0-22.36l-9.805-17.003A22.322 22.322 0 0 0 52.236.245" id="aa"/><path d="M32.629.245a22.32 22.32 0 0 0-19.337 11.179L3.49 28.428a22.386 22.386 0 0 0 0 22.359l9.802 17.005a22.324 22.324 0 0 0 19.337 11.179h19.607a22.325 22.325 0 0 0 19.336-11.179l9.805-17.005a22.386 22.386 0 0 0 0-22.36l-9.805-17.003A22.322 22.322 0 0 0 52.236.245" id="ac"/><path d="M32.629.245a22.32 22.32 0 0 0-19.337 11.179L3.49 28.428a22.386 22.386 0 0 0 0 22.359l9.802 17.005a22.324 22.324 0 0 0 19.337 11.179h19.607a22.325 22.325 0 0 0 19.336-11.179l9.805-17.005a22.386 22.386 0 0 0 0-22.36l-9.805-17.003A22.322 22.322 0 0 0 52.236.245" id="ae"/><path d="M32.629.245a22.32 22.32 0 0 0-19.337 11.179L3.49 28.428a22.386 22.386 0 0 0 0 22.359l9.802 17.005a22.324 22.324 0 0 0 19.337 11.179h19.607a22.325 22.325 0 0 0 19.336-11.179l9.805-17.005a22.386 22.386 0 0 0 0-22.36l-9.805-17.003A22.322 22.322 0 0 0 52.236.245" id="ag"/><path d="M32.629.245a22.32 22.32 0 0 0-19.337 11.179L3.49 28.428a22.386 22.386 0 0 0 0 22.359l9.802 17.005a22.324 22.324 0 0 0 19.337 11.179h19.607a22.325 22.325 0 0 0 19.336-11.179l9.805-17.005a22.386 22.386 0 0 0 0-22.36l-9.805-17.003A22.322 22.322 0 0 0 52.236.245" id="ai"/><path d="M32.629.245a22.32 22.32 0 0 0-19.337 11.179L3.49 28.428a22.386 22.386 0 0 0 0 22.359l9.802 17.005a22.324 22.324 0 0 0 19.337 11.179h19.607a22.325 22.325 0 0 0 19.336-11.179l9.805-17.005a22.386 22.386 0 0 0 0-22.36l-9.805-17.003A22.322 22.322 0 0 0 52.236.245" id="ak"/><path d="M32.629.245a22.32 22.32 0 0 0-19.337 11.179L3.49 28.428a22.386 22.386 0 0 0 0 22.359l9.802 17.005a22.324 22.324 0 0 0 19.337 11.179h19.607a22.325 22.325 0 0 0 19.336-11.179l9.805-17.005a22.386 22.386 0 0 0 0-22.36l-9.805-17.003A22.322 22.322 0 0 0 52.236.245" id="am"/><path d="M32.629.245a22.32 22.32 0 0 0-19.337 11.179L3.49 28.428a22.386 22.386 0 0 0 0 22.359l9.802 17.005a22.324 22.324 0 0 0 19.337 11.179h19.607a22.325 22.325 0 0 0 19.336-11.179l9.805-17.005a22.386 22.386 0 0 0 0-22.36l-9.805-17.003A22.322 22.322 0 0 0 52.236.245" id="ao"/><path d="M32.629.245a22.32 22.32 0 0 0-19.337 11.179L3.49 28.428a22.386 22.386 0 0 0 0 22.359l9.802 17.005a22.324 22.324 0 0 0 19.337 11.179h19.607a22.325 22.325 0 0 0 19.336-11.179l9.805-17.005a22.386 22.386 0 0 0 0-22.36l-9.805-17.003A22.322 22.322 0 0 0 52.236.245" id="aq"/><path d="M32.629.245a22.32 22.32 0 0 0-19.337 11.179L3.49 28.428a22.386 22.386 0 0 0 0 22.359l9.802 17.005a22.324 22.324 0 0 0 19.337 11.179h19.607a22.325 22.325 0 0 0 19.336-11.179l9.805-17.005a22.386 22.386 0 0 0 0-22.36l-9.805-17.003A22.322 22.322 0 0 0 52.236.245" id="as"/><path d="M32.629.245a22.32 22.32 0 0 0-19.337 11.179L3.49 28.428a22.386 22.386 0 0 0 0 22.359l9.802 17.005a22.324 22.324 0 0 0 19.337 11.179h19.607a22.325 22.325 0 0 0 19.336-11.179l9.805-17.005a22.386 22.386 0 0 0 0-22.36l-9.805-17.003A22.322 22.322 0 0 0 52.236.245" id="au"/><path d="M32.629.245a22.32 22.32 0 0 0-19.337 11.179L3.49 28.428a22.386 22.386 0 0 0 0 22.359l9.802 17.005a22.324 22.324 0 0 0 19.337 11.179h19.607a22.325 22.325 0 0 0 19.336-11.179l9.805-17.005a22.386 22.386 0 0 0 0-22.36l-9.805-17.003A22.322 22.322 0 0 0 52.236.245" id="aw"/><path d="M32.629.245a22.32 22.32 0 0 0-19.337 11.179L3.49 28.428a22.386 22.386 0 0 0 0 22.359l9.802 17.005a22.324 22.324 0 0 0 19.337 11.179h19.607a22.325 22.325 0 0 0 19.336-11.179l9.805-17.005a22.386 22.386 0 0 0 0-22.36l-9.805-17.003A22.322 22.322 0 0 0 52.236.245" id="ay"/><path d="M32.629.245a22.32 22.32 0 0 0-19.337 11.179L3.49 28.428a22.386 22.386 0 0 0 0 22.359l9.802 17.005a22.324 22.324 0 0 0 19.337 11.179h19.607a22.325 22.325 0 0 0 19.336-11.179l9.805-17.005a22.386 22.386 0 0 0 0-22.36l-9.805-17.003A22.322 22.322 0 0 0 52.236.245" id="aA"/><path d="M32.629.245a22.32 22.32 0 0 0-19.337 11.179L3.49 28.428a22.386 22.386 0 0 0 0 22.359l9.802 17.005a22.324 22.324 0 0 0 19.337 11.179h19.607a22.325 22.325 0 0 0 19.336-11.179l9.805-17.005a22.386 22.386 0 0 0 0-22.36l-9.805-17.003A22.322 22.322 0 0 0 52.236.245" id="aC"/><path d="M32.629.245a22.32 22.32 0 0 0-19.337 11.179L3.49 28.428a22.386 22.386 0 0 0 0 22.359l9.802 17.005a22.324 22.324 0 0 0 19.337 11.179h19.607a22.325 22.325 0 0 0 19.336-11.179l9.805-17.005a22.386 22.386 0 0 0 0-22.36l-9.805-17.003A22.322 22.322 0 0 0 52.236.245" id="aE"/><path d="M32.629.245a22.32 22.32 0 0 0-19.337 11.179L3.49 28.428a22.386 22.386 0 0 0 0 22.359l9.802 17.005a22.324 22.324 0 0 0 19.337 11.179h19.607a22.325 22.325 0 0 0 19.336-11.179l9.805-17.005a22.386 22.386 0 0 0 0-22.36l-9.805-17.003A22.322 22.322 0 0 0 52.236.245" id="aG"/><path d="M32.629.245a22.32 22.32 0 0 0-19.337 11.179L3.49 28.428a22.386 22.386 0 0 0 0 22.359l9.802 17.005a22.324 22.324 0 0 0 19.337 11.179h19.607a22.325 22.325 0 0 0 19.336-11.179l9.805-17.005a22.386 22.386 0 0 0 0-22.36l-9.805-17.003A22.322 22.322 0 0 0 52.236.245" id="aI"/><path d="M32.629.245a22.32 22.32 0 0 0-19.337 11.179L3.49 28.428a22.386 22.386 0 0 0 0 22.359l9.802 17.005a22.324 22.324 0 0 0 19.337 11.179h19.607a22.325 22.325 0 0 0 19.336-11.179l9.805-17.005a22.386 22.386 0 0 0 0-22.36l-9.805-17.003A22.322 22.322 0 0 0 52.236.245" id="aK"/><path d="M32.629.245a22.32 22.32 0 0 0-19.337 11.179L3.49 28.428a22.386 22.386 0 0 0 0 22.359l9.802 17.005a22.324 22.324 0 0 0 19.337 11.179h19.607a22.325 22.325 0 0 0 19.336-11.179l9.805-17.005a22.386 22.386 0 0 0 0-22.36l-9.805-17.003A22.322 22.322 0 0 0 52.236.245" id="aM"/><path d="M32.629.245a22.32 22.32 0 0 0-19.337 11.179L3.49 28.428a22.386 22.386 0 0 0 0 22.359l9.802 17.005a22.324 22.324 0 0 0 19.337 11.179h19.607a22.325 22.325 0 0 0 19.336-11.179l9.805-17.005a22.386 22.386 0 0 0 0-22.36l-9.805-17.003A22.322 22.322 0 0 0 52.236.245" id="aO"/><path d="M32.629.245a22.32 22.32 0 0 0-19.337 11.179L3.49 28.428a22.386 22.386 0 0 0 0 22.359l9.802 17.005a22.324 22.324 0 0 0 19.337 11.179h19.607a22.325 22.325 0 0 0 19.336-11.179l9.805-17.005a22.386 22.386 0 0 0 0-22.36l-9.805-17.003A22.322 22.322 0 0 0 52.236.245" id="aQ"/><path d="M32.629.245a22.32 22.32 0 0 0-19.337 11.179L3.49 28.428a22.386 22.386 0 0 0 0 22.359l9.802 17.005a22.324 22.324 0 0 0 19.337 11.179h19.607a22.325 22.325 0 0 0 19.336-11.179l9.805-17.005a22.386 22.386 0 0 0 0-22.36l-9.805-17.003A22.322 22.322 0 0 0 52.236.245" id="aS"/><path d="M32.629.245a22.32 22.32 0 0 0-19.337 11.179L3.49 28.428a22.386 22.386 0 0 0 0 22.359l9.802 17.005a22.324 22.324 0 0 0 19.337 11.179h19.607a22.325 22.325 0 0 0 19.336-11.179l9.805-17.005a22.386 22.386 0 0 0 0-22.36l-9.805-17.003A22.322 22.322 0 0 0 52.236.245" id="aU"/><path d="M32.629.245a22.32 22.32 0 0 0-19.337 11.179L3.49 28.428a22.386 22.386 0 0 0 0 22.359l9.802 17.005a22.324 22.324 0 0 0 19.337 11.179h19.607a22.325 22.325 0 0 0 19.336-11.179l9.805-17.005a22.386 22.386 0 0 0 0-22.36l-9.805-17.003A22.322 22.322 0 0 0 52.236.245" id="aW"/><path d="M32.629.245a22.32 22.32 0 0 0-19.337 11.179L3.49 28.428a22.386 22.386 0 0 0 0 22.359l9.802 17.005a22.324 22.324 0 0 0 19.337 11.179h19.607a22.325 22.325 0 0 0 19.336-11.179l9.805-17.005a22.386 22.386 0 0 0 0-22.36l-9.805-17.003A22.322 22.322 0 0 0 52.236.245" id="aY"/><path d="M32.629.245a22.32 22.32 0 0 0-19.337 11.179L3.49 28.428a22.386 22.386 0 0 0 0 22.359l9.802 17.005a22.324 22.324 0 0 0 19.337 11.179h19.607a22.325 22.325 0 0 0 19.336-11.179l9.805-17.005a22.386 22.386 0 0 0 0-22.36l-9.805-17.003A22.322 22.322 0 0 0 52.236.245" id="ba"/><path d="M32.629.245a22.32 22.32 0 0 0-19.337 11.179L3.49 28.428a22.386 22.386 0 0 0 0 22.359l9.802 17.005a22.324 22.324 0 0 0 19.337 11.179h19.607a22.325 22.325 0 0 0 19.336-11.179l9.805-17.005a22.386 22.386 0 0 0 0-22.36l-9.805-17.003A22.322 22.322 0 0 0 52.236.245" id="bc"/><path d="M32.629.245a22.32 22.32 0 0 0-19.337 11.179L3.49 28.428a22.386 22.386 0 0 0 0 22.359l9.802 17.005a22.324 22.324 0 0 0 19.337 11.179h19.607a22.325 22.325 0 0 0 19.336-11.179l9.805-17.005a22.386 22.386 0 0 0 0-22.36l-9.805-17.003A22.322 22.322 0 0 0 52.236.245" id="be"/><path d="M32.629.245a22.32 22.32 0 0 0-19.337 11.179L3.49 28.428a22.386 22.386 0 0 0 0 22.359l9.802 17.005a22.324 22.324 0 0 0 19.337 11.179h19.607a22.325 22.325 0 0 0 19.336-11.179l9.805-17.005a22.386 22.386 0 0 0 0-22.36l-9.805-17.003A22.322 22.322 0 0 0 52.236.245" id="bg"/><path d="M32.629.245a22.32 22.32 0 0 0-19.337 11.179L3.49 28.428a22.386 22.386 0 0 0 0 22.359l9.802 17.005a22.324 22.324 0 0 0 19.337 11.179h19.607a22.325 22.325 0 0 0 19.336-11.179l9.805-17.005a22.386 22.386 0 0 0 0-22.36l-9.805-17.003A22.322 22.322 0 0 0 52.236.245" id="bi"/><path d="M32.629.245a22.32 22.32 0 0 0-19.337 11.179L3.49 28.428a22.386 22.386 0 0 0 0 22.359l9.802 17.005a22.324 22.324 0 0 0 19.337 11.179h19.607a22.325 22.325 0 0 0 19.336-11.179l9.805-17.005a22.386 22.386 0 0 0 0-22.36l-9.805-17.003A22.322 22.322 0 0 0 52.236.245" id="bk"/><path d="M32.629.245a22.32 22.32 0 0 0-19.337 11.179L3.49 28.428a22.386 22.386 0 0 0 0 22.359l9.802 17.005a22.324 22.324 0 0 0 19.337 11.179h19.607a22.325 22.325 0 0 0 19.336-11.179l9.805-17.005a22.386 22.386 0 0 0 0-22.36l-9.805-17.003A22.322 22.322 0 0 0 52.236.245" id="bm"/><path d="M32.629.245a22.32 22.32 0 0 0-19.337 11.179L3.49 28.428a22.386 22.386 0 0 0 0 22.359l9.802 17.005a22.324 22.324 0 0 0 19.337 11.179h19.607a22.325 22.325 0 0 0 19.336-11.179l9.805-17.005a22.386 22.386 0 0 0 0-22.36l-9.805-17.003A22.322 22.322 0 0 0 52.236.245" id="bo"/><path d="M32.629.245a22.32 22.32 0 0 0-19.337 11.179L3.49 28.428a22.386 22.386 0 0 0 0 22.359l9.802 17.005a22.324 22.324 0 0 0 19.337 11.179h19.607a22.325 22.325 0 0 0 19.336-11.179l9.805-17.005a22.386 22.386 0 0 0 0-22.36l-9.805-17.003A22.322 22.322 0 0 0 52.236.245" id="bq"/><path d="M32.629.245a22.32 22.32 0 0 0-19.337 11.179L3.49 28.428a22.386 22.386 0 0 0 0 22.359l9.802 17.005a22.324 22.324 0 0 0 19.337 11.179h19.607a22.325 22.325 0 0 0 19.336-11.179l9.805-17.005a22.386 22.386 0 0 0 0-22.36l-9.805-17.003A22.322 22.322 0 0 0 52.236.245" id="bs"/><path d="M32.629.245a22.32 22.32 0 0 0-19.337 11.179L3.49 28.428a22.386 22.386 0 0 0 0 22.359l9.802 17.005a22.324 22.324 0 0 0 19.337 11.179h19.607a22.325 22.325 0 0 0 19.336-11.179l9.805-17.005a22.386 22.386 0 0 0 0-22.36l-9.805-17.003A22.322 22.322 0 0 0 52.236.245" id="bu"/><path d="M32.629.245a22.32 22.32 0 0 0-19.337 11.179L3.49 28.428a22.386 22.386 0 0 0 0 22.359l9.802 17.005a22.324 22.324 0 0 0 19.337 11.179h19.607a22.325 22.325 0 0 0 19.336-11.179l9.805-17.005a22.386 22.386 0 0 0 0-22.36l-9.805-17.003A22.322 22.322 0 0 0 52.236.245" id="bw"/><path d="M32.629.245a22.32 22.32 0 0 0-19.337 11.179L3.49 28.428a22.386 22.386 0 0 0 0 22.359l9.802 17.005a22.324 22.324 0 0 0 19.337 11.179h19.607a22.325 22.325 0 0 0 19.336-11.179l9.805-17.005a22.386 22.386 0 0 0 0-22.36l-9.805-17.003A22.322 22.322 0 0 0 52.236.245H32.63z" id="by"/></defs><g fill="none" fill-rule="evenodd"><mask id="b" fill="#fff"><use xlink:href="#a"/></mask><path d="M52.235.245H32.628a22.32 22.32 0 0 0-19.335 11.18L3.489 28.427a22.386 22.386 0 0 0 0 22.359l9.804 17.003a22.321 22.321 0 0 0 19.335 11.18h19.607a22.326 22.326 0 0 0 19.337-11.18l9.804-17.003a22.386 22.386 0 0 0 0-22.36l-9.804-17.003A22.324 22.324 0 0 0 52.235.245" fill="#FF2091" mask="url(#b)"/><mask id="d" fill="#fff"><use xlink:href="#c"/></mask><path d="M51.894.499c7.938 0 14.626 4.648 19.246 11.1.038.054 9.717 16.85 9.717 16.922 3.925 6.863 4.031 15.376-.043 22.155-.023.04-9.704 16.804-9.74 16.826a22.182 22.182 0 0 1-19.18 11.045c-.036 0-19.364-.007-19.396-.018-7.888-.014-14.309-4.813-19.13-11.068-.021-.027-9.691-16.785-9.707-16.817-3.621-7.02-3.95-15.272-.025-22.123 0-.05 9.66-16.83 9.68-16.868C17.167 4.735 24.567.559 32.465.533c.04-.022 19.382-.034 19.43-.034" fill="#FF2092" mask="url(#d)"/><mask id="f" fill="#fff"><use xlink:href="#e"/></mask><path d="M51.552.753c7.896 0 14.557 4.611 19.155 11.02.078.11 9.633 16.697 9.633 16.84 3.862 6.81 3.947 15.237-.087 21.953-.045.076-9.601 16.602-9.678 16.648a22.037 22.037 0 0 1-19.023 10.91c-.07 0-19.12-.014-19.184-.037-7.8-.029-14.153-4.773-18.926-10.953-.04-.055-9.576-16.572-9.608-16.632C.255 43.559-.08 35.397 3.782 28.614c0-.098 9.515-16.654 9.56-16.734C17.155 5.023 24.477.874 32.299.82c.08-.042 19.157-.067 19.254-.067" fill="#FF2093" mask="url(#f)"/><mask id="h" fill="#fff"><use xlink:href="#g"/></mask><path d="M51.212 1.007c7.855 0 14.486 4.577 19.06 10.94.12.164 9.549 16.543 9.549 16.758 3.8 6.757 3.867 15.1-.13 21.752-.067.112-9.502 16.399-9.614 16.47A21.897 21.897 0 0 1 51.212 77.7c-.108 0-18.88-.02-18.973-.053-7.712-.044-13.998-4.735-18.72-10.843-.063-.08-9.464-16.353-9.514-16.445C.468 43.492.13 35.423 3.927 28.705c0-.145 9.374-16.479 9.44-16.598 3.777-6.795 11.021-10.92 18.767-11 .12-.063 18.931-.1 19.078-.1" fill="#FF2094" mask="url(#h)"/><mask id="j" fill="#fff"><use xlink:href="#i"/></mask><path d="M50.87 1.261c7.815 0 14.418 4.54 18.97 10.86.157.217 9.465 16.39 9.465 16.679 3.735 6.7 3.785 14.96-.174 21.545-.092.153-9.402 16.202-9.553 16.294a21.753 21.753 0 0 1-18.707 10.639c-.142 0-18.638-.027-18.762-.073-7.624-.057-13.842-4.695-18.514-10.73-.085-.108-9.353-16.135-9.416-16.26C.684 43.425.339 35.448 4.076 28.8c0-.196 9.226-16.305 9.317-16.465C17.133 5.6 24.299 1.503 31.969 1.396c.16-.087 18.707-.135 18.902-.135" fill="#FF2095" mask="url(#j)"/><mask id="l" fill="#fff"><use xlink:href="#k"/></mask><path d="M50.53 1.514c7.772 0 14.345 4.506 18.879 10.783.195.27 9.377 16.235 9.377 16.594 3.671 6.648 3.705 14.821-.216 21.345-.116.188-9.301 15.999-9.491 16.115a21.606 21.606 0 0 1-18.55 10.503c-.177 0-18.387-.059-18.552-.09-7.407-1.38-13.684-4.654-18.308-10.616-.103-.135-9.239-15.921-9.319-16.074-3.454-6.715-3.8-14.6-.128-21.183 0-.243 9.083-16.129 9.195-16.33C17.125 5.89 24.211 1.818 31.803 1.686c.2-.108 18.482-.17 18.727-.17" fill="#FF2096" mask="url(#l)"/><mask id="n" fill="#fff"><use xlink:href="#m"/></mask><path d="M50.188 1.769c7.732 0 14.277 4.468 18.787 10.702.236.325 9.292 16.081 9.292 16.515 3.61 6.592 3.625 14.682-.259 21.14-.137.227-9.202 15.798-9.427 15.937A21.471 21.471 0 0 1 50.188 76.43c-.211 0-18.144-.071-18.341-.109-7.32-1.372-13.528-4.614-18.1-10.503-.128-.163-9.128-15.704-9.224-15.889C1.112 43.293.76 35.5 4.37 28.986c0-.295 8.94-15.957 9.072-16.197C17.114 6.18 24.123 2.131 31.64 1.971c.241-.128 18.256-.202 18.549-.202" fill="#FF2097" mask="url(#n)"/><mask id="p" fill="#fff"><use xlink:href="#o"/></mask><path d="M49.847 2.022c7.69 0 14.207 4.435 18.694 10.624.277.377 9.21 15.927 9.21 16.431 3.546 6.54 3.542 14.544-.304 20.938-.16.264-9.101 15.597-9.366 15.759-3.85 6.338-10.76 10.235-18.234 10.235-.247 0-17.902-.084-18.13-.128-7.232-1.364-13.372-4.576-17.895-10.39-.147-.19-9.013-15.487-9.125-15.702C1.324 43.226.97 35.526 4.516 29.077c0-.343 8.795-15.78 8.951-16.06C17.104 6.467 24.036 2.448 31.471 2.26c.284-.153 18.035-.238 18.376-.238" fill="#FF2098" mask="url(#p)"/><mask id="r" fill="#fff"><use xlink:href="#q"/></mask><path d="M49.505 2.276c7.652 0 14.138 4.398 18.604 10.545.314.432 9.124 15.773 9.124 16.349 3.48 6.486 3.461 14.405-.348 20.733-.183.304-9.001 15.398-9.3 15.583-3.832 6.255-10.676 10.1-18.08 10.1-.282 0-17.656-.096-17.919-.146-7.143-1.354-13.215-4.536-17.69-10.28-.167-.214-8.9-15.268-9.026-15.515-3.33-6.486-3.69-14.094-.21-20.475 0-.391 8.654-15.606 8.831-15.926C17.093 6.756 23.948 2.76 31.307 2.548c.323-.174 17.807-.272 18.198-.272" fill="#FF2099" mask="url(#r)"/><mask id="t" fill="#fff"><use xlink:href="#s"/></mask><path d="M49.163 2.53c7.612 0 14.07 4.364 18.514 10.464.353.487 9.037 15.62 9.037 16.27 3.419 6.43 3.381 14.266-.389 20.53-.206.34-8.902 15.195-9.239 15.403-3.811 6.174-10.59 9.965-17.923 9.965-.317 0-17.413-.107-17.707-.164-7.056-1.345-13.06-4.495-17.483-10.165-.19-.242-8.788-15.052-8.93-15.331-3.29-6.408-3.653-13.925-.234-20.239 0-.44 8.508-15.432 8.706-15.791C17.083 7.045 23.86 3.075 31.143 2.835c.362-.195 17.582-.305 18.02-.305" fill="#FF209A" mask="url(#t)"/><mask id="v" fill="#fff"><use xlink:href="#u"/></mask><path d="M48.822 2.784c7.57 0 14 4.327 18.421 10.384.394.54 8.954 15.466 8.954 16.188 3.354 6.378 3.298 14.128-.434 20.327-.229.379-8.8 14.995-9.176 15.228-3.79 6.086-10.505 9.828-17.765 9.828-.351 0-17.17-.119-17.497-.181-6.967-1.339-12.902-4.456-17.276-10.054-.211-.27-8.678-14.837-8.834-15.144-3.247-6.333-3.616-13.758-.26-20.004 0-.489 8.364-15.258 8.586-15.656 3.53-6.367 10.23-10.31 17.437-10.576.402-.217 17.358-.34 17.844-.34" fill="#FF209B" mask="url(#v)"/><mask id="x" fill="#fff"><use xlink:href="#w"/></mask><path d="M48.482 3.038c7.528 0 13.929 4.29 18.327 10.306.435.591 8.869 15.313 8.869 16.105 3.292 6.323 3.22 13.99-.476 20.124-.252.415-8.701 14.794-9.113 15.05-3.772 6.004-10.42 9.692-17.607 9.692-.389 0-16.927-.13-17.287-.199-6.878-1.328-12.745-4.417-17.07-9.941-.233-.295-8.565-14.618-8.737-14.958-3.208-6.257-3.579-13.589-.286-19.768 0-.538 8.219-15.082 8.463-15.522 3.5-6.305 10.118-10.223 17.247-10.516.444-.238 17.13-.373 17.67-.373" fill="#FF209C" mask="url(#x)"/><mask id="z" fill="#fff"><use xlink:href="#y"/></mask><path d="M48.14 3.292c7.49 0 13.86 4.255 18.238 10.226.474.647 8.782 15.158 8.782 16.024 3.23 6.268 3.137 13.852-.52 19.92-.275.454-8.598 14.594-9.05 14.873-3.751 5.92-10.333 9.557-17.45 9.557-.423 0-16.68-.14-17.075-.216-6.791-1.321-12.589-4.378-16.865-9.83-.253-.322-8.45-14.401-8.64-14.773-3.164-6.178-3.54-13.42-.311-19.53 0-.588 8.076-14.909 8.34-15.389C17.054 7.91 23.597 4.02 30.649 3.7c.483-.26 16.905-.407 17.493-.407" fill="#FF209D" mask="url(#z)"/><mask id="B" fill="#fff"><use xlink:href="#A"/></mask><path d="M47.8 3.545c7.446 0 13.788 4.22 18.146 10.146.514.7 8.697 15.006 8.697 15.944 3.165 6.215 3.057 13.712-.564 19.716-.297.493-8.497 14.395-8.987 14.695-3.731 5.84-10.248 9.423-17.293 9.423-.46 0-16.44-.153-16.864-.235-6.703-1.312-12.433-4.337-16.66-9.716-.274-.35-8.338-14.186-8.542-14.586-3.124-6.104-3.504-13.253-.34-19.297 0-.636 7.935-14.733 8.223-15.254 3.427-6.182 9.89-10.048 16.866-10.393.524-.283 16.682-.443 17.317-.443" fill="#FF209E" mask="url(#B)"/><mask id="D" fill="#fff"><use xlink:href="#C"/></mask><path d="M47.458 3.8c7.407 0 13.72 4.184 18.054 10.066.554.753 8.612 14.852 8.612 15.862 3.103 6.16 2.975 13.573-.605 19.513-.321.53-8.4 14.192-8.927 14.517-3.711 5.758-10.162 9.288-17.134 9.288-.494 0-16.196-.164-16.654-.255-6.615-1.3-12.276-4.296-16.452-9.602-.297-.376-8.226-13.969-8.448-14.4-3.081-6.027-3.465-13.085-.362-19.061 0-.686 7.787-14.56 8.098-15.12 3.392-6.121 9.779-9.96 16.676-10.334.563-.302 16.457-.474 17.142-.474" fill="#FF209F" mask="url(#D)"/><mask id="F" fill="#fff"><use xlink:href="#E"/></mask><path d="M47.116 4.054c7.365 0 13.649 4.147 17.964 9.986.594.807 8.527 14.698 8.527 15.78 3.039 6.106 2.893 13.437-.65 19.311-.344.567-8.298 13.991-8.864 14.34-3.69 5.673-10.075 9.152-16.977 9.152-.529 0-15.952-.174-16.444-.272-6.525-1.294-12.118-4.257-16.245-9.49-.32-.404-8.113-13.753-8.35-14.215-3.04-5.951-3.429-12.915-.39-18.825 0-.735 7.647-14.386 7.977-14.985 3.358-6.061 9.669-9.874 16.487-10.274.603-.323 16.232-.508 16.965-.508" fill="#FF20A0" mask="url(#F)"/><mask id="H" fill="#fff"><use xlink:href="#G"/></mask><path d="M46.775 4.307c7.325 0 13.579 4.112 17.87 9.908.638.859 8.443 14.544 8.443 15.699 2.977 6.052 2.813 13.296-.692 19.106-.366.606-8.2 13.792-8.8 14.162-3.673 5.592-9.99 9.017-16.821 9.017-.565 0-15.71-.185-16.233-.29-6.438-1.283-11.962-4.218-16.04-9.376-.338-.43-8-13.536-8.253-14.03-2.998-5.873-3.39-12.748-.414-18.59 0-.783 7.5-14.21 7.855-14.85 3.321-6 9.553-9.787 16.297-10.212.642-.348 16.007-.544 16.788-.544" fill="#FF20A1" mask="url(#H)"/><mask id="J" fill="#fff"><use xlink:href="#I"/></mask><path d="M46.433 4.562c7.285 0 13.51 4.075 17.78 9.827.677.912 8.358 14.391 8.358 15.618 2.913 5.997 2.731 13.157-.737 18.903-.389.644-8.098 13.591-8.737 13.984-3.653 5.508-9.904 8.882-16.664 8.882-.6 0-15.464-.196-16.02-.308-6.352-1.276-11.807-4.177-15.834-9.264-.36-.457-7.89-13.319-8.157-13.843-2.957-5.798-3.353-12.58-.44-18.354 0-.832 7.356-14.037 7.732-14.716 3.287-5.939 9.441-9.7 16.109-10.153.681-.368 15.78-.576 16.61-.576" fill="#FF20A2" mask="url(#J)"/><mask id="L" fill="#fff"><use xlink:href="#K"/></mask><path d="M46.094 4.815c7.242 0 13.437 4.04 17.686 9.748.719.965 8.273 14.238 8.273 15.535 2.848 5.944 2.65 13.02-.78 18.701-.412.681-7.997 13.39-8.673 13.808-3.634 5.423-9.822 8.747-16.506 8.747-.636 0-15.223-.208-15.81-.327-6.267-1.267-11.652-4.138-15.63-9.152-.383-.482-7.776-13.102-8.059-13.659-2.916-5.72-3.315-12.408-.468-18.118 0-.88 7.215-13.859 7.613-14.58 3.252-5.877 9.326-9.613 15.915-10.091.724-.39 15.558-.612 16.439-.612" fill="#FF20A4" mask="url(#L)"/><mask id="N" fill="#fff"><use xlink:href="#M"/></mask><path d="M45.752 5.07c7.203 0 13.368 4.002 17.596 9.667.76 1.019 8.187 14.085 8.187 15.454 2.786 5.89 2.57 12.881-.822 18.498-.437.718-7.9 13.188-8.613 13.63-3.612 5.34-9.734 8.612-16.348 8.612-.67 0-14.978-.218-15.599-.345-6.177-1.26-11.493-4.099-15.425-9.04-.403-.508-7.663-12.885-7.96-13.472-2.875-5.643-3.28-12.241-.493-17.883 0-.93 7.069-13.685 7.49-14.446C16.981 9.931 22.978 6.22 29.49 5.713c.765-.41 15.333-.644 16.261-.644" fill="#FF20A4" mask="url(#N)"/><mask id="P" fill="#fff"><use xlink:href="#O"/></mask><path d="M45.41 5.323c7.163 0 13.3 3.969 17.504 9.59.803 1.07 8.103 13.93 8.103 15.371 2.723 5.836 2.487 12.743-.866 18.294-.458.757-7.798 12.988-8.548 13.452-3.593 5.258-9.65 8.477-16.192 8.477-.705 0-14.737-.23-15.39-.362-6.088-1.25-11.335-4.058-15.215-8.927-.426-.535-7.551-12.668-7.866-13.287-2.833-5.567-3.24-12.073-.52-17.647 0-.977 6.928-13.51 7.37-14.31 3.183-5.756 9.1-9.439 15.535-9.972.806-.434 15.108-.68 16.086-.68" fill="#FF20A5" mask="url(#P)"/><mask id="R" fill="#fff"><use xlink:href="#Q"/></mask><path d="M45.07 5.577c7.12 0 13.229 3.932 17.412 9.51.842 1.121 8.016 13.777 8.016 15.29 2.66 5.782 2.41 12.604-.91 18.091-.48.795-7.695 12.787-8.485 13.275-3.571 5.174-9.562 8.341-16.034 8.341-.742 0-14.491-.238-15.178-.38-6-1.243-11.18-4.019-15.01-8.815-.449-.561-7.439-12.451-7.77-13.1-2.79-5.49-3.201-11.906-.542-17.412 0-1.028 6.782-13.337 7.247-14.176 3.145-5.693 8.987-9.353 15.345-9.911.845-.455 14.882-.713 15.908-.713" fill="#FF20A6" mask="url(#R)"/><mask id="T" fill="#fff"><use xlink:href="#S"/></mask><path d="M44.728 5.83c7.08 0 13.158 3.897 17.32 9.432.884 1.175 7.935 13.621 7.935 15.208 2.593 5.727 2.323 12.466-.957 17.887-.502.834-7.595 12.587-8.422 13.097-3.554 5.092-9.48 8.207-15.876 8.207-.776 0-14.249-.25-14.967-.399-5.913-1.233-11.023-3.98-14.804-8.7-.47-.589-7.326-12.235-7.672-12.916-2.75-5.414-3.167-11.737-.57-17.176 0-1.077 6.637-13.16 7.125-14.042 3.112-5.633 8.875-9.264 15.156-9.85.885-.477 14.658-.747 15.732-.747" fill="#FF20A7" mask="url(#T)"/><mask id="V" fill="#fff"><use xlink:href="#U"/></mask><path d="M44.386 6.085c7.04 0 13.09 3.86 17.23 9.351.927 1.227 7.848 13.468 7.848 15.127 2.533 5.673 2.245 12.327-1 17.684-.523.87-7.492 12.386-8.358 12.919-3.534 5.01-9.394 8.072-15.72 8.072-.811 0-14.005-.26-14.756-.418-5.825-1.225-10.866-3.937-14.598-8.59-.491-.612-7.215-12.015-7.575-12.726-2.707-5.34-3.128-11.57-.597-16.941 0-1.125 6.497-12.987 7.004-13.907 3.077-5.571 8.762-9.178 14.966-9.79.926-.499 14.433-.781 15.556-.781" fill="#FF20A8" mask="url(#V)"/><mask id="X" fill="#fff"><use xlink:href="#W"/></mask><path d="M44.045 6.338c6.999 0 13.02 3.825 17.138 9.272.967 1.28 7.762 13.315 7.762 15.046 2.469 5.619 2.164 12.189-1.04 17.482-.549.906-7.395 12.185-8.297 12.741-3.514 4.925-9.308 7.935-15.563 7.935-.847 0-13.762-.269-14.543-.434-5.739-1.216-10.713-3.9-14.394-8.477-.515-.64-7.102-11.8-7.478-12.542-2.666-5.263-3.092-11.4-.621-16.705 0-1.175 6.35-12.812 6.881-13.774 3.041-5.508 8.648-9.09 14.776-9.73.965-.519 14.207-.814 15.379-.814" fill="#FF20AA" mask="url(#X)"/><mask id="Z" fill="#fff"><use xlink:href="#Y"/></mask><path d="M43.703 6.593c6.96 0 12.951 3.787 17.048 9.191 1.01 1.331 7.677 13.162 7.677 14.965 2.405 5.565 2.082 12.05-1.085 17.279-.571.944-7.293 11.982-8.232 12.561-3.495 4.846-9.223 7.802-15.408 7.802-.882 0-13.517-.28-14.333-.452-5.65-1.208-10.553-3.86-14.186-8.364-.538-.665-6.99-11.583-7.383-12.358-2.623-5.185-3.053-11.232-.647-16.468 0-1.225 6.207-12.638 6.76-13.639 3.008-5.448 8.537-9.003 14.586-9.67 1.007-.54 13.984-.847 15.203-.847" fill="#FF20AB" mask="url(#Z)"/><mask id="ab" fill="#fff"><use xlink:href="#aa"/></mask><path d="M43.364 6.846c6.915 0 12.877 3.752 16.955 9.113 1.05 1.383 7.59 13.008 7.59 14.882 2.343 5.512 2.002 11.912-1.127 17.074-.595.983-7.193 11.785-8.17 12.388-3.475 4.76-9.139 7.666-15.248 7.666-.92 0-13.276-.29-14.124-.471-5.563-1.2-10.395-3.82-13.98-8.253-.56-.691-6.879-11.365-7.285-12.17-2.583-5.11-3.018-11.064-.673-16.234 0-1.271 6.063-12.463 6.637-13.504 2.973-5.386 8.424-8.916 14.395-9.608 1.048-.563 13.759-.883 15.03-.883" fill="#FF20AC" mask="url(#ab)"/><mask id="ad" fill="#fff"><use xlink:href="#ac"/></mask><path d="M43.022 7.1c6.877 0 12.809 3.717 16.863 9.033 1.093 1.435 7.507 12.854 7.507 14.802 2.279 5.457 1.92 11.772-1.172 16.87-.618 1.02-7.093 11.582-8.108 12.21-3.455 4.676-9.051 7.53-15.09 7.53-.953 0-13.034-.298-13.913-.49-5.476-1.189-10.238-3.779-13.776-8.139-.58-.716-6.763-11.148-7.185-11.984-2.542-5.032-2.979-10.896-.701-15.997 0-1.321 5.921-12.288 6.518-13.37 2.936-5.326 8.31-8.83 14.205-9.55 1.087-.582 13.531-.915 14.852-.915" fill="#FF20AD" mask="url(#ad)"/><mask id="af" fill="#fff"><use xlink:href="#ae"/></mask><path d="M42.68 7.355c6.838 0 12.74 3.679 16.771 8.953 1.138 1.486 7.423 12.7 7.423 14.72 2.216 5.401 1.84 11.633-1.216 16.667-.64 1.06-6.992 11.381-8.044 12.03-3.435 4.595-8.966 7.396-14.933 7.396-.99 0-12.79-.305-13.702-.506-5.387-1.182-10.082-3.74-13.568-8.026-.606-.743-6.653-10.933-7.09-11.799-2.5-4.957-2.943-10.727-.728-15.763 0-1.37 5.778-12.113 6.396-13.235 2.902-5.265 8.197-8.742 14.016-9.488 1.127-.606 13.307-.95 14.676-.95" fill="#FF20AE" mask="url(#af)"/><mask id="ah" fill="#fff"><use xlink:href="#ag"/></mask><path d="M42.339 7.608c6.795 0 12.668 3.644 16.678 8.873 1.182 1.538 7.338 12.548 7.338 14.64 2.153 5.348 1.76 11.495-1.256 16.465-.666 1.095-6.895 11.18-7.985 11.852C53.7 63.95 48.236 66.7 42.34 66.7c-1.022 0-12.546-.318-13.49-.526-5.3-1.173-9.924-3.699-13.363-7.913-.626-.77-6.54-10.715-6.993-11.613-2.459-4.88-2.904-10.56-.751-15.526 0-1.42 5.632-11.94 6.271-13.102 2.867-5.203 8.085-8.655 13.826-9.426 1.166-.63 13.082-.985 14.5-.985" fill="#FF20AF" mask="url(#ah)"/><mask id="aj" fill="#fff"><use xlink:href="#ai"/></mask><path d="M41.997 7.862c6.756 0 12.6 3.607 16.59 8.794 1.221 1.589 7.251 12.392 7.251 14.557 2.09 5.294 1.676 11.357-1.301 16.26-.687 1.135-6.793 10.98-7.92 11.677-3.396 4.428-8.796 7.126-14.62 7.126-1.06 0-12.304-.325-13.277-.544-5.215-1.166-9.77-3.66-13.16-7.801-.648-.795-6.427-10.498-6.894-11.428-2.418-4.802-2.869-10.39-.78-15.29 0-1.468 5.49-11.763 6.153-12.967C16.87 13.104 22.01 9.68 27.675 8.88c1.205-.65 12.855-1.018 14.322-1.018" fill="#FF20B0" mask="url(#aj)"/><mask id="al" fill="#fff"><use xlink:href="#ak"/></mask><path d="M41.656 8.116c6.713 0 12.53 3.57 16.497 8.715 1.266 1.64 7.166 12.24 7.166 14.474 2.027 5.242 1.596 11.22-1.344 16.06-.71 1.17-6.692 10.778-7.858 11.497-3.374 4.346-8.708 6.99-14.461 6.99-1.093 0-12.06-.334-13.068-.561-5.126-1.156-9.612-3.62-12.95-7.688-.673-.821-6.318-10.281-6.799-11.24-2.377-4.729-2.831-10.223-.804-15.058 0-1.516 5.345-11.59 6.028-12.83 2.797-5.082 8.085-7.53 13.446-9.307 1.344-.446 12.631-1.052 14.147-1.052" fill="#FF20B1" mask="url(#al)"/><mask id="an" fill="#fff"><use xlink:href="#am"/></mask><path d="M41.315 8.37c6.674 0 12.459 3.534 16.405 8.635 1.308 1.692 7.082 12.085 7.082 14.394 1.963 5.187 1.514 11.08-1.388 15.854-.733 1.209-6.593 10.58-7.794 11.32-3.355 4.265-8.623 6.857-14.305 6.857-1.13 0-11.817-.343-12.857-.58-5.04-1.148-9.456-3.58-12.745-7.576-.696-.846-6.205-10.064-6.702-11.056C6.677 41.567 6.219 36.165 8.18 31.4c0-1.567 5.204-11.415 5.91-12.698 2.761-5.02 7.967-7.473 13.255-9.247C28.73 8.99 39.751 8.37 41.315 8.37" fill="#FF20B1" mask="url(#an)"/><mask id="ap" fill="#fff"><use xlink:href="#ao"/></mask><path d="M40.973 8.624c6.633 0 12.388 3.498 16.314 8.555 1.353 1.742 6.998 11.932 6.998 14.312 1.899 5.132 1.432 10.94-1.433 15.653-.758 1.246-6.64 10.174-7.73 11.141-4.003 3.546-8.54 6.72-14.149 6.72-1.163 0-11.575-.351-12.645-.596-4.953-1.14-9.298-3.54-12.54-7.464-.718-.87-6.093-9.847-6.604-10.87-2.293-4.573-2.757-9.884-.857-14.584 0-1.614 5.06-11.24 5.786-12.562 2.727-4.959 7.853-7.417 13.066-9.186 1.427-.485 12.182-1.12 13.794-1.12" fill="#FF20B2" mask="url(#ap)"/><mask id="ar" fill="#fff"><use xlink:href="#aq"/></mask><path d="M40.848 8.878c6.593 0 12.317 3.462 16.222 8.477 1.397 1.791 6.49 11.815 6.912 14.229.932 5.32 1.353 10.803-1.475 15.45-.779 1.281-6.54 9.971-7.668 10.963-3.958 3.48-8.453 6.586-13.99 6.586-1.2 0-11.332-.36-12.437-.615-4.863-1.132-9.14-3.5-12.33-7.352-.744-.894-5.983-9.63-6.51-10.683-2.252-4.499-2.717-9.717-.882-14.35 0-1.663 4.915-11.064 5.664-12.426 2.693-4.899 7.74-7.362 12.876-9.126 1.468-.504 11.957-1.153 13.618-1.153" fill="#FF20B3" mask="url(#ar)"/><mask id="at" fill="#fff"><use xlink:href="#as"/></mask><path d="M40.503 9.131c6.552 0 12.246 3.425 16.132 8.397 1.438 1.843 6.399 11.662 6.827 14.149.898 5.253 1.269 10.665-1.52 15.246-.804 1.32-6.441 9.769-7.606 10.787-3.91 3.415-8.366 6.449-13.833 6.449-1.233 0-11.088-.366-12.224-.633-4.777-1.123-8.984-3.459-12.127-7.238-.764-.92-5.869-9.413-6.412-10.498-2.208-4.422-2.68-9.548-.907-14.113 0-1.714 4.773-10.889 5.542-12.293 2.657-4.837 7.622-7.306 12.686-9.065 1.51-.525 11.733-1.188 13.442-1.188" fill="#FF20B4" mask="url(#at)"/><mask id="av" fill="#fff"><use xlink:href="#au"/></mask><path d="M40.158 9.386c6.511 0 12.177 3.39 16.04 8.316 1.484 1.895 6.313 11.508 6.741 14.068.866 5.185 1.19 10.526-1.562 15.043-.827 1.358-6.34 9.566-7.544 10.608-3.866 3.352-8.28 6.315-13.675 6.315-1.27 0-10.845-.375-12.013-.652-4.691-1.113-8.827-3.418-11.92-7.124-.791-.946-5.76-9.195-6.315-10.313-2.17-4.345-2.643-9.379-.934-13.877 0-1.762 4.628-10.715 5.42-12.158 2.623-4.775 7.506-7.25 12.496-9.005 1.551-.546 11.507-1.221 13.266-1.221" fill="#FF20B5" mask="url(#av)"/><mask id="ax" fill="#fff"><use xlink:href="#aw"/></mask><path d="M39.813 9.639c6.47 0 12.106 3.352 15.947 8.239 1.529 1.943 6.227 11.35 6.657 13.985.834 5.118 1.107 10.388-1.605 14.839-.85 1.395-6.243 9.365-7.482 10.432-3.82 3.286-8.195 6.18-13.517 6.18-1.304 0-10.604-.384-11.802-.672-4.604-1.104-8.67-3.377-11.715-7.012-.813-.969-5.646-8.978-6.218-10.125-2.126-4.27-2.606-9.212-.96-13.642 0-1.811 4.485-10.54 5.298-12.023 2.587-4.716 7.39-7.197 12.307-8.944 1.592-.567 11.282-1.257 13.09-1.257" fill="#FF20B6" mask="url(#ax)"/><mask id="az" fill="#fff"><use xlink:href="#ay"/></mask><path d="M39.267 9.893c6.43 0 12.035 3.317 15.857 8.159 1.57 1.993 6.141 11.196 6.57 13.904.801 5.05 1.029 10.249-1.648 14.635-.873 1.433-6.142 9.165-7.418 10.255-3.776 3.222-8.11 6.043-13.36 6.043-1.343 0-10.362-.389-11.592-.688-4.517-1.096-8.515-3.336-11.509-6.9-.836-.993-5.535-8.76-6.122-9.94-2.084-4.193-1.79-8.834-.985-13.405.321-1.833 4.343-10.365 5.178-11.888 2.552-4.654 7.272-7.14 12.116-8.886 1.633-.588 11.057-1.289 12.913-1.289" fill="#FF20B7" mask="url(#az)"/><mask id="aB" fill="#fff"><use xlink:href="#aA"/></mask><path d="M38.926 10.147c6.388 0 11.965 3.28 15.764 8.078 1.617 2.045 6.058 11.044 6.486 13.822.77 4.984.946 10.11-1.69 14.434-.898 1.471-6.04 8.963-7.357 10.076-3.73 3.16-8.023 5.91-13.203 5.91-1.376 0-10.118-.396-11.38-.705-4.432-1.09-8.357-3.298-11.303-6.789-.861-1.02-5.423-8.542-6.025-9.754-2.043-4.115-1.782-8.678-1.011-13.172.323-1.88 4.2-10.19 5.055-11.753 2.517-4.593 7.157-7.083 11.926-8.823 1.674-.612 10.833-1.324 12.738-1.324" fill="#FF20B8" mask="url(#aB)"/><mask id="aD" fill="#fff"><use xlink:href="#aC"/></mask><path d="M38.584 10.401c6.348 0 11.895 3.244 15.672 7.999 1.663 2.094 5.975 10.889 6.403 13.74.736 4.918.864 9.972-1.734 14.23-.923 1.508-5.941 8.764-7.292 9.9-3.689 3.094-7.94 5.775-13.049 5.775-1.41 0-9.874-.404-11.168-.726-4.345-1.08-8.2-3.256-11.098-6.674-.885-1.044-5.312-8.326-5.928-9.568-2-4.04-1.775-8.524-1.037-12.937.323-1.929 4.056-10.015 4.935-11.618 2.481-4.53 7.036-7.028 11.735-8.765 1.714-.633 10.607-1.356 12.561-1.356" fill="#FF20B9" mask="url(#aD)"/><mask id="aF" fill="#fff"><use xlink:href="#aE"/></mask><path d="M38.245 10.654c6.306 0 11.823 3.207 15.58 7.92 1.707 2.143 5.892 10.733 6.317 13.66.702 4.852.782 9.832-1.779 14.025-.944 1.547-5.838 8.564-7.23 9.722-3.642 3.032-7.854 5.64-12.888 5.64-1.447 0-9.635-.41-10.961-.743-4.257-1.072-8.041-3.216-10.892-6.563-.907-1.066-5.199-8.109-5.829-9.382-1.96-3.963-1.77-8.366-1.061-12.7.32-1.98 3.912-9.84 4.812-11.484 2.446-4.469 6.919-6.972 11.543-8.703 1.755-.658 10.384-1.392 12.388-1.392" fill="#FF20BA" mask="url(#aF)"/><mask id="aH" fill="#fff"><use xlink:href="#aG"/></mask><path d="M37.903 10.909c6.264 0 11.753 3.169 15.49 7.84 1.751 2.192 5.809 10.578 6.23 13.577.67 4.787.702 9.694-1.822 13.823-.967 1.584-5.735 8.364-7.167 9.544-3.596 2.968-7.768 5.505-12.73 5.505-1.483 0-9.393-.414-10.75-.761-4.172-1.063-7.885-3.176-10.684-6.449-.936-1.091-5.09-7.892-5.734-9.197-1.919-3.889-1.762-8.212-1.09-12.465.322-2.03 3.769-9.664 4.692-11.35 2.41-4.408 6.802-6.914 11.355-8.642 1.794-.682 10.158-1.425 12.21-1.425" fill="#FF20BB" mask="url(#aH)"/><mask id="aJ" fill="#fff"><use xlink:href="#aI"/></mask><path d="M37.562 11.163c6.225 0 11.683 3.134 15.396 7.76 1.8 2.24 5.73 10.424 6.147 13.495.64 4.721.622 9.556-1.865 13.621-.993 1.621-5.634 8.164-7.104 9.366-3.554 2.904-7.682 5.37-12.574 5.37-1.518 0-9.149-.421-10.539-.779-4.084-1.056-7.726-3.137-10.478-6.336-.958-1.117-4.979-7.676-5.637-9.012-1.876-3.811-1.756-8.056-1.115-12.23.32-2.077 3.625-9.49 4.569-11.214 2.377-4.348 6.685-6.857 11.165-8.583 1.834-.704 9.931-1.458 12.035-1.458" fill="#FF20BC" mask="url(#aJ)"/><mask id="aL" fill="#fff"><use xlink:href="#aK"/></mask><path d="M37.22 11.417c6.184 0 11.612 3.096 15.306 7.68 1.845 2.291 5.652 10.269 6.06 13.415.607 4.655.542 9.417-1.906 13.416-1.015 1.659-5.531 7.965-7.043 9.19-3.508 2.842-7.596 5.233-12.417 5.233-1.553 0-8.909-.425-10.325-.796-4.001-1.047-7.573-3.095-10.274-6.225-.984-1.14-4.867-7.457-5.54-8.825-1.835-3.735-1.75-7.9-1.141-11.993.317-2.13 3.482-9.316 4.448-11.081 2.341-4.286 6.566-6.8 10.973-8.521 1.873-.73 9.708-1.493 11.86-1.493" fill="#FF20BD" mask="url(#aL)"/><mask id="aN" fill="#fff"><use xlink:href="#aM"/></mask><path d="M36.879 11.67c6.143 0 11.543 3.06 15.213 7.601 1.89 2.34 5.574 10.114 5.977 13.333.575 4.592.46 9.28-1.95 13.214-1.04 1.696-5.43 7.768-6.98 9.012-3.467 2.778-7.512 5.098-12.26 5.098-1.589 0-8.666-.43-10.115-.816-3.915-1.038-7.414-3.054-10.068-6.11-1.008-1.163-4.757-7.239-5.444-8.64-1.792-3.66-1.74-7.74-1.166-11.758.313-2.179 3.34-9.14 4.326-10.946 2.308-4.225 6.449-6.745 10.785-8.46 1.912-.758 9.482-1.527 11.682-1.527" fill="#FF20BE" mask="url(#aN)"/><mask id="aP" fill="#fff"><use xlink:href="#aO"/></mask><path d="M36.537 11.924c6.103 0 11.472 3.024 15.123 7.523 1.935 2.387 5.496 9.957 5.892 13.25.541 4.526.378 9.14-1.995 13.01-1.064 1.733-5.325 7.572-6.918 8.835-3.42 2.716-7.425 4.964-12.102 4.964-1.622 0-8.424-.435-9.905-.834-3.827-1.03-7.256-3.014-9.86-5.999-1.035-1.185-4.645-7.02-5.345-8.453-1.753-3.584-1.737-7.585-1.194-11.522.307-2.23 3.197-8.966 4.205-10.813 2.27-4.163 6.328-6.688 10.595-8.4 1.95-.784 9.255-1.56 11.504-1.56" fill="#FF20BF" mask="url(#aP)"/><mask id="aR" fill="#fff"><use xlink:href="#aQ"/></mask><path d="M36.196 12.179c6.063 0 11.4 2.986 15.03 7.442 1.985 2.435 5.422 9.803 5.807 13.17.51 4.461.296 9.002-2.038 12.806-1.086 1.77-5.22 7.375-6.855 8.657-3.378 2.654-7.338 4.827-11.944 4.827-1.66 0-8.181-.437-9.694-.851-3.741-1.022-7.098-2.972-9.654-5.885-1.06-1.209-4.535-6.805-5.249-8.267-1.711-3.507-1.73-7.429-1.22-11.288.302-2.28 3.056-8.79 4.083-10.677 2.237-4.102 6.21-6.632 10.404-8.34 1.988-.81 9.033-1.594 11.33-1.594" fill="#FF20C0" mask="url(#aR)"/><mask id="aT" fill="#fff"><use xlink:href="#aS"/></mask><path d="M35.854 12.432c6.023 0 11.332 2.949 14.94 7.364 2.031 2.483 5.349 9.647 5.722 13.088.477 4.397.216 8.862-2.082 12.602-1.11 1.808-5.116 7.18-6.79 8.479-3.337 2.591-7.255 4.694-11.79 4.694-1.693 0-7.941-.442-9.482-.869-3.657-1.015-6.942-2.933-9.448-5.773-1.087-1.232-4.424-6.588-5.152-8.083-1.672-3.43-1.725-7.27-1.246-11.05.295-2.33 2.911-8.616 3.96-10.543 2.201-4.042 6.092-6.575 10.216-8.281 2.025-.837 8.807-1.628 11.152-1.628" fill="#FF20C1" mask="url(#aT)"/><mask id="aV" fill="#fff"><use xlink:href="#aU"/></mask><path d="M35.515 12.686c5.98 0 11.259 2.912 14.846 7.284 2.077 2.53 5.275 9.492 5.636 13.006.445 4.336.135 8.724-2.125 12.4-1.134 1.845-5.01 6.984-6.727 8.301-3.295 2.53-7.17 4.558-11.63 4.558-1.731 0-7.7-.445-9.273-.887-3.572-1.006-6.784-2.89-9.243-5.662-1.113-1.253-4.313-6.367-5.055-7.895-1.628-3.353-1.717-7.11-1.271-10.815.287-2.38 2.767-8.44 3.84-10.407 2.165-3.982 5.969-6.518 10.023-8.22 2.064-.866 8.582-1.663 10.979-1.663" fill="#FF20C2" mask="url(#aV)"/><mask id="aX" fill="#fff"><use xlink:href="#aW"/></mask><path d="M35.173 12.94c5.94 0 11.188 2.876 14.756 7.204 2.125 2.579 5.203 9.337 5.55 12.926.414 4.273.055 8.585-2.167 12.197-1.159 1.88-4.906 6.787-6.665 8.123-3.252 2.467-7.084 4.423-11.474 4.423-1.764 0-7.459-.446-9.06-.907-3.488-.999-6.628-2.85-9.038-5.547-1.14-1.277-4.202-6.15-4.958-7.71-1.589-3.277-1.711-6.953-1.297-10.58.278-2.43 2.625-8.265 3.716-10.273 2.13-3.92 5.851-6.46 9.836-8.159 2.102-.897 8.357-1.697 10.801-1.697" fill="#FF20C3" mask="url(#aX)"/><mask id="aZ" fill="#fff"><use xlink:href="#aY"/></mask><path d="M34.831 13.194c5.899 0 11.118 2.839 14.664 7.124 2.173 2.626 5.133 9.181 5.467 12.844.382 4.211-.028 8.447-2.212 11.993-1.182 1.92-4.8 6.595-6.603 7.947-3.21 2.405-6.997 4.288-11.316 4.288-1.801 0-7.217-.45-8.85-.925-3.4-.99-6.468-2.808-8.83-5.435-1.167-1.298-4.094-5.932-4.862-7.524-1.545-3.202-1.704-6.794-1.323-10.344.266-2.48 2.482-8.089 3.595-10.138 2.098-3.86 5.73-6.403 9.645-8.1 2.139-.927 8.133-1.73 10.625-1.73" fill="#FF20C4" mask="url(#aZ)"/><mask id="bb" fill="#fff"><use xlink:href="#ba"/></mask><path d="M34.49 13.447c5.86 0 11.048 2.802 14.573 7.046 2.22 2.672 5.064 9.026 5.38 12.763.35 4.148-.108 8.308-2.254 11.788-1.205 1.957-4.693 6.403-6.541 7.77-3.169 2.344-6.91 4.152-11.158 4.152-1.835 0-6.978-.45-8.64-.942-3.317-.983-6.311-2.768-8.626-5.324-1.19-1.317-3.981-5.713-4.762-7.336-1.505-3.126-1.699-6.633-1.35-10.108.256-2.533 2.338-7.917 3.475-10.006 2.06-3.797 5.607-6.345 9.453-8.038 2.175-.958 7.908-1.765 10.45-1.765" fill="#FF20C5" mask="url(#bb)"/><mask id="bd" fill="#fff"><use xlink:href="#bc"/></mask><path d="M34.148 13.702c5.817 0 10.977 2.764 14.481 6.966 2.27 2.72 5 8.87 5.297 12.68.316 4.087-.19 8.17-2.299 11.586-1.23 1.993-4.585 6.21-6.477 7.592-3.126 2.282-6.827 4.017-11.002 4.017-1.87 0-6.736-.45-8.427-.96-3.233-.976-6.154-2.727-8.42-5.211-1.222-1.339-3.873-5.495-4.666-7.151-1.463-3.049-1.693-6.474-1.376-9.873.242-2.582 2.198-7.74 3.352-9.87 2.027-3.736 5.486-6.287 9.265-7.977 2.21-.99 7.683-1.8 10.272-1.8" fill="#FF20C6" mask="url(#bd)"/><mask id="bf" fill="#fff"><use xlink:href="#be"/></mask><path d="M33.807 13.955c5.778 0 10.906 2.727 14.389 6.888 2.318 2.766 4.938 8.713 5.211 12.597.286 4.028-.27 8.033-2.341 11.385-1.253 2.028-4.479 6.019-6.415 7.412-3.087 2.224-6.74 3.882-10.844 3.882-1.904 0-6.497-.45-8.217-.977-3.148-.967-5.996-2.684-8.213-5.098-1.25-1.36-3.763-5.278-4.57-6.966-1.422-2.974-1.687-6.312-1.4-9.638.226-2.632 2.053-7.563 3.228-9.735 1.992-3.674 5.366-6.229 9.076-7.917 2.245-1.022 7.458-1.833 10.096-1.833" fill="#FF20C7" mask="url(#bf)"/><mask id="bh" fill="#fff"><use xlink:href="#bg"/></mask><path d="M33.466 14.21c5.737 0 10.834 2.689 14.3 6.807 2.364 2.812 4.872 8.559 5.124 12.517.254 3.966-.352 7.892-2.384 11.18-1.28 2.066-4.37 5.83-6.353 7.235-3.046 2.162-6.656 3.747-10.687 3.747-1.94 0-6.256-.448-8.006-.995-3.065-.96-5.838-2.645-8.007-4.986-1.278-1.38-3.653-5.059-4.473-6.78-1.38-2.897-1.681-6.151-1.427-9.4.21-2.685 1.91-7.392 3.108-9.603 1.956-3.612 5.242-6.17 8.884-7.856 2.28-1.056 7.233-1.867 9.92-1.867" fill="#FF20C8" mask="url(#bh)"/><mask id="bj" fill="#fff"><use xlink:href="#bi"/></mask><path d="M33.124 14.463c5.696 0 10.762 2.652 14.207 6.728 2.415 2.858 4.813 8.404 5.042 12.435.221 3.907-.434 7.755-2.429 10.978-1.304 2.103-4.262 5.64-6.289 7.057-3.007 2.102-6.57 3.611-10.53 3.611-1.977 0-6.018-.446-7.797-1.013-2.98-.952-5.678-2.602-7.8-4.874-1.306-1.399-3.544-4.84-4.377-6.592-1.338-2.821-1.673-5.99-1.452-9.167.192-2.734 1.768-7.213 2.986-9.465 1.92-3.552 5.121-6.113 8.696-7.798 2.313-1.09 7.008-1.9 9.743-1.9" fill="#FF20C9" mask="url(#bj)"/><mask id="bl" fill="#fff"><use xlink:href="#bk"/></mask><path d="M32.784 14.717c5.656 0 10.69 2.615 14.114 6.648 2.465 2.904 4.753 8.25 4.956 12.354.191 3.848-.513 7.616-2.471 10.773-1.326 2.142-4.152 5.453-6.225 6.883-2.968 2.04-6.488 3.476-10.374 3.476-2.013 0-5.78-.444-7.584-1.032-2.899-.946-5.523-2.562-7.596-4.76-1.338-1.42-3.434-4.624-4.28-6.41-1.297-2.745-1.668-5.825-1.478-8.93.17-2.784 1.626-7.04 2.863-9.332 1.889-3.49 4.999-6.053 8.506-7.736 2.348-1.127 6.784-1.934 9.57-1.934" fill="#FF20CA" mask="url(#bl)"/><mask id="bn" fill="#fff"><use xlink:href="#bm"/></mask><path d="M32.443 14.972c5.612 0 10.618 2.577 14.02 6.567 2.516 2.95 4.7 8.095 4.873 12.274.158 3.788-.594 7.476-2.515 10.569-1.35 2.177-4.042 5.267-6.163 6.703-2.929 1.984-6.4 3.342-10.215 3.342-2.047 0-5.54-.44-7.374-1.05-2.815-.938-5.364-2.52-7.39-4.647-1.368-1.436-3.326-4.405-4.183-6.223-1.255-2.668-1.661-5.663-1.503-8.694.147-2.835 1.482-6.865 2.742-9.199 1.851-3.428 4.874-5.993 8.314-7.675 2.382-1.162 6.56-1.967 9.394-1.967" fill="#FF20CB" mask="url(#bn)"/><mask id="bp" fill="#fff"><use xlink:href="#bo"/></mask><path d="M32.101 15.225c5.574 0 10.548 2.54 13.933 6.488 2.563 2.995 4.64 7.94 4.785 12.192.126 3.73-.678 7.339-2.56 10.368-1.375 2.213-3.93 5.08-6.1 6.525-2.89 1.923-6.314 3.207-10.058 3.207-2.082 0-5.3-.436-7.162-1.07-2.734-.93-5.204-2.477-7.184-4.535-1.398-1.454-3.22-4.184-4.086-6.036-1.214-2.592-1.656-5.5-1.53-8.46.123-2.884 1.342-6.686 2.62-9.061 1.818-3.368 4.748-5.937 8.126-7.617 2.413-1.2 6.332-2.001 9.216-2.001" fill="#FF20CC" mask="url(#bp)"/><mask id="br" fill="#fff"><use xlink:href="#bq"/></mask><path d="M31.76 15.48c5.533 0 10.476 2.5 13.84 6.407 2.614 3.04 4.588 7.786 4.7 12.11.096 3.676-.763 7.197-2.602 10.166-1.404 2.246-3.82 4.897-6.037 6.347-2.853 1.865-6.23 3.072-9.901 3.072-2.118 0-5.064-.43-6.951-1.088a17.935 17.935 0 0 1-6.978-4.423c-1.43-1.471-3.112-3.965-3.99-5.85-1.172-2.516-1.65-5.335-1.555-8.224.096-2.934 1.202-6.51 2.5-8.926 1.785-3.305 4.623-5.877 7.934-7.557 2.444-1.24 6.107-2.035 9.04-2.035" fill="#FF20CD" mask="url(#br)"/><mask id="bt" fill="#fff"><use xlink:href="#bs"/></mask><path d="M31.418 15.733c5.492 0 10.406 2.465 13.748 6.33 2.666 3.083 4.54 7.63 4.617 12.028.064 3.619-.843 7.058-2.647 9.96-1.427 2.287-3.706 4.715-5.974 6.17-2.816 1.806-6.144 2.937-9.744 2.937-2.153 0-4.826-.421-6.741-1.106a17.942 17.942 0 0 1-6.77-4.308c-1.463-1.488-3.003-3.747-3.893-5.665-1.13-2.44-1.643-5.17-1.581-7.988.067-2.985 1.058-6.335 2.378-8.794 1.749-3.244 4.498-5.816 7.743-7.494 2.476-1.281 5.882-2.07 8.864-2.07" fill="#FF20CE" mask="url(#bt)"/><mask id="bv" fill="#fff"><use xlink:href="#bu"/></mask><path d="M31.077 15.987c5.451 0 10.334 2.426 13.657 6.25 2.718 3.126 4.49 7.476 4.53 11.946.032 3.564-.92 6.922-2.69 9.759-1.45 2.323-3.592 4.532-5.91 5.992-2.778 1.749-6.058 2.8-9.587 2.8-2.187 0-4.589-.413-6.53-1.123a17.974 17.974 0 0 1-6.565-4.196c-1.496-1.504-2.895-3.529-3.796-5.478-1.09-2.365-1.639-5.004-1.607-7.754.036-3.034.916-6.16 2.256-8.658 1.711-3.184 4.372-5.757 7.553-7.435 2.508-1.321 5.659-2.103 8.689-2.103" fill="#FF20CF" mask="url(#bv)"/><mask id="bx" fill="#fff"><use xlink:href="#bw"/></mask><path d="M48.746 34.276c0 9.96-8.062 18.034-18.01 18.034-9.947 0-18.011-8.073-18.011-18.034 0-9.961 8.064-18.035 18.011-18.035 9.948 0 18.01 8.074 18.01 18.035" fill="#FF20D0" mask="url(#bx)"/><mask id="bz" fill="#fff"><use xlink:href="#by"/></mask><path d="M32.629.245a22.32 22.32 0 0 0-19.337 11.179L3.49 28.428a22.386 22.386 0 0 0 0 22.359l9.802 17.005a22.324 22.324 0 0 0 19.337 11.179h19.607a22.325 22.325 0 0 0 19.336-11.179l9.805-17.005a22.386 22.386 0 0 0 0-22.36l-9.805-17.003A22.322 22.322 0 0 0 52.236.245H32.63z" mask="url(#bz)"/><g fill="#FFF"><path d="M45.486 30.355c2.713.747 4.767 3.128 5.23 6.07a.66.66 0 0 0 .638.575.695.695 0 0 0 .106-.01c.352-.064.59-.417.531-.794-.549-3.477-2.976-6.293-6.18-7.174-.349-.095-.7.127-.79.495-.09.367.12.743.465.838"/><path d="M33.066 49.782l-6.53 6.53a1.308 1.308 0 0 1-2.232-.924c0-.347.136-.676.384-.923l6.53-6.53c.246-.247.574-.383.924-.383a1.301 1.301 0 0 1 1.306 1.306 1.3 1.3 0 0 1-.382.924zm10.831-22.476c5.403 0 9.797 4.394 9.797 9.797 0 5.4-4.394 9.796-9.797 9.796-5.402 0-9.796-4.396-9.796-9.796 0-5.403 4.394-9.797 9.796-9.797zm-9.907 23.4c.493-.494.764-1.15.764-1.848 0-.474-.126-.93-.36-1.327l2.133-2.133a11.051 11.051 0 0 0 7.37 2.807C50.02 48.205 55 43.225 55 37.103S50.02 26 43.897 26c-6.121 0-11.1 4.98-11.1 11.103 0 2.826 1.06 5.407 2.807 7.371l-2.135 2.133a2.601 2.601 0 0 0-1.327-.362c-.698 0-1.354.272-1.847.765l-6.53 6.531A2.598 2.598 0 0 0 23 55.388 2.605 2.605 0 0 0 25.612 58c.669 0 1.338-.255 1.847-.764l6.53-6.53z"/><path d="M59.998 25.906l-.005-.027c-.002-.012-.002-.024-.005-.035-.002-.012-.006-.02-.007-.031l-.01-.03-.01-.03c-.001-.009-.005-.02-.008-.03a.17.17 0 0 1-.013-.027c-.005-.01-.009-.019-.016-.03-.003-.008-.008-.015-.014-.024a.167.167 0 0 1-.017-.03l-.02-.025a.213.213 0 0 0-.017-.024l-.039-.042-.003-.006-8.322-8.327v-.002a.666.666 0 0 0-.08-.065c-.022-.017-.046-.031-.07-.045-.002-.002-.004-.002-.006-.002a.717.717 0 0 0-.074-.034l-.016-.005c-.024-.009-.052-.016-.08-.023h-.002a.652.652 0 0 0-.08-.01h-.022L51.039 17h-21.12A1.923 1.923 0 0 0 28 18.923v27.544a.64.64 0 1 0 1.28 0V18.923a.64.64 0 0 1 .64-.64H50.4v6.405c0 1.06.86 1.922 1.92 1.922h3.84a.64.64 0 1 0 0-1.281h-3.84a.642.642 0 0 1-.64-.64v-5.5l7.04 7.046v29.842a.643.643 0 0 1-.64.642H30.56a.637.637 0 0 0-.639.639.64.64 0 0 0 .638.642h27.522A1.922 1.922 0 0 0 60 56.077V25.969c0-.02 0-.042-.002-.063"/><path d="M50 37.5c0-.276-.285-.5-.636-.5H36.638c-.353 0-.638.224-.638.5s.285.5.638.5h12.726c.351 0 .636-.224.636-.5m.383 2.5H38.617c-.342 0-.617.224-.617.5 0 .275.275.5.617.5h11.766c.342 0 .617-.225.617-.5 0-.276-.275-.5-.617-.5m-11.738-5h9.708c.357 0 .647-.224.647-.5 0-.275-.29-.5-.647-.5h-9.708c-.357 0-.645.225-.645.5 0 .276.288.5.645.5"/></g></g></svg>