<svg width="83" height="77" xmlns="http://www.w3.org/2000/svg" xmlns:xlink="http://www.w3.org/1999/xlink"><defs><path d="M31.971.301a21.738 21.738 0 0 0-18.827 10.881L3.6 27.731a21.78 21.78 0 0 0 0 21.76l9.543 16.547a21.734 21.734 0 0 0 18.827 10.88h19.087a21.731 21.731 0 0 0 18.826-10.88l9.544-16.547a21.78 21.78 0 0 0 0-21.76l-9.544-16.549A21.735 21.735 0 0 0 51.058.301" id="a"/><path d="M31.971.301a21.738 21.738 0 0 0-18.827 10.881L3.6 27.731a21.78 21.78 0 0 0 0 21.76l9.543 16.547a21.734 21.734 0 0 0 18.827 10.88h19.087a21.731 21.731 0 0 0 18.826-10.88l9.544-16.547a21.78 21.78 0 0 0 0-21.76l-9.544-16.549A21.735 21.735 0 0 0 51.058.301" id="c"/><path d="M31.971.301a21.738 21.738 0 0 0-18.827 10.881L3.6 27.731a21.78 21.78 0 0 0 0 21.76l9.543 16.547a21.734 21.734 0 0 0 18.827 10.88h19.087a21.731 21.731 0 0 0 18.826-10.88l9.544-16.547a21.78 21.78 0 0 0 0-21.76l-9.544-16.549A21.735 21.735 0 0 0 51.058.301" id="e"/><path d="M31.971.301a21.738 21.738 0 0 0-18.827 10.881L3.6 27.731a21.78 21.78 0 0 0 0 21.76l9.543 16.547a21.734 21.734 0 0 0 18.827 10.88h19.087a21.731 21.731 0 0 0 18.826-10.88l9.544-16.547a21.78 21.78 0 0 0 0-21.76l-9.544-16.549A21.735 21.735 0 0 0 51.058.301" id="g"/><path d="M31.971.301a21.738 21.738 0 0 0-18.827 10.881L3.6 27.731a21.78 21.78 0 0 0 0 21.76l9.543 16.547a21.734 21.734 0 0 0 18.827 10.88h19.087a21.731 21.731 0 0 0 18.826-10.88l9.544-16.547a21.78 21.78 0 0 0 0-21.76l-9.544-16.549A21.735 21.735 0 0 0 51.058.301" id="i"/><path d="M31.971.301a21.738 21.738 0 0 0-18.827 10.881L3.6 27.731a21.78 21.78 0 0 0 0 21.76l9.543 16.547a21.734 21.734 0 0 0 18.827 10.88h19.087a21.731 21.731 0 0 0 18.826-10.88l9.544-16.547a21.78 21.78 0 0 0 0-21.76l-9.544-16.549A21.735 21.735 0 0 0 51.058.301" id="k"/><path d="M31.971.301a21.738 21.738 0 0 0-18.827 10.881L3.6 27.731a21.78 21.78 0 0 0 0 21.76l9.543 16.547a21.734 21.734 0 0 0 18.827 10.88h19.087a21.731 21.731 0 0 0 18.826-10.88l9.544-16.547a21.78 21.78 0 0 0 0-21.76l-9.544-16.549A21.735 21.735 0 0 0 51.058.301" id="m"/><path d="M31.971.301a21.738 21.738 0 0 0-18.827 10.881L3.6 27.731a21.78 21.78 0 0 0 0 21.76l9.543 16.547a21.734 21.734 0 0 0 18.827 10.88h19.087a21.731 21.731 0 0 0 18.826-10.88l9.544-16.547a21.78 21.78 0 0 0 0-21.76l-9.544-16.549A21.735 21.735 0 0 0 51.058.301" id="o"/><path d="M31.971.301a21.738 21.738 0 0 0-18.827 10.881L3.6 27.731a21.78 21.78 0 0 0 0 21.76l9.543 16.547a21.734 21.734 0 0 0 18.827 10.88h19.087a21.731 21.731 0 0 0 18.826-10.88l9.544-16.547a21.78 21.78 0 0 0 0-21.76l-9.544-16.549A21.735 21.735 0 0 0 51.058.301" id="q"/><path d="M31.971.301a21.738 21.738 0 0 0-18.827 10.881L3.6 27.731a21.78 21.78 0 0 0 0 21.76l9.543 16.547a21.734 21.734 0 0 0 18.827 10.88h19.087a21.731 21.731 0 0 0 18.826-10.88l9.544-16.547a21.78 21.78 0 0 0 0-21.76l-9.544-16.549A21.735 21.735 0 0 0 51.058.301" id="s"/><path d="M31.971.301a21.738 21.738 0 0 0-18.827 10.881L3.6 27.731a21.78 21.78 0 0 0 0 21.76l9.543 16.547a21.734 21.734 0 0 0 18.827 10.88h19.087a21.731 21.731 0 0 0 18.826-10.88l9.544-16.547a21.78 21.78 0 0 0 0-21.76l-9.544-16.549A21.735 21.735 0 0 0 51.058.301" id="u"/><path d="M31.971.301a21.738 21.738 0 0 0-18.827 10.881L3.6 27.731a21.78 21.78 0 0 0 0 21.76l9.543 16.547a21.734 21.734 0 0 0 18.827 10.88h19.087a21.731 21.731 0 0 0 18.826-10.88l9.544-16.547a21.78 21.78 0 0 0 0-21.76l-9.544-16.549A21.735 21.735 0 0 0 51.058.301" id="w"/><path d="M31.971.301a21.738 21.738 0 0 0-18.827 10.881L3.6 27.731a21.78 21.78 0 0 0 0 21.76l9.543 16.547a21.734 21.734 0 0 0 18.827 10.88h19.087a21.731 21.731 0 0 0 18.826-10.88l9.544-16.547a21.78 21.78 0 0 0 0-21.76l-9.544-16.549A21.735 21.735 0 0 0 51.058.301" id="y"/><path d="M31.971.301a21.738 21.738 0 0 0-18.827 10.881L3.6 27.731a21.78 21.78 0 0 0 0 21.76l9.543 16.547a21.734 21.734 0 0 0 18.827 10.88h19.087a21.731 21.731 0 0 0 18.826-10.88l9.544-16.547a21.78 21.78 0 0 0 0-21.76l-9.544-16.549A21.735 21.735 0 0 0 51.058.301" id="A"/><path d="M31.971.301a21.738 21.738 0 0 0-18.827 10.881L3.6 27.731a21.78 21.78 0 0 0 0 21.76l9.543 16.547a21.734 21.734 0 0 0 18.827 10.88h19.087a21.731 21.731 0 0 0 18.826-10.88l9.544-16.547a21.78 21.78 0 0 0 0-21.76l-9.544-16.549A21.735 21.735 0 0 0 51.058.301" id="C"/><path d="M31.971.301a21.738 21.738 0 0 0-18.827 10.881L3.6 27.731a21.78 21.78 0 0 0 0 21.76l9.543 16.547a21.734 21.734 0 0 0 18.827 10.88h19.087a21.731 21.731 0 0 0 18.826-10.88l9.544-16.547a21.78 21.78 0 0 0 0-21.76l-9.544-16.549A21.735 21.735 0 0 0 51.058.301" id="E"/><path d="M31.971.301a21.738 21.738 0 0 0-18.827 10.881L3.6 27.731a21.78 21.78 0 0 0 0 21.76l9.543 16.547a21.734 21.734 0 0 0 18.827 10.88h19.087a21.731 21.731 0 0 0 18.826-10.88l9.544-16.547a21.78 21.78 0 0 0 0-21.76l-9.544-16.549A21.735 21.735 0 0 0 51.058.301" id="G"/><path d="M31.971.301a21.738 21.738 0 0 0-18.827 10.881L3.6 27.731a21.78 21.78 0 0 0 0 21.76l9.543 16.547a21.734 21.734 0 0 0 18.827 10.88h19.087a21.731 21.731 0 0 0 18.826-10.88l9.544-16.547a21.78 21.78 0 0 0 0-21.76l-9.544-16.549A21.735 21.735 0 0 0 51.058.301" id="I"/><path d="M31.971.301a21.738 21.738 0 0 0-18.827 10.881L3.6 27.731a21.78 21.78 0 0 0 0 21.76l9.543 16.547a21.734 21.734 0 0 0 18.827 10.88h19.087a21.731 21.731 0 0 0 18.826-10.88l9.544-16.547a21.78 21.78 0 0 0 0-21.76l-9.544-16.549A21.735 21.735 0 0 0 51.058.301" id="K"/><path d="M31.971.301a21.738 21.738 0 0 0-18.827 10.881L3.6 27.731a21.78 21.78 0 0 0 0 21.76l9.543 16.547a21.734 21.734 0 0 0 18.827 10.88h19.087a21.731 21.731 0 0 0 18.826-10.88l9.544-16.547a21.78 21.78 0 0 0 0-21.76l-9.544-16.549A21.735 21.735 0 0 0 51.058.301" id="M"/><path d="M31.971.301a21.738 21.738 0 0 0-18.827 10.881L3.6 27.731a21.78 21.78 0 0 0 0 21.76l9.543 16.547a21.734 21.734 0 0 0 18.827 10.88h19.087a21.731 21.731 0 0 0 18.826-10.88l9.544-16.547a21.78 21.78 0 0 0 0-21.76l-9.544-16.549A21.735 21.735 0 0 0 51.058.301" id="O"/><path d="M31.971.301a21.738 21.738 0 0 0-18.827 10.881L3.6 27.731a21.78 21.78 0 0 0 0 21.76l9.543 16.547a21.734 21.734 0 0 0 18.827 10.88h19.087a21.731 21.731 0 0 0 18.826-10.88l9.544-16.547a21.78 21.78 0 0 0 0-21.76l-9.544-16.549A21.735 21.735 0 0 0 51.058.301" id="Q"/><path d="M31.971.301a21.738 21.738 0 0 0-18.827 10.881L3.6 27.731a21.78 21.78 0 0 0 0 21.76l9.543 16.547a21.734 21.734 0 0 0 18.827 10.88h19.087a21.731 21.731 0 0 0 18.826-10.88l9.544-16.547a21.78 21.78 0 0 0 0-21.76l-9.544-16.549A21.735 21.735 0 0 0 51.058.301" id="S"/><path d="M31.971.301a21.738 21.738 0 0 0-18.827 10.881L3.6 27.731a21.78 21.78 0 0 0 0 21.76l9.543 16.547a21.734 21.734 0 0 0 18.827 10.88h19.087a21.731 21.731 0 0 0 18.826-10.88l9.544-16.547a21.78 21.78 0 0 0 0-21.76l-9.544-16.549A21.735 21.735 0 0 0 51.058.301" id="U"/><path d="M31.971.301a21.738 21.738 0 0 0-18.827 10.881L3.6 27.731a21.78 21.78 0 0 0 0 21.76l9.543 16.547a21.734 21.734 0 0 0 18.827 10.88h19.087a21.731 21.731 0 0 0 18.826-10.88l9.544-16.547a21.78 21.78 0 0 0 0-21.76l-9.544-16.549A21.735 21.735 0 0 0 51.058.301" id="W"/><path d="M31.971.301a21.738 21.738 0 0 0-18.827 10.881L3.6 27.731a21.78 21.78 0 0 0 0 21.76l9.543 16.547a21.734 21.734 0 0 0 18.827 10.88h19.087a21.731 21.731 0 0 0 18.826-10.88l9.544-16.547a21.78 21.78 0 0 0 0-21.76l-9.544-16.549A21.735 21.735 0 0 0 51.058.301" id="Y"/><path d="M31.971.301a21.738 21.738 0 0 0-18.827 10.881L3.6 27.731a21.78 21.78 0 0 0 0 21.76l9.543 16.547a21.734 21.734 0 0 0 18.827 10.88h19.087a21.731 21.731 0 0 0 18.826-10.88l9.544-16.547a21.78 21.78 0 0 0 0-21.76l-9.544-16.549A21.735 21.735 0 0 0 51.058.301" id="aa"/><path d="M31.971.301a21.738 21.738 0 0 0-18.827 10.881L3.6 27.731a21.78 21.78 0 0 0 0 21.76l9.543 16.547a21.734 21.734 0 0 0 18.827 10.88h19.087a21.731 21.731 0 0 0 18.826-10.88l9.544-16.547a21.78 21.78 0 0 0 0-21.76l-9.544-16.549A21.735 21.735 0 0 0 51.058.301" id="ac"/><path d="M31.971.301a21.738 21.738 0 0 0-18.827 10.881L3.6 27.731a21.78 21.78 0 0 0 0 21.76l9.543 16.547a21.734 21.734 0 0 0 18.827 10.88h19.087a21.731 21.731 0 0 0 18.826-10.88l9.544-16.547a21.78 21.78 0 0 0 0-21.76l-9.544-16.549A21.735 21.735 0 0 0 51.058.301" id="ae"/><path d="M31.971.301a21.738 21.738 0 0 0-18.827 10.881L3.6 27.731a21.78 21.78 0 0 0 0 21.76l9.543 16.547a21.734 21.734 0 0 0 18.827 10.88h19.087a21.731 21.731 0 0 0 18.826-10.88l9.544-16.547a21.78 21.78 0 0 0 0-21.76l-9.544-16.549A21.735 21.735 0 0 0 51.058.301" id="ag"/><path d="M31.971.301a21.738 21.738 0 0 0-18.827 10.881L3.6 27.731a21.78 21.78 0 0 0 0 21.76l9.543 16.547a21.734 21.734 0 0 0 18.827 10.88h19.087a21.731 21.731 0 0 0 18.826-10.88l9.544-16.547a21.78 21.78 0 0 0 0-21.76l-9.544-16.549A21.735 21.735 0 0 0 51.058.301" id="ai"/><path d="M31.971.301a21.738 21.738 0 0 0-18.827 10.881L3.6 27.731a21.78 21.78 0 0 0 0 21.76l9.543 16.547a21.734 21.734 0 0 0 18.827 10.88h19.087a21.731 21.731 0 0 0 18.826-10.88l9.544-16.547a21.78 21.78 0 0 0 0-21.76l-9.544-16.549A21.735 21.735 0 0 0 51.058.301" id="ak"/><path d="M31.971.301a21.738 21.738 0 0 0-18.827 10.881L3.6 27.731a21.78 21.78 0 0 0 0 21.76l9.543 16.547a21.734 21.734 0 0 0 18.827 10.88h19.087a21.731 21.731 0 0 0 18.826-10.88l9.544-16.547a21.78 21.78 0 0 0 0-21.76l-9.544-16.549A21.735 21.735 0 0 0 51.058.301" id="am"/><path d="M31.971.301a21.738 21.738 0 0 0-18.827 10.881L3.6 27.731a21.78 21.78 0 0 0 0 21.76l9.543 16.547a21.734 21.734 0 0 0 18.827 10.88h19.087a21.731 21.731 0 0 0 18.826-10.88l9.544-16.547a21.78 21.78 0 0 0 0-21.76l-9.544-16.549A21.735 21.735 0 0 0 51.058.301" id="ao"/><path d="M31.971.301a21.738 21.738 0 0 0-18.827 10.881L3.6 27.731a21.78 21.78 0 0 0 0 21.76l9.543 16.547a21.734 21.734 0 0 0 18.827 10.88h19.087a21.731 21.731 0 0 0 18.826-10.88l9.544-16.547a21.78 21.78 0 0 0 0-21.76l-9.544-16.549A21.735 21.735 0 0 0 51.058.301" id="aq"/><path d="M31.971.301a21.738 21.738 0 0 0-18.827 10.881L3.6 27.731a21.78 21.78 0 0 0 0 21.76l9.543 16.547a21.734 21.734 0 0 0 18.827 10.88h19.087a21.731 21.731 0 0 0 18.826-10.88l9.544-16.547a21.78 21.78 0 0 0 0-21.76l-9.544-16.549A21.735 21.735 0 0 0 51.058.301" id="as"/><path d="M31.971.301a21.738 21.738 0 0 0-18.827 10.881L3.6 27.731a21.78 21.78 0 0 0 0 21.76l9.543 16.547a21.734 21.734 0 0 0 18.827 10.88h19.087a21.731 21.731 0 0 0 18.826-10.88l9.544-16.547a21.78 21.78 0 0 0 0-21.76l-9.544-16.549A21.735 21.735 0 0 0 51.058.301" id="au"/><path d="M31.971.301a21.738 21.738 0 0 0-18.827 10.881L3.6 27.731a21.78 21.78 0 0 0 0 21.76l9.543 16.547a21.734 21.734 0 0 0 18.827 10.88h19.087a21.731 21.731 0 0 0 18.826-10.88l9.544-16.547a21.78 21.78 0 0 0 0-21.76l-9.544-16.549A21.735 21.735 0 0 0 51.058.301" id="aw"/><path d="M31.971.301a21.738 21.738 0 0 0-18.827 10.881L3.6 27.731a21.78 21.78 0 0 0 0 21.76l9.543 16.547a21.734 21.734 0 0 0 18.827 10.88h19.087a21.731 21.731 0 0 0 18.826-10.88l9.544-16.547a21.78 21.78 0 0 0 0-21.76l-9.544-16.549A21.735 21.735 0 0 0 51.058.301" id="ay"/><path d="M31.971.301a21.738 21.738 0 0 0-18.827 10.881L3.6 27.731a21.78 21.78 0 0 0 0 21.76l9.543 16.547a21.734 21.734 0 0 0 18.827 10.88h19.087a21.731 21.731 0 0 0 18.826-10.88l9.544-16.547a21.78 21.78 0 0 0 0-21.76l-9.544-16.549A21.735 21.735 0 0 0 51.058.301" id="aA"/><path d="M31.971.301a21.738 21.738 0 0 0-18.827 10.881L3.6 27.731a21.78 21.78 0 0 0 0 21.76l9.543 16.547a21.734 21.734 0 0 0 18.827 10.88h19.087a21.731 21.731 0 0 0 18.826-10.88l9.544-16.547a21.78 21.78 0 0 0 0-21.76l-9.544-16.549A21.735 21.735 0 0 0 51.058.301" id="aC"/><path d="M31.971.301a21.738 21.738 0 0 0-18.827 10.881L3.6 27.731a21.78 21.78 0 0 0 0 21.76l9.543 16.547a21.734 21.734 0 0 0 18.827 10.88h19.087a21.731 21.731 0 0 0 18.826-10.88l9.544-16.547a21.78 21.78 0 0 0 0-21.76l-9.544-16.549A21.735 21.735 0 0 0 51.058.301" id="aE"/><path d="M31.971.301a21.738 21.738 0 0 0-18.827 10.881L3.6 27.731a21.78 21.78 0 0 0 0 21.76l9.543 16.547a21.734 21.734 0 0 0 18.827 10.88h19.087a21.731 21.731 0 0 0 18.826-10.88l9.544-16.547a21.78 21.78 0 0 0 0-21.76l-9.544-16.549A21.735 21.735 0 0 0 51.058.301" id="aG"/><path d="M31.971.301a21.738 21.738 0 0 0-18.827 10.881L3.6 27.731a21.78 21.78 0 0 0 0 21.76l9.543 16.547a21.734 21.734 0 0 0 18.827 10.88h19.087a21.731 21.731 0 0 0 18.826-10.88l9.544-16.547a21.78 21.78 0 0 0 0-21.76l-9.544-16.549A21.735 21.735 0 0 0 51.058.301" id="aI"/><path d="M31.971.301a21.738 21.738 0 0 0-18.827 10.881L3.6 27.731a21.78 21.78 0 0 0 0 21.76l9.543 16.547a21.734 21.734 0 0 0 18.827 10.88h19.087a21.731 21.731 0 0 0 18.826-10.88l9.544-16.547a21.78 21.78 0 0 0 0-21.76l-9.544-16.549A21.735 21.735 0 0 0 51.058.301" id="aK"/><path d="M31.971.301a21.738 21.738 0 0 0-18.827 10.881L3.6 27.731a21.78 21.78 0 0 0 0 21.76l9.543 16.547a21.734 21.734 0 0 0 18.827 10.88h19.087a21.731 21.731 0 0 0 18.826-10.88l9.544-16.547a21.78 21.78 0 0 0 0-21.76l-9.544-16.549A21.735 21.735 0 0 0 51.058.301" id="aM"/><path d="M31.971.301a21.738 21.738 0 0 0-18.827 10.881L3.6 27.731a21.78 21.78 0 0 0 0 21.76l9.543 16.547a21.734 21.734 0 0 0 18.827 10.88h19.087a21.731 21.731 0 0 0 18.826-10.88l9.544-16.547a21.78 21.78 0 0 0 0-21.76l-9.544-16.549A21.735 21.735 0 0 0 51.058.301" id="aO"/><path d="M31.971.301a21.738 21.738 0 0 0-18.827 10.881L3.6 27.731a21.78 21.78 0 0 0 0 21.76l9.543 16.547a21.734 21.734 0 0 0 18.827 10.88h19.087a21.731 21.731 0 0 0 18.826-10.88l9.544-16.547a21.78 21.78 0 0 0 0-21.76l-9.544-16.549A21.735 21.735 0 0 0 51.058.301" id="aQ"/><path d="M31.971.301a21.738 21.738 0 0 0-18.827 10.881L3.6 27.731a21.78 21.78 0 0 0 0 21.76l9.543 16.547a21.734 21.734 0 0 0 18.827 10.88h19.087a21.731 21.731 0 0 0 18.826-10.88l9.544-16.547a21.78 21.78 0 0 0 0-21.76l-9.544-16.549A21.735 21.735 0 0 0 51.058.301" id="aS"/><path d="M31.971.301a21.738 21.738 0 0 0-18.827 10.881L3.6 27.731a21.78 21.78 0 0 0 0 21.76l9.543 16.547a21.734 21.734 0 0 0 18.827 10.88h19.087a21.731 21.731 0 0 0 18.826-10.88l9.544-16.547a21.78 21.78 0 0 0 0-21.76l-9.544-16.549A21.735 21.735 0 0 0 51.058.301" id="aU"/><path d="M31.971.301a21.738 21.738 0 0 0-18.827 10.881L3.6 27.731a21.78 21.78 0 0 0 0 21.76l9.543 16.547a21.734 21.734 0 0 0 18.827 10.88h19.087a21.731 21.731 0 0 0 18.826-10.88l9.544-16.547a21.78 21.78 0 0 0 0-21.76l-9.544-16.549A21.735 21.735 0 0 0 51.058.301" id="aW"/><path d="M31.971.301a21.738 21.738 0 0 0-18.827 10.881L3.6 27.731a21.78 21.78 0 0 0 0 21.76l9.543 16.547a21.734 21.734 0 0 0 18.827 10.88h19.087a21.731 21.731 0 0 0 18.826-10.88l9.544-16.547a21.78 21.78 0 0 0 0-21.76l-9.544-16.549A21.735 21.735 0 0 0 51.058.301" id="aY"/><path d="M31.971.301a21.738 21.738 0 0 0-18.827 10.881L3.6 27.731a21.78 21.78 0 0 0 0 21.76l9.543 16.547a21.734 21.734 0 0 0 18.827 10.88h19.087a21.731 21.731 0 0 0 18.826-10.88l9.544-16.547a21.78 21.78 0 0 0 0-21.76l-9.544-16.549A21.735 21.735 0 0 0 51.058.301" id="ba"/><path d="M31.971.301a21.738 21.738 0 0 0-18.827 10.881L3.6 27.731a21.78 21.78 0 0 0 0 21.76l9.543 16.547a21.734 21.734 0 0 0 18.827 10.88h19.087a21.731 21.731 0 0 0 18.826-10.88l9.544-16.547a21.78 21.78 0 0 0 0-21.76l-9.544-16.549A21.735 21.735 0 0 0 51.058.301" id="bc"/><path d="M31.971.301a21.738 21.738 0 0 0-18.827 10.881L3.6 27.731a21.78 21.78 0 0 0 0 21.76l9.543 16.547a21.734 21.734 0 0 0 18.827 10.88h19.087a21.731 21.731 0 0 0 18.826-10.88l9.544-16.547a21.78 21.78 0 0 0 0-21.76l-9.544-16.549A21.735 21.735 0 0 0 51.058.301" id="be"/><path d="M31.971.301a21.738 21.738 0 0 0-18.827 10.881L3.6 27.731a21.78 21.78 0 0 0 0 21.76l9.543 16.547a21.734 21.734 0 0 0 18.827 10.88h19.087a21.731 21.731 0 0 0 18.826-10.88l9.544-16.547a21.78 21.78 0 0 0 0-21.76l-9.544-16.549A21.735 21.735 0 0 0 51.058.301" id="bg"/><path d="M31.971.301a21.738 21.738 0 0 0-18.827 10.881L3.6 27.731a21.78 21.78 0 0 0 0 21.76l9.543 16.547a21.734 21.734 0 0 0 18.827 10.88h19.087a21.731 21.731 0 0 0 18.826-10.88l9.544-16.547a21.78 21.78 0 0 0 0-21.76l-9.544-16.549A21.735 21.735 0 0 0 51.058.301" id="bi"/><path d="M31.971.301a21.738 21.738 0 0 0-18.827 10.881L3.6 27.731a21.78 21.78 0 0 0 0 21.76l9.543 16.547a21.734 21.734 0 0 0 18.827 10.88h19.087a21.731 21.731 0 0 0 18.826-10.88l9.544-16.547a21.78 21.78 0 0 0 0-21.76l-9.544-16.549A21.735 21.735 0 0 0 51.058.301" id="bk"/><path d="M31.971.301a21.738 21.738 0 0 0-18.827 10.881L3.6 27.731a21.78 21.78 0 0 0 0 21.76l9.543 16.547a21.734 21.734 0 0 0 18.827 10.88h19.087a21.731 21.731 0 0 0 18.826-10.88l9.544-16.547a21.78 21.78 0 0 0 0-21.76l-9.544-16.549A21.735 21.735 0 0 0 51.058.301" id="bm"/><path d="M31.971.301a21.738 21.738 0 0 0-18.827 10.881L3.6 27.731a21.78 21.78 0 0 0 0 21.76l9.543 16.547a21.734 21.734 0 0 0 18.827 10.88h19.087a21.731 21.731 0 0 0 18.826-10.88l9.544-16.547a21.78 21.78 0 0 0 0-21.76l-9.544-16.549A21.735 21.735 0 0 0 51.058.301" id="bo"/><path d="M31.971.301a21.738 21.738 0 0 0-18.827 10.881L3.6 27.731a21.78 21.78 0 0 0 0 21.76l9.543 16.547a21.734 21.734 0 0 0 18.827 10.88h19.087a21.731 21.731 0 0 0 18.826-10.88l9.544-16.547a21.78 21.78 0 0 0 0-21.76l-9.544-16.549A21.735 21.735 0 0 0 51.058.301" id="bq"/><path d="M31.971.301a21.738 21.738 0 0 0-18.827 10.881L3.6 27.731a21.78 21.78 0 0 0 0 21.76l9.543 16.547a21.734 21.734 0 0 0 18.827 10.88h19.087a21.731 21.731 0 0 0 18.826-10.88l9.544-16.547a21.78 21.78 0 0 0 0-21.76l-9.544-16.549A21.735 21.735 0 0 0 51.058.301" id="bs"/><path d="M31.971.301a21.738 21.738 0 0 0-18.827 10.881L3.6 27.731a21.78 21.78 0 0 0 0 21.76l9.543 16.547a21.734 21.734 0 0 0 18.827 10.88h19.087a21.731 21.731 0 0 0 18.826-10.88l9.544-16.547a21.78 21.78 0 0 0 0-21.76l-9.544-16.549A21.735 21.735 0 0 0 51.058.301" id="bu"/><path d="M31.971.301a21.738 21.738 0 0 0-18.827 10.881L3.6 27.731a21.78 21.78 0 0 0 0 21.76l9.543 16.547a21.734 21.734 0 0 0 18.827 10.88h19.087a21.731 21.731 0 0 0 18.826-10.88l9.544-16.547a21.78 21.78 0 0 0 0-21.76l-9.544-16.549A21.735 21.735 0 0 0 51.058.301" id="bw"/></defs><g fill="none" fill-rule="evenodd"><mask id="b" fill="#fff"><use xlink:href="#a"/></mask><path d="M51.058.302H31.97a21.731 21.731 0 0 0-18.826 10.881L3.601 27.73a21.784 21.784 0 0 0 0 21.762l9.544 16.547a21.735 21.735 0 0 0 18.826 10.88h19.087a21.74 21.74 0 0 0 18.827-10.88l9.543-16.547a21.784 21.784 0 0 0 0-21.762l-9.543-16.547A21.736 21.736 0 0 0 51.058.302" fill="#FF2091" mask="url(#b)"/><mask id="d" fill="#fff"><use xlink:href="#c"/></mask><path d="M50.727.549c7.726 0 14.238 4.523 18.736 10.803.036.052 9.46 16.398 9.46 16.469 3.822 6.679 3.924 14.963-.042 21.561-.022.038-9.446 16.355-9.482 16.377a21.598 21.598 0 0 1-18.672 10.748c-.036 0-18.854-.007-18.885-.017-7.68-.014-13.93-4.685-18.623-10.77-.021-.026-9.434-16.338-9.45-16.369-3.525-6.831-3.846-14.863-.024-21.53 0-.049 9.403-16.38 9.425-16.417C16.915 4.67 24.12.607 31.81.58 31.85.561 50.679.55 50.727.55" fill="#FF2092" mask="url(#d)"/><mask id="f" fill="#fff"><use xlink:href="#e"/></mask><path d="M50.395.796c7.686 0 14.17 4.487 18.646 10.725.076.106 9.378 16.25 9.378 16.39 3.76 6.627 3.843 14.828-.085 21.364-.043.074-9.347 16.157-9.421 16.204a21.457 21.457 0 0 1-18.518 10.617c-.07 0-18.617-.012-18.68-.037-7.593-.027-13.778-4.644-18.423-10.66-.04-.053-9.325-16.126-9.356-16.186-3.483-6.757-3.81-14.701-.05-21.302 0-.096 9.263-16.208 9.308-16.286C16.904 4.953 24.032.914 31.648.862 31.726.82 50.298.796 50.395.796" fill="#FF2093" mask="url(#f)"/><mask id="h" fill="#fff"><use xlink:href="#g"/></mask><path d="M50.062 1.043c7.647 0 14.103 4.454 18.556 10.649.116.157 9.298 16.099 9.298 16.308 3.698 6.575 3.765 14.696-.127 21.169-.067.11-9.252 15.962-9.36 16.03a21.317 21.317 0 0 1-18.367 10.484c-.104 0-18.382-.017-18.472-.052-7.508-.041-13.627-4.608-18.224-10.552-.062-.078-9.214-15.915-9.261-16.005C.661 42.39.331 34.537 4.029 28c0-.142 9.124-16.038 9.188-16.154 3.68-6.614 10.73-10.625 18.271-10.703.116-.064 18.43-.1 18.574-.1" fill="#FF2094" mask="url(#h)"/><mask id="j" fill="#fff"><use xlink:href="#i"/></mask><path d="M49.73 1.29c7.607 0 14.035 4.418 18.47 10.57.15.211 9.212 15.951 9.212 16.232 3.636 6.522 3.684 14.559-.17 20.97-.09.147-9.153 15.766-9.3 15.856A21.18 21.18 0 0 1 49.73 75.272c-.139 0-18.145-.025-18.266-.07-7.423-.057-13.476-4.57-18.024-10.443-.082-.106-9.106-15.704-9.168-15.824-3.403-6.61-3.738-14.373-.1-20.843 0-.19 8.984-15.869 9.07-16.024C16.885 5.515 23.86 1.525 31.327 1.422c.156-.083 18.212-.132 18.403-.132" fill="#FF2095" mask="url(#j)"/><mask id="l" fill="#fff"><use xlink:href="#k"/></mask><path d="M49.397 1.537c7.567 0 13.968 4.385 18.38 10.494.19.264 9.13 15.8 9.13 16.15 3.573 6.47 3.608 14.426-.211 20.773-.113.185-9.055 15.57-9.239 15.683a21.043 21.043 0 0 1-18.06 10.224c-.173 0-17.901-.059-18.06-.09-7.213-1.342-13.324-4.529-17.824-10.331-.102-.131-8.996-15.493-9.072-15.644-3.363-6.533-3.7-14.21-.127-20.615 0-.237 8.843-15.697 8.952-15.893 3.61-6.494 10.51-10.457 17.9-10.585.195-.106 17.993-.166 18.231-.166" fill="#FF2096" mask="url(#l)"/><mask id="n" fill="#fff"><use xlink:href="#m"/></mask><path d="M49.065 1.784c7.527 0 13.9 4.351 18.29 10.416.23.317 9.046 15.65 9.046 16.073 3.515 6.416 3.53 14.289-.252 20.574-.133.221-8.958 15.375-9.178 15.51-3.765 6.248-10.559 10.09-17.906 10.09-.206 0-17.665-.069-17.857-.105-7.125-1.335-13.17-4.49-17.621-10.222-.123-.157-8.886-15.282-8.98-15.462-3.32-6.461-3.663-14.045-.15-20.385 0-.287 8.705-15.53 8.833-15.763 3.575-6.434 10.4-10.371 17.716-10.527.235-.126 17.773-.199 18.059-.199" fill="#FF2097" mask="url(#n)"/><mask id="p" fill="#fff"><use xlink:href="#o"/></mask><path d="M48.732 2.032c7.49 0 13.832 4.314 18.202 10.338.268.368 8.966 15.502 8.966 15.993 3.45 6.364 3.447 14.154-.298 20.376-.155.257-8.86 15.179-9.117 15.338-3.748 6.167-10.476 9.959-17.753 9.959-.24 0-17.428-.081-17.65-.123-7.04-1.327-13.018-4.453-17.421-10.113-.144-.183-8.776-15.07-8.885-15.282-3.281-6.385-3.627-13.88-.176-20.155 0-.334 8.563-15.36 8.715-15.632 3.54-6.374 10.289-10.287 17.53-10.47.274-.146 17.555-.23 17.887-.23" fill="#FF2098" mask="url(#p)"/><mask id="r" fill="#fff"><use xlink:href="#q"/></mask><path d="M48.4 2.278c7.45 0 13.764 4.28 18.112 10.262.306.42 8.882 15.352 8.882 15.912 3.39 6.313 3.37 14.021-.337 20.18-.18.294-8.765 14.984-9.055 15.166-3.73 6.086-10.394 9.827-17.602 9.827-.273 0-17.19-.093-17.445-.142C24 72.165 18.09 69.07 13.732 63.48c-.162-.209-8.664-14.86-8.787-15.1-3.242-6.31-3.593-13.717-.202-19.927 0-.38 8.423-15.189 8.595-15.5C16.845 6.639 23.518 2.75 30.683 2.544c.315-.17 17.337-.265 17.717-.265" fill="#FF2099" mask="url(#r)"/><mask id="t" fill="#fff"><use xlink:href="#s"/></mask><path d="M48.069 2.526c7.408 0 13.695 4.245 18.022 10.184.344.472 8.8 15.2 8.8 15.834 3.326 6.259 3.29 13.884-.38 19.979-.2.332-8.667 14.79-8.995 14.993-3.71 6.006-10.31 9.696-17.447 9.696-.311 0-16.954-.104-17.241-.158-6.868-1.31-12.712-4.376-17.02-9.895-.185-.235-8.556-14.649-8.694-14.918-3.202-6.239-3.557-13.554-.228-19.697 0-.43 8.282-15.02 8.478-15.37 3.471-6.256 10.07-10.117 17.16-10.352.352-.189 17.116-.296 17.545-.296" fill="#FF209A" mask="url(#t)"/><mask id="v" fill="#fff"><use xlink:href="#u"/></mask><path d="M47.737 2.773c7.37 0 13.627 4.21 17.932 10.106.385.526 8.717 15.052 8.717 15.754 3.267 6.207 3.212 13.75-.422 19.783-.223.369-8.566 14.594-8.933 14.82-3.69 5.925-10.227 9.565-17.294 9.565-.344 0-16.718-.116-17.034-.176-6.785-1.303-12.562-4.337-16.822-9.785-.205-.263-8.447-14.44-8.6-14.739-3.161-6.161-3.519-13.39-.253-19.468 0-.476 8.143-14.848 8.36-15.237 3.438-6.197 9.96-10.034 16.974-10.293.393-.211 16.9-.33 17.375-.33" fill="#FF209B" mask="url(#v)"/><mask id="x" fill="#fff"><use xlink:href="#w"/></mask><path d="M47.404 3.02c7.329 0 13.56 4.176 17.844 10.028.422.578 8.632 14.904 8.632 15.675 3.208 6.155 3.135 13.616-.463 19.586-.244.405-8.47 14.398-8.872 14.646-3.67 5.845-10.144 9.435-17.141 9.435-.378 0-16.48-.127-16.83-.194-6.696-1.294-12.408-4.299-16.619-9.676-.225-.287-8.338-14.228-8.506-14.558-3.12-6.088-3.484-13.226-.278-19.239 0-.522 8.003-14.678 8.24-15.107 3.406-6.134 9.85-9.947 16.792-10.233.43-.231 16.677-.363 17.201-.363" fill="#FF209C" mask="url(#x)"/><mask id="z" fill="#fff"><use xlink:href="#y"/></mask><path d="M47.072 3.267c7.29 0 13.493 4.141 17.754 9.952.463.63 8.552 14.753 8.552 15.595 3.142 6.102 3.052 13.481-.508 19.387-.266.441-8.37 14.205-8.811 14.474-3.652 5.765-10.06 9.302-16.987 9.302-.412 0-16.241-.136-16.625-.21-6.611-1.286-12.255-4.262-16.418-9.566-.248-.314-8.228-14.017-8.413-14.377-3.08-6.015-3.446-13.062-.302-19.01 0-.57 7.863-14.509 8.122-14.976 3.37-6.077 9.74-9.864 16.605-10.175.47-.253 16.46-.396 17.03-.396" fill="#FF209D" mask="url(#z)"/><mask id="B" fill="#fff"><use xlink:href="#A"/></mask><path d="M46.74 3.514c7.248 0 13.425 4.107 17.665 9.875.502.681 8.468 14.603 8.468 15.515 3.081 6.048 2.976 13.346-.548 19.19-.288.478-8.274 14.007-8.75 14.301-3.633 5.683-9.977 9.17-16.836 9.17-.448 0-16.006-.148-16.419-.228-6.525-1.276-12.103-4.22-16.218-9.456-.268-.34-8.118-13.806-8.317-14.197-3.04-5.939-3.411-12.896-.328-18.78 0-.62 7.722-14.34 8.002-14.844 3.337-6.017 9.63-9.78 16.42-10.117.51-.273 16.243-.429 16.86-.429" fill="#FF209E" mask="url(#B)"/><mask id="D" fill="#fff"><use xlink:href="#C"/></mask><path d="M46.407 3.76c7.211 0 13.356 4.073 17.576 9.8.541.73 8.385 14.453 8.385 15.435 3.02 5.996 2.896 13.211-.59 18.991-.31.516-8.177 13.813-8.69 14.128-3.613 5.604-9.892 9.04-16.681 9.04-.48 0-15.767-.16-16.213-.248-6.44-1.267-11.952-4.181-16.018-9.345-.289-.365-8.008-13.596-8.222-14.014-3.002-5.866-3.375-12.736-.355-18.552 0-.666 7.582-14.17 7.884-14.715 3.302-5.957 9.522-9.694 16.237-10.056.548-.295 16.021-.463 16.687-.463" fill="#FF209F" mask="url(#D)"/><mask id="F" fill="#fff"><use xlink:href="#E"/></mask><path d="M46.074 4.008c7.172 0 13.288 4.036 17.489 9.72.579.784 8.301 14.305 8.301 15.357 2.959 5.944 2.819 13.077-.632 18.794-.335.552-8.079 13.616-8.628 13.955-3.595 5.522-9.81 8.908-16.53 8.908-.515 0-15.528-.17-16.007-.265-6.354-1.26-11.8-4.143-15.817-9.236-.31-.393-7.898-13.384-8.13-13.834-2.958-5.79-3.336-12.57-.378-18.322 0-.714 7.443-14 7.766-14.583 3.268-5.897 9.411-9.61 16.05-9.999.588-.315 15.803-.495 16.516-.495" fill="#FF20A0" mask="url(#F)"/><mask id="H" fill="#fff"><use xlink:href="#G"/></mask><path d="M45.742 4.255c7.132 0 13.22 4.001 17.398 9.643.62.837 8.22 14.156 8.22 15.278 2.897 5.89 2.738 12.94-.675 18.595-.356.59-7.982 13.422-8.566 13.784-3.575 5.44-9.727 8.776-16.377 8.776-.548 0-15.294-.182-15.804-.282-6.267-1.25-11.645-4.105-15.615-9.127-.33-.419-7.788-13.173-8.034-13.654-2.92-5.716-3.3-12.407-.404-18.092 0-.763 7.303-13.829 7.647-14.453 3.233-5.839 9.3-9.525 15.865-9.939.628-.337 15.584-.529 16.345-.529" fill="#FF20A1" mask="url(#H)"/><mask id="J" fill="#fff"><use xlink:href="#I"/></mask><path d="M45.411 4.502c7.092 0 13.15 3.967 17.309 9.565.658.888 8.137 14.006 8.137 15.2 2.834 5.836 2.658 12.804-.719 18.397-.378.626-7.883 13.227-8.504 13.61-3.556 5.36-9.644 8.643-16.223 8.643-.586 0-15.057-.19-15.598-.299-6.183-1.242-11.493-4.065-15.416-9.016-.35-.445-7.68-12.962-7.94-13.473-2.878-5.643-3.265-12.242-.43-17.863 0-.81 7.162-13.66 7.528-14.322 3.202-5.778 9.192-9.44 15.683-9.881.663-.358 15.363-.56 16.173-.56" fill="#FF20A2" mask="url(#J)"/><mask id="L" fill="#fff"><use xlink:href="#K"/></mask><path d="M45.079 4.75c7.052 0 13.083 3.931 17.22 9.488.698.937 8.053 13.855 8.053 15.12 2.772 5.782 2.58 12.67-.759 18.198-.402.662-7.786 13.031-8.445 13.438-3.537 5.278-9.56 8.513-16.07 8.513-.618 0-14.82-.203-15.392-.319-6.1-1.233-11.341-4.027-15.216-8.905-.373-.47-7.57-12.753-7.845-13.293-2.84-5.568-3.228-12.078-.456-17.633 0-.858 7.024-13.49 7.412-14.192 3.165-5.72 9.079-9.354 15.495-9.82.704-.38 15.145-.596 16.003-.596" fill="#FF20A4" mask="url(#L)"/><mask id="N" fill="#fff"><use xlink:href="#M"/></mask><path d="M44.746 4.997c7.013 0 13.014 3.897 17.13 9.409.74.99 7.97 13.708 7.97 15.041 2.714 5.732 2.503 12.535-.8 18.002-.425.699-7.69 12.836-8.384 13.265-3.517 5.198-9.477 8.381-15.916 8.381-.653 0-14.582-.213-15.186-.335-6.014-1.225-11.19-3.99-15.016-8.799-.394-.494-7.46-12.54-7.752-13.11-2.796-5.493-3.192-11.915-.479-17.404 0-.906 6.883-13.32 7.291-14.06 3.133-5.659 8.972-9.271 15.311-9.762.745-.402 14.927-.628 15.831-.628" fill="#FF20A4" mask="url(#N)"/><mask id="P" fill="#fff"><use xlink:href="#O"/></mask><path d="M44.414 5.244c6.972 0 12.946 3.861 17.04 9.333.781 1.041 7.89 13.556 7.89 14.96 2.65 5.68 2.422 12.4-.844 17.805-.446.735-7.59 12.64-8.323 13.09-3.497 5.119-9.394 8.25-15.763 8.25-.686 0-14.347-.222-14.981-.351-5.93-1.218-11.038-3.95-14.815-8.69-.415-.519-7.352-12.329-7.657-12.93-2.759-5.419-3.156-11.75-.505-17.174 0-.953 6.743-13.15 7.173-13.929 3.099-5.6 8.86-9.186 15.125-9.705.784-.42 14.707-.659 15.66-.659" fill="#FF20A5" mask="url(#P)"/><mask id="R" fill="#fff"><use xlink:href="#Q"/></mask><path d="M44.081 5.49c6.933 0 12.88 3.827 16.953 9.256.819 1.093 7.806 13.408 7.806 14.882 2.588 5.626 2.343 12.265-.889 17.606-.466.773-7.49 12.445-8.26 12.919-3.477 5.037-9.31 8.118-15.61 8.118-.72 0-14.108-.232-14.777-.37-5.84-1.21-10.883-3.911-14.612-8.579-.438-.546-7.241-12.118-7.564-12.75-2.715-5.343-3.118-11.586-.53-16.944 0-1 6.604-12.98 7.057-13.798 3.062-5.54 8.749-9.102 14.94-9.646.822-.442 14.487-.693 15.486-.693" fill="#FF20A6" mask="url(#R)"/><mask id="T" fill="#fff"><use xlink:href="#S"/></mask><path d="M43.749 5.738c6.893 0 12.812 3.792 16.864 9.177.86 1.144 7.723 13.259 7.723 14.803 2.525 5.574 2.262 12.132-.931 17.409-.49.81-7.393 12.249-8.198 12.746-3.46 4.956-9.228 7.987-15.458 7.987-.755 0-13.872-.243-14.572-.388-5.756-1.2-10.731-3.873-14.412-8.47-.458-.572-7.132-11.907-7.469-12.567-2.677-5.272-3.083-11.425-.554-16.717 0-1.048 6.463-12.81 6.936-13.668 3.03-5.48 8.64-9.014 14.756-9.585.861-.464 14.27-.727 15.315-.727" fill="#FF20A7" mask="url(#T)"/><mask id="V" fill="#fff"><use xlink:href="#U"/></mask><path d="M43.416 5.985c6.856 0 12.743 3.757 16.775 9.101.902 1.194 7.64 13.108 7.64 14.722 2.466 5.522 2.186 11.997-.971 17.21-.512.846-7.296 12.055-8.14 12.574-3.44 4.876-9.145 7.855-15.304 7.855-.79 0-13.634-.252-14.365-.405-5.672-1.192-10.58-3.833-14.212-8.36-.479-.597-7.025-11.695-7.376-12.387-2.633-5.196-3.045-11.26-.58-16.487 0-1.095 6.324-12.64 6.82-13.535 2.995-5.422 8.529-8.932 14.568-9.529.902-.484 14.051-.759 15.145-.759" fill="#FF20A8" mask="url(#V)"/><mask id="X" fill="#fff"><use xlink:href="#W"/></mask><path d="M43.086 6.232c6.812 0 12.673 3.721 16.683 9.024.941 1.245 7.557 12.958 7.557 14.642 2.405 5.47 2.106 11.863-1.013 17.013-.534.883-7.2 11.859-8.077 12.4-3.422 4.796-9.062 7.724-15.15 7.724-.827 0-13.4-.26-14.16-.423-5.587-1.184-10.428-3.794-14.014-8.249-.5-.622-6.914-11.485-7.28-12.206-2.596-5.122-3.01-11.096-.605-16.26 0-1.141 6.183-12.469 6.7-13.403 2.962-5.363 8.42-8.848 14.385-9.47.94-.504 13.831-.792 14.974-.792" fill="#FF20AA" mask="url(#X)"/><mask id="Z" fill="#fff"><use xlink:href="#Y"/></mask><path d="M42.753 6.479c6.774 0 12.607 3.686 16.597 8.945.981 1.296 7.472 12.81 7.472 14.565 2.342 5.416 2.029 11.727-1.056 16.816-.556.919-7.1 11.661-8.015 12.225-3.402 4.716-8.979 7.595-14.998 7.595-.859 0-13.161-.274-13.954-.441-5.503-1.177-10.276-3.758-13.813-8.141-.522-.647-6.805-11.273-7.185-12.027-2.555-5.046-2.973-10.93-.633-16.027 0-1.19 6.045-12.3 6.582-13.274 2.928-5.302 8.31-8.762 14.202-9.41.978-.527 13.612-.826 14.801-.826" fill="#FF20AB" mask="url(#Z)"/><mask id="ab" fill="#fff"><use xlink:href="#aa"/></mask><path d="M42.42 6.727c6.735 0 12.54 3.651 16.507 8.867 1.023 1.346 7.391 12.66 7.391 14.485 2.28 5.364 1.948 11.592-1.099 16.617-.579.957-7.002 11.468-7.954 12.054-3.382 4.635-8.895 7.461-14.844 7.461-.896 0-12.925-.28-13.75-.458-5.417-1.166-10.12-3.716-13.611-8.03-.545-.673-6.695-11.063-7.093-11.845-2.514-4.973-2.936-10.767-.654-15.8 0-1.238 5.903-12.128 6.463-13.141 2.892-5.242 8.2-8.678 14.013-9.352 1.02-.547 13.394-.858 14.632-.858" fill="#FF20AC" mask="url(#ab)"/><mask id="ad" fill="#fff"><use xlink:href="#ac"/></mask><path d="M42.088 6.973c6.695 0 12.47 3.617 16.417 8.792 1.065 1.396 7.308 12.509 7.308 14.405 2.22 5.31 1.87 11.457-1.14 16.418-.6.995-6.906 11.274-7.893 11.883-3.363 4.551-8.813 7.328-14.692 7.328-.928 0-12.688-.289-13.545-.476-5.33-1.157-9.967-3.678-13.41-7.92-.567-.698-6.586-10.851-6.995-11.664-2.475-4.898-2.902-10.603-.683-15.57 0-1.285 5.763-11.958 6.344-13.01 2.858-5.185 8.091-8.594 13.83-9.293 1.058-.57 13.175-.893 14.46-.893" fill="#FF20AD" mask="url(#ad)"/><mask id="af" fill="#fff"><use xlink:href="#ae"/></mask><path d="M41.756 7.22c6.656 0 12.402 3.582 16.327 8.714 1.107 1.446 7.227 12.36 7.227 14.326 2.156 5.257 1.79 11.322-1.182 16.221-.626 1.031-6.81 11.078-7.834 11.71-3.344 4.472-8.729 7.198-14.538 7.198-.963 0-12.451-.3-13.34-.495-5.244-1.15-9.813-3.64-13.21-7.81-.586-.724-6.476-10.641-6.9-11.484-2.436-4.824-2.866-10.44-.71-15.34 0-1.334 5.625-11.79 6.227-12.88 2.825-5.124 7.98-8.509 13.645-9.236 1.097-.59 12.955-.923 14.288-.923" fill="#FF20AE" mask="url(#af)"/><mask id="ah" fill="#fff"><use xlink:href="#ag"/></mask><path d="M41.423 7.467c6.615 0 12.334 3.547 16.24 8.638 1.148 1.494 7.141 12.21 7.141 14.246 2.097 5.205 1.713 11.187-1.223 16.024-.648 1.065-6.712 10.881-7.773 11.535-3.325 4.39-8.644 7.067-14.385 7.067-.995 0-12.214-.308-13.133-.512-5.16-1.142-9.662-3.6-13.01-7.702-.61-.747-6.366-10.428-6.806-11.302-2.394-4.75-2.83-10.275-.733-15.11 0-1.383 5.485-11.62 6.107-12.75 2.79-5.065 7.872-8.424 13.46-9.175 1.136-.61 12.736-.959 14.115-.959" fill="#FF20AF" mask="url(#ah)"/><mask id="aj" fill="#fff"><use xlink:href="#ai"/></mask><path d="M41.09 7.715c6.578 0 12.267 3.51 16.152 8.56C58.43 17.819 64.3 28.335 64.3 30.44c2.034 5.153 1.633 11.052-1.267 15.827-.669 1.102-6.613 10.685-7.71 11.362-3.306 4.31-8.563 6.935-14.233 6.935-1.032 0-11.978-.316-12.926-.53-5.078-1.132-9.512-3.56-12.81-7.592-.633-.773-6.26-10.217-6.714-11.12-2.354-4.676-2.793-10.113-.76-14.882 0-1.43 5.346-11.449 5.99-12.618 2.759-5.005 7.761-8.34 13.276-9.117 1.175-.633 12.518-.991 13.944-.991" fill="#FF20B0" mask="url(#aj)"/><mask id="al" fill="#fff"><use xlink:href="#ak"/></mask><path d="M40.758 7.961c6.538 0 12.199 3.476 16.061 8.482 1.232 1.597 6.978 11.912 6.978 14.087 1.972 5.101 1.552 10.92-1.31 15.63-.69 1.138-6.513 10.49-7.65 11.189-3.285 4.23-8.478 6.803-14.079 6.803-1.064 0-11.74-.325-12.72-.546-4.993-1.125-9.36-3.522-12.61-7.482-.655-.8-6.15-10.006-6.619-10.94-2.312-4.602-2.756-9.949-.783-14.654 0-1.476 5.204-11.28 5.869-12.487 2.724-4.945 7.872-7.328 13.09-9.057C28.294 8.55 39.283 7.96 40.758 7.96" fill="#FF20B1" mask="url(#al)"/><mask id="an" fill="#fff"><use xlink:href="#am"/></mask><path d="M40.428 8.209c6.495 0 12.127 3.44 15.969 8.404 1.275 1.647 6.895 11.762 6.895 14.009 1.911 5.048 1.474 10.782-1.351 15.429-.714 1.176-6.417 10.296-7.587 11.018-3.268 4.15-8.397 6.672-13.926 6.672-1.101 0-11.506-.334-12.519-.564-4.906-1.118-9.204-3.484-12.408-7.373-.675-.822-6.041-9.795-6.525-10.76-2.272-4.527-2.718-9.784-.807-14.422 0-1.524 5.065-11.11 5.751-12.357 2.69-4.885 7.758-7.274 12.906-9 1.348-.452 12.077-1.056 13.602-1.056" fill="#FF20B1" mask="url(#an)"/><mask id="ap" fill="#fff"><use xlink:href="#ao"/></mask><path d="M40.095 8.456c6.456 0 12.06 3.404 15.881 8.326 1.317 1.695 6.812 11.613 6.812 13.929 1.85 4.994 1.395 10.65-1.392 15.234-.738 1.212-6.465 9.903-7.528 10.843-3.897 3.45-8.312 6.54-13.773 6.54-1.134 0-11.269-.34-12.313-.58-4.821-1.11-9.051-3.445-12.205-7.263-.702-.848-5.934-9.584-6.432-10.58-2.231-4.451-2.684-9.62-.835-14.194 0-1.57 4.927-10.938 5.634-12.225 2.654-4.827 7.647-7.22 12.72-8.94 1.39-.473 11.86-1.09 13.431-1.09" fill="#FF20B2" mask="url(#ap)"/><mask id="ar" fill="#fff"><use xlink:href="#aq"/></mask><path d="M39.972 8.703c6.418 0 11.991 3.37 15.795 8.25 1.358 1.744 6.316 11.499 6.727 13.848.91 5.178 1.317 10.514-1.436 15.036-.759 1.248-6.366 9.705-7.465 10.67-3.854 3.39-8.23 6.41-13.621 6.41-1.168 0-11.032-.35-12.105-.599-4.737-1.102-8.9-3.406-12.007-7.155-.723-.87-5.824-9.37-6.337-10.396-2.191-4.379-2.646-9.458-.86-13.966 0-1.62 4.786-10.769 5.515-12.094 2.622-4.766 7.535-7.165 12.536-8.881 1.429-.492 11.64-1.123 13.258-1.123" fill="#FF20B3" mask="url(#ar)"/><mask id="at" fill="#fff"><use xlink:href="#as"/></mask><path d="M39.638 8.95c6.376 0 11.922 3.334 15.703 8.173 1.4 1.794 6.23 11.348 6.646 13.77.875 5.11 1.236 10.378-1.477 14.837-.783 1.284-6.273 9.508-7.407 10.5-3.807 3.322-8.144 6.275-13.465 6.275-1.203 0-10.796-.358-11.903-.616-4.65-1.093-8.746-3.366-11.807-7.046-.743-.894-5.713-9.16-6.24-10.215-2.151-4.304-2.611-9.293-.885-13.735 0-1.668 4.647-10.6 5.395-11.964 2.587-4.707 7.42-7.112 12.351-8.823 1.47-.51 11.423-1.155 13.089-1.155" fill="#FF20B4" mask="url(#at)"/><mask id="av" fill="#fff"><use xlink:href="#au"/></mask><path d="M39.3 9.197c6.339 0 11.855 3.3 15.615 8.095 1.445 1.844 6.147 11.199 6.564 13.69.843 5.046 1.158 10.245-1.52 14.64-.806 1.322-6.174 9.31-7.344 10.326-3.765 3.261-8.063 6.147-13.315 6.147-1.237 0-10.558-.365-11.695-.637-4.566-1.083-8.594-3.325-11.605-6.934-.769-.92-5.607-8.948-6.148-10.035-2.112-4.23-2.573-9.129-.91-13.507 0-1.714 4.508-10.428 5.278-11.833 2.553-4.646 7.307-7.056 12.165-8.763 1.51-.531 11.203-1.189 12.915-1.189" fill="#FF20B5" mask="url(#av)"/><mask id="ax" fill="#fff"><use xlink:href="#aw"/></mask><path d="M38.964 9.445c6.3 0 11.786 3.262 15.526 8.016 1.487 1.893 6.062 11.05 6.48 13.611.812 4.98 1.078 10.11-1.562 14.443-.826 1.358-6.078 9.115-7.282 10.153-3.72 3.199-7.98 6.013-13.162 6.013-1.27 0-10.323-.372-11.49-.652-4.482-1.076-8.442-3.287-11.405-6.824-.792-.945-5.497-8.738-6.054-9.856-2.07-4.155-2.537-8.964-.935-13.277 0-1.76 4.367-10.256 5.16-11.7 2.518-4.589 7.193-7.004 11.98-8.706 1.55-.552 10.983-1.221 12.744-1.221" fill="#FF20B6" mask="url(#ax)"/><mask id="az" fill="#fff"><use xlink:href="#ay"/></mask><path d="M38.433 9.691c6.259 0 11.718 3.228 15.437 7.94 1.53 1.94 5.98 10.9 6.397 13.532.78 4.915 1 9.975-1.603 14.244-.852 1.394-5.98 8.92-7.224 9.98-3.675 3.138-7.895 5.882-13.007 5.882-1.305 0-10.087-.377-11.285-.67-4.398-1.067-8.288-3.247-11.205-6.714-.814-.968-5.388-8.526-5.958-9.673-2.03-4.083-1.744-8.6-.961-13.049.315-1.782 4.229-10.087 5.04-11.57 2.486-4.529 7.08-6.949 11.797-8.646 1.59-.572 10.764-1.256 12.572-1.256" fill="#FF20B7" mask="url(#az)"/><mask id="aB" fill="#fff"><use xlink:href="#aA"/></mask><path d="M38.1 9.939c6.221 0 11.65 3.192 15.348 7.862 1.574 1.988 5.898 10.747 6.314 13.452.75 4.85.921 9.84-1.645 14.047-.875 1.43-5.88 8.722-7.163 9.807-3.63 3.074-7.811 5.752-12.854 5.752-1.339 0-9.85-.388-11.079-.689-4.313-1.058-8.135-3.209-11.004-6.604-.838-.993-5.28-8.316-5.865-9.494-1.99-4.007-1.735-8.447-.983-12.819.312-1.83 4.086-9.917 4.92-11.44 2.45-4.468 6.967-6.892 11.61-8.587 1.63-.593 10.547-1.287 12.401-1.287" fill="#FF20B8" mask="url(#aB)"/><mask id="aD" fill="#fff"><use xlink:href="#aC"/></mask><path d="M37.77 10.186c6.178 0 11.58 3.157 15.257 7.784 1.62 2.038 5.815 10.598 6.233 13.374.716 4.785.842 9.705-1.69 13.848-.897 1.467-5.782 8.529-7.099 9.634-3.59 3.014-7.73 5.62-12.701 5.62-1.376 0-9.616-.392-10.875-.705-4.23-1.05-7.984-3.17-10.804-6.496-.861-1.016-5.17-8.103-5.77-9.312C8.37 40 8.59 35.638 9.31 31.344c.316-1.879 3.948-9.748 4.805-11.308 2.415-4.41 6.85-6.84 11.425-8.529 1.667-.617 10.325-1.321 12.23-1.321" fill="#FF20B9" mask="url(#aD)"/><mask id="aF" fill="#fff"><use xlink:href="#aE"/></mask><path d="M37.437 10.433c6.14 0 11.51 3.12 15.168 7.708 1.662 2.085 5.737 10.446 6.15 13.293.684 4.721.762 9.57-1.732 13.65-.919 1.504-5.683 8.334-7.038 9.462-3.546 2.951-7.645 5.489-12.548 5.489-1.408 0-9.38-.4-10.67-.723-4.145-1.043-7.83-3.131-10.603-6.387-.885-1.04-5.061-7.892-5.677-9.13-1.907-3.858-1.72-8.145-1.033-12.36.313-1.928 3.809-9.578 4.685-11.178 2.381-4.35 6.736-6.785 11.238-8.471 1.709-.639 10.109-1.353 12.06-1.353" fill="#FF20BA" mask="url(#aF)"/><mask id="aH" fill="#fff"><use xlink:href="#aG"/></mask><path d="M37.105 10.68c6.1 0 11.443 3.086 15.079 7.63 1.706 2.133 5.656 10.295 6.066 13.215.653 4.657.686 9.433-1.773 13.452-.942 1.541-5.584 8.14-6.977 9.29-3.503 2.887-7.564 5.355-12.395 5.355-1.443 0-9.144-.403-10.466-.74-4.06-1.035-7.676-3.091-10.401-6.276-.91-1.062-4.955-7.681-5.582-8.95-1.868-3.784-1.716-7.993-1.061-12.13.315-1.976 3.67-9.408 4.567-11.048 2.347-4.29 6.624-6.73 11.055-8.411 1.747-.663 9.89-1.387 11.888-1.387" fill="#FF20BB" mask="url(#aH)"/><mask id="aJ" fill="#fff"><use xlink:href="#aI"/></mask><path d="M36.772 10.927c6.06 0 11.375 3.05 14.99 7.553 1.752 2.181 5.578 10.144 5.984 13.135.622 4.593.605 9.3-1.814 13.255-.966 1.578-5.487 7.945-6.918 9.116-3.46 2.827-7.48 5.225-12.242 5.225-1.476 0-8.906-.41-10.26-.758-3.976-1.027-7.522-3.051-10.2-6.167-.934-1.086-4.848-7.47-5.489-8.77-1.826-3.71-1.709-7.839-1.085-11.9.311-2.025 3.53-9.237 4.45-10.917 2.314-4.23 6.506-6.674 10.87-8.352 1.783-.686 9.668-1.42 11.714-1.42" fill="#FF20BC" mask="url(#aJ)"/><mask id="aL" fill="#fff"><use xlink:href="#aK"/></mask><path d="M36.44 11.174c6.02 0 11.305 3.013 14.901 7.477 1.796 2.228 5.502 9.993 5.902 13.055.589 4.53.525 9.165-1.858 13.058-.989 1.612-5.385 7.751-6.857 8.942-3.415 2.766-7.395 5.092-12.088 5.092-1.512 0-8.674-.413-10.053-.775-3.895-1.019-7.372-3.011-10-6.056-.96-1.11-4.74-7.259-5.395-8.589-1.787-3.636-1.702-7.688-1.11-11.672.308-2.074 3.39-9.068 4.33-10.786 2.279-4.17 6.392-6.618 10.682-8.293 1.825-.711 9.453-1.453 11.546-1.453" fill="#FF20BD" mask="url(#aL)"/><mask id="aN" fill="#fff"><use xlink:href="#aM"/></mask><path d="M36.107 11.421c5.981 0 11.238 2.977 14.812 7.4 1.842 2.274 5.426 9.84 5.818 12.973.56 4.469.448 9.032-1.899 12.86-1.01 1.651-5.284 7.56-6.795 8.771-3.375 2.704-7.311 4.962-11.936 4.962-1.546 0-8.436-.419-9.846-.794-3.81-1.01-7.219-2.972-9.802-5.948-.982-1.131-4.63-7.044-5.3-8.407-1.746-3.562-1.696-7.534-1.136-11.444.305-2.12 3.253-8.895 4.212-10.652 2.246-4.112 6.278-6.565 10.5-8.235 1.86-.737 9.233-1.486 11.372-1.486" fill="#FF20BE" mask="url(#aN)"/><mask id="aP" fill="#fff"><use xlink:href="#aO"/></mask><path d="M35.775 11.668c5.941 0 11.169 2.943 14.723 7.32 1.886 2.324 5.35 9.692 5.736 12.897.529 4.405.368 8.897-1.943 12.662-1.035 1.686-5.182 7.37-6.734 8.597-3.33 2.644-7.229 4.832-11.782 4.832-1.58 0-8.2-.424-9.641-.811-3.728-1.004-7.066-2.934-9.602-5.839-1.007-1.154-4.522-6.833-5.203-8.227-1.707-3.486-1.692-7.382-1.161-11.214.297-2.169 3.11-8.725 4.092-10.523 2.21-4.051 6.16-6.508 10.315-8.175 1.897-.761 9.012-1.52 11.2-1.52" fill="#FF20BF" mask="url(#aP)"/><mask id="aR" fill="#fff"><use xlink:href="#aQ"/></mask><path d="M35.444 11.915c5.902 0 11.098 2.907 14.634 7.244 1.93 2.37 5.275 9.54 5.65 12.817.496 4.342.29 8.762-1.983 12.464-1.056 1.723-5.083 7.177-6.673 8.424-3.29 2.583-7.145 4.7-11.628 4.7-1.616 0-7.966-.427-9.439-.828-3.643-.997-6.91-2.894-9.399-5.73-1.032-1.176-4.413-6.62-5.108-8.045-1.668-3.414-1.685-7.228-1.19-10.985.295-2.22 2.975-8.555 3.976-10.392 2.177-3.993 6.044-6.454 10.13-8.117 1.935-.789 8.792-1.552 11.03-1.552" fill="#FF20C0" mask="url(#aR)"/><mask id="aT" fill="#fff"><use xlink:href="#aS"/></mask><path d="M35.112 12.162c5.861 0 11.03 2.87 14.543 7.167 1.977 2.417 5.207 9.388 5.57 12.738.465 4.28.21 8.625-2.025 12.266-1.082 1.758-4.983 6.986-6.612 8.252-3.249 2.52-7.063 4.567-11.476 4.567-1.65 0-7.732-.43-9.234-.846-3.56-.988-6.757-2.854-9.198-5.619-1.058-1.198-4.307-6.41-5.015-7.866-1.626-3.338-1.678-7.075-1.213-10.754.286-2.268 2.834-8.385 3.855-10.26 2.143-3.934 5.93-6.4 9.945-8.059 1.972-.816 8.575-1.586 10.86-1.586" fill="#FF20C1" mask="url(#aT)"/><mask id="aV" fill="#fff"><use xlink:href="#aU"/></mask><path d="M34.78 12.41c5.821 0 10.96 2.833 14.453 7.089 2.023 2.461 5.136 9.237 5.488 12.658.434 4.219.13 8.49-2.068 12.067-1.104 1.796-4.879 6.797-6.55 8.08-3.209 2.46-6.98 4.435-11.324 4.435-1.685 0-7.496-.433-9.027-.864-3.477-.979-6.605-2.812-8.999-5.51-1.083-1.219-4.199-6.196-4.92-7.682-1.586-3.264-1.672-6.921-1.239-10.526.28-2.317 2.694-8.214 3.738-10.13 2.11-3.872 5.812-6.343 9.759-8 2.011-.842 8.355-1.617 10.688-1.617" fill="#FF20C2" mask="url(#aV)"/><mask id="aX" fill="#fff"><use xlink:href="#aW"/></mask><path d="M34.447 12.657c5.784 0 10.892 2.797 14.365 7.011 2.069 2.509 5.065 9.086 5.404 12.579.403 4.158.054 8.357-2.11 11.87-1.128 1.832-4.776 6.607-6.489 7.906-3.166 2.403-6.897 4.306-11.17 4.306-1.718 0-7.262-.436-8.82-.882-3.396-.973-6.453-2.774-8.8-5.4-1.11-1.242-4.09-5.985-4.826-7.504-1.545-3.19-1.666-6.766-1.264-10.296.272-2.365 2.556-8.044 3.619-10 2.075-3.812 5.696-6.286 9.575-7.94 2.046-.871 8.136-1.65 10.516-1.65" fill="#FF20C3" mask="url(#aX)"/><mask id="aZ" fill="#fff"><use xlink:href="#aY"/></mask><path d="M34.114 12.904c5.743 0 10.825 2.762 14.278 6.933 2.113 2.555 4.997 8.935 5.32 12.5.372 4.099-.027 8.221-2.153 11.672-1.15 1.869-4.672 6.418-6.428 7.735-3.126 2.34-6.812 4.172-11.017 4.172-1.752 0-7.026-.437-8.614-.9-3.313-.963-6.3-2.732-8.6-5.29-1.135-1.262-3.984-5.772-4.73-7.322-1.506-3.116-1.662-6.612-1.288-10.066.259-2.415 2.414-7.873 3.5-9.868 2.04-3.754 5.577-6.23 9.388-7.881 2.082-.903 7.918-1.685 10.344-1.685" fill="#FF20C4" mask="url(#aZ)"/><mask id="bb" fill="#fff"><use xlink:href="#ba"/></mask><path d="M33.782 13.151c5.704 0 10.755 2.727 14.187 6.856 2.162 2.602 4.932 8.784 5.238 12.42.34 4.038-.103 8.086-2.194 11.475-1.174 1.903-4.57 6.231-6.367 7.56-3.084 2.282-6.729 4.043-10.864 4.043-1.787 0-6.793-.438-8.41-.917-3.23-.957-6.144-2.694-8.398-5.181-1.161-1.284-3.878-5.56-4.638-7.141-1.465-3.042-1.654-6.456-1.313-9.838.249-2.464 2.277-7.704 3.382-9.736 2.006-3.695 5.459-6.176 9.203-7.825 2.117-.93 7.7-1.716 10.174-1.716" fill="#FF20C5" mask="url(#bb)"/><mask id="bd" fill="#fff"><use xlink:href="#bc"/></mask><path d="M33.45 13.398c5.662 0 10.686 2.69 14.097 6.78 2.21 2.646 4.87 8.632 5.157 12.34.31 3.978-.185 7.951-2.236 11.276-1.2 1.94-4.466 6.044-6.308 7.389-3.043 2.22-6.644 3.91-10.71 3.91-1.822 0-6.559-.438-8.206-.935-3.147-.95-5.991-2.654-8.196-5.07-1.189-1.305-3.77-5.35-4.543-6.961-1.424-2.967-1.649-6.3-1.34-9.608.236-2.514 2.14-7.532 3.263-9.607 1.974-3.634 5.342-6.118 9.02-7.763 2.152-.964 7.48-1.751 10.001-1.751" fill="#FF20C6" mask="url(#bd)"/><mask id="bf" fill="#fff"><use xlink:href="#be"/></mask><path d="M33.117 13.645c5.625 0 10.617 2.654 14.01 6.702 2.255 2.692 4.805 8.482 5.073 12.262.277 3.918-.264 7.815-2.28 11.078-1.22 1.976-4.36 5.86-6.244 7.216-3.006 2.162-6.564 3.778-10.56 3.778-1.853 0-6.322-.438-7.999-.952-3.065-.943-5.837-2.614-7.995-4.961-1.217-1.324-3.664-5.138-4.45-6.78-1.384-2.894-1.642-6.143-1.364-9.38.221-2.563 2-7.362 3.145-9.474 1.938-3.576 5.224-6.063 8.836-7.707 2.184-.993 7.26-1.782 9.828-1.782" fill="#FF20C7" mask="url(#bf)"/><mask id="bh" fill="#fff"><use xlink:href="#bg"/></mask><path d="M32.786 13.892c5.584 0 10.547 2.617 13.92 6.626 2.303 2.736 4.744 8.33 4.989 12.182.247 3.86-.342 7.68-2.32 10.88-1.245 2.011-4.256 5.673-6.184 7.042-2.967 2.105-6.48 3.646-10.405 3.646-1.89 0-6.091-.436-7.795-.968-2.983-.935-5.684-2.575-7.794-4.853-1.246-1.342-3.558-4.923-4.357-6.598-1.342-2.82-1.636-5.987-1.389-9.15.204-2.611 1.86-7.192 3.026-9.344 1.904-3.515 5.103-6.005 8.649-7.647 2.22-1.027 7.042-1.816 9.66-1.816" fill="#FF20C8" mask="url(#bh)"/><mask id="bj" fill="#fff"><use xlink:href="#bi"/></mask><path d="M32.454 14.14c5.543 0 10.475 2.58 13.83 6.547 2.35 2.782 4.684 8.18 4.907 12.103.216 3.802-.421 7.546-2.364 10.684-1.268 2.046-4.149 5.489-6.122 6.867-2.928 2.045-6.398 3.516-10.251 3.516-1.924 0-5.86-.435-7.59-.986-2.902-.928-5.53-2.533-7.595-4.744-1.272-1.361-3.451-4.71-4.262-6.416-1.303-2.746-1.63-5.83-1.413-8.921.186-2.66 1.723-7.022 2.906-9.214 1.872-3.456 4.986-5.947 8.466-7.587 2.252-1.062 6.823-1.85 9.488-1.85" fill="#FF20C9" mask="url(#bj)"/><mask id="bl" fill="#fff"><use xlink:href="#bk"/></mask><path d="M32.121 14.386c5.506 0 10.409 2.545 13.74 6.47 2.4 2.827 4.628 8.029 4.825 12.023.187 3.745-.5 7.413-2.405 10.487-1.291 2.082-4.042 5.305-6.06 6.696-2.89 1.986-6.317 3.384-10.1 3.384-1.96 0-5.625-.433-7.384-1.005-2.822-.92-5.374-2.493-7.394-4.633-1.303-1.38-3.344-4.5-4.167-6.238-1.261-2.671-1.624-5.669-1.44-8.691.168-2.71 1.584-6.85 2.79-9.082 1.837-3.396 4.864-5.89 8.28-7.529 2.285-1.095 6.604-1.882 9.315-1.882" fill="#FF20CA" mask="url(#bl)"/><mask id="bn" fill="#fff"><use xlink:href="#bm"/></mask><path d="M31.789 14.634c5.466 0 10.339 2.508 13.652 6.392 2.447 2.87 4.572 7.878 4.743 11.945.152 3.686-.58 7.276-2.448 10.286-1.317 2.119-3.937 5.126-6.002 6.523-2.851 1.931-6.232 3.253-9.945 3.253-1.993 0-5.394-.428-7.179-1.023-2.74-.911-5.22-2.451-7.192-4.522-1.334-1.398-3.24-4.286-4.075-6.056-1.222-2.597-1.617-5.512-1.464-8.461.144-2.76 1.443-6.681 2.67-8.953 1.803-3.337 4.746-5.833 8.096-7.47 2.318-1.13 6.384-1.914 9.144-1.914" fill="#FF20CB" mask="url(#bn)"/><mask id="bp" fill="#fff"><use xlink:href="#bo"/></mask><path d="M31.456 14.88c5.427 0 10.27 2.472 13.564 6.316 2.496 2.913 4.52 7.726 4.66 11.864.122 3.633-.66 7.143-2.491 10.09-1.341 2.154-3.828 4.946-5.94 6.351-2.815 1.872-6.148 3.12-9.793 3.12-2.027 0-5.16-.423-6.973-1.04-2.66-.905-5.066-2.41-6.993-4.412-1.362-1.417-3.135-4.074-3.978-5.876-1.182-2.523-1.613-5.353-1.49-8.233.12-2.808 1.307-6.508 2.55-8.82 1.77-3.277 4.625-5.777 7.912-7.412 2.349-1.168 6.166-1.948 8.972-1.948" fill="#FF20CC" mask="url(#bp)"/><mask id="br" fill="#fff"><use xlink:href="#bq"/></mask><path d="M31.124 15.128c5.386 0 10.2 2.435 13.474 6.238 2.547 2.956 4.469 7.575 4.576 11.784.093 3.577-.742 7.004-2.534 9.893-1.367 2.187-3.717 4.766-5.877 6.178-2.775 1.815-6.064 2.99-9.64 2.99-2.06 0-4.93-.42-6.766-1.06a17.461 17.461 0 0 1-6.794-4.304c-1.39-1.432-3.029-3.859-3.883-5.693-1.142-2.45-1.607-5.191-1.515-8.004.093-2.856 1.172-6.335 2.433-8.688 1.738-3.216 4.502-5.719 7.725-7.353 2.38-1.206 5.948-1.981 8.8-1.981" fill="#FF20CD" mask="url(#br)"/><mask id="bt" fill="#fff"><use xlink:href="#bs"/></mask><path d="M30.791 15.374c5.347 0 10.132 2.4 13.384 6.16 2.596 3.002 4.42 7.427 4.495 11.707.062 3.522-.82 6.87-2.576 9.694-1.39 2.225-3.607 4.588-5.817 6.005-2.74 1.758-5.981 2.858-9.486 2.858-2.096 0-4.698-.41-6.561-1.074a17.487 17.487 0 0 1-6.593-4.196c-1.424-1.447-2.924-3.646-3.79-5.513-1.1-2.375-1.6-5.03-1.54-7.774.066-2.905 1.03-6.165 2.316-8.558 1.702-3.157 4.38-5.66 7.54-7.293 2.409-1.247 5.727-2.016 8.628-2.016" fill="#FF20CE" mask="url(#bt)"/><mask id="bv" fill="#fff"><use xlink:href="#bu"/></mask><path d="M30.459 15.622c5.307 0 10.063 2.361 13.296 6.082 2.646 3.045 4.374 7.276 4.41 11.627.033 3.469-.895 6.736-2.618 9.497-1.412 2.261-3.498 4.412-5.755 5.832-2.704 1.702-5.898 2.726-9.333 2.726-2.13 0-4.467-.403-6.358-1.093a17.514 17.514 0 0 1-6.39-4.084c-1.457-1.464-2.819-3.434-3.695-5.332-1.061-2.3-1.595-4.868-1.566-7.546.035-2.953.892-5.996 2.197-8.426 1.667-3.099 4.256-5.603 7.353-7.237 2.442-1.285 5.51-2.046 8.459-2.046" fill="#FF20CF" mask="url(#bv)"/><mask id="bx" fill="#fff"><use xlink:href="#bw"/></mask><path d="M47.662 33.422c0 9.694-7.85 17.552-17.533 17.552-9.686 0-17.535-7.858-17.535-17.552 0-9.694 7.849-17.553 17.535-17.553 9.682 0 17.533 7.859 17.533 17.553" fill="#FF20D0" mask="url(#bx)"/><path d="M43.916 32.05a5.502 5.502 0 0 0-5.495 5.498 5.501 5.501 0 0 0 5.495 5.495 5.501 5.501 0 0 0 5.493-5.495 5.501 5.501 0 0 0-5.493-5.497m0 12.364c-3.784 0-6.864-3.08-6.864-6.867s3.08-6.869 6.864-6.869c3.782 0 6.862 3.082 6.862 6.869 0 3.786-3.08 6.867-6.862 6.867M33.66 56.713h20.672c-.36-5.391-4.858-9.668-10.336-9.668-5.479 0-9.976 4.277-10.335 9.668zm22.084 1.393H32.249v-.696c0-6.484 5.268-11.758 11.747-11.758 6.477 0 11.748 5.274 11.748 11.758v.696zM33.415 20.73a5.721 5.721 0 0 1 5.714 5.715 5.721 5.721 0 0 1-5.714 5.717 5.721 5.721 0 0 1-5.713-5.717 5.721 5.721 0 0 1 5.713-5.716m0 12.649c3.82 0 6.928-3.111 6.928-6.933 0-3.82-3.108-6.93-6.928-6.93-3.819 0-6.926 3.11-6.926 6.93 0 3.822 3.107 6.933 6.926 6.933" fill="#FFF" mask="url(#bx)"/><path d="M48.058 32.79a9.45 9.45 0 0 1 1.535-.125c5.075 0 9.243 3.975 9.557 8.978H48.63l-.796 1.215h11.94a.61.61 0 0 0 .61-.608c0-5.955-4.843-10.8-10.792-10.8-1.02 0-2.023.144-2.981.42l1.446.92zm-3.722 12.953H22.89c.316-5.648 5.005-10.143 10.722-10.143 1.41 0 2.759.273 3.993.77l.368-1.16a11.88 11.88 0 0 0-4.36-.826c-6.593 0-11.955 5.368-11.955 11.965a.61.61 0 0 0 .609.608h22.692a.609.609 0 0 0 .608-.608l-1.23-.606zm5.079-26.424a5.073 5.073 0 0 1 5.065 5.068 5.074 5.074 0 0 1-5.065 5.069 5.073 5.073 0 0 1-5.065-5.069 5.072 5.072 0 0 1 5.065-5.068m0 11.351c3.463 0 6.279-2.819 6.279-6.283 0-3.465-2.816-6.284-6.279-6.284s-6.28 2.819-6.28 6.284a6.29 6.29 0 0 0 6.28 6.283" fill="#FFF" mask="url(#bx)"/></g></svg>