<svg width="84" height="80" xmlns="http://www.w3.org/2000/svg" xmlns:xlink="http://www.w3.org/1999/xlink"><defs><path d="M32.324.315c-7.957 0-15.31 4.272-19.29 11.207L3.255 28.57a22.543 22.543 0 0 0 0 22.416l9.777 17.05c3.98 6.934 11.334 11.207 19.29 11.207H51.88c7.957 0 15.312-4.273 19.289-11.207l9.779-17.05a22.543 22.543 0 0 0 0-22.416l-9.78-17.048C67.193 4.587 59.838.315 51.88.315" id="a"/><path d="M32.324.315c-7.957 0-15.31 4.272-19.29 11.207L3.255 28.57a22.543 22.543 0 0 0 0 22.416l9.777 17.05c3.98 6.934 11.334 11.207 19.29 11.207H51.88c7.957 0 15.312-4.273 19.289-11.207l9.779-17.05a22.543 22.543 0 0 0 0-22.416l-9.78-17.048C67.193 4.587 59.838.315 51.88.315" id="c"/><path d="M32.324.315c-7.957 0-15.31 4.272-19.29 11.207L3.255 28.57a22.543 22.543 0 0 0 0 22.416l9.777 17.05c3.98 6.934 11.334 11.207 19.29 11.207H51.88c7.957 0 15.312-4.273 19.289-11.207l9.779-17.05a22.543 22.543 0 0 0 0-22.416l-9.78-17.048C67.193 4.587 59.838.315 51.88.315" id="e"/><path d="M32.324.315c-7.957 0-15.31 4.272-19.29 11.207L3.255 28.57a22.543 22.543 0 0 0 0 22.416l9.777 17.05c3.98 6.934 11.334 11.207 19.29 11.207H51.88c7.957 0 15.312-4.273 19.289-11.207l9.779-17.05a22.543 22.543 0 0 0 0-22.416l-9.78-17.048C67.193 4.587 59.838.315 51.88.315" id="g"/><path d="M32.324.315c-7.957 0-15.31 4.272-19.29 11.207L3.255 28.57a22.543 22.543 0 0 0 0 22.416l9.777 17.05c3.98 6.934 11.334 11.207 19.29 11.207H51.88c7.957 0 15.312-4.273 19.289-11.207l9.779-17.05a22.543 22.543 0 0 0 0-22.416l-9.78-17.048C67.193 4.587 59.838.315 51.88.315" id="i"/><path d="M32.324.315c-7.957 0-15.31 4.272-19.29 11.207L3.255 28.57a22.543 22.543 0 0 0 0 22.416l9.777 17.05c3.98 6.934 11.334 11.207 19.29 11.207H51.88c7.957 0 15.312-4.273 19.289-11.207l9.779-17.05a22.543 22.543 0 0 0 0-22.416l-9.78-17.048C67.193 4.587 59.838.315 51.88.315" id="k"/><path d="M32.324.315c-7.957 0-15.31 4.272-19.29 11.207L3.255 28.57a22.543 22.543 0 0 0 0 22.416l9.777 17.05c3.98 6.934 11.334 11.207 19.29 11.207H51.88c7.957 0 15.312-4.273 19.289-11.207l9.779-17.05a22.543 22.543 0 0 0 0-22.416l-9.78-17.048C67.193 4.587 59.838.315 51.88.315" id="m"/><path d="M32.324.315c-7.957 0-15.31 4.272-19.29 11.207L3.255 28.57a22.543 22.543 0 0 0 0 22.416l9.777 17.05c3.98 6.934 11.334 11.207 19.29 11.207H51.88c7.957 0 15.312-4.273 19.289-11.207l9.779-17.05a22.543 22.543 0 0 0 0-22.416l-9.78-17.048C67.193 4.587 59.838.315 51.88.315" id="o"/><path d="M32.324.315c-7.957 0-15.31 4.272-19.29 11.207L3.255 28.57a22.543 22.543 0 0 0 0 22.416l9.777 17.05c3.98 6.934 11.334 11.207 19.29 11.207H51.88c7.957 0 15.312-4.273 19.289-11.207l9.779-17.05a22.543 22.543 0 0 0 0-22.416l-9.78-17.048C67.193 4.587 59.838.315 51.88.315" id="q"/><path d="M32.324.315c-7.957 0-15.31 4.272-19.29 11.207L3.255 28.57a22.543 22.543 0 0 0 0 22.416l9.777 17.05c3.98 6.934 11.334 11.207 19.29 11.207H51.88c7.957 0 15.312-4.273 19.289-11.207l9.779-17.05a22.543 22.543 0 0 0 0-22.416l-9.78-17.048C67.193 4.587 59.838.315 51.88.315" id="s"/><path d="M32.324.315c-7.957 0-15.31 4.272-19.29 11.207L3.255 28.57a22.543 22.543 0 0 0 0 22.416l9.777 17.05c3.98 6.934 11.334 11.207 19.29 11.207H51.88c7.957 0 15.312-4.273 19.289-11.207l9.779-17.05a22.543 22.543 0 0 0 0-22.416l-9.78-17.048C67.193 4.587 59.838.315 51.88.315" id="u"/><path d="M32.324.315c-7.957 0-15.31 4.272-19.29 11.207L3.255 28.57a22.543 22.543 0 0 0 0 22.416l9.777 17.05c3.98 6.934 11.334 11.207 19.29 11.207H51.88c7.957 0 15.312-4.273 19.289-11.207l9.779-17.05a22.543 22.543 0 0 0 0-22.416l-9.78-17.048C67.193 4.587 59.838.315 51.88.315" id="w"/><path d="M32.324.315c-7.957 0-15.31 4.272-19.29 11.207L3.255 28.57a22.543 22.543 0 0 0 0 22.416l9.777 17.05c3.98 6.934 11.334 11.207 19.29 11.207H51.88c7.957 0 15.312-4.273 19.289-11.207l9.779-17.05a22.543 22.543 0 0 0 0-22.416l-9.78-17.048C67.193 4.587 59.838.315 51.88.315" id="y"/><path d="M32.324.315c-7.957 0-15.31 4.272-19.29 11.207L3.255 28.57a22.543 22.543 0 0 0 0 22.416l9.777 17.05c3.98 6.934 11.334 11.207 19.29 11.207H51.88c7.957 0 15.312-4.273 19.289-11.207l9.779-17.05a22.543 22.543 0 0 0 0-22.416l-9.78-17.048C67.193 4.587 59.838.315 51.88.315" id="A"/><path d="M32.324.315c-7.957 0-15.31 4.272-19.29 11.207L3.255 28.57a22.543 22.543 0 0 0 0 22.416l9.777 17.05c3.98 6.934 11.334 11.207 19.29 11.207H51.88c7.957 0 15.312-4.273 19.289-11.207l9.779-17.05a22.543 22.543 0 0 0 0-22.416l-9.78-17.048C67.193 4.587 59.838.315 51.88.315" id="C"/><path d="M32.324.315c-7.957 0-15.31 4.272-19.29 11.207L3.255 28.57a22.543 22.543 0 0 0 0 22.416l9.777 17.05c3.98 6.934 11.334 11.207 19.29 11.207H51.88c7.957 0 15.312-4.273 19.289-11.207l9.779-17.05a22.543 22.543 0 0 0 0-22.416l-9.78-17.048C67.193 4.587 59.838.315 51.88.315" id="E"/><path d="M32.324.315c-7.957 0-15.31 4.272-19.29 11.207L3.255 28.57a22.543 22.543 0 0 0 0 22.416l9.777 17.05c3.98 6.934 11.334 11.207 19.29 11.207H51.88c7.957 0 15.312-4.273 19.289-11.207l9.779-17.05a22.543 22.543 0 0 0 0-22.416l-9.78-17.048C67.193 4.587 59.838.315 51.88.315" id="G"/><path d="M32.324.315c-7.957 0-15.31 4.272-19.29 11.207L3.255 28.57a22.543 22.543 0 0 0 0 22.416l9.777 17.05c3.98 6.934 11.334 11.207 19.29 11.207H51.88c7.957 0 15.312-4.273 19.289-11.207l9.779-17.05a22.543 22.543 0 0 0 0-22.416l-9.78-17.048C67.193 4.587 59.838.315 51.88.315" id="I"/><path d="M32.324.315c-7.957 0-15.31 4.272-19.29 11.207L3.255 28.57a22.543 22.543 0 0 0 0 22.416l9.777 17.05c3.98 6.934 11.334 11.207 19.29 11.207H51.88c7.957 0 15.312-4.273 19.289-11.207l9.779-17.05a22.543 22.543 0 0 0 0-22.416l-9.78-17.048C67.193 4.587 59.838.315 51.88.315" id="K"/><path d="M32.324.315c-7.957 0-15.31 4.272-19.29 11.207L3.255 28.57a22.543 22.543 0 0 0 0 22.416l9.777 17.05c3.98 6.934 11.334 11.207 19.29 11.207H51.88c7.957 0 15.312-4.273 19.289-11.207l9.779-17.05a22.543 22.543 0 0 0 0-22.416l-9.78-17.048C67.193 4.587 59.838.315 51.88.315" id="M"/><path d="M32.324.315c-7.957 0-15.31 4.272-19.29 11.207L3.255 28.57a22.543 22.543 0 0 0 0 22.416l9.777 17.05c3.98 6.934 11.334 11.207 19.29 11.207H51.88c7.957 0 15.312-4.273 19.289-11.207l9.779-17.05a22.543 22.543 0 0 0 0-22.416l-9.78-17.048C67.193 4.587 59.838.315 51.88.315" id="O"/><path d="M32.324.315c-7.957 0-15.31 4.272-19.29 11.207L3.255 28.57a22.543 22.543 0 0 0 0 22.416l9.777 17.05c3.98 6.934 11.334 11.207 19.29 11.207H51.88c7.957 0 15.312-4.273 19.289-11.207l9.779-17.05a22.543 22.543 0 0 0 0-22.416l-9.78-17.048C67.193 4.587 59.838.315 51.88.315" id="Q"/><path d="M32.324.315c-7.957 0-15.31 4.272-19.29 11.207L3.255 28.57a22.543 22.543 0 0 0 0 22.416l9.777 17.05c3.98 6.934 11.334 11.207 19.29 11.207H51.88c7.957 0 15.312-4.273 19.289-11.207l9.779-17.05a22.543 22.543 0 0 0 0-22.416l-9.78-17.048C67.193 4.587 59.838.315 51.88.315" id="S"/><path d="M32.324.315c-7.957 0-15.31 4.272-19.29 11.207L3.255 28.57a22.543 22.543 0 0 0 0 22.416l9.777 17.05c3.98 6.934 11.334 11.207 19.29 11.207H51.88c7.957 0 15.312-4.273 19.289-11.207l9.779-17.05a22.543 22.543 0 0 0 0-22.416l-9.78-17.048C67.193 4.587 59.838.315 51.88.315" id="U"/><path d="M32.324.315c-7.957 0-15.31 4.272-19.29 11.207L3.255 28.57a22.543 22.543 0 0 0 0 22.416l9.777 17.05c3.98 6.934 11.334 11.207 19.29 11.207H51.88c7.957 0 15.312-4.273 19.289-11.207l9.779-17.05a22.543 22.543 0 0 0 0-22.416l-9.78-17.048C67.193 4.587 59.838.315 51.88.315" id="W"/><path d="M32.324.315c-7.957 0-15.31 4.272-19.29 11.207L3.255 28.57a22.543 22.543 0 0 0 0 22.416l9.777 17.05c3.98 6.934 11.334 11.207 19.29 11.207H51.88c7.957 0 15.312-4.273 19.289-11.207l9.779-17.05a22.543 22.543 0 0 0 0-22.416l-9.78-17.048C67.193 4.587 59.838.315 51.88.315" id="Y"/><path d="M32.324.315c-7.957 0-15.31 4.272-19.29 11.207L3.255 28.57a22.543 22.543 0 0 0 0 22.416l9.777 17.05c3.98 6.934 11.334 11.207 19.29 11.207H51.88c7.957 0 15.312-4.273 19.289-11.207l9.779-17.05a22.543 22.543 0 0 0 0-22.416l-9.78-17.048C67.193 4.587 59.838.315 51.88.315" id="aa"/><path d="M32.324.315c-7.957 0-15.31 4.272-19.29 11.207L3.255 28.57a22.543 22.543 0 0 0 0 22.416l9.777 17.05c3.98 6.934 11.334 11.207 19.29 11.207H51.88c7.957 0 15.312-4.273 19.289-11.207l9.779-17.05a22.543 22.543 0 0 0 0-22.416l-9.78-17.048C67.193 4.587 59.838.315 51.88.315" id="ac"/><path d="M32.324.315c-7.957 0-15.31 4.272-19.29 11.207L3.255 28.57a22.543 22.543 0 0 0 0 22.416l9.777 17.05c3.98 6.934 11.334 11.207 19.29 11.207H51.88c7.957 0 15.312-4.273 19.289-11.207l9.779-17.05a22.543 22.543 0 0 0 0-22.416l-9.78-17.048C67.193 4.587 59.838.315 51.88.315" id="ae"/><path d="M32.324.315c-7.957 0-15.31 4.272-19.29 11.207L3.255 28.57a22.543 22.543 0 0 0 0 22.416l9.777 17.05c3.98 6.934 11.334 11.207 19.29 11.207H51.88c7.957 0 15.312-4.273 19.289-11.207l9.779-17.05a22.543 22.543 0 0 0 0-22.416l-9.78-17.048C67.193 4.587 59.838.315 51.88.315" id="ag"/><path d="M32.324.315c-7.957 0-15.31 4.272-19.29 11.207L3.255 28.57a22.543 22.543 0 0 0 0 22.416l9.777 17.05c3.98 6.934 11.334 11.207 19.29 11.207H51.88c7.957 0 15.312-4.273 19.289-11.207l9.779-17.05a22.543 22.543 0 0 0 0-22.416l-9.78-17.048C67.193 4.587 59.838.315 51.88.315" id="ai"/><path d="M32.324.315c-7.957 0-15.31 4.272-19.29 11.207L3.255 28.57a22.543 22.543 0 0 0 0 22.416l9.777 17.05c3.98 6.934 11.334 11.207 19.29 11.207H51.88c7.957 0 15.312-4.273 19.289-11.207l9.779-17.05a22.543 22.543 0 0 0 0-22.416l-9.78-17.048C67.193 4.587 59.838.315 51.88.315" id="ak"/><path d="M32.324.315c-7.957 0-15.31 4.272-19.29 11.207L3.255 28.57a22.543 22.543 0 0 0 0 22.416l9.777 17.05c3.98 6.934 11.334 11.207 19.29 11.207H51.88c7.957 0 15.312-4.273 19.289-11.207l9.779-17.05a22.543 22.543 0 0 0 0-22.416l-9.78-17.048C67.193 4.587 59.838.315 51.88.315" id="am"/><path d="M32.324.315c-7.957 0-15.31 4.272-19.29 11.207L3.255 28.57a22.543 22.543 0 0 0 0 22.416l9.777 17.05c3.98 6.934 11.334 11.207 19.29 11.207H51.88c7.957 0 15.312-4.273 19.289-11.207l9.779-17.05a22.543 22.543 0 0 0 0-22.416l-9.78-17.048C67.193 4.587 59.838.315 51.88.315" id="ao"/><path d="M32.324.315c-7.957 0-15.31 4.272-19.29 11.207L3.255 28.57a22.543 22.543 0 0 0 0 22.416l9.777 17.05c3.98 6.934 11.334 11.207 19.29 11.207H51.88c7.957 0 15.312-4.273 19.289-11.207l9.779-17.05a22.543 22.543 0 0 0 0-22.416l-9.78-17.048C67.193 4.587 59.838.315 51.88.315" id="aq"/><path d="M32.324.315c-7.957 0-15.31 4.272-19.29 11.207L3.255 28.57a22.543 22.543 0 0 0 0 22.416l9.777 17.05c3.98 6.934 11.334 11.207 19.29 11.207H51.88c7.957 0 15.312-4.273 19.289-11.207l9.779-17.05a22.543 22.543 0 0 0 0-22.416l-9.78-17.048C67.193 4.587 59.838.315 51.88.315" id="as"/><path d="M32.324.315c-7.957 0-15.31 4.272-19.29 11.207L3.255 28.57a22.543 22.543 0 0 0 0 22.416l9.777 17.05c3.98 6.934 11.334 11.207 19.29 11.207H51.88c7.957 0 15.312-4.273 19.289-11.207l9.779-17.05a22.543 22.543 0 0 0 0-22.416l-9.78-17.048C67.193 4.587 59.838.315 51.88.315" id="au"/><path d="M32.324.315c-7.957 0-15.31 4.272-19.29 11.207L3.255 28.57a22.543 22.543 0 0 0 0 22.416l9.777 17.05c3.98 6.934 11.334 11.207 19.29 11.207H51.88c7.957 0 15.312-4.273 19.289-11.207l9.779-17.05a22.543 22.543 0 0 0 0-22.416l-9.78-17.048C67.193 4.587 59.838.315 51.88.315" id="aw"/><path d="M32.324.315c-7.957 0-15.31 4.272-19.29 11.207L3.255 28.57a22.543 22.543 0 0 0 0 22.416l9.777 17.05c3.98 6.934 11.334 11.207 19.29 11.207H51.88c7.957 0 15.312-4.273 19.289-11.207l9.779-17.05a22.543 22.543 0 0 0 0-22.416l-9.78-17.048C67.193 4.587 59.838.315 51.88.315" id="ay"/><path d="M32.324.315c-7.957 0-15.31 4.272-19.29 11.207L3.255 28.57a22.543 22.543 0 0 0 0 22.416l9.777 17.05c3.98 6.934 11.334 11.207 19.29 11.207H51.88c7.957 0 15.312-4.273 19.289-11.207l9.779-17.05a22.543 22.543 0 0 0 0-22.416l-9.78-17.048C67.193 4.587 59.838.315 51.88.315" id="aA"/><path d="M32.324.315c-7.957 0-15.31 4.272-19.29 11.207L3.255 28.57a22.543 22.543 0 0 0 0 22.416l9.777 17.05c3.98 6.934 11.334 11.207 19.29 11.207H51.88c7.957 0 15.312-4.273 19.289-11.207l9.779-17.05a22.543 22.543 0 0 0 0-22.416l-9.78-17.048C67.193 4.587 59.838.315 51.88.315" id="aC"/><path d="M32.324.315c-7.957 0-15.31 4.272-19.29 11.207L3.255 28.57a22.543 22.543 0 0 0 0 22.416l9.777 17.05c3.98 6.934 11.334 11.207 19.29 11.207H51.88c7.957 0 15.312-4.273 19.289-11.207l9.779-17.05a22.543 22.543 0 0 0 0-22.416l-9.78-17.048C67.193 4.587 59.838.315 51.88.315" id="aE"/><path d="M32.324.315c-7.957 0-15.31 4.272-19.29 11.207L3.255 28.57a22.543 22.543 0 0 0 0 22.416l9.777 17.05c3.98 6.934 11.334 11.207 19.29 11.207H51.88c7.957 0 15.312-4.273 19.289-11.207l9.779-17.05a22.543 22.543 0 0 0 0-22.416l-9.78-17.048C67.193 4.587 59.838.315 51.88.315" id="aG"/><path d="M32.324.315c-7.957 0-15.31 4.272-19.29 11.207L3.255 28.57a22.543 22.543 0 0 0 0 22.416l9.777 17.05c3.98 6.934 11.334 11.207 19.29 11.207H51.88c7.957 0 15.312-4.273 19.289-11.207l9.779-17.05a22.543 22.543 0 0 0 0-22.416l-9.78-17.048C67.193 4.587 59.838.315 51.88.315" id="aI"/><path d="M32.324.315c-7.957 0-15.31 4.272-19.29 11.207L3.255 28.57a22.543 22.543 0 0 0 0 22.416l9.777 17.05c3.98 6.934 11.334 11.207 19.29 11.207H51.88c7.957 0 15.312-4.273 19.289-11.207l9.779-17.05a22.543 22.543 0 0 0 0-22.416l-9.78-17.048C67.193 4.587 59.838.315 51.88.315" id="aK"/><path d="M32.324.315c-7.957 0-15.31 4.272-19.29 11.207L3.255 28.57a22.543 22.543 0 0 0 0 22.416l9.777 17.05c3.98 6.934 11.334 11.207 19.29 11.207H51.88c7.957 0 15.312-4.273 19.289-11.207l9.779-17.05a22.543 22.543 0 0 0 0-22.416l-9.78-17.048C67.193 4.587 59.838.315 51.88.315" id="aM"/><path d="M32.324.315c-7.957 0-15.31 4.272-19.29 11.207L3.255 28.57a22.543 22.543 0 0 0 0 22.416l9.777 17.05c3.98 6.934 11.334 11.207 19.29 11.207H51.88c7.957 0 15.312-4.273 19.289-11.207l9.779-17.05a22.543 22.543 0 0 0 0-22.416l-9.78-17.048C67.193 4.587 59.838.315 51.88.315" id="aO"/><path d="M32.324.315c-7.957 0-15.31 4.272-19.29 11.207L3.255 28.57a22.543 22.543 0 0 0 0 22.416l9.777 17.05c3.98 6.934 11.334 11.207 19.29 11.207H51.88c7.957 0 15.312-4.273 19.289-11.207l9.779-17.05a22.543 22.543 0 0 0 0-22.416l-9.78-17.048C67.193 4.587 59.838.315 51.88.315" id="aQ"/><path d="M32.324.315c-7.957 0-15.31 4.272-19.29 11.207L3.255 28.57a22.543 22.543 0 0 0 0 22.416l9.777 17.05c3.98 6.934 11.334 11.207 19.29 11.207H51.88c7.957 0 15.312-4.273 19.289-11.207l9.779-17.05a22.543 22.543 0 0 0 0-22.416l-9.78-17.048C67.193 4.587 59.838.315 51.88.315" id="aS"/><path d="M32.324.315c-7.957 0-15.31 4.272-19.29 11.207L3.255 28.57a22.543 22.543 0 0 0 0 22.416l9.777 17.05c3.98 6.934 11.334 11.207 19.29 11.207H51.88c7.957 0 15.312-4.273 19.289-11.207l9.779-17.05a22.543 22.543 0 0 0 0-22.416l-9.78-17.048C67.193 4.587 59.838.315 51.88.315" id="aU"/><path d="M32.324.315c-7.957 0-15.31 4.272-19.29 11.207L3.255 28.57a22.543 22.543 0 0 0 0 22.416l9.777 17.05c3.98 6.934 11.334 11.207 19.29 11.207H51.88c7.957 0 15.312-4.273 19.289-11.207l9.779-17.05a22.543 22.543 0 0 0 0-22.416l-9.78-17.048C67.193 4.587 59.838.315 51.88.315" id="aW"/><path d="M32.324.315c-7.957 0-15.31 4.272-19.29 11.207L3.255 28.57a22.543 22.543 0 0 0 0 22.416l9.777 17.05c3.98 6.934 11.334 11.207 19.29 11.207H51.88c7.957 0 15.312-4.273 19.289-11.207l9.779-17.05a22.543 22.543 0 0 0 0-22.416l-9.78-17.048C67.193 4.587 59.838.315 51.88.315" id="aY"/><path d="M32.324.315c-7.957 0-15.31 4.272-19.29 11.207L3.255 28.57a22.543 22.543 0 0 0 0 22.416l9.777 17.05c3.98 6.934 11.334 11.207 19.29 11.207H51.88c7.957 0 15.312-4.273 19.289-11.207l9.779-17.05a22.543 22.543 0 0 0 0-22.416l-9.78-17.048C67.193 4.587 59.838.315 51.88.315" id="ba"/><path d="M32.324.315c-7.957 0-15.31 4.272-19.29 11.207L3.255 28.57a22.543 22.543 0 0 0 0 22.416l9.777 17.05c3.98 6.934 11.334 11.207 19.29 11.207H51.88c7.957 0 15.312-4.273 19.289-11.207l9.779-17.05a22.543 22.543 0 0 0 0-22.416l-9.78-17.048C67.193 4.587 59.838.315 51.88.315" id="bc"/><path d="M32.324.315c-7.957 0-15.31 4.272-19.29 11.207L3.255 28.57a22.543 22.543 0 0 0 0 22.416l9.777 17.05c3.98 6.934 11.334 11.207 19.29 11.207H51.88c7.957 0 15.312-4.273 19.289-11.207l9.779-17.05a22.543 22.543 0 0 0 0-22.416l-9.78-17.048C67.193 4.587 59.838.315 51.88.315" id="be"/><path d="M32.324.315c-7.957 0-15.31 4.272-19.29 11.207L3.255 28.57a22.543 22.543 0 0 0 0 22.416l9.777 17.05c3.98 6.934 11.334 11.207 19.29 11.207H51.88c7.957 0 15.312-4.273 19.289-11.207l9.779-17.05a22.543 22.543 0 0 0 0-22.416l-9.78-17.048C67.193 4.587 59.838.315 51.88.315" id="bg"/><path d="M32.324.315c-7.957 0-15.31 4.272-19.29 11.207L3.255 28.57a22.543 22.543 0 0 0 0 22.416l9.777 17.05c3.98 6.934 11.334 11.207 19.29 11.207H51.88c7.957 0 15.312-4.273 19.289-11.207l9.779-17.05a22.543 22.543 0 0 0 0-22.416l-9.78-17.048C67.193 4.587 59.838.315 51.88.315" id="bi"/><path d="M32.324.315c-7.957 0-15.31 4.272-19.29 11.207L3.255 28.57a22.543 22.543 0 0 0 0 22.416l9.777 17.05c3.98 6.934 11.334 11.207 19.29 11.207H51.88c7.957 0 15.312-4.273 19.289-11.207l9.779-17.05a22.543 22.543 0 0 0 0-22.416l-9.78-17.048C67.193 4.587 59.838.315 51.88.315" id="bk"/><path d="M32.324.315c-7.957 0-15.31 4.272-19.29 11.207L3.255 28.57a22.543 22.543 0 0 0 0 22.416l9.777 17.05c3.98 6.934 11.334 11.207 19.29 11.207H51.88c7.957 0 15.312-4.273 19.289-11.207l9.779-17.05a22.543 22.543 0 0 0 0-22.416l-9.78-17.048C67.193 4.587 59.838.315 51.88.315" id="bm"/><path d="M32.324.315c-7.957 0-15.31 4.272-19.29 11.207L3.255 28.57a22.543 22.543 0 0 0 0 22.416l9.777 17.05c3.98 6.934 11.334 11.207 19.29 11.207H51.88c7.957 0 15.312-4.273 19.289-11.207l9.779-17.05a22.543 22.543 0 0 0 0-22.416l-9.78-17.048C67.193 4.587 59.838.315 51.88.315" id="bo"/><path d="M32.324.315c-7.957 0-15.31 4.272-19.29 11.207L3.255 28.57a22.543 22.543 0 0 0 0 22.416l9.777 17.05c3.98 6.934 11.334 11.207 19.29 11.207H51.88c7.957 0 15.312-4.273 19.289-11.207l9.779-17.05a22.543 22.543 0 0 0 0-22.416l-9.78-17.048C67.193 4.587 59.838.315 51.88.315" id="bq"/><path d="M32.324.315c-7.957 0-15.31 4.272-19.29 11.207L3.255 28.57a22.543 22.543 0 0 0 0 22.416l9.777 17.05c3.98 6.934 11.334 11.207 19.29 11.207H51.88c7.957 0 15.312-4.273 19.289-11.207l9.779-17.05a22.543 22.543 0 0 0 0-22.416l-9.78-17.048C67.193 4.587 59.838.315 51.88.315" id="bs"/><path d="M32.324.315c-7.957 0-15.31 4.272-19.29 11.207L3.255 28.57a22.543 22.543 0 0 0 0 22.416l9.777 17.05c3.98 6.934 11.334 11.207 19.29 11.207H51.88c7.957 0 15.312-4.273 19.289-11.207l9.779-17.05a22.543 22.543 0 0 0 0-22.416l-9.78-17.048C67.193 4.587 59.838.315 51.88.315" id="bu"/><path d="M32.324.315c-7.957 0-15.31 4.272-19.29 11.207L3.255 28.57a22.543 22.543 0 0 0 0 22.416l9.777 17.05c3.98 6.934 11.334 11.207 19.29 11.207H51.88c7.957 0 15.312-4.273 19.289-11.207l9.779-17.05a22.543 22.543 0 0 0 0-22.416l-9.78-17.048C67.193 4.587 59.838.315 51.88.315" id="bw"/></defs><g fill="none" fill-rule="evenodd"><mask id="b" fill="#fff"><use xlink:href="#a"/></mask><path d="M51.88.315H32.324c-7.957 0-15.31 4.271-19.29 11.21L3.257 28.57a22.546 22.546 0 0 0 0 22.418l9.779 17.046c3.978 6.937 11.332 11.209 19.289 11.209H51.88c7.957 0 15.31-4.272 19.29-11.21l9.778-17.045a22.546 22.546 0 0 0 0-22.418L71.17 11.524C67.19 4.586 59.837.314 51.88.314" fill="#FF2091" mask="url(#b)"/><mask id="d" fill="#fff"><use xlink:href="#c"/></mask><path d="M51.54.57c7.917 0 14.589 4.658 19.198 11.129.037.053 9.692 16.892 9.692 16.965 3.916 6.88 4.02 15.415-.043 22.212-.023.037-9.678 16.846-9.715 16.869-3.959 6.854-11.247 11.074-19.131 11.074-.037 0-19.315-.007-19.347-.02-7.869-.012-14.275-4.826-19.084-11.095-.02-.027-9.665-16.828-9.681-16.86-3.612-7.038-3.942-15.312-.025-22.18 0-.05 9.634-16.873 9.657-16.914C16.898 4.816 24.279.63 32.158.604 32.2.582 51.491.57 51.541.57" fill="#FF2092" mask="url(#d)"/><mask id="f" fill="#fff"><use xlink:href="#e"/></mask><path d="M51.2.824c7.876 0 14.52 4.624 19.105 11.049.078.108 9.61 16.739 9.61 16.883 3.852 6.827 3.937 15.276-.086 22.01-.046.075-9.579 16.645-9.653 16.691-3.942 6.769-11.162 10.937-18.976 10.937-.07 0-19.074-.013-19.138-.036-7.78-.028-14.117-4.786-18.876-10.983C13.145 67.32 3.632 50.763 3.6 50.7.03 43.74-.304 35.558 3.548 28.756c0-.098 9.493-16.696 9.537-16.776C16.888 5.106 24.19.945 31.993.893 32.074.85 51.1.823 51.2.823" fill="#FF2093" mask="url(#f)"/><mask id="h" fill="#fff"><use xlink:href="#g"/></mask><path d="M50.86 1.079c7.834 0 14.45 4.587 19.014 10.968.117.164 9.524 16.586 9.524 16.802 3.789 6.774 3.858 15.137-.13 21.805-.068.114-9.479 16.443-9.59 16.513A21.82 21.82 0 0 1 50.86 77.97c-.107 0-18.834-.02-18.926-.054-7.693-.044-13.963-4.747-18.673-10.87-.064-.082-9.44-16.395-9.488-16.488-3.53-6.886-3.867-14.975-.078-21.71 0-.145 9.348-16.52 9.416-16.64C16.878 5.395 24.102 1.26 31.829 1.18c.12-.064 18.884-.101 19.03-.101" fill="#FF2094" mask="url(#h)"/><mask id="j" fill="#fff"><use xlink:href="#i"/></mask><path d="M50.519 1.333c7.794 0 14.38 4.553 18.924 10.89.154.217 9.439 16.43 9.439 16.72 3.725 6.718 3.775 14.997-.174 21.602-.092.151-9.378 16.242-9.529 16.334a21.679 21.679 0 0 1-18.66 10.668c-.14 0-18.591-.027-18.715-.073-7.605-.06-13.807-4.709-18.467-10.759-.084-.107-9.33-16.177-9.393-16.3C.457 43.607.116 35.609 3.84 28.942c0-.196 9.205-16.347 9.294-16.507 3.732-6.75 10.88-10.858 18.53-10.965.158-.087 18.66-.137 18.854-.137" fill="#FF2095" mask="url(#j)"/><mask id="l" fill="#fff"><use xlink:href="#k"/></mask><path d="M50.178 1.588c7.756 0 14.312 4.516 18.832 10.81.195.27 9.354 16.276 9.354 16.637 3.664 6.665 3.697 14.86-.216 21.4-.115.188-9.277 16.04-9.465 16.156a21.539 21.539 0 0 1-18.505 10.53c-.177 0-18.341-.059-18.504-.091-7.39-1.383-13.651-4.667-18.262-10.643-.104-.135-9.216-15.962-9.295-16.115C.67 43.54.326 35.634 3.987 29.035c0-.244 9.06-16.17 9.172-16.372 3.699-6.69 10.769-10.772 18.34-10.906.2-.107 18.435-.17 18.68-.17" fill="#FF2096" mask="url(#l)"/><mask id="n" fill="#fff"><use xlink:href="#m"/></mask><path d="M49.838 1.843c7.712 0 14.242 4.48 18.74 10.73.235.326 9.269 16.122 9.269 16.557 3.601 6.61 3.615 14.718-.259 21.194-.136.226-9.178 15.84-9.403 15.978a21.393 21.393 0 0 1-18.347 10.395c-.21 0-18.1-.071-18.294-.109-7.302-1.376-13.495-4.626-18.056-10.53-.126-.164-9.105-15.745-9.2-15.93C.885 43.474.534 35.661 4.135 29.13c0-.296 8.917-15.998 9.05-16.238 3.661-6.63 10.653-10.686 18.15-10.846.241-.13 18.21-.203 18.503-.203" fill="#FF2097" mask="url(#n)"/><mask id="p" fill="#fff"><use xlink:href="#o"/></mask><path d="M49.497 2.097c7.674 0 14.174 4.444 18.65 10.651.274.378 9.186 15.968 9.186 16.474 3.535 6.556 3.532 14.58-.303 20.99-.16.266-9.08 15.639-9.342 15.8a21.262 21.262 0 0 1-18.19 10.262c-.247 0-17.855-.084-18.086-.128-7.213-1.367-13.336-4.587-17.849-10.418-.147-.19-8.991-15.526-9.103-15.741-3.362-6.58-3.716-14.302-.18-20.765 0-.344 8.773-15.821 8.929-16.103C16.837 6.552 23.75 2.523 31.169 2.336c.282-.154 17.988-.24 18.328-.24" fill="#FF2098" mask="url(#p)"/><mask id="r" fill="#fff"><use xlink:href="#q"/></mask><path d="M49.158 2.352c7.631 0 14.101 4.409 18.556 10.571.313.433 9.1 15.814 9.1 16.392 3.475 6.502 3.453 14.441-.344 20.786-.183.304-8.98 15.438-9.278 15.623a21.122 21.122 0 0 1-18.034 10.124c-.281 0-17.614-.094-17.876-.144-7.124-1.358-13.18-4.548-17.644-10.306-.166-.216-8.879-15.308-9.005-15.556-3.321-6.503-3.68-14.13-.207-20.527 0-.393 8.63-15.647 8.807-15.968 3.593-6.504 10.43-10.51 17.773-10.724.32-.173 17.761-.271 18.152-.271" fill="#FF2099" mask="url(#r)"/><mask id="t" fill="#fff"><use xlink:href="#s"/></mask><path d="M48.818 2.606c7.59 0 14.032 4.373 18.465 10.491.352.488 9.016 15.66 9.016 16.311 3.408 6.448 3.371 14.303-.39 20.583-.203.34-8.877 15.235-9.216 15.444a20.979 20.979 0 0 1-17.875 9.99c-.32 0-17.372-.107-17.666-.164-7.036-1.35-13.024-4.507-17.438-10.192-.19-.244-8.766-15.092-8.908-15.37-3.28-6.424-3.644-13.963-.234-20.29 0-.443 8.487-15.473 8.687-15.833C16.818 7.132 23.576 3.153 30.84 2.912c.361-.196 17.537-.306 17.977-.306" fill="#FF209A" mask="url(#t)"/><mask id="v" fill="#fff"><use xlink:href="#u"/></mask><path d="M48.477 2.86c7.551 0 13.963 4.338 18.373 10.412.395.542 8.931 15.506 8.931 16.23 3.348 6.393 3.292 14.163-.432 20.379-.226.38-8.777 15.033-9.152 15.265A20.847 20.847 0 0 1 48.477 75c-.352 0-17.127-.117-17.453-.18-6.951-1.342-12.87-4.467-17.235-10.08-.21-.27-8.654-14.874-8.81-15.182-3.24-6.35-3.607-13.794-.26-20.056 0-.49 8.343-15.297 8.564-15.696C16.806 7.42 23.489 3.467 30.675 3.2c.402-.217 17.315-.34 17.802-.34" fill="#FF209B" mask="url(#v)"/><mask id="x" fill="#fff"><use xlink:href="#w"/></mask><path d="M48.136 3.115c7.51 0 13.894 4.302 18.283 10.33.432.596 8.844 15.355 8.844 16.15 3.287 6.338 3.212 14.025-.474 20.174-.25.418-8.678 14.833-9.09 15.088a20.706 20.706 0 0 1-17.563 9.719c-.387 0-16.884-.13-17.242-.2-6.863-1.33-12.714-4.428-17.027-9.965-.232-.298-8.545-14.66-8.717-14.998-3.198-6.273-3.57-13.626-.285-19.818 0-.54 8.2-15.123 8.442-15.563C16.797 7.71 23.399 3.783 30.512 3.489c.44-.239 17.088-.374 17.624-.374" fill="#FF209C" mask="url(#x)"/><mask id="z" fill="#fff"><use xlink:href="#y"/></mask><path d="M47.796 3.37c7.47 0 13.825 4.266 18.19 10.25.475.649 8.763 15.2 8.763 16.068 3.22 6.283 3.127 13.885-.52 19.971-.273.455-8.577 14.631-9.027 14.91a20.578 20.578 0 0 1-17.406 9.583c-.422 0-16.64-.14-17.033-.217-6.775-1.325-12.557-4.39-16.823-9.855-.253-.323-8.43-14.439-8.617-14.811-3.157-6.195-3.532-13.455-.312-19.581 0-.589 8.056-14.949 8.322-15.428C16.786 8 23.313 4.1 30.347 3.778c.481-.26 16.864-.408 17.449-.408" fill="#FF209D" mask="url(#z)"/><mask id="B" fill="#fff"><use xlink:href="#A"/></mask><path d="M47.455 3.624c7.43 0 13.756 4.23 18.1 10.172.514.702 8.677 15.044 8.677 15.983 3.157 6.232 3.049 13.75-.562 19.769-.295.494-8.477 14.431-8.966 14.732-3.722 5.854-10.221 9.447-17.249 9.447-.457 0-16.4-.153-16.822-.235-6.686-1.315-12.401-4.348-16.617-9.74-.275-.352-8.317-14.224-8.522-14.625-3.115-6.12-3.495-13.287-.336-19.348 0-.638 7.912-14.77 8.2-15.291C16.775 8.289 23.222 4.413 30.18 4.066c.523-.282 16.642-.442 17.274-.442" fill="#FF209E" mask="url(#B)"/><mask id="D" fill="#fff"><use xlink:href="#C"/></mask><path d="M47.114 3.879c7.39 0 13.685 4.195 18.01 10.092.553.755 8.59 14.89 8.59 15.901 3.095 6.177 2.968 13.61-.604 19.566-.318.53-8.378 14.228-8.904 14.554-3.702 5.77-10.135 9.311-17.092 9.311-.492 0-16.154-.164-16.611-.255-6.597-1.304-12.246-4.309-16.412-9.626-.294-.378-8.205-14.006-8.424-14.439-3.076-6.043-3.456-13.118-.363-19.11 0-.687 7.767-14.596 8.077-15.157 3.384-6.138 9.756-9.987 16.637-10.361.56-.303 16.415-.476 17.096-.476" fill="#FF209F" mask="url(#D)"/><mask id="F" fill="#fff"><use xlink:href="#E"/></mask><path d="M46.774 4.133c7.348 0 13.614 4.158 17.918 10.013.593.808 8.506 14.736 8.506 15.82 3.031 6.123 2.888 13.47-.648 19.36-.342.569-8.277 14.027-8.84 14.376-3.683 5.689-10.05 9.178-16.936 9.178-.528 0-15.91-.176-16.401-.274-6.51-1.296-12.09-4.269-16.206-9.515-.317-.403-8.092-13.786-8.33-14.251-3.03-5.965-3.418-12.949-.387-18.874 0-.736 7.626-14.42 7.957-15.023 3.348-6.075 9.643-9.9 16.445-10.299.602-.326 16.192-.511 16.922-.511" fill="#FF20A0" mask="url(#F)"/><mask id="H" fill="#fff"><use xlink:href="#G"/></mask><path d="M46.435 4.388c7.305 0 13.543 4.122 17.824 9.933.636.861 8.423 14.581 8.423 15.738 2.968 6.07 2.805 13.331-.692 19.157-.363.608-8.179 13.827-8.777 14.198-3.663 5.604-9.967 9.04-16.778 9.04-.563 0-15.672-.185-16.192-.29-6.422-1.289-11.934-4.23-16-9.402-.34-.43-7.981-13.57-8.232-14.065-2.993-5.888-3.382-12.78-.415-18.638 0-.784 7.483-14.246 7.835-14.888 3.315-6.014 9.53-9.812 16.256-10.24.643-.347 15.967-.543 16.748-.543" fill="#FF20A1" mask="url(#H)"/><mask id="J" fill="#fff"><use xlink:href="#I"/></mask><path d="M46.094 4.642c7.267 0 13.474 4.086 17.734 9.853.675.914 8.338 14.428 8.338 15.657 2.904 6.013 2.723 13.193-.736 18.953-.386.645-8.078 13.626-8.713 14.02-3.644 5.522-9.882 8.904-16.623 8.904-.598 0-15.427-.196-15.981-.306-6.335-1.281-11.776-4.19-15.795-9.29-.36-.458-7.869-13.353-8.136-13.879-2.948-5.813-3.345-12.612-.44-18.402 0-.834 7.338-14.07 7.715-14.752 3.28-5.953 9.416-9.724 16.066-10.179.682-.369 15.74-.579 16.571-.579" fill="#FF20A2" mask="url(#J)"/><mask id="L" fill="#fff"><use xlink:href="#K"/></mask><path d="M45.754 4.897c7.225 0 13.405 4.05 17.644 9.773.715.967 8.25 14.274 8.25 15.575 2.842 5.96 2.644 13.054-.777 18.75-.41.682-7.978 13.424-8.653 13.842-3.624 5.438-9.795 8.77-16.464 8.77-.634 0-15.185-.208-15.771-.328-6.248-1.27-11.62-4.149-15.59-9.176-.383-.483-7.757-13.135-8.039-13.693-2.909-5.735-3.307-12.44-.465-18.165 0-.882 7.195-13.896 7.592-14.618 3.244-5.892 9.303-9.638 15.877-10.117.722-.39 15.517-.613 16.396-.613" fill="#FF20A4" mask="url(#L)"/><mask id="N" fill="#fff"><use xlink:href="#M"/></mask><path d="M45.413 5.151c7.185 0 13.336 4.015 17.552 9.695.758 1.019 8.166 14.119 8.166 15.493 2.78 5.904 2.564 12.915-.82 18.546-.435.72-7.877 13.221-8.59 13.663-3.604 5.355-9.71 8.634-16.308 8.634-.67 0-14.94-.217-15.56-.346-6.161-1.261-11.464-4.107-15.384-9.063-.404-.51-7.644-12.917-7.943-13.505-2.865-5.66-3.27-12.275-.49-17.93 0-.931 7.051-13.72 7.47-14.482 3.21-5.831 9.192-9.552 15.687-10.058.763-.413 15.294-.647 16.22-.647" fill="#FF20A4" mask="url(#N)"/><mask id="P" fill="#fff"><use xlink:href="#O"/></mask><path d="M45.072 5.406c7.145 0 13.266 3.978 17.46 9.614.8 1.073 8.083 13.965 8.083 15.412 2.716 5.85 2.482 12.775-.864 18.34-.457.76-7.777 13.022-8.527 13.488-3.584 5.27-9.625 8.498-16.152 8.498-.702 0-14.697-.23-15.349-.363-6.075-1.253-11.309-4.069-15.179-8.95-.425-.536-7.532-12.7-7.846-13.32-2.825-5.582-3.233-12.105-.517-17.693 0-.982 6.91-13.546 7.352-14.348 3.173-5.77 9.076-9.463 15.494-9.997.804-.435 15.07-.68 16.045-.68" fill="#FF20A5" mask="url(#P)"/><mask id="R" fill="#fff"><use xlink:href="#Q"/></mask><path d="M44.732 5.661c7.105 0 13.196 3.942 17.371 9.534.838 1.125 7.996 13.811 7.996 15.33 2.652 5.797 2.4 12.636-.91 18.137-.478.797-7.674 12.82-8.463 13.309-3.563 5.188-9.539 8.363-15.994 8.363-.739 0-14.455-.24-15.139-.381-5.986-1.246-11.153-4.03-14.974-8.837-.448-.564-7.418-12.484-7.75-13.134-2.781-5.507-3.194-11.937-.541-17.457 0-1.03 6.765-13.371 7.229-14.212 3.138-5.71 8.965-9.378 15.307-9.94.843-.454 14.844-.712 15.868-.712" fill="#FF20A6" mask="url(#R)"/><mask id="T" fill="#fff"><use xlink:href="#S"/></mask><path d="M44.391 5.915c7.063 0 13.127 3.906 17.28 9.456.881 1.176 7.912 13.656 7.912 15.247 2.587 5.742 2.32 12.498-.954 17.933-.501.834-7.575 12.619-8.4 13.13-3.545 5.106-9.455 8.228-15.838 8.228-.774 0-14.21-.25-14.93-.399-5.897-1.237-10.995-3.99-14.764-8.725-.471-.588-7.31-12.266-7.655-12.947-2.742-5.428-3.158-11.767-.568-17.22 0-1.08 6.622-13.196 7.107-14.078 3.106-5.648 8.853-9.288 15.12-9.877.88-.477 14.619-.748 15.69-.748" fill="#FF20A7" mask="url(#T)"/><mask id="V" fill="#fff"><use xlink:href="#U"/></mask><path d="M44.05 6.17c7.024 0 13.059 3.869 17.188 9.376.924 1.23 7.827 13.502 7.827 15.165 2.527 5.688 2.24 12.359-.995 17.73-.524.871-7.475 12.417-8.34 12.952-3.523 5.022-9.37 8.092-15.68 8.092-.809 0-13.97-.26-14.718-.419-5.81-1.227-10.838-3.947-14.562-8.61-.49-.615-7.195-12.047-7.555-12.76-2.7-5.353-3.12-11.6-.597-16.985 0-1.128 6.48-13.02 6.989-13.943 3.068-5.585 8.738-9.2 14.926-9.816.924-.499 14.397-.782 15.517-.782" fill="#FF20A8" mask="url(#V)"/><mask id="X" fill="#fff"><use xlink:href="#W"/></mask><path d="M43.712 6.424c6.98 0 12.985 3.833 17.093 9.295.965 1.284 7.743 13.35 7.743 15.086 2.464 5.633 2.158 12.22-1.038 17.526-.547.91-7.376 12.215-8.276 12.772-3.505 4.94-9.285 7.957-15.522 7.957-.847 0-13.73-.269-14.509-.434-5.724-1.22-10.683-3.91-14.357-8.5-.514-.64-7.084-11.83-7.46-12.573-2.66-5.277-3.082-11.43-.62-16.748 0-1.178 6.336-12.845 6.865-13.81 3.035-5.522 8.628-9.113 14.738-9.755.964-.52 14.172-.816 15.343-.816" fill="#FF20AA" mask="url(#X)"/><mask id="Z" fill="#fff"><use xlink:href="#Y"/></mask><path d="M43.37 6.679c6.942 0 12.917 3.798 17.006 9.215 1.005 1.335 7.657 13.196 7.657 15.003 2.398 5.58 2.077 12.081-1.083 17.322-.57.948-7.276 12.015-8.212 12.596-3.486 4.856-9.2 7.821-15.367 7.821-.88 0-13.485-.28-14.298-.454-5.637-1.21-10.528-3.869-14.15-8.385-.537-.666-6.974-11.614-7.364-12.389-2.617-5.2-3.045-11.26-.646-16.51 0-1.228 6.191-12.671 6.742-13.674 3-5.463 8.515-9.027 14.55-9.695 1.003-.543 13.948-.85 15.166-.85" fill="#FF20AB" mask="url(#Z)"/><mask id="ab" fill="#fff"><use xlink:href="#aa"/></mask><path d="M43.03 6.933c6.9 0 12.848 3.762 16.913 9.135 1.05 1.388 7.573 13.043 7.573 14.923 2.335 5.525 1.995 11.942-1.126 17.117-.593.985-7.175 11.813-8.15 12.42-3.465 4.772-9.113 7.685-15.21 7.685-.915 0-13.242-.29-14.086-.472-5.551-1.203-10.37-3.83-13.947-8.274-.558-.693-6.86-11.395-7.267-12.202-2.576-5.122-3.008-11.092-.67-16.274 0-1.276 6.05-12.496 6.621-13.54 2.964-5.4 8.402-8.939 14.36-9.632 1.043-.565 13.722-.886 14.99-.886" fill="#FF20AC" mask="url(#ab)"/><mask id="ad" fill="#fff"><use xlink:href="#ac"/></mask><path d="M42.69 7.188c6.859 0 12.776 3.725 16.82 9.057 1.091 1.438 7.488 12.886 7.488 14.839 2.275 5.47 1.918 11.803-1.168 16.914-.615 1.022-7.076 11.613-8.087 12.24-3.445 4.69-9.03 7.55-15.053 7.55-.951 0-13-.298-13.878-.49-5.46-1.193-10.213-3.79-13.74-8.16-.58-.719-6.748-11.178-7.167-12.015-2.536-5.047-2.973-10.925-.7-16.04 0-1.325 5.905-12.319 6.5-13.404 2.929-5.339 8.29-8.851 14.17-9.573 1.084-.585 13.5-.918 14.815-.918" fill="#FF20AD" mask="url(#ad)"/><mask id="af" fill="#fff"><use xlink:href="#ae"/></mask><path d="M42.35 7.442c6.82 0 12.707 3.69 16.728 8.977 1.135 1.491 7.404 12.732 7.404 14.757 2.21 5.417 1.835 11.664-1.21 16.712-.64 1.06-6.977 11.41-8.027 12.061-3.424 4.607-8.943 7.415-14.896 7.415-.986 0-12.757-.308-13.667-.51-5.374-1.184-10.055-3.747-13.534-8.045-.602-.745-6.637-10.962-7.072-11.83C5.58 42.01 5.14 36.225 7.35 31.176c0-1.374 5.763-12.145 6.38-13.268 2.894-5.278 8.178-8.766 13.98-9.512 1.124-.61 13.274-.954 14.64-.954" fill="#FF20AE" mask="url(#af)"/><mask id="ah" fill="#fff"><use xlink:href="#ag"/></mask><path d="M42.008 7.697c6.78 0 12.639 3.653 16.639 8.896 1.177 1.542 7.318 12.58 7.318 14.677 2.147 5.363 1.754 11.525-1.254 16.506-.664 1.1-6.877 11.21-7.962 11.885-3.409 4.522-8.859 7.28-14.74 7.28-1.02 0-12.515-.32-13.457-.528-5.287-1.176-9.9-3.709-13.329-7.934-.625-.772-6.523-10.742-6.974-11.642-2.453-4.894-2.899-10.588-.751-15.567 0-1.424 5.62-11.97 6.257-13.135 2.86-5.216 8.065-8.677 13.791-9.452 1.164-.63 13.05-.986 14.462-.986" fill="#FF20AF" mask="url(#ah)"/><mask id="aj" fill="#fff"><use xlink:href="#ai"/></mask><path d="M41.668 7.951c6.739 0 12.567 3.618 16.548 8.818 1.218 1.593 7.234 12.425 7.234 14.593 2.083 5.31 1.672 11.386-1.3 16.304-.685 1.136-6.774 11.008-7.9 11.705-3.387 4.441-8.771 7.144-14.582 7.144-1.055 0-12.272-.326-13.244-.545-5.202-1.167-9.746-3.667-13.126-7.821-.648-.795-6.413-10.525-6.878-11.456-2.412-4.816-2.862-10.416-.778-15.33 0-1.473 5.479-11.794 6.137-13 2.826-5.155 7.952-8.59 13.602-9.39 1.204-.651 12.826-1.022 14.287-1.022" fill="#FF20B0" mask="url(#aj)"/><mask id="al" fill="#fff"><use xlink:href="#ak"/></mask><path d="M41.329 8.206c6.696 0 12.497 3.58 16.454 8.738 1.262 1.645 7.15 12.271 7.15 14.511 2.022 5.255 1.59 11.247-1.343 16.101-.708 1.173-6.673 10.807-7.838 11.527-3.366 4.357-8.686 7.008-14.423 7.008-1.093 0-12.031-.335-13.035-.563-5.115-1.158-9.59-3.628-12.92-7.707-.671-.823-6.302-10.308-6.782-11.27-2.369-4.742-2.824-10.249-.802-15.096 0-1.52 5.332-11.619 6.015-12.863 2.789-5.095 8.063-7.549 13.41-9.33 1.343-.448 12.602-1.056 14.114-1.056" fill="#FF20B1" mask="url(#al)"/><mask id="an" fill="#fff"><use xlink:href="#am"/></mask><path d="M40.988 8.46c6.656 0 12.426 3.545 16.364 8.658 1.305 1.696 7.063 12.118 7.063 14.43 1.958 5.201 1.512 11.109-1.385 15.897-.731 1.212-6.574 10.605-7.773 11.35-3.348 4.273-8.603 6.872-14.269 6.872-1.128 0-11.788-.344-12.826-.581-5.027-1.152-9.43-3.588-12.713-7.595-.692-.847-6.19-10.09-6.685-11.085-2.329-4.662-2.786-10.078-.827-14.857 0-1.57 5.19-11.445 5.892-12.73 2.755-5.032 7.948-7.493 13.223-9.27 1.381-.465 12.375-1.089 13.936-1.089" fill="#FF20B1" mask="url(#an)"/><mask id="ap" fill="#fff"><use xlink:href="#ao"/></mask><path d="M40.648 8.715c6.615 0 12.357 3.507 16.271 8.577 1.35 1.747 6.98 11.963 6.98 14.35 1.895 5.144 1.429 10.97-1.427 15.692-.756 1.25-6.624 10.203-7.713 11.17-3.992 3.556-8.516 6.739-14.111 6.739-1.162 0-11.546-.353-12.616-.6-4.94-1.142-9.274-3.547-12.505-7.482-.72-.873-6.079-9.871-6.59-10.898-2.286-4.587-2.748-9.91-.856-14.621 0-1.619 5.048-11.268 5.772-12.594 2.72-4.972 7.835-7.437 13.036-9.21 1.421-.487 12.15-1.123 13.759-1.123" fill="#FF20B2" mask="url(#ap)"/><mask id="ar" fill="#fff"><use xlink:href="#aq"/></mask><path d="M40.523 8.97c6.574 0 12.284 3.47 16.182 8.498 1.391 1.796 6.471 11.845 6.892 14.266.932 5.335 1.35 10.83-1.47 15.49-.778 1.286-6.524 9.998-7.65 10.993-3.947 3.49-8.431 6.6-13.954 6.6-1.199 0-11.303-.36-12.405-.616-4.853-1.133-9.118-3.509-12.302-7.369-.74-.898-5.967-9.655-6.492-10.712-2.246-4.51-2.711-9.74-.88-14.386 0-1.669 4.902-11.092 5.65-12.459 2.686-4.91 7.72-7.381 12.843-9.15 1.465-.503 11.927-1.156 13.586-1.156" fill="#FF20B3" mask="url(#ar)"/><mask id="at" fill="#fff"><use xlink:href="#as"/></mask><path d="M40.18 9.224c6.533 0 12.214 3.434 16.088 8.419 1.436 1.848 6.385 11.69 6.81 14.185.896 5.266 1.266 10.693-1.514 15.285-.802 1.324-6.427 9.794-7.587 10.815-3.902 3.424-8.346 6.466-13.798 6.466-1.232 0-11.06-.37-12.196-.635-4.764-1.126-8.96-3.468-12.095-7.256-.763-.923-5.855-9.438-6.395-10.525-2.204-4.434-2.675-9.574-.907-14.15 0-1.718 4.762-10.919 5.53-12.325 2.649-4.849 7.601-7.326 12.654-9.088 1.505-.526 11.702-1.19 13.41-1.19" fill="#FF20B4" mask="url(#at)"/><mask id="av" fill="#fff"><use xlink:href="#au"/></mask><path d="M39.835 9.48c6.493 0 12.145 3.398 15.997 8.337 1.48 1.898 6.298 11.536 6.725 14.104.864 5.198 1.188 10.553-1.556 15.081-.827 1.362-6.327 9.592-7.525 10.636-3.857 3.36-8.262 6.332-13.641 6.332-1.268 0-10.818-.376-11.985-.654-4.678-1.118-8.805-3.427-11.89-7.143-.787-.948-5.745-9.22-6.3-10.34-2.161-4.355-2.636-9.402-.93-13.912 0-1.766 4.617-10.743 5.407-12.19 2.615-4.788 7.486-7.269 12.463-9.028 1.547-.547 11.48-1.224 13.235-1.224" fill="#FF20B5" mask="url(#av)"/><mask id="ax" fill="#fff"><use xlink:href="#aw"/></mask><path d="M39.49 9.733c6.455 0 12.075 3.361 15.906 8.26 1.526 1.948 6.213 11.38 6.64 14.02.832 5.13 1.107 10.414-1.6 14.878-.847 1.4-6.226 9.39-7.462 10.46-3.81 3.294-8.175 6.194-13.485 6.194-1.301 0-10.577-.383-11.772-.672-4.593-1.107-8.65-3.386-11.686-7.029-.811-.973-5.633-9.003-6.203-10.152-2.119-4.282-2.599-9.237-.956-13.68 0-1.813 4.473-10.565 5.285-12.053 2.58-4.726 7.37-7.214 12.274-8.968 1.588-.566 11.254-1.258 13.058-1.258" fill="#FF20B6" mask="url(#ax)"/><mask id="az" fill="#fff"><use xlink:href="#ay"/></mask><path d="M38.944 9.988c6.414 0 12.007 3.326 15.817 8.18 1.567 1.998 6.128 11.225 6.555 13.94.8 5.062 1.025 10.275-1.643 14.673-.873 1.436-6.127 9.188-7.401 10.28-3.766 3.232-8.088 6.06-13.328 6.06-1.336 0-10.334-.39-11.561-.69-4.507-1.1-8.492-3.347-11.481-6.918-.834-.996-5.52-8.782-6.105-9.965-2.08-4.204-1.785-8.857-.984-13.44.322-1.838 4.332-10.392 5.164-11.92 2.546-4.666 7.254-7.158 12.086-8.908 1.63-.59 11.03-1.292 12.881-1.292" fill="#FF20B7" mask="url(#az)"/><mask id="aB" fill="#fff"><use xlink:href="#aA"/></mask><path d="M38.606 10.242c6.372 0 11.933 3.288 15.724 8.1 1.613 2.05 6.041 11.072 6.47 13.857.767 4.997.942 10.137-1.687 14.47-.896 1.476-6.026 8.988-7.338 10.103-3.722 3.169-8.005 5.926-13.17 5.926-1.372 0-10.094-.398-11.352-.71-4.42-1.09-8.336-3.305-11.276-6.803-.858-1.022-5.409-8.565-6.009-9.78-2.036-4.128-1.778-8.7-1.007-13.206.32-1.885 4.187-10.216 5.04-11.785 2.511-4.603 7.14-7.1 11.897-8.844 1.67-.613 10.806-1.328 12.708-1.328" fill="#FF20B8" mask="url(#aB)"/><mask id="aD" fill="#fff"><use xlink:href="#aC"/></mask><path d="M38.265 10.497c6.33 0 11.865 3.253 15.633 8.02 1.659 2.099 5.958 10.917 6.386 13.775.733 4.931.862 9.997-1.732 14.267-.918 1.511-5.924 8.786-7.273 9.925-3.68 3.102-7.92 5.79-13.014 5.79-1.41 0-9.851-.405-11.142-.728-4.335-1.083-8.179-3.266-11.07-6.691-.882-1.046-5.298-8.347-5.912-9.593-1.997-4.05-1.772-8.547-1.036-12.97.324-1.934 4.046-10.04 4.924-11.65 2.474-4.54 7.019-7.044 11.706-8.785 1.708-.634 10.579-1.36 12.53-1.36" fill="#FF20B9" mask="url(#aD)"/><mask id="aF" fill="#fff"><use xlink:href="#aE"/></mask><path d="M37.924 10.751c6.291 0 11.794 3.215 15.54 7.941 1.704 2.148 5.88 10.76 6.302 13.694.702 4.865.781 9.858-1.774 14.062-.942 1.55-5.823 8.586-7.211 9.746-3.632 3.04-7.833 5.655-12.857 5.655-1.443 0-9.61-.41-10.931-.745-4.248-1.075-8.023-3.224-10.865-6.58-.906-1.069-5.186-8.13-5.816-9.405-1.953-3.974-1.763-8.39-1.059-12.733.32-1.985 3.903-9.866 4.8-11.514 2.44-4.48 6.902-6.99 11.514-8.725 1.752-.66 10.358-1.396 12.357-1.396" fill="#FF20BA" mask="url(#aF)"/><mask id="aH" fill="#fff"><use xlink:href="#aG"/></mask><path d="M37.584 11.006c6.25 0 11.725 3.178 15.45 7.861 1.75 2.197 5.797 10.605 6.215 13.612.669 4.799.703 9.719-1.817 13.859-.965 1.588-5.72 8.384-7.148 9.568-3.589 2.976-7.75 5.519-12.7 5.519-1.479 0-9.368-.415-10.721-.763-4.161-1.066-7.867-3.185-10.66-6.467-.93-1.094-5.075-7.91-5.718-9.219C8.57 41.08 8.727 36.743 9.398 32.48c.322-2.036 3.76-9.69 4.68-11.379 2.406-4.42 6.786-6.934 11.326-8.666 1.79-.683 10.133-1.428 12.18-1.428" fill="#FF20BB" mask="url(#aH)"/><mask id="aJ" fill="#fff"><use xlink:href="#aI"/></mask><path d="M37.243 11.26c6.21 0 11.654 3.142 15.36 7.78 1.794 2.248 5.715 10.45 6.13 13.532.637 4.732.62 9.58-1.86 13.654-.99 1.626-5.62 8.185-7.087 9.392C46.24 58.53 42.123 61 37.243 61c-1.512 0-9.126-.42-10.512-.78-4.074-1.06-7.707-3.144-10.452-6.354-.956-1.119-4.966-7.693-5.623-9.033-1.872-3.823-1.75-8.077-1.112-12.26.319-2.086 3.617-9.515 4.56-11.246 2.37-4.357 6.666-6.875 11.136-8.604 1.828-.707 9.907-1.463 12.003-1.463" fill="#FF20BC" mask="url(#aJ)"/><mask id="aL" fill="#fff"><use xlink:href="#aK"/></mask><path d="M36.902 11.515c6.17 0 11.584 3.105 15.268 7.7 1.84 2.296 5.638 10.296 6.047 13.45.605 4.667.538 9.441-1.904 13.451-1.012 1.663-5.517 7.986-7.024 9.212-3.5 2.85-7.578 5.248-12.387 5.248-1.549 0-8.884-.426-10.3-.799-3.99-1.05-7.552-3.102-10.245-6.24-.983-1.143-4.857-7.476-5.528-8.848-1.831-3.745-1.744-7.92-1.137-12.024.315-2.135 3.474-9.34 4.435-11.11 2.336-4.296 6.55-6.818 10.948-8.543 1.868-.732 9.683-1.497 11.827-1.497" fill="#FF20BD" mask="url(#aL)"/><mask id="aN" fill="#fff"><use xlink:href="#aM"/></mask><path d="M36.562 11.77c6.13 0 11.514 3.068 15.175 7.621 1.888 2.344 5.56 10.139 5.962 13.368.574 4.601.459 9.302-1.946 13.246-1.036 1.7-5.414 7.79-6.962 9.035-3.458 2.785-7.491 5.111-12.23 5.111-1.584 0-8.643-.431-10.088-.816-3.904-1.043-7.396-3.062-10.043-6.129-1.006-1.163-4.743-7.256-5.428-8.659-1.79-3.67-1.74-7.763-1.165-11.788.311-2.187 3.332-9.165 4.316-10.974 2.3-4.236 6.431-6.763 10.757-8.485 1.906-.757 9.46-1.53 11.652-1.53" fill="#FF20BE" mask="url(#aN)"/><mask id="aP" fill="#fff"><use xlink:href="#aO"/></mask><path d="M36.221 12.025c6.088 0 11.444 3.03 15.086 7.541 1.931 2.394 5.483 9.983 5.876 13.286.542 4.537.377 9.163-1.99 13.043-1.06 1.737-5.31 7.59-6.9 8.856-3.412 2.723-7.406 4.978-12.072 4.978-1.618 0-8.401-.437-9.878-.838-3.819-1.032-7.238-3.02-9.837-6.013-1.032-1.188-4.634-7.039-5.331-8.475-1.75-3.593-1.734-7.604-1.19-11.551.304-2.235 3.187-8.99 4.192-10.84 2.265-4.174 6.313-6.707 10.57-8.423 1.943-.786 9.233-1.564 11.474-1.564" fill="#FF20BF" mask="url(#aP)"/><mask id="aR" fill="#fff"><use xlink:href="#aQ"/></mask><path d="M35.882 12.278c6.047 0 11.373 2.994 14.994 7.462 1.977 2.443 5.405 9.828 5.79 13.205.508 4.473.297 9.025-2.033 12.838-1.082 1.775-5.208 7.394-6.837 8.679-3.37 2.66-7.32 4.842-11.914 4.842-1.655 0-8.162-.44-9.669-.854-3.734-1.026-7.082-2.981-9.63-5.902-1.059-1.212-4.524-6.82-5.236-8.288-1.708-3.515-1.726-7.446-1.218-11.315.303-2.286 3.047-8.814 4.072-10.705 2.231-4.113 6.194-6.649 10.38-8.363 1.983-.813 9.01-1.599 11.301-1.599" fill="#FF20C0" mask="url(#aR)"/><mask id="aT" fill="#fff"><use xlink:href="#aS"/></mask><path d="M35.542 12.533c6.006 0 11.301 2.957 14.901 7.384 2.026 2.49 5.335 9.67 5.708 13.121.475 4.409.215 8.885-2.077 12.635-1.108 1.812-5.104 7.198-6.774 8.5-3.329 2.599-7.236 4.705-11.758 4.705-1.691 0-7.922-.442-9.46-.87-3.648-1.019-6.924-2.94-9.425-5.79-1.082-1.233-4.413-6.602-5.139-8.1-1.666-3.44-1.719-7.29-1.243-11.08.294-2.336 2.904-8.638 3.952-10.57 2.194-4.052 6.075-6.593 10.188-8.302 2.02-.84 8.786-1.633 11.127-1.633" fill="#FF20C1" mask="url(#aT)"/><mask id="aV" fill="#fff"><use xlink:href="#aU"/></mask><path d="M35.201 12.788c5.965 0 11.23 2.92 14.81 7.303 2.073 2.537 5.261 9.516 5.623 13.04.444 4.345.134 8.747-2.12 12.432-1.131 1.848-4.998 7-6.71 8.323-3.288 2.534-7.152 4.569-11.603 4.569-1.726 0-7.68-.446-9.25-.891-3.562-1.009-6.767-2.898-9.219-5.674-1.11-1.257-4.3-6.385-5.04-7.916-1.626-3.363-1.715-7.128-1.269-10.842.286-2.388 2.759-8.463 3.828-10.436 2.162-3.99 5.955-6.535 9.999-8.24 2.06-.87 8.56-1.668 10.951-1.668" fill="#FF20C2" mask="url(#aV)"/><mask id="aX" fill="#fff"><use xlink:href="#aW"/></mask><path d="M34.86 13.042c5.927 0 11.16 2.884 14.72 7.223 2.119 2.584 5.19 9.361 5.536 12.96.412 4.282.055 8.607-2.162 12.228-1.156 1.885-4.894 6.804-6.649 8.142-3.243 2.476-7.066 4.436-11.445 4.436-1.76 0-7.44-.45-9.037-.909-3.479-1.002-6.611-2.857-9.014-5.562-1.138-1.28-4.192-6.166-4.947-7.73-1.583-3.285-1.707-6.97-1.294-10.606.278-2.437 2.619-8.286 3.708-10.3 2.126-3.93 5.835-6.478 9.81-8.181 2.097-.899 8.336-1.7 10.774-1.7" fill="#FF20C3" mask="url(#aX)"/><mask id="aZ" fill="#fff"><use xlink:href="#aY"/></mask><path d="M34.52 13.297c5.883 0 11.09 2.846 14.628 7.143 2.166 2.632 5.12 9.204 5.452 12.877.38 4.222-.028 8.469-2.206 12.024-1.178 1.925-4.788 6.611-6.587 7.966-3.203 2.413-6.98 4.3-11.287 4.3-1.796 0-7.2-.451-8.827-.927-3.394-.992-6.453-2.815-8.81-5.45-1.163-1.3-4.083-5.946-4.848-7.543-1.542-3.21-1.701-6.811-1.319-10.37.266-2.49 2.473-8.112 3.585-10.165 2.091-3.869 5.716-6.419 9.622-8.12 2.132-.93 8.11-1.735 10.597-1.735" fill="#FF20C4" mask="url(#aZ)"/><mask id="bb" fill="#fff"><use xlink:href="#ba"/></mask><path d="M34.18 13.552c5.844 0 11.02 2.808 14.536 7.064 2.215 2.678 5.053 9.05 5.366 12.795.35 4.158-.106 8.33-2.248 11.819-1.203 1.96-4.682 6.419-6.523 7.79-3.16 2.35-6.895 4.162-11.132 4.162-1.829 0-6.96-.45-8.616-.944-3.309-.986-6.296-2.775-8.605-5.338-1.19-1.32-3.973-5.727-4.752-7.356-1.5-3.133-1.694-6.65-1.346-10.133.255-2.54 2.334-7.937 3.465-10.031 2.056-3.807 5.594-6.362 9.43-8.059 2.171-.96 7.889-1.77 10.424-1.77" fill="#FF20C5" mask="url(#bb)"/><mask id="bd" fill="#fff"><use xlink:href="#bc"/></mask><path d="M33.839 13.807c5.804 0 10.949 2.77 14.444 6.984 2.265 2.726 4.99 8.892 5.285 12.713.315 4.097-.191 8.19-2.293 11.615-1.228 1.998-4.575 6.227-6.462 7.612-3.118 2.288-6.808 4.027-10.974 4.027-1.867 0-6.72-.45-8.407-.962-3.224-.979-6.137-2.734-8.398-5.225-1.218-1.342-3.863-5.509-4.655-7.17-1.459-3.056-1.69-6.49-1.372-9.897.24-2.59 2.192-7.761 3.343-9.896 2.022-3.746 5.474-6.303 9.242-8 2.205-.99 7.663-1.801 10.247-1.801" fill="#FF20C6" mask="url(#bd)"/><mask id="bf" fill="#fff"><use xlink:href="#be"/></mask><path d="M33.5 14.06c5.761 0 10.876 2.734 14.352 6.904 2.31 2.773 4.924 8.738 5.198 12.632.285 4.038-.269 8.051-2.335 11.414-1.252 2.033-4.469 6.034-6.399 7.431-3.079 2.23-6.725 3.892-10.816 3.892-1.902 0-6.48-.45-8.198-.98-3.141-.971-5.98-2.693-8.193-5.111-1.246-1.363-3.753-5.293-4.56-6.984-1.417-2.981-1.681-6.328-1.396-9.662.227-2.64 2.049-7.583 3.222-9.76 1.985-3.684 5.353-6.245 9.053-7.938 2.238-1.025 7.439-1.837 10.072-1.837" fill="#FF20C7" mask="url(#bf)"/><mask id="bh" fill="#fff"><use xlink:href="#bg"/></mask><path d="M33.159 14.316c5.72 0 10.806 2.696 14.262 6.823 2.36 2.82 4.86 8.583 5.112 12.55.253 3.977-.35 7.914-2.378 11.209-1.275 2.072-4.36 5.845-6.335 7.254-3.04 2.167-6.64 3.757-10.661 3.757-1.937 0-6.241-.449-7.987-.998-3.056-.962-5.824-2.652-7.985-4.999-1.277-1.382-3.646-5.073-4.464-6.796-1.376-2.905-1.677-6.168-1.424-9.428.21-2.689 1.906-7.408 3.1-9.625 1.954-3.62 5.23-6.185 8.862-7.876 2.276-1.059 7.216-1.871 9.898-1.871" fill="#FF20C8" mask="url(#bh)"/><mask id="bj" fill="#fff"><use xlink:href="#bi"/></mask><path d="M32.818 14.57c5.68 0 10.735 2.659 14.17 6.745 2.408 2.865 4.8 8.425 5.029 12.467.221 3.917-.432 7.775-2.422 11.006-1.3 2.108-4.251 5.655-6.273 7.075-3 2.108-6.555 3.621-10.504 3.621-1.97 0-6.002-.447-7.776-1.016-2.973-.955-5.664-2.608-7.782-4.886-1.303-1.402-3.536-4.853-4.364-6.61-1.337-2.828-1.672-6.005-1.449-9.19.19-2.74 1.764-7.231 2.977-9.49 1.917-3.562 5.108-6.128 8.674-7.817 2.307-1.093 6.99-1.905 9.72-1.905" fill="#FF20C9" mask="url(#bj)"/><mask id="bl" fill="#fff"><use xlink:href="#bk"/></mask><path d="M32.478 14.824c5.64 0 10.664 2.622 14.078 6.665 2.459 2.912 4.741 8.27 4.943 12.386.191 3.858-.512 7.636-2.465 10.801-1.322 2.147-4.14 5.467-6.209 6.898-2.96 2.048-6.47 3.486-10.347 3.486-2.008 0-5.764-.444-7.564-1.033-2.892-.949-5.509-2.568-7.578-4.773-1.335-1.424-3.426-4.635-4.27-6.426-1.292-2.752-1.664-5.842-1.474-8.953.172-2.79 1.622-7.057 2.858-9.356 1.882-3.498 4.984-6.068 8.482-7.756 2.343-1.13 6.768-1.939 9.546-1.939" fill="#FF20CA" mask="url(#bl)"/><mask id="bn" fill="#fff"><use xlink:href="#bm"/></mask><path d="M32.137 15.079c5.6 0 10.593 2.584 13.988 6.584 2.507 2.957 4.685 8.116 4.86 12.306.156 3.799-.595 7.495-2.509 10.598-1.35 2.18-4.033 5.28-6.15 6.718-2.92 1.989-6.384 3.352-10.189 3.352-2.041 0-5.524-.442-7.355-1.055-2.808-.94-5.349-2.523-7.37-4.658-1.364-1.44-3.319-4.414-4.172-6.24-1.254-2.674-1.66-5.677-1.502-8.715.147-2.843 1.48-6.881 2.736-9.22 1.846-3.44 4.862-6.012 8.295-7.698 2.374-1.165 6.54-1.972 9.368-1.972" fill="#FF20CB" mask="url(#bn)"/><mask id="bp" fill="#fff"><use xlink:href="#bo"/></mask><path d="M31.796 15.334c5.56 0 10.523 2.546 13.898 6.504 2.556 3.003 4.63 7.96 4.773 12.223.126 3.741-.674 7.359-2.551 10.395-1.374 2.219-3.922 5.093-6.086 6.542-2.884 1.928-6.3 3.213-10.034 3.213-2.076 0-5.287-.435-7.144-1.07-2.725-.933-5.191-2.483-7.165-4.547-1.396-1.458-3.21-4.195-4.076-6.052-1.21-2.598-1.652-5.513-1.527-8.48.124-2.893 1.339-6.705 2.616-9.086 1.81-3.377 4.736-5.952 8.104-7.636 2.406-1.204 6.317-2.006 9.192-2.006" fill="#FF20CC" mask="url(#bp)"/><mask id="br" fill="#fff"><use xlink:href="#bq"/></mask><path d="M31.456 15.588c5.519 0 10.452 2.509 13.805 6.426 2.61 3.045 4.579 7.804 4.689 12.14.095 3.685-.76 7.215-2.596 10.191-1.4 2.253-3.809 4.91-6.022 6.364-2.843 1.87-6.213 3.08-9.876 3.08-2.11 0-5.05-.43-6.934-1.09a17.92 17.92 0 0 1-6.96-4.433c-1.425-1.476-3.102-3.978-3.979-5.867-1.17-2.523-1.646-5.348-1.552-8.246.097-2.94 1.2-6.526 2.493-8.95 1.78-3.312 4.612-5.89 7.914-7.573 2.438-1.244 6.094-2.042 9.018-2.042" fill="#FF20CD" mask="url(#br)"/><mask id="bt" fill="#fff"><use xlink:href="#bs"/></mask><path d="M31.115 15.843c5.48 0 10.381 2.47 13.715 6.346 2.658 3.091 4.528 7.65 4.604 12.059.064 3.628-.841 7.076-2.64 9.987-1.424 2.29-3.695 4.726-5.96 6.185-2.808 1.81-6.126 2.944-9.719 2.944-2.146 0-4.812-.424-6.723-1.108a17.902 17.902 0 0 1-6.753-4.32c-1.46-1.493-2.997-3.758-3.884-5.68-1.128-2.446-1.64-5.182-1.578-8.008.067-2.994 1.057-6.351 2.373-8.816 1.745-3.252 4.486-5.833 7.725-7.515 2.468-1.283 5.867-2.074 8.84-2.074" fill="#FF20CE" mask="url(#bt)"/><mask id="bv" fill="#fff"><use xlink:href="#bu"/></mask><path d="M30.776 16.097c5.436 0 10.309 2.432 13.622 6.267 2.71 3.135 4.48 7.494 4.52 11.976.032 3.573-.92 6.94-2.684 9.783-1.447 2.33-3.584 4.546-5.896 6.008-2.771 1.753-6.043 2.808-9.562 2.808-2.183 0-4.578-.413-6.514-1.126a17.88 17.88 0 0 1-6.549-4.207c-1.493-1.508-2.888-3.538-3.786-5.493-1.087-2.37-1.634-5.015-1.604-7.773.036-3.042.914-6.177 2.252-8.68 1.707-3.192 4.36-5.771 7.534-7.453 2.5-1.326 5.645-2.11 8.667-2.11" fill="#FF20CF" mask="url(#bv)"/><mask id="bx" fill="#fff"><use xlink:href="#bw"/></mask><path d="M48.401 34.434c0 9.986-8.044 18.08-17.964 18.08-9.925 0-17.967-8.094-17.967-18.08 0-9.987 8.042-18.081 17.967-18.081 9.92 0 17.964 8.094 17.964 18.08" fill="#FF20D0" mask="url(#bx)"/><g fill="#FFF"><path d="M48.36 25.537c-3.352 0-5.93.178-6.433.595l-18.5 18.5a3.083 3.083 0 0 0-.91 2.193c0 .828.324 1.608.91 2.193l10.555 10.554c1.171 1.174 3.216 1.17 4.384 0l18.503-18.5c.747-.915.728-8.476.286-15.229a140.186 140.186 0 0 0-8.795-.306M36.173 62a4.587 4.587 0 0 1-3.264-1.353L22.353 50.091A4.588 4.588 0 0 1 21 46.825a4.59 4.59 0 0 1 1.353-3.266l18.504-18.505c1.584-1.58 12.459-1.002 17.064-.68a.758.758 0 0 1 .703.705c.324 4.603.904 15.481-.678 17.062L39.44 60.647A4.595 4.595 0 0 1 36.173 62"/><path d="M51.5 29.506c-.51 0-1.02.195-1.411.583a1.998 1.998 0 0 0 0 2.82c.784.78 2.045.777 2.822 0a1.998 1.998 0 0 0 0-2.82 1.995 1.995 0 0 0-1.412-.583m0 5.494a3.495 3.495 0 0 1-2.476-1.023 3.508 3.508 0 0 1 0-4.954 3.508 3.508 0 0 1 4.954 0 3.508 3.508 0 0 1 0 4.954A3.496 3.496 0 0 1 51.499 35"/><path d="M52.08 33L51 31.922c5.265-5.996 5.899-9.504 5.379-10.185-.237-.31-1.122-.236-2.505.663l-.771-1.346c2.812-1.832 4.03-.827 4.422-.313 1.504 1.968-.633 6.78-5.445 12.259M33.21 47.215l1.674.264a.768.768 0 0 1 .637.637l.264 1.675.77-1.51a.779.779 0 0 1 .8-.41l1.676.266-1.2-1.2a.766.766 0 0 1-.14-.886l.77-1.512-1.512.77a.764.764 0 0 1-.887-.14l-1.198-1.2.265 1.675a.76.76 0 0 1-.408.8l-1.51.77zM35.4 53a.76.76 0 0 1-.754-.646l-.549-3.45-3.45-.547a.766.766 0 0 1-.227-1.437l3.113-1.584-.547-3.45a.763.763 0 0 1 .41-.801.76.76 0 0 1 .887.14l2.469 2.47 3.114-1.585a.759.759 0 0 1 .887.14.762.762 0 0 1 .14.888l-1.584 3.111 2.468 2.47a.765.765 0 0 1-.66 1.297l-3.45-.547-1.586 3.112A.767.767 0 0 1 35.4 53z"/></g></g></svg>