<svg width="51" height="87" xmlns="http://www.w3.org/2000/svg"><g fill="none" fill-rule="evenodd"><path d="M.736.962C27.98 19.43 45.892 50.706 45.892 86.178" stroke="#FF2C8B" stroke-width="1.165"/><path d="M46.667 85.65l3.565-6.241a1.001 1.001 0 0 0-.004-.993.99.99 0 0 0-.86-.494l-7.168.021a.994.994 0 0 0-.853 1.495l3.603 6.217a.988.988 0 0 0 1.717-.005" fill="#FFF"/><path d="M46.667 85.65l3.565-6.241a1.001 1.001 0 0 0-.004-.993.99.99 0 0 0-.86-.494l-7.168.021a.994.994 0 0 0-.853 1.495l3.603 6.217a.988.988 0 0 0 1.717-.005z" stroke="#FF2C8B" stroke-width="1.165"/></g></svg>