<svg width="47" height="87" xmlns="http://www.w3.org/2000/svg"><g fill="none" fill-rule="evenodd"><path d="M1.05 86.178c0-34.985 17.422-65.886 44.037-84.445" stroke="#FF2C8B" stroke-width="1.165"/><path d="M42.478 9.322l3.266-6.402a.994.994 0 0 0-.932-1.446l-7.16.364a.994.994 0 0 0-.78 1.533l3.893 6.038a.987.987 0 0 0 1.713-.087" fill="#FFF"/><path d="M42.478 9.322l3.266-6.402a.994.994 0 0 0-.932-1.446l-7.16.364a.994.994 0 0 0-.78 1.533l3.893 6.038a.987.987 0 0 0 1.713-.087z" stroke="#FF2C8B" stroke-width="1.165"/></g></svg>