<svg width="78" height="13" xmlns="http://www.w3.org/2000/svg"><g fill="none" fill-rule="evenodd"><path d="M77.726 2.02c-11.3 6.407-24.352 10.064-38.254 10.064-13.722 0-26.615-3.562-37.81-9.813" stroke="#FFC900" stroke-width="1.165"/><path d="M9.053 1.104l-7.168.078a.984.984 0 0 0-.851.507.997.997 0 0 0 .01.993l3.65 6.19a.989.989 0 0 0 1.717-.017l3.517-6.269a.997.997 0 0 0-.875-1.482" fill="#FFF"/><path d="M9.053 1.104l-7.168.078a.984.984 0 0 0-.851.507.997.997 0 0 0 .01.993l3.65 6.19a.989.989 0 0 0 1.717-.017l3.517-6.269a.997.997 0 0 0-.875-1.482z" stroke="#FFC900" stroke-width="1.165"/></g></svg>