<svg width="92" height="15" xmlns="http://www.w3.org/2000/svg"><g fill="none" fill-rule="evenodd"><path d="M90.38 2.3C77.137 9.88 61.808 14.214 45.473 14.214c-16.155 0-31.326-4.236-44.464-11.663" stroke="#00D6FF" stroke-width="1.165"/><path d="M82.6 1.173l7.167.076a.99.99 0 0 1 .853.507 1 1 0 0 1-.01.995L86.96 8.94a.99.99 0 0 1-1.717-.018l-3.517-6.267a.997.997 0 0 1 .875-1.482" fill="#FFF"/><path d="M82.6 1.173l7.167.076a.99.99 0 0 1 .853.507 1 1 0 0 1-.01.995L86.96 8.94a.99.99 0 0 1-1.717-.018l-3.517-6.267a.997.997 0 0 1 .875-1.482z" stroke="#00D6FF" stroke-width="1.165"/></g></svg>