<svg width="50" height="86" xmlns="http://www.w3.org/2000/svg"><g fill="none" fill-rule="evenodd"><path d="M48.902 83.799C22.69 65.64 5.522 35.339 5.522 1.022" stroke="#FF2C8B" stroke-width="1.165"/><path d="M46.138 76.933l3.027 6.355a.973.973 0 0 1-.955 1.391l-7.013-.554a.975.975 0 0 1-.726-1.524l3.987-5.801a.973.973 0 0 1 1.68.133" fill="#FFF"/><path d="M46.138 76.933l3.027 6.355a.973.973 0 0 1-.955 1.391l-7.013-.554a.975.975 0 0 1-.726-1.524l3.987-5.801a.973.973 0 0 1 1.68.133z" stroke="#FF2C8B" stroke-width="1.165"/><path d="M4.66 1.956l-3.5 6.107a.981.981 0 0 0 .001.975c.176.3.498.485.847.483l7.036-.02a.97.97 0 0 0 .84-.492.97.97 0 0 0-.004-.972L6.343 1.95a.97.97 0 1 0-1.683.005" fill="#FFF"/><path d="M4.66 1.956l-3.5 6.107a.981.981 0 0 0 .001.975c.176.3.498.485.847.483l7.036-.02a.97.97 0 0 0 .84-.492.97.97 0 0 0-.004-.972L6.343 1.95a.97.97 0 1 0-1.683.005z" stroke="#FF2C8B" stroke-width="1.165"/></g></svg>