<?xml version="1.0" encoding="UTF-8"?>
<svg width="78px" height="74px" viewBox="0 0 78 74" version="1.1" xmlns="http://www.w3.org/2000/svg" xmlns:xlink="http://www.w3.org/1999/xlink">
    <!-- Generator: Sketch 48.2 (47327) - http://www.bohemiancoding.com/sketch -->
    <title>Group 5</title>
    <desc>Created with Sketch.</desc>
    <defs></defs>
    <g id="Desktop-HD" stroke="none" stroke-width="1" fill="none" fill-rule="evenodd" transform="translate(-559.000000, -438.000000)">
        <g id="Group-5" transform="translate(559.000000, 438.000000)" fill="#1F0738">
            <path d="M74.565,70.9429 L3.116,70.9429 L3.116,11.5029 L15.752,11.5029 L15.752,16.0439 C15.752,16.8729 16.422,17.5439 17.252,17.5439 C18.081,17.5439 18.752,16.8729 18.752,16.0439 L18.752,11.5029 L57.216,11.5029 L57.216,16.0439 C57.216,16.8729 57.888,17.5439 58.716,17.5439 C59.544,17.5439 60.216,16.8729 60.216,16.0439 L60.216,11.5029 L74.565,11.5029 L74.565,70.9429 Z M76.065,8.5029 L60.216,8.5029 L60.216,1.6579 C60.216,0.8289 59.544,0.1579 58.716,0.1579 C57.888,0.1579 57.216,0.8289 57.216,1.6579 L57.216,8.5029 L18.752,8.5029 L18.752,1.6579 C18.752,0.8289 18.081,0.1579 17.252,0.1579 C16.422,0.1579 15.752,0.8289 15.752,1.6579 L15.752,8.5029 L1.616,8.5029 C0.787,8.5029 0.116,9.1739 0.116,10.0029 L0.116,72.4429 C0.116,73.2709 0.787,73.9429 1.616,73.9429 L76.065,73.9429 C76.893,73.9429 77.565,73.2709 77.565,72.4429 L77.565,10.0029 C77.565,9.1739 76.893,8.5029 76.065,8.5029 Z" id="Fill-1"></path>
            <path d="M59.7378,51.3931 L54.6758,46.3301 C54.0908,45.7441 53.1418,45.7441 52.5558,46.3301 C51.9688,46.9141 51.9688,47.8651 52.5558,48.4511 L57.6168,53.5141 L52.5558,58.5771 C51.9688,59.1631 51.9688,60.1131 52.5558,60.6981 C52.8488,60.9911 53.2328,61.1371 53.6168,61.1371 C54.0008,61.1371 54.3838,60.9911 54.6768,60.6981 L59.7388,55.6351 L64.7998,60.6981 C65.0918,60.9911 65.4768,61.1371 65.8608,61.1371 C66.2448,61.1371 66.6288,60.9911 66.9218,60.6981 C67.5078,60.1131 67.5078,59.1631 66.9218,58.5771 L61.8608,53.5141 L66.9218,48.4511 C67.5078,47.8651 67.5078,46.9141 66.9218,46.3301 C66.3358,45.7441 65.3858,45.7441 64.7998,46.3301 L59.7378,51.3931 Z" id="Fill-3"></path>
            <path d="M15.039,34.876 L21.288,34.876 L21.288,28.629 L15.039,28.629 L15.039,34.876 Z M22.788,25.628 L13.539,25.628 C12.71,25.628 12.039,26.3 12.039,27.128 L12.039,36.376 C12.039,37.205 12.71,37.876 13.539,37.876 L22.788,37.876 C23.617,37.876 24.288,37.204 24.288,36.376 L24.288,27.128 C24.288,26.3 23.617,25.628 22.788,25.628 Z" id="Fill-5"></path>
            <path d="M36.115,34.876 L42.361,34.876 L42.361,28.629 L36.115,28.629 L36.115,34.876 Z M43.861,25.628 L34.615,25.628 C33.786,25.628 33.115,26.3 33.115,27.128 L33.115,36.376 C33.115,37.205 33.786,37.876 34.615,37.876 L43.861,37.876 C44.689,37.876 45.361,37.204 45.361,36.376 L45.361,27.128 C45.361,26.3 44.69,25.628 43.861,25.628 Z" id="Fill-7"></path>
            <path d="M15.039,56.146 L21.288,56.146 L21.288,49.899 L15.039,49.899 L15.039,56.146 Z M22.788,46.899 L13.539,46.899 C12.71,46.899 12.039,47.571 12.039,48.399 L12.039,57.646 C12.039,58.474 12.71,59.146 13.539,59.146 L22.788,59.146 C23.617,59.146 24.288,58.474 24.288,57.646 L24.288,48.399 C24.288,47.571 23.617,46.899 22.788,46.899 Z" id="Fill-8"></path>
            <path d="M36.115,56.146 L42.361,56.146 L42.361,49.899 L36.115,49.899 L36.115,56.146 Z M43.861,46.899 L34.615,46.899 C33.786,46.899 33.115,47.571 33.115,48.399 L33.115,57.646 C33.115,58.474 33.786,59.146 34.615,59.146 L43.861,59.146 C44.689,59.146 45.361,58.474 45.361,57.646 L45.361,48.399 C45.361,47.571 44.69,46.899 43.861,46.899 Z" id="Fill-9"></path>
            <path d="M56.224,34.876 L62.473,34.876 L62.473,28.629 L56.224,28.629 L56.224,34.876 Z M54.724,25.628 C53.896,25.628 53.224,26.3 53.224,27.128 L53.224,36.376 C53.224,37.205 53.896,37.876 54.724,37.876 L63.973,37.876 C64.8,37.876 65.473,37.204 65.473,36.376 L65.473,27.128 C65.473,26.3 64.8,25.628 63.973,25.628 L54.724,25.628 Z" id="Fill-10"></path>
        </g>
    </g>
</svg>