<svg width="89" height="78" xmlns="http://www.w3.org/2000/svg"><g fill="#1A0A2B"><path d="M82.25.352H21.576c-3.648 0-6.571 2.565-6.655 5.878v12.814a1.5 1.5 0 1 0 3 0V6.273c.041-1.611 1.671-2.921 3.633-2.921h60.73c2.006 0 3.637 1.337 3.637 2.982v49.033c0 1.646-1.632 2.984-3.637 2.984H21.576c-2.015 0-3.655-1.336-3.655-2.979v-7.007a1.5 1.5 0 1 0-3 0v7.007c0 3.297 2.945 5.979 6.566 5.979h28.434v13H30.88a1.5 1.5 0 1 0 0 3h40.914a1.5 1.5 0 0 0 0-3H52.921v-13H82.25c3.679 0 6.671-2.686 6.671-5.989V6.339c0-3.302-2.992-5.987-6.671-5.987z"/><path d="M41.824 24.352h32.151a1.5 1.5 0 1 0 0-3H41.824a1.5 1.5 0 1 0 0 3zm0 10h32.151a1.5 1.5 0 1 0 0-3H41.824a1.5 1.5 0 1 0 0 3zm0 10h32.151a1.5 1.5 0 0 0 0-3H41.824a1.5 1.5 0 1 0 0 3zm-26.018-6.925c.387 0 .771-.149 1.061-.439l21.672-21.673a1.5 1.5 0 1 0-2.121-2.121L15.643 33.97 2.74 24.784a1.5 1.5 0 1 0-1.739 2.444l13.937 9.921c.261.187.566.278.868.278z"/></g></svg>