<svg width="91" height="82" xmlns="http://www.w3.org/2000/svg" xmlns:xlink="http://www.w3.org/1999/xlink"><defs><path id="a" d="M.62 0h25.257v3H.62z"/><path id="c" d="M.871.4h18.85v10.995H.871z"/></defs><g fill="none" fill-rule="evenodd"><path d="M44.22 27.306c11.163 0 20.267 8.89 20.661 19.96H23.558c.394-11.07 9.498-19.96 20.661-19.96m42.086 19.96H67.9c-.393-12.726-10.86-22.959-23.68-22.959-12.819 0-23.287 10.233-23.68 22.96H2.654a1.5 1.5 0 1 0 0 3h83.651a1.5 1.5 0 0 0 0-3M71.266 62.98H15.877a1.5 1.5 0 1 0 0 3h55.39a1.5 1.5 0 0 0 0-3" fill="#FF2394"/><g transform="translate(31 78.848)"><mask id="b" fill="#fff"><use xlink:href="#a"/></mask><path d="M24.377 0H2.12a1.5 1.5 0 1 0 0 3h22.257a1.5 1.5 0 0 0 0-3" fill="#FF2394" mask="url(#b)"/></g><path d="M44.964 20.973a1.5 1.5 0 0 0 1.5-1.5V1.5a1.5 1.5 0 1 0-3 0v17.973a1.5 1.5 0 0 0 1.5 1.5m11.515 1.652a1.5 1.5 0 0 0 1.919-.905l5.664-15.774a1.5 1.5 0 0 0-2.824-1.013l-5.664 15.774a1.5 1.5 0 0 0 .905 1.918m10.296 6.928c.42 0 .835-.174 1.132-.514l12.15-13.933a1.5 1.5 0 0 0-2.263-1.971L65.645 27.067a1.5 1.5 0 0 0 1.13 2.486" fill="#FF2394"/><g transform="translate(71 28.848)"><mask id="d" fill="#fff"><use xlink:href="#c"/></mask><path d="M19.56 1.225A1.5 1.5 0 0 0 17.545.56L1.695 8.555a1.5 1.5 0 0 0 1.352 2.679l15.85-7.994a1.501 1.501 0 0 0 .663-2.015" fill="#FF2394" mask="url(#d)"/></g><path d="M31.733 21.72a1.501 1.501 0 0 0 2.824-1.013L28.6 4.115a1.5 1.5 0 1 0-2.823 1.013l5.957 16.592zm-9.553 7.264a1.495 1.495 0 0 0 2.107.243 1.5 1.5 0 0 0 .243-2.107L13.083 12.688a1.5 1.5 0 1 0-2.35 1.864L22.18 28.984zm-5.423 11.259a1.5 1.5 0 0 0 .668-2.844l-15.257-7.58a1.5 1.5 0 1 0-1.335 2.688l15.257 7.578c.215.107.442.158.667.158" fill="#FF2394"/></g></svg>