<?xml version="1.0" encoding="UTF-8"?>
<svg width="70px" height="89px" viewBox="0 0 70 89" version="1.1" xmlns="http://www.w3.org/2000/svg" xmlns:xlink="http://www.w3.org/1999/xlink">
    <!-- Generator: Sketch 48.2 (47327) - http://www.bohemiancoding.com/sketch -->
    <title>Group 7</title>
    <desc>Created with Sketch.</desc>
    <defs></defs>
    <g id="Desktop-HD" stroke="none" stroke-width="1" fill="none" fill-rule="evenodd" transform="translate(-721.000000, -615.000000)">
        <g id="Group-7" transform="translate(721.000000, 615.000000)">
            <path d="M66.0376,51.9781 C60.4466,72.3441 38.4066,83.3091 34.6006,85.0661 C30.8306,83.3071 9.1106,72.3891 3.4816,52.0481 L3.4816,16.6741 C14.8216,15.4201 24.1756,12.6591 34.6426,3.8351 C45.2076,12.7051 54.6426,15.4121 66.1436,16.6421 L66.1436,50.9401 L66.0376,51.9781 Z M67.6096,13.9581 C67.5066,13.9221 67.3976,13.8941 67.2846,13.8831 C55.5886,12.7131 46.1976,10.1241 35.5366,0.8431 C34.9386,0.3251 34.0346,0.3861 33.5146,0.9831 C33.4846,1.0171 33.4756,1.0601 33.4506,1.0961 C22.8756,10.2331 13.5286,12.8021 1.9076,13.9631 C1.8806,13.9661 1.8556,13.9751 1.8286,13.9791 C1.7836,13.9861 1.7386,13.9951 1.6956,14.0051 C1.6466,14.0181 1.6006,14.0331 1.5556,14.0491 C1.5126,14.0651 1.4726,14.0821 1.4316,14.1011 C1.3886,14.1231 1.3456,14.1451 1.3056,14.1701 C1.2676,14.1941 1.2296,14.2191 1.1946,14.2461 C1.1566,14.2731 1.1226,14.3021 1.0886,14.3331 C1.0536,14.3651 1.0206,14.3971 0.9896,14.4331 C0.9606,14.4651 0.9336,14.4981 0.9066,14.5331 C0.8776,14.5721 0.8496,14.6141 0.8236,14.6561 C0.8026,14.6911 0.7836,14.7271 0.7646,14.7641 C0.7416,14.8111 0.7226,14.8571 0.7056,14.9061 C0.6916,14.9451 0.6796,14.9841 0.6686,15.0251 C0.6556,15.0751 0.6446,15.1251 0.6376,15.1771 C0.6316,15.2201 0.6266,15.2621 0.6246,15.3061 C0.6226,15.3341 0.6156,15.3611 0.6156,15.3901 L0.6156,52.2411 C0.6156,52.3681 0.6326,52.4931 0.6656,52.6151 C7.0766,76.2561 32.9396,87.4911 34.0386,87.9571 C34.2186,88.0331 34.4076,88.0711 34.5986,88.0711 C34.7866,88.0711 34.9756,88.0341 35.1536,87.9591 C36.2646,87.4921 62.4256,76.2591 68.8356,52.6151 C68.8556,52.5401 68.8696,52.4641 68.8776,52.3861 L69.0026,51.1591 C69.0076,51.1111 69.0106,51.0611 69.0106,51.0141 L69.0106,15.3891 C69.0106,14.6091 68.3866,13.9761 67.6096,13.9581 Z" id="Fill-44" fill="#1F0738"></path>
            <polygon id="Stroke-45" stroke="#1F0738" stroke-width="2.835" points="19.3531 29.106 38.1621 29.106 44.8591 37.228 44.8591 64.016 19.3531 64.016"></polygon>
            <polyline id="Stroke-46" stroke="#1F0738" stroke-width="2.835" points="44.8589 57.7466 50.2729 57.7466 50.2729 22.8366 26.7629 22.8366 26.7629 29.1056"></polyline>
            <polyline id="Stroke-47" stroke="#1F0738" stroke-width="2.835" points="37.4488 29.106 37.4488 37.797 44.8588 37.797"></polyline>
        </g>
    </g>
</svg>