<?xml version="1.0" encoding="UTF-8"?>
<svg width="97px" height="72px" viewBox="0 0 97 72" version="1.1" xmlns="http://www.w3.org/2000/svg" xmlns:xlink="http://www.w3.org/1999/xlink">
    <!-- Generator: Sketch 48.2 (47327) - http://www.bohemiancoding.com/sketch -->
    <title>Group 4</title>
    <desc>Created with Sketch.</desc>
    <defs></defs>
    <g id="Desktop-HD" stroke="none" stroke-width="1" fill="none" fill-rule="evenodd" transform="translate(-694.000000, -476.000000)">
        <g id="Group-4" transform="translate(694.000000, 476.000000)" fill="#EB3386">
            <path d="M29.7037,6.4908 C37.4847,6.4908 43.8147,12.8208 43.8147,20.6018 C43.8147,28.3838 37.4847,34.7138 29.7037,34.7138 C21.9227,34.7138 15.5927,28.3838 15.5927,20.6018 C15.5927,12.8208 21.9227,6.4908 29.7037,6.4908 M29.7037,37.7138 C39.1387,37.7138 46.8147,30.0378 46.8147,20.6018 C46.8147,11.1678 39.1387,3.4908 29.7037,3.4908 C20.2687,3.4908 12.5927,11.1678 12.5927,20.6018 C12.5927,30.0378 20.2687,37.7138 29.7037,37.7138" id="Fill-11"></path>
            <path d="M29.7007,31.1011 C32.8877,31.1011 35.6797,29.0661 36.6497,26.0391 C36.9017,25.2501 36.4677,24.4061 35.6787,24.1531 C34.8897,23.9041 34.0457,24.3361 33.7927,25.1241 C33.2217,26.9051 31.5787,28.1021 29.7017,28.1021 C27.8247,28.1021 26.1797,26.9051 25.6117,25.1231 C25.3597,24.3341 24.5137,23.8961 23.7257,24.1511 C22.9377,24.4031 22.5017,25.2471 22.7547,26.0371 C23.7207,29.0651 26.5127,31.1011 29.7007,31.1011" id="Fill-12"></path>
            <path d="M57.3365,58.1148 C55.5575,53.9738 52.8565,50.3238 49.4955,47.4138 L50.2735,46.0578 C54.7085,39.7308 61.9525,35.9558 69.6645,35.9558 C82.2045,35.9558 92.4965,45.7648 93.2735,58.1148 L57.3365,58.1148 Z M3.7025,68.2348 C4.4835,54.2998 16.0655,43.1998 30.1905,43.1998 C44.3155,43.1998 55.8995,54.3008 56.6795,68.2348 L3.7025,68.2348 Z M69.6635,32.9558 C60.9485,32.9558 52.7665,37.2318 47.7735,44.3958 C47.7485,44.4318 47.7245,44.4688 47.7025,44.5078 L47.1075,45.5478 C42.3125,42.1818 36.4805,40.1988 30.1905,40.1988 C13.9075,40.1988 0.6605,53.4478 0.6605,69.7338 C0.6605,70.5618 1.3315,71.2338 2.1605,71.2338 L58.2215,71.2338 C59.0495,71.2338 59.7215,70.5618 59.7215,69.7338 C59.7215,66.7358 59.2705,63.8428 58.4365,61.1138 L94.8195,61.1138 C95.6485,61.1138 96.3195,60.4418 96.3195,59.6138 C96.3195,44.9148 84.3625,32.9558 69.6635,32.9558 Z" id="Fill-13"></path>
            <path d="M69.2261,3.0083 C76.1241,3.0083 81.7381,8.6203 81.7381,15.5193 C81.7381,22.4183 76.1251,28.0293 69.2261,28.0293 C62.3281,28.0293 56.7151,22.4183 56.7151,15.5193 C56.7151,8.6203 62.3281,3.0083 69.2261,3.0083 M69.2261,31.0293 C77.7801,31.0293 84.7381,24.0713 84.7381,15.5193 C84.7381,6.9663 77.7801,0.0083 69.2261,0.0083 C60.6731,0.0083 53.7151,6.9663 53.7151,15.5193 C53.7151,24.0713 60.6731,31.0293 69.2261,31.0293" id="Fill-14"></path>
            <path d="M69.2251,25.0953 C71.7781,25.0953 74.0161,23.4643 74.7971,21.0363 C75.0511,20.2473 74.6181,19.4023 73.8291,19.1493 C73.0391,18.8953 72.1961,19.3293 71.9421,20.1163 C71.5611,21.3003 70.4681,22.0953 69.2241,22.0953 C67.9811,22.0953 66.8881,21.3013 66.5081,20.1173 C66.2551,19.3303 65.4191,18.8963 64.6211,19.1483 C63.8331,19.4013 63.3991,20.2463 63.6531,21.0343 C64.4331,23.4643 66.6721,25.0953 69.2251,25.0953" id="Fill-15"></path>
        </g>
    </g>
</svg>