<?xml version="1.0" encoding="UTF-8"?>
<svg width="85px" height="92px" viewBox="0 0 85 92" version="1.1" xmlns="http://www.w3.org/2000/svg" xmlns:xlink="http://www.w3.org/1999/xlink">
    <!-- Generator: Sketch 48.2 (47327) - http://www.bohemiancoding.com/sketch -->
    <title>Group 2</title>
    <desc>Created with Sketch.</desc>
    <defs></defs>
    <g id="Desktop-HD" stroke="none" stroke-width="1" fill="none" fill-rule="evenodd" transform="translate(-659.000000, -288.000000)">
        <g id="Group-2" transform="translate(659.000000, 288.000000)" fill="#1F0738">
            <path d="M58.4703,86.3218 C58.4703,87.4358 57.5703,88.3428 56.4613,88.3428 C55.3423,88.3428 54.4323,87.4358 54.4323,86.3218 C54.4323,85.2078 55.3423,84.3008 56.4613,84.3008 C57.5693,84.2998 58.4703,85.2068 58.4703,86.3218 Z M76.0553,84.6128 C77.1723,84.6128 78.0803,85.5228 78.0803,86.6408 C78.0803,87.7538 77.1723,88.6608 76.0553,88.6608 C74.9423,88.6608 74.0343,87.7548 74.0343,86.6408 C74.0343,85.5228 74.9413,84.6128 76.0553,84.6128 Z M81.2273,51.3238 L77.3053,72.3238 L52.9533,72.3238 L52.8923,72.1388 L52.7653,71.7108 C52.7413,71.6268 52.7063,71.5478 52.6673,71.4718 L45.9263,51.3238 L81.2273,51.3238 Z M49.8633,73.6238 L52.6643,83.1588 C51.6143,84.3968 51.1093,86.1118 51.6733,87.9628 C52.1693,89.5868 53.5033,90.8848 55.1443,91.3238 C58.2163,92.1448 61.0033,90.1278 61.5053,87.3238 L71.0923,87.3238 C71.3833,89.8668 73.5573,91.8458 76.1933,91.7748 C78.8573,91.7028 81.0843,89.4128 81.0803,86.7478 C81.0753,83.9798 78.8243,81.7288 76.0553,81.7288 C74.1723,81.7288 72.5483,82.7838 71.6903,84.3238 L61.3233,84.3238 C60.4503,82.4558 58.5723,81.1518 56.3833,81.1518 C55.9403,81.1518 55.5163,81.2178 55.1033,81.3168 L53.3423,75.3238 L78.7813,75.3238 L78.7813,75.3248 C79.4953,75.3248 80.1083,74.8158 80.2403,74.1138 L84.7283,50.0798 C84.8093,49.6468 84.6923,49.1988 84.4113,48.8608 C84.1293,48.5198 83.7113,48.3238 83.2703,48.3238 L44.6813,48.3238 L43.0173,43.3478 C42.8133,42.7368 42.2403,42.3238 41.5953,42.3238 L35.4553,42.3238 C34.6263,42.3238 33.9553,42.9948 33.9553,43.8238 C33.9553,44.6538 34.6263,45.3238 35.4553,45.3238 L40.3943,45.3238 L49.8633,73.6238 Z" id="Fill-16"></path>
            <path d="M3.279,16.324 L73.279,16.324 L73.279,3.324 L3.279,3.324 L3.279,16.324 Z M35.179,65.324 L3.279,65.324 L3.279,19.324 L73.279,19.324 L73.279,40.836 C73.279,41.666 73.951,42.336 74.779,42.336 C75.607,42.336 76.279,41.666 76.279,40.836 L76.279,1.824 C76.279,0.996 75.607,0.324 74.779,0.324 L1.779,0.324 C0.95,0.324 0.279,0.996 0.279,1.824 L0.279,66.824 C0.279,67.653 0.95,68.324 1.779,68.324 L35.179,68.324 C36.008,68.324 36.679,67.652 36.679,66.824 C36.679,65.996 36.008,65.324 35.179,65.324 Z" id="Fill-17"></path>
            <path d="M21.8208,11.3243 L27.8058,11.3243 C28.6348,11.3243 29.3058,10.6533 29.3058,9.8243 C29.3058,8.9953 28.6348,8.3243 27.8058,8.3243 L21.8208,8.3243 C20.9918,8.3243 20.3208,8.9953 20.3208,9.8243 C20.3208,10.6533 20.9918,11.3243 21.8208,11.3243" id="Fill-18"></path>
            <path d="M9.5103,11.3243 L15.4963,11.3243 C16.3253,11.3243 16.9963,10.6533 16.9963,9.8243 C16.9963,8.9953 16.3253,8.3243 15.4963,8.3243 L9.5103,8.3243 C8.6813,8.3243 8.0103,8.9953 8.0103,9.8243 C8.0103,10.6533 8.6813,11.3243 9.5103,11.3243" id="Fill-19"></path>
        </g>
    </g>
</svg>