<?xml version="1.0" encoding="UTF-8"?>
<svg width="90px" height="90px" viewBox="0 0 90 90" version="1.1" xmlns="http://www.w3.org/2000/svg" xmlns:xlink="http://www.w3.org/1999/xlink">
    <!-- Generator: Sketch 48.2 (47327) - http://www.bohemiancoding.com/sketch -->
    <title>Page 1 Copy 2</title>
    <desc>Created with Sketch.</desc>
    <defs></defs>
    <g id="Desktop-HD-Copy-12" stroke="none" stroke-width="1" fill="none" fill-rule="evenodd" transform="translate(-1363.000000, -4143.000000)">
        <g id="Page-1-Copy-2" transform="translate(1363.000000, 4143.000000)" fill="#EB3386">
            <path d="M44.6186,86.238 C21.6706,86.238 3.0006,67.568 3.0006,44.619 C3.0006,21.67 21.6706,3 44.6186,3 C67.5676,3 86.2376,21.67 86.2376,44.619 C86.2376,67.568 67.5676,86.238 44.6186,86.238 M44.6186,0 C20.0156,0 0.0006,20.016 0.0006,44.619 C0.0006,69.223 20.0156,89.238 44.6186,89.238 C69.2226,89.238 89.2376,69.222 89.2376,44.619 C89.2376,20.016 69.2226,0 44.6186,0" id="Fill-1"></path>
            <path d="M44.6186,70.2131 C35.8376,70.2131 28.6036,63.4561 27.8436,54.8671 L61.3986,54.8671 C60.6376,63.4561 53.4016,70.2131 44.6186,70.2131 M62.9666,51.8671 L26.2756,51.8671 C25.4466,51.8671 24.7756,52.5391 24.7756,53.3671 C24.7756,64.3101 33.6776,73.2131 44.6186,73.2131 C55.5616,73.2131 64.4666,64.3111 64.4666,53.3671 C64.4666,52.5391 63.7946,51.8671 62.9666,51.8671" id="Fill-3"></path>
            <path d="M22.099,31.235 C22.099,28.843 24.044,26.898 26.436,26.898 C28.828,26.898 30.773,28.843 30.773,31.235 C30.773,33.627 28.827,35.572 26.436,35.572 C24.045,35.572 22.099,33.626 22.099,31.235 M33.773,31.235 C33.773,27.19 30.481,23.898 26.436,23.898 C22.391,23.898 19.099,27.19 19.099,31.235 C19.099,35.28 22.391,38.572 26.436,38.572 C30.482,38.572 33.773,35.28 33.773,31.235" id="Fill-5"></path>
            <path d="M61.9692,35.5719 C59.5762,35.5719 57.6322,33.6269 57.6322,31.2349 C57.6322,28.8429 59.5762,26.8979 61.9692,26.8979 C64.3612,26.8979 66.3072,28.8429 66.3072,31.2349 C66.3072,33.6269 64.3602,35.5719 61.9692,35.5719 M61.9692,23.8979 C57.9232,23.8979 54.6322,27.1899 54.6322,31.2349 C54.6322,35.2799 57.9232,38.5719 61.9692,38.5719 C66.0152,38.5719 69.3072,35.2799 69.3072,31.2349 C69.3072,27.1899 66.0142,23.8979 61.9692,23.8979" id="Fill-7"></path>
        </g>
    </g>
</svg>