<?xml version="1.0" encoding="UTF-8"?>
<svg width="57px" height="90px" viewBox="0 0 57 90" version="1.1" xmlns="http://www.w3.org/2000/svg" xmlns:xlink="http://www.w3.org/1999/xlink">
    <!-- Generator: Sketch 48.2 (47327) - http://www.bohemiancoding.com/sketch -->
    <title>Group 3</title>
    <desc>Created with Sketch.</desc>
    <defs></defs>
    <g id="Desktop-HD" stroke="none" stroke-width="1" fill="none" fill-rule="evenodd" transform="translate(-890.000000, -438.000000)">
        <g id="Group-3" transform="translate(890.000000, 438.000000)" fill="#EB3386">
            <path d="M28.9195,86.0874 C15.1125,86.0874 3.8825,74.8574 3.8825,61.0524 C3.8825,47.2524 15.1125,36.0244 28.9195,36.0244 L28.9215,36.0244 C33.3755,36.0244 37.6485,37.1874 41.4035,39.3564 C41.5015,39.4304 41.6095,39.4894 41.7255,39.5384 C43.4845,40.5904 45.1275,41.8664 46.6125,43.3534 C51.3405,48.0794 53.9415,54.3654 53.9415,61.0524 C53.9435,74.8574 42.7185,86.0874 28.9195,86.0874 Z M8.4965,3.8644 L49.3335,3.8644 L41.3305,35.9144 C37.5195,34.0274 33.2995,33.0244 28.9215,33.0244 L28.9195,33.0244 C24.4625,33.0244 20.2475,34.0754 16.5015,35.9334 L8.4965,3.8644 Z M48.7365,41.2324 C47.2935,39.7884 45.7165,38.5274 44.0395,37.4494 L52.7095,2.7274 C52.8205,2.2784 52.7215,1.8054 52.4375,1.4404 C52.1515,1.0764 51.7165,0.8634 51.2545,0.8634 L6.5755,0.8634 C6.1135,0.8634 5.6785,1.0764 5.3945,1.4404 C5.1095,1.8044 5.0095,2.2774 5.1215,2.7274 L13.7945,37.4724 C6.0365,42.4634 0.8835,51.1644 0.8835,61.0524 C0.8835,76.5114 13.4615,89.0874 28.9205,89.0874 C44.3735,89.0874 56.9435,76.5114 56.9435,61.0524 C56.9435,53.5644 54.0275,46.5244 48.7365,41.2324 Z" id="Fill-58"></path>
            <path d="M35.9087,62.9244 C35.5557,63.2694 35.3947,63.7654 35.4777,64.2514 L36.8637,72.3224 L29.8007,68.6074 C29.3707,68.3794 28.8567,68.3774 28.4247,68.5964 L20.9587,72.3794 L22.3517,64.2514 C22.4347,63.7654 22.2737,63.2684 21.9217,62.9244 L16.0587,57.2054 L24.1627,56.0284 C24.6507,55.9574 25.0727,55.6504 25.2927,55.2084 L28.9177,47.8644 L32.5397,55.2074 C32.7587,55.6494 33.1807,55.9564 33.6697,56.0274 L41.7727,57.2044 L35.9087,62.9244 Z M43.2557,54.3894 L34.8797,53.1734 L31.1357,45.5824 C30.7127,44.7304 29.8617,44.2024 28.9147,44.2024 L28.9057,44.2024 C27.9587,44.2054 27.1107,44.7374 26.6927,45.5904 L22.9497,53.1734 L14.5807,54.3884 C13.6377,54.5234 12.8697,55.1674 12.5747,56.0734 C12.2807,56.9774 12.5227,57.9514 13.2027,58.6094 L19.2627,64.5214 L17.8257,72.8964 C17.6677,73.8234 18.0377,74.7474 18.7947,75.3064 C19.2307,75.6294 19.7457,75.7944 20.2647,75.7944 C20.6447,75.7944 21.0287,75.7054 21.3867,75.5254 L29.0907,71.6224 L36.3977,75.4654 C37.2377,75.9114 38.2387,75.8424 39.0107,75.2844 C39.7807,74.7264 40.1617,73.7974 40.0017,72.8574 L38.5687,64.5194 L44.6297,58.6074 C45.3097,57.9444 45.5497,56.9704 45.2547,56.0674 C44.9587,55.1664 44.1907,54.5224 43.2557,54.3894 Z" id="Fill-59"></path>
        </g>
    </g>
</svg>