<?xml version="1.0" encoding="UTF-8"?>
<svg width="87px" height="104px" viewBox="0 0 87 104" version="1.1" xmlns="http://www.w3.org/2000/svg" xmlns:xlink="http://www.w3.org/1999/xlink">
    <!-- Generator: Sketch 48.2 (47327) - http://www.bohemiancoding.com/sketch -->
    <title>Group</title>
    <desc>Created with Sketch.</desc>
    <defs></defs>
    <g id="Desktop-HD" stroke="none" stroke-width="1" fill="none" fill-rule="evenodd" transform="translate(-529.000000, -270.000000)">
        <g id="Group" transform="translate(528.000000, 270.000000)" fill="#1F0738">
            <path d="M52.4927,29.0469 C40.6537,29.0469 31.0217,38.6789 31.0217,50.5179 C31.0217,62.3569 40.6537,71.9889 52.4927,71.9889 C64.3327,71.9889 73.9647,62.3569 73.9647,50.5179 C73.9647,38.6789 64.3327,29.0469 52.4927,29.0469 M52.4927,74.8339 C39.0857,74.8339 28.1767,63.9259 28.1767,50.5179 C28.1767,37.1099 39.0857,26.2009 52.4927,26.2009 C65.9007,26.2009 76.8087,37.1099 76.8087,50.5179 C76.8087,63.9259 65.9007,74.8339 52.4927,74.8339" id="Fill-20"></path>
            <path d="M82.648,83.7813 C82.27,83.7813 81.894,83.6323 81.614,83.3353 L67.236,68.1183 C66.696,67.5483 66.722,66.6473 67.293,66.1073 C67.864,65.5683 68.764,65.5943 69.304,66.1643 L83.682,81.3813 C84.222,81.9523 84.196,82.8533 83.626,83.3923 C83.35,83.6523 82.999,83.7813 82.648,83.7813" id="Fill-21"></path>
            <path d="M79.8306,36.9576 L69.8036,36.9576 C69.0176,36.9576 68.3806,36.3206 68.3806,35.5346 C68.3806,34.7496 69.0176,34.1126 69.8036,34.1126 L78.4076,34.1126 L78.4076,15.2616 C78.4076,14.4766 79.0456,13.8396 79.8306,13.8396 C80.6166,13.8396 81.2536,14.4766 81.2536,15.2616 L81.2536,35.5346 C81.2536,36.3206 80.6166,36.9576 79.8306,36.9576" id="Fill-22"></path>
            <path d="M86.5777,43.1607 L73.6407,43.1607 C72.8557,43.1607 72.2187,42.5237 72.2187,41.7377 C72.2187,40.9527 72.8557,40.3147 73.6407,40.3147 L85.1547,40.3147 L85.1547,20.0557 C85.1547,19.2697 85.7917,18.6327 86.5777,18.6327 C87.3627,18.6327 87.9997,19.2697 87.9997,20.0557 L87.9997,41.7377 C87.9997,42.5237 87.3627,43.1607 86.5777,43.1607" id="Fill-23"></path>
            <path d="M29.5992,51.314 L2.4222,51.314 C1.6372,51.314 0.9992,50.677 0.9992,49.891 C0.9992,49.106 1.6372,48.468 2.4222,48.468 L29.5992,48.468 C30.3852,48.468 31.0222,49.106 31.0222,49.891 C31.0222,50.677 30.3852,51.314 29.5992,51.314" id="Fill-24"></path>
            <path d="M29.7867,45.5752 L20.8877,45.5752 C20.4737,45.5752 20.0807,45.3952 19.8097,45.0822 L14.9497,39.4532 L2.4227,39.4532 C1.6377,39.4532 0.9997,38.8162 0.9997,38.0302 C0.9997,37.2442 1.6377,36.6082 2.4227,36.6082 L15.6007,36.6082 C16.0157,36.6082 16.4077,36.7872 16.6787,37.1002 L21.5387,42.7302 L29.7867,42.7302 C30.5727,42.7302 31.2097,43.3672 31.2097,44.1522 C31.2097,44.9382 30.5727,45.5752 29.7867,45.5752" id="Fill-25"></path>
            <path d="M15.6011,63.1578 L2.4221,63.1578 C1.6371,63.1578 0.9991,62.5208 0.9991,61.7358 C0.9991,60.9498 1.6371,60.3128 2.4221,60.3128 L14.9501,60.3128 L19.8101,54.6838 C20.0801,54.3708 20.4731,54.1908 20.8871,54.1908 L29.7871,54.1908 C30.5731,54.1908 31.2091,54.8278 31.2091,55.6138 C31.2091,56.3988 30.5731,57.0358 29.7871,57.0358 L21.5381,57.0358 L16.6781,62.6648 C16.4081,62.9778 16.0151,63.1578 15.6011,63.1578" id="Fill-26"></path>
            <path d="M45.0328,103.8228 C44.2478,103.8228 43.6098,103.1858 43.6098,102.4008 L43.6098,79.4168 C42.1168,78.8438 39.1448,77.6258 36.6378,76.1188 C31.3098,72.8078 27.2148,68.0308 24.7728,62.2928 C24.4658,61.5698 24.8028,60.7338 25.5258,60.4268 C26.2508,60.1178 27.0848,60.4558 27.3918,61.1788 C29.6018,66.3748 33.3118,70.7018 38.1218,73.6908 C41.2918,75.5948 45.4628,77.0708 45.5048,77.0848 C46.0738,77.2848 46.4558,77.8228 46.4558,78.4268 L46.4558,102.4008 C46.4558,103.1858 45.8188,103.8228 45.0328,103.8228" id="Fill-27"></path>
            <path d="M52.4693,80.6167 C51.6833,80.6167 51.0463,79.9797 51.0463,79.1937 C51.0463,78.4087 51.6833,77.7707 52.4693,77.7707 C55.7133,77.7707 59.5343,76.8637 59.5733,76.8537 C62.5303,76.0657 65.3443,74.7687 67.9063,73.0107 C68.5543,72.5667 69.4403,72.7307 69.8843,73.3787 C70.3283,74.0257 70.1633,74.9117 69.5163,75.3567 C66.6873,77.2987 63.5763,78.7307 60.2723,79.6127 C60.0693,79.6617 56.0573,80.6167 52.4693,80.6167" id="Fill-28"></path>
            <path d="M76.0064,68.3765 C75.7254,68.3765 75.4404,68.2935 75.1924,68.1195 C74.5484,67.6685 74.3914,66.7815 74.8424,66.1375 C77.3314,62.5825 78.9484,58.4345 79.5194,54.1415 C79.8344,50.0035 79.1944,46.8405 79.1884,46.8095 C79.0294,46.0405 79.5244,45.2875 80.2924,45.1275 C81.0594,44.9705 81.8144,45.4605 81.9744,46.2295 C82.0044,46.3735 82.7084,49.8155 82.3534,54.3985 C82.3514,54.4235 82.3484,54.4485 82.3454,54.4745 C81.7204,59.2325 79.9314,63.8305 77.1734,67.7695 C76.8974,68.1655 76.4554,68.3765 76.0064,68.3765" id="Fill-29"></path>
            <path d="M26.4703,39.8501 C26.2693,39.8501 26.0653,39.8071 25.8703,39.7161 C25.1583,39.3851 24.8503,38.5381 25.1813,37.8271 C30.1063,27.2461 40.8263,20.4081 52.4923,20.4081 C60.7803,20.4081 68.7853,23.8761 74.4563,29.9221 C74.9943,30.4951 74.9653,31.3951 74.3933,31.9331 C73.8203,32.4711 72.9183,32.4421 72.3823,31.8691 C67.1703,26.3131 60.1073,23.2541 52.4923,23.2541 C41.9293,23.2541 32.2213,29.4451 27.7613,39.0271 C27.5203,39.5451 27.0063,39.8501 26.4703,39.8501" id="Fill-30"></path>
            <path d="M52.4693,103.8228 C51.6833,103.8228 51.0463,103.1858 51.0463,102.4008 L51.0463,79.1938 C51.0463,78.4078 51.6833,77.7708 52.4693,77.7708 C53.2543,77.7708 53.8923,78.4078 53.8923,79.1938 L53.8923,102.4008 C53.8923,103.1858 53.2543,103.8228 52.4693,103.8228" id="Fill-31"></path>
            <path d="M54.8208,59.8257 C54.2468,59.8257 53.7058,59.4757 53.4898,58.9067 L47.7688,43.7917 L41.8378,58.9217 C41.5498,59.6537 40.7248,60.0147 39.9938,59.7267 C39.2618,59.4407 38.9018,58.6147 39.1878,57.8837 L46.4668,39.3147 C46.6818,38.7677 47.1858,38.4217 47.7998,38.4117 C48.3888,38.4147 48.9148,38.7807 49.1228,39.3307 L56.1518,57.8987 C56.4288,58.6347 56.0588,59.4547 55.3248,59.7337 C55.1588,59.7957 54.9878,59.8257 54.8208,59.8257" id="Fill-32"></path>
            <path d="M52.4068,53.4468 L43.8008,53.4468 C43.0148,53.4468 42.3788,52.8098 42.3788,52.0238 C42.3788,51.2388 43.0148,50.6018 43.8008,50.6018 L52.4068,50.6018 C53.1918,50.6018 53.8288,51.2388 53.8288,52.0238 C53.8288,52.8098 53.1918,53.4468 52.4068,53.4468" id="Fill-33"></path>
            <path d="M60.5113,59.8257 C59.7253,59.8257 59.0883,59.1887 59.0883,58.4027 L59.0883,39.3437 C59.0883,38.5577 59.7253,37.9207 60.5113,37.9207 C61.2973,37.9207 61.9343,38.5577 61.9343,39.3437 L61.9343,58.4027 C61.9343,59.1887 61.2973,59.8257 60.5113,59.8257" id="Fill-34"></path>
            <path d="M28.8033,2.8448 C26.9753,2.8448 25.4883,4.3328 25.4883,6.1608 C25.4883,7.9898 26.9753,9.4768 28.8033,9.4768 C30.6323,9.4768 32.1193,7.9898 32.1193,6.1608 C32.1193,4.3328 30.6323,2.8448 28.8033,2.8448 M28.8033,12.3228 C25.4073,12.3228 22.6423,9.5578 22.6423,6.1608 C22.6423,2.7628 25.4073,-0.0002 28.8033,-0.0002 C32.2003,-0.0002 34.9653,2.7628 34.9653,6.1608 C34.9653,9.5578 32.2003,12.3228 28.8033,12.3228" id="Fill-35"></path>
            <path d="M42.771,24.5533 C41.985,24.5533 41.348,23.9163 41.348,23.1303 L41.348,7.5833 L33.542,7.5833 C32.756,7.5833 32.12,6.9463 32.12,6.1603 C32.12,5.3753 32.756,4.7383 33.542,4.7383 L42.771,4.7383 C43.556,4.7383 44.193,5.3753 44.193,6.1603 L44.193,23.1303 C44.193,23.9163 43.556,24.5533 42.771,24.5533" id="Fill-36"></path>
        </g>
    </g>
</svg>