<?xml version="1.0" encoding="UTF-8"?>
<svg width="82px" height="62px" viewBox="0 0 82 62" version="1.1" xmlns="http://www.w3.org/2000/svg" xmlns:xlink="http://www.w3.org/1999/xlink">
    <!-- Generator: Sketch 48.2 (47327) - http://www.bohemiancoding.com/sketch -->
    <title>Group 8</title>
    <desc>Created with Sketch.</desc>
    <defs></defs>
    <g id="Desktop-HD" stroke="none" stroke-width="1" fill="none" fill-rule="evenodd" transform="translate(-882.000000, -628.000000)">
        <g id="Group-8" transform="translate(882.000000, 628.000000)" fill="#1F0738">
            <path d="M12.2779,59.7847 C8.9639,58.3287 6.3939,56.2687 4.4549,53.5137 C-0.0391,47.1297 -0.9701,40.2157 2.2349,33.0667 C5.4909,25.8057 11.3169,21.8467 19.2539,21.1067 C20.3279,21.0077 20.5669,20.5767 20.6529,19.5947 C21.4949,10.0587 28.4749,2.4777 37.6389,1.0867 C38.1169,1.0137 38.6029,1.0057 39.4359,0.9387 C30.3249,20.6807 21.3519,40.1227 12.2779,59.7847" id="Fill-37"></path>
            <path d="M49.0269,2.3101 C48.6349,3.2421 48.4189,3.8031 48.1669,4.3491 C39.6219,22.8851 31.0609,41.4141 22.5539,59.9681 C21.9559,61.2741 21.2659,61.9231 19.8019,61.6481 C17.7689,61.2651 15.7239,60.9491 13.4349,60.5621 C13.7689,59.7021 13.9369,59.1921 14.1609,58.7071 C22.7959,39.9871 31.4529,21.2781 40.0389,2.5361 C40.6959,1.0991 41.5099,0.5931 42.9589,0.9201 C44.9199,1.3631 46.8779,1.8171 49.0269,2.3101" id="Fill-38"></path>
            <path d="M23.6958,61.6949 C32.7618,42.0329 41.6388,22.7779 50.5808,3.3849 C52.8618,4.5809 54.7148,5.9899 56.0948,7.9039 C56.3838,8.3049 56.1898,9.2559 55.9308,9.8219 C52.1838,18.0409 48.3858,26.2359 44.6028,34.4389 C40.6488,43.0119 36.6758,51.5779 32.7698,60.1729 C32.2468,61.3229 31.5918,61.7749 30.3378,61.7199 C28.2598,61.6289 26.1758,61.6949 23.6958,61.6949" id="Fill-39"></path>
            <path d="M34.6128,61.6949 C42.5158,44.5489 50.2528,27.7659 57.9888,10.9829 C58.1428,10.9969 58.2988,11.0089 58.4538,11.0229 C60.0558,14.9329 62.2018,18.7059 60.0828,23.2569 C54.3778,35.5119 48.7328,47.7969 43.1208,60.0939 C42.5718,61.2959 41.9248,61.7989 40.5958,61.7219 C38.7368,61.6149 36.8668,61.6949 34.6128,61.6949" id="Fill-40"></path>
            <path d="M45.6284,61.6949 C45.9764,60.8229 46.1564,60.3039 46.3854,59.8069 C52.0454,47.5239 57.7334,35.2529 63.3424,22.9459 C63.9654,21.5789 64.6674,21.1759 66.0274,21.6989 C67.3924,22.2229 68.7814,22.6799 70.3084,23.2179 C69.9834,24.0029 69.7744,24.5609 69.5254,25.1019 C64.1674,36.7379 58.7864,48.3639 53.4714,60.0199 C52.9024,61.2659 52.2404,61.8339 50.8354,61.7239 C49.2214,61.5989 47.5894,61.6949 45.6284,61.6949" id="Fill-41"></path>
            <path d="M73.3335,24.9947 C74.8365,26.6487 76.0765,27.9197 77.1805,29.2987 C77.4355,29.6167 77.3965,30.3877 77.2005,30.8157 C72.6585,40.7547 68.0845,50.6787 63.4785,60.5877 C63.2745,61.0257 62.7395,61.5797 62.3295,61.6047 C60.5105,61.7157 58.6795,61.6527 56.4415,61.6527 C62.0855,49.4057 67.5985,37.4407 73.3335,24.9947" id="Fill-42"></path>
            <path d="M68.2056,59.7662 C72.0456,51.4492 75.8846,43.1312 79.7246,34.8142 C82.0006,40.5302 81.5406,45.9742 78.6566,51.1942 C76.3246,55.4152 72.9066,58.4112 68.4986,60.2032 C68.4006,60.0582 68.3036,59.9122 68.2056,59.7662" id="Fill-43"></path>
        </g>
    </g>
</svg>