<?xml version="1.0" encoding="UTF-8"?>
<svg width="85px" height="85px" viewBox="0 0 85 85" version="1.1" xmlns="http://www.w3.org/2000/svg" xmlns:xlink="http://www.w3.org/1999/xlink">
    <!-- Generator: Sketch 48.2 (47327) - http://www.bohemiancoding.com/sketch -->
    <title>Group 6</title>
    <desc>Created with Sketch.</desc>
    <defs></defs>
    <g id="Desktop-HD" stroke="none" stroke-width="1" fill="none" fill-rule="evenodd" transform="translate(-532.000000, -615.000000)">
        <g id="Group-6" transform="translate(532.000000, 615.000000)" fill="#1F0738">
            <path d="M22.6421,35.8023 C22.6421,39.6553 19.5191,42.7783 15.6661,42.7783 C11.8141,42.7783 8.6901,39.6553 8.6901,35.8023 C8.6901,31.9493 11.8141,28.8263 15.6661,28.8263 C19.5191,28.8263 22.6421,31.9493 22.6421,35.8023" id="Fill-48"></path>
            <path d="M24.5123,42.4468 C24.5123,43.8538 23.3713,44.9958 21.9643,44.9958 C20.5573,44.9958 19.4153,43.8538 19.4153,42.4468 C19.4153,41.0398 20.5573,39.8988 21.9643,39.8988 C23.3713,39.8988 24.5123,41.0398 24.5123,42.4468" id="Fill-49"></path>
            <path d="M29.1197,42.2798 C32.9727,42.2798 36.0957,45.4028 36.0957,49.2558 C36.0957,53.1078 32.9727,56.2308 29.1197,56.2308 C25.2667,56.2308 22.1427,53.1078 22.1427,49.2558 C22.1427,45.4028 25.2667,42.2798 29.1197,42.2798" id="Fill-50"></path>
            <path d="M35.7642,40.4087 C37.1712,40.4087 38.3132,41.5497 38.3132,42.9577 C38.3132,44.3647 37.1712,45.5057 35.7642,45.5057 C34.3572,45.5057 33.2152,44.3647 33.2152,42.9577 C33.2152,41.5497 34.3572,40.4087 35.7642,40.4087" id="Fill-51"></path>
            <path d="M49.3091,35.8023 C49.3091,39.6553 46.1861,42.7783 42.3331,42.7783 C38.4811,42.7783 35.3581,39.6553 35.3581,35.8023 C35.3581,31.9493 38.4811,28.8263 42.3331,28.8263 C46.1861,28.8263 49.3091,31.9493 49.3091,35.8023" id="Fill-52"></path>
            <path d="M76.1353,35.8023 C76.1353,39.6553 73.0123,42.7783 69.1593,42.7783 C65.3073,42.7783 62.1843,39.6553 62.1843,35.8023 C62.1843,31.9493 65.3073,28.8263 69.1593,28.8263 C73.0123,28.8263 76.1353,31.9493 76.1353,35.8023" id="Fill-53"></path>
            <path d="M51.1802,42.4468 C51.1802,43.8538 50.0382,44.9958 48.6312,44.9958 C47.2242,44.9958 46.0822,43.8538 46.0822,42.4468 C46.0822,41.0398 47.2242,39.8988 48.6312,39.8988 C50.0382,39.8988 51.1802,41.0398 51.1802,42.4468" id="Fill-54"></path>
            <path d="M55.7867,42.2798 C59.6397,42.2798 62.7627,45.4028 62.7627,49.2558 C62.7627,53.1078 59.6397,56.2308 55.7867,56.2308 C51.9337,56.2308 48.8107,53.1078 48.8107,49.2558 C48.8107,45.4028 51.9337,42.2798 55.7867,42.2798" id="Fill-55"></path>
            <path d="M62.4312,40.4087 C63.8382,40.4087 64.9802,41.5497 64.9802,42.9577 C64.9802,44.3647 63.8382,45.5057 62.4312,45.5057 C61.0242,45.5057 59.8822,44.3647 59.8822,42.9577 C59.8822,41.5497 61.0242,40.4087 62.4312,40.4087" id="Fill-56"></path>
            <path d="M42.3287,0.6724 C19.2137,0.6724 0.4747,19.4114 0.4747,42.5264 C0.4747,65.6424 19.2137,84.3814 42.3287,84.3814 C65.4437,84.3814 84.1827,65.6424 84.1827,42.5264 C84.1827,19.4114 65.4437,0.6724 42.3287,0.6724 M42.3287,3.2234 C47.6357,3.2234 52.7817,4.2624 57.6267,6.3124 C62.3077,8.2914 66.5107,11.1254 70.1207,14.7354 C73.7297,18.3454 76.5637,22.5484 78.5437,27.2294 C80.5937,32.0734 81.6327,37.2204 81.6327,42.5264 C81.6327,47.8334 80.5937,52.9804 78.5437,57.8244 C76.5637,62.5054 73.7297,66.7084 70.1207,70.3184 C66.5107,73.9284 62.3077,76.7624 57.6267,78.7414 C52.7817,80.7904 47.6357,81.8294 42.3287,81.8294 C37.0217,81.8294 31.8757,80.7904 27.0307,78.7414 C22.3497,76.7624 18.1467,73.9284 14.5377,70.3184 C10.9277,66.7084 8.0937,62.5054 6.1137,57.8244 C4.0647,52.9804 3.0257,47.8334 3.0257,42.5264 C3.0257,37.2204 4.0647,32.0734 6.1137,27.2294 C8.0937,22.5484 10.9277,18.3454 14.5377,14.7354 C18.1467,11.1254 22.3497,8.2914 27.0307,6.3124 C31.8757,4.2624 37.0217,3.2234 42.3287,3.2234" id="Fill-57"></path>
        </g>
    </g>
</svg>