<svg xmlns="http://www.w3.org/2000/svg" width="174" height="174"><path fill="#FFF" d="M16.223 113.434l6.641 19.899 38.383 20.953 81.349-11.478 8.855-15.507-8.855-91.063-52.769-23.92-35.105 14.8-38.499 86.316z"/><path fill="#4D3C5F" d="M65.6 116.95c-1.754-1.03-3.675-.999-5.363.13-1.92 1.224-1.787 3.19-1.688 5.124h8.906c.098-2.03.231-4.06-1.855-5.254zm19.499 0c-1.754-1.03-3.675-.999-5.363.13-1.92 1.224-1.787 3.19-1.688 5.124h8.906c.098-2.03.231-4.06-1.855-5.254z"/><path fill="#4D3C5F" d="M85 0c46.936 0 85 38.056 85 85.016C170 131.943 131.936 170 85 170S0 131.943 0 85.016C0 38.056 38.064 0 85 0zm10.159 48.245c-.16 1.511.257 2.957.675 4.372 1.125 3.76 2.861 7.296 4.533 10.864 1.51 3.214 3.021 6.396 4.5 9.61.933 1.993 1.48 4.082 1.063 6.3-.322 1.64-.772 3.214-1.158 4.822-.16.61-.354 1.22-.482 1.67 0 .612.225.74.579.547.289-.16.61-.321.868-.546 2.99-2.443 5.529-5.304 7.554-8.614.933-1.479 1.126-3.054.708-4.757-.708-3.054-1.896-5.882-3.215-8.71-1.801-3.922-3.633-7.843-5.563-11.7-1.51-3.022-2.281-6.172-1.959-9.579.127-1.286.319-2.54.449-3.825v-.16c0-.611-.193-.676-.58-.547a5.605 5.605 0 0 0-.867.514 23.963 23.963 0 0 0-5.369 5.593c-.868 1.254-1.575 2.604-1.736 4.146zM72.88 44.453c-.193 1.928.322 3.76.836 5.657 1.447 4.789 3.633 9.289 5.754 13.789 1.93 4.05 3.826 8.1 5.723 12.182 1.157 2.507 1.864 5.174 1.35 7.97-.386 2.058-.932 4.083-1.447 6.108-.192.771-.45 1.543-.61 2.121-.033.771.257.932.707.707.418-.225.804-.418 1.125-.707a44 44 0 0 0 9.581-10.96c1.189-1.897 1.414-3.89.899-6.043-.899-3.857-2.409-7.49-4.082-11.057a521.048 521.048 0 0 0-7.073-14.85c-1.929-3.889-2.926-7.874-2.508-12.181.129-1.608.386-3.247.547-4.854 0-.032.032-.16.032-.193.032-.771-.225-.868-.707-.707-.257.096-.9.482-1.093.643a31.078 31.078 0 0 0-6.816 7.103c-1.093 1.607-2.025 3.279-2.218 5.272zm-39.992 89.193c3.247-.643 5.272-3.695 4.533-6.75-.45-1.734-1.608-2.859-3.151-3.566-1.35-.643-2.797-1.158-4.18-1.768-1.35-.611-1.96-1.672-1.767-2.99.16-1.124 1.028-1.928 2.443-2.153 1.575-.257 3.086.063 4.533.644.932.353 1.671.16 1.929-.547.257-.74-.097-1.447-1.03-1.735-1.124-.45-3.535-.868-4.178-.868-1.35.031-2.669.257-3.858.964-3.15 1.832-3.408 6.46-.322 8.421.547.354 1.126.643 1.704.9 1.19.547 2.411 1.029 3.6 1.574.965.451 1.64 1.125 1.801 2.219.257 1.929-.964 3.279-3.054 3.406-1.543.065-2.958-.353-4.34-.932-.836-.32-1.479-.064-1.768.61-.29.644-.032 1.286.707 1.64 2.026.931 4.18 1.349 6.398.931zm13.084-4.595c-.032-.225-.032-.449-.032-.707V117.48c0-.226.032-.45.064-.707h1.35c.997-.033 1.994 0 2.99-.033.707-.032 1.19-.514 1.222-1.157a1.251 1.251 0 0 0-1.061-1.285c-.257-.032-.514-.032-.772-.032H45.94v-1.061c0-1.864.032-3.697 0-5.529 0-.9-.579-1.445-1.35-1.414-.74.032-1.222.579-1.254 1.414v20.667c0 .548.064 1.126.193 1.64.803 3.054 4.468 4.791 7.297 3.472.547-.257.804-.739.708-1.351-.129-.674-.579-.996-1.254-.996-.643 0-1.318.097-1.993.097-1.286-.001-2.186-.868-2.315-2.154zm23.822-6.363c0-.644 0-1.287-.032-1.897-.097-4.05-2.765-6.75-6.784-6.847-3.76-.096-6.783 2.314-7.008 5.883-.193 2.699-.16 5.432 0 8.132.16 2.41 1.479 4.243 3.761 5.175 2.958 1.221 5.82.676 8.616-.643.611-.29.836-1.028.547-1.575-.29-.578-.804-.836-1.447-.675-.29.064-.579.225-.9.322-.9.256-1.8.609-2.7.738-3.248.514-5.305-1.285-5.37-4.564v-2.057h9.292c1.318 0 1.993-.675 2.025-1.992zm4.18-45.547c.9-1.51 1.092-3.053.706-4.789-.707-3.053-1.896-5.882-3.214-8.71-1.8-3.922-3.633-7.843-5.562-11.7-1.511-3.022-2.283-6.172-1.961-9.579.128-1.285.321-2.539.45-3.825v-.16c0-.61-.193-.675-.579-.547a5.62 5.62 0 0 0-.868.515 23.975 23.975 0 0 0-5.368 5.592c-.868 1.254-1.576 2.604-1.736 4.147-.161 1.51.225 2.989.675 4.403 1.125 3.76 2.86 7.296 4.533 10.864 1.51 3.214 3.021 6.397 4.5 9.61.933 1.994 1.48 4.083 1.061 6.3-.321 1.64-.771 3.215-1.157 4.822-.16.61-.354 1.221-.482 1.671 0 .611.225.74.578.547.29-.161.611-.322.868-.547 2.99-2.442 5.53-5.303 7.556-8.614zm15.172 45.578c.033-.932.033-1.863-.063-2.859-.321-3.504-2.958-5.883-6.59-5.98-3.73-.096-6.72 2.026-7.041 5.53-.29 2.956-.193 5.946 0 8.903.16 2.088 1.414 3.728 3.343 4.627 3.054 1.446 6.076.9 9.002-.514.61-.29.74-.9.482-1.51-.258-.611-.804-.837-1.447-.708-.289.063-.578.226-.9.321-.868.258-1.736.578-2.604.74-2.86.481-4.95-.836-5.368-3.407-.161-.997-.033-2.058-.033-3.183h9.163c1.349.001 2.025-.642 2.056-1.96zm29.738 9.45v-11.7c0-2.379-1.093-4.21-3.054-5.496-2.025-1.317-4.211-1.254-6.396-.515-.869.29-1.672.772-2.541 1.157-1.254-1.157-2.765-1.672-4.469-1.672-2.025 0-3.953.387-5.818 1.094-.836.32-1.222.932-1.222 1.8v15.429c0 .932.515 1.543 1.286 1.543s1.286-.61 1.318-1.543v-15.107c1.318-.547 3.535-.9 4.789-.771 2.154.193 3.119 1.221 3.119 3.407v12.343c0 .32 0 .707.16.996.258.514.772.771 1.383.61.676-.224.933-.707.933-1.414v-13.403c0-1.478.032-1.51 1.414-2.09 4.019-1.638 6.72.837 6.526 4.244-.192 3.664-.033 7.359-.033 11.023 0 1.029.516 1.641 1.287 1.672.804.033 1.318-.61 1.318-1.607zm9.805-8.26c0-1.897 0-3.826-.032-5.819 0-.932.032-1.863 0-2.796-.032-.836-.515-1.382-1.253-1.414-.74-.032-1.286.546-1.35 1.414v16.649c0 .258 0 .515.063.771.159.643.61.996 1.253 1.029.611.031 1.189-.45 1.286-1.094.065-.256.032-.514.032-.771v-7.969zm-1.285-14.143c.932 0 1.703-.771 1.703-1.768 0-.965-.739-1.704-1.703-1.704-.965 0-1.704.772-1.704 1.736s.771 1.736 1.704 1.736zm11.284 18.547v-10.864c0-.193.033-.386.064-.644h.9c1.125 0 2.25.032 3.343 0 .997-.031 1.575-.804 1.286-1.64-.225-.642-.739-.867-1.383-.867h-4.211v-1.028c0-1.864.033-3.729 0-5.594 0-.835-.547-1.382-1.285-1.382-.709 0-1.223.515-1.318 1.286v20.57c0 .547.032 1.062.128 1.576.45 2.25 2.187 3.856 4.47 4.018.867.064 1.735-.064 2.604-.193.707-.097 1.093-.707.996-1.414-.064-.611-.578-1.029-1.286-1.029-.707 0-1.382.13-2.091.097a2.172 2.172 0 0 1-2.057-1.606c-.127-.419-.16-.87-.16-1.286z"/></svg>