<svg width="128" height="128" xmlns="http://www.w3.org/2000/svg"><g fill="none"><circle fill="#1F0738" cx="64" cy="64" r="64"/><path d="M99.84 41.77a29.377 29.377 0 0 1-8.446 2.315 14.755 14.755 0 0 0 6.465-8.136 29.434 29.434 0 0 1-9.337 3.569 14.686 14.686 0 0 0-10.735-4.644c-8.123 0-14.706 6.584-14.706 14.705 0 1.153.13 2.276.38 3.352-12.222-.614-23.058-6.468-30.31-15.365a14.632 14.632 0 0 0-1.992 7.393 14.7 14.7 0 0 0 6.542 12.24 14.636 14.636 0 0 1-6.66-1.84c-.002.062-.002.123-.002.186 0 7.125 5.07 13.068 11.797 14.42a14.734 14.734 0 0 1-6.642.252c1.872 5.842 7.303 10.094 13.738 10.212a29.502 29.502 0 0 1-18.265 6.296c-1.187 0-2.357-.07-3.507-.206a41.62 41.62 0 0 0 22.543 6.607c27.05 0 41.842-22.408 41.842-41.842 0-.637-.015-1.271-.043-1.902a29.865 29.865 0 0 0 7.338-7.612z" fill="#FFF"/></g></svg>