<svg width="104" height="17" xmlns="http://www.w3.org/2000/svg"><g fill="none" fill-rule="evenodd"><path d="M103.426 2.346C88.419 11 71.02 15.946 52.472 15.946c-18.366 0-35.601-4.849-50.505-13.341" stroke="#FF2C8B" stroke-width="1.165"/><path d="M9.27 1.467l-7.17.076a.987.987 0 0 0-.85.508.988.988 0 0 0 .01.994l3.65 6.19a.989.989 0 0 0 1.716-.018l3.516-6.268a.993.993 0 0 0-.873-1.482" fill="#FFF"/><path d="M9.27 1.467l-7.17.076a.987.987 0 0 0-.85.508.988.988 0 0 0 .01.994l3.65 6.19a.989.989 0 0 0 1.716-.018l3.516-6.268a.993.993 0 0 0-.873-1.482z" stroke="#FF2C8B" stroke-width="1.165"/></g></svg>