<svg width="63" height="11" xmlns="http://www.w3.org/2000/svg"><g fill="none" fill-rule="evenodd"><path d="M.375 8.376C9.495 3.42 19.948.603 31.055.603c11.03 0 21.413 2.776 30.487 7.667" stroke="#D51685" stroke-width="1.165"/><path d="M56.577 1.91l-3.5 6.109a.975.975 0 0 0 .848 1.458l7.037-.022a.974.974 0 0 0 .837-1.463l-3.537-6.086a.975.975 0 0 0-1.685.005" fill="#FFF"/><path d="M56.577 1.91l-3.5 6.109a.975.975 0 0 0 .848 1.458l7.037-.022a.974.974 0 0 0 .837-1.463l-3.537-6.086a.975.975 0 0 0-1.685.005z" stroke="#D51685" stroke-width="1.165"/></g></svg>