<svg width="83" height="79" xmlns="http://www.w3.org/2000/svg" xmlns:xlink="http://www.w3.org/1999/xlink"><defs><path d="M31.795.795a22.012 22.012 0 0 0-19.07 11.043L3.057 28.63a22.138 22.138 0 0 0 0 22.083l9.666 16.794a22.012 22.012 0 0 0 19.07 11.043H51.13c7.867 0 15.136-4.21 19.068-11.043l9.67-16.794a22.138 22.138 0 0 0 0-22.083l-9.67-16.793A22.005 22.005 0 0 0 51.131.795" id="a"/><path d="M31.795.795a22.012 22.012 0 0 0-19.07 11.043L3.057 28.63a22.138 22.138 0 0 0 0 22.083l9.666 16.794a22.012 22.012 0 0 0 19.07 11.043H51.13c7.867 0 15.136-4.21 19.068-11.043l9.67-16.794a22.138 22.138 0 0 0 0-22.083l-9.67-16.793A22.005 22.005 0 0 0 51.131.795" id="c"/><path d="M31.795.795a22.012 22.012 0 0 0-19.07 11.043L3.057 28.63a22.138 22.138 0 0 0 0 22.083l9.666 16.794a22.012 22.012 0 0 0 19.07 11.043H51.13c7.867 0 15.136-4.21 19.068-11.043l9.67-16.794a22.138 22.138 0 0 0 0-22.083l-9.67-16.793A22.005 22.005 0 0 0 51.131.795" id="e"/><path d="M31.795.795a22.012 22.012 0 0 0-19.07 11.043L3.057 28.63a22.138 22.138 0 0 0 0 22.083l9.666 16.794a22.012 22.012 0 0 0 19.07 11.043H51.13c7.867 0 15.136-4.21 19.068-11.043l9.67-16.794a22.138 22.138 0 0 0 0-22.083l-9.67-16.793A22.005 22.005 0 0 0 51.131.795" id="g"/><path d="M31.795.795a22.012 22.012 0 0 0-19.07 11.043L3.057 28.63a22.138 22.138 0 0 0 0 22.083l9.666 16.794a22.012 22.012 0 0 0 19.07 11.043H51.13c7.867 0 15.136-4.21 19.068-11.043l9.67-16.794a22.138 22.138 0 0 0 0-22.083l-9.67-16.793A22.005 22.005 0 0 0 51.131.795" id="i"/><path d="M31.795.795a22.012 22.012 0 0 0-19.07 11.043L3.057 28.63a22.138 22.138 0 0 0 0 22.083l9.666 16.794a22.012 22.012 0 0 0 19.07 11.043H51.13c7.867 0 15.136-4.21 19.068-11.043l9.67-16.794a22.138 22.138 0 0 0 0-22.083l-9.67-16.793A22.005 22.005 0 0 0 51.131.795" id="k"/><path d="M31.795.795a22.012 22.012 0 0 0-19.07 11.043L3.057 28.63a22.138 22.138 0 0 0 0 22.083l9.666 16.794a22.012 22.012 0 0 0 19.07 11.043H51.13c7.867 0 15.136-4.21 19.068-11.043l9.67-16.794a22.138 22.138 0 0 0 0-22.083l-9.67-16.793A22.005 22.005 0 0 0 51.131.795" id="m"/><path d="M31.795.795a22.012 22.012 0 0 0-19.07 11.043L3.057 28.63a22.138 22.138 0 0 0 0 22.083l9.666 16.794a22.012 22.012 0 0 0 19.07 11.043H51.13c7.867 0 15.136-4.21 19.068-11.043l9.67-16.794a22.138 22.138 0 0 0 0-22.083l-9.67-16.793A22.005 22.005 0 0 0 51.131.795" id="o"/><path d="M31.795.795a22.012 22.012 0 0 0-19.07 11.043L3.057 28.63a22.138 22.138 0 0 0 0 22.083l9.666 16.794a22.012 22.012 0 0 0 19.07 11.043H51.13c7.867 0 15.136-4.21 19.068-11.043l9.67-16.794a22.138 22.138 0 0 0 0-22.083l-9.67-16.793A22.005 22.005 0 0 0 51.131.795" id="q"/><path d="M31.795.795a22.012 22.012 0 0 0-19.07 11.043L3.057 28.63a22.138 22.138 0 0 0 0 22.083l9.666 16.794a22.012 22.012 0 0 0 19.07 11.043H51.13c7.867 0 15.136-4.21 19.068-11.043l9.67-16.794a22.138 22.138 0 0 0 0-22.083l-9.67-16.793A22.005 22.005 0 0 0 51.131.795" id="s"/><path d="M31.795.795a22.012 22.012 0 0 0-19.07 11.043L3.057 28.63a22.138 22.138 0 0 0 0 22.083l9.666 16.794a22.012 22.012 0 0 0 19.07 11.043H51.13c7.867 0 15.136-4.21 19.068-11.043l9.67-16.794a22.138 22.138 0 0 0 0-22.083l-9.67-16.793A22.005 22.005 0 0 0 51.131.795" id="u"/><path d="M31.795.795a22.012 22.012 0 0 0-19.07 11.043L3.057 28.63a22.138 22.138 0 0 0 0 22.083l9.666 16.794a22.012 22.012 0 0 0 19.07 11.043H51.13c7.867 0 15.136-4.21 19.068-11.043l9.67-16.794a22.138 22.138 0 0 0 0-22.083l-9.67-16.793A22.005 22.005 0 0 0 51.131.795" id="w"/><path d="M31.795.795a22.012 22.012 0 0 0-19.07 11.043L3.057 28.63a22.138 22.138 0 0 0 0 22.083l9.666 16.794a22.012 22.012 0 0 0 19.07 11.043H51.13c7.867 0 15.136-4.21 19.068-11.043l9.67-16.794a22.138 22.138 0 0 0 0-22.083l-9.67-16.793A22.005 22.005 0 0 0 51.131.795" id="y"/><path d="M31.795.795a22.012 22.012 0 0 0-19.07 11.043L3.057 28.63a22.138 22.138 0 0 0 0 22.083l9.666 16.794a22.012 22.012 0 0 0 19.07 11.043H51.13c7.867 0 15.136-4.21 19.068-11.043l9.67-16.794a22.138 22.138 0 0 0 0-22.083l-9.67-16.793A22.005 22.005 0 0 0 51.131.795" id="A"/><path d="M31.795.795a22.012 22.012 0 0 0-19.07 11.043L3.057 28.63a22.138 22.138 0 0 0 0 22.083l9.666 16.794a22.012 22.012 0 0 0 19.07 11.043H51.13c7.867 0 15.136-4.21 19.068-11.043l9.67-16.794a22.138 22.138 0 0 0 0-22.083l-9.67-16.793A22.005 22.005 0 0 0 51.131.795" id="C"/><path d="M31.795.795a22.012 22.012 0 0 0-19.07 11.043L3.057 28.63a22.138 22.138 0 0 0 0 22.083l9.666 16.794a22.012 22.012 0 0 0 19.07 11.043H51.13c7.867 0 15.136-4.21 19.068-11.043l9.67-16.794a22.138 22.138 0 0 0 0-22.083l-9.67-16.793A22.005 22.005 0 0 0 51.131.795" id="E"/><path d="M31.795.795a22.012 22.012 0 0 0-19.07 11.043L3.057 28.63a22.138 22.138 0 0 0 0 22.083l9.666 16.794a22.012 22.012 0 0 0 19.07 11.043H51.13c7.867 0 15.136-4.21 19.068-11.043l9.67-16.794a22.138 22.138 0 0 0 0-22.083l-9.67-16.793A22.005 22.005 0 0 0 51.131.795" id="G"/><path d="M31.795.795a22.012 22.012 0 0 0-19.07 11.043L3.057 28.63a22.138 22.138 0 0 0 0 22.083l9.666 16.794a22.012 22.012 0 0 0 19.07 11.043H51.13c7.867 0 15.136-4.21 19.068-11.043l9.67-16.794a22.138 22.138 0 0 0 0-22.083l-9.67-16.793A22.005 22.005 0 0 0 51.131.795" id="I"/><path d="M31.795.795a22.012 22.012 0 0 0-19.07 11.043L3.057 28.63a22.138 22.138 0 0 0 0 22.083l9.666 16.794a22.012 22.012 0 0 0 19.07 11.043H51.13c7.867 0 15.136-4.21 19.068-11.043l9.67-16.794a22.138 22.138 0 0 0 0-22.083l-9.67-16.793A22.005 22.005 0 0 0 51.131.795" id="K"/><path d="M31.795.795a22.012 22.012 0 0 0-19.07 11.043L3.057 28.63a22.138 22.138 0 0 0 0 22.083l9.666 16.794a22.012 22.012 0 0 0 19.07 11.043H51.13c7.867 0 15.136-4.21 19.068-11.043l9.67-16.794a22.138 22.138 0 0 0 0-22.083l-9.67-16.793A22.005 22.005 0 0 0 51.131.795" id="M"/><path d="M31.795.795a22.012 22.012 0 0 0-19.07 11.043L3.057 28.63a22.138 22.138 0 0 0 0 22.083l9.666 16.794a22.012 22.012 0 0 0 19.07 11.043H51.13c7.867 0 15.136-4.21 19.068-11.043l9.67-16.794a22.138 22.138 0 0 0 0-22.083l-9.67-16.793A22.005 22.005 0 0 0 51.131.795" id="O"/><path d="M31.795.795a22.012 22.012 0 0 0-19.07 11.043L3.057 28.63a22.138 22.138 0 0 0 0 22.083l9.666 16.794a22.012 22.012 0 0 0 19.07 11.043H51.13c7.867 0 15.136-4.21 19.068-11.043l9.67-16.794a22.138 22.138 0 0 0 0-22.083l-9.67-16.793A22.005 22.005 0 0 0 51.131.795" id="Q"/><path d="M31.795.795a22.012 22.012 0 0 0-19.07 11.043L3.057 28.63a22.138 22.138 0 0 0 0 22.083l9.666 16.794a22.012 22.012 0 0 0 19.07 11.043H51.13c7.867 0 15.136-4.21 19.068-11.043l9.67-16.794a22.138 22.138 0 0 0 0-22.083l-9.67-16.793A22.005 22.005 0 0 0 51.131.795" id="S"/><path d="M31.795.795a22.012 22.012 0 0 0-19.07 11.043L3.057 28.63a22.138 22.138 0 0 0 0 22.083l9.666 16.794a22.012 22.012 0 0 0 19.07 11.043H51.13c7.867 0 15.136-4.21 19.068-11.043l9.67-16.794a22.138 22.138 0 0 0 0-22.083l-9.67-16.793A22.005 22.005 0 0 0 51.131.795" id="U"/><path d="M31.795.795a22.012 22.012 0 0 0-19.07 11.043L3.057 28.63a22.138 22.138 0 0 0 0 22.083l9.666 16.794a22.012 22.012 0 0 0 19.07 11.043H51.13c7.867 0 15.136-4.21 19.068-11.043l9.67-16.794a22.138 22.138 0 0 0 0-22.083l-9.67-16.793A22.005 22.005 0 0 0 51.131.795" id="W"/><path d="M31.795.795a22.012 22.012 0 0 0-19.07 11.043L3.057 28.63a22.138 22.138 0 0 0 0 22.083l9.666 16.794a22.012 22.012 0 0 0 19.07 11.043H51.13c7.867 0 15.136-4.21 19.068-11.043l9.67-16.794a22.138 22.138 0 0 0 0-22.083l-9.67-16.793A22.005 22.005 0 0 0 51.131.795" id="Y"/><path d="M31.795.795a22.012 22.012 0 0 0-19.07 11.043L3.057 28.63a22.138 22.138 0 0 0 0 22.083l9.666 16.794a22.012 22.012 0 0 0 19.07 11.043H51.13c7.867 0 15.136-4.21 19.068-11.043l9.67-16.794a22.138 22.138 0 0 0 0-22.083l-9.67-16.793A22.005 22.005 0 0 0 51.131.795" id="aa"/><path d="M31.795.795a22.012 22.012 0 0 0-19.07 11.043L3.057 28.63a22.138 22.138 0 0 0 0 22.083l9.666 16.794a22.012 22.012 0 0 0 19.07 11.043H51.13c7.867 0 15.136-4.21 19.068-11.043l9.67-16.794a22.138 22.138 0 0 0 0-22.083l-9.67-16.793A22.005 22.005 0 0 0 51.131.795" id="ac"/><path d="M31.795.795a22.012 22.012 0 0 0-19.07 11.043L3.057 28.63a22.138 22.138 0 0 0 0 22.083l9.666 16.794a22.012 22.012 0 0 0 19.07 11.043H51.13c7.867 0 15.136-4.21 19.068-11.043l9.67-16.794a22.138 22.138 0 0 0 0-22.083l-9.67-16.793A22.005 22.005 0 0 0 51.131.795" id="ae"/><path d="M31.795.795a22.012 22.012 0 0 0-19.07 11.043L3.057 28.63a22.138 22.138 0 0 0 0 22.083l9.666 16.794a22.012 22.012 0 0 0 19.07 11.043H51.13c7.867 0 15.136-4.21 19.068-11.043l9.67-16.794a22.138 22.138 0 0 0 0-22.083l-9.67-16.793A22.005 22.005 0 0 0 51.131.795" id="ag"/><path d="M31.795.795a22.012 22.012 0 0 0-19.07 11.043L3.057 28.63a22.138 22.138 0 0 0 0 22.083l9.666 16.794a22.012 22.012 0 0 0 19.07 11.043H51.13c7.867 0 15.136-4.21 19.068-11.043l9.67-16.794a22.138 22.138 0 0 0 0-22.083l-9.67-16.793A22.005 22.005 0 0 0 51.131.795" id="ai"/><path d="M31.795.795a22.012 22.012 0 0 0-19.07 11.043L3.057 28.63a22.138 22.138 0 0 0 0 22.083l9.666 16.794a22.012 22.012 0 0 0 19.07 11.043H51.13c7.867 0 15.136-4.21 19.068-11.043l9.67-16.794a22.138 22.138 0 0 0 0-22.083l-9.67-16.793A22.005 22.005 0 0 0 51.131.795" id="ak"/><path d="M31.795.795a22.012 22.012 0 0 0-19.07 11.043L3.057 28.63a22.138 22.138 0 0 0 0 22.083l9.666 16.794a22.012 22.012 0 0 0 19.07 11.043H51.13c7.867 0 15.136-4.21 19.068-11.043l9.67-16.794a22.138 22.138 0 0 0 0-22.083l-9.67-16.793A22.005 22.005 0 0 0 51.131.795" id="am"/><path d="M31.795.795a22.012 22.012 0 0 0-19.07 11.043L3.057 28.63a22.138 22.138 0 0 0 0 22.083l9.666 16.794a22.012 22.012 0 0 0 19.07 11.043H51.13c7.867 0 15.136-4.21 19.068-11.043l9.67-16.794a22.138 22.138 0 0 0 0-22.083l-9.67-16.793A22.005 22.005 0 0 0 51.131.795" id="ao"/><path d="M31.795.795a22.012 22.012 0 0 0-19.07 11.043L3.057 28.63a22.138 22.138 0 0 0 0 22.083l9.666 16.794a22.012 22.012 0 0 0 19.07 11.043H51.13c7.867 0 15.136-4.21 19.068-11.043l9.67-16.794a22.138 22.138 0 0 0 0-22.083l-9.67-16.793A22.005 22.005 0 0 0 51.131.795" id="aq"/><path d="M31.795.795a22.012 22.012 0 0 0-19.07 11.043L3.057 28.63a22.138 22.138 0 0 0 0 22.083l9.666 16.794a22.012 22.012 0 0 0 19.07 11.043H51.13c7.867 0 15.136-4.21 19.068-11.043l9.67-16.794a22.138 22.138 0 0 0 0-22.083l-9.67-16.793A22.005 22.005 0 0 0 51.131.795" id="as"/><path d="M31.795.795a22.012 22.012 0 0 0-19.07 11.043L3.057 28.63a22.138 22.138 0 0 0 0 22.083l9.666 16.794a22.012 22.012 0 0 0 19.07 11.043H51.13c7.867 0 15.136-4.21 19.068-11.043l9.67-16.794a22.138 22.138 0 0 0 0-22.083l-9.67-16.793A22.005 22.005 0 0 0 51.131.795" id="au"/><path d="M31.795.795a22.012 22.012 0 0 0-19.07 11.043L3.057 28.63a22.138 22.138 0 0 0 0 22.083l9.666 16.794a22.012 22.012 0 0 0 19.07 11.043H51.13c7.867 0 15.136-4.21 19.068-11.043l9.67-16.794a22.138 22.138 0 0 0 0-22.083l-9.67-16.793A22.005 22.005 0 0 0 51.131.795" id="aw"/><path d="M31.795.795a22.012 22.012 0 0 0-19.07 11.043L3.057 28.63a22.138 22.138 0 0 0 0 22.083l9.666 16.794a22.012 22.012 0 0 0 19.07 11.043H51.13c7.867 0 15.136-4.21 19.068-11.043l9.67-16.794a22.138 22.138 0 0 0 0-22.083l-9.67-16.793A22.005 22.005 0 0 0 51.131.795" id="ay"/><path d="M31.795.795a22.012 22.012 0 0 0-19.07 11.043L3.057 28.63a22.138 22.138 0 0 0 0 22.083l9.666 16.794a22.012 22.012 0 0 0 19.07 11.043H51.13c7.867 0 15.136-4.21 19.068-11.043l9.67-16.794a22.138 22.138 0 0 0 0-22.083l-9.67-16.793A22.005 22.005 0 0 0 51.131.795" id="aA"/><path d="M31.795.795a22.012 22.012 0 0 0-19.07 11.043L3.057 28.63a22.138 22.138 0 0 0 0 22.083l9.666 16.794a22.012 22.012 0 0 0 19.07 11.043H51.13c7.867 0 15.136-4.21 19.068-11.043l9.67-16.794a22.138 22.138 0 0 0 0-22.083l-9.67-16.793A22.005 22.005 0 0 0 51.131.795" id="aC"/><path d="M31.795.795a22.012 22.012 0 0 0-19.07 11.043L3.057 28.63a22.138 22.138 0 0 0 0 22.083l9.666 16.794a22.012 22.012 0 0 0 19.07 11.043H51.13c7.867 0 15.136-4.21 19.068-11.043l9.67-16.794a22.138 22.138 0 0 0 0-22.083l-9.67-16.793A22.005 22.005 0 0 0 51.131.795" id="aE"/><path d="M31.795.795a22.012 22.012 0 0 0-19.07 11.043L3.057 28.63a22.138 22.138 0 0 0 0 22.083l9.666 16.794a22.012 22.012 0 0 0 19.07 11.043H51.13c7.867 0 15.136-4.21 19.068-11.043l9.67-16.794a22.138 22.138 0 0 0 0-22.083l-9.67-16.793A22.005 22.005 0 0 0 51.131.795" id="aG"/><path d="M31.795.795a22.012 22.012 0 0 0-19.07 11.043L3.057 28.63a22.138 22.138 0 0 0 0 22.083l9.666 16.794a22.012 22.012 0 0 0 19.07 11.043H51.13c7.867 0 15.136-4.21 19.068-11.043l9.67-16.794a22.138 22.138 0 0 0 0-22.083l-9.67-16.793A22.005 22.005 0 0 0 51.131.795" id="aI"/><path d="M31.795.795a22.012 22.012 0 0 0-19.07 11.043L3.057 28.63a22.138 22.138 0 0 0 0 22.083l9.666 16.794a22.012 22.012 0 0 0 19.07 11.043H51.13c7.867 0 15.136-4.21 19.068-11.043l9.67-16.794a22.138 22.138 0 0 0 0-22.083l-9.67-16.793A22.005 22.005 0 0 0 51.131.795" id="aK"/><path d="M31.795.795a22.012 22.012 0 0 0-19.07 11.043L3.057 28.63a22.138 22.138 0 0 0 0 22.083l9.666 16.794a22.012 22.012 0 0 0 19.07 11.043H51.13c7.867 0 15.136-4.21 19.068-11.043l9.67-16.794a22.138 22.138 0 0 0 0-22.083l-9.67-16.793A22.005 22.005 0 0 0 51.131.795" id="aM"/><path d="M31.795.795a22.012 22.012 0 0 0-19.07 11.043L3.057 28.63a22.138 22.138 0 0 0 0 22.083l9.666 16.794a22.012 22.012 0 0 0 19.07 11.043H51.13c7.867 0 15.136-4.21 19.068-11.043l9.67-16.794a22.138 22.138 0 0 0 0-22.083l-9.67-16.793A22.005 22.005 0 0 0 51.131.795" id="aO"/><path d="M31.795.795a22.012 22.012 0 0 0-19.07 11.043L3.057 28.63a22.138 22.138 0 0 0 0 22.083l9.666 16.794a22.012 22.012 0 0 0 19.07 11.043H51.13c7.867 0 15.136-4.21 19.068-11.043l9.67-16.794a22.138 22.138 0 0 0 0-22.083l-9.67-16.793A22.005 22.005 0 0 0 51.131.795" id="aQ"/><path d="M31.795.795a22.012 22.012 0 0 0-19.07 11.043L3.057 28.63a22.138 22.138 0 0 0 0 22.083l9.666 16.794a22.012 22.012 0 0 0 19.07 11.043H51.13c7.867 0 15.136-4.21 19.068-11.043l9.67-16.794a22.138 22.138 0 0 0 0-22.083l-9.67-16.793A22.005 22.005 0 0 0 51.131.795" id="aS"/><path d="M31.795.795a22.012 22.012 0 0 0-19.07 11.043L3.057 28.63a22.138 22.138 0 0 0 0 22.083l9.666 16.794a22.012 22.012 0 0 0 19.07 11.043H51.13c7.867 0 15.136-4.21 19.068-11.043l9.67-16.794a22.138 22.138 0 0 0 0-22.083l-9.67-16.793A22.005 22.005 0 0 0 51.131.795" id="aU"/><path d="M31.795.795a22.012 22.012 0 0 0-19.07 11.043L3.057 28.63a22.138 22.138 0 0 0 0 22.083l9.666 16.794a22.012 22.012 0 0 0 19.07 11.043H51.13c7.867 0 15.136-4.21 19.068-11.043l9.67-16.794a22.138 22.138 0 0 0 0-22.083l-9.67-16.793A22.005 22.005 0 0 0 51.131.795" id="aW"/><path d="M31.795.795a22.012 22.012 0 0 0-19.07 11.043L3.057 28.63a22.138 22.138 0 0 0 0 22.083l9.666 16.794a22.012 22.012 0 0 0 19.07 11.043H51.13c7.867 0 15.136-4.21 19.068-11.043l9.67-16.794a22.138 22.138 0 0 0 0-22.083l-9.67-16.793A22.005 22.005 0 0 0 51.131.795" id="aY"/><path d="M31.795.795a22.012 22.012 0 0 0-19.07 11.043L3.057 28.63a22.138 22.138 0 0 0 0 22.083l9.666 16.794a22.012 22.012 0 0 0 19.07 11.043H51.13c7.867 0 15.136-4.21 19.068-11.043l9.67-16.794a22.138 22.138 0 0 0 0-22.083l-9.67-16.793A22.005 22.005 0 0 0 51.131.795" id="ba"/><path d="M31.795.795a22.012 22.012 0 0 0-19.07 11.043L3.057 28.63a22.138 22.138 0 0 0 0 22.083l9.666 16.794a22.012 22.012 0 0 0 19.07 11.043H51.13c7.867 0 15.136-4.21 19.068-11.043l9.67-16.794a22.138 22.138 0 0 0 0-22.083l-9.67-16.793A22.005 22.005 0 0 0 51.131.795" id="bc"/><path d="M31.795.795a22.012 22.012 0 0 0-19.07 11.043L3.057 28.63a22.138 22.138 0 0 0 0 22.083l9.666 16.794a22.012 22.012 0 0 0 19.07 11.043H51.13c7.867 0 15.136-4.21 19.068-11.043l9.67-16.794a22.138 22.138 0 0 0 0-22.083l-9.67-16.793A22.005 22.005 0 0 0 51.131.795" id="be"/><path d="M31.795.795a22.012 22.012 0 0 0-19.07 11.043L3.057 28.63a22.138 22.138 0 0 0 0 22.083l9.666 16.794a22.012 22.012 0 0 0 19.07 11.043H51.13c7.867 0 15.136-4.21 19.068-11.043l9.67-16.794a22.138 22.138 0 0 0 0-22.083l-9.67-16.793A22.005 22.005 0 0 0 51.131.795" id="bg"/><path d="M31.795.795a22.012 22.012 0 0 0-19.07 11.043L3.057 28.63a22.138 22.138 0 0 0 0 22.083l9.666 16.794a22.012 22.012 0 0 0 19.07 11.043H51.13c7.867 0 15.136-4.21 19.068-11.043l9.67-16.794a22.138 22.138 0 0 0 0-22.083l-9.67-16.793A22.005 22.005 0 0 0 51.131.795" id="bi"/><path d="M31.795.795a22.012 22.012 0 0 0-19.07 11.043L3.057 28.63a22.138 22.138 0 0 0 0 22.083l9.666 16.794a22.012 22.012 0 0 0 19.07 11.043H51.13c7.867 0 15.136-4.21 19.068-11.043l9.67-16.794a22.138 22.138 0 0 0 0-22.083l-9.67-16.793A22.005 22.005 0 0 0 51.131.795" id="bk"/><path d="M31.795.795a22.012 22.012 0 0 0-19.07 11.043L3.057 28.63a22.138 22.138 0 0 0 0 22.083l9.666 16.794a22.012 22.012 0 0 0 19.07 11.043H51.13c7.867 0 15.136-4.21 19.068-11.043l9.67-16.794a22.138 22.138 0 0 0 0-22.083l-9.67-16.793A22.005 22.005 0 0 0 51.131.795" id="bm"/><path d="M31.795.795a22.012 22.012 0 0 0-19.07 11.043L3.057 28.63a22.138 22.138 0 0 0 0 22.083l9.666 16.794a22.012 22.012 0 0 0 19.07 11.043H51.13c7.867 0 15.136-4.21 19.068-11.043l9.67-16.794a22.138 22.138 0 0 0 0-22.083l-9.67-16.793A22.005 22.005 0 0 0 51.131.795" id="bo"/><path d="M31.795.795a22.012 22.012 0 0 0-19.07 11.043L3.057 28.63a22.138 22.138 0 0 0 0 22.083l9.666 16.794a22.012 22.012 0 0 0 19.07 11.043H51.13c7.867 0 15.136-4.21 19.068-11.043l9.67-16.794a22.138 22.138 0 0 0 0-22.083l-9.67-16.793A22.005 22.005 0 0 0 51.131.795" id="bq"/><path d="M31.795.795a22.012 22.012 0 0 0-19.07 11.043L3.057 28.63a22.138 22.138 0 0 0 0 22.083l9.666 16.794a22.012 22.012 0 0 0 19.07 11.043H51.13c7.867 0 15.136-4.21 19.068-11.043l9.67-16.794a22.138 22.138 0 0 0 0-22.083l-9.67-16.793A22.005 22.005 0 0 0 51.131.795" id="bs"/><path d="M31.795.795a22.012 22.012 0 0 0-19.07 11.043L3.057 28.63a22.138 22.138 0 0 0 0 22.083l9.666 16.794a22.012 22.012 0 0 0 19.07 11.043H51.13c7.867 0 15.136-4.21 19.068-11.043l9.67-16.794a22.138 22.138 0 0 0 0-22.083l-9.67-16.793A22.005 22.005 0 0 0 51.131.795" id="bu"/><path d="M31.795.795a22.012 22.012 0 0 0-19.07 11.043L3.057 28.63a22.138 22.138 0 0 0 0 22.083l9.666 16.794a22.012 22.012 0 0 0 19.07 11.043H51.13c7.867 0 15.136-4.21 19.068-11.043l9.67-16.794a22.138 22.138 0 0 0 0-22.083l-9.67-16.793A22.005 22.005 0 0 0 51.131.795H31.795z" id="bw"/></defs><g fill="none" fill-rule="evenodd"><path d="M51.131.796H31.795A22.003 22.003 0 0 0 12.726 11.84L3.058 28.63a22.142 22.142 0 0 0 0 22.085l9.668 16.792A22.007 22.007 0 0 0 31.795 78.55H51.13c7.867 0 15.135-4.21 19.07-11.042l9.668-16.792a22.142 22.142 0 0 0 0-22.085L70.2 11.839A22.008 22.008 0 0 0 51.131.796" fill="#FF2091"/><mask id="b" fill="#fff"><use xlink:href="#a"/></mask><path d="M50.794 1.048c7.828 0 14.424 4.589 18.98 10.963.038.053 9.583 16.641 9.583 16.713 3.87 6.778 3.976 15.184-.042 21.881-.022.037-9.57 16.596-9.605 16.618a21.87 21.87 0 0 1-18.916 10.91c-.035 0-19.096-.008-19.128-.02-7.779-.012-14.11-4.754-18.865-10.93a17062.4 17062.4 0 0 1-9.574-16.61c-3.57-6.932-3.894-15.083-.024-21.849 0-.05 9.524-16.622 9.547-16.662 3.795-6.83 11.091-10.955 18.883-10.98.039-.022 19.114-.034 19.161-.034" fill="#FF2092" mask="url(#b)"/><mask id="d" fill="#fff"><use xlink:href="#c"/></mask><path d="M50.457 1.298c7.787 0 14.356 4.556 18.89 10.884.077.107 9.5 16.49 9.5 16.632 3.81 6.726 3.893 15.05-.086 21.682-.043.075-9.47 16.396-9.543 16.444a21.73 21.73 0 0 1-18.76 10.774c-.069 0-18.857-.013-18.92-.035-7.692-.028-13.957-4.716-18.664-10.82-.04-.054-9.444-16.365-9.476-16.427-3.529-6.857-3.86-14.917-.05-21.618 0-.096 9.382-16.447 9.428-16.526C16.534 5.516 23.755 1.418 31.47 1.365c.078-.043 18.891-.067 18.987-.067" fill="#FF2093" mask="url(#d)"/><mask id="f" fill="#fff"><use xlink:href="#e"/></mask><path d="M50.12 1.55c7.749 0 14.287 4.518 18.8 10.805.117.161 9.416 16.337 9.416 16.55 3.747 6.674 3.814 14.913-.128 21.482-.067.112-9.373 16.198-9.483 16.267a21.586 21.586 0 0 1-18.604 10.642c-.105 0-18.619-.02-18.71-.054-7.606-.042-13.804-4.675-18.46-10.707-.064-.081-9.334-16.152-9.383-16.243C.078 43.51-.254 35.54 3.49 28.906c0-.144 9.244-16.276 9.309-16.393C16.525 5.8 23.669 1.728 31.306 1.649c.12-.063 18.671-.1 18.815-.1" fill="#FF2094" mask="url(#f)"/><mask id="h" fill="#fff"><use xlink:href="#g"/></mask><path d="M49.786 1.8c7.704 0 14.216 4.485 18.707 10.728.153.214 9.332 16.186 9.332 16.47 3.684 6.619 3.734 14.775-.171 21.281-.09.15-9.27 16-9.42 16.092a21.446 21.446 0 0 1-18.448 10.507c-.14 0-18.382-.025-18.505-.07-7.517-.059-13.649-4.639-18.256-10.599-.084-.107-9.225-15.937-9.287-16.058-3.446-6.706-3.786-14.585-.101-21.153 0-.193 9.099-16.103 9.187-16.261 3.69-6.65 10.756-10.699 18.32-10.802.158-.086 18.45-.136 18.642-.136" fill="#FF2095" mask="url(#h)"/><mask id="j" fill="#fff"><use xlink:href="#i"/></mask><path d="M49.449 2.05c7.665 0 14.148 4.45 18.618 10.65.191.267 9.248 16.033 9.248 16.39 3.62 6.566 3.654 14.638-.213 21.08-.114.187-9.173 15.802-9.36 15.916A21.307 21.307 0 0 1 49.449 76.46c-.175 0-18.134-.058-18.296-.09-7.305-1.362-13.495-4.597-18.055-10.486-.102-.131-9.112-15.722-9.19-15.875C.5 43.379.16 35.59 3.78 29.089c0-.24 8.959-15.93 9.07-16.128C16.503 6.371 23.493 2.35 30.98 2.217c.198-.107 18.226-.166 18.468-.166" fill="#FF2096" mask="url(#j)"/><mask id="l" fill="#fff"><use xlink:href="#k"/></mask><path d="M49.112 2.3c7.625 0 14.08 4.416 18.528 10.571.23.321 9.163 15.883 9.163 16.31 3.561 6.512 3.575 14.502-.255 20.88-.135.224-9.075 15.603-9.297 15.74a21.17 21.17 0 0 1-18.139 10.24c-.208 0-17.895-.07-18.088-.107-7.22-1.355-13.34-4.557-17.85-10.373-.126-.16-9.001-15.51-9.096-15.692C.714 43.312.366 35.616 3.926 29.182c0-.292 8.816-15.76 8.947-15.997C16.495 6.656 23.408 2.661 30.819 2.503c.238-.128 18.004-.202 18.293-.202" fill="#FF2097" mask="url(#l)"/><mask id="n" fill="#fff"><use xlink:href="#m"/></mask><path d="M48.775 2.552c7.585 0 14.011 4.378 18.437 10.493.273.372 9.081 15.73 9.081 16.228 3.496 6.46 3.494 14.364-.299 20.68-.158.26-8.975 15.404-9.236 15.564a21.034 21.034 0 0 1-17.983 10.108c-.245 0-17.654-.084-17.88-.126-7.131-1.347-13.186-4.519-17.648-10.263-.144-.186-8.89-15.294-9-15.509-3.324-6.48-3.674-14.086-.176-20.454 0-.338 8.673-15.585 8.826-15.863C16.485 6.94 23.32 2.97 30.654 2.786c.28-.15 17.785-.234 18.121-.234" fill="#FF2098" mask="url(#n)"/><mask id="p" fill="#fff"><use xlink:href="#o"/></mask><path d="M48.438 2.802c7.547 0 13.943 4.345 18.346 10.414.311.427 8.998 15.58 8.998 16.148 3.434 6.406 3.413 14.229-.342 20.479-.18.298-8.877 15.206-9.173 15.39a20.898 20.898 0 0 1-17.829 9.974c-.278 0-17.412-.095-17.671-.144-7.044-1.338-13.033-4.48-17.446-10.153-.164-.212-8.777-15.08-8.901-15.324-3.284-6.404-3.641-13.92-.207-20.222 0-.386 8.532-15.412 8.71-15.73 3.551-6.408 10.312-10.352 17.57-10.563.318-.17 17.559-.269 17.945-.269" fill="#FF2099" mask="url(#p)"/><mask id="r" fill="#fff"><use xlink:href="#q"/></mask><path d="M48.102 3.053c7.506 0 13.874 4.309 18.258 10.335.348.48 8.911 15.428 8.911 16.069 3.372 6.352 3.335 14.09-.385 20.277-.201.335-8.777 15.008-9.11 15.213-3.758 6.096-10.443 9.842-17.674 9.842-.314 0-17.175-.105-17.465-.162-6.957-1.329-12.877-4.441-17.24-10.04-.188-.24-8.666-14.867-8.808-15.141-3.244-6.33-3.6-13.755-.23-19.989 0-.435 8.391-15.242 8.587-15.598 3.519-6.346 10.2-10.267 17.384-10.504.358-.193 17.338-.302 17.772-.302" fill="#FF209A" mask="url(#r)"/><mask id="t" fill="#fff"><use xlink:href="#s"/></mask><path d="M47.765 3.304c7.466 0 13.806 4.273 18.167 10.256.389.533 8.83 15.277 8.83 15.988 3.308 6.299 3.252 13.953-.428 20.076-.225.374-8.679 14.81-9.05 15.04-3.739 6.013-10.36 9.706-17.519 9.706-.347 0-16.933-.115-17.255-.179-6.87-1.32-12.724-4.4-17.04-9.93-.206-.264-8.556-14.653-8.71-14.956-3.202-6.254-3.566-13.588-.257-19.757 0-.483 8.25-15.068 8.469-15.463C16.454 7.796 23.06 3.902 30.165 3.639c.4-.214 17.119-.335 17.6-.335" fill="#FF209B" mask="url(#t)"/><mask id="v" fill="#fff"><use xlink:href="#u"/></mask><path d="M47.428 3.555c7.426 0 13.738 4.238 18.076 10.177.429.586 8.746 15.124 8.746 15.907 3.247 6.246 3.175 13.818-.47 19.876-.248.411-8.58 14.612-8.987 14.863-3.72 5.932-10.275 9.575-17.365 9.575-.383 0-16.69-.128-17.046-.197-6.785-1.313-12.57-4.362-16.835-9.819-.23-.291-8.446-14.44-8.616-14.774-3.163-6.178-3.529-13.422-.282-19.524 0-.53 8.105-14.896 8.347-15.331 3.448-6.225 9.978-10.095 17.008-10.384.436-.236 16.894-.369 17.424-.369" fill="#FF209C" mask="url(#v)"/><mask id="x" fill="#fff"><use xlink:href="#w"/></mask><path d="M47.093 3.805c7.384 0 13.666 4.203 17.985 10.1.467.64 8.662 14.971 8.662 15.826 3.184 6.192 3.093 13.681-.513 19.675-.272.448-8.482 14.415-8.926 14.689-3.7 5.85-10.19 9.44-17.208 9.44-.418 0-16.453-.14-16.84-.215-6.697-1.304-12.416-4.324-16.631-9.706-.252-.32-8.336-14.226-8.522-14.59-3.12-6.105-3.49-13.255-.306-19.293 0-.579 7.965-14.723 8.225-15.197 3.416-6.168 9.868-10.01 16.823-10.327.474-.256 16.672-.402 17.251-.402" fill="#FF209D" mask="url(#x)"/><mask id="z" fill="#fff"><use xlink:href="#y"/></mask><path d="M46.756 4.056c7.344 0 13.598 4.168 17.896 10.021.508.692 8.576 14.82 8.576 15.746 3.123 6.139 3.014 13.544-.555 19.474-.293.486-8.382 14.215-8.865 14.513-3.678 5.767-10.104 9.306-17.052 9.306-.453 0-16.213-.15-16.631-.231-6.61-1.296-12.26-4.284-16.43-9.596-.27-.346-8.223-14.011-8.424-14.408-3.08-6.027-3.456-13.088-.334-19.058 0-.629 7.823-14.552 8.108-15.065 3.38-6.106 9.754-9.924 16.633-10.266.515-.278 16.452-.436 17.078-.436" fill="#FF209E" mask="url(#z)"/><mask id="B" fill="#fff"><use xlink:href="#A"/></mask><path d="M46.42 4.308c7.305 0 13.53 4.132 17.804 9.941.546.745 8.494 14.67 8.494 15.665 3.06 6.085 2.933 13.407-.6 19.274-.314.524-8.28 14.017-8.8 14.338-3.661 5.684-10.022 9.173-16.898 9.173-.487 0-15.972-.162-16.425-.251-6.523-1.285-12.105-4.245-16.224-9.484-.293-.372-8.112-13.797-8.33-14.223-3.04-5.953-3.418-12.923-.358-18.827 0-.676 7.68-14.378 7.986-14.93 3.345-6.047 9.643-9.839 16.446-10.208.555-.298 16.229-.468 16.905-.468" fill="#FF209F" mask="url(#B)"/><mask id="D" fill="#fff"><use xlink:href="#C"/></mask><path d="M46.083 4.558c7.263 0 13.46 4.096 17.713 9.864.588.796 8.411 14.517 8.411 15.584 2.997 6.033 2.854 13.27-.64 19.073-.34.56-8.184 13.818-8.742 14.162-3.641 5.604-9.936 9.04-16.742 9.04-.522 0-15.732-.173-16.217-.27-6.435-1.276-11.95-4.204-16.02-9.372-.316-.397-8.002-13.581-8.235-14.04-2.999-5.875-3.382-12.755-.385-18.593 0-.725 7.541-14.205 7.867-14.799C16.405 9.222 22.626 5.455 29.35 5.06c.596-.32 16.009-.502 16.732-.502" fill="#FF20A0" mask="url(#D)"/><mask id="F" fill="#fff"><use xlink:href="#E"/></mask><path d="M45.746 4.809c7.224 0 13.391 4.06 17.624 9.785.629.848 8.326 14.364 8.326 15.504 2.935 5.977 2.774 13.133-.683 18.872-.36.597-8.086 13.621-8.677 13.987-3.624 5.52-9.854 8.905-16.59 8.905-.557 0-15.492-.182-16.008-.286-6.35-1.269-11.797-4.166-15.82-9.262-.334-.423-7.888-13.367-8.138-13.855-2.957-5.802-3.343-12.59-.408-18.361 0-.773 7.396-14.034 7.746-14.666C16.393 9.507 22.54 5.766 29.19 5.344c.633-.342 15.786-.535 16.556-.535" fill="#FF20A1" mask="url(#F)"/><mask id="H" fill="#fff"><use xlink:href="#G"/></mask><path d="M45.41 5.06c7.184 0 13.32 4.025 17.534 9.706.667.9 8.242 14.213 8.242 15.424 2.87 5.923 2.694 12.996-.727 18.67-.383.636-7.986 13.423-8.616 13.811-3.602 5.44-9.77 8.773-16.434 8.773-.591 0-15.252-.193-15.798-.304-6.265-1.26-11.644-4.125-15.616-9.15-.356-.45-7.781-13.154-8.044-13.672-2.916-5.727-3.308-12.424-.436-18.128 0-.821 7.256-13.862 7.627-14.534 3.242-5.864 9.311-9.58 15.884-10.026.674-.364 15.564-.57 16.383-.57" fill="#FF20A2" mask="url(#H)"/><mask id="J" fill="#fff"><use xlink:href="#I"/></mask><path d="M45.073 5.31c7.143 0 13.253 3.99 17.443 9.628.708.953 8.158 14.062 8.158 15.344 2.81 5.87 2.613 12.859-.769 18.47-.406.672-7.886 13.224-8.553 13.635-3.583 5.358-9.685 8.641-16.28 8.641-.624 0-15.01-.205-15.59-.323-6.179-1.252-11.49-4.087-15.413-9.04-.378-.475-7.669-12.94-7.949-13.489-2.874-5.65-3.27-12.256-.46-17.894 0-.87 7.116-13.69 7.506-14.401 3.207-5.804 9.199-9.494 15.697-9.968.714-.385 15.343-.602 16.21-.602" fill="#FF20A4" mask="url(#J)"/><mask id="L" fill="#fff"><use xlink:href="#K"/></mask><path d="M44.736 5.56c7.105 0 13.185 3.956 17.353 9.551.749 1.004 8.075 13.91 8.075 15.263 2.748 5.816 2.535 12.72-.812 18.268-.43.71-7.789 13.026-8.492 13.462-3.563 5.275-9.6 8.505-16.124 8.505-.66 0-14.771-.215-15.384-.34-6.09-1.243-11.334-4.048-15.21-8.929-.397-.502-7.557-12.726-7.851-13.305-2.834-5.574-3.233-12.09-.485-17.661 0-.918 6.97-13.518 7.386-14.267 3.173-5.745 9.086-9.41 15.51-9.909.754-.407 15.12-.637 16.034-.637" fill="#FF20A4" mask="url(#L)"/><mask id="N" fill="#fff"><use xlink:href="#M"/></mask><path d="M44.4 5.812c7.062 0 13.116 3.918 17.263 9.471.79 1.057 7.99 13.757 7.99 15.182 2.684 5.764 2.453 12.586-.854 18.068-.451.748-7.69 12.828-8.432 13.286-3.541 5.193-9.514 8.373-15.966 8.373-.697 0-14.533-.227-15.177-.358-6.004-1.236-11.179-4.008-15.006-8.817-.42-.528-7.446-12.512-7.758-13.123-2.792-5.5-3.195-11.923-.511-17.429 0-.967 6.832-13.344 7.268-14.134 3.139-5.684 8.973-9.324 15.32-9.848.795-.429 14.9-.671 15.864-.671" fill="#FF20A5" mask="url(#N)"/><mask id="P" fill="#fff"><use xlink:href="#O"/></mask><path d="M44.064 6.062c7.023 0 13.047 3.884 17.172 9.394.83 1.108 7.906 13.606 7.906 15.102 2.622 5.709 2.375 12.446-.898 17.866-.473.785-7.589 12.63-8.368 13.11-3.523 5.113-9.431 8.24-15.812 8.24-.732 0-14.291-.236-14.969-.377-5.918-1.227-11.024-3.969-14.804-8.705-.44-.555-7.334-12.298-7.66-12.939-2.752-5.423-3.158-11.758-.536-17.195 0-1.015 6.689-13.172 7.146-14.003 3.104-5.623 8.864-9.236 15.133-9.789.835-.45 14.678-.704 15.69-.704" fill="#FF20A6" mask="url(#P)"/><mask id="R" fill="#fff"><use xlink:href="#Q"/></mask><path d="M43.727 6.314c6.983 0 12.977 3.848 17.082 9.313.871 1.16 7.823 13.454 7.823 15.022 2.559 5.656 2.293 12.312-.942 17.666-.495.822-7.49 12.431-8.306 12.935-3.505 5.03-9.348 8.106-15.657 8.106-.765 0-14.051-.246-14.76-.394-5.831-1.218-10.87-3.93-14.6-8.595-.463-.581-7.224-12.083-7.565-12.754-2.712-5.347-3.123-11.592-.564-16.964 0-1.064 6.547-13 7.028-13.869 3.07-5.563 8.753-9.15 14.946-9.73.874-.47 14.456-.736 15.515-.736" fill="#FF20A7" mask="url(#R)"/><mask id="T" fill="#fff"><use xlink:href="#S"/></mask><path d="M43.39 6.564c6.943 0 12.909 3.813 16.993 9.236.912 1.211 7.739 13.302 7.739 14.94 2.498 5.603 2.212 12.176-.986 17.467-.516.857-7.39 12.231-8.243 12.758-3.485 4.949-9.264 7.972-15.503 7.972-.8 0-13.813-.255-14.552-.41-5.745-1.21-10.716-3.891-14.396-8.484-.485-.605-7.116-11.869-7.471-12.571-2.67-5.274-3.085-11.427-.588-16.732 0-1.112 6.407-12.826 6.907-13.736 3.034-5.502 8.64-9.064 14.759-9.67.914-.491 14.233-.77 15.341-.77" fill="#FF20A8" mask="url(#T)"/><mask id="V" fill="#fff"><use xlink:href="#U"/></mask><path d="M43.054 6.815c6.902 0 12.84 3.776 16.9 9.157.955 1.264 7.656 13.15 7.656 14.86 2.435 5.55 2.134 12.038-1.028 17.265-.539.895-7.292 12.034-8.18 12.584-3.466 4.866-9.18 7.838-15.348 7.838-.837 0-13.572-.265-14.342-.43-5.662-1.2-10.565-3.85-14.197-8.37-.508-.632-7.004-11.656-7.373-12.388-2.63-5.198-3.05-11.26-.613-16.498 0-1.16 6.263-12.654 6.787-13.604 2.998-5.44 8.528-8.978 14.571-9.61.952-.513 14.01-.804 15.167-.804" fill="#FF20AA" mask="url(#V)"/><mask id="X" fill="#fff"><use xlink:href="#W"/></mask><path d="M42.717 7.065c6.864 0 12.77 3.741 16.812 9.078.994 1.315 7.57 13 7.57 14.78 2.373 5.497 2.054 11.901-1.069 17.066-.565.932-7.193 11.836-8.12 12.407-3.445 4.785-9.096 7.706-15.193 7.706-.87 0-13.332-.275-14.135-.447-5.572-1.194-10.409-3.812-13.99-8.262-.531-.657-6.894-11.44-7.281-12.205-2.587-5.12-3.01-11.091-.639-16.265 0-1.208 6.122-12.482 6.668-13.47 2.963-5.38 8.416-8.892 14.384-9.549.992-.535 13.789-.839 14.993-.839" fill="#FF20AB" mask="url(#X)"/><mask id="Z" fill="#fff"><use xlink:href="#Y"/></mask><path d="M42.38 7.316c6.822 0 12.702 3.706 16.721 9 1.038 1.367 7.487 12.847 7.487 14.7 2.31 5.443 1.975 11.764-1.112 16.863-.588.97-7.093 11.637-8.057 12.232-3.428 4.703-9.012 7.572-15.039 7.572-.905 0-13.092-.284-13.927-.463-5.486-1.185-10.253-3.773-13.787-8.152-.551-.682-6.783-11.226-7.184-12.02-2.547-5.045-2.976-10.926-.664-16.032 0-1.257 5.98-12.31 6.546-13.338 2.932-5.32 8.308-8.806 14.196-9.49 1.031-.556 13.567-.872 14.82-.872" fill="#FF20AC" mask="url(#Z)"/><mask id="ab" fill="#fff"><use xlink:href="#aa"/></mask><path d="M42.045 7.567c6.782 0 12.632 3.67 16.63 8.922 1.078 1.416 7.403 12.694 7.403 14.618 2.248 5.39 1.894 11.627-1.155 16.664-.61 1.007-6.996 11.439-7.997 12.057-3.406 4.619-8.926 7.438-14.88 7.438-.94 0-12.855-.295-13.721-.484-5.4-1.175-10.097-3.733-13.586-8.037-.573-.71-6.67-11.013-7.086-11.838-2.507-4.97-2.94-10.76-.692-15.8 0-1.304 5.84-12.136 6.428-13.203 2.896-5.262 8.196-8.722 14.01-9.431 1.07-.578 13.344-.906 14.646-.906" fill="#FF20AD" mask="url(#ab)"/><mask id="ad" fill="#fff"><use xlink:href="#ac"/></mask><path d="M41.708 7.818c6.742 0 12.562 3.634 16.54 8.843 1.121 1.467 7.32 12.543 7.32 14.537 2.184 5.337 1.812 11.49-1.2 16.462-.631 1.046-6.895 11.243-7.933 11.884-3.387 4.538-8.841 7.304-14.727 7.304-.975 0-12.612-.303-13.512-.502-5.315-1.167-9.943-3.692-13.38-7.926-.598-.734-6.562-10.798-6.992-11.653-2.467-4.897-2.903-10.595-.718-15.569 0-1.353 5.696-11.964 6.307-13.07 2.862-5.2 8.084-8.635 13.82-9.37 1.112-.601 13.126-.94 14.475-.94" fill="#FF20AE" mask="url(#ad)"/><mask id="af" fill="#fff"><use xlink:href="#ae"/></mask><path d="M41.371 8.07c6.701 0 12.494 3.598 16.448 8.763 1.166 1.518 7.237 12.392 7.237 14.457 2.123 5.282 1.735 11.355-1.241 16.262-.655 1.08-6.797 11.042-7.872 11.707-3.368 4.456-8.758 7.172-14.572 7.172-1.01 0-12.372-.314-13.303-.52-5.227-1.159-9.79-3.653-13.178-7.816-.618-.76-6.45-10.582-6.897-11.47-2.425-4.82-2.864-10.428-.743-15.335 0-1.401 5.557-11.79 6.187-12.939 2.827-5.138 7.973-8.547 13.635-9.311 1.15-.62 12.9-.97 14.3-.97" fill="#FF20AF" mask="url(#af)"/><mask id="ah" fill="#fff"><use xlink:href="#ag"/></mask><path d="M41.035 8.32c6.662 0 12.425 3.563 16.36 8.686 1.204 1.57 7.15 12.24 7.15 14.376 2.06 5.23 1.653 11.216-1.282 16.062-.678 1.118-6.7 10.844-7.813 11.53-3.347 4.375-8.672 7.038-14.415 7.038-1.045 0-12.135-.321-13.096-.537-5.141-1.15-9.633-3.613-12.976-7.705-.641-.783-6.34-10.368-6.8-11.285-2.384-4.745-2.828-10.263-.768-15.103 0-1.45 5.414-11.618 6.067-12.805 2.792-5.079 7.86-8.463 13.448-9.252 1.188-.64 12.679-1.006 14.125-1.006" fill="#FF20B0" mask="url(#ah)"/><mask id="aj" fill="#fff"><use xlink:href="#ai"/></mask><path d="M40.698 8.57c6.62 0 12.355 3.527 16.27 8.608 1.247 1.62 7.066 12.089 7.066 14.295 2 5.176 1.574 11.08-1.325 15.862-.7 1.155-6.6 10.646-7.75 11.355-3.327 4.292-8.588 6.904-14.261 6.904-1.078 0-11.893-.331-12.887-.554-5.056-1.143-9.48-3.575-12.772-7.595-.664-.81-6.23-10.154-6.706-11.102-2.343-4.67-2.79-10.094-.792-14.87 0-1.499 5.271-11.446 5.945-12.671 2.757-5.02 7.974-7.437 13.26-9.194 1.325-.439 12.457-1.038 13.952-1.038" fill="#FF20B1" mask="url(#aj)"/><mask id="al" fill="#fff"><use xlink:href="#ak"/></mask><path d="M40.361 8.82c6.582 0 12.287 3.493 16.179 8.53 1.29 1.67 6.984 11.937 6.984 14.216 1.936 5.122 1.493 10.942-1.369 15.658-.725 1.195-6.501 10.449-7.686 11.18-3.31 4.212-8.504 6.772-14.108 6.772-1.113 0-11.653-.339-12.679-.572-4.97-1.135-9.325-3.536-12.57-7.483-.685-.834-6.118-9.94-6.608-10.92-2.302-4.592-2.754-9.929-.82-14.635 0-1.547 5.133-11.274 5.826-12.54 2.724-4.958 7.86-7.382 13.073-9.133 1.367-.458 12.236-1.072 13.778-1.072" fill="#FF20B1" mask="url(#al)"/><mask id="an" fill="#fff"><use xlink:href="#am"/></mask><path d="M40.024 9.072c6.542 0 12.217 3.455 16.088 8.45 1.334 1.72 6.902 11.785 6.902 14.135 1.871 5.069 1.41 10.807-1.413 15.458-.747 1.232-6.548 10.052-7.623 11.005-3.948 3.503-8.422 6.638-13.954 6.638-1.148 0-11.415-.347-12.47-.59-4.884-1.125-9.171-3.495-12.366-7.371-.71-.86-6.01-9.726-6.515-10.735-2.26-4.52-2.717-9.763-.844-14.405 0-1.594 4.989-11.1 5.707-12.406 2.688-4.898 7.744-7.326 12.885-9.073 1.408-.48 12.014-1.106 13.603-1.106" fill="#FF20B2" mask="url(#an)"/><mask id="ap" fill="#fff"><use xlink:href="#ao"/></mask><path d="M39.901 9.322c6.502 0 12.147 3.42 15.998 8.373 1.378 1.77 6.4 11.669 6.817 14.053.919 5.254 1.334 10.67-1.455 15.26-.768 1.267-6.45 9.85-7.562 10.83-3.904 3.437-8.336 6.502-13.798 6.502-1.183 0-11.175-.355-12.264-.608-4.796-1.118-9.015-3.456-12.162-7.26-.732-.884-5.898-9.51-6.418-10.552-2.221-4.443-2.68-9.597-.87-14.172 0-1.643 4.848-10.927 5.586-12.273 2.654-4.837 7.63-7.272 12.697-9.013 1.45-.499 11.793-1.14 13.431-1.14" fill="#FF20B3" mask="url(#ap)"/><mask id="ar" fill="#fff"><use xlink:href="#aq"/></mask><path d="M39.561 9.573c6.46 0 12.077 3.383 15.907 8.294 1.42 1.82 6.312 11.516 6.734 13.974.886 5.186 1.252 10.531-1.498 15.057-.793 1.305-6.353 9.649-7.501 10.655-3.857 3.372-8.252 6.369-13.642 6.369-1.217 0-10.935-.364-12.056-.625-4.712-1.11-8.859-3.416-11.96-7.149-.754-.91-5.786-9.297-6.322-10.368-2.178-4.368-2.643-9.43-.896-13.94 0-1.691 4.709-10.755 5.467-12.14 2.62-4.777 7.516-7.218 12.51-8.954 1.488-.518 11.57-1.173 13.257-1.173" fill="#FF20B4" mask="url(#ar)"/><mask id="at" fill="#fff"><use xlink:href="#as"/></mask><path d="M39.221 9.824c6.42 0 12.009 3.348 15.818 8.214 1.463 1.871 6.226 11.365 6.648 13.893.854 5.121 1.173 10.397-1.54 14.858-.816 1.341-6.255 9.45-7.44 10.479-3.813 3.31-8.166 6.237-13.486 6.237-1.253 0-10.696-.37-11.848-.646-4.626-1.099-8.705-3.374-11.756-7.036-.779-.934-5.679-9.082-6.228-10.184-2.138-4.293-2.605-9.264-.92-13.708 0-1.74 4.564-10.582 5.345-12.008 2.586-4.715 7.403-7.16 12.324-8.893 1.53-.54 11.348-1.206 13.083-1.206" fill="#FF20B5" mask="url(#at)"/><mask id="av" fill="#fff"><use xlink:href="#au"/></mask><path d="M38.88 10.075c6.381 0 11.94 3.31 15.726 8.135 1.509 1.92 6.142 11.213 6.566 13.813.823 5.054 1.092 10.26-1.583 14.657-.838 1.378-6.156 9.25-7.378 10.303-3.767 3.246-8.082 6.103-13.33 6.103-1.289 0-10.458-.378-11.64-.662-4.54-1.092-8.55-3.336-11.553-6.926-.801-.958-5.57-8.867-6.132-10.001C7.46 41.28 6.985 36.4 8.61 32.023c0-1.787 4.424-10.409 5.225-11.875 2.551-4.655 7.286-7.106 12.137-8.834 1.57-.56 11.126-1.239 12.91-1.239" fill="#FF20B6" mask="url(#av)"/><mask id="ax" fill="#fff"><use xlink:href="#aw"/></mask><path d="M38.342 10.325c6.34 0 11.869 3.276 15.638 8.058 1.549 1.968 6.056 11.06 6.48 13.732.79 4.988 1.012 10.123-1.626 14.455-.862 1.417-6.057 9.052-7.316 10.128-3.725 3.185-7.998 5.97-13.176 5.97-1.323 0-10.218-.384-11.43-.679-4.457-1.083-8.398-3.297-11.353-6.815-.822-.983-5.458-8.653-6.036-9.817-2.055-4.141-1.764-8.727-.971-13.242.317-1.808 4.283-10.237 5.106-11.741 2.516-4.596 7.172-7.052 11.95-8.774 1.61-.581 10.903-1.275 12.734-1.275" fill="#FF20B7" mask="url(#ax)"/><mask id="az" fill="#fff"><use xlink:href="#ay"/></mask><path d="M38.006 10.576c6.3 0 11.8 3.24 15.546 7.98 1.595 2.018 5.974 10.907 6.396 13.65.76 4.923.933 9.986-1.668 14.256-.884 1.453-5.955 8.853-7.254 9.952-3.678 3.12-7.912 5.837-13.02 5.837-1.357 0-9.978-.393-11.223-.699-4.371-1.074-8.241-3.256-11.147-6.702-.85-1.006-5.35-8.44-5.941-9.635-2.015-4.066-1.758-8.572-.998-13.008.317-1.858 4.141-10.065 4.985-11.61 2.482-4.535 7.057-6.994 11.76-8.715 1.653-.602 10.685-1.306 12.564-1.306" fill="#FF20B8" mask="url(#az)"/><mask id="aB" fill="#fff"><use xlink:href="#aA"/></mask><path d="M37.669 10.827c6.26 0 11.73 3.204 15.455 7.9 1.64 2.068 5.892 10.754 6.314 13.572.727 4.858.853 9.849-1.71 14.053-.91 1.49-5.859 8.655-7.193 9.779-3.636 3.056-7.828 5.702-12.866 5.702-1.392 0-9.738-.399-11.016-.717-4.284-1.065-8.086-3.216-10.943-6.592-.873-1.03-5.239-8.223-5.846-9.45-1.973-3.99-1.75-8.418-1.023-12.775.319-1.907 3.998-9.893 4.867-11.476 2.447-4.475 6.939-6.942 11.572-8.655 1.691-.627 10.46-1.341 12.389-1.341" fill="#FF20B9" mask="url(#aB)"/><mask id="aD" fill="#fff"><use xlink:href="#aC"/></mask><path d="M37.332 11.078c6.221 0 11.662 3.167 15.366 7.823 1.684 2.115 5.812 10.6 6.228 13.49.694 4.79.774 9.711-1.752 13.852-.931 1.526-5.757 8.459-7.13 9.602-3.592 2.995-7.746 5.57-12.712 5.57-1.425 0-9.5-.404-10.808-.734-4.197-1.058-7.931-3.177-10.74-6.481-.895-1.055-5.128-8.01-5.75-9.266-1.932-3.915-1.745-8.265-1.048-12.544.317-1.955 3.858-9.718 4.747-11.342 2.41-4.414 6.824-6.886 11.384-8.595 1.731-.65 10.239-1.375 12.215-1.375" fill="#FF20BA" mask="url(#aD)"/><mask id="aF" fill="#fff"><use xlink:href="#aE"/></mask><path d="M36.995 11.329c6.18 0 11.592 3.13 15.277 7.744 1.728 2.164 5.73 10.447 6.144 13.409.662 4.727.693 9.574-1.796 13.653-.954 1.562-5.657 8.26-7.068 9.425-3.549 2.932-7.66 5.437-12.557 5.437-1.461 0-9.26-.41-10.6-.751-4.113-1.052-7.775-3.137-10.536-6.371-.922-1.078-5.018-7.793-5.655-9.082-1.893-3.84-1.737-8.112-1.073-12.311.316-2.005 3.716-9.547 4.626-11.21 2.377-4.353 6.708-6.83 11.198-8.537 1.768-.672 10.017-1.406 12.04-1.406" fill="#FF20BB" mask="url(#aF)"/><mask id="aH" fill="#fff"><use xlink:href="#aG"/></mask><path d="M36.66 11.58c6.14 0 11.522 3.094 15.184 7.664 1.775 2.214 5.65 10.295 6.062 13.33.629 4.661.613 9.438-1.84 13.451-.978 1.601-5.556 8.063-7.005 9.252-3.505 2.868-7.576 5.302-12.4 5.302-1.498 0-9.025-.416-10.394-.77-4.028-1.042-7.621-3.096-10.333-6.258-.945-1.102-4.91-7.579-5.56-8.899-1.85-3.765-1.73-7.956-1.099-12.078.315-2.054 3.575-9.373 4.506-11.078 2.344-4.292 6.59-6.773 11.01-8.475 1.809-.697 9.795-1.442 11.87-1.442" fill="#FF20BC" mask="url(#aH)"/><mask id="aJ" fill="#fff"><use xlink:href="#aI"/></mask><path d="M36.323 11.83c6.097 0 11.452 3.059 15.093 7.586 1.82 2.261 5.576 10.142 5.978 13.25.599 4.597.534 9.3-1.882 13.25-1 1.638-5.452 7.867-6.944 9.075-3.46 2.807-7.492 5.17-12.245 5.17-1.531 0-8.785-.42-10.182-.787-3.946-1.035-7.468-3.058-10.132-6.147-.97-1.126-4.802-7.365-5.465-8.717-1.81-3.688-1.725-7.802-1.124-11.845.313-2.103 3.434-9.2 4.386-10.944 2.308-4.232 6.476-6.718 10.822-8.418 1.847-.72 9.574-1.472 11.695-1.472" fill="#FF20BD" mask="url(#aJ)"/><mask id="aL" fill="#fff"><use xlink:href="#aK"/></mask><path d="M35.987 12.08c6.058 0 11.381 3.024 15.003 7.51 1.865 2.308 5.497 9.987 5.894 13.168.567 4.532.452 9.164-1.924 13.049-1.025 1.674-5.354 7.673-6.884 8.9-3.417 2.744-7.407 5.035-12.09 5.035-1.566 0-8.545-.425-9.976-.804-3.86-1.027-7.312-3.016-9.927-6.037-.994-1.147-4.691-7.149-5.369-8.53-1.768-3.615-1.717-7.648-1.15-11.613.308-2.154 3.293-9.03 4.266-10.813 2.274-4.171 6.36-6.66 10.636-8.356 1.884-.746 9.352-1.508 11.52-1.508" fill="#FF20BE" mask="url(#aL)"/><mask id="aN" fill="#fff"><use xlink:href="#aM"/></mask><path d="M35.65 12.332c6.018 0 11.314 2.986 14.914 7.43 1.908 2.357 5.42 9.834 5.81 13.087.534 4.47.373 9.027-1.967 12.849-1.049 1.71-5.252 7.477-6.822 8.725-3.375 2.683-7.322 4.902-11.935 4.902-1.602 0-8.308-.429-9.768-.824-3.774-1.018-7.156-2.975-9.726-5.923-1.019-1.173-4.58-6.934-5.269-8.35-1.731-3.539-1.714-7.49-1.178-11.379.303-2.203 3.151-8.855 4.145-10.679 2.24-4.111 6.24-6.606 10.45-8.297 1.921-.774 9.128-1.541 11.346-1.541" fill="#FF20BF" mask="url(#aN)"/><mask id="aP" fill="#fff"><use xlink:href="#aO"/></mask><path d="M35.313 12.582c5.978 0 11.244 2.95 14.823 7.35 1.956 2.406 5.347 9.683 5.726 13.01.503 4.404.293 8.89-2.01 12.646-1.07 1.749-5.15 7.284-6.76 8.55-3.33 2.621-7.236 4.77-11.779 4.77-1.637 0-8.068-.434-9.56-.841-3.69-1.011-7-2.937-9.52-5.814-1.047-1.194-4.473-6.719-5.177-8.166-1.687-3.463-1.707-7.334-1.202-11.146.297-2.254 3.01-8.683 4.026-10.547 2.205-4.05 6.123-6.55 10.26-8.237 1.96-.8 8.908-1.575 11.173-1.575" fill="#FF20C0" mask="url(#aP)"/><mask id="aR" fill="#fff"><use xlink:href="#aQ"/></mask><path d="M34.976 12.833c5.94 0 11.174 2.913 14.733 7.274 2.004 2.452 5.274 9.527 5.643 12.926.471 4.343.214 8.753-2.053 12.447-1.094 1.785-5.045 7.089-6.696 8.374-3.29 2.56-7.156 4.634-11.627 4.634-1.67 0-7.831-.435-9.35-.858-3.607-1.002-6.847-2.895-9.319-5.702-1.071-1.215-4.362-6.504-5.08-7.98-1.649-3.389-1.701-7.181-1.23-10.915.292-2.303 2.87-8.51 3.907-10.414 2.17-3.99 6.006-6.494 10.074-8.177 1.997-.827 8.686-1.609 10.998-1.609" fill="#FF20C1" mask="url(#aR)"/><mask id="aT" fill="#fff"><use xlink:href="#aS"/></mask><path d="M34.64 13.084c5.899 0 11.105 2.877 14.643 7.194 2.048 2.5 5.202 9.375 5.557 12.847.44 4.28.134 8.616-2.095 12.247-1.118 1.82-4.94 6.896-6.634 8.198-3.25 2.497-7.07 4.501-11.471 4.501-1.705 0-7.592-.44-9.143-.877-3.522-.994-6.69-2.855-9.117-5.59-1.098-1.24-4.252-6.29-4.984-7.798-1.605-3.313-1.694-7.024-1.253-10.68.283-2.353 2.729-8.338 3.784-10.281 2.138-3.931 5.89-6.438 9.887-8.118 2.036-.857 8.464-1.643 10.826-1.643" fill="#FF20C2" mask="url(#aT)"/><mask id="aV" fill="#fff"><use xlink:href="#aU"/></mask><path d="M34.304 13.335c5.858 0 11.034 2.839 14.553 7.115 2.095 2.546 5.13 9.222 5.472 12.765.41 4.22.054 8.48-2.136 12.046-1.143 1.86-4.838 6.705-6.573 8.023-3.209 2.439-6.986 4.37-11.316 4.37-1.74 0-7.355-.443-8.936-.895-3.438-.987-6.535-2.815-8.912-5.48-1.124-1.26-4.145-6.074-4.889-7.615-1.567-3.237-1.687-6.866-1.28-10.45.275-2.4 2.59-8.163 3.666-10.146 2.1-3.87 5.768-6.38 9.698-8.058 2.072-.885 8.243-1.675 10.653-1.675" fill="#FF20C3" mask="url(#aV)"/><mask id="aX" fill="#fff"><use xlink:href="#aW"/></mask><path d="M33.968 13.585c5.817 0 10.963 2.804 14.46 7.036 2.143 2.595 5.063 9.068 5.392 12.686.377 4.159-.028 8.343-2.18 11.845-1.167 1.896-4.734 6.515-6.513 7.849-3.166 2.375-6.9 4.234-11.16 4.234-1.776 0-7.117-.442-8.727-.913-3.356-.977-6.381-2.773-8.71-5.368-1.15-1.28-4.036-5.858-4.794-7.43-1.523-3.163-1.68-6.71-1.304-10.217.263-2.45 2.447-7.99 3.545-10.014 2.067-3.81 5.65-6.323 9.512-7.998 2.108-.915 8.021-1.71 10.479-1.71" fill="#FF20C4" mask="url(#aX)"/><mask id="aZ" fill="#fff"><use xlink:href="#aY"/></mask><path d="M33.63 13.836c5.778 0 10.894 2.767 14.373 6.958 2.188 2.64 4.994 8.914 5.305 12.604.345 4.098-.106 8.208-2.223 11.645-1.19 1.931-4.628 6.324-6.45 7.672-3.125 2.315-6.817 4.103-11.004 4.103-1.81 0-6.881-.445-8.52-.93-3.272-.972-6.225-2.734-8.507-5.259-1.175-1.302-3.927-5.642-4.697-7.247-1.484-3.086-1.675-6.551-1.33-9.984.252-2.5 2.305-7.817 3.425-9.88 2.033-3.75 5.53-6.267 9.324-7.94 2.144-.945 7.798-1.742 10.305-1.742" fill="#FF20C5" mask="url(#aZ)"/><mask id="bb" fill="#fff"><use xlink:href="#ba"/></mask><path d="M33.294 14.087c5.737 0 10.825 2.73 14.281 6.88 2.239 2.686 4.931 8.76 5.223 12.524.312 4.036-.187 8.068-2.266 11.444-1.214 1.968-4.522 6.132-6.388 7.496-3.084 2.255-6.733 3.968-10.85 3.968-1.845 0-6.643-.444-8.311-.948-3.188-.962-6.07-2.693-8.303-5.146-1.206-1.323-3.82-5.428-4.604-7.064-1.442-3.01-1.668-6.394-1.356-9.75.24-2.551 2.167-7.644 3.306-9.749 2-3.688 5.411-6.21 9.138-7.879 2.178-.978 7.576-1.776 10.13-1.776" fill="#FF20C6" mask="url(#bb)"/><mask id="bd" fill="#fff"><use xlink:href="#bc"/></mask><path d="M32.957 14.338c5.698 0 10.756 2.693 14.19 6.8 2.286 2.732 4.868 8.608 5.14 12.444.281 3.978-.266 7.932-2.31 11.243-1.235 2.005-4.416 5.946-6.326 7.322-3.044 2.195-6.646 3.834-10.694 3.834-1.878 0-6.406-.444-8.103-.965-3.105-.957-5.913-2.653-8.1-5.035-1.233-1.343-3.71-5.214-4.507-6.88-1.402-2.937-1.663-6.234-1.381-9.519.224-2.6 2.025-7.47 3.184-9.615 1.964-3.629 5.292-6.153 8.95-7.82 2.213-1.009 7.356-1.81 9.957-1.81" fill="#FF20C7" mask="url(#bd)"/><mask id="bf" fill="#fff"><use xlink:href="#be"/></mask><path d="M32.62 14.588c5.657 0 10.686 2.656 14.101 6.724 2.333 2.777 4.805 8.453 5.056 12.363.25 3.916-.347 7.794-2.351 11.042-1.263 2.04-4.31 5.756-6.265 7.145-3.004 2.137-6.565 3.7-10.54 3.7-1.915 0-6.17-.442-7.897-.982-3.021-.948-5.756-2.61-7.895-4.923-1.26-1.364-3.604-4.998-4.413-6.697-1.36-2.862-1.656-6.076-1.407-9.285.206-2.651 1.885-7.298 3.067-9.482 1.929-3.57 5.169-6.096 8.761-7.762 2.248-1.042 7.133-1.843 9.784-1.843" fill="#FF20C8" mask="url(#bf)"/><mask id="bh" fill="#fff"><use xlink:href="#bg"/></mask><path d="M32.284 14.84c5.617 0 10.613 2.618 14.011 6.644 2.38 2.823 4.746 8.3 4.971 12.282.22 3.859-.427 7.66-2.394 10.842-1.287 2.077-4.203 5.57-6.202 6.97-2.967 2.077-6.482 3.567-10.386 3.567-1.948 0-5.934-.44-7.688-1-2.94-.942-5.6-2.57-7.692-4.814-1.29-1.382-3.496-4.78-4.317-6.512-1.32-2.786-1.65-5.916-1.432-9.053.187-2.7 1.744-7.126 2.945-9.349 1.894-3.509 5.048-6.037 8.575-7.701 2.281-1.078 6.91-1.877 9.609-1.877" fill="#FF20C9" mask="url(#bh)"/><mask id="bj" fill="#fff"><use xlink:href="#bi"/></mask><path d="M31.947 15.09c5.579 0 10.543 2.583 13.92 6.566 2.432 2.869 4.688 8.146 4.888 12.201.189 3.801-.508 7.523-2.437 10.64-1.31 2.116-4.095 5.387-6.14 6.796-2.928 2.018-6.397 3.434-10.23 3.434-1.984 0-5.699-.437-7.48-1.018-2.858-.934-5.445-2.53-7.49-4.703-1.32-1.401-3.389-4.564-4.22-6.329-1.28-2.71-1.646-5.755-1.458-8.82.168-2.749 1.603-6.952 2.823-9.216 1.861-3.447 4.93-5.978 8.387-7.64 2.318-1.114 6.69-1.91 9.437-1.91" fill="#FF20CA" mask="url(#bj)"/><mask id="bl" fill="#fff"><use xlink:href="#bk"/></mask><path d="M31.612 15.34c5.535 0 10.472 2.546 13.827 6.488 2.48 2.912 4.632 7.994 4.805 12.122.156 3.74-.586 7.384-2.48 10.44-1.332 2.149-3.986 5.2-6.078 6.618-2.89 1.96-6.312 3.303-10.074 3.303-2.018 0-5.463-.436-7.272-1.04-2.776-.925-5.29-2.486-7.287-4.589-1.35-1.418-3.28-4.35-4.126-6.146-1.238-2.635-1.638-5.593-1.483-8.586.146-2.8 1.462-6.78 2.705-9.084 1.826-3.388 4.807-5.921 8.2-7.582 2.348-1.148 6.466-1.943 9.263-1.943" fill="#FF20CB" mask="url(#bl)"/><mask id="bn" fill="#fff"><use xlink:href="#bm"/></mask><path d="M31.275 15.592c5.497 0 10.402 2.508 13.74 6.408 2.528 2.958 4.576 7.842 4.718 12.04.124 3.686-.667 7.248-2.523 10.24-1.357 2.187-3.875 5.018-6.016 6.444-2.85 1.901-6.227 3.167-9.919 3.167-2.055 0-5.227-.428-7.063-1.055-2.696-.918-5.133-2.446-7.084-4.479-1.38-1.436-3.176-4.132-4.03-5.961-1.197-2.56-1.633-5.432-1.51-8.355.122-2.85 1.324-6.604 2.585-8.95 1.792-3.327 4.682-5.863 8.014-7.522 2.378-1.187 6.244-1.977 9.088-1.977" fill="#FF20CC" mask="url(#bn)"/><mask id="bp" fill="#fff"><use xlink:href="#bo"/></mask><path d="M30.939 15.842c5.454 0 10.331 2.472 13.648 6.33 2.579 3 4.525 7.688 4.636 11.96.092 3.63-.753 7.108-2.567 10.04-1.384 2.219-3.767 4.836-5.953 6.269-2.813 1.841-6.144 3.033-9.764 3.033-2.089 0-4.995-.425-6.857-1.074a17.71 17.71 0 0 1-6.881-4.368c-1.41-1.452-3.067-3.917-3.934-5.778-1.157-2.485-1.626-5.268-1.535-8.122.096-2.897 1.187-6.43 2.466-8.817 1.761-3.263 4.559-5.804 7.825-7.463 2.41-1.223 6.024-2.01 8.916-2.01" fill="#FF20CD" mask="url(#bp)"/><mask id="br" fill="#fff"><use xlink:href="#bq"/></mask><path d="M30.602 16.093c5.416 0 10.261 2.434 13.558 6.252 2.629 3.044 4.476 7.536 4.553 11.88.06 3.574-.832 6.971-2.61 9.838-1.408 2.256-3.655 4.656-5.893 6.093-2.776 1.784-6.058 2.9-9.608 2.9-2.124 0-4.76-.417-6.649-1.091a17.72 17.72 0 0 1-6.676-4.256c-1.444-1.471-2.962-3.702-3.839-5.595-1.115-2.41-1.623-5.105-1.56-7.89.067-2.949 1.044-6.258 2.346-8.684 1.724-3.204 4.434-5.746 7.636-7.403 2.44-1.264 5.8-2.044 8.742-2.044" fill="#FF20CE" mask="url(#br)"/><mask id="bt" fill="#fff"><use xlink:href="#bs"/></mask><path d="M30.265 16.344c5.376 0 10.191 2.396 13.467 6.174 2.681 3.088 4.43 7.382 4.469 11.797.031 3.52-.909 6.836-2.652 9.638-1.432 2.295-3.545 4.477-5.831 5.918-2.74 1.728-5.973 2.767-9.453 2.767-2.157 0-4.525-.409-6.44-1.11a17.678 17.678 0 0 1-6.474-4.144c-1.475-1.486-2.856-3.485-3.744-5.41-1.075-2.336-1.616-4.941-1.584-7.659.035-2.996.903-6.084 2.225-8.551 1.687-3.144 4.311-5.686 7.448-7.342 2.472-1.306 5.58-2.078 8.569-2.078" fill="#FF20CF" mask="url(#bt)"/><mask id="bv" fill="#fff"><use xlink:href="#bu"/></mask><path d="M47.69 34.407c0 9.839-7.953 17.812-17.76 17.812-9.81 0-17.763-7.973-17.763-17.812 0-9.838 7.952-17.811 17.762-17.811 9.808 0 17.76 7.973 17.76 17.811" fill="#FF20D0" mask="url(#bv)"/><mask id="bx" fill="#fff"><use xlink:href="#bw"/></mask><path d="M31.795.795a22.012 22.012 0 0 0-19.07 11.043L3.057 28.63a22.138 22.138 0 0 0 0 22.083l9.666 16.794a22.012 22.012 0 0 0 19.07 11.043H51.13c7.867 0 15.136-4.21 19.068-11.043l9.67-16.794a22.138 22.138 0 0 0 0-22.083l-9.67-16.793A22.005 22.005 0 0 0 51.131.795H31.795z" mask="url(#bx)"/><path d="M35.991 51.963c0 .76-.614 1.377-1.37 1.377a1.382 1.382 0 0 1-1.385-1.377c0-.76.62-1.377 1.385-1.377.754 0 1.37.617 1.37 1.377zM48 50.798c.76 0 1.38.62 1.38 1.382a1.38 1.38 0 1 1-1.381-1.383zm3.703-22.461l-2.717 14.518H32.12l-.042-.129-.087-.295a.866.866 0 0 0-.068-.165l-4.668-13.93h24.446zM30.125 43.339l1.89 6.42a3.397 3.397 0 0 0-.828 2.204 3.433 3.433 0 0 0 3.435 3.42 3.422 3.422 0 0 0 3.359-2.817h6.628a3.42 3.42 0 0 0 6.818-.387 3.432 3.432 0 0 0-3.428-3.428c-1.288 0-2.396.72-2.98 1.77H37.71a3.411 3.411 0 0 0-3.089-1.982c-.277 0-.543.041-.801.104l-1.103-3.744h17.117v.001c.493 0 .918-.351 1.006-.836l3.1-16.562a1.02 1.02 0 0 0-1.006-1.21H26.571l-1.127-3.364a1.023 1.023 0 0 0-.97-.697h-4.195a1.021 1.021 0 1 0 0 2.045h3.458l6.388 19.063z" fill="#FFF" mask="url(#bx)"/></g></svg>