<svg width="47" height="85" xmlns="http://www.w3.org/2000/svg"><g fill="none" fill-rule="evenodd"><path d="M45.589.022c0 34.506-17.36 64.955-43.816 83.077" stroke="#FF2C8B" stroke-width="1.165"/><path d="M4.494 75.933l-3.027 6.355a.973.973 0 0 0 .954 1.391l7.015-.554a.975.975 0 0 0 .724-1.524L6.174 75.8a.973.973 0 0 0-1.68.133" fill="#FFF"/><path d="M4.494 75.933l-3.027 6.355a.973.973 0 0 0 .954 1.391l7.015-.554a.975.975 0 0 0 .724-1.524L6.174 75.8a.973.973 0 0 0-1.68.133z" stroke="#FF2C8B" stroke-width="1.165"/></g></svg>