<svg width="40" height="75" xmlns="http://www.w3.org/2000/svg"><g fill="none" fill-rule="evenodd"><path d="M38.843 72.942C15.951 56.814 1 30.166 1 .022" stroke="#00D6FF" stroke-width="1.165"/><path d="M36.199 65.864l3.027 6.356a.973.973 0 0 1-.955 1.39l-7.013-.555a.97.97 0 0 1-.802-.551.97.97 0 0 1 .076-.971l3.987-5.801a.975.975 0 0 1 .878-.42.978.978 0 0 1 .802.552" fill="#FFF"/><path d="M36.199 65.864l3.027 6.356a.973.973 0 0 1-.955 1.39l-7.013-.555a.97.97 0 0 1-.802-.551.97.97 0 0 1 .076-.971l3.987-5.801a.975.975 0 0 1 .878-.42.978.978 0 0 1 .802.552z" stroke="#00D6FF" stroke-width="1.165"/></g></svg>