<svg width="85" height="80" xmlns="http://www.w3.org/2000/svg" xmlns:xlink="http://www.w3.org/1999/xlink"><defs><path d="M32.895.722c-7.96 0-15.312 4.276-19.291 11.216l-9.78 17.056a22.566 22.566 0 0 0 0 22.43l9.78 17.057c3.979 6.941 11.331 11.216 19.291 11.216h19.56c7.957 0 15.311-4.275 19.29-11.216l9.78-17.056a22.566 22.566 0 0 0 0-22.43l-9.78-17.057C67.766 4.998 60.412.722 52.455.722" id="a"/><path d="M32.895.722c-7.96 0-15.312 4.276-19.291 11.216l-9.78 17.056a22.566 22.566 0 0 0 0 22.43l9.78 17.057c3.979 6.941 11.331 11.216 19.291 11.216h19.56c7.957 0 15.311-4.275 19.29-11.216l9.78-17.056a22.566 22.566 0 0 0 0-22.43l-9.78-17.057C67.766 4.998 60.412.722 52.455.722" id="c"/><path d="M32.895.722c-7.96 0-15.312 4.276-19.291 11.216l-9.78 17.056a22.566 22.566 0 0 0 0 22.43l9.78 17.057c3.979 6.941 11.331 11.216 19.291 11.216h19.56c7.957 0 15.311-4.275 19.29-11.216l9.78-17.056a22.566 22.566 0 0 0 0-22.43l-9.78-17.057C67.766 4.998 60.412.722 52.455.722" id="e"/><path d="M32.895.722c-7.96 0-15.312 4.276-19.291 11.216l-9.78 17.056a22.566 22.566 0 0 0 0 22.43l9.78 17.057c3.979 6.941 11.331 11.216 19.291 11.216h19.56c7.957 0 15.311-4.275 19.29-11.216l9.78-17.056a22.566 22.566 0 0 0 0-22.43l-9.78-17.057C67.766 4.998 60.412.722 52.455.722" id="g"/><path d="M32.895.722c-7.96 0-15.312 4.276-19.291 11.216l-9.78 17.056a22.566 22.566 0 0 0 0 22.43l9.78 17.057c3.979 6.941 11.331 11.216 19.291 11.216h19.56c7.957 0 15.311-4.275 19.29-11.216l9.78-17.056a22.566 22.566 0 0 0 0-22.43l-9.78-17.057C67.766 4.998 60.412.722 52.455.722" id="i"/><path d="M32.895.722c-7.96 0-15.312 4.276-19.291 11.216l-9.78 17.056a22.566 22.566 0 0 0 0 22.43l9.78 17.057c3.979 6.941 11.331 11.216 19.291 11.216h19.56c7.957 0 15.311-4.275 19.29-11.216l9.78-17.056a22.566 22.566 0 0 0 0-22.43l-9.78-17.057C67.766 4.998 60.412.722 52.455.722" id="k"/><path d="M32.895.722c-7.96 0-15.312 4.276-19.291 11.216l-9.78 17.056a22.566 22.566 0 0 0 0 22.43l9.78 17.057c3.979 6.941 11.331 11.216 19.291 11.216h19.56c7.957 0 15.311-4.275 19.29-11.216l9.78-17.056a22.566 22.566 0 0 0 0-22.43l-9.78-17.057C67.766 4.998 60.412.722 52.455.722" id="m"/><path d="M32.895.722c-7.96 0-15.312 4.276-19.291 11.216l-9.78 17.056a22.566 22.566 0 0 0 0 22.43l9.78 17.057c3.979 6.941 11.331 11.216 19.291 11.216h19.56c7.957 0 15.311-4.275 19.29-11.216l9.78-17.056a22.566 22.566 0 0 0 0-22.43l-9.78-17.057C67.766 4.998 60.412.722 52.455.722" id="o"/><path d="M32.895.722c-7.96 0-15.312 4.276-19.291 11.216l-9.78 17.056a22.566 22.566 0 0 0 0 22.43l9.78 17.057c3.979 6.941 11.331 11.216 19.291 11.216h19.56c7.957 0 15.311-4.275 19.29-11.216l9.78-17.056a22.566 22.566 0 0 0 0-22.43l-9.78-17.057C67.766 4.998 60.412.722 52.455.722" id="q"/><path d="M32.895.722c-7.96 0-15.312 4.276-19.291 11.216l-9.78 17.056a22.566 22.566 0 0 0 0 22.43l9.78 17.057c3.979 6.941 11.331 11.216 19.291 11.216h19.56c7.957 0 15.311-4.275 19.29-11.216l9.78-17.056a22.566 22.566 0 0 0 0-22.43l-9.78-17.057C67.766 4.998 60.412.722 52.455.722" id="s"/><path d="M32.895.722c-7.96 0-15.312 4.276-19.291 11.216l-9.78 17.056a22.566 22.566 0 0 0 0 22.43l9.78 17.057c3.979 6.941 11.331 11.216 19.291 11.216h19.56c7.957 0 15.311-4.275 19.29-11.216l9.78-17.056a22.566 22.566 0 0 0 0-22.43l-9.78-17.057C67.766 4.998 60.412.722 52.455.722" id="u"/><path d="M32.895.722c-7.96 0-15.312 4.276-19.291 11.216l-9.78 17.056a22.566 22.566 0 0 0 0 22.43l9.78 17.057c3.979 6.941 11.331 11.216 19.291 11.216h19.56c7.957 0 15.311-4.275 19.29-11.216l9.78-17.056a22.566 22.566 0 0 0 0-22.43l-9.78-17.057C67.766 4.998 60.412.722 52.455.722" id="w"/><path d="M32.895.722c-7.96 0-15.312 4.276-19.291 11.216l-9.78 17.056a22.566 22.566 0 0 0 0 22.43l9.78 17.057c3.979 6.941 11.331 11.216 19.291 11.216h19.56c7.957 0 15.311-4.275 19.29-11.216l9.78-17.056a22.566 22.566 0 0 0 0-22.43l-9.78-17.057C67.766 4.998 60.412.722 52.455.722" id="y"/><path d="M32.895.722c-7.96 0-15.312 4.276-19.291 11.216l-9.78 17.056a22.566 22.566 0 0 0 0 22.43l9.78 17.057c3.979 6.941 11.331 11.216 19.291 11.216h19.56c7.957 0 15.311-4.275 19.29-11.216l9.78-17.056a22.566 22.566 0 0 0 0-22.43l-9.78-17.057C67.766 4.998 60.412.722 52.455.722" id="A"/><path d="M32.895.722c-7.96 0-15.312 4.276-19.291 11.216l-9.78 17.056a22.566 22.566 0 0 0 0 22.43l9.78 17.057c3.979 6.941 11.331 11.216 19.291 11.216h19.56c7.957 0 15.311-4.275 19.29-11.216l9.78-17.056a22.566 22.566 0 0 0 0-22.43l-9.78-17.057C67.766 4.998 60.412.722 52.455.722" id="C"/><path d="M32.895.722c-7.96 0-15.312 4.276-19.291 11.216l-9.78 17.056a22.566 22.566 0 0 0 0 22.43l9.78 17.057c3.979 6.941 11.331 11.216 19.291 11.216h19.56c7.957 0 15.311-4.275 19.29-11.216l9.78-17.056a22.566 22.566 0 0 0 0-22.43l-9.78-17.057C67.766 4.998 60.412.722 52.455.722" id="E"/><path d="M32.895.722c-7.96 0-15.312 4.276-19.291 11.216l-9.78 17.056a22.566 22.566 0 0 0 0 22.43l9.78 17.057c3.979 6.941 11.331 11.216 19.291 11.216h19.56c7.957 0 15.311-4.275 19.29-11.216l9.78-17.056a22.566 22.566 0 0 0 0-22.43l-9.78-17.057C67.766 4.998 60.412.722 52.455.722" id="G"/><path d="M32.895.722c-7.96 0-15.312 4.276-19.291 11.216l-9.78 17.056a22.566 22.566 0 0 0 0 22.43l9.78 17.057c3.979 6.941 11.331 11.216 19.291 11.216h19.56c7.957 0 15.311-4.275 19.29-11.216l9.78-17.056a22.566 22.566 0 0 0 0-22.43l-9.78-17.057C67.766 4.998 60.412.722 52.455.722" id="I"/><path d="M32.895.722c-7.96 0-15.312 4.276-19.291 11.216l-9.78 17.056a22.566 22.566 0 0 0 0 22.43l9.78 17.057c3.979 6.941 11.331 11.216 19.291 11.216h19.56c7.957 0 15.311-4.275 19.29-11.216l9.78-17.056a22.566 22.566 0 0 0 0-22.43l-9.78-17.057C67.766 4.998 60.412.722 52.455.722" id="K"/><path d="M32.895.722c-7.96 0-15.312 4.276-19.291 11.216l-9.78 17.056a22.566 22.566 0 0 0 0 22.43l9.78 17.057c3.979 6.941 11.331 11.216 19.291 11.216h19.56c7.957 0 15.311-4.275 19.29-11.216l9.78-17.056a22.566 22.566 0 0 0 0-22.43l-9.78-17.057C67.766 4.998 60.412.722 52.455.722" id="M"/><path d="M32.895.722c-7.96 0-15.312 4.276-19.291 11.216l-9.78 17.056a22.566 22.566 0 0 0 0 22.43l9.78 17.057c3.979 6.941 11.331 11.216 19.291 11.216h19.56c7.957 0 15.311-4.275 19.29-11.216l9.78-17.056a22.566 22.566 0 0 0 0-22.43l-9.78-17.057C67.766 4.998 60.412.722 52.455.722" id="O"/><path d="M32.895.722c-7.96 0-15.312 4.276-19.291 11.216l-9.78 17.056a22.566 22.566 0 0 0 0 22.43l9.78 17.057c3.979 6.941 11.331 11.216 19.291 11.216h19.56c7.957 0 15.311-4.275 19.29-11.216l9.78-17.056a22.566 22.566 0 0 0 0-22.43l-9.78-17.057C67.766 4.998 60.412.722 52.455.722" id="Q"/><path d="M32.895.722c-7.96 0-15.312 4.276-19.291 11.216l-9.78 17.056a22.566 22.566 0 0 0 0 22.43l9.78 17.057c3.979 6.941 11.331 11.216 19.291 11.216h19.56c7.957 0 15.311-4.275 19.29-11.216l9.78-17.056a22.566 22.566 0 0 0 0-22.43l-9.78-17.057C67.766 4.998 60.412.722 52.455.722" id="S"/><path d="M32.895.722c-7.96 0-15.312 4.276-19.291 11.216l-9.78 17.056a22.566 22.566 0 0 0 0 22.43l9.78 17.057c3.979 6.941 11.331 11.216 19.291 11.216h19.56c7.957 0 15.311-4.275 19.29-11.216l9.78-17.056a22.566 22.566 0 0 0 0-22.43l-9.78-17.057C67.766 4.998 60.412.722 52.455.722" id="U"/><path d="M32.895.722c-7.96 0-15.312 4.276-19.291 11.216l-9.78 17.056a22.566 22.566 0 0 0 0 22.43l9.78 17.057c3.979 6.941 11.331 11.216 19.291 11.216h19.56c7.957 0 15.311-4.275 19.29-11.216l9.78-17.056a22.566 22.566 0 0 0 0-22.43l-9.78-17.057C67.766 4.998 60.412.722 52.455.722" id="W"/><path d="M32.895.722c-7.96 0-15.312 4.276-19.291 11.216l-9.78 17.056a22.566 22.566 0 0 0 0 22.43l9.78 17.057c3.979 6.941 11.331 11.216 19.291 11.216h19.56c7.957 0 15.311-4.275 19.29-11.216l9.78-17.056a22.566 22.566 0 0 0 0-22.43l-9.78-17.057C67.766 4.998 60.412.722 52.455.722" id="Y"/><path d="M32.895.722c-7.96 0-15.312 4.276-19.291 11.216l-9.78 17.056a22.566 22.566 0 0 0 0 22.43l9.78 17.057c3.979 6.941 11.331 11.216 19.291 11.216h19.56c7.957 0 15.311-4.275 19.29-11.216l9.78-17.056a22.566 22.566 0 0 0 0-22.43l-9.78-17.057C67.766 4.998 60.412.722 52.455.722" id="aa"/><path d="M32.895.722c-7.96 0-15.312 4.276-19.291 11.216l-9.78 17.056a22.566 22.566 0 0 0 0 22.43l9.78 17.057c3.979 6.941 11.331 11.216 19.291 11.216h19.56c7.957 0 15.311-4.275 19.29-11.216l9.78-17.056a22.566 22.566 0 0 0 0-22.43l-9.78-17.057C67.766 4.998 60.412.722 52.455.722" id="ac"/><path d="M32.895.722c-7.96 0-15.312 4.276-19.291 11.216l-9.78 17.056a22.566 22.566 0 0 0 0 22.43l9.78 17.057c3.979 6.941 11.331 11.216 19.291 11.216h19.56c7.957 0 15.311-4.275 19.29-11.216l9.78-17.056a22.566 22.566 0 0 0 0-22.43l-9.78-17.057C67.766 4.998 60.412.722 52.455.722" id="ae"/><path d="M32.895.722c-7.96 0-15.312 4.276-19.291 11.216l-9.78 17.056a22.566 22.566 0 0 0 0 22.43l9.78 17.057c3.979 6.941 11.331 11.216 19.291 11.216h19.56c7.957 0 15.311-4.275 19.29-11.216l9.78-17.056a22.566 22.566 0 0 0 0-22.43l-9.78-17.057C67.766 4.998 60.412.722 52.455.722" id="ag"/><path d="M32.895.722c-7.96 0-15.312 4.276-19.291 11.216l-9.78 17.056a22.566 22.566 0 0 0 0 22.43l9.78 17.057c3.979 6.941 11.331 11.216 19.291 11.216h19.56c7.957 0 15.311-4.275 19.29-11.216l9.78-17.056a22.566 22.566 0 0 0 0-22.43l-9.78-17.057C67.766 4.998 60.412.722 52.455.722" id="ai"/><path d="M32.895.722c-7.96 0-15.312 4.276-19.291 11.216l-9.78 17.056a22.566 22.566 0 0 0 0 22.43l9.78 17.057c3.979 6.941 11.331 11.216 19.291 11.216h19.56c7.957 0 15.311-4.275 19.29-11.216l9.78-17.056a22.566 22.566 0 0 0 0-22.43l-9.78-17.057C67.766 4.998 60.412.722 52.455.722" id="ak"/><path d="M32.895.722c-7.96 0-15.312 4.276-19.291 11.216l-9.78 17.056a22.566 22.566 0 0 0 0 22.43l9.78 17.057c3.979 6.941 11.331 11.216 19.291 11.216h19.56c7.957 0 15.311-4.275 19.29-11.216l9.78-17.056a22.566 22.566 0 0 0 0-22.43l-9.78-17.057C67.766 4.998 60.412.722 52.455.722" id="am"/><path d="M32.895.722c-7.96 0-15.312 4.276-19.291 11.216l-9.78 17.056a22.566 22.566 0 0 0 0 22.43l9.78 17.057c3.979 6.941 11.331 11.216 19.291 11.216h19.56c7.957 0 15.311-4.275 19.29-11.216l9.78-17.056a22.566 22.566 0 0 0 0-22.43l-9.78-17.057C67.766 4.998 60.412.722 52.455.722" id="ao"/><path d="M32.895.722c-7.96 0-15.312 4.276-19.291 11.216l-9.78 17.056a22.566 22.566 0 0 0 0 22.43l9.78 17.057c3.979 6.941 11.331 11.216 19.291 11.216h19.56c7.957 0 15.311-4.275 19.29-11.216l9.78-17.056a22.566 22.566 0 0 0 0-22.43l-9.78-17.057C67.766 4.998 60.412.722 52.455.722" id="aq"/><path d="M32.895.722c-7.96 0-15.312 4.276-19.291 11.216l-9.78 17.056a22.566 22.566 0 0 0 0 22.43l9.78 17.057c3.979 6.941 11.331 11.216 19.291 11.216h19.56c7.957 0 15.311-4.275 19.29-11.216l9.78-17.056a22.566 22.566 0 0 0 0-22.43l-9.78-17.057C67.766 4.998 60.412.722 52.455.722" id="as"/><path d="M32.895.722c-7.96 0-15.312 4.276-19.291 11.216l-9.78 17.056a22.566 22.566 0 0 0 0 22.43l9.78 17.057c3.979 6.941 11.331 11.216 19.291 11.216h19.56c7.957 0 15.311-4.275 19.29-11.216l9.78-17.056a22.566 22.566 0 0 0 0-22.43l-9.78-17.057C67.766 4.998 60.412.722 52.455.722" id="au"/><path d="M32.895.722c-7.96 0-15.312 4.276-19.291 11.216l-9.78 17.056a22.566 22.566 0 0 0 0 22.43l9.78 17.057c3.979 6.941 11.331 11.216 19.291 11.216h19.56c7.957 0 15.311-4.275 19.29-11.216l9.78-17.056a22.566 22.566 0 0 0 0-22.43l-9.78-17.057C67.766 4.998 60.412.722 52.455.722" id="aw"/><path d="M32.895.722c-7.96 0-15.312 4.276-19.291 11.216l-9.78 17.056a22.566 22.566 0 0 0 0 22.43l9.78 17.057c3.979 6.941 11.331 11.216 19.291 11.216h19.56c7.957 0 15.311-4.275 19.29-11.216l9.78-17.056a22.566 22.566 0 0 0 0-22.43l-9.78-17.057C67.766 4.998 60.412.722 52.455.722" id="ay"/><path d="M32.895.722c-7.96 0-15.312 4.276-19.291 11.216l-9.78 17.056a22.566 22.566 0 0 0 0 22.43l9.78 17.057c3.979 6.941 11.331 11.216 19.291 11.216h19.56c7.957 0 15.311-4.275 19.29-11.216l9.78-17.056a22.566 22.566 0 0 0 0-22.43l-9.78-17.057C67.766 4.998 60.412.722 52.455.722" id="aA"/><path d="M32.895.722c-7.96 0-15.312 4.276-19.291 11.216l-9.78 17.056a22.566 22.566 0 0 0 0 22.43l9.78 17.057c3.979 6.941 11.331 11.216 19.291 11.216h19.56c7.957 0 15.311-4.275 19.29-11.216l9.78-17.056a22.566 22.566 0 0 0 0-22.43l-9.78-17.057C67.766 4.998 60.412.722 52.455.722" id="aC"/><path d="M32.895.722c-7.96 0-15.312 4.276-19.291 11.216l-9.78 17.056a22.566 22.566 0 0 0 0 22.43l9.78 17.057c3.979 6.941 11.331 11.216 19.291 11.216h19.56c7.957 0 15.311-4.275 19.29-11.216l9.78-17.056a22.566 22.566 0 0 0 0-22.43l-9.78-17.057C67.766 4.998 60.412.722 52.455.722" id="aE"/><path d="M32.895.722c-7.96 0-15.312 4.276-19.291 11.216l-9.78 17.056a22.566 22.566 0 0 0 0 22.43l9.78 17.057c3.979 6.941 11.331 11.216 19.291 11.216h19.56c7.957 0 15.311-4.275 19.29-11.216l9.78-17.056a22.566 22.566 0 0 0 0-22.43l-9.78-17.057C67.766 4.998 60.412.722 52.455.722" id="aG"/><path d="M32.895.722c-7.96 0-15.312 4.276-19.291 11.216l-9.78 17.056a22.566 22.566 0 0 0 0 22.43l9.78 17.057c3.979 6.941 11.331 11.216 19.291 11.216h19.56c7.957 0 15.311-4.275 19.29-11.216l9.78-17.056a22.566 22.566 0 0 0 0-22.43l-9.78-17.057C67.766 4.998 60.412.722 52.455.722" id="aI"/><path d="M32.895.722c-7.96 0-15.312 4.276-19.291 11.216l-9.78 17.056a22.566 22.566 0 0 0 0 22.43l9.78 17.057c3.979 6.941 11.331 11.216 19.291 11.216h19.56c7.957 0 15.311-4.275 19.29-11.216l9.78-17.056a22.566 22.566 0 0 0 0-22.43l-9.78-17.057C67.766 4.998 60.412.722 52.455.722" id="aK"/><path d="M32.895.722c-7.96 0-15.312 4.276-19.291 11.216l-9.78 17.056a22.566 22.566 0 0 0 0 22.43l9.78 17.057c3.979 6.941 11.331 11.216 19.291 11.216h19.56c7.957 0 15.311-4.275 19.29-11.216l9.78-17.056a22.566 22.566 0 0 0 0-22.43l-9.78-17.057C67.766 4.998 60.412.722 52.455.722" id="aM"/><path d="M32.895.722c-7.96 0-15.312 4.276-19.291 11.216l-9.78 17.056a22.566 22.566 0 0 0 0 22.43l9.78 17.057c3.979 6.941 11.331 11.216 19.291 11.216h19.56c7.957 0 15.311-4.275 19.29-11.216l9.78-17.056a22.566 22.566 0 0 0 0-22.43l-9.78-17.057C67.766 4.998 60.412.722 52.455.722" id="aO"/><path d="M32.895.722c-7.96 0-15.312 4.276-19.291 11.216l-9.78 17.056a22.566 22.566 0 0 0 0 22.43l9.78 17.057c3.979 6.941 11.331 11.216 19.291 11.216h19.56c7.957 0 15.311-4.275 19.29-11.216l9.78-17.056a22.566 22.566 0 0 0 0-22.43l-9.78-17.057C67.766 4.998 60.412.722 52.455.722" id="aQ"/><path d="M32.895.722c-7.96 0-15.312 4.276-19.291 11.216l-9.78 17.056a22.566 22.566 0 0 0 0 22.43l9.78 17.057c3.979 6.941 11.331 11.216 19.291 11.216h19.56c7.957 0 15.311-4.275 19.29-11.216l9.78-17.056a22.566 22.566 0 0 0 0-22.43l-9.78-17.057C67.766 4.998 60.412.722 52.455.722" id="aS"/><path d="M32.895.722c-7.96 0-15.312 4.276-19.291 11.216l-9.78 17.056a22.566 22.566 0 0 0 0 22.43l9.78 17.057c3.979 6.941 11.331 11.216 19.291 11.216h19.56c7.957 0 15.311-4.275 19.29-11.216l9.78-17.056a22.566 22.566 0 0 0 0-22.43l-9.78-17.057C67.766 4.998 60.412.722 52.455.722" id="aU"/><path d="M32.895.722c-7.96 0-15.312 4.276-19.291 11.216l-9.78 17.056a22.566 22.566 0 0 0 0 22.43l9.78 17.057c3.979 6.941 11.331 11.216 19.291 11.216h19.56c7.957 0 15.311-4.275 19.29-11.216l9.78-17.056a22.566 22.566 0 0 0 0-22.43l-9.78-17.057C67.766 4.998 60.412.722 52.455.722" id="aW"/><path d="M32.895.722c-7.96 0-15.312 4.276-19.291 11.216l-9.78 17.056a22.566 22.566 0 0 0 0 22.43l9.78 17.057c3.979 6.941 11.331 11.216 19.291 11.216h19.56c7.957 0 15.311-4.275 19.29-11.216l9.78-17.056a22.566 22.566 0 0 0 0-22.43l-9.78-17.057C67.766 4.998 60.412.722 52.455.722" id="aY"/><path d="M32.895.722c-7.96 0-15.312 4.276-19.291 11.216l-9.78 17.056a22.566 22.566 0 0 0 0 22.43l9.78 17.057c3.979 6.941 11.331 11.216 19.291 11.216h19.56c7.957 0 15.311-4.275 19.29-11.216l9.78-17.056a22.566 22.566 0 0 0 0-22.43l-9.78-17.057C67.766 4.998 60.412.722 52.455.722" id="ba"/><path d="M32.895.722c-7.96 0-15.312 4.276-19.291 11.216l-9.78 17.056a22.566 22.566 0 0 0 0 22.43l9.78 17.057c3.979 6.941 11.331 11.216 19.291 11.216h19.56c7.957 0 15.311-4.275 19.29-11.216l9.78-17.056a22.566 22.566 0 0 0 0-22.43l-9.78-17.057C67.766 4.998 60.412.722 52.455.722" id="bc"/><path d="M32.895.722c-7.96 0-15.312 4.276-19.291 11.216l-9.78 17.056a22.566 22.566 0 0 0 0 22.43l9.78 17.057c3.979 6.941 11.331 11.216 19.291 11.216h19.56c7.957 0 15.311-4.275 19.29-11.216l9.78-17.056a22.566 22.566 0 0 0 0-22.43l-9.78-17.057C67.766 4.998 60.412.722 52.455.722" id="be"/><path d="M32.895.722c-7.96 0-15.312 4.276-19.291 11.216l-9.78 17.056a22.566 22.566 0 0 0 0 22.43l9.78 17.057c3.979 6.941 11.331 11.216 19.291 11.216h19.56c7.957 0 15.311-4.275 19.29-11.216l9.78-17.056a22.566 22.566 0 0 0 0-22.43l-9.78-17.057C67.766 4.998 60.412.722 52.455.722" id="bg"/><path d="M32.895.722c-7.96 0-15.312 4.276-19.291 11.216l-9.78 17.056a22.566 22.566 0 0 0 0 22.43l9.78 17.057c3.979 6.941 11.331 11.216 19.291 11.216h19.56c7.957 0 15.311-4.275 19.29-11.216l9.78-17.056a22.566 22.566 0 0 0 0-22.43l-9.78-17.057C67.766 4.998 60.412.722 52.455.722" id="bi"/><path d="M32.895.722c-7.96 0-15.312 4.276-19.291 11.216l-9.78 17.056a22.566 22.566 0 0 0 0 22.43l9.78 17.057c3.979 6.941 11.331 11.216 19.291 11.216h19.56c7.957 0 15.311-4.275 19.29-11.216l9.78-17.056a22.566 22.566 0 0 0 0-22.43l-9.78-17.057C67.766 4.998 60.412.722 52.455.722" id="bk"/><path d="M32.895.722c-7.96 0-15.312 4.276-19.291 11.216l-9.78 17.056a22.566 22.566 0 0 0 0 22.43l9.78 17.057c3.979 6.941 11.331 11.216 19.291 11.216h19.56c7.957 0 15.311-4.275 19.29-11.216l9.78-17.056a22.566 22.566 0 0 0 0-22.43l-9.78-17.057C67.766 4.998 60.412.722 52.455.722" id="bm"/><path d="M32.895.722c-7.96 0-15.312 4.276-19.291 11.216l-9.78 17.056a22.566 22.566 0 0 0 0 22.43l9.78 17.057c3.979 6.941 11.331 11.216 19.291 11.216h19.56c7.957 0 15.311-4.275 19.29-11.216l9.78-17.056a22.566 22.566 0 0 0 0-22.43l-9.78-17.057C67.766 4.998 60.412.722 52.455.722" id="bo"/><path d="M32.895.722c-7.96 0-15.312 4.276-19.291 11.216l-9.78 17.056a22.566 22.566 0 0 0 0 22.43l9.78 17.057c3.979 6.941 11.331 11.216 19.291 11.216h19.56c7.957 0 15.311-4.275 19.29-11.216l9.78-17.056a22.566 22.566 0 0 0 0-22.43l-9.78-17.057C67.766 4.998 60.412.722 52.455.722" id="bq"/><path d="M32.895.722c-7.96 0-15.312 4.276-19.291 11.216l-9.78 17.056a22.566 22.566 0 0 0 0 22.43l9.78 17.057c3.979 6.941 11.331 11.216 19.291 11.216h19.56c7.957 0 15.311-4.275 19.29-11.216l9.78-17.056a22.566 22.566 0 0 0 0-22.43l-9.78-17.057C67.766 4.998 60.412.722 52.455.722" id="bs"/><path d="M32.895.722c-7.96 0-15.312 4.276-19.291 11.216l-9.78 17.056a22.566 22.566 0 0 0 0 22.43l9.78 17.057c3.979 6.941 11.331 11.216 19.291 11.216h19.56c7.957 0 15.311-4.275 19.29-11.216l9.78-17.056a22.566 22.566 0 0 0 0-22.43l-9.78-17.057C67.766 4.998 60.412.722 52.455.722" id="bu"/><path d="M32.895.722c-7.96 0-15.312 4.276-19.291 11.216l-9.78 17.056a22.566 22.566 0 0 0 0 22.43l9.78 17.057c3.979 6.941 11.331 11.216 19.291 11.216h19.56c7.957 0 15.311-4.275 19.29-11.216l9.78-17.056a22.566 22.566 0 0 0 0-22.43l-9.78-17.057C67.766 4.998 60.412.722 52.455.722" id="bw"/></defs><g fill="none" fill-rule="evenodd"><mask id="b" fill="#fff"><use xlink:href="#a"/></mask><path d="M52.455.721h-19.56c-7.959 0-15.311 4.276-19.29 11.216L3.823 28.993a22.573 22.573 0 0 0 0 22.434l9.782 17.056c3.979 6.942 11.331 11.214 19.29 11.214h19.56c7.956 0 15.31-4.272 19.291-11.214l9.78-17.056a22.581 22.581 0 0 0 0-22.434l-9.78-17.056C67.766 4.997 60.411.721 52.455.721" fill="#FF258D" mask="url(#b)"/><mask id="d" fill="#fff"><use xlink:href="#c"/></mask><path d="M52.114.977c7.918 0 14.59 4.661 19.2 11.134.037.055 9.693 16.904 9.693 16.977 3.917 6.885 4.022 15.423-.04 22.226-.025.039-9.682 16.856-9.719 16.88C67.287 75.048 60 79.271 52.114 79.271c-.037 0-19.318-.005-19.351-.018-7.868-.012-14.275-4.829-19.085-11.102-.021-.027-9.667-16.838-9.684-16.87C.383 44.24.055 35.959 3.97 29.088c0-.05 9.635-16.882 9.658-16.923C17.468 5.226 24.849 1.038 32.73 1.013 32.77.989 52.066.977 52.114.977" fill="#FF258E" mask="url(#d)"/><mask id="f" fill="#fff"><use xlink:href="#e"/></mask><path d="M51.773 1.231c7.877 0 14.521 4.628 19.11 11.056.076.109 9.608 16.75 9.608 16.894 3.853 6.83 3.94 15.285-.087 22.022-.044.076-9.578 16.654-9.654 16.702-3.94 6.773-11.162 10.945-18.977 10.945-.07 0-19.077-.013-19.139-.036-7.782-.03-14.12-4.79-18.88-10.99a8654.82 8654.82 0 0 1-9.586-16.685C.596 44.173.263 35.985 4.115 29.181c0-.099 9.493-16.707 9.538-16.787C17.457 5.514 24.76 1.353 32.565 1.299c.08-.043 19.111-.068 19.209-.068" fill="#FF258F" mask="url(#f)"/><mask id="h" fill="#fff"><use xlink:href="#g"/></mask><path d="M51.433 1.486c7.836 0 14.452 4.591 19.017 10.975.117.164 9.525 16.596 9.525 16.813 3.79 6.778 3.859 15.146-.13 21.817-.068.116-9.48 16.455-9.592 16.525a21.818 21.818 0 0 1-18.82 10.808c-.106 0-18.837-.018-18.929-.054-7.694-.043-13.964-4.75-18.675-10.874-.062-.083-9.442-16.408-9.49-16.5C.81 44.106.472 36.012 4.261 29.275c0-.148 9.35-16.533 9.416-16.653 3.77-6.815 10.995-10.95 18.723-11.03.12-.068 18.886-.105 19.033-.105" fill="#FF2590" mask="url(#h)"/><mask id="j" fill="#fff"><use xlink:href="#i"/></mask><path d="M51.092 1.742c7.795 0 14.383 4.554 18.927 10.895.154.217 9.44 16.44 9.44 16.73 3.726 6.724 3.777 15.006-.173 21.615-.09.151-9.38 16.253-9.53 16.344A21.683 21.683 0 0 1 51.093 78c-.141 0-18.593-.027-18.717-.073-7.606-.059-13.81-4.71-18.47-10.765-.083-.107-9.33-16.187-9.393-16.31-3.488-6.812-3.83-14.815-.104-21.486 0-.194 9.205-16.357 9.295-16.517C17.436 6.094 24.585 1.984 32.235 1.877c.16-.087 18.662-.135 18.857-.135" fill="#FF2591" mask="url(#j)"/><mask id="l" fill="#fff"><use xlink:href="#k"/></mask><path d="M50.752 1.996c7.754 0 14.313 4.518 18.834 10.815.195.272 9.355 16.287 9.355 16.649 3.664 6.669 3.696 14.868-.216 21.41-.113.191-9.279 16.05-9.466 16.168a21.536 21.536 0 0 1-18.507 10.537c-.176 0-18.345-.057-18.507-.091-7.392-1.384-13.654-4.668-18.265-10.65-.104-.136-9.217-15.97-9.297-16.126C1.237 43.973.89 36.061 4.554 29.46c0-.244 9.063-16.182 9.173-16.382 3.7-6.694 10.77-10.78 18.344-10.911.2-.11 18.438-.171 18.68-.171" fill="#FF2592" mask="url(#l)"/><mask id="n" fill="#fff"><use xlink:href="#m"/></mask><path d="M50.413 2.25c7.712 0 14.242 4.485 18.742 10.736.234.327 9.269 16.133 9.269 16.57 3.603 6.611 3.616 14.727-.257 21.205-.136.228-9.182 15.849-9.407 15.988a21.394 21.394 0 0 1-18.347 10.403c-.213 0-18.104-.074-18.298-.111-7.303-1.375-13.496-4.63-18.058-10.537-.127-.164-9.107-15.754-9.203-15.938-3.401-6.66-3.754-14.475-.152-21.01 0-.298 8.918-16.01 9.05-16.25C17.416 6.672 24.409 2.614 31.907 2.453c.242-.128 18.213-.203 18.507-.203" fill="#FF2593" mask="url(#n)"/><mask id="p" fill="#fff"><use xlink:href="#o"/></mask><path d="M50.072 2.504c7.673 0 14.174 4.45 18.65 10.66.275.376 9.187 15.977 9.187 16.484 3.537 6.558 3.535 14.588-.302 21.002-.16.265-9.08 15.647-9.345 15.809a21.247 21.247 0 0 1-18.19 10.267c-.248 0-17.86-.083-18.09-.126-7.212-1.37-13.337-4.59-17.85-10.426-.148-.186-8.993-15.535-9.105-15.75-3.363-6.58-3.717-14.307-.18-20.776 0-.346 8.776-15.833 8.93-16.111C17.407 6.964 24.322 2.93 31.74 2.743c.284-.151 17.99-.239 18.332-.239" fill="#FF2594" mask="url(#p)"/><mask id="r" fill="#fff"><use xlink:href="#q"/></mask><path d="M49.731 2.76c7.634 0 14.105 4.412 18.559 10.578.313.433 9.102 15.824 9.102 16.401 3.474 6.505 3.453 14.451-.346 20.8-.184.304-8.98 15.447-9.279 15.634A21.127 21.127 0 0 1 49.731 76.3c-.281 0-17.614-.096-17.878-.144-7.126-1.36-13.182-4.553-17.648-10.312-.165-.216-8.877-15.32-9.003-15.567-3.322-6.505-3.684-14.137-.21-20.539 0-.392 8.632-15.656 8.81-15.977 3.592-6.507 10.433-10.517 17.773-10.73.324-.174 17.765-.272 18.156-.272" fill="#FF2595" mask="url(#r)"/><mask id="t" fill="#fff"><use xlink:href="#s"/></mask><path d="M49.39 3.014c7.592 0 14.034 4.376 18.469 10.498.352.487 9.017 15.67 9.017 16.321 3.41 6.45 3.371 14.31-.39 20.596-.205.34-8.879 15.244-9.217 15.452a20.978 20.978 0 0 1-17.879 9.995c-.316 0-17.373-.105-17.667-.16-7.037-1.352-13.026-4.514-17.441-10.2-.19-.244-8.767-15.102-8.91-15.38-3.28-6.43-3.643-13.97-.233-20.303 0-.442 8.488-15.483 8.688-15.843C17.384 7.542 24.145 3.562 31.41 3.32c.361-.196 17.54-.307 17.98-.307" fill="#FF2596" mask="url(#t)"/><mask id="v" fill="#fff"><use xlink:href="#u"/></mask><path d="M49.05 3.269c7.552 0 13.965 4.343 18.376 10.419.395.54 8.932 15.515 8.932 16.237 3.348 6.398 3.292 14.173-.432 20.392-.229.38-8.778 15.043-9.154 15.275A20.844 20.844 0 0 1 49.05 75.45c-.353 0-17.13-.118-17.455-.18-6.953-1.341-12.873-4.47-17.238-10.086-.209-.27-8.655-14.884-8.813-15.192-3.239-6.352-3.605-13.802-.259-20.068 0-.49 8.345-15.306 8.566-15.706C17.375 7.835 24.058 3.877 31.246 3.61c.402-.217 17.317-.34 17.804-.34" fill="#FF2597" mask="url(#v)"/><mask id="x" fill="#fff"><use xlink:href="#w"/></mask><path d="M48.71 3.523c7.51 0 13.895 4.305 18.285 10.339.434.595 8.847 15.362 8.847 16.157 3.285 6.343 3.21 14.033-.477 20.189-.25.415-8.678 14.841-9.091 15.096a20.713 20.713 0 0 1-17.565 9.725c-.388 0-16.887-.132-17.246-.201-6.862-1.332-12.715-4.431-17.028-9.971-.232-.298-8.545-14.667-8.718-15.008-3.198-6.274-3.568-13.632-.284-19.83 0-.54 8.2-15.132 8.444-15.572 3.488-6.325 10.092-10.255 17.205-10.55.441-.238 17.09-.374 17.627-.374" fill="#FF2598" mask="url(#x)"/><mask id="z" fill="#fff"><use xlink:href="#y"/></mask><path d="M48.369 3.779c7.47 0 13.826 4.27 18.193 10.258.475.648 8.764 15.207 8.764 16.077 3.221 6.286 3.129 13.895-.52 19.982-.273.455-8.579 14.642-9.028 14.92a20.58 20.58 0 0 1-17.41 9.588c-.42 0-16.642-.14-17.035-.217-6.775-1.325-12.559-4.392-16.825-9.861-.253-.323-8.43-14.447-8.62-14.82-3.156-6.2-3.531-13.463-.31-19.592 0-.59 8.057-14.957 8.323-15.44 3.453-6.262 9.98-10.168 17.018-10.487.48-.26 16.865-.408 17.45-.408" fill="#FF2599" mask="url(#z)"/><mask id="B" fill="#fff"><use xlink:href="#A"/></mask><path d="M48.03 4.033c7.426 0 13.755 4.233 18.103 10.178.513.705 8.677 15.054 8.677 15.995 3.156 6.234 3.048 13.757-.563 19.78-.296.493-8.479 14.437-8.968 14.74-3.72 5.858-10.223 9.453-17.25 9.453-.46 0-16.403-.153-16.824-.237-6.689-1.314-12.405-4.35-16.621-9.747-.273-.35-8.318-14.23-8.523-14.632-3.113-6.12-3.496-13.296-.338-19.357 0-.64 7.915-14.78 8.202-15.303C17.346 8.7 23.792 4.823 30.752 4.475c.522-.281 16.644-.442 17.278-.442" fill="#FF259A" mask="url(#B)"/><mask id="D" fill="#fff"><use xlink:href="#C"/></mask><path d="M47.689 4.287c7.39 0 13.687 4.198 18.011 10.098.553.757 8.59 14.902 8.59 15.913 3.098 6.18 2.968 13.62-.604 19.576-.318.531-8.38 14.238-8.905 14.563-3.701 5.776-10.136 9.317-17.092 9.317-.492 0-16.159-.164-16.616-.255-6.598-1.305-12.247-4.31-16.412-9.633-.296-.378-8.208-14.012-8.427-14.443-3.074-6.049-3.457-13.13-.362-19.125 0-.688 7.767-14.605 8.077-15.167 3.384-6.14 9.756-9.99 16.639-10.364.561-.307 16.416-.48 17.1-.48" fill="#FF259B" mask="url(#D)"/><mask id="F" fill="#fff"><use xlink:href="#E"/></mask><path d="M47.348 4.542c7.347 0 13.614 4.162 17.92 10.02.592.807 8.508 14.744 8.508 15.83 3.032 6.125 2.887 13.477-.65 19.37-.343.571-8.277 14.038-8.842 14.387-3.683 5.69-10.05 9.182-16.936 9.182-.53 0-15.914-.175-16.405-.273-6.511-1.298-12.091-4.273-16.21-9.52-.315-.405-8.091-13.797-8.326-14.26-3.034-5.97-3.422-12.959-.39-18.886 0-.736 7.627-14.43 7.958-15.034 3.35-6.078 9.644-9.903 16.446-10.305.604-.326 16.196-.511 16.927-.511" fill="#FF259C" mask="url(#F)"/><mask id="H" fill="#fff"><use xlink:href="#G"/></mask><path d="M47.006 4.798c7.31 0 13.547 4.124 17.828 9.937.638.863 8.423 14.592 8.423 15.749 2.971 6.075 2.806 13.34-.69 19.169-.364.606-8.18 13.834-8.777 14.206-3.666 5.612-9.968 9.046-16.784 9.046-.562 0-15.672-.185-16.195-.29-6.42-1.286-11.933-4.232-16-9.406-.339-.432-7.98-13.577-8.233-14.077-2.993-5.888-3.383-12.787-.413-18.648 0-.785 7.482-14.255 7.834-14.897C17.312 9.57 23.53 5.77 30.26 5.341c.64-.347 15.97-.543 16.747-.543" fill="#FF259D" mask="url(#H)"/><mask id="J" fill="#fff"><use xlink:href="#I"/></mask><path d="M46.667 5.052c7.267 0 13.476 4.089 17.736 9.859.673.915 8.34 14.436 8.34 15.665 2.903 6.018 2.723 13.203-.737 18.966-.388.645-8.077 13.634-8.716 14.028-3.643 5.526-9.882 8.91-16.623 8.91-.599 0-15.43-.196-15.984-.305-6.336-1.284-11.778-4.194-15.797-9.297-.36-.457-7.87-13.36-8.137-13.887-2.949-5.817-3.345-12.622-.44-18.415 0-.833 7.34-14.078 7.716-14.761 3.28-5.958 9.417-9.73 16.069-10.185.681-.37 15.744-.578 16.573-.578" fill="#FF259E" mask="url(#J)"/><mask id="L" fill="#fff"><use xlink:href="#K"/></mask><path d="M46.326 5.306c7.227 0 13.407 4.053 17.646 9.779.716.968 8.253 14.283 8.253 15.587 2.842 5.96 2.643 13.06-.776 18.758-.413.683-7.981 13.433-8.656 13.852-3.625 5.44-9.796 8.775-16.467 8.775-.634 0-15.187-.209-15.773-.328-6.249-1.272-11.622-4.151-15.592-9.18-.38-.485-7.756-13.145-8.04-13.702-2.907-5.74-3.307-12.45-.465-18.175 0-.885 7.196-13.905 7.593-14.63C17.293 10.15 23.355 6.4 29.93 5.92c.722-.391 15.519-.614 16.397-.614" fill="#FF259F" mask="url(#L)"/><mask id="N" fill="#fff"><use xlink:href="#M"/></mask><path d="M45.986 5.562c7.186 0 13.337 4.016 17.554 9.699.758 1.021 8.169 14.128 8.169 15.502 2.778 5.91 2.562 12.923-.82 18.558-.436.72-7.88 13.229-8.594 13.671-3.604 5.359-9.711 8.641-16.31 8.641-.669 0-14.942-.219-15.562-.347-6.162-1.263-11.466-4.11-15.386-9.068-.404-.511-7.645-12.926-7.943-13.514-2.866-5.66-3.272-12.28-.492-17.94 0-.933 7.053-13.73 7.473-14.492 3.209-5.835 9.193-9.558 15.688-10.064.765-.412 15.296-.646 16.223-.646" fill="#FF25A0" mask="url(#N)"/><mask id="P" fill="#fff"><use xlink:href="#O"/></mask><path d="M45.645 5.816c7.145 0 13.269 3.98 17.464 9.622.798 1.072 8.082 13.971 8.082 15.42 2.716 5.853 2.483 12.783-.864 18.351-.457.76-7.78 13.032-8.529 13.494-3.584 5.276-9.626 8.505-16.153 8.505-.703 0-14.7-.23-15.352-.363-6.073-1.254-11.31-4.07-15.18-8.957-.426-.533-7.534-12.709-7.847-13.328-2.825-5.584-3.234-12.11-.518-17.703 0-.982 6.91-13.555 7.351-14.358 3.175-5.772 9.08-9.467 15.5-10.002.802-.435 15.072-.68 16.046-.68" fill="#FF25A1" mask="url(#P)"/><mask id="R" fill="#fff"><use xlink:href="#Q"/></mask><path d="M45.306 6.07c7.104 0 13.196 3.947 17.372 9.544.837 1.122 7.997 13.82 7.997 15.335 2.65 5.8 2.401 12.645-.909 18.15-.478.796-7.676 12.827-8.466 13.316-3.563 5.192-9.54 8.368-15.994 8.368-.739 0-14.459-.239-15.144-.381-5.986-1.247-11.153-4.032-14.974-8.843-.448-.562-7.42-12.491-7.751-13.142-2.782-5.51-3.193-11.944-.54-17.468 0-1.03 6.764-13.379 7.228-14.219 3.138-5.715 8.966-9.383 15.309-9.944.845-.455 14.848-.715 15.872-.715" fill="#FF25A2" mask="url(#R)"/><mask id="T" fill="#fff"><use xlink:href="#S"/></mask><path d="M44.965 6.325c7.062 0 13.127 3.909 17.28 9.461.882 1.179 7.914 13.666 7.914 15.257 2.587 5.745 2.318 12.505-.955 17.946-.5.834-7.575 12.626-8.4 13.136-3.546 5.109-9.457 8.233-15.839 8.233-.774 0-14.214-.248-14.933-.396-5.899-1.24-10.997-3.996-14.767-8.732-.47-.59-7.31-12.273-7.656-12.956-2.743-5.432-3.159-11.775-.568-17.231 0-1.079 6.623-13.204 7.11-14.087 3.104-5.649 8.854-9.294 15.12-9.882.883-.478 14.621-.75 15.694-.75" fill="#FF25A3" mask="url(#T)"/><mask id="V" fill="#fff"><use xlink:href="#U"/></mask><path d="M44.623 6.58c7.025 0 13.058 3.874 17.19 9.382.924 1.23 7.828 13.51 7.828 15.175 2.527 5.691 2.24 12.366-.995 17.74-.523.872-7.477 12.424-8.34 12.958-3.527 5.027-9.372 8.098-15.683 8.098-.808 0-13.972-.259-14.721-.417-5.812-1.229-10.841-3.952-14.562-8.617-.492-.615-7.2-12.056-7.56-12.767-2.698-5.357-3.118-11.607-.594-16.995 0-1.13 6.483-13.028 6.989-13.954 3.069-5.586 8.74-9.206 14.928-9.821.926-.5 14.399-.781 15.52-.781" fill="#FF25A4" mask="url(#V)"/><mask id="X" fill="#fff"><use xlink:href="#W"/></mask><path d="M44.284 6.835c6.98 0 12.989 3.836 17.095 9.301.965 1.286 7.744 13.358 7.744 15.094 2.465 5.637 2.159 12.226-1.037 17.538-.548.907-7.378 12.222-8.276 12.783-3.508 4.94-9.288 7.958-15.526 7.958-.847 0-13.731-.269-14.51-.436-5.726-1.218-10.686-3.91-14.36-8.502-.514-.644-7.085-11.839-7.46-12.584-2.66-5.278-3.085-11.436-.62-16.757 0-1.176 6.336-12.853 6.865-13.817 3.035-5.528 8.63-9.121 14.74-9.761.964-.521 14.174-.817 15.345-.817" fill="#FF25A5" mask="url(#X)"/><mask id="Z" fill="#fff"><use xlink:href="#Y"/></mask><path d="M43.943 7.09c6.942 0 12.918 3.801 17.005 9.222 1.008 1.334 7.66 13.202 7.66 15.01 2.4 5.584 2.078 12.088-1.083 17.335-.57.946-7.276 12.022-8.213 12.603-3.487 4.859-9.201 7.826-15.369 7.826-.88 0-13.487-.282-14.3-.455-5.636-1.212-10.529-3.87-14.154-8.39-.534-.668-6.971-11.622-7.363-12.398-2.617-5.201-3.046-11.267-.646-16.52 0-1.23 6.192-12.679 6.743-13.683 3-5.462 8.516-9.031 14.553-9.697 1.002-.545 13.949-.854 15.167-.854" fill="#FF25A6" mask="url(#Z)"/><mask id="ab" fill="#fff"><use xlink:href="#aa"/></mask><path d="M43.603 7.344c6.9 0 12.847 3.764 16.915 9.142 1.05 1.387 7.573 13.049 7.573 14.93 2.336 5.53 1.996 11.95-1.124 17.127-.595.987-7.177 11.821-8.153 12.427-3.466 4.776-9.114 7.691-15.211 7.691-.916 0-13.245-.289-14.091-.472-5.548-1.204-10.37-3.83-13.947-8.28-.558-.692-6.86-11.401-7.266-12.207-2.576-5.127-3.01-11.1-.673-16.286 0-1.277 6.05-12.503 6.623-13.548 2.965-5.403 8.403-8.943 14.362-9.638 1.043-.565 13.724-.886 14.992-.886" fill="#FF25A7" mask="url(#ab)"/><mask id="ad" fill="#fff"><use xlink:href="#ac"/></mask><path d="M43.262 7.6c6.862 0 12.778 3.726 16.823 9.06 1.092 1.44 7.489 12.896 7.489 14.848 2.275 5.476 1.917 11.81-1.167 16.926-.617 1.023-7.077 11.619-8.09 12.25-3.446 4.69-9.029 7.552-15.055 7.552-.951 0-13.002-.298-13.878-.49-5.463-1.192-10.216-3.792-13.744-8.166-.579-.718-6.748-11.184-7.168-12.022-2.536-5.05-2.973-10.93-.7-16.05 0-1.325 5.906-12.327 6.501-13.411 2.931-5.342 8.291-8.857 14.172-9.58C29.53 7.934 41.946 7.6 43.262 7.6" fill="#FF25A8" mask="url(#ad)"/><mask id="af" fill="#fff"><use xlink:href="#ae"/></mask><path d="M42.921 7.854c6.821 0 12.71 3.69 16.733 8.982 1.133 1.49 7.404 12.744 7.404 14.766 2.21 5.419 1.834 11.67-1.212 16.72-.64 1.063-6.977 11.42-8.027 12.07-3.425 4.61-8.944 7.42-14.898 7.42-.986 0-12.759-.308-13.667-.51-5.376-1.184-10.06-3.751-13.538-8.05-.602-.748-6.637-10.967-7.073-11.835-2.493-4.975-2.936-10.763-.724-15.815 0-1.375 5.762-12.152 6.378-13.278 2.896-5.281 8.18-8.77 13.983-9.518 1.124-.608 13.276-.952 14.641-.952" fill="#FF25A9" mask="url(#af)"/><mask id="ah" fill="#fff"><use xlink:href="#ag"/></mask><path d="M42.582 8.108c6.777 0 12.639 3.655 16.639 8.902 1.178 1.542 7.319 12.587 7.319 14.687 2.148 5.364 1.756 11.53-1.254 16.516-.664 1.098-6.876 11.216-7.965 11.89-3.407 4.526-8.858 7.284-14.739 7.284-1.022 0-12.516-.319-13.46-.527-5.288-1.177-9.9-3.711-13.33-7.94-.624-.771-6.525-10.748-6.976-11.648-2.453-4.895-2.899-10.594-.75-15.575 0-1.424 5.62-11.979 6.257-13.145 2.858-5.218 8.066-8.682 13.793-9.456 1.164-.631 13.051-.988 14.466-.988" fill="#FF25AA" mask="url(#ah)"/><mask id="aj" fill="#fff"><use xlink:href="#ai"/></mask><path d="M42.24 8.362c6.741 0 12.57 3.62 16.55 8.823 1.218 1.594 7.236 12.432 7.236 14.604 2.082 5.31 1.67 11.391-1.3 16.313-.684 1.137-6.777 11.014-7.902 11.711-3.387 4.444-8.774 7.15-14.584 7.15-1.058 0-12.274-.327-13.246-.545-5.203-1.17-9.747-3.671-13.127-7.826-.648-.797-6.414-10.531-6.878-11.464-2.414-4.82-2.864-10.42-.78-15.339 0-1.47 5.48-11.799 6.138-13.008 2.827-5.159 7.953-8.596 13.606-9.397 1.202-.651 12.826-1.022 14.287-1.022" fill="#FF25AB" mask="url(#aj)"/><mask id="al" fill="#fff"><use xlink:href="#ak"/></mask><path d="M41.9 8.618c6.698 0 12.5 3.583 16.459 8.741 1.262 1.646 7.149 12.28 7.149 14.522 2.022 5.257 1.59 11.254-1.343 16.11-.708 1.174-6.674 10.816-7.839 11.535-3.366 4.36-8.688 7.011-14.425 7.011-1.091 0-12.033-.333-13.037-.562-5.114-1.159-9.59-3.63-12.92-7.712-.671-.824-6.304-10.314-6.784-11.275-2.37-4.747-2.825-10.257-.802-15.107 0-1.523 5.332-11.626 6.013-12.872 2.791-5.097 8.068-7.552 13.414-9.335 1.341-.448 12.603-1.056 14.116-1.056" fill="#FF25AC" mask="url(#al)"/><mask id="an" fill="#fff"><use xlink:href="#am"/></mask><path d="M41.56 8.872c6.657 0 12.428 3.545 16.366 8.663 1.305 1.698 7.064 12.124 7.064 14.44 1.958 5.202 1.51 11.115-1.383 15.906-.733 1.212-6.577 10.611-7.776 11.355-3.348 4.278-8.604 6.878-14.271 6.878-1.126 0-11.79-.344-12.828-.583-5.027-1.15-9.431-3.588-12.714-7.598-.693-.85-6.19-10.097-6.687-11.092-2.327-4.664-2.786-10.083-.827-14.866 0-1.573 5.19-11.451 5.893-12.739 2.756-5.035 7.95-7.496 13.225-9.276C29.005 9.497 40 8.872 41.56 8.872" fill="#FF25AC" mask="url(#an)"/><mask id="ap" fill="#fff"><use xlink:href="#ao"/></mask><path d="M41.22 9.127c6.615 0 12.358 3.51 16.273 8.582 1.35 1.75 6.981 11.97 6.981 14.358 1.895 5.15 1.43 10.977-1.427 15.703-.756 1.25-6.625 10.208-7.714 11.176-3.993 3.561-8.518 6.744-14.113 6.744-1.162 0-11.548-.355-12.618-.6-4.94-1.144-9.275-3.547-12.509-7.485-.717-.877-6.08-9.88-6.59-10.907-2.285-4.588-2.747-9.916-.853-14.63 0-1.62 5.047-11.276 5.773-12.603 2.72-4.973 7.834-7.44 13.035-9.215C28.88 9.763 39.61 9.127 41.22 9.127" fill="#FF25AD" mask="url(#ap)"/><mask id="ar" fill="#fff"><use xlink:href="#aq"/></mask><path d="M41.095 9.383c6.577 0 12.286 3.471 16.183 8.505 1.392 1.794 6.473 11.85 6.894 14.273.932 5.338 1.35 10.84-1.471 15.497-.778 1.288-6.524 10.005-7.648 11-3.951 3.492-8.435 6.607-13.958 6.607-1.199 0-11.307-.36-12.407-.619-4.853-1.134-9.12-3.509-12.303-7.373-.74-.897-5.966-9.661-6.492-10.717-2.247-4.515-2.711-9.748-.88-14.395 0-1.67 4.901-11.1 5.649-12.468 2.686-4.913 7.72-7.384 12.845-9.155 1.465-.505 11.929-1.155 13.588-1.155" fill="#FF25AE" mask="url(#ar)"/><mask id="at" fill="#fff"><use xlink:href="#as"/></mask><path d="M40.749 9.637c6.536 0 12.219 3.436 16.093 8.424 1.435 1.849 6.384 11.697 6.813 14.195.894 5.268 1.264 10.7-1.518 15.293-.802 1.325-6.426 9.8-7.586 10.82-3.901 3.427-8.348 6.47-13.802 6.47-1.23 0-11.06-.366-12.196-.632-4.765-1.129-8.96-3.474-12.098-7.265-.762-.922-5.853-9.441-6.395-10.53-2.202-4.436-2.675-9.578-.906-14.156 0-1.72 4.762-10.927 5.528-12.332 2.651-4.854 7.604-7.332 12.658-9.096 1.505-.526 11.704-1.191 13.409-1.191" fill="#FF25AF" mask="url(#at)"/><mask id="av" fill="#fff"><use xlink:href="#au"/></mask><path d="M40.407 9.891c6.495 0 12.146 3.4 16 8.345 1.48 1.898 6.3 11.543 6.727 14.112.862 5.2 1.186 10.558-1.56 15.09-.826 1.362-6.326 9.596-7.525 10.641-3.858 3.363-8.263 6.336-13.642 6.336-1.27 0-10.82-.376-11.987-.653-4.679-1.118-8.805-3.43-11.891-7.148-.788-.95-5.747-9.225-6.303-10.346-2.162-4.358-2.633-9.408-.928-13.92 0-1.765 4.619-10.75 5.407-12.198 2.615-4.792 7.489-7.274 12.465-9.034 1.547-.545 11.482-1.225 13.237-1.225" fill="#FF25B0" mask="url(#av)"/><mask id="ax" fill="#fff"><use xlink:href="#aw"/></mask><path d="M40.062 10.145c6.455 0 12.076 3.365 15.908 8.265 1.526 1.951 6.212 11.387 6.64 14.03.833 5.134 1.105 10.42-1.6 14.89-.847 1.397-6.227 9.391-7.463 10.461-3.81 3.297-8.174 6.2-13.485 6.2-1.303 0-10.58-.385-11.774-.674-4.593-1.107-8.65-3.388-11.687-7.032-.811-.974-5.635-9.009-6.204-10.16-2.121-4.284-2.6-9.241-.958-13.685 0-1.817 4.474-10.574 5.286-12.063 2.58-4.727 7.37-7.218 12.278-8.973 1.586-.567 11.253-1.259 13.06-1.259" fill="#FF25B1" mask="url(#ax)"/><mask id="az" fill="#fff"><use xlink:href="#ay"/></mask><path d="M39.518 10.401c6.412 0 12.006 3.326 15.819 8.185 1.565 1.999 6.127 11.232 6.555 13.946.799 5.068 1.024 10.284-1.645 14.684-.871 1.438-6.127 9.194-7.402 10.287-3.767 3.235-8.09 6.063-13.327 6.063-1.339 0-10.338-.39-11.564-.69-4.508-1.098-8.494-3.349-11.484-6.922-.832-.999-5.521-8.79-6.105-9.972-2.081-4.206-1.787-8.864-.985-13.45.322-1.837 4.333-10.397 5.165-11.926 2.547-4.668 7.256-7.16 12.09-8.91 1.63-.59 11.029-1.295 12.883-1.295" fill="#FF25B2" mask="url(#az)"/><mask id="aB" fill="#fff"><use xlink:href="#aA"/></mask><path d="M39.177 10.656c6.373 0 11.935 3.29 15.727 8.104 1.613 2.049 6.044 11.079 6.469 13.866.768 5 .944 10.143-1.684 14.477-.898 1.479-6.028 8.993-7.342 10.11-3.719 3.171-8.003 5.93-13.17 5.93-1.372 0-10.094-.398-11.355-.71-4.42-1.091-8.337-3.308-11.274-6.808-.861-1.022-5.41-8.572-6.012-9.786-2.037-4.13-1.778-8.705-1.008-13.213.32-1.887 4.19-10.223 5.042-11.79 2.51-4.608 7.14-7.106 11.898-8.854 1.671-.613 10.807-1.326 12.709-1.326" fill="#FF25B3" mask="url(#aB)"/><mask id="aD" fill="#fff"><use xlink:href="#aC"/></mask><path d="M38.837 10.91c6.332 0 11.866 3.254 15.634 8.026 1.66 2.099 5.96 10.922 6.388 13.782.733 4.934.862 10.005-1.732 14.276-.92 1.514-5.925 8.79-7.275 9.932-3.678 3.105-7.92 5.792-13.015 5.792-1.408 0-9.853-.405-11.144-.728-4.335-1.084-8.182-3.266-11.072-6.694-.881-1.048-5.298-8.354-5.912-9.6-1.998-4.053-1.771-8.55-1.035-12.978.323-1.933 4.045-10.045 4.923-11.655 2.474-4.543 7.02-7.05 11.706-8.79 1.71-.637 10.582-1.363 12.534-1.363" fill="#FF25B4" mask="url(#aD)"/><mask id="aF" fill="#fff"><use xlink:href="#aE"/></mask><path d="M38.496 11.164c6.292 0 11.797 3.219 15.542 7.946 1.704 2.148 5.88 10.766 6.303 13.703.701 4.867.782 9.865-1.775 14.07-.942 1.55-5.824 8.59-7.212 9.753-3.634 3.04-7.834 5.657-12.858 5.657-1.443 0-9.61-.41-10.933-.744-4.249-1.077-8.024-3.228-10.866-6.585-.907-1.07-5.187-8.133-5.816-9.412-1.956-3.976-1.765-8.395-1.06-12.739.32-1.988 3.903-9.873 4.8-11.52 2.44-4.485 6.905-6.994 11.518-8.733 1.75-.66 10.358-1.396 12.357-1.396" fill="#FF25B5" mask="url(#aF)"/><mask id="aH" fill="#fff"><use xlink:href="#aG"/></mask><path d="M38.155 11.42c6.251 0 11.727 3.18 15.452 7.864 1.748 2.202 5.798 10.613 6.218 13.621.67 4.8.7 9.726-1.819 13.868-.965 1.589-5.721 8.39-7.149 9.574-3.59 2.978-7.75 5.522-12.702 5.522-1.479 0-9.37-.413-10.722-.765-4.164-1.063-7.868-3.184-10.66-6.47-.932-1.094-5.078-7.915-5.72-9.223-1.915-3.902-1.757-8.24-1.086-12.506.32-2.036 3.76-9.696 4.678-11.385 2.407-4.42 6.788-6.938 11.329-8.67 1.79-.685 10.134-1.43 12.181-1.43" fill="#FF25B6" mask="url(#aH)"/><mask id="aJ" fill="#fff"><use xlink:href="#aI"/></mask><path d="M37.814 11.674c6.21 0 11.656 3.144 15.36 7.786 1.796 2.248 5.719 10.456 6.133 13.54.637 4.733.62 9.585-1.861 13.662-.988 1.624-5.619 8.19-7.087 9.397-3.543 2.912-7.664 5.385-12.545 5.385-1.512 0-9.127-.42-10.511-.78-4.077-1.06-7.71-3.146-10.455-6.358-.957-1.12-4.966-7.698-5.623-9.039C9.352 41.442 9.474 37.186 10.111 33c.321-2.086 3.618-9.522 4.56-11.252 2.373-4.361 6.668-6.879 11.139-8.61 1.827-.707 9.908-1.463 12.004-1.463" fill="#FF25B7" mask="url(#aJ)"/><mask id="aL" fill="#fff"><use xlink:href="#aK"/></mask><path d="M37.474 11.928c6.17 0 11.586 3.107 15.27 7.705 1.84 2.297 5.638 10.304 6.045 13.458.608 4.67.542 9.449-1.902 13.46-1.01 1.663-5.518 7.99-7.026 9.218-3.5 2.853-7.578 5.25-12.387 5.25-1.55 0-8.888-.426-10.301-.799-3.99-1.05-7.553-3.105-10.248-6.245-.981-1.143-4.857-7.478-5.529-8.853-1.83-3.745-1.744-7.923-1.137-12.031.316-2.136 3.475-9.344 4.438-11.114 2.334-4.3 6.549-6.825 10.946-8.55 1.87-.734 9.686-1.499 11.83-1.499" fill="#FF25B8" mask="url(#aL)"/><mask id="aN" fill="#fff"><use xlink:href="#aM"/></mask><path d="M37.135 12.183c6.129 0 11.514 3.07 15.176 7.626 1.887 2.347 5.562 10.146 5.964 13.376.572 4.604.457 9.308-1.948 13.256-1.036 1.7-5.415 7.792-6.963 9.039-3.458 2.788-7.492 5.114-12.23 5.114-1.586 0-8.646-.432-10.091-.817-3.905-1.043-7.395-3.063-10.043-6.13-1.005-1.167-4.747-7.262-5.433-8.665-1.786-3.673-1.737-7.77-1.163-11.797.312-2.186 3.333-9.17 4.317-10.98 2.3-4.24 6.432-6.768 10.76-8.49 1.905-.757 9.46-1.532 11.654-1.532" fill="#FF25B9" mask="url(#aN)"/><mask id="aP" fill="#fff"><use xlink:href="#aO"/></mask><path d="M36.794 12.439c6.088 0 11.445 3.031 15.088 7.544 1.93 2.395 5.48 9.991 5.875 13.297.542 4.538.38 9.168-1.988 13.05-1.063 1.736-5.313 7.594-6.903 8.862-3.413 2.724-7.406 4.98-12.072 4.98-1.62 0-8.404-.438-9.881-.836-3.82-1.034-7.24-3.024-9.839-6.018-1.032-1.19-4.632-7.044-5.332-8.481-1.75-3.595-1.732-7.61-1.19-11.557.306-2.238 3.188-8.996 4.193-10.848 2.265-4.177 6.313-6.71 10.57-8.428 1.945-.786 9.234-1.565 11.479-1.565" fill="#FF25BA" mask="url(#aP)"/><mask id="aR" fill="#fff"><use xlink:href="#aQ"/></mask><path d="M36.453 12.693c6.05 0 11.374 2.996 14.996 7.466 1.978 2.445 5.406 9.834 5.79 13.213.509 4.474.298 9.028-2.03 12.846-1.085 1.776-5.21 7.399-6.84 8.684-3.371 2.662-7.32 4.845-11.916 4.845-1.655 0-8.161-.44-9.672-.856-3.731-1.025-7.082-2.981-9.63-5.904-1.059-1.212-4.524-6.822-5.236-8.293-1.707-3.517-1.727-7.45-1.218-11.322.302-2.29 3.047-8.82 4.074-10.711 2.231-4.117 6.195-6.655 10.38-8.368 1.982-.814 9.01-1.6 11.302-1.6" fill="#FF25BB" mask="url(#aR)"/><mask id="aT" fill="#fff"><use xlink:href="#aS"/></mask><path d="M36.113 12.947c6.006 0 11.303 2.958 14.903 7.388 2.026 2.49 5.336 9.677 5.708 13.13.476 4.41.216 8.89-2.078 12.644-1.106 1.811-5.103 7.2-6.773 8.503-3.33 2.6-7.238 4.71-11.76 4.71-1.691 0-7.923-.442-9.46-.872-3.65-1.018-6.926-2.942-9.428-5.79-1.084-1.238-4.413-6.61-5.139-8.11-1.666-3.441-1.72-7.291-1.243-11.086.294-2.338 2.904-8.643 3.95-10.576 2.198-4.053 6.078-6.596 10.192-8.307 2.022-.84 8.787-1.634 11.128-1.634" fill="#FF25BC" mask="url(#aT)"/><mask id="aV" fill="#fff"><use xlink:href="#aU"/></mask><path d="M35.772 13.203c5.966 0 11.232 2.921 14.813 7.308 2.072 2.537 5.261 9.522 5.622 13.047.445 4.35.135 8.752-2.12 12.441-1.13 1.85-4.998 7.003-6.712 8.327-3.287 2.534-7.151 4.57-11.603 4.57-1.725 0-7.682-.445-9.25-.89-3.564-1.007-6.767-2.9-9.221-5.678-1.11-1.258-4.304-6.39-5.042-7.921-1.626-3.365-1.714-7.133-1.27-10.849.287-2.39 2.761-8.468 3.83-10.439 2.161-3.996 5.956-6.538 10-8.247 2.062-.872 8.564-1.669 10.953-1.669" fill="#FF25BD" mask="url(#aV)"/><mask id="aX" fill="#fff"><use xlink:href="#aW"/></mask><path d="M35.431 13.457c5.927 0 11.162 2.884 14.721 7.228 2.12 2.587 5.192 9.367 5.538 12.965.412 4.288.055 8.613-2.162 12.238-1.157 1.885-4.895 6.808-6.65 8.147-3.244 2.479-7.067 4.437-11.447 4.437-1.76 0-7.44-.448-9.038-.908-3.48-1.002-6.61-2.858-9.017-5.567-1.135-1.279-4.192-6.17-4.946-7.734-1.583-3.286-1.707-6.974-1.294-10.613.278-2.438 2.619-8.29 3.71-10.305 2.124-3.932 5.834-6.482 9.81-8.186 2.097-.9 8.339-1.702 10.775-1.702" fill="#FF25BE" mask="url(#aX)"/><mask id="aZ" fill="#fff"><use xlink:href="#aY"/></mask><path d="M35.09 13.712c5.887 0 11.093 2.847 14.631 7.148 2.166 2.632 5.122 9.21 5.453 12.884.38 4.226-.027 8.473-2.207 12.03-1.18 1.928-4.788 6.616-6.587 7.973-3.202 2.413-6.98 4.301-11.29 4.301-1.795 0-7.2-.451-8.827-.927-3.395-.993-6.455-2.818-8.81-5.453-1.165-1.3-4.085-5.95-4.85-7.546-1.543-3.214-1.702-6.817-1.32-10.378.266-2.49 2.476-8.116 3.587-10.172 2.09-3.87 5.716-6.422 9.62-8.124 2.134-.93 8.114-1.736 10.6-1.736" fill="#FF25BF" mask="url(#aZ)"/><mask id="bb" fill="#fff"><use xlink:href="#ba"/></mask><path d="M34.752 13.966c5.843 0 11.02 2.81 14.536 7.068 2.216 2.682 5.054 9.055 5.368 12.805.35 4.162-.106 8.333-2.247 11.824-1.204 1.964-4.684 6.425-6.526 7.795-3.163 2.351-6.895 4.165-11.131 4.165-1.831 0-6.963-.451-8.619-.945-3.31-.986-6.297-2.776-8.606-5.339-1.19-1.323-3.974-5.733-4.751-7.363-1.504-3.134-1.695-6.653-1.348-10.137.257-2.543 2.332-7.944 3.466-10.037 2.056-3.809 5.594-6.368 9.431-8.065 2.171-.962 7.89-1.771 10.427-1.771" fill="#FF25C0" mask="url(#bb)"/><mask id="bd" fill="#fff"><use xlink:href="#bc"/></mask><path d="M34.41 14.222c5.802 0 10.95 2.773 14.446 6.988 2.265 2.727 4.99 8.898 5.286 12.721.315 4.1-.191 8.194-2.293 11.623-1.23 1.999-4.576 6.228-6.464 7.616-3.118 2.29-6.809 4.03-10.976 4.03-1.866 0-6.72-.452-8.407-.963-3.225-.98-6.14-2.737-8.398-5.228-1.222-1.343-3.866-5.514-4.657-7.176-1.46-3.056-1.688-6.492-1.372-9.902.24-2.59 2.192-7.765 3.343-9.902 2.024-3.748 5.474-6.307 9.244-8.004 2.204-.992 7.664-1.803 10.247-1.803" fill="#FF25C1" mask="url(#bd)"/><mask id="bf" fill="#fff"><use xlink:href="#be"/></mask><path d="M34.07 14.476c5.764 0 10.88 2.736 14.355 6.908 2.31 2.775 4.924 8.741 5.199 12.64.283 4.042-.27 8.056-2.336 11.419-1.25 2.036-4.47 6.04-6.401 7.437-3.078 2.23-6.723 3.895-10.817 3.895-1.902 0-6.48-.452-8.199-.981-3.14-.97-5.982-2.695-8.193-5.114-1.247-1.364-3.753-5.295-4.558-6.989-1.42-2.983-1.683-6.333-1.398-9.668.225-2.642 2.047-7.589 3.222-9.766 1.985-3.686 5.353-6.25 9.054-7.944 2.238-1.024 7.44-1.837 10.072-1.837" fill="#FF25C2" mask="url(#bf)"/><mask id="bh" fill="#fff"><use xlink:href="#bg"/></mask><path d="M33.73 14.73c5.721 0 10.809 2.698 14.264 6.83 2.36 2.82 4.86 8.588 5.112 12.557.253 3.98-.35 7.919-2.378 11.216-1.275 2.072-4.36 5.847-6.336 7.257-3.04 2.169-6.64 3.761-10.662 3.761-1.938 0-6.242-.451-7.988-1-3.057-.963-5.823-2.652-7.987-4.999-1.277-1.387-3.646-5.078-4.464-6.804-1.376-2.907-1.677-6.172-1.424-9.431.209-2.693 1.907-7.413 3.1-9.631 1.952-3.625 5.232-6.191 8.866-7.883 2.273-1.06 7.214-1.873 9.897-1.873" fill="#FF25C3" mask="url(#bh)"/><mask id="bj" fill="#fff"><use xlink:href="#bi"/></mask><path d="M33.39 14.985c5.68 0 10.736 2.66 14.171 6.749 2.41 2.87 4.8 8.43 5.03 12.475.22 3.92-.433 7.782-2.423 11.013-1.3 2.11-4.252 5.658-6.274 7.08-3 2.108-6.556 3.624-10.505 3.624-1.97 0-6.003-.448-7.777-1.018-2.974-.954-5.665-2.61-7.783-4.89-1.304-1.403-3.537-4.855-4.365-6.613-1.336-2.827-1.672-6.01-1.45-9.196.19-2.743 1.765-7.236 2.98-9.495 1.916-3.563 5.107-6.131 8.673-7.823 2.31-1.093 6.991-1.906 9.722-1.906" fill="#FF25C4" mask="url(#bj)"/><mask id="bl" fill="#fff"><use xlink:href="#bk"/></mask><path d="M33.048 15.24c5.642 0 10.666 2.624 14.082 6.668 2.458 2.914 4.74 8.277 4.944 12.395.19 3.858-.513 7.64-2.467 10.807-1.322 2.147-4.142 5.471-6.21 6.903-2.96 2.049-6.47 3.488-10.349 3.488-2.006 0-5.764-.446-7.566-1.036-2.892-.947-5.508-2.568-7.578-4.775-1.333-1.423-3.426-4.637-4.27-6.429-1.292-2.753-1.664-5.843-1.473-8.958.17-2.793 1.62-7.062 2.857-9.362 1.882-3.5 4.985-6.073 8.484-7.76 2.343-1.13 6.768-1.94 9.546-1.94" fill="#FF25C5" mask="url(#bl)"/><mask id="bn" fill="#fff"><use xlink:href="#bm"/></mask><path d="M32.708 15.495c5.6 0 10.595 2.585 13.99 6.589 2.508 2.958 4.685 8.12 4.86 12.312.156 3.8-.595 7.502-2.51 10.605-1.348 2.182-4.033 5.283-6.15 6.722-2.921 1.99-6.383 3.353-10.19 3.353-2.042 0-5.527-.44-7.356-1.054-2.809-.94-5.35-2.527-7.37-4.661-1.366-1.441-3.32-4.417-4.174-6.243-1.254-2.677-1.66-5.681-1.502-8.722.147-2.844 1.48-6.886 2.738-9.226 1.845-3.441 4.86-6.014 8.292-7.701 2.377-1.166 6.544-1.974 9.372-1.974" fill="#FF25C6" mask="url(#bn)"/><mask id="bp" fill="#fff"><use xlink:href="#bo"/></mask><path d="M32.369 15.749c5.56 0 10.522 2.548 13.897 6.509 2.56 3.004 4.63 7.965 4.774 12.23.126 3.743-.674 7.363-2.551 10.401-1.375 2.222-3.921 5.097-6.087 6.546-2.884 1.93-6.3 3.217-10.033 3.217-2.08 0-5.288-.437-7.146-1.071-2.727-.935-5.193-2.486-7.166-4.551-1.396-1.459-3.212-4.196-4.078-6.052-1.21-2.602-1.65-5.519-1.525-8.49.12-2.892 1.337-6.708 2.612-9.09 1.815-3.38 4.737-5.956 8.109-7.641 2.404-1.204 6.316-2.008 9.194-2.008" fill="#FF25C7" mask="url(#bp)"/><mask id="br" fill="#fff"><use xlink:href="#bq"/></mask><path d="M32.026 16.005c5.52 0 10.453 2.509 13.81 6.428 2.608 3.05 4.577 7.809 4.687 12.149.095 3.686-.76 7.22-2.596 10.196-1.401 2.256-3.81 4.915-6.023 6.368-2.844 1.87-6.214 3.083-9.878 3.083-2.11 0-5.052-.432-6.936-1.091a17.907 17.907 0 0 1-6.96-4.437c-1.425-1.476-3.104-3.98-3.979-5.87-1.17-2.523-1.646-5.351-1.553-8.249.096-2.944 1.201-6.532 2.494-8.955 1.781-3.317 4.615-5.895 7.915-7.58 2.439-1.245 6.096-2.042 9.02-2.042" fill="#FF25C8" mask="url(#br)"/><mask id="bt" fill="#fff"><use xlink:href="#bs"/></mask><path d="M31.687 16.26c5.48 0 10.38 2.47 13.714 6.351 2.66 3.092 4.53 7.653 4.607 12.063.062 3.63-.843 7.083-2.642 9.995-1.422 2.291-3.695 4.729-5.96 6.187-2.809 1.814-6.13 2.948-9.719 2.948-2.15 0-4.816-.425-6.725-1.11a17.882 17.882 0 0 1-6.754-4.322c-1.461-1.492-2.998-3.76-3.885-5.684-1.127-2.449-1.64-5.184-1.577-8.014.068-2.994 1.054-6.353 2.373-8.82 1.745-3.254 4.486-5.836 7.725-7.519 2.468-1.284 5.868-2.076 8.843-2.076" fill="#FF25C9" mask="url(#bt)"/><mask id="bv" fill="#fff"><use xlink:href="#bu"/></mask><path d="M31.347 16.513c5.436 0 10.31 2.434 13.623 6.272 2.713 3.135 4.482 7.498 4.519 11.983.034 3.575-.917 6.943-2.683 9.791-1.447 2.327-3.584 4.545-5.897 6.01-2.771 1.754-6.044 2.81-9.562 2.81-2.182 0-4.578-.416-6.517-1.127a17.912 17.912 0 0 1-6.548-4.21c-1.493-1.509-2.889-3.54-3.786-5.496-1.088-2.37-1.635-5.02-1.605-7.778.037-3.044.916-6.18 2.253-8.686 1.707-3.194 4.361-5.774 7.533-7.457 2.502-1.327 5.647-2.112 8.67-2.112" fill="#FF25CA" mask="url(#bv)"/><mask id="bx" fill="#fff"><use xlink:href="#bw"/></mask><path d="M48.974 34.86c0 9.993-8.045 18.093-17.967 18.093-9.924 0-17.969-8.1-17.969-18.092 0-9.993 8.045-18.092 17.969-18.092 9.922 0 17.967 8.099 17.967 18.092" fill="#FF25CB" mask="url(#bx)"/><g fill="#FFF"><path d="M28.774 52.471h9v-21.91h-9v21.91zm20.118-.001h8.472V30.56h-8.472v21.91zm-10.059.001h8.472v-21.91h-8.472v21.91zM23.77 52.47a.767.767 0 0 0-.769.765c0 .423.343.765.769.765h39.465a.765.765 0 1 0 0-1.53h-4.28V30.562h4.28a.764.764 0 1 0 0-1.53H28.163a.779.779 0 0 0-.214-.032.801.801 0 0 0-.216.033h-3.964a.766.766 0 0 0-.769.765c0 .421.343.764.769.764h3.416V52.47h-3.416zM67.24 59H18.761c-.423 0-.762.446-.762 1s.339 1 .762 1H67.24c.42 0 .761-.446.761-1s-.34-1-.76-1"/><path d="M68.61 28.61L43.966 15.098a.806.806 0 0 0-.767-.002L18.393 28.61a.728.728 0 0 0-.291 1.014.779.779 0 0 0 .675.377.8.8 0 0 0 .382-.097L43.579 16.6l24.262 13.3a.792.792 0 0 0 1.057-.277.728.728 0 0 0-.288-1.014"/></g></g></svg>