<svg width="83" height="78" xmlns="http://www.w3.org/2000/svg" xmlns:xlink="http://www.w3.org/1999/xlink"><defs><path d="M31.912 1.884a21.762 21.762 0 0 0-18.838 10.84L3.524 29.21a21.613 21.613 0 0 0 0 21.677l9.55 16.486a21.764 21.764 0 0 0 18.838 10.839h19.1a21.76 21.76 0 0 0 18.836-10.839l9.55-16.486a21.613 21.613 0 0 0 0-21.677l-9.55-16.486a21.758 21.758 0 0 0-18.836-10.84" id="a"/><path d="M31.912 1.884a21.762 21.762 0 0 0-18.838 10.84L3.524 29.21a21.613 21.613 0 0 0 0 21.677l9.55 16.486a21.764 21.764 0 0 0 18.838 10.839h19.1a21.76 21.76 0 0 0 18.836-10.839l9.55-16.486a21.613 21.613 0 0 0 0-21.677l-9.55-16.486a21.758 21.758 0 0 0-18.836-10.84" id="c"/><path d="M31.912 1.884a21.762 21.762 0 0 0-18.838 10.84L3.524 29.21a21.613 21.613 0 0 0 0 21.677l9.55 16.486a21.764 21.764 0 0 0 18.838 10.839h19.1a21.76 21.76 0 0 0 18.836-10.839l9.55-16.486a21.613 21.613 0 0 0 0-21.677l-9.55-16.486a21.758 21.758 0 0 0-18.836-10.84" id="e"/><path d="M31.912 1.884a21.762 21.762 0 0 0-18.838 10.84L3.524 29.21a21.613 21.613 0 0 0 0 21.677l9.55 16.486a21.764 21.764 0 0 0 18.838 10.839h19.1a21.76 21.76 0 0 0 18.836-10.839l9.55-16.486a21.613 21.613 0 0 0 0-21.677l-9.55-16.486a21.758 21.758 0 0 0-18.836-10.84" id="g"/><path d="M31.912 1.884a21.762 21.762 0 0 0-18.838 10.84L3.524 29.21a21.613 21.613 0 0 0 0 21.677l9.55 16.486a21.764 21.764 0 0 0 18.838 10.839h19.1a21.76 21.76 0 0 0 18.836-10.839l9.55-16.486a21.613 21.613 0 0 0 0-21.677l-9.55-16.486a21.758 21.758 0 0 0-18.836-10.84" id="i"/><path d="M31.912 1.884a21.762 21.762 0 0 0-18.838 10.84L3.524 29.21a21.613 21.613 0 0 0 0 21.677l9.55 16.486a21.764 21.764 0 0 0 18.838 10.839h19.1a21.76 21.76 0 0 0 18.836-10.839l9.55-16.486a21.613 21.613 0 0 0 0-21.677l-9.55-16.486a21.758 21.758 0 0 0-18.836-10.84" id="k"/><path d="M31.912 1.884a21.762 21.762 0 0 0-18.838 10.84L3.524 29.21a21.613 21.613 0 0 0 0 21.677l9.55 16.486a21.764 21.764 0 0 0 18.838 10.839h19.1a21.76 21.76 0 0 0 18.836-10.839l9.55-16.486a21.613 21.613 0 0 0 0-21.677l-9.55-16.486a21.758 21.758 0 0 0-18.836-10.84" id="m"/><path d="M31.912 1.884a21.762 21.762 0 0 0-18.838 10.84L3.524 29.21a21.613 21.613 0 0 0 0 21.677l9.55 16.486a21.764 21.764 0 0 0 18.838 10.839h19.1a21.76 21.76 0 0 0 18.836-10.839l9.55-16.486a21.613 21.613 0 0 0 0-21.677l-9.55-16.486a21.758 21.758 0 0 0-18.836-10.84" id="o"/><path d="M31.912 1.884a21.762 21.762 0 0 0-18.838 10.84L3.524 29.21a21.613 21.613 0 0 0 0 21.677l9.55 16.486a21.764 21.764 0 0 0 18.838 10.839h19.1a21.76 21.76 0 0 0 18.836-10.839l9.55-16.486a21.613 21.613 0 0 0 0-21.677l-9.55-16.486a21.758 21.758 0 0 0-18.836-10.84" id="q"/><path d="M31.912 1.884a21.762 21.762 0 0 0-18.838 10.84L3.524 29.21a21.613 21.613 0 0 0 0 21.677l9.55 16.486a21.764 21.764 0 0 0 18.838 10.839h19.1a21.76 21.76 0 0 0 18.836-10.839l9.55-16.486a21.613 21.613 0 0 0 0-21.677l-9.55-16.486a21.758 21.758 0 0 0-18.836-10.84" id="s"/><path d="M31.912 1.884a21.762 21.762 0 0 0-18.838 10.84L3.524 29.21a21.613 21.613 0 0 0 0 21.677l9.55 16.486a21.764 21.764 0 0 0 18.838 10.839h19.1a21.76 21.76 0 0 0 18.836-10.839l9.55-16.486a21.613 21.613 0 0 0 0-21.677l-9.55-16.486a21.758 21.758 0 0 0-18.836-10.84" id="u"/><path d="M31.912 1.884a21.762 21.762 0 0 0-18.838 10.84L3.524 29.21a21.613 21.613 0 0 0 0 21.677l9.55 16.486a21.764 21.764 0 0 0 18.838 10.839h19.1a21.76 21.76 0 0 0 18.836-10.839l9.55-16.486a21.613 21.613 0 0 0 0-21.677l-9.55-16.486a21.758 21.758 0 0 0-18.836-10.84" id="w"/><path d="M31.912 1.884a21.762 21.762 0 0 0-18.838 10.84L3.524 29.21a21.613 21.613 0 0 0 0 21.677l9.55 16.486a21.764 21.764 0 0 0 18.838 10.839h19.1a21.76 21.76 0 0 0 18.836-10.839l9.55-16.486a21.613 21.613 0 0 0 0-21.677l-9.55-16.486a21.758 21.758 0 0 0-18.836-10.84" id="y"/><path d="M31.912 1.884a21.762 21.762 0 0 0-18.838 10.84L3.524 29.21a21.613 21.613 0 0 0 0 21.677l9.55 16.486a21.764 21.764 0 0 0 18.838 10.839h19.1a21.76 21.76 0 0 0 18.836-10.839l9.55-16.486a21.613 21.613 0 0 0 0-21.677l-9.55-16.486a21.758 21.758 0 0 0-18.836-10.84" id="A"/><path d="M31.912 1.884a21.762 21.762 0 0 0-18.838 10.84L3.524 29.21a21.613 21.613 0 0 0 0 21.677l9.55 16.486a21.764 21.764 0 0 0 18.838 10.839h19.1a21.76 21.76 0 0 0 18.836-10.839l9.55-16.486a21.613 21.613 0 0 0 0-21.677l-9.55-16.486a21.758 21.758 0 0 0-18.836-10.84" id="C"/><path d="M31.912 1.884a21.762 21.762 0 0 0-18.838 10.84L3.524 29.21a21.613 21.613 0 0 0 0 21.677l9.55 16.486a21.764 21.764 0 0 0 18.838 10.839h19.1a21.76 21.76 0 0 0 18.836-10.839l9.55-16.486a21.613 21.613 0 0 0 0-21.677l-9.55-16.486a21.758 21.758 0 0 0-18.836-10.84" id="E"/><path d="M31.912 1.884a21.762 21.762 0 0 0-18.838 10.84L3.524 29.21a21.613 21.613 0 0 0 0 21.677l9.55 16.486a21.764 21.764 0 0 0 18.838 10.839h19.1a21.76 21.76 0 0 0 18.836-10.839l9.55-16.486a21.613 21.613 0 0 0 0-21.677l-9.55-16.486a21.758 21.758 0 0 0-18.836-10.84" id="G"/><path d="M31.912 1.884a21.762 21.762 0 0 0-18.838 10.84L3.524 29.21a21.613 21.613 0 0 0 0 21.677l9.55 16.486a21.764 21.764 0 0 0 18.838 10.839h19.1a21.76 21.76 0 0 0 18.836-10.839l9.55-16.486a21.613 21.613 0 0 0 0-21.677l-9.55-16.486a21.758 21.758 0 0 0-18.836-10.84" id="I"/><path d="M31.912 1.884a21.762 21.762 0 0 0-18.838 10.84L3.524 29.21a21.613 21.613 0 0 0 0 21.677l9.55 16.486a21.764 21.764 0 0 0 18.838 10.839h19.1a21.76 21.76 0 0 0 18.836-10.839l9.55-16.486a21.613 21.613 0 0 0 0-21.677l-9.55-16.486a21.758 21.758 0 0 0-18.836-10.84" id="K"/><path d="M31.912 1.884a21.762 21.762 0 0 0-18.838 10.84L3.524 29.21a21.613 21.613 0 0 0 0 21.677l9.55 16.486a21.764 21.764 0 0 0 18.838 10.839h19.1a21.76 21.76 0 0 0 18.836-10.839l9.55-16.486a21.613 21.613 0 0 0 0-21.677l-9.55-16.486a21.758 21.758 0 0 0-18.836-10.84" id="M"/><path d="M31.912 1.884a21.762 21.762 0 0 0-18.838 10.84L3.524 29.21a21.613 21.613 0 0 0 0 21.677l9.55 16.486a21.764 21.764 0 0 0 18.838 10.839h19.1a21.76 21.76 0 0 0 18.836-10.839l9.55-16.486a21.613 21.613 0 0 0 0-21.677l-9.55-16.486a21.758 21.758 0 0 0-18.836-10.84" id="O"/><path d="M31.912 1.884a21.762 21.762 0 0 0-18.838 10.84L3.524 29.21a21.613 21.613 0 0 0 0 21.677l9.55 16.486a21.764 21.764 0 0 0 18.838 10.839h19.1a21.76 21.76 0 0 0 18.836-10.839l9.55-16.486a21.613 21.613 0 0 0 0-21.677l-9.55-16.486a21.758 21.758 0 0 0-18.836-10.84" id="Q"/><path d="M31.912 1.884a21.762 21.762 0 0 0-18.838 10.84L3.524 29.21a21.613 21.613 0 0 0 0 21.677l9.55 16.486a21.764 21.764 0 0 0 18.838 10.839h19.1a21.76 21.76 0 0 0 18.836-10.839l9.55-16.486a21.613 21.613 0 0 0 0-21.677l-9.55-16.486a21.758 21.758 0 0 0-18.836-10.84" id="S"/><path d="M31.912 1.884a21.762 21.762 0 0 0-18.838 10.84L3.524 29.21a21.613 21.613 0 0 0 0 21.677l9.55 16.486a21.764 21.764 0 0 0 18.838 10.839h19.1a21.76 21.76 0 0 0 18.836-10.839l9.55-16.486a21.613 21.613 0 0 0 0-21.677l-9.55-16.486a21.758 21.758 0 0 0-18.836-10.84" id="U"/><path d="M31.912 1.884a21.762 21.762 0 0 0-18.838 10.84L3.524 29.21a21.613 21.613 0 0 0 0 21.677l9.55 16.486a21.764 21.764 0 0 0 18.838 10.839h19.1a21.76 21.76 0 0 0 18.836-10.839l9.55-16.486a21.613 21.613 0 0 0 0-21.677l-9.55-16.486a21.758 21.758 0 0 0-18.836-10.84" id="W"/><path d="M31.912 1.884a21.762 21.762 0 0 0-18.838 10.84L3.524 29.21a21.613 21.613 0 0 0 0 21.677l9.55 16.486a21.764 21.764 0 0 0 18.838 10.839h19.1a21.76 21.76 0 0 0 18.836-10.839l9.55-16.486a21.613 21.613 0 0 0 0-21.677l-9.55-16.486a21.758 21.758 0 0 0-18.836-10.84" id="Y"/><path d="M31.912 1.884a21.762 21.762 0 0 0-18.838 10.84L3.524 29.21a21.613 21.613 0 0 0 0 21.677l9.55 16.486a21.764 21.764 0 0 0 18.838 10.839h19.1a21.76 21.76 0 0 0 18.836-10.839l9.55-16.486a21.613 21.613 0 0 0 0-21.677l-9.55-16.486a21.758 21.758 0 0 0-18.836-10.84" id="aa"/><path d="M31.912 1.884a21.762 21.762 0 0 0-18.838 10.84L3.524 29.21a21.613 21.613 0 0 0 0 21.677l9.55 16.486a21.764 21.764 0 0 0 18.838 10.839h19.1a21.76 21.76 0 0 0 18.836-10.839l9.55-16.486a21.613 21.613 0 0 0 0-21.677l-9.55-16.486a21.758 21.758 0 0 0-18.836-10.84" id="ac"/><path d="M31.912 1.884a21.762 21.762 0 0 0-18.838 10.84L3.524 29.21a21.613 21.613 0 0 0 0 21.677l9.55 16.486a21.764 21.764 0 0 0 18.838 10.839h19.1a21.76 21.76 0 0 0 18.836-10.839l9.55-16.486a21.613 21.613 0 0 0 0-21.677l-9.55-16.486a21.758 21.758 0 0 0-18.836-10.84" id="ae"/><path d="M31.912 1.884a21.762 21.762 0 0 0-18.838 10.84L3.524 29.21a21.613 21.613 0 0 0 0 21.677l9.55 16.486a21.764 21.764 0 0 0 18.838 10.839h19.1a21.76 21.76 0 0 0 18.836-10.839l9.55-16.486a21.613 21.613 0 0 0 0-21.677l-9.55-16.486a21.758 21.758 0 0 0-18.836-10.84" id="ag"/><path d="M31.912 1.884a21.762 21.762 0 0 0-18.838 10.84L3.524 29.21a21.613 21.613 0 0 0 0 21.677l9.55 16.486a21.764 21.764 0 0 0 18.838 10.839h19.1a21.76 21.76 0 0 0 18.836-10.839l9.55-16.486a21.613 21.613 0 0 0 0-21.677l-9.55-16.486a21.758 21.758 0 0 0-18.836-10.84" id="ai"/><path d="M31.912 1.884a21.762 21.762 0 0 0-18.838 10.84L3.524 29.21a21.613 21.613 0 0 0 0 21.677l9.55 16.486a21.764 21.764 0 0 0 18.838 10.839h19.1a21.76 21.76 0 0 0 18.836-10.839l9.55-16.486a21.613 21.613 0 0 0 0-21.677l-9.55-16.486a21.758 21.758 0 0 0-18.836-10.84" id="ak"/><path d="M31.912 1.884a21.762 21.762 0 0 0-18.838 10.84L3.524 29.21a21.613 21.613 0 0 0 0 21.677l9.55 16.486a21.764 21.764 0 0 0 18.838 10.839h19.1a21.76 21.76 0 0 0 18.836-10.839l9.55-16.486a21.613 21.613 0 0 0 0-21.677l-9.55-16.486a21.758 21.758 0 0 0-18.836-10.84" id="am"/><path d="M31.912 1.884a21.762 21.762 0 0 0-18.838 10.84L3.524 29.21a21.613 21.613 0 0 0 0 21.677l9.55 16.486a21.764 21.764 0 0 0 18.838 10.839h19.1a21.76 21.76 0 0 0 18.836-10.839l9.55-16.486a21.613 21.613 0 0 0 0-21.677l-9.55-16.486a21.758 21.758 0 0 0-18.836-10.84" id="ao"/><path d="M31.912 1.884a21.762 21.762 0 0 0-18.838 10.84L3.524 29.21a21.613 21.613 0 0 0 0 21.677l9.55 16.486a21.764 21.764 0 0 0 18.838 10.839h19.1a21.76 21.76 0 0 0 18.836-10.839l9.55-16.486a21.613 21.613 0 0 0 0-21.677l-9.55-16.486a21.758 21.758 0 0 0-18.836-10.84" id="aq"/><path d="M31.912 1.884a21.762 21.762 0 0 0-18.838 10.84L3.524 29.21a21.613 21.613 0 0 0 0 21.677l9.55 16.486a21.764 21.764 0 0 0 18.838 10.839h19.1a21.76 21.76 0 0 0 18.836-10.839l9.55-16.486a21.613 21.613 0 0 0 0-21.677l-9.55-16.486a21.758 21.758 0 0 0-18.836-10.84" id="as"/><path d="M31.912 1.884a21.762 21.762 0 0 0-18.838 10.84L3.524 29.21a21.613 21.613 0 0 0 0 21.677l9.55 16.486a21.764 21.764 0 0 0 18.838 10.839h19.1a21.76 21.76 0 0 0 18.836-10.839l9.55-16.486a21.613 21.613 0 0 0 0-21.677l-9.55-16.486a21.758 21.758 0 0 0-18.836-10.84" id="au"/><path d="M31.912 1.884a21.762 21.762 0 0 0-18.838 10.84L3.524 29.21a21.613 21.613 0 0 0 0 21.677l9.55 16.486a21.764 21.764 0 0 0 18.838 10.839h19.1a21.76 21.76 0 0 0 18.836-10.839l9.55-16.486a21.613 21.613 0 0 0 0-21.677l-9.55-16.486a21.758 21.758 0 0 0-18.836-10.84" id="aw"/><path d="M31.912 1.884a21.762 21.762 0 0 0-18.838 10.84L3.524 29.21a21.613 21.613 0 0 0 0 21.677l9.55 16.486a21.764 21.764 0 0 0 18.838 10.839h19.1a21.76 21.76 0 0 0 18.836-10.839l9.55-16.486a21.613 21.613 0 0 0 0-21.677l-9.55-16.486a21.758 21.758 0 0 0-18.836-10.84" id="ay"/><path d="M31.912 1.884a21.762 21.762 0 0 0-18.838 10.84L3.524 29.21a21.613 21.613 0 0 0 0 21.677l9.55 16.486a21.764 21.764 0 0 0 18.838 10.839h19.1a21.76 21.76 0 0 0 18.836-10.839l9.55-16.486a21.613 21.613 0 0 0 0-21.677l-9.55-16.486a21.758 21.758 0 0 0-18.836-10.84" id="aA"/><path d="M31.912 1.884a21.762 21.762 0 0 0-18.838 10.84L3.524 29.21a21.613 21.613 0 0 0 0 21.677l9.55 16.486a21.764 21.764 0 0 0 18.838 10.839h19.1a21.76 21.76 0 0 0 18.836-10.839l9.55-16.486a21.613 21.613 0 0 0 0-21.677l-9.55-16.486a21.758 21.758 0 0 0-18.836-10.84" id="aC"/><path d="M31.912 1.884a21.762 21.762 0 0 0-18.838 10.84L3.524 29.21a21.613 21.613 0 0 0 0 21.677l9.55 16.486a21.764 21.764 0 0 0 18.838 10.839h19.1a21.76 21.76 0 0 0 18.836-10.839l9.55-16.486a21.613 21.613 0 0 0 0-21.677l-9.55-16.486a21.758 21.758 0 0 0-18.836-10.84" id="aE"/><path d="M31.912 1.884a21.762 21.762 0 0 0-18.838 10.84L3.524 29.21a21.613 21.613 0 0 0 0 21.677l9.55 16.486a21.764 21.764 0 0 0 18.838 10.839h19.1a21.76 21.76 0 0 0 18.836-10.839l9.55-16.486a21.613 21.613 0 0 0 0-21.677l-9.55-16.486a21.758 21.758 0 0 0-18.836-10.84" id="aG"/><path d="M31.912 1.884a21.762 21.762 0 0 0-18.838 10.84L3.524 29.21a21.613 21.613 0 0 0 0 21.677l9.55 16.486a21.764 21.764 0 0 0 18.838 10.839h19.1a21.76 21.76 0 0 0 18.836-10.839l9.55-16.486a21.613 21.613 0 0 0 0-21.677l-9.55-16.486a21.758 21.758 0 0 0-18.836-10.84" id="aI"/><path d="M31.912 1.884a21.762 21.762 0 0 0-18.838 10.84L3.524 29.21a21.613 21.613 0 0 0 0 21.677l9.55 16.486a21.764 21.764 0 0 0 18.838 10.839h19.1a21.76 21.76 0 0 0 18.836-10.839l9.55-16.486a21.613 21.613 0 0 0 0-21.677l-9.55-16.486a21.758 21.758 0 0 0-18.836-10.84" id="aK"/><path d="M31.912 1.884a21.762 21.762 0 0 0-18.838 10.84L3.524 29.21a21.613 21.613 0 0 0 0 21.677l9.55 16.486a21.764 21.764 0 0 0 18.838 10.839h19.1a21.76 21.76 0 0 0 18.836-10.839l9.55-16.486a21.613 21.613 0 0 0 0-21.677l-9.55-16.486a21.758 21.758 0 0 0-18.836-10.84" id="aM"/><path d="M31.912 1.884a21.762 21.762 0 0 0-18.838 10.84L3.524 29.21a21.613 21.613 0 0 0 0 21.677l9.55 16.486a21.764 21.764 0 0 0 18.838 10.839h19.1a21.76 21.76 0 0 0 18.836-10.839l9.55-16.486a21.613 21.613 0 0 0 0-21.677l-9.55-16.486a21.758 21.758 0 0 0-18.836-10.84" id="aO"/><path d="M31.912 1.884a21.762 21.762 0 0 0-18.838 10.84L3.524 29.21a21.613 21.613 0 0 0 0 21.677l9.55 16.486a21.764 21.764 0 0 0 18.838 10.839h19.1a21.76 21.76 0 0 0 18.836-10.839l9.55-16.486a21.613 21.613 0 0 0 0-21.677l-9.55-16.486a21.758 21.758 0 0 0-18.836-10.84" id="aQ"/><path d="M31.912 1.884a21.762 21.762 0 0 0-18.838 10.84L3.524 29.21a21.613 21.613 0 0 0 0 21.677l9.55 16.486a21.764 21.764 0 0 0 18.838 10.839h19.1a21.76 21.76 0 0 0 18.836-10.839l9.55-16.486a21.613 21.613 0 0 0 0-21.677l-9.55-16.486a21.758 21.758 0 0 0-18.836-10.84" id="aS"/><path d="M31.912 1.884a21.762 21.762 0 0 0-18.838 10.84L3.524 29.21a21.613 21.613 0 0 0 0 21.677l9.55 16.486a21.764 21.764 0 0 0 18.838 10.839h19.1a21.76 21.76 0 0 0 18.836-10.839l9.55-16.486a21.613 21.613 0 0 0 0-21.677l-9.55-16.486a21.758 21.758 0 0 0-18.836-10.84" id="aU"/><path d="M31.912 1.884a21.762 21.762 0 0 0-18.838 10.84L3.524 29.21a21.613 21.613 0 0 0 0 21.677l9.55 16.486a21.764 21.764 0 0 0 18.838 10.839h19.1a21.76 21.76 0 0 0 18.836-10.839l9.55-16.486a21.613 21.613 0 0 0 0-21.677l-9.55-16.486a21.758 21.758 0 0 0-18.836-10.84" id="aW"/><path d="M31.912 1.884a21.762 21.762 0 0 0-18.838 10.84L3.524 29.21a21.613 21.613 0 0 0 0 21.677l9.55 16.486a21.764 21.764 0 0 0 18.838 10.839h19.1a21.76 21.76 0 0 0 18.836-10.839l9.55-16.486a21.613 21.613 0 0 0 0-21.677l-9.55-16.486a21.758 21.758 0 0 0-18.836-10.84" id="aY"/><path d="M31.912 1.884a21.762 21.762 0 0 0-18.838 10.84L3.524 29.21a21.613 21.613 0 0 0 0 21.677l9.55 16.486a21.764 21.764 0 0 0 18.838 10.839h19.1a21.76 21.76 0 0 0 18.836-10.839l9.55-16.486a21.613 21.613 0 0 0 0-21.677l-9.55-16.486a21.758 21.758 0 0 0-18.836-10.84" id="ba"/><path d="M31.912 1.884a21.762 21.762 0 0 0-18.838 10.84L3.524 29.21a21.613 21.613 0 0 0 0 21.677l9.55 16.486a21.764 21.764 0 0 0 18.838 10.839h19.1a21.76 21.76 0 0 0 18.836-10.839l9.55-16.486a21.613 21.613 0 0 0 0-21.677l-9.55-16.486a21.758 21.758 0 0 0-18.836-10.84" id="bc"/><path d="M31.912 1.884a21.762 21.762 0 0 0-18.838 10.84L3.524 29.21a21.613 21.613 0 0 0 0 21.677l9.55 16.486a21.764 21.764 0 0 0 18.838 10.839h19.1a21.76 21.76 0 0 0 18.836-10.839l9.55-16.486a21.613 21.613 0 0 0 0-21.677l-9.55-16.486a21.758 21.758 0 0 0-18.836-10.84" id="be"/><path d="M31.912 1.884a21.762 21.762 0 0 0-18.838 10.84L3.524 29.21a21.613 21.613 0 0 0 0 21.677l9.55 16.486a21.764 21.764 0 0 0 18.838 10.839h19.1a21.76 21.76 0 0 0 18.836-10.839l9.55-16.486a21.613 21.613 0 0 0 0-21.677l-9.55-16.486a21.758 21.758 0 0 0-18.836-10.84" id="bg"/><path d="M31.912 1.884a21.762 21.762 0 0 0-18.838 10.84L3.524 29.21a21.613 21.613 0 0 0 0 21.677l9.55 16.486a21.764 21.764 0 0 0 18.838 10.839h19.1a21.76 21.76 0 0 0 18.836-10.839l9.55-16.486a21.613 21.613 0 0 0 0-21.677l-9.55-16.486a21.758 21.758 0 0 0-18.836-10.84" id="bi"/><path d="M31.912 1.884a21.762 21.762 0 0 0-18.838 10.84L3.524 29.21a21.613 21.613 0 0 0 0 21.677l9.55 16.486a21.764 21.764 0 0 0 18.838 10.839h19.1a21.76 21.76 0 0 0 18.836-10.839l9.55-16.486a21.613 21.613 0 0 0 0-21.677l-9.55-16.486a21.758 21.758 0 0 0-18.836-10.84" id="bk"/><path d="M31.912 1.884a21.762 21.762 0 0 0-18.838 10.84L3.524 29.21a21.613 21.613 0 0 0 0 21.677l9.55 16.486a21.764 21.764 0 0 0 18.838 10.839h19.1a21.76 21.76 0 0 0 18.836-10.839l9.55-16.486a21.613 21.613 0 0 0 0-21.677l-9.55-16.486a21.758 21.758 0 0 0-18.836-10.84" id="bm"/><path d="M31.912 1.884a21.762 21.762 0 0 0-18.838 10.84L3.524 29.21a21.613 21.613 0 0 0 0 21.677l9.55 16.486a21.764 21.764 0 0 0 18.838 10.839h19.1a21.76 21.76 0 0 0 18.836-10.839l9.55-16.486a21.613 21.613 0 0 0 0-21.677l-9.55-16.486a21.758 21.758 0 0 0-18.836-10.84" id="bo"/><path d="M31.912 1.884a21.762 21.762 0 0 0-18.838 10.84L3.524 29.21a21.613 21.613 0 0 0 0 21.677l9.55 16.486a21.764 21.764 0 0 0 18.838 10.839h19.1a21.76 21.76 0 0 0 18.836-10.839l9.55-16.486a21.613 21.613 0 0 0 0-21.677l-9.55-16.486a21.758 21.758 0 0 0-18.836-10.84" id="bq"/><path d="M31.912 1.884a21.762 21.762 0 0 0-18.838 10.84L3.524 29.21a21.613 21.613 0 0 0 0 21.677l9.55 16.486a21.764 21.764 0 0 0 18.838 10.839h19.1a21.76 21.76 0 0 0 18.836-10.839l9.55-16.486a21.613 21.613 0 0 0 0-21.677l-9.55-16.486a21.758 21.758 0 0 0-18.836-10.84" id="bs"/><path d="M31.912 1.884a21.762 21.762 0 0 0-18.838 10.84L3.524 29.21a21.613 21.613 0 0 0 0 21.677l9.55 16.486a21.764 21.764 0 0 0 18.838 10.839h19.1a21.76 21.76 0 0 0 18.836-10.839l9.55-16.486a21.613 21.613 0 0 0 0-21.677l-9.55-16.486a21.758 21.758 0 0 0-18.836-10.84" id="bu"/><path d="M31.912 1.884a21.762 21.762 0 0 0-18.838 10.84L3.524 29.21a21.613 21.613 0 0 0 0 21.677l9.55 16.486a21.764 21.764 0 0 0 18.838 10.839h19.1a21.76 21.76 0 0 0 18.836-10.839l9.55-16.486a21.613 21.613 0 0 0 0-21.677l-9.55-16.486a21.758 21.758 0 0 0-18.836-10.84" id="bw"/></defs><g transform="translate(0 -1)" fill="none" fill-rule="evenodd"><mask id="b" fill="#fff"><use xlink:href="#a"/></mask><path d="M51.012 1.884h-19.1a21.762 21.762 0 0 0-18.838 10.84l-9.55 16.484a21.62 21.62 0 0 0 0 21.68l9.55 16.485a21.766 21.766 0 0 0 18.838 10.84h19.1a21.77 21.77 0 0 0 18.838-10.84l9.548-16.484a21.62 21.62 0 0 0 0-21.68L69.85 12.723a21.767 21.767 0 0 0-18.838-10.84" fill="#FF2091" mask="url(#b)"/><mask id="d" fill="#fff"><use xlink:href="#c"/></mask><path d="M50.68 2.13c7.73 0 14.246 4.506 18.747 10.762.037.052 9.466 16.336 9.466 16.407 3.825 6.654 3.927 14.907-.042 21.48-.022.038-9.451 16.293-9.488 16.316C65.497 73.72 58.38 77.802 50.68 77.802c-.037 0-18.864-.007-18.895-.017-7.684-.014-13.94-4.667-18.637-10.73-.02-.026-9.44-16.276-9.455-16.307-3.528-6.805-3.85-14.807-.024-21.45 0-.048 9.408-16.316 9.43-16.354C16.848 6.236 24.057 2.188 31.75 2.162c.04-.02 18.881-.033 18.93-.033" fill="#FF2092" mask="url(#d)"/><mask id="f" fill="#fff"><use xlink:href="#e"/></mask><path d="M50.347 2.376c7.691 0 14.18 4.47 18.658 10.685.076.105 9.386 16.188 9.386 16.327 3.76 6.603 3.843 14.773-.085 21.284-.045.075-9.355 16.097-9.428 16.144-3.849 6.545-10.9 10.576-18.531 10.576-.07 0-18.628-.012-18.69-.036-7.599-.028-13.787-4.627-18.435-10.62-.04-.053-9.33-16.065-9.362-16.126C.374 43.88.047 35.965 3.81 29.388c0-.094 9.27-16.146 9.313-16.224C16.837 6.517 23.968 2.493 31.59 2.441c.08-.041 18.661-.065 18.758-.065" fill="#FF2093" mask="url(#f)"/><mask id="h" fill="#fff"><use xlink:href="#g"/></mask><path d="M50.014 2.621c7.652 0 14.112 4.438 18.57 10.61.114.157 9.301 16.038 9.301 16.246 3.7 6.55 3.768 14.64-.126 21.09-.068.11-9.258 15.901-9.367 15.969-3.829 6.466-10.816 10.445-18.378 10.445-.104 0-18.393-.017-18.483-.052-7.513-.04-13.636-4.59-18.236-10.512-.062-.078-9.22-15.856-9.266-15.945C.583 43.814.252 35.99 3.953 29.477c0-.141 9.13-15.977 9.195-16.093C16.828 6.796 23.883 2.8 31.43 2.721c.118-.063 18.442-.1 18.585-.1" fill="#FF2094" mask="url(#h)"/><mask id="j" fill="#fff"><use xlink:href="#i"/></mask><path d="M49.682 2.868c7.611 0 14.044 4.402 18.48 10.53.151.21 9.22 15.892 9.22 16.17 3.637 6.498 3.686 14.505-.17 20.892-.09.146-9.16 15.707-9.307 15.797-3.807 6.385-10.733 10.314-18.223 10.314-.137 0-18.157-.024-18.278-.069-7.427-.057-13.484-4.553-18.035-10.404-.081-.105-9.11-15.645-9.173-15.764C.79 43.75.457 36.014 4.096 29.57c0-.19 8.99-15.809 9.076-15.964C16.817 7.077 23.798 3.102 31.269 2.999c.154-.083 18.222-.13 18.413-.13" fill="#FF2095" mask="url(#j)"/><mask id="l" fill="#fff"><use xlink:href="#k"/></mask><path d="M49.349 3.114c7.574 0 13.977 4.369 18.391 10.454.19.264 9.136 15.742 9.136 16.09 3.577 6.445 3.61 14.371-.211 20.694-.113.185-9.061 15.513-9.244 15.625-3.79 6.306-10.65 10.185-18.072 10.185-.173 0-17.912-.059-18.071-.09-7.218-1.337-13.332-4.511-17.835-10.292-.102-.13-9-15.435-9.078-15.584C1 43.686.663 36.039 4.239 29.658c0-.236 8.848-15.638 8.957-15.833 3.612-6.47 10.516-10.418 17.91-10.546.196-.105 18.004-.165 18.243-.165" fill="#FF2096" mask="url(#l)"/><mask id="n" fill="#fff"><use xlink:href="#m"/></mask><path d="M49.016 3.36c7.533 0 13.91 4.335 18.302 10.377.23.315 9.052 15.592 9.052 16.012 3.517 6.392 3.531 14.235-.252 20.497-.132.22-8.964 15.317-9.184 15.452-3.768 6.224-10.565 10.052-17.918 10.052-.205 0-17.675-.069-17.865-.105-7.131-1.33-13.18-4.474-17.634-10.184-.123-.156-8.892-15.224-8.985-15.403C1.208 43.62.866 36.065 4.383 29.749c0-.286 8.708-15.47 8.838-15.704C16.797 7.636 23.625 3.714 30.947 3.558c.235-.125 17.784-.198 18.07-.198" fill="#FF2097" mask="url(#n)"/><mask id="p" fill="#fff"><use xlink:href="#o"/></mask><path d="M48.684 3.607c7.494 0 13.842 4.298 18.213 10.299.268.367 8.97 15.443 8.97 15.933 3.454 6.34 3.45 14.1-.295 20.3-.155.255-8.867 15.121-9.123 15.28-3.75 6.143-10.482 9.921-17.765 9.921-.24 0-17.437-.08-17.662-.122-7.045-1.322-13.024-4.436-17.432-10.075-.143-.183-8.78-15.015-8.89-15.225-3.283-6.36-3.629-13.828-.176-20.08 0-.332 8.568-15.301 8.72-15.572 3.543-6.35 10.296-10.249 17.541-10.43.275-.146 17.567-.23 17.899-.23" fill="#FF2098" mask="url(#p)"/><mask id="r" fill="#fff"><use xlink:href="#q"/></mask><path d="M48.353 3.853c7.452 0 13.77 4.263 18.121 10.223.306.419 8.888 15.293 8.888 15.852 3.393 6.288 3.372 13.968-.337 20.103-.178.293-8.769 14.928-9.06 15.11-3.734 6.062-10.402 9.79-17.612 9.79-.275 0-17.202-.093-17.458-.141-6.958-1.314-12.872-4.398-17.231-9.967-.163-.208-8.67-14.804-8.795-15.043-3.244-6.287-3.595-13.665-.202-19.852 0-.38 8.428-15.132 8.6-15.442 3.51-6.29 10.187-10.165 17.358-10.37.313-.169 17.346-.263 17.728-.263" fill="#FF2099" mask="url(#r)"/><mask id="t" fill="#fff"><use xlink:href="#s"/></mask><path d="M48.02 4.1c7.413 0 13.704 4.228 18.033 10.145.346.47 8.805 15.143 8.805 15.774 3.329 6.235 3.293 13.832-.38 19.904-.199.33-8.67 14.735-9 14.936-3.713 5.984-10.317 9.66-17.458 9.66-.311 0-16.965-.103-17.252-.157-6.872-1.304-12.72-4.36-17.03-9.858-.185-.234-8.562-14.593-8.7-14.862-3.204-6.215-3.559-13.503-.228-19.623 0-.427 8.29-14.962 8.483-15.312C16.77 8.475 23.37 4.628 30.463 4.394c.354-.188 17.128-.295 17.557-.295" fill="#FF209A" mask="url(#t)"/><mask id="v" fill="#fff"><use xlink:href="#u"/></mask><path d="M47.687 4.345c7.375 0 13.637 4.195 17.946 10.068.383.524 8.72 14.995 8.72 15.695 3.27 6.184 3.214 13.698-.422 19.709-.221.367-8.572 14.539-8.938 14.764-3.694 5.903-10.233 9.529-17.306 9.529-.344 0-16.726-.115-17.044-.176-6.789-1.298-12.57-4.32-16.832-9.747-.206-.262-8.452-14.386-8.604-14.684-3.165-6.139-3.522-13.339-.254-19.395 0-.474 8.148-14.792 8.364-15.18 3.44-6.173 9.967-9.995 16.985-10.254.393-.21 16.91-.33 17.385-.33" fill="#FF209B" mask="url(#v)"/><mask id="x" fill="#fff"><use xlink:href="#w"/></mask><path d="M47.355 4.591c7.333 0 13.568 4.16 17.855 9.991.422.576 8.639 14.847 8.639 15.616 3.208 6.132 3.135 13.565-.465 19.512-.244.403-8.475 14.344-8.878 14.59-3.673 5.824-10.148 9.4-17.151 9.4-.38 0-16.49-.126-16.839-.193-6.702-1.29-12.417-4.283-16.63-9.639-.226-.286-8.344-14.175-8.512-14.504-3.123-6.065-3.486-13.176-.278-19.166 0-.52 8.007-14.623 8.244-15.05 3.408-6.112 9.856-9.91 16.802-10.195.431-.23 16.689-.362 17.213-.362" fill="#FF209C" mask="url(#x)"/><mask id="z" fill="#fff"><use xlink:href="#y"/></mask><path d="M47.022 4.837c7.295 0 13.501 4.126 17.766 9.915.463.627 8.557 14.697 8.557 15.536 3.144 6.079 3.054 13.431-.506 19.315-.268.44-8.378 14.15-8.817 14.42-3.654 5.742-10.068 9.266-17 9.266-.411 0-16.25-.136-16.634-.21-6.616-1.28-12.264-4.245-16.43-9.529-.247-.313-8.232-13.965-8.415-14.323-3.083-5.992-3.45-13.013-.304-18.939 0-.568 7.867-14.454 8.127-14.919C16.737 9.315 23.11 5.542 29.98 5.232c.47-.252 16.47-.395 17.041-.395" fill="#FF209D" mask="url(#z)"/><mask id="B" fill="#fff"><use xlink:href="#A"/></mask><path d="M46.69 5.084c7.255 0 13.433 4.091 17.677 9.837.501.679 8.473 14.549 8.473 15.457 3.083 6.025 2.977 13.296-.549 19.118-.288.475-8.279 13.954-8.756 14.247-3.635 5.662-9.983 9.136-16.846 9.136-.446 0-16.013-.148-16.428-.228-6.53-1.271-12.111-4.205-16.229-9.42-.268-.34-8.122-13.754-8.322-14.144-3.042-5.916-3.412-12.848-.329-18.709 0-.617 7.728-14.285 8.008-14.788 3.34-5.994 9.635-9.743 16.43-10.079.51-.272 16.253-.427 16.87-.427" fill="#FF209E" mask="url(#B)"/><mask id="D" fill="#fff"><use xlink:href="#C"/></mask><path d="M46.357 5.33c7.216 0 13.364 4.056 17.589 9.76.54.73 8.388 14.4 8.388 15.379 3.023 5.973 2.898 13.161-.59 18.92-.31.513-8.182 13.76-8.696 14.074-3.615 5.582-9.897 9.007-16.691 9.007-.481 0-15.777-.16-16.223-.248-6.443-1.262-11.96-4.166-16.028-9.31-.287-.364-8.013-13.544-8.227-13.961-3.004-5.845-3.376-12.688-.355-18.482 0-.664 7.588-14.117 7.89-14.66C16.717 9.874 22.94 6.152 29.66 5.791c.548-.294 16.031-.462 16.697-.462" fill="#FF209F" mask="url(#D)"/><mask id="F" fill="#fff"><use xlink:href="#E"/></mask><path d="M46.024 5.576c7.176 0 13.296 4.02 17.5 9.684.578.78 8.306 14.25 8.306 15.299 2.962 5.921 2.82 13.027-.633 18.723-.334.55-8.084 13.565-8.634 13.902-3.596 5.501-9.814 8.874-16.539 8.874-.515 0-15.538-.169-16.017-.264-6.358-1.254-11.807-4.127-15.827-9.2-.31-.392-7.903-13.335-8.134-13.783-2.96-5.768-3.34-12.522-.379-18.252 0-.712 7.448-13.948 7.77-14.529 3.27-5.875 9.418-9.573 16.061-9.961.588-.314 15.814-.493 16.526-.493" fill="#FF20A0" mask="url(#F)"/><mask id="H" fill="#fff"><use xlink:href="#G"/></mask><path d="M45.693 5.822c7.135 0 13.226 3.986 17.408 9.606.62.834 8.225 14.103 8.225 15.221 2.898 5.868 2.74 12.891-.676 18.525-.354.588-7.987 13.372-8.571 13.732-3.578 5.42-9.734 8.743-16.386 8.743-.55 0-15.305-.181-15.813-.28-6.272-1.247-11.653-4.09-15.627-9.094-.33-.417-7.793-13.123-8.039-13.602-2.922-5.695-3.302-12.36-.404-18.024 0-.76 7.307-13.777 7.651-14.399 3.237-5.816 9.307-9.489 15.876-9.9.628-.337 15.595-.528 16.356-.528" fill="#FF20A1" mask="url(#H)"/><mask id="J" fill="#fff"><use xlink:href="#I"/></mask><path d="M45.36 6.068c7.097 0 13.16 3.952 17.32 9.529.659.884 8.142 13.953 8.142 15.142 2.836 5.815 2.662 12.756-.717 18.328-.379.624-7.89 13.177-8.511 13.558-3.559 5.341-9.65 8.612-16.234 8.612-.584 0-15.066-.19-15.607-.298-6.187-1.237-11.5-4.05-15.426-8.982-.351-.443-7.684-12.914-7.946-13.422-2.879-5.622-3.266-12.197-.428-17.796 0-.807 7.165-13.608 7.534-14.268 3.202-5.756 9.195-9.405 15.69-9.844.666-.357 15.372-.559 16.183-.559" fill="#FF20A2" mask="url(#J)"/><mask id="L" fill="#fff"><use xlink:href="#K"/></mask><path d="M45.028 6.314c7.056 0 13.091 3.917 17.23 9.453.7.934 8.059 13.803 8.059 15.062 2.775 5.762 2.581 12.623-.76 18.13-.4.66-7.791 12.983-8.45 13.388-3.54 5.258-9.566 8.481-16.08 8.481-.618 0-14.829-.202-15.401-.317-6.102-1.229-11.349-4.012-15.225-8.872-.374-.469-7.576-12.705-7.85-13.243-2.842-5.548-3.23-12.033-.456-17.567 0-.854 7.028-13.439 7.415-14.138 3.168-5.698 9.085-9.319 15.506-9.784.705-.378 15.154-.593 16.012-.593" fill="#FF20A4" mask="url(#L)"/><mask id="N" fill="#fff"><use xlink:href="#M"/></mask><path d="M44.695 6.56c7.017 0 13.024 3.883 17.141 9.374.74.988 7.975 13.657 7.975 14.985 2.715 5.71 2.504 12.488-.8 17.934-.426.696-7.694 12.788-8.39 13.215-3.52 5.179-9.481 8.35-15.926 8.35-.654 0-14.59-.212-15.196-.334-6.017-1.22-11.196-3.975-15.025-8.766-.394-.493-7.464-12.493-7.757-13.061-2.797-5.472-3.193-11.87-.479-17.338 0-.903 6.888-13.27 7.296-14.008 3.135-5.637 8.978-9.235 15.32-9.725.745-.4 14.937-.625 15.841-.625" fill="#FF20A4" mask="url(#N)"/><mask id="P" fill="#fff"><use xlink:href="#O"/></mask><path d="M44.362 6.807c6.978 0 12.955 3.847 17.052 9.298.781 1.037 7.893 13.504 7.893 14.904 2.653 5.658 2.425 12.353-.843 17.737-.447.733-7.595 12.593-8.328 13.041-3.5 5.1-9.4 8.22-15.774 8.22-.686 0-14.353-.222-14.99-.35C23.44 68.442 18.328 65.721 14.548 61c-.415-.517-7.356-12.283-7.662-12.881-2.76-5.4-3.157-11.707-.505-17.11 0-.95 6.748-13.101 7.18-13.877 3.098-5.579 8.864-9.151 15.132-9.668.785-.42 14.717-.657 15.67-.657" fill="#FF20A5" mask="url(#P)"/><mask id="R" fill="#fff"><use xlink:href="#Q"/></mask><path d="M44.03 7.053c6.939 0 12.887 3.812 16.965 9.22.818 1.09 7.809 13.358 7.809 14.827 2.59 5.604 2.344 12.218-.89 17.539-.466.77-7.493 12.398-8.265 12.87-3.479 5.019-9.315 8.088-15.62 8.088-.72 0-14.116-.231-14.784-.369-5.846-1.205-10.892-3.897-14.623-8.546-.438-.545-7.245-12.073-7.567-12.702-2.718-5.323-3.121-11.543-.53-16.88 0-.997 6.606-12.931 7.06-13.746 3.063-5.52 8.754-9.069 14.948-9.61.823-.441 14.497-.691 15.497-.691" fill="#FF20A6" mask="url(#R)"/><mask id="T" fill="#fff"><use xlink:href="#S"/></mask><path d="M43.697 7.3c6.898 0 12.82 3.777 16.875 9.142.861 1.14 7.728 13.208 7.728 14.747 2.526 5.553 2.265 12.087-.93 17.343-.492.806-7.4 12.203-8.206 12.698-3.461 4.938-9.233 7.957-15.467 7.957-.756 0-13.878-.241-14.58-.386-5.76-1.196-10.738-3.859-14.42-8.438-.46-.57-7.138-11.862-7.475-12.52-2.678-5.252-3.085-11.382-.555-16.654 0-1.044 6.467-12.762 6.94-13.616 3.034-5.46 8.647-8.981 14.766-9.55.861-.462 14.278-.724 15.324-.724" fill="#FF20A7" mask="url(#T)"/><mask id="V" fill="#fff"><use xlink:href="#U"/></mask><path d="M43.366 7.545c6.858 0 12.751 3.743 16.783 9.067.903 1.19 7.645 13.058 7.645 14.666 2.468 5.501 2.187 11.952-.972 17.146-.512.843-7.3 12.01-8.144 12.526-3.441 4.858-9.15 7.826-15.312 7.826-.792 0-13.645-.252-14.374-.403-5.676-1.188-10.586-3.82-14.223-8.33-.479-.594-7.027-11.65-7.378-12.339-2.637-5.177-3.047-11.218-.583-16.426 0-1.09 6.329-12.591 6.825-13.484 2.997-5.4 8.535-8.898 14.577-9.492.903-.483 14.06-.757 15.156-.757" fill="#FF20A8" mask="url(#V)"/><mask id="X" fill="#fff"><use xlink:href="#W"/></mask><path d="M43.033 7.792c6.817 0 12.682 3.707 16.694 8.989.942 1.24 7.561 12.91 7.561 14.587 2.407 5.45 2.108 11.819-1.013 16.95-.534.878-7.204 11.813-8.082 12.353-3.424 4.777-9.068 7.695-15.16 7.695-.826 0-13.408-.26-14.168-.422-5.59-1.18-10.434-3.78-14.022-8.218-.502-.62-6.919-11.441-7.285-12.16-2.597-5.103-3.01-11.054-.605-16.198 0-1.138 6.187-12.422 6.704-13.353C16.62 12.672 22.083 9.2 28.05 8.58c.94-.503 13.84-.79 14.983-.79" fill="#FF20AA" mask="url(#X)"/><mask id="Z" fill="#fff"><use xlink:href="#Y"/></mask><path d="M42.7 8.037c6.78 0 12.615 3.673 16.608 8.912.982 1.291 7.478 12.762 7.478 14.51 2.342 5.395 2.029 11.682-1.058 16.753-.557.915-7.105 11.617-8.02 12.179-3.405 4.698-8.985 7.566-15.007 7.566-.86 0-13.17-.273-13.963-.44-5.506-1.172-10.282-3.743-13.82-8.11-.524-.645-6.811-11.23-7.191-11.981-2.556-5.027-2.975-10.889-.632-15.967 0-1.186 6.047-12.254 6.585-13.224 2.93-5.282 8.316-8.73 14.21-9.375.98-.524 13.621-.823 14.81-.823" fill="#FF20AB" mask="url(#Z)"/><mask id="ab" fill="#fff"><use xlink:href="#aa"/></mask><path d="M42.368 8.284c6.739 0 12.547 3.638 16.517 8.834 1.025 1.341 7.396 12.612 7.396 14.43 2.28 5.345 1.948 11.549-1.1 16.555-.58.953-7.007 11.425-7.96 12.009-3.383 4.617-8.9 7.433-14.853 7.433-.894 0-12.932-.28-13.757-.457-5.42-1.161-10.128-3.702-13.62-8-.546-.67-6.7-11.02-7.097-11.8-2.516-4.955-2.938-10.726-.656-15.74 0-1.234 5.909-12.082 6.467-13.092C16.6 13.234 21.91 9.81 27.73 9.139c1.018-.545 13.401-.855 14.639-.855" fill="#FF20AC" mask="url(#ab)"/><mask id="ad" fill="#fff"><use xlink:href="#ac"/></mask><path d="M42.036 8.53c6.698 0 12.477 3.603 16.427 8.758 1.065 1.39 7.312 12.462 7.312 14.35 2.222 5.292 1.873 11.415-1.141 16.358-.6.99-6.91 11.231-7.897 11.838-3.365 4.534-8.819 7.3-14.701 7.3-.929 0-12.696-.288-13.554-.474-5.332-1.153-9.974-3.664-13.418-7.89-.567-.696-6.59-10.81-7-11.62-2.476-4.88-2.903-10.563-.683-15.511 0-1.28 5.767-11.914 6.348-12.962 2.86-5.165 8.096-8.562 13.839-9.258 1.058-.567 13.183-.89 14.468-.89" fill="#FF20AD" mask="url(#ad)"/><mask id="af" fill="#fff"><use xlink:href="#ae"/></mask><path d="M41.703 8.776c6.66 0 12.41 3.568 16.337 8.681 1.108 1.44 7.231 12.314 7.231 14.272 2.16 5.237 1.792 11.28-1.182 16.16-.625 1.027-6.813 11.037-7.839 11.666-3.344 4.455-8.734 7.17-14.547 7.17-.963 0-12.459-.297-13.348-.492-5.248-1.146-9.82-3.626-13.217-7.781-.588-.72-6.481-10.601-6.907-11.44-2.436-4.807-2.867-10.401-.709-15.283 0-1.33 5.629-11.745 6.232-12.831 2.826-5.105 7.986-8.478 13.652-9.201 1.098-.588 12.964-.92 14.297-.92" fill="#FF20AE" mask="url(#af)"/><mask id="ah" fill="#fff"><use xlink:href="#ag"/></mask><path d="M41.37 9.022c6.621 0 12.343 3.533 16.25 8.605 1.149 1.489 7.146 12.164 7.146 14.192 2.097 5.186 1.713 11.145-1.224 15.964-.649 1.062-6.715 10.84-7.777 11.492-3.328 4.374-8.65 7.04-14.395 7.04-.996 0-12.22-.307-13.142-.51-5.163-1.138-9.667-3.587-13.017-7.673-.61-.744-6.37-10.389-6.81-11.259-2.396-4.732-2.832-10.237-.734-15.054 0-1.377 5.488-11.576 6.11-12.701 2.793-5.046 7.877-8.393 13.47-9.141 1.135-.609 12.743-.955 14.123-.955" fill="#FF20AF" mask="url(#ah)"/><mask id="aj" fill="#fff"><use xlink:href="#ai"/></mask><path d="M41.037 9.269c6.582 0 12.274 3.496 16.161 8.527 1.19 1.539 7.066 12.016 7.066 14.113 2.033 5.134 1.632 11.01-1.27 15.767-.669 1.098-6.615 10.646-7.715 11.32-3.308 4.294-8.566 6.909-14.242 6.909-1.03 0-11.984-.316-12.934-.527-5.08-1.13-9.517-3.547-12.818-7.565-.633-.77-6.263-10.178-6.718-11.078C6.212 42.077 5.773 36.66 7.81 31.91c0-1.424 5.348-11.405 5.991-12.57 2.76-4.986 7.766-8.309 13.284-9.083 1.176-.63 12.526-.987 13.952-.987" fill="#FF20B0" mask="url(#aj)"/><mask id="al" fill="#fff"><use xlink:href="#ak"/></mask><path d="M40.706 9.514c6.54 0 12.205 3.463 16.07 8.45 1.233 1.59 6.982 11.867 6.982 14.034 1.975 5.082 1.553 10.878-1.31 15.57-.692 1.135-6.518 10.451-7.656 11.148-3.287 4.213-8.483 6.778-14.086 6.778-1.066 0-11.75-.324-12.73-.545-4.995-1.12-9.365-3.509-12.617-7.453-.656-.797-6.154-9.969-6.623-10.9-2.314-4.584-2.758-9.91-.783-14.598 0-1.47 5.206-11.237 5.874-12.44 2.723-4.927 7.874-7.3 13.096-9.024 1.311-.432 12.307-1.02 13.783-1.02" fill="#FF20B1" mask="url(#al)"/><mask id="an" fill="#fff"><use xlink:href="#am"/></mask><path d="M40.374 9.76c6.5 0 12.137 3.429 15.98 8.373 1.275 1.64 6.898 11.718 6.898 13.956 1.913 5.03 1.477 10.742-1.352 15.371-.714 1.172-6.42 10.258-7.59 10.977-3.27 4.134-8.403 6.647-13.936 6.647-1.102 0-11.513-.333-12.526-.562-4.91-1.113-9.21-3.47-12.416-7.345-.676-.819-6.045-9.758-6.529-10.72-2.274-4.51-2.72-9.747-.808-14.368 0-1.518 5.069-11.067 5.755-12.31 2.69-4.867 7.762-7.247 12.914-8.965 1.348-.452 12.086-1.053 13.61-1.053" fill="#FF20B1" mask="url(#an)"/><mask id="ap" fill="#fff"><use xlink:href="#ao"/></mask><path d="M40.041 10.007c6.46 0 12.068 3.391 15.891 8.294 1.318 1.69 6.817 11.57 6.817 13.877 1.85 4.976 1.395 10.61-1.394 15.176-.739 1.209-6.469 9.867-7.532 10.803-3.9 3.438-8.318 6.516-13.782 6.516-1.134 0-11.276-.34-12.32-.58-4.823-1.104-9.058-3.43-12.213-7.234-.702-.844-5.937-9.548-6.436-10.54-2.233-4.435-2.684-9.584-.835-14.14 0-1.566 4.93-10.898 5.637-12.18 2.656-4.808 7.651-7.192 12.73-8.907 1.388-.47 11.865-1.085 13.437-1.085" fill="#FF20B2" mask="url(#ap)"/><mask id="ar" fill="#fff"><use xlink:href="#aq"/></mask><path d="M39.92 10.253c6.42 0 11.996 3.357 15.802 8.219 1.36 1.737 6.32 11.455 6.732 13.796.91 5.158 1.318 10.475-1.435 14.98-.761 1.242-6.372 9.668-7.472 10.63-3.854 3.376-8.234 6.385-13.627 6.385-1.171 0-11.04-.348-12.115-.596-4.74-1.098-8.905-3.394-12.014-7.128-.723-.867-5.828-9.336-6.341-10.358-2.193-4.362-2.647-9.422-.86-13.913 0-1.613 4.789-10.728 5.518-12.049 2.623-4.747 7.54-7.138 12.544-8.847 1.43-.49 11.647-1.119 13.268-1.119" fill="#FF20B3" mask="url(#ar)"/><mask id="at" fill="#fff"><use xlink:href="#as"/></mask><path d="M39.584 10.5c6.38 0 11.93 3.32 15.713 8.141 1.402 1.787 6.235 11.306 6.65 13.718.875 5.091 1.236 10.339-1.479 14.782-.783 1.279-6.276 9.472-7.409 10.46-3.811 3.31-8.151 6.252-13.475 6.252-1.204 0-10.803-.357-11.91-.614-4.654-1.089-8.752-3.353-11.813-7.02-.745-.89-5.718-9.125-6.246-10.176-2.152-4.288-2.612-9.258-.885-13.684 0-1.661 4.65-10.559 5.4-11.919 2.587-4.69 7.424-7.085 12.359-8.79 1.47-.508 11.428-1.15 13.095-1.15" fill="#FF20B4" mask="url(#at)"/><mask id="av" fill="#fff"><use xlink:href="#au"/></mask><path d="M39.248 10.745c6.34 0 11.86 3.287 15.623 8.064 1.445 1.837 6.15 11.158 6.567 13.64.844 5.026 1.16 10.205-1.52 14.584-.807 1.317-6.178 9.276-7.349 10.287-3.766 3.249-8.068 6.124-13.321 6.124-1.238 0-10.566-.364-11.705-.635-4.569-1.078-8.6-3.312-11.611-6.907-.77-.917-5.612-8.915-6.153-9.997-2.111-4.214-2.575-9.095-.91-13.457 0-1.708 4.51-10.388 5.281-11.788 2.554-4.629 7.311-7.03 12.172-8.73 1.511-.53 11.212-1.185 12.926-1.185" fill="#FF20B5" mask="url(#av)"/><mask id="ax" fill="#fff"><use xlink:href="#aw"/></mask><path d="M38.91 10.992c6.304 0 11.793 3.25 15.535 7.986 1.49 1.886 6.067 11.008 6.484 13.56.813 4.962 1.08 10.072-1.563 14.389-.827 1.353-6.08 9.08-7.287 10.114-3.721 3.187-7.984 5.991-13.17 5.991-1.27 0-10.33-.37-11.497-.65-4.485-1.072-8.447-3.274-11.412-6.799-.792-.94-5.5-8.705-6.057-9.818-2.07-4.14-2.539-8.93-.934-13.227 0-1.754 4.368-10.218 5.162-11.657 2.519-4.57 7.196-6.976 11.986-8.672 1.551-.55 10.99-1.217 12.753-1.217" fill="#FF20B6" mask="url(#ax)"/><mask id="az" fill="#fff"><use xlink:href="#ay"/></mask><path d="M38.378 11.238c6.263 0 11.725 3.216 15.446 7.91 1.53 1.932 5.985 10.858 6.402 13.48.781 4.897 1.001 9.938-1.605 14.191-.852 1.39-5.983 8.886-7.228 9.942-3.678 3.127-7.899 5.86-13.015 5.86-1.306 0-10.093-.376-11.292-.667-4.4-1.063-8.293-3.235-11.212-6.689-.814-.965-5.391-8.494-5.962-9.637-2.031-4.067-1.743-8.567-.961-13 .315-1.775 4.231-10.049 5.044-11.526 2.486-4.511 7.084-6.923 11.803-8.613 1.591-.57 10.771-1.251 12.58-1.251" fill="#FF20B7" mask="url(#az)"/><mask id="aB" fill="#fff"><use xlink:href="#aA"/></mask><path d="M38.047 11.484c6.223 0 11.654 3.18 15.357 7.833 1.575 1.98 5.9 10.706 6.318 13.401.749 4.833.92 9.803-1.648 13.994-.875 1.426-5.884 8.69-7.166 9.77-3.634 3.063-7.817 5.73-12.861 5.73-1.34 0-9.858-.385-11.088-.685-4.316-1.055-8.14-3.197-11.01-6.58-.84-.99-5.284-8.285-5.87-9.458-1.988-3.992-1.736-8.416-.984-12.77.313-1.824 4.09-9.881 4.923-11.398 2.452-4.451 6.972-6.866 11.619-8.555 1.63-.59 10.553-1.282 12.41-1.282" fill="#FF20B8" mask="url(#aB)"/><mask id="aD" fill="#fff"><use xlink:href="#aC"/></mask><path d="M37.714 11.73c6.182 0 11.587 3.145 15.267 7.755 1.62 2.03 5.819 10.558 6.237 13.324.718 4.767.842 9.668-1.691 13.796-.897 1.461-5.786 8.496-7.103 9.597-3.594 3.003-7.735 5.6-12.71 5.6-1.376 0-9.62-.391-10.881-.703-4.233-1.046-7.988-3.158-10.811-6.472-.861-1.011-5.174-8.072-5.774-9.277-1.95-3.917-1.73-8.264-1.011-12.541.316-1.872 3.95-9.711 4.808-11.266 2.416-4.393 6.855-6.814 11.432-8.496 1.668-.616 10.332-1.317 12.237-1.317" fill="#FF20B9" mask="url(#aD)"/><mask id="aF" fill="#fff"><use xlink:href="#aE"/></mask><path d="M37.382 11.976c6.143 0 11.518 3.11 15.177 7.68 1.663 2.077 5.74 10.406 6.154 13.243.684 4.703.762 9.533-1.733 13.599-.92 1.498-5.687 8.302-7.043 9.425-3.546 2.94-7.65 5.469-12.555 5.469-1.41 0-9.386-.398-10.676-.72-4.149-1.04-7.835-3.12-10.61-6.364-.886-1.035-5.065-7.862-5.68-9.096C8.507 41.37 8.692 37.1 9.38 32.9c.313-1.92 3.811-9.541 4.688-11.135 2.383-4.335 6.74-6.76 11.245-8.44 1.71-.636 10.115-1.348 12.068-1.348" fill="#FF20BA" mask="url(#aF)"/><mask id="aH" fill="#fff"><use xlink:href="#aG"/></mask><path d="M37.049 12.222c6.104 0 11.45 3.075 15.089 7.602 1.708 2.125 5.661 10.256 6.069 13.165.654 4.64.687 9.398-1.774 13.401-.942 1.536-5.587 8.109-6.98 9.255-3.506 2.876-7.568 5.336-12.404 5.336-1.444 0-9.15-.402-10.47-.738-4.064-1.03-7.683-3.08-10.41-6.252-.91-1.059-4.956-7.652-5.585-8.917-1.87-3.77-1.717-7.962-1.062-12.085.315-1.968 3.673-9.372 4.572-11.005 2.348-4.274 6.626-6.704 11.06-8.38 1.748-.66 9.896-1.382 11.895-1.382" fill="#FF20BB" mask="url(#aH)"/><mask id="aJ" fill="#fff"><use xlink:href="#aI"/></mask><path d="M36.716 12.469c6.064 0 11.382 3.038 15 7.524C53.469 22.166 57.3 30.1 57.704 33.08c.623 4.576.605 9.265-1.815 13.205-.967 1.571-5.489 7.915-6.922 9.082-3.462 2.816-7.484 5.205-12.25 5.205-1.476 0-8.912-.409-10.266-.755-3.979-1.024-7.527-3.04-10.207-6.144-.934-1.082-4.85-7.442-5.492-8.738-1.828-3.695-1.708-7.808-1.086-11.855.311-2.016 3.533-9.201 4.453-10.875 2.315-4.215 6.51-6.649 10.876-8.32 1.785-.684 9.675-1.415 11.722-1.415" fill="#FF20BC" mask="url(#aJ)"/><mask id="aL" fill="#fff"><use xlink:href="#aK"/></mask><path d="M36.384 12.715c6.024 0 11.314 3.002 14.91 7.448 1.797 2.22 5.506 9.956 5.905 13.007.592 4.512.526 9.13-1.859 13.008-.989 1.606-5.388 7.723-6.86 8.908-3.418 2.756-7.4 5.074-12.096 5.074-1.513 0-8.677-.412-10.059-.772-3.896-1.015-7.377-3-10.007-6.034-.96-1.106-4.743-7.231-5.398-8.557-1.788-3.622-1.703-7.658-1.11-11.627.308-2.067 3.392-9.034 4.331-10.746 2.281-4.155 6.396-6.593 10.692-8.262 1.824-.708 9.457-1.447 11.55-1.447" fill="#FF20BD" mask="url(#aL)"/><mask id="aN" fill="#fff"><use xlink:href="#aM"/></mask><path d="M36.05 12.961c5.987 0 11.246 2.966 14.822 7.371 1.843 2.266 5.43 9.804 5.822 12.926.56 4.451.448 8.997-1.9 12.811-1.012 1.644-5.288 7.532-6.8 8.738-3.375 2.694-7.316 4.943-11.943 4.943-1.548 0-8.442-.417-9.853-.791-3.813-1.007-7.223-2.961-9.808-5.925-.982-1.127-4.632-7.018-5.301-8.376-1.749-3.549-1.698-7.506-1.138-11.4.306-2.113 3.254-8.862 4.216-10.613 2.246-4.097 6.28-6.54 10.504-8.204 1.863-.734 9.24-1.48 11.38-1.48" fill="#FF20BE" mask="url(#aN)"/><mask id="aP" fill="#fff"><use xlink:href="#aO"/></mask><path d="M35.72 13.207c5.945 0 11.174 2.931 14.73 7.293 1.887 2.315 5.356 9.655 5.74 12.848.529 4.388.368 8.864-1.944 12.614-1.036 1.68-5.186 7.342-6.738 8.565-3.332 2.633-7.233 4.814-11.788 4.814-1.582 0-8.207-.423-9.649-.809-3.73-1-7.069-2.923-9.607-5.816-1.008-1.15-4.525-6.808-5.207-8.197-1.708-3.472-1.692-7.353-1.162-11.17.3-2.162 3.113-8.694 4.095-10.484 2.212-4.036 6.165-6.484 10.321-8.145 1.9-.758 9.018-1.513 11.209-1.513" fill="#FF20BF" mask="url(#aP)"/><mask id="aR" fill="#fff"><use xlink:href="#aQ"/></mask><path d="M35.387 13.453c5.905 0 11.107 2.896 14.643 7.216 1.931 2.361 5.279 9.505 5.654 12.769.496 4.326.29 8.729-1.985 12.417-1.056 1.717-5.085 7.15-6.676 8.393-3.293 2.573-7.15 4.683-11.636 4.683-1.617 0-7.971-.426-9.443-.826-3.647-.993-6.916-2.883-9.405-5.708-1.034-1.172-4.418-6.595-5.113-8.015-1.668-3.4-1.686-7.2-1.19-10.944.296-2.211 2.976-8.522 3.978-10.352 2.178-3.978 6.048-6.43 10.136-8.087 1.937-.786 8.8-1.546 11.037-1.546" fill="#FF20C0" mask="url(#aR)"/><mask id="aT" fill="#fff"><use xlink:href="#aS"/></mask><path d="M35.055 13.7c5.865 0 11.037 2.858 14.552 7.14 1.979 2.407 5.21 9.352 5.575 12.689.464 4.263.21 8.593-2.028 12.22-1.083 1.751-4.985 6.96-6.616 8.221-3.25 2.511-7.067 4.55-11.483 4.55-1.65 0-7.737-.43-9.24-.843-3.561-.984-6.76-2.844-9.204-5.598-1.056-1.194-4.309-6.387-5.018-7.836-1.627-3.326-1.679-7.049-1.214-10.714.288-2.26 2.836-8.354 3.86-10.222 2.142-3.919 5.933-6.375 9.95-8.027 1.973-.814 8.581-1.58 10.866-1.58" fill="#FF20C1" mask="url(#aT)"/><mask id="aV" fill="#fff"><use xlink:href="#aU"/></mask><path d="M34.722 13.946c5.826 0 10.968 2.823 14.463 7.062 2.025 2.453 5.139 9.203 5.492 12.61.434 4.204.131 8.459-2.07 12.023-1.105 1.789-4.882 6.771-6.554 8.05-3.21 2.45-6.984 4.417-11.331 4.417-1.686 0-7.501-.431-9.033-.86-3.48-.976-6.609-2.802-9.004-5.49-1.084-1.214-4.2-6.172-4.923-7.653-1.587-3.252-1.674-6.895-1.238-10.487.278-2.307 2.694-8.182 3.739-10.09 2.11-3.859 5.815-6.32 9.764-7.971 2.013-.84 8.36-1.611 10.695-1.611" fill="#FF20C2" mask="url(#aV)"/><mask id="aX" fill="#fff"><use xlink:href="#aW"/></mask><path d="M34.39 14.192c5.787 0 10.898 2.787 14.374 6.985 2.07 2.5 5.07 9.052 5.407 12.531.403 4.143.054 8.326-2.111 11.826-1.13 1.825-4.78 6.582-6.493 7.876-3.168 2.394-6.901 4.29-11.178 4.29-1.718 0-7.266-.435-8.825-.88-3.398-.968-6.457-2.762-8.804-5.378-1.111-1.238-4.094-5.963-4.83-7.476-1.547-3.178-1.668-6.74-1.265-10.258.272-2.356 2.558-8.014 3.621-9.961 2.077-3.799 5.7-6.263 9.581-7.91 2.048-.87 8.141-1.645 10.522-1.645" fill="#FF20C3" mask="url(#aX)"/><mask id="aZ" fill="#fff"><use xlink:href="#aY"/></mask><path d="M34.057 14.438c5.746 0 10.831 2.752 14.286 6.907 2.115 2.546 5 8.902 5.324 12.454.372 4.082-.028 8.19-2.154 11.628-1.15 1.86-4.676 6.393-6.433 7.705-3.128 2.332-6.816 4.157-11.023 4.157-1.754 0-7.031-.436-8.62-.896-3.315-.96-6.303-2.723-8.605-5.27-1.136-1.259-3.987-5.752-4.734-7.296-1.506-3.104-1.662-6.587-1.288-10.028.26-2.406 2.415-7.843 3.501-9.83 2.042-3.74 5.582-6.208 9.397-7.852 2.081-.9 7.92-1.679 10.349-1.679" fill="#FF20C4" mask="url(#aZ)"/><mask id="bb" fill="#fff"><use xlink:href="#ba"/></mask><path d="M33.724 14.684c5.708 0 10.762 2.717 14.196 6.83 2.164 2.592 4.935 8.752 5.241 12.374.341 4.023-.103 8.056-2.196 11.432-1.174 1.895-4.571 6.207-6.37 7.53-3.086 2.274-6.733 4.029-10.871 4.029-1.786 0-6.797-.436-8.414-.914-3.232-.953-6.15-2.683-8.404-5.161-1.162-1.28-3.88-5.54-4.641-7.115-1.465-3.03-1.655-6.431-1.314-9.8.249-2.455 2.279-7.675 3.384-9.7 2.007-3.681 5.462-6.153 9.21-7.795 2.12-.927 7.703-1.71 10.179-1.71" fill="#FF20C5" mask="url(#bb)"/><mask id="bd" fill="#fff"><use xlink:href="#bc"/></mask><path d="M33.391 14.93c5.668 0 10.693 2.68 14.107 6.754 2.211 2.637 4.873 8.6 5.161 12.295.308 3.962-.186 7.92-2.239 11.233-1.2 1.932-4.468 6.022-6.311 7.36-3.045 2.214-6.649 3.896-10.718 3.896-1.822 0-6.562-.436-8.21-.931-3.149-.946-5.993-2.644-8.201-5.051-1.19-1.3-3.773-5.329-4.546-6.935-1.425-2.956-1.65-6.277-1.34-9.572.235-2.504 2.14-7.504 3.264-9.57 1.975-3.621 5.347-6.096 9.027-7.735 2.152-.96 7.483-1.744 10.006-1.744" fill="#FF20C6" mask="url(#bd)"/><mask id="bf" fill="#fff"><use xlink:href="#be"/></mask><path d="M33.06 15.177c5.627 0 10.623 2.644 14.017 6.676 2.256 2.682 4.809 8.45 5.077 12.216.278 3.903-.263 7.786-2.281 11.036-1.223 1.969-4.364 5.838-6.25 7.189-3.006 2.154-6.567 3.764-10.563 3.764-1.857 0-6.328-.436-8.006-.948-3.067-.94-5.84-2.604-8-4.943-1.218-1.318-3.666-5.118-4.453-6.754-1.385-2.883-1.643-6.12-1.365-9.344.222-2.554 2.001-7.335 3.148-9.44 1.938-3.562 5.227-6.04 8.84-7.677 2.186-.99 7.265-1.775 9.836-1.775" fill="#FF20C7" mask="url(#bf)"/><mask id="bh" fill="#fff"><use xlink:href="#bg"/></mask><path d="M32.728 15.423c5.587 0 10.553 2.607 13.928 6.6 2.305 2.727 4.747 8.298 4.992 12.136.247 3.845-.342 7.652-2.322 10.84-1.245 2.003-4.257 5.652-6.187 7.015-2.97 2.097-6.484 3.633-10.411 3.633-1.892 0-6.096-.434-7.8-.965-2.985-.93-5.686-2.565-7.8-4.834-1.246-1.338-3.56-4.905-4.358-6.573-1.344-2.81-1.638-5.965-1.39-9.116.203-2.602 1.86-7.165 3.027-9.31 1.907-3.501 5.106-5.981 8.656-7.617 2.22-1.024 7.045-1.81 9.665-1.81" fill="#FF20C8" mask="url(#bh)"/><mask id="bj" fill="#fff"><use xlink:href="#bi"/></mask><path d="M32.395 15.669c5.549 0 10.484 2.571 13.839 6.523 2.351 2.771 4.687 8.148 4.91 12.057.217 3.788-.421 7.518-2.365 10.644-1.27 2.039-4.152 5.468-6.127 6.842-2.929 2.037-6.4 3.502-10.257 3.502-1.924 0-5.862-.433-7.594-.983-2.904-.923-5.532-2.523-7.6-4.725-1.273-1.357-3.452-4.693-4.263-6.392-1.305-2.735-1.632-5.808-1.414-8.888.185-2.65 1.722-6.995 2.908-9.179 1.871-3.443 4.987-5.925 8.47-7.559 2.253-1.058 6.827-1.842 9.493-1.842" fill="#FF20C9" mask="url(#bj)"/><mask id="bl" fill="#fff"><use xlink:href="#bk"/></mask><path d="M32.062 15.915c5.51 0 10.415 2.535 13.75 6.445 2.4 2.816 4.63 7.999 4.827 11.978.187 3.731-.5 7.385-2.407 10.447-1.292 2.075-4.045 5.286-6.064 6.672-2.892 1.978-6.319 3.37-10.106 3.37-1.96 0-5.628-.43-7.387-1-2.823-.918-5.38-2.484-7.4-4.616-1.304-1.375-3.346-4.483-4.17-6.215-1.262-2.66-1.625-5.647-1.44-8.658.168-2.699 1.584-6.825 2.791-9.048 1.838-3.383 4.868-5.868 8.284-7.5 2.288-1.091 6.61-1.875 9.322-1.875" fill="#FF20CA" mask="url(#bl)"/><mask id="bn" fill="#fff"><use xlink:href="#bm"/></mask><path d="M31.73 16.161c5.469 0 10.345 2.5 13.66 6.368 2.449 2.86 4.575 7.849 4.747 11.9.152 3.673-.581 7.25-2.45 10.248-1.318 2.111-3.94 5.106-6.006 6.499-2.853 1.923-6.235 3.24-9.951 3.24-1.994 0-5.395-.426-7.183-1.019-2.743-.908-5.224-2.442-7.197-4.505-1.333-1.392-3.242-4.27-4.076-6.033-1.224-2.587-1.62-5.491-1.466-8.43.143-2.748 1.446-6.655 2.672-8.918 1.803-3.325 4.748-5.811 8.1-7.442 2.32-1.127 6.388-1.908 9.15-1.908" fill="#FF20CB" mask="url(#bn)"/><mask id="bp" fill="#fff"><use xlink:href="#bo"/></mask><path d="M31.397 16.407c5.43 0 10.276 2.463 13.572 6.292 2.497 2.902 4.522 7.697 4.662 11.82.123 3.618-.659 7.115-2.492 10.052-1.342 2.145-3.83 4.927-5.943 6.326-2.817 1.865-6.152 3.11-9.799 3.11-2.028 0-5.163-.423-6.977-1.038-2.661-.901-5.07-2.4-6.998-4.395-1.363-1.411-3.135-4.058-3.98-5.854-1.182-2.513-1.614-5.332-1.491-8.202.12-2.797 1.307-6.483 2.554-8.786 1.769-3.266 4.625-5.756 7.914-7.384 2.352-1.164 6.17-1.941 8.978-1.941" fill="#FF20CC" mask="url(#bp)"/><mask id="br" fill="#fff"><use xlink:href="#bq"/></mask><path d="M31.064 16.654c5.39 0 10.208 2.426 13.483 6.214 2.548 2.945 4.471 7.547 4.578 11.74.094 3.564-.741 6.978-2.535 9.856-1.367 2.179-3.719 4.748-5.88 6.154-2.777 1.808-6.068 2.978-9.646 2.978-2.06 0-4.931-.417-6.771-1.054a17.482 17.482 0 0 1-6.797-4.288c-1.392-1.427-3.03-3.845-3.886-5.672-1.143-2.44-1.608-5.172-1.516-7.974.095-2.845 1.172-6.311 2.434-8.655 1.74-3.204 4.505-5.697 7.73-7.326 2.38-1.201 5.951-1.973 8.806-1.973" fill="#FF20CD" mask="url(#br)"/><mask id="bt" fill="#fff"><use xlink:href="#bs"/></mask><path d="M30.732 16.9c5.352 0 10.138 2.39 13.394 6.136 2.595 2.99 4.421 7.399 4.496 11.663.062 3.509-.822 6.843-2.578 9.658-1.39 2.216-3.61 4.57-5.82 5.982-2.742 1.75-5.984 2.847-9.492 2.847-2.096 0-4.7-.409-6.566-1.07a17.487 17.487 0 0 1-6.595-4.18c-1.426-1.442-2.927-3.633-3.794-5.492-1.101-2.367-1.6-5.012-1.539-7.745.064-2.894 1.03-6.143 2.316-8.526 1.705-3.145 4.381-5.639 7.544-7.266 2.41-1.242 5.73-2.008 8.634-2.008" fill="#FF20CE" mask="url(#bt)"/><mask id="bv" fill="#fff"><use xlink:href="#bu"/></mask><path d="M30.4 17.146c5.31 0 10.068 2.352 13.303 6.06 2.647 3.033 4.377 7.248 4.415 11.582.03 3.456-.898 6.711-2.622 9.462-1.412 2.252-3.5 4.395-5.758 5.81-2.706 1.695-5.901 2.716-9.337 2.716-2.132 0-4.472-.402-6.362-1.09a17.527 17.527 0 0 1-6.396-4.069c-1.458-1.458-2.82-3.42-3.697-5.311-1.062-2.292-1.596-4.85-1.567-7.518.035-2.941.893-5.973 2.2-8.394 1.667-3.087 4.257-5.582 7.357-7.21 2.442-1.28 5.513-2.038 8.465-2.038" fill="#FF20CF" mask="url(#bv)"/><mask id="bx" fill="#fff"><use xlink:href="#bw"/></mask><path d="M47.613 34.879c0 9.658-7.856 17.486-17.544 17.486-9.692 0-17.546-7.828-17.546-17.486 0-9.658 7.854-17.487 17.546-17.487 9.688 0 17.544 7.829 17.544 17.487" fill="#FF20D0" mask="url(#bx)"/><path d="M40.828 21.641c-4.143 0-7.517 3.36-7.517 7.492 0 4.13 3.374 7.49 7.517 7.49 4.143 0 7.517-3.36 7.517-7.49 0-4.131-3.374-7.492-7.517-7.492m0 16.466c-4.966 0-9.005-4.026-9.005-8.974 0-4.95 4.039-8.976 9.005-8.976 4.966 0 9.006 4.026 9.006 8.976 0 4.948-4.04 8.974-9.006 8.974M26.922 54.84H54.95c-.389-7.369-6.524-13.246-14.015-13.246-7.489 0-13.624 5.877-14.013 13.246zm29.538 1.484H25.413v-.74c0-8.534 6.963-15.474 15.522-15.474 8.561 0 15.525 6.94 15.525 15.473v.741z" fill="#FFF" mask="url(#bx)"/><path d="M37.956 47.804l1.335.969c.262.19.371.524.273.83l-.512 1.567 1.338-.968a.75.75 0 0 1 .875 0l1.339.968-.512-1.566a.739.739 0 0 1 .271-.831l1.337-.969h-1.653a.747.747 0 0 1-.709-.511l-.51-1.569-.51 1.569a.744.744 0 0 1-.71.511h-1.652zm6.064 6.053a.752.752 0 0 1-.438-.141l-2.754-1.996-2.756 1.996a.747.747 0 0 1-1.147-.83l1.053-3.229-2.753-1.994a.741.741 0 0 1 .438-1.342h3.405l1.05-3.228c.2-.612 1.22-.612 1.419 0l1.053 3.228h3.403c.323 0 .61.206.71.511a.742.742 0 0 1-.273.831l-2.752 1.994 1.05 3.228a.742.742 0 0 1-.708.972z" fill="#FFF" mask="url(#bx)"/></g></svg>