<svg width="43" height="43" xmlns="http://www.w3.org/2000/svg" xmlns:xlink="http://www.w3.org/1999/xlink"><defs><circle id="a" cx="21.5" cy="21.5" r="21.5"/></defs><g fill="none" fill-rule="evenodd"><mask id="b" fill="#fff"><use xlink:href="#a"/></mask><use fill="#7F92FA" xlink:href="#a"/><g mask="url(#b)" fill="#251053" fill-rule="nonzero"><path d="M21.773 9c-.086.005-.18.01-.273.01-.093 0-.186-.005-.273-.01v3.7l-5.55 3.015c.115.134.213.282.284.436l5.266-2.855v5.716a2.417 2.417 0 0 1 .547 0v-5.716l5.266 2.855a1.9 1.9 0 0 1 .284-.436l-5.55-3.016V9zm0 18.372v-3.72c-.181.02-.365.02-.546 0v3.72a2.254 2.254 0 0 1 .547 0zm-1.361 1.503a1.335 1.335 0 0 0-.251.462 1.273 1.273 0 0 0 .458 1.368c.322.248.746.347 1.154.269.65-.121 1.117-.658 1.116-1.281a1.27 1.27 0 0 0-.049-.356 1.332 1.332 0 0 0-.252-.462 1.453 1.453 0 0 0-1.362-.464 1.438 1.438 0 0 0-.814.464zm2.406-7.96c-.189-.533-.72-.891-1.318-.889a1.427 1.427 0 0 0-.984.38 1.261 1.261 0 0 0-.334 1.343c.06.164.153.314.279.442.192.216.459.366.766.423.087.015.18.025.273.025.093 0 .187-.01.274-.025.299-.054.57-.204.765-.423.229-.234.354-.54.35-.858 0-.15-.027-.289-.07-.417zm.678 1.796l5.223 2.835-5.185 2.814c.104.14.198.293.263.453l5.474-2.969 3.461 1.878c.072-.158.162-.308.268-.448l-3.44-1.862v-5.948c-.087.01-.18.015-.273.015a4.15 4.15 0 0 1-.273-.01v5.644l-5.24-2.845a1.928 1.928 0 0 1-.278.443zm3.5-4.656l-3.5 1.894c.11.138.202.288.275.447l3.493-1.899a2.18 2.18 0 0 1-.268-.441zm2.017.37a1.432 1.432 0 0 0 1.257-.356c.261-.245.407-.578.406-.925 0-.16-.028-.308-.088-.447a1.243 1.243 0 0 0-.285-.442 1.432 1.432 0 0 0-1.016-.417c-.394 0-.75.155-.995.4-.131.123-.234.27-.3.433a1.163 1.163 0 0 0-.034.86c.05.169.142.318.263.452.197.222.47.386.792.442zm-13.008-.37a2.2 2.2 0 0 1-.268.442l3.494 1.9c.071-.16.164-.31.273-.45l-3.499-1.892zm3.22 4.214l-5.238 2.845V19.47c-.093.005-.18.01-.274.01a2.55 2.55 0 0 1-.273-.015v5.947L10 27.275a2.3 2.3 0 0 1 .268.448l3.461-1.879 5.474 2.969a2.08 2.08 0 0 1 .262-.452l-5.184-2.816 5.223-2.834a1.906 1.906 0 0 1-.28-.442h.001z"/><path d="M35.126 10.972c-.489 0-.94.19-1.273.508L24.44 6c-.12.334-.293.645-.514.922l9.392 5.464c-.105.39-.08.804.074 1.177l-2.785 1.616c.112.138.201.292.275.456l2.773-1.61c.236.307.568.534.947.646v10.923a3.4 3.4 0 0 1 1.052 0V14.671a1.888 1.888 0 0 0 1.328-2.08 1.879 1.879 0 0 0-1.854-1.62zM32.428 31.19a3.324 3.324 0 0 1-.521-.922l-9.409 5.474h-.002a1.85 1.85 0 0 0-1.02-.49v-3.305c-.174.02-.35.02-.525 0v3.306a1.85 1.85 0 0 0-1.018.49l-.002-.001-9.41-5.475c-.123.334-.3.645-.521.922l9.398 5.47h.003c-.035.148-.06.297-.06.453A1.88 1.88 0 0 0 21.214 39a1.88 1.88 0 0 0 1.873-1.887 1.91 1.91 0 0 0-.06-.452l.003-.002 9.399-5.469-.001.001zM13.72 17.978c.09 0 .18-.01.264-.027a1.3 1.3 0 0 0 .763-.455 1.22 1.22 0 0 0 .252-.467 1.28 1.28 0 0 0-.03-.885 1.291 1.291 0 0 0-.29-.445 1.306 1.306 0 0 0-.959-.413c-.383 0-.731.164-.978.428a1.297 1.297 0 0 0-.273.457 1.348 1.348 0 0 0 .306 1.414c.25.252.59.393.945.393z"/><path d="M6.34 15.283V27a3.127 3.127 0 0 1 1.046 0V15.283c.37-.118.696-.358.934-.688l.007.005 2.757 1.727a2.21 2.21 0 0 1 .272-.488l-2.768-1.733h-.001a2.17 2.17 0 0 0 .137-.754 2.21 2.21 0 0 0-.066-.505l.003-.002L18 6.988A3.539 3.539 0 0 1 17.488 6l-9.36 5.873-.002.002a1.773 1.773 0 0 0-1.264-.544C5.834 11.33 5 12.236 5 13.352c0 .919.566 1.685 1.34 1.931m13.32-8.828A1.874 1.874 0 0 0 21 7.04a1.869 1.869 0 0 0 1.338-.584 2.04 2.04 0 0 0 .512-.993 2.085 2.085 0 0 0-.507-1.871A1.84 1.84 0 0 0 21 3a1.84 1.84 0 0 0-1.344.59 2.085 2.085 0 0 0-.506 1.872c.079.386.26.726.512.993M35.634 29.04a1.835 1.835 0 0 0-1.066 0 1.965 1.965 0 0 0-.966.697 1.968 1.968 0 0 0-.26.489c-.092.232-.14.487-.14.754a2.063 2.063 0 0 0 .577 1.447c.546.567 1.36.731 2.063.415.703-.316 1.16-1.05 1.158-1.862 0-.914-.577-1.691-1.366-1.94m-27.237.698a1.958 1.958 0 0 0-.965-.698 1.844 1.844 0 0 0-1.067 0c-.808.255-1.363 1.044-1.365 1.94-.001.812.455 1.546 1.159 1.861a1.813 1.813 0 0 0 2.062-.415c.556-.569.73-1.441.436-2.2a1.991 1.991 0 0 0-.26-.488"/></g><text font-family="OpenSans-Bold, Open Sans" font-size="25" font-weight="bold" fill="#FFF"><tspan x="12.876" y="30">A</tspan></text></g></svg>