<?xml version="1.0" encoding="UTF-8"?>
<svg width="43px" height="43px" viewBox="0 0 43 43" version="1.1" xmlns="http://www.w3.org/2000/svg" xmlns:xlink="http://www.w3.org/1999/xlink">
    <!-- Generator: Sketch 48.2 (47327) - http://www.bohemiancoding.com/sketch -->
    <title>Group 20</title>
    <desc>Created with Sketch.</desc>
    <defs>
        <circle id="path-1" cx="21.5" cy="21.5" r="21.5"></circle>
    </defs>
    <g id="Desktop-HD-Copy-12" stroke="none" stroke-width="1" fill="none" fill-rule="evenodd" transform="translate(-482.000000, -2054.000000)">
        <g id="Group-20" transform="translate(482.000000, 2054.000000)">
            <g id="Shape-+-Shape-+-Shape-+-Shape-Mask">
                <mask id="mask-2" fill="white">
                    <use xlink:href="#path-1"></use>
                </mask>
                <use id="Mask" fill="#7F92FA" xlink:href="#path-1"></use>
                <g id="Group-13" mask="url(#mask-2)" fill="#251053" fill-rule="nonzero">
                    <g transform="translate(5.000000, 3.000000)" id="Shape">
                        <path d="M16.7732166,6 C16.6865957,6.00543321 16.5927565,6.01086641 16.5003609,6.01086641 C16.4072435,6.01086641 16.3141261,6.00543321 16.2267834,6 L16.2267834,9.69933353 L10.6765527,12.7147624 C10.7920472,12.848555 10.8902175,12.997289 10.9609579,13.1514562 L16.2267834,10.2963069 L16.2267834,16.0120387 C16.3141261,16.0011723 16.4072435,15.9970974 16.5003609,15.9970974 C16.5934783,15.9970974 16.6858739,16.0011723 16.7739384,16.0120387 L16.7739384,10.2963069 L22.039764,13.1514562 C22.1132806,12.9945299 22.2089436,12.8476429 22.3241691,12.7147624 L16.7732166,9.69933353 L16.7732166,6 Z M16.7732166,24.3723831 L16.7732166,20.652675 C16.5916979,20.6727637 16.4083021,20.6727637 16.2267834,20.652675 L16.2267834,24.3723831 C16.3175229,24.3616355 16.4089059,24.3564178 16.5003609,24.3567626 C16.5934783,24.3567626 16.6858739,24.3615167 16.7739384,24.3723831 L16.7732166,24.3723831 Z M15.4118256,25.8746643 C15.297053,26.0084569 15.215485,26.1673782 15.1606252,26.3371659 C15.1274721,26.4532011 15.110964,26.5728873 15.11154,26.6930408 C15.1105887,27.0848842 15.2969755,27.4563576 15.6191346,27.704689 C15.9412936,27.9530204 16.3650682,28.0518806 16.7732166,27.9739189 C17.4226404,27.8525742 17.8901398,27.3159897 17.8891818,26.6930408 C17.8891818,26.5694354 17.8725795,26.450584 17.8400967,26.3371659 C17.7884248,26.1694317 17.7028922,26.0126338 17.5881744,25.8753434 C17.3210267,25.5681048 16.922257,25.3888518 16.5003609,25.386355 C16.4065217,25.386355 16.3141261,25.3958631 16.2260616,25.4114835 C15.8990679,25.4732862 15.6146628,25.6430739 15.4118256,25.8746643 Z M17.8184415,17.9156979 C17.6294675,17.3823913 17.0978553,17.0235599 16.5003609,17.0260106 C16.1313745,17.0240086 15.7768848,17.1610339 15.5159676,17.4065203 C15.2550505,17.6520068 15.1094121,17.9855319 15.11154,18.3326964 C15.11154,18.4759972 15.13897,18.6199772 15.1822804,18.7490158 C15.242915,18.9133702 15.3353105,19.0627834 15.4609108,19.1911428 C15.6529203,19.4071127 15.9200013,19.5565259 16.2267834,19.6135745 C16.3141261,19.6285159 16.4072435,19.6393823 16.5003609,19.6393823 C16.5934783,19.6393823 16.6865957,19.6285159 16.7739384,19.6135745 C17.0729733,19.5595943 17.343153,19.4104309 17.5390892,19.1911428 C17.7676908,18.9573643 17.8928999,18.6503447 17.8891818,18.3326964 C17.8891818,18.1832833 17.8617519,18.0440574 17.8184415,17.9156979 Z M18.4962496,19.7106931 L23.7187647,22.546147 L18.5337853,25.3598681 C18.6384521,25.499094 18.7315695,25.6532612 18.797257,25.8128616 L24.2709726,22.8442941 L27.7321972,24.7221456 C27.8038208,24.5639895 27.8936228,24.4136819 28,24.2739062 L24.5604306,22.4123543 L24.5604306,16.464353 C24.4730879,16.4745403 24.3799705,16.4792943 24.2868531,16.4792943 C24.1944575,16.4792943 24.106393,16.4745403 24.0139974,16.4691071 L24.0139974,22.1128489 L18.77488,19.2678869 C18.7032108,19.4264259 18.6095178,19.5753252 18.4962496,19.7106931 Z M21.9957317,15.0551155 L18.4962496,16.9485874 C18.6052475,17.0871342 18.6983649,17.2365473 18.7705489,17.3961477 L22.2642563,15.4972425 C22.1569831,15.3603104 22.0668779,15.2121797 21.9957317,15.0557946 L21.9957317,15.0551155 Z M24.0132756,15.4252526 C24.1013401,15.440873 24.1937357,15.4510603 24.2875749,15.4510603 C24.6561482,15.4517835 25.009847,15.3143474 25.2704683,15.0691394 C25.5310896,14.8239313 25.6771645,14.4911503 25.6763958,14.1443745 C25.6763958,13.9847741 25.648244,13.8360401 25.5883313,13.6968142 C25.52696,13.5324052 25.4298544,13.3818301 25.3032043,13.2546871 C25.040541,12.9890958 24.6724398,12.8380677 24.2868531,12.8376886 C23.8927282,12.8376886 23.5375828,12.992535 23.292157,13.2383875 C23.1609279,13.3613232 23.0584072,13.5086696 22.9911496,13.6710065 C22.8708603,13.9443533 22.8590748,14.2492871 22.957945,14.530132 C23.0077519,14.6999197 23.1001475,14.8493328 23.2206948,14.9831255 C23.4177573,15.2045286 23.6913348,15.3688831 24.0132756,15.4252526 Z M11.0049901,15.0551155 C10.9335279,15.2092827 10.8461852,15.3586958 10.7371873,15.4965634 L14.2308948,17.3961477 C14.302357,17.2365473 14.3954744,17.0871342 14.5037504,16.9479083 L11.0049901,15.0551155 Z M14.22512,19.268566 L8.98672441,22.113528 L8.98672441,16.4697862 C8.893607,16.4745403 8.80626432,16.4799735 8.71314691,16.4799735 C8.62075134,16.4799735 8.52763393,16.4745403 8.44029125,16.4650322 L8.44029125,22.4116752 L5,24.2745854 C5.10394501,24.4131321 5.19706242,24.5625452 5.26780278,24.7228248 L8.7290274,22.8442941 L14.202743,25.8128616 C14.2684305,25.6532612 14.3615479,25.499094 14.4654929,25.3605472 L9.28123529,22.5454678 L14.5037504,19.7106931 C14.3900499,19.5757262 14.2960955,19.4270258 14.2243982,19.268566 L14.22512,19.268566 Z"></path>
                        <path d="M30.1264935,7.97160121 C29.6374675,7.97160121 29.1852573,8.16190173 28.8532197,8.48023533 L19.4394676,3 C19.3195889,3.33387499 19.1456619,3.6454596 18.9247398,3.92211798 L28.3169581,9.38626173 C28.211678,9.77593709 28.2375714,10.1897663 28.3905899,10.5630466 L25.6064755,12.1792018 C25.7176178,12.3170297 25.8072262,12.4709493 25.880858,12.6353633 L28.6538582,11.0241056 C28.8900356,11.3319447 29.2220731,11.5593258 29.6006516,11.6705677 L29.6006516,22.5939577 C29.7687543,22.5673716 29.9479712,22.5519796 30.1271882,22.5519796 C30.3064051,22.5519796 30.4849274,22.5673716 30.6530302,22.5939577 L30.6530302,11.6705677 C31.5472592,11.4064821 32.1130054,10.5207737 31.980925,9.59167134 C31.8488446,8.66256897 31.0590648,7.97234226 30.1271882,7.97160121 L30.1264935,7.97160121 Z M27.4278198,28.191032 C27.2061717,27.9137977 27.0302631,27.6024447 26.9068403,27.268914 L17.4979507,32.7428526 L17.4958668,32.7435522 C17.2149789,32.477602 16.8587898,32.3064191 16.4768309,32.2538082 L16.4768309,28.9480363 C16.3021524,28.9687308 16.1256674,28.9687308 15.9509889,28.9480363 L15.9509889,32.2538082 C15.5692891,32.3066036 15.213375,32.477771 14.9326477,32.7435522 L14.9305637,32.7428526 L5.52097949,27.2682143 C5.39755669,27.6017451 5.22164807,27.913098 5,28.1903323 L14.39847,33.6593735 L14.4012486,33.6607728 C14.365822,33.807696 14.340815,33.9567181 14.340815,34.1134362 C14.340815,35.1553566 15.1794281,36 16.2139099,36 C17.2483917,36 18.0870048,35.1553566 18.0870048,34.1134362 C18.0870048,33.9567181 18.0626924,33.8069963 18.0272658,33.6607728 L18.0300444,33.6593735 L27.4285144,28.1903323 L27.4278198,28.191032 Z M8.72048821,14.9777389 C8.81079132,14.9777389 8.89970515,14.9672444 8.98445115,14.9511528 C9.28364815,14.8935708 9.5534475,14.7324575 9.74716512,14.4956909 C9.86430348,14.3607343 9.95040507,14.2013879 9.9993192,14.0290348 C10.0945599,13.7397849 10.0834667,13.4257001 9.96806043,13.1439975 C9.90325212,12.9770143 9.80459945,12.8254693 9.67839583,12.6990301 C9.42955496,12.4337835 9.0828064,12.2841084 8.72048821,12.2855462 C8.3370473,12.2855462 7.989033,12.4499602 7.74243604,12.714422 C7.62087416,12.8473525 7.52640321,13.0012721 7.46874815,13.1705836 C7.4108961,13.3172269 7.38210604,13.4738586 7.38400215,13.6316426 C7.38326245,13.9888774 7.52383285,14.3316953 7.77463313,14.584299 C8.02543341,14.8369027 8.36580382,14.9784839 8.72048821,14.9777389 Z"></path>
                        <path d="M1.33977901,12.2830108 L1.33977901,24 C1.50621547,23.9715061 1.68439227,23.9550096 1.86256906,23.9550096 C2.04074586,23.9550096 2.21823204,23.9715061 2.38604972,24 L2.38604972,12.2830108 C2.75579769,12.1649032 3.08242243,11.9245459 3.32044199,11.5954081 L3.32734807,11.5999072 L6.08356354,13.3267871 C6.15676796,13.1505749 6.24516575,12.9856102 6.35566298,12.8393916 L3.58770718,11.1057631 L3.58701657,11.1057631 C3.67334254,10.872563 3.72375691,10.6183675 3.72375691,10.3521745 C3.72375691,10.1767121 3.6961326,10.009498 3.65814917,9.84678283 L3.6609116,9.84453331 L13,3.98828822 C12.7803602,3.69177712 12.6074426,3.35783351 12.4882597,3 L3.12845304,8.87349139 L3.12569061,8.87499107 C2.78336149,8.5258824 2.3315289,8.33125685 1.86187845,8.33060773 C0.833749293,8.33102156 0.000381141526,9.23586548 0,10.3521745 C0,11.2707277 0.566298343,12.0370635 1.33977901,12.2830108"></path>
                        <path d="M14.6609166,3.45524503 C14.9432364,3.75029611 15.3170812,3.95398619 15.7331684,4.01689048 C15.8183572,4.03411427 15.9091782,4.0393563 15.9999993,4.0393563 C16.0908204,4.0393563 16.1816414,4.03411427 16.2668302,4.01689048 C16.6712813,3.95635115 17.0468377,3.7595055 17.3383779,3.45524503 C17.5890159,3.18865066 17.770658,2.84791909 17.8502145,2.46225588 C17.8826003,2.31997236 17.8987932,2.17319569 17.8987932,2.01967926 C17.8993545,1.48384481 17.6994838,0.969785089 17.3432691,0.590892676 C16.9870545,0.212000262 16.5037626,-0.000594801728 15.9999993,2.22886464e-06 C15.4961141,-0.000793894347 15.0126411,0.211713271 14.656274,0.590627308 C14.2999069,0.969541345 14.0999397,1.48371487 14.1005014,2.01967926 C14.1005014,2.17319569 14.1166943,2.31997236 14.1497841,2.46150702 C14.2286365,2.84791909 14.4102786,3.1879018 14.6616207,3.45524503 M30.6341594,26.0386341 C30.2855535,25.9330087 29.9161458,25.9330087 29.5675399,26.0386341 C29.1867557,26.161508 28.8501126,26.4046646 28.6023021,26.7358233 C28.4952881,26.8833489 28.4051711,27.0480982 28.3418076,27.2248293 C28.2502825,27.4569761 28.2024078,27.7115887 28.2024078,27.9789319 C28.2009186,28.5246909 28.4092312,29.0473793 28.779016,29.4257306 C29.3251856,29.993338 30.1381755,30.1570527 30.8416126,29.8410831 C31.5450496,29.5251135 32.0016361,28.7911307 31.9999956,27.9789319 C31.9999956,27.065322 31.4233874,26.2880047 30.6341594,26.039383 M3.39699246,26.7365722 C3.14955256,26.4053274 2.81310323,26.1621334 2.43245867,26.039383 C2.25890958,25.9865595 2.0793114,25.9595932 1.8987969,25.9592549 C1.7122265,25.9592549 1.53621668,25.9884604 1.36513514,26.039383 C0.557376066,26.2943548 0.002494709,27.0827177 3.01222901e-06,27.9789319 C-0.00135317305,28.7909945 0.455337871,29.5247007 1.15871147,29.8404783 C1.86208506,30.1562559 2.67490452,29.9924929 3.22098264,29.4249817 C3.77707275,28.8559961 3.95011346,27.9835064 3.65748698,27.2240804 C3.59312738,27.0491092 3.50539388,26.8849184 3.39699246,26.7365722"></path>
                    </g>
                </g>
            </g>
            <text id="A" font-family="OpenSans-Bold, Open Sans" font-size="25" font-weight="bold" fill="#FFFFFF">
                <tspan x="12.8757324" y="30">A</tspan>
            </text>
        </g>
    </g>
</svg>