<?xml version="1.0" encoding="UTF-8"?>
<svg width="43px" height="43px" viewBox="0 0 43 43" version="1.1" xmlns="http://www.w3.org/2000/svg" xmlns:xlink="http://www.w3.org/1999/xlink">
    <!-- Generator: Sketch 48.2 (47327) - http://www.bohemiancoding.com/sketch -->
    <title>Group 20 Copy 2</title>
    <desc>Created with Sketch.</desc>
    <defs>
        <circle id="path-1" cx="21.5" cy="21.5" r="21.5"></circle>
    </defs>
    <g id="Desktop-HD-Copy-12" stroke="none" stroke-width="1" fill="none" fill-rule="evenodd" transform="translate(-608.000000, -2054.000000)">
        <g id="Group-20-Copy-2" transform="translate(608.000000, 2054.000000)">
            <g id="Shape-+-Shape-+-Shape-+-Shape-Mask">
                <mask id="mask-2" fill="white">
                    <use xlink:href="#path-1"></use>
                </mask>
                <use id="Mask" fill="#7F92FA" xlink:href="#path-1"></use>
                <g id="safari-pinned-tab" mask="url(#mask-2)">
                    <g transform="translate(6.000000, 4.000000)" id="Group">
                        <g transform="translate(15.500000, 17.500000) scale(-1, 1) rotate(-180.000000) translate(-15.500000, -17.500000) ">
                            <path d="M14.9444038,34.8930352 C14.768654,34.836738 14.4851865,34.7016246 14.3094367,34.6002895 C14.1336869,34.4989545 13.9069129,34.3638411 13.8048647,34.3075438 C13.697147,34.2456169 13.305962,34.0204279 12.9317849,33.8064983 C12.5576079,33.5925688 12.1777615,33.3730095 12.0813826,33.3167122 C11.990673,33.2660447 11.4917703,32.9789287 10.9758595,32.6805533 C9.88734455,32.0556539 9.83065106,32.0275052 8.78749086,31.4307544 C8.35662034,31.1830465 7.993782,30.9634872 7.98244331,30.9409683 C7.97110461,30.9128197 7.94275786,30.8959305 7.91441112,30.8959305 C7.87472568,30.8959305 7.21141185,30.5243687 5.37454279,29.4659804 C4.95501097,29.2239022 4.49579371,28.9649349 4.35405999,28.8861187 C4.20665691,28.8073026 4.0195684,28.6947081 3.93452816,28.6384108 C3.85515728,28.5764838 3.77578639,28.531446 3.75877835,28.531446 C3.7417703,28.531446 3.46964155,28.3794435 3.15782736,28.1936625 C2.84034382,28.0078816 2.55687637,27.855879 2.52852963,27.855879 C2.49451353,27.855879 2.47183614,27.8333601 2.47183614,27.7995818 C2.47183614,27.7714332 2.44348939,27.7432845 2.4094733,27.7432845 C2.37545721,27.7432845 2.20537674,27.6588387 2.02962692,27.5518739 C1.84820775,27.4505388 1.48536942,27.2309796 1.21324067,27.0733473 C0.436539868,26.6117098 0.15874177,26.2851858 0.0510241405,25.6828052 C0.0226773958,25.5308026 1.52655666e-16,21.7757761 0.00566934894,17.3282934 L0.00566934894,9.24963809 L0.170080468,8.90059514 C0.328822238,8.55718192 0.634967081,8.23065787 0.986466715,8.03924723 C1.88222385,7.53820171 2.33577176,7.27360463 2.34711046,7.23982628 C2.35844916,7.21730738 2.3867959,7.19478848 2.4094733,7.19478848 C2.43782004,7.19478848 2.67026335,7.07093453 2.9310534,6.92456169 C3.19184345,6.77255911 3.92885881,6.35032974 4.56949525,5.98439762 C5.21013168,5.6184655 5.82809071,5.2581631 5.94147769,5.18497668 C6.06053402,5.11741998 6.1625823,5.055493 6.17959034,5.055493 C6.19659839,5.055493 7.17739576,4.48689078 7.34747623,4.37992601 C7.39283102,4.34614766 7.4722019,4.30673959 7.51755669,4.28422069 C7.56291149,4.26170179 7.94275786,4.04777224 8.36228969,3.80569406 C8.77615216,3.56361589 9.12765179,3.36657552 9.13899049,3.36657552 C9.15032919,3.36657552 9.41111924,3.21457295 9.71726408,3.02879202 C10.0290783,2.8430111 10.3125457,2.69100853 10.3465618,2.69100853 C10.3805779,2.69100853 10.4089247,2.66848963 10.4089247,2.640341 C10.4089247,2.61219238 10.4542794,2.57841403 10.5109729,2.55589513 C10.5619971,2.53900595 10.6980614,2.47144925 10.8057791,2.40952228 C10.9134967,2.34196558 11.0949159,2.24063053 11.2026335,2.17870355 C11.3103511,2.11677658 11.4804316,2.02107126 11.5711412,1.95914428 C11.6675201,1.89721731 11.7979151,1.82403088 11.8716167,1.79025253 C11.9396489,1.76210391 12.1380761,1.64387968 12.3081565,1.53691491 C12.4839064,1.42995014 12.6313094,1.33987454 12.6483175,1.33987454 C12.6596562,1.33987454 12.8864301,1.21602059 13.1415508,1.06401802 C14.882041,0.0506675245 14.9897586,0 15.5226774,0 C15.9252012,0 16.2540234,0.129483674 17.0023775,0.56860222 C17.2461595,0.714975068 17.4729334,0.833199292 17.5012802,0.833199292 C17.5296269,0.833199292 17.5523043,0.855718192 17.5523043,0.883866817 C17.5523043,0.912015442 17.5976591,0.945793791 17.6543526,0.962682966 C17.7053767,0.985201866 17.8641185,1.06401802 18.0058522,1.14846389 C18.147586,1.23290976 18.3630212,1.35676371 18.4877469,1.42432041 C18.6124726,1.49750684 19.1850768,1.82403088 19.7633504,2.15618465 C20.341624,2.48833843 20.9142282,2.8204922 21.0389539,2.8880489 C21.1636796,2.96123532 21.7986467,3.32153772 22.4506218,3.69872929 C23.1025969,4.07592086 23.6411851,4.37992601 23.6525238,4.37992601 C23.6638625,4.37992601 23.8112655,4.47000161 23.981346,4.57696638 C24.1514265,4.68393116 24.3044989,4.77400676 24.3158376,4.77400676 C24.3328456,4.77400676 24.5142648,4.8753418 24.7183614,4.99919575 C24.9224579,5.1230497 25.1095465,5.22438475 25.1322238,5.22438475 C25.1492319,5.22438475 25.2115947,5.2581631 25.2569495,5.3032009 C25.3079737,5.34260898 25.4893928,5.45520347 25.6594733,5.54527907 C25.8295538,5.6409844 26.1016825,5.79298697 26.2604243,5.88306257 C26.4134967,5.97876789 26.6572787,6.11388129 26.7990124,6.19269744 C26.9350768,6.27151359 27.2809071,6.46855396 27.5587052,6.63181599 C27.8421726,6.79507801 28.1539868,6.97522921 28.2560351,7.03152646 C28.4544623,7.14975068 28.8796635,7.38619913 29.7357352,7.8759852 C30.024872,8.04487695 30.3650329,8.27569567 30.4840892,8.39954962 C30.6938552,8.60221972 30.9092904,8.99067074 30.9659839,9.24963809 C31.017008,9.48045681 30.9943307,25.6940647 30.9433065,25.8573267 C30.8185808,26.2682966 30.3026701,26.8988258 30.0985735,26.8988258 C30.0588881,26.8988258 30.024872,26.9269744 30.024872,26.955123 C30.024872,26.9889014 30.0021946,27.0114203 29.9681785,27.0114203 C29.9398317,27.0114203 29.7017191,27.1352742 29.4465984,27.2872768 C29.1858083,27.4392794 28.8853328,27.6138009 28.7776152,27.6700981 C28.6698976,27.7320251 28.352414,27.9121763 28.0746159,28.0754383 C27.7968178,28.2330706 27.5473665,28.3625543 27.5246891,28.3625543 C27.4963424,28.3625543 27.473665,28.3907029 27.473665,28.4188515 C27.473665,28.4526299 27.4509876,28.4751488 27.4226408,28.4751488 C27.3886247,28.4751488 27.0824799,28.6384108 26.7366496,28.8410809 C26.3908193,29.043751 25.9996342,29.26894 25.8692392,29.3421264 C25.7388442,29.4153129 25.313643,29.657391 24.9224579,29.88258 C23.9983541,30.4174039 23.8849671,30.4793309 23.6355157,30.620074 C23.5164594,30.6876307 23.119605,30.9128197 22.7567666,31.1267492 C22.3939283,31.3406788 22.0707754,31.5152003 22.0367593,31.5152003 C22.0027432,31.5152003 21.9743965,31.5433489 21.9743965,31.5714975 C21.9743965,31.6052759 21.9517191,31.6277948 21.917703,31.6277948 C21.8893563,31.6277948 21.6795903,31.7403893 21.4528164,31.8755027 C20.8688734,32.2189159 18.164594,33.77272 17.903804,33.9078334 C17.790417,33.9697603 17.5919898,34.0823548 17.4672641,34.1555413 C17.3425384,34.2343574 17.1271031,34.3582114 16.9853694,34.4313978 C16.8436357,34.5045842 16.6905633,34.6002895 16.6452085,34.6396976 C16.5374909,34.7241435 16.2200073,34.8648866 15.9648866,34.938073 C15.6474031,35.0281486 15.2788954,35.0112594 14.9444038,34.8930352 Z M15.9762253,33.5813093 C16.2880395,33.4067878 16.8096196,33.1140421 17.2121434,32.8832234 C17.319861,32.8212964 18.4594001,32.1682484 19.7350037,31.4307544 C21.0162765,30.6988901 22.3542429,29.9276178 22.7114119,29.7249477 C23.0685808,29.5222776 23.4030724,29.3252373 23.4540966,29.2801995 C23.5051207,29.2407914 23.5618142,29.2239022 23.5788222,29.2464211 C23.6014996,29.2633103 23.6185077,29.2520508 23.6185077,29.2182725 C23.6185077,29.1788644 23.6468544,29.1507158 23.6752012,29.1507158 C23.7092173,29.1507158 23.8396123,29.0831591 23.964338,29.0043429 C24.1684345,28.880489 24.4462326,28.7228567 24.8374177,28.5089271 C24.8997805,28.4751488 24.9904901,28.4188515 25.0358449,28.3850732 C25.0811997,28.3456651 25.2512802,28.2499598 25.4043526,28.1655139 C25.5630944,28.0866978 25.8182151,27.9403249 25.9712875,27.8502493 C26.1300293,27.7601737 26.2944404,27.6644684 26.3397952,27.6475792 C26.38515,27.6250603 26.4361741,27.5969117 26.4531822,27.5800225 C26.4815289,27.5462442 26.6629481,27.4449091 27.020117,27.2534985 C27.1278347,27.1972012 27.229883,27.1352742 27.246891,27.1183851 C27.263899,27.1014959 27.4679956,26.9832717 27.7004389,26.853788 C27.9328822,26.7243043 28.2446964,26.5441531 28.3864301,26.4597073 C28.5338332,26.3752614 28.8626554,26.1894805 29.1234455,26.0374779 C29.3899049,25.891105 29.6336869,25.7165836 29.6733723,25.6546566 C29.7357352,25.5589513 29.7470739,23.9995175 29.7414045,17.5084446 C29.7414045,10.499437 29.7300658,9.46356764 29.6563643,9.35097314 C29.6053402,9.28341644 29.3728969,9.10889497 29.1291149,8.97378157 C28.8910022,8.83303844 28.6642282,8.69229532 28.6245428,8.65851697 C28.5848574,8.63036834 28.5395026,8.60221972 28.5224945,8.60221972 C28.4998171,8.60221972 28.2730432,8.47836577 28.0065838,8.32073347 C27.7401244,8.16310117 27.5020117,8.03924723 27.4793343,8.03924723 C27.4509876,8.03924723 27.4169715,8.01672833 27.4056328,7.9885797 C27.3999634,7.96043108 27.263899,7.8759852 27.1051573,7.79153933 C26.9520849,7.71272318 26.7196416,7.5832395 26.5949159,7.50442336 C26.4701902,7.42560721 26.3171178,7.34116133 26.2547549,7.30738298 C26.1016825,7.22856683 25.4893928,6.88515361 24.6673372,6.40662699 C23.9586686,5.99565707 23.8282736,5.91684092 23.2783467,5.60720605 C23.0118873,5.45520347 22.7227505,5.28631173 22.6263716,5.23001448 C22.535662,5.17371723 22.3315655,5.06112273 22.1728237,4.97667685 C22.0197513,4.88660125 21.8666789,4.79652566 21.8326628,4.77400676 C21.804316,4.75148786 21.6625823,4.66704198 21.5208486,4.59385556 C21.3791149,4.51503941 21.0389539,4.31799903 20.7554865,4.15473701 C20.4776884,3.99147499 20.1431968,3.80569406 20.0184711,3.73250764 C19.8937454,3.66495094 19.0886979,3.2033135 18.2326262,2.7078977 C17.3765545,2.21811163 16.5828456,1.76210391 16.475128,1.70580666 C16.3674104,1.64387968 16.2596928,1.57069326 16.2370154,1.53691491 C16.214338,1.50876629 16.1916606,1.49750684 16.1916606,1.52002574 C16.1916606,1.54254464 16.0952816,1.49750684 15.9818947,1.41869069 C15.8685077,1.34550426 15.7154353,1.26668811 15.6360644,1.24416921 C15.4886613,1.21039086 15.0577908,1.32861509 15.0577908,1.40743124 C15.0577908,1.42995014 15.029444,1.45246904 14.9954279,1.45246904 C14.9614119,1.45246904 14.7743233,1.54817436 14.5815655,1.66076886 C14.1620337,1.91973621 13.8332114,2.10551713 13.6404535,2.20122245 C13.5610827,2.2350008 13.4476957,2.31381695 13.3910022,2.36448448 C13.3343087,2.42078173 13.2662765,2.44893035 13.2435991,2.4376709 C13.2209217,2.42078173 13.1698976,2.44893035 13.1302121,2.49396815 C13.0905267,2.53900595 13.0224945,2.57841403 12.9828091,2.57841403 C12.9374543,2.57841403 12.9034382,2.60656265 12.9034382,2.63471128 C12.9034382,2.66848963 12.8750914,2.69100853 12.8410753,2.69100853 C12.7730432,2.69100853 12.0190198,3.11886762 11.8716167,3.24272157 C11.8149232,3.28775937 11.7695684,3.30464854 11.7695684,3.28212964 C11.7695684,3.25961074 11.7242136,3.27649992 11.6731895,3.32153772 C11.616496,3.37220524 11.4520849,3.47354029 11.3046818,3.55798617 C10.6073519,3.94080746 10.4826262,4.00836416 10.3408925,4.10406949 C10.2615216,4.16599646 10.1764813,4.21103426 10.1594733,4.21103426 C10.1424653,4.21103426 9.89868325,4.35177738 9.60954645,4.52066913 C9.32607901,4.68956088 9.082297,4.83030401 9.0709583,4.83030401 C9.0596196,4.83030401 8.88386979,4.93163905 8.67977323,5.055493 C8.47567666,5.17934695 8.2829188,5.280682 8.25457206,5.280682 C8.22055596,5.280682 8.19787857,5.30883063 8.19787857,5.33697925 C8.19787857,5.3707576 8.16953182,5.3932765 8.13551573,5.3932765 C8.10149963,5.3932765 7.86338698,5.52276017 7.59692758,5.67476275 C7.33046818,5.83239505 7.09235552,5.95624899 7.06400878,5.95624899 C7.02999268,5.95624899 7.00731529,5.98439762 7.00731529,6.01254624 C7.00731529,6.04632459 6.98463789,6.06884349 6.9506218,6.06884349 C6.92227505,6.06884349 6.70117045,6.18143799 6.46305779,6.32218112 C6.23061448,6.46292424 6.00950988,6.57551874 5.98116313,6.57551874 C5.95281639,6.57551874 5.93013899,6.60366736 5.93013899,6.63181599 C5.93013899,6.66559434 5.90746159,6.68811324 5.87911485,6.68811324 C5.85076811,6.68811324 5.15343819,7.07656426 4.33138259,7.54946115 C3.51499634,8.02235805 2.51719093,8.59096027 2.12600585,8.81614927 C1.60442575,9.10889497 1.38899049,9.26652726 1.32662765,9.38475149 C1.21324067,9.62682966 1.21324067,25.4576162 1.332297,25.6377674 C1.41166789,25.7559916 1.8652158,26.0543671 1.96159473,26.0543671 C1.99561083,26.0543671 2.01828822,26.0825157 2.01828822,26.1106643 C2.01828822,26.1444427 2.04663497,26.1669616 2.08065106,26.1669616 C2.11466715,26.1669616 2.35844916,26.2964452 2.63057791,26.4597073 C3.11247257,26.7411935 3.57735918,27.0114203 4.0309071,27.2647579 C4.15563277,27.3379443 4.8189466,27.7151359 5.50493782,28.1092167 C6.19092904,28.5032974 6.86558157,28.8917484 7.00731529,28.9705646 C7.14904901,29.0493807 7.44952451,29.2239022 7.67629846,29.3590156 C7.90874177,29.494129 8.10716898,29.6010938 8.12984638,29.6010938 C8.14685443,29.6010938 8.20354792,29.6348721 8.24890271,29.6799099 C8.29992685,29.7249477 8.47000732,29.8262828 8.62307974,29.9107286 C8.78182151,29.9895448 8.98591807,30.1021393 9.07662765,30.1584365 C9.17300658,30.2147338 9.3600951,30.3216986 9.50182882,30.4005147 C9.64356255,30.4793309 10.0744331,30.7270388 10.4656181,30.9522278 C10.8568032,31.1774168 11.2253109,31.3913463 11.2876737,31.4251247 C11.3443672,31.458903 11.4294075,31.52083 11.4747623,31.5602381 C11.5144477,31.5940164 11.5711412,31.6277948 11.5994879,31.6277948 C11.6278347,31.6277948 11.8376006,31.7403893 12.0643745,31.8698729 C13.1358815,32.5060318 13.8785662,32.9226315 13.923921,32.9226315 C13.9579371,32.9226315 13.9806145,32.9507801 13.9806145,32.9789287 C13.9806145,33.0127071 14.0032919,33.035226 14.0316386,33.035226 C14.0599854,33.035226 14.3717996,33.198488 14.7232992,33.4011581 C15.0804682,33.6038282 15.4319678,33.7670902 15.5113387,33.7670902 C15.5907096,33.7670902 15.8004755,33.6826444 15.9762253,33.5813093 Z" id="Shape" fill="#1F0637" fill-rule="nonzero"></path>
                            <path d="M15.0010973,30.0627312 C14.8593636,30.006434 14.6439283,29.8938395 14.5192026,29.8150233 C14.394477,29.7418369 14.167703,29.6067235 14.0089612,29.5166479 C13.8558888,29.432202 13.4080102,29.1788644 13.0168252,28.9536754 C11.3330285,27.979733 10.2275055,27.3492038 10.2048281,27.3492038 C10.1934894,27.3492038 10.0744331,27.2816471 9.93836869,27.1972012 C9.80797366,27.1127553 9.68324799,27.0508284 9.66057059,27.0564581 C9.63222385,27.0620878 9.6152158,27.0451986 9.6152158,27.01705 C9.6152158,26.9889014 9.56986101,26.955123 9.51883687,26.9382339 C9.46214338,26.9213447 9.29773226,26.8312691 9.15032919,26.7468232 C9.00292612,26.6623774 8.37929773,26.2964452 7.7613387,25.9417726 C7.14337966,25.5870999 6.58778347,25.2662056 6.52542063,25.2267975 C6.46305779,25.1930191 6.32132407,25.114203 6.21360644,25.0579057 C5.73171178,24.7989384 4.86997074,24.2810037 4.74524506,24.1740389 C4.5411485,23.9938877 4.34839064,23.661734 4.30870519,23.4252855 C4.25768105,23.1269101 4.24634236,18.8483191 4.2973665,18.8483191 C4.32004389,18.8483191 4.32004389,18.7920219 4.2973665,18.7244652 C4.25768105,18.606241 4.2520117,18.3360142 4.2860278,18.2009008 C4.29169715,18.1727521 4.29169715,18.1220846 4.2860278,18.0883063 C4.25768105,17.9475631 4.2746891,17.1087341 4.30870519,17.0524369 C4.33138259,17.0186585 4.33138259,16.9905099 4.30303584,16.9905099 C4.2520117,16.9905099 4.25768105,15.1777385 4.30870519,15.0482548 C4.32571324,15.003217 4.32004389,14.9638089 4.2973665,14.9638089 C4.2746891,14.9638089 4.25768105,14.8230658 4.25768105,14.654174 C4.25768105,14.4852823 4.2746891,14.3445392 4.2973665,14.3445392 C4.32004389,14.3445392 4.32004389,14.2882419 4.2973665,14.2206852 C4.25768105,14.102461 4.2520117,13.8322342 4.2860278,13.6971208 C4.29169715,13.6689722 4.29169715,13.6295641 4.2860278,13.6126749 C4.2520117,13.528229 4.2633504,12.9934052 4.30303584,12.9934052 C4.32571324,12.9934052 4.32571324,12.9483674 4.30303584,12.8976999 C4.24634236,12.7794756 4.25768105,11.9519061 4.31437454,11.6141226 C4.38807608,11.1862635 4.67154353,10.8147016 5.11942209,10.5726235 C5.23847842,10.5106965 5.37454279,10.4375101 5.41989759,10.4093614 C5.95848574,10.0772077 8.2715801,8.77111147 8.31693489,8.77111147 C8.34528164,8.77111147 8.36795903,8.75422229 8.36795903,8.73170339 C8.36795903,8.70355477 8.42465252,8.65851697 8.49835406,8.63036834 C8.69678127,8.53466302 9.13332114,8.29821457 9.16166789,8.2588065 C9.17867593,8.24191732 9.30340161,8.1687309 9.44513533,8.08991475 C9.58686906,8.01672833 9.71159473,7.93791218 9.71726408,7.91539328 C9.72860278,7.88724465 9.76261887,7.87035548 9.79096562,7.87035548 C9.81931236,7.87035548 10.2161668,7.65642593 10.6697147,7.39182886 C11.128932,7.12723178 11.5144477,6.91330224 11.5314557,6.91330224 C11.5484638,6.91330224 11.6051573,6.87952389 11.6505121,6.83448609 C11.7015362,6.78944829 11.8716167,6.68811324 12.0246891,6.60929709 C12.1834309,6.52485121 12.347842,6.43477562 12.3931968,6.40662699 C12.7333577,6.19269744 13.3683248,5.8436545 13.4136796,5.8436545 C13.4476957,5.8436545 13.4703731,5.8211356 13.4703731,5.78735725 C13.4703731,5.75920862 13.4930505,5.73106 13.5270666,5.73106 C13.5724214,5.73106 14.2697513,5.3482387 14.5475494,5.1680875 C15.1768471,4.76837703 15.7040966,4.73459868 16.3050475,5.06675245 C16.701902,5.280682 17.2404901,5.58468715 17.3822238,5.67476275 C17.4275786,5.70291137 17.8641185,5.95061927 18.3460132,6.22647579 C18.8279078,6.50233231 19.627286,6.96396976 20.11485,7.24545601 C20.6080834,7.52694226 21.0332846,7.75776098 21.0673007,7.75776098 C21.0956474,7.75776098 21.1239941,7.77465015 21.1239941,7.80279878 C21.1239941,7.82531768 21.2430505,7.90413383 21.3961229,7.98294998 C21.543526,8.06176613 21.8156547,8.2137687 22.0027432,8.3263632 C22.1898317,8.4389577 22.4562911,8.59096027 22.5980249,8.66977642 C22.7397586,8.74859257 23.3520483,9.09763552 23.9586686,9.44667846 C24.565289,9.80135113 25.1152158,10.1166157 25.1775786,10.1503941 C26.6175933,10.9272961 26.7536576,11.1074473 26.7649963,12.2615409 C26.7706657,12.649992 26.759327,12.9877755 26.7423189,13.0159241 C26.7309802,13.0497024 26.7196416,13.2861509 26.7309802,13.5507479 C26.7479883,14.2375744 26.7423189,14.2488338 26.7083029,14.3839472 C26.6912948,14.4515039 26.7026335,14.5190606 26.7309802,14.5359498 C26.7536576,14.552839 26.759327,14.6654335 26.7366496,14.7836577 C26.7196416,14.9018819 26.7196416,15.0482548 26.7366496,15.1101818 C26.759327,15.166479 26.7649963,15.2396654 26.7479883,15.2678141 C26.6969642,15.3522599 26.6969642,15.5887084 26.7479883,15.616857 C26.776335,15.6337462 26.776335,15.6731543 26.7536576,15.7125623 C26.6969642,15.8026379 26.6969642,16.0390864 26.7479883,16.067235 C26.776335,16.0841242 26.776335,16.1235323 26.7536576,16.1629403 C26.6969642,16.2530159 26.6969642,16.4894644 26.7479883,16.517613 C26.776335,16.5345022 26.776335,16.5739102 26.7536576,16.6133183 C26.7366496,16.6470967 26.7196416,16.8891748 26.7309802,17.1537719 C26.7479883,17.8405984 26.7423189,17.8518578 26.7083029,17.9869712 C26.6912948,18.0545279 26.7026335,18.1220846 26.7309802,18.1389738 C26.7536576,18.155863 26.759327,18.2684575 26.7366496,18.3866817 C26.7196416,18.5049059 26.7196416,18.6512788 26.7366496,18.7132057 C26.759327,18.769503 26.7649963,18.8426894 26.7479883,18.870838 C26.6969642,18.9552839 26.6969642,19.1917323 26.7479883,19.219881 C26.776335,19.2367701 26.776335,19.2761782 26.7536576,19.3155863 C26.6969642,19.4056619 26.6969642,19.6421103 26.7479883,19.670259 C26.776335,19.6871481 26.776335,19.7265562 26.7536576,19.7659643 C26.6969642,19.8560399 26.6969642,20.0924883 26.7479883,20.120637 C26.776335,20.1375261 26.776335,20.1769342 26.7536576,20.2163423 C26.7366496,20.2501206 26.7196416,20.4921988 26.7309802,20.7567959 C26.7479883,21.4436223 26.7423189,21.4548818 26.7083029,21.5899952 C26.6912948,21.6575519 26.7083029,21.7307383 26.7366496,21.7476275 C26.7706657,21.7701464 26.7820044,21.8039247 26.7706657,21.8264436 C26.7366496,21.8771111 26.7309802,22.0685218 26.7366496,22.7497185 C26.7479883,23.4984719 26.6686174,23.7574393 26.3227871,24.1008525 C26.1697147,24.2528551 25.5857718,24.6469358 25.5177396,24.6469358 C25.5064009,24.6469358 24.9678127,24.950941 24.3271763,25.3225028 C23.6808705,25.6940647 23.1309437,25.9980698 23.1025969,25.9980698 C23.0742502,25.9980698 23.0515728,26.0205887 23.0515728,26.0487373 C23.0515728,26.076886 22.9665326,26.1275535 22.8701536,26.1725913 C22.7681053,26.2119994 22.6717264,26.2570372 22.6547184,26.2795561 C22.6377103,26.2964452 22.5640088,26.341483 22.4846379,26.3808911 C22.405267,26.4202992 22.2692026,26.4934856 22.1728237,26.5554126 C22.0821141,26.6117098 21.900695,26.7130449 21.7759693,26.7862313 C21.4188003,26.9832717 19.8030358,27.9121763 19.7066569,27.9684735 C19.6613021,28.0022519 19.5195684,28.0754383 19.3948427,28.142995 C19.270117,28.2105517 19.0660205,28.3287759 18.9412948,28.4132218 C18.8165691,28.492038 18.7031822,28.5595947 18.6861741,28.5595947 C18.6691661,28.5595947 18.5954645,28.6046325 18.5160936,28.6553 C18.4367228,28.7003378 18.0285296,28.942416 17.6089978,29.1788644 C16.8776518,29.5954641 16.7529261,29.6686505 16.2653621,29.944507 C15.8685077,30.169696 15.3809437,30.2147338 15.0010973,30.0627312 Z M16.588515,28.4695191 C17.7620702,27.7939521 17.8924653,27.7207656 18.1362473,27.5856522 C18.4310534,27.4167605 18.9356255,27.1240148 19.026335,27.0677175 C19.0716898,27.0339392 20.3359546,26.3133344 21.8326628,25.4519865 C23.3293709,24.5962683 24.7070227,23.8081068 24.8941112,23.701142 C25.0811997,23.5941773 25.3023043,23.4703233 25.3873446,23.4252855 C25.4723848,23.3802477 25.557425,23.3183207 25.5801024,23.2845424 C25.6254572,23.2169857 25.6311266,21.7307383 25.5914411,21.6857005 C25.5744331,21.674441 25.5801024,21.5787357 25.5971105,21.4830304 C25.6197879,21.3816954 25.6197879,21.1677658 25.6027798,21.0045038 C25.5857718,20.835612 25.5801024,20.6892392 25.5971105,20.6779797 C25.6084492,20.6610906 25.6141185,20.4640502 25.6084492,20.2444909 C25.6027798,20.0193019 25.6027798,19.7941129 25.6027798,19.7490751 C25.6027798,19.7040373 25.6027798,19.5182564 25.6027798,19.3381052 C25.6027798,19.1635837 25.5971105,18.994692 25.5971105,18.9721731 C25.5914411,18.9496542 25.5971105,18.9102461 25.6027798,18.8764677 C25.6084492,18.8483191 25.6084492,18.645649 25.6084492,18.4260898 C25.6027798,18.2121602 25.6027798,17.9926009 25.6027798,17.9475631 C25.6027798,17.9025253 25.6027798,17.7167444 25.6027798,17.5365932 C25.6027798,17.3620717 25.5971105,17.19318 25.5971105,17.1706611 C25.5914411,17.1481422 25.5971105,17.1087341 25.6027798,17.0749558 C25.6084492,17.0468071 25.6084492,16.844137 25.6084492,16.6245778 C25.6027798,16.4106482 25.6027798,16.1910889 25.6027798,16.1460512 C25.6027798,16.1010134 25.6027798,15.9152324 25.6027798,15.7350812 C25.6027798,15.5605598 25.5971105,15.391668 25.5971105,15.3691491 C25.5914411,15.3466302 25.5971105,15.3072221 25.6027798,15.2734438 C25.6084492,15.2452952 25.6084492,15.0426251 25.6084492,14.8230658 C25.6027798,14.6091362 25.6027798,14.389577 25.6027798,14.3445392 C25.6027798,14.2995014 25.6027798,14.1137204 25.6027798,13.9335692 C25.6027798,13.7590478 25.5971105,13.590156 25.5971105,13.5676371 C25.5914411,13.5451182 25.5971105,13.5057101 25.6027798,13.4719318 C25.6084492,13.4437832 25.6084492,13.3142995 25.6084492,13.1904456 C25.6084492,13.0665916 25.6027798,12.6950298 25.5971105,12.3685057 C25.5971105,12.0419817 25.5744331,11.749236 25.557425,11.7210873 C25.5234089,11.6704198 24.6616679,11.1355959 24.6163131,11.1355959 C24.6049744,11.1355959 24.3044989,10.9667042 23.9529993,10.7640341 C22.6207023,9.99276178 22.3542429,9.84075921 22.3088881,9.84075921 C22.2805413,9.84075921 22.2578639,9.81824031 22.2578639,9.78446196 C22.2578639,9.75631333 22.2351865,9.72816471 22.2068398,9.72816471 C22.1784931,9.72816471 21.5945501,9.40727039 20.9142282,9.01318964 C20.2339064,8.62473862 19.5762619,8.24754705 19.4515362,8.17999035 C19.3268105,8.10680392 18.4310534,7.59449895 17.4559254,7.03715618 C16.4864667,6.47418369 15.630395,6.00128679 15.5566935,5.98439762 C15.4603146,5.96187872 15.1485004,6.10825157 14.3037674,6.59803764 C13.6858083,6.95271031 13.1472202,7.27360463 13.1018654,7.30738298 C13.0565106,7.34679106 13.0168252,7.36368023 13.0168252,7.34116133 C13.0168252,7.32427216 12.8807608,7.39182886 12.722019,7.49879363 C12.5576079,7.60012868 12.3081565,7.74650153 12.1664228,7.82531768 C12.0246891,7.90413383 11.4294075,8.24754705 10.8341258,8.58533055 C9.45647403,9.38475149 8.40197513,9.98713206 8.11283833,10.1503941 C7.98811266,10.2235805 7.41550841,10.5501046 6.83723482,10.8822583 C6.25896123,11.2200418 5.72037308,11.524047 5.63533285,11.5690848 C5.54462326,11.6141226 5.45958303,11.7154576 5.43690563,11.7999035 C5.38021214,12.0307222 5.39722019,23.2395046 5.45391368,23.2958018 C5.51060717,23.3464694 7.93708851,24.7595303 8.5380395,25.0860544 C8.64575713,25.1479813 9.20702268,25.4688757 9.78529627,25.8010294 C10.3635699,26.1331832 10.9248354,26.4540775 11.032553,26.5160045 C11.1402707,26.5779315 11.6505121,26.8706772 12.1664228,27.1690526 C12.6823336,27.4617983 13.2039137,27.7601737 13.3286394,27.8333601 C13.453365,27.9009168 13.9749451,28.1992923 14.4908559,28.4976677 C15.0067666,28.7960431 15.4659839,29.0381213 15.5113387,29.0381213 C15.5566935,29.0381213 16.0442575,28.7791539 16.588515,28.4695191 Z" id="Shape" fill="#1F0637" fill-rule="nonzero"></path>
                            <path d="M14.9840892,25.1592408 C14.8196781,25.0804246 14.6779444,25.0016085 14.6609364,24.9847193 C14.6439283,24.9678301 14.5702268,24.9227923 14.4908559,24.8833843 C14.411485,24.8496059 14.3094367,24.7933087 14.2640819,24.7595303 C14.0883321,24.6469358 13.0054865,24.0276661 12.9828091,24.0276661 C12.9714704,24.0276661 12.852414,23.9601094 12.7163497,23.8756635 C12.5859546,23.7968474 12.3365033,23.6504745 12.1664228,23.5603989 C11.9963424,23.4646936 11.8432699,23.374618 11.8262619,23.3577288 C11.8092538,23.3408396 11.6845282,23.2620235 11.5427944,23.1888371 C11.4010607,23.1156506 11.0608998,22.92424 10.7774323,22.760978 C8.64575713,21.5224385 8.74780541,21.6012546 8.62307974,21.2353225 C8.5720556,21.0776902 8.55504755,20.2050828 8.55504755,17.4634068 C8.55504755,14.2206852 8.5607169,13.877272 8.65142648,13.6802316 C8.75347476,13.4550426 9.0596196,13.1622969 9.19568398,13.1622969 C9.24103877,13.1622969 9.27505486,13.1454078 9.27505486,13.1228889 C9.27505486,13.0947402 9.33174835,13.0497024 9.40544989,13.0159241 C9.47348208,12.9821457 9.75694952,12.8245134 10.0290783,12.6668811 C10.3068764,12.5036191 10.5563277,12.3741354 10.5846745,12.3741354 C10.6130212,12.3741354 10.6356986,12.3516165 10.6356986,12.3178382 C10.6356986,12.2896896 10.658376,12.2615409 10.6867228,12.2615409 C10.7264082,12.2615409 11.4180688,11.8787196 11.7128749,11.6985684 C12.0587052,11.4790092 14.5645574,10.0659482 14.6042429,10.0659482 C14.6269203,10.0659482 14.6609364,10.049059 14.6722751,10.0265401 C14.7176298,9.91394563 15.2108632,9.71127553 15.4546452,9.70001608 C15.7721287,9.68312691 15.8968544,9.74505388 17.2291514,10.5163262 C17.7337235,10.8090719 18.1986101,11.0792987 18.2609729,11.113077 C18.4934162,11.236931 20.698793,12.5036191 20.7554865,12.5430272 C20.7895026,12.5655461 20.9255669,12.649992 21.0673007,12.7231784 C22.048098,13.263632 22.1898317,13.3705968 22.3485735,13.6689722 C22.4449525,13.8547531 22.4562911,14.0743124 22.4562911,17.4408879 C22.4619605,19.8110021 22.4449525,21.0833199 22.405267,21.2128036 C22.3372348,21.4323629 22.03109,21.7588869 21.7759693,21.8883706 C21.6795903,21.9334084 21.2430505,22.1811163 20.8008413,22.4344539 C20.358632,22.6934213 19.967447,22.9017211 19.9391002,22.9017211 C19.9107535,22.9017211 19.8767374,22.9186103 19.8653987,22.9467589 C19.8483906,22.9917967 18.9412948,23.5209908 18.8846013,23.5209908 C18.8619239,23.5209908 18.7371982,23.599807 18.6011339,23.6898826 C18.4650695,23.7855879 18.3290051,23.8587743 18.3006584,23.8587743 C18.2666423,23.8587743 18.2326262,23.8756635 18.2212875,23.9038121 C18.2156181,23.926331 18.1135699,23.988258 18.0058522,24.050185 C17.6883687,24.2190767 17.3425384,24.4104874 16.6395391,24.8158276 C16.2767008,25.0241274 15.9195318,25.215538 15.8458303,25.2436867 C15.5793709,25.3337623 15.2788954,25.3056136 14.9840892,25.1592408 Z M17.7053767,23.0649831 C18.8505852,22.4063053 19.8824067,21.8151842 19.9957937,21.7532572 C20.1091807,21.6857005 20.3529627,21.5505871 20.5343819,21.4436223 C20.7214704,21.3366576 20.9482443,21.2128036 21.0389539,21.1621361 C21.1353328,21.1114686 21.2657279,21.0326524 21.3394294,20.9876146 L21.4641551,20.9031687 L21.4641551,17.4859257 C21.4641551,14.1193502 21.4641551,14.0686826 21.3507681,14.0349043 C21.2884053,14.0180151 21.2373811,13.978607 21.2373811,13.9560881 C21.2373811,13.9335692 21.1466715,13.8829017 21.0389539,13.8378639 C20.9312363,13.7928261 20.8405267,13.7421586 20.8405267,13.71401 C20.8405267,13.6914911 20.8178493,13.6689722 20.7895026,13.6689722 C20.715801,13.6689722 19.1170446,12.751327 19.0943672,12.7006595 C19.0830285,12.6725109 19.0433431,12.6556217 19.009327,12.6556217 C18.9696416,12.6556217 18.782553,12.5542866 18.5841258,12.4304327 C18.391368,12.3065787 18.1929407,12.2052437 18.147586,12.2052437 C18.1022312,12.2052437 18.0625457,12.1827248 18.0625457,12.1545762 C18.0625457,12.1264275 17.9548281,12.0532411 17.8244331,11.9856844 C17.6883687,11.9181277 17.4615947,11.7942738 17.319861,11.7098279 C17.1781273,11.625382 16.7075713,11.3551552 16.2823702,11.113077 C15.5680322,10.7021071 15.4886613,10.6739585 15.3809437,10.7415152 C15.1655084,10.8766286 14.6949525,11.1355959 14.5475494,11.2087824 C14.4681785,11.2425607 14.394477,11.2875985 14.3774689,11.3101174 C14.3604609,11.3270066 14.28109,11.3776741 14.1960497,11.4227119 C14.1110095,11.4677497 13.8332114,11.6197523 13.5780907,11.7717549 C13.32297,11.9181277 13.0905267,12.0363519 13.0678493,12.0363519 C13.0395026,12.0363519 13.0168252,12.0645006 13.0168252,12.0926492 C13.0168252,12.1264275 12.9941478,12.1489464 12.9601317,12.1489464 C12.9317849,12.1489464 12.722019,12.2559112 12.4952451,12.3910246 C12.2684711,12.526138 12.0416971,12.649992 11.9963424,12.6725109 C11.9169715,12.7119189 11.8489393,12.7456973 11.5427944,12.9427377 C11.4634236,12.9934052 11.2253109,13.1285186 11.0042063,13.2467428 C10.788771,13.364967 10.544989,13.5057101 10.4712875,13.5620074 C10.397586,13.6239344 10.3182151,13.6689722 10.2898683,13.6689722 C10.2671909,13.6689722 10.0914411,13.7590478 9.9043526,13.8716423 L9.55852231,14.0743124 L9.55852231,17.4971851 L9.55852231,20.9200579 L10.1424653,21.2522117 C10.4599488,21.4379926 11.6675201,22.1304488 12.818398,22.7891266 C13.9749451,23.4478044 15.029444,24.0614444 15.1711778,24.1458903 C15.3129115,24.2303362 15.4716533,24.2978929 15.5226774,24.2866334 C15.5737015,24.275374 16.5544989,23.7236609 17.7053767,23.0649831 Z" id="Shape" fill="#1F0637" fill-rule="nonzero"></path>
                        </g>
                    </g>
                </g>
            </g>
            <text id="4" font-family="OpenSans-Bold, Open Sans" font-size="25" font-weight="bold" fill="#FFFFFF">
                <tspan x="14.3649902" y="31">4</tspan>
            </text>
        </g>
    </g>
</svg>