<?xml version="1.0" encoding="UTF-8"?>
<svg width="144px" height="124px" viewBox="0 0 144 124" version="1.1" xmlns="http://www.w3.org/2000/svg" xmlns:xlink="http://www.w3.org/1999/xlink">
    <!-- Generator: Sketch 48.2 (47327) - http://www.bohemiancoding.com/sketch -->
    <title>Group 37</title>
    <desc>Created with Sketch.</desc>
    <defs>
        <polygon id="path-1" points="0.125242771 0.157149346 110.361616 0.157149346 110.361616 103.937435 0.125242771 103.937435"></polygon>
        <radialGradient cx="80.0396817%" cy="33.8709253%" fx="80.0396817%" fy="33.8709253%" r="118.90683%" gradientTransform="translate(0.800397,0.338709),scale(0.941435,1.000000),rotate(173.194935),scale(1.000000,0.966691),translate(-0.800397,-0.338709)" id="radialGradient-3">
            <stop stop-color="#FF2AC7" offset="0%"></stop>
            <stop stop-color="#0042CB" offset="100%"></stop>
        </radialGradient>
        <polygon id="path-4" points="0.125242771 0.157006452 110.361616 0.157006452 110.361616 103.842926 0.125242771 103.842926"></polygon>
    </defs>
    <g id="Desktop-HD-Copy-12" stroke="none" stroke-width="1" fill="none" fill-rule="evenodd" transform="translate(-104.000000, -2387.000000)">
        <g id="Page-1" transform="translate(64.000000, 2355.000000)">
            <g id="Group-37" transform="translate(40.000000, 32.000000)">
                <g id="Group-6" transform="translate(0.000000, 20.000000)">
                    <mask id="mask-2" fill="white">
                        <use xlink:href="#path-1"></use>
                    </mask>
                    <g id="Clip-5"></g>
                    <path d="M68.128791,0.157082188 L42.3580681,0.157082188 C31.8725801,0.157082188 22.1841524,5.7748355 16.9417428,14.8948702 L4.05705,37.3094709 C-1.18535964,46.4288339 -1.18535964,57.6650122 4.05705,66.7850468 L16.9417428,89.1996475 C22.1841524,98.3196822 31.8725801,103.937435 42.3580681,103.937435 L68.128791,103.937435 C78.6136102,103.937435 88.302038,98.3196822 93.5451163,89.1996475 L106.429809,66.7850468 C111.672219,57.6650122 111.672219,46.4288339 106.429809,37.3094709 L93.5451163,14.8948702 C88.302038,5.7748355 78.6136102,0.157082188 68.128791,0.157082188" id="Fill-4" fill="url(#radialGradient-3)" mask="url(#mask-2)"></path>
                </g>
                <g id="Group-6-Copy" opacity="0.475203804" transform="translate(33.000000, 0.000000)">
                    <mask id="mask-5" fill="white">
                        <use xlink:href="#path-4"></use>
                    </mask>
                    <g id="Clip-5"></g>
                    <path d="M68.128791,0.156939355 L42.3580681,0.156939355 C31.8725801,0.156939355 22.1841524,5.76958452 16.9417428,14.8813265 L4.05705,37.2755458 C-1.18535964,46.3866168 -1.18535964,57.6125781 4.05705,66.72432 L16.9417428,89.1185394 C22.1841524,98.2302813 31.8725801,103.842926 42.3580681,103.842926 L68.128791,103.842926 C78.6136102,103.842926 88.302038,98.2302813 93.5451163,89.1185394 L106.429809,66.72432 C111.672219,57.6125781 111.672219,46.3866168 106.429809,37.2755458 L93.5451163,14.8813265 C88.302038,5.76958452 78.6136102,0.156939355 68.128791,0.156939355" id="Fill-4" fill="#E5E5E5" mask="url(#mask-5)"></path>
                </g>
            </g>
        </g>
    </g>
</svg>