<svg width="79" height="17" xmlns="http://www.w3.org/2000/svg"><g fill="#FFF" fill-rule="evenodd"><path d="M49.217 4.262c2.227 0 4.063 1.955 4.063 4.488 0 2.533-1.836 4.488-4.063 4.488-1.139 0-1.972-.391-2.533-1.037V13h-2.55V1.1h2.55v4.199c.561-.646 1.394-1.037 2.533-1.037zm-.51 6.562c1.173 0 2.023-.799 2.023-2.074s-.85-2.074-2.023-2.074-2.023.799-2.023 2.074.85 2.074 2.023 2.074zM55.017 13V.59h2.55V13h-2.55zm8.793.238c-2.5 0-4.505-1.955-4.505-4.488 0-2.533 2.006-4.488 4.505-4.488s4.505 1.955 4.505 4.488c0 2.533-2.006 4.488-4.505 4.488zm0-2.482c1.105 0 1.955-.799 1.955-2.006 0-1.207-.85-2.006-1.955-2.006s-1.955.799-1.955 2.006c0 1.207.85 2.006 1.955 2.006zM76.29 4.5h2.483v8.075c0 2.856-2.227 4.063-4.488 4.063-1.768 0-3.247-.663-4.03-2.057l2.177-1.258c.323.595.816 1.071 1.938 1.071 1.19 0 1.92-.612 1.92-1.819v-.782c-.56.697-1.376 1.105-2.481 1.105-2.414 0-4.182-1.972-4.182-4.318 0-2.346 1.768-4.318 4.182-4.318 1.105 0 1.92.408 2.482 1.105V4.5zm-2.056 6.052c1.207 0 2.057-.799 2.057-1.972s-.85-1.972-2.057-1.972c-1.207 0-2.057.799-2.057 1.972s.85 1.972 2.057 1.972z"/><path d="M13.68.4V13H10.8V5.674L7.542 11.02h-.324L3.96 5.674V13H1.08V.4h2.88l3.42 5.598L10.8.4h2.88zm7.51 0c3.473 0 6.12 2.736 6.12 6.3 0 3.564-2.647 6.3-6.12 6.3h-5.04V.4h5.04zm0 9.828c1.98 0 3.347-1.368 3.347-3.528S23.17 3.172 21.19 3.172h-2.16v7.056h2.16zm10.929 0h4.5V13h-7.38V.4h2.88v9.828zm8.05 3.024a1.72 1.72 0 0 1-1.71-1.71c0-.936.773-1.71 1.71-1.71.935 0 1.71.774 1.71 1.71a1.72 1.72 0 0 1-1.71 1.71z" stroke="#FFF" stroke-width=".4" fill="none"/></g></svg>