<svg width="22" height="18" xmlns="http://www.w3.org/2000/svg"><path d="M22 2.13a8.962 8.962 0 0 1-2.591.716A4.559 4.559 0 0 0 21.392.332a9.057 9.057 0 0 1-2.867 1.104A4.485 4.485 0 0 0 15.23 0c-2.493 0-4.514 2.036-4.514 4.545 0 .356.04.703.117 1.035-3.75-.19-7.075-2-9.301-4.75a4.532 4.532 0 0 0-.61 2.286c0 1.577.797 2.968 2.007 3.783a4.489 4.489 0 0 1-2.045-.57v.056a4.542 4.542 0 0 0 3.62 4.457 4.54 4.54 0 0 1-1.19.16c-.29 0-.572-.03-.849-.085.575 1.807 2.241 3.121 4.215 3.157a9.013 9.013 0 0 1-5.605 1.943c-.364 0-.723-.022-1.076-.062A12.69 12.69 0 0 0 6.918 18c8.302 0 12.84-6.926 12.84-12.933l-.015-.589A9.048 9.048 0 0 0 22 2.13z" fill="#FFF"/></svg>