<?xml version="1.0" encoding="UTF-8"?>
<svg width="77px" height="87px" viewBox="0 0 77 87" version="1.1" xmlns="http://www.w3.org/2000/svg" xmlns:xlink="http://www.w3.org/1999/xlink">
    <!-- Generator: Sketch 48.2 (47327) - http://www.bohemiancoding.com/sketch -->
    <title>Group 26</title>
    <desc>Created with Sketch.</desc>
    <defs>
        <polygon id="path-1" points="0.8038 0.1809 67.849 0.1809 67.849 85.9999 0.8038 85.9999"></polygon>
    </defs>
    <g id="Desktop-HD-Copy-12" stroke="none" stroke-width="1" fill="none" fill-rule="evenodd" transform="translate(-1434.000000, -2958.000000)">
        <g id="Group-22-Copy-2" transform="translate(1008.000000, 2957.000000)">
            <g id="Group-21">
                <g id="Group-8">
                    <g id="Group-19">
                        <g id="Group-24" transform="translate(12.000000, 0.000000)">
                            <g id="Group-15" transform="translate(37.000000, 0.000000)">
                                <g id="Page-1" transform="translate(216.000000, 0.000000)">
                                    <g id="Group-26" transform="translate(161.000000, 1.000000)">
                                        <path d="M47.0249,29.4696 C52.6519,30.9226 56.9099,35.5626 57.8719,41.2896 C57.9819,41.9456 58.5489,42.4086 59.1919,42.4086 C59.2659,42.4086 59.3409,42.4036 59.4159,42.3906 C60.1469,42.2676 60.6399,41.5756 60.5169,40.8456 C59.3789,34.0746 54.3469,28.5896 47.6939,26.8736 C46.9769,26.6886 46.2459,27.1186 46.0609,27.8366 C45.8769,28.5536 46.3079,29.2846 47.0249,29.4696" id="Fill-8" fill="#1A0A2B"></path>
                                        <path d="M21.0864,69.785 L7.6774,83.194 C6.6314,84.24 4.9304,84.24 3.8844,83.194 C3.3784,82.688 3.0994,82.014 3.0994,81.299 C3.0994,80.582 3.3784,79.908 3.8844,79.402 L17.2934,65.993 C17.7994,65.486 18.4734,65.207 19.1894,65.207 C19.9064,65.207 20.5804,65.486 21.0864,65.993 C21.5934,66.5 21.8714,67.173 21.8714,67.889 C21.8714,68.605 21.5934,69.279 21.0864,69.785 Z M43.3264,23.639 C54.4174,23.639 63.4404,32.662 63.4404,43.753 C63.4404,54.844 54.4174,63.867 43.3264,63.867 C32.2354,63.867 23.2124,54.844 23.2124,43.753 C23.2124,32.662 32.2354,23.639 43.3264,23.639 Z M22.9824,71.681 C23.9954,70.669 24.5534,69.321 24.5534,67.889 C24.5534,66.915 24.2944,65.98 23.8124,65.164 L28.1914,60.784 C32.2204,64.367 37.5234,66.549 43.3264,66.549 C55.8964,66.549 66.1224,56.322 66.1224,43.753 C66.1224,31.183 55.8964,20.957 43.3264,20.957 C30.7574,20.957 20.5304,31.183 20.5304,43.753 C20.5304,49.556 22.7114,54.858 26.2954,58.888 L21.9144,63.267 C21.0984,62.784 20.1644,62.525 19.1904,62.525 C17.7574,62.525 16.4104,63.083 15.3984,64.097 L1.9884,77.506 C0.9754,78.518 0.4174,79.865 0.4174,81.299 C0.4174,82.73 0.9754,84.078 1.9884,85.091 C3.0334,86.137 4.4074,86.659 5.7814,86.659 C7.1544,86.659 8.5274,86.137 9.5734,85.091 L22.9824,71.681 Z" id="Fill-10" fill="#1A0A2B"></path>
                                        <g id="Group-14" transform="translate(9.000000, 0.662300)">
                                            <mask id="mask-2" fill="white">
                                                <use xlink:href="#path-1"></use>
                                            </mask>
                                            <g id="Clip-13"></g>
                                            <path d="M67.8428,18.8219 C67.8408,18.8019 67.8368,18.7839 67.8348,18.7649 C67.8308,18.7409 67.8278,18.7169 67.8228,18.6919 C67.8188,18.6699 67.8128,18.6479 67.8078,18.6269 C67.8018,18.6049 67.7978,18.5859 67.7908,18.5649 C67.7848,18.5439 67.7778,18.5229 67.7698,18.5019 C67.7628,18.4809 67.7558,18.4609 67.7468,18.4399 C67.7388,18.4219 67.7298,18.4029 67.7208,18.3839 C67.7108,18.3629 67.7018,18.3429 67.6908,18.3219 C67.6808,18.3029 67.6698,18.2869 67.6598,18.2679 C67.6478,18.2489 67.6368,18.2279 67.6238,18.2089 C67.6108,18.1899 67.5968,18.1719 67.5828,18.1539 C67.5708,18.1369 67.5588,18.1209 67.5448,18.1039 C67.5198,18.0729 67.4928,18.0439 67.4648,18.0139 C67.4618,18.0109 67.4588,18.0089 67.4568,18.0059 L50.0248,0.5739 C50.0248,0.5739 50.0238,0.5729 50.0238,0.5729 C49.9818,0.5309 49.9368,0.4929 49.8888,0.4569 C49.8788,0.4489 49.8678,0.4409 49.8568,0.4319 C49.8088,0.3979 49.7598,0.3669 49.7068,0.3399 C49.7038,0.3369 49.6998,0.3349 49.6958,0.3339 C49.6468,0.3079 49.5958,0.2859 49.5438,0.2659 C49.5328,0.2619 49.5228,0.2589 49.5118,0.2549 C49.4548,0.2349 49.3978,0.2189 49.3388,0.2079 C49.3378,0.2069 49.3358,0.2069 49.3338,0.2069 C49.2798,0.1959 49.2238,0.1889 49.1668,0.1849 C49.1528,0.1839 49.1368,0.1839 49.1208,0.1829 C49.1068,0.1829 49.0918,0.1809 49.0758,0.1809 L4.8258,0.1809 C2.6088,0.1809 0.8038,1.9859 0.8038,4.2039 L0.8038,61.8629 C0.8038,62.6029 1.4038,63.2049 2.1448,63.2049 C2.8848,63.2049 3.4858,62.6029 3.4858,61.8629 L3.4858,4.2039 C3.4858,3.4649 4.0878,2.8629 4.8258,2.8629 L47.7358,2.8629 L47.7358,16.2719 C47.7358,18.4899 49.5398,20.2949 51.7588,20.2949 L59.8028,20.2949 C60.5438,20.2949 61.1448,19.6939 61.1448,18.9549 C61.1448,18.2139 60.5438,17.6129 59.8028,17.6129 L51.7588,17.6129 C51.0188,17.6129 50.4178,17.0109 50.4178,16.2719 L50.4178,4.7589 L65.1678,19.5089 L65.1678,81.9759 C65.1678,82.7169 64.5658,83.3179 63.8268,83.3179 L6.1678,83.3179 C5.4268,83.3179 4.8268,83.9179 4.8268,84.6589 C4.8268,85.3989 5.4268,85.9999 6.1678,85.9999 L63.8268,85.9999 C66.0448,85.9999 67.8498,84.1949 67.8498,81.9759 L67.8498,18.9549 C67.8498,18.9099 67.8468,18.8659 67.8428,18.8219" id="Fill-12" fill="#1A0A2B" mask="url(#mask-2)"></path>
                                        </g>
                                        <path d="M46.8198,44.8934 C46.3278,45.2504 46.1208,45.7914 46.3088,46.3704 L47.6398,50.4194 L44.1538,47.8624 C43.6618,47.5044 42.9908,47.4934 42.4988,47.8504 L39.0128,50.3764 L40.3448,46.2764 C40.5318,45.6974 40.3248,45.2514 39.8328,44.8944 L36.3468,42.5544 L40.6558,42.5544 C41.2638,42.5544 41.8068,41.9654 41.9948,41.3874 L43.3268,37.1924 L44.6578,41.4364 C44.8458,42.0144 45.3888,42.5544 45.9968,42.5544 L50.3058,42.5544 L46.8198,44.8934 Z M55.9778,40.4254 C55.7898,39.8464 55.2468,39.5544 54.6388,39.5544 L47.0198,39.5544 L44.6658,32.2064 C44.4778,31.6284 43.9348,31.1824 43.3268,31.1824 C42.7188,31.1824 42.1758,31.6544 41.9878,32.2324 L39.6328,39.5544 L32.0148,39.5544 C31.4068,39.5544 30.8638,39.8464 30.6758,40.4254 C30.4878,41.0034 30.6948,41.5904 31.1868,41.9484 L37.3508,46.4014 L34.9968,53.6344 C34.8088,54.2124 35.0158,54.8444 35.5078,55.2024 C35.9998,55.5584 36.6708,55.5554 37.1628,55.1984 L43.3268,50.7184 L49.4898,55.1964 C49.9828,55.5534 50.6528,55.5524 51.1448,55.1954 C51.6368,54.8384 51.8448,54.2004 51.6568,53.6224 L49.3018,46.3754 L55.4658,41.9484 C55.9578,41.5904 56.1658,41.0034 55.9778,40.4254 Z" id="Fill-21" fill="#1A0A2B"></path>
                                    </g>
                                </g>
                            </g>
                        </g>
                    </g>
                </g>
            </g>
        </g>
    </g>
</svg>