<svg width="77" height="87" xmlns="http://www.w3.org/2000/svg" xmlns:xlink="http://www.w3.org/1999/xlink"><defs><path id="a" d="M9.61.843h67.046v85.82H9.61z"/></defs><g fill="none" fill-rule="evenodd"><path d="M46.831 29.47a14.746 14.746 0 0 1 10.847 11.82 1.34 1.34 0 0 0 1.544 1.1 1.342 1.342 0 0 0 1.102-1.544A17.427 17.427 0 0 0 47.5 26.874a1.34 1.34 0 1 0-.67 2.596" fill="#EB3386"/><path d="M20.893 69.785L7.484 83.194a2.685 2.685 0 0 1-3.793 0 2.664 2.664 0 0 1-.785-1.895c0-.717.28-1.391.785-1.897l13.41-13.409a2.662 2.662 0 0 1 1.895-.786c.717 0 1.391.279 1.897.786.507.507.785 1.18.785 1.896a2.66 2.66 0 0 1-.785 1.896zm22.24-46.146c11.091 0 20.114 9.023 20.114 20.114 0 11.091-9.023 20.114-20.114 20.114-11.09 0-20.114-9.023-20.114-20.114 0-11.091 9.023-20.114 20.114-20.114zM22.79 71.681a5.327 5.327 0 0 0 1.571-3.792c0-.974-.259-1.909-.74-2.725l4.378-4.38a22.71 22.71 0 0 0 15.135 5.765c12.57 0 22.796-10.227 22.796-22.796 0-12.57-10.226-22.796-22.796-22.796-12.569 0-22.796 10.226-22.796 22.796a22.706 22.706 0 0 0 5.765 15.135l-4.38 4.379a5.33 5.33 0 0 0-2.725-.742c-1.433 0-2.78.558-3.792 1.572L1.795 77.506a5.325 5.325 0 0 0-1.57 3.793 5.33 5.33 0 0 0 1.57 3.792 5.344 5.344 0 0 0 3.793 1.568 5.345 5.345 0 0 0 3.792-1.568l13.41-13.41z" fill="#EB3386"/><mask id="b" fill="#fff"><use xlink:href="#a"/></mask><path d="M76.65 19.484l-.009-.057-.012-.073c-.004-.022-.01-.044-.015-.065l-.017-.062a.775.775 0 0 0-.02-.063.778.778 0 0 0-.024-.062l-.026-.056-.03-.062-.03-.054-.037-.059a1.121 1.121 0 0 0-.04-.055 1.663 1.663 0 0 0-.118-.14l-.009-.008L58.831 1.236a1.25 1.25 0 0 0-.136-.117l-.032-.025a1.204 1.204 0 0 0-.16-.098 1.38 1.38 0 0 0-.153-.068l-.032-.01a1.165 1.165 0 0 0-.173-.048h-.005a1.291 1.291 0 0 0-.167-.023c-.014 0-.03 0-.046-.002l-.045-.002h-44.25A4.028 4.028 0 0 0 9.61 4.866v57.66a1.342 1.342 0 1 0 2.682 0V4.865c0-.739.602-1.34 1.34-1.34h42.91v13.408a4.027 4.027 0 0 0 4.023 4.023h8.044a1.342 1.342 0 1 0 0-2.682h-8.044c-.74 0-1.34-.602-1.34-1.34V5.42l14.75 14.75v62.467c0 .741-.603 1.342-1.342 1.342H14.974a1.34 1.34 0 1 0 0 2.682h57.66a4.028 4.028 0 0 0 4.022-4.024v-63.02c0-.046-.003-.09-.007-.134" fill="#EB3386" mask="url(#b)"/><path d="M46.627 44.893c-.492.357-.7.898-.512 1.477l1.331 4.05-3.485-2.558a1.411 1.411 0 0 0-1.655-.012l-3.486 2.526 1.331-4.1c.188-.579-.02-1.025-.512-1.382l-3.486-2.34h4.31c.608 0 1.15-.589 1.338-1.167l1.332-4.195 1.331 4.244c.189.578.732 1.118 1.34 1.118h4.308l-3.486 2.34zm9.157-4.468c-.188-.579-.73-.87-1.338-.87h-7.62l-2.354-7.349c-.188-.578-.73-1.024-1.339-1.024-.608 0-1.15.472-1.339 1.05l-2.354 7.322h-7.618c-.608 0-1.151.292-1.34.871-.188.578.02 1.165.512 1.523l6.163 4.453-2.353 7.233a1.402 1.402 0 0 0 2.165 1.564l6.164-4.48 6.163 4.478a1.41 1.41 0 0 0 2.167-1.574l-2.355-7.247 6.165-4.427c.491-.358.7-.945.511-1.523z" fill="#EB3386" mask="url(#b)"/></g></svg>