<?xml version="1.0" encoding="UTF-8"?>
<svg width="77px" height="87px" viewBox="0 0 77 87" version="1.1" xmlns="http://www.w3.org/2000/svg" xmlns:xlink="http://www.w3.org/1999/xlink">
    <!-- Generator: Sketch 48.2 (47327) - http://www.bohemiancoding.com/sketch -->
    <title>Group 8</title>
    <desc>Created with Sketch.</desc>
    <defs>
        <polygon id="path-1" points="9.6104 0.8432 76.656 0.8432 76.656 86.6622 9.6104 86.6622"></polygon>
    </defs>
    <g id="Desktop-HD-Copy-13" stroke="none" stroke-width="1" fill="none" fill-rule="evenodd" transform="translate(-910.000000, -1572.000000)">
        <g id="Page-1" transform="translate(584.000000, 1571.000000)">
            <g id="Group-8" transform="translate(326.000000, 1.000000)">
                <path d="M46.8315,29.4696 C52.4585,30.9226 56.7165,35.5626 57.6785,41.2896 C57.7885,41.9456 58.3555,42.4086 58.9985,42.4086 C59.0725,42.4086 59.1475,42.4036 59.2225,42.3906 C59.9535,42.2676 60.4465,41.5756 60.3235,40.8456 C59.1855,34.0746 54.1535,28.5896 47.5005,26.8736 C46.7835,26.6886 46.0525,27.1186 45.8675,27.8366 C45.6835,28.5536 46.1145,29.2846 46.8315,29.4696" id="Fill-15" fill="#EB3386"></path>
                <path d="M20.8931,69.785 L7.4841,83.194 C6.4381,84.24 4.7371,84.24 3.6911,83.194 C3.1851,82.688 2.9061,82.014 2.9061,81.299 C2.9061,80.582 3.1851,79.908 3.6911,79.402 L17.1001,65.993 C17.6061,65.486 18.2801,65.207 18.9961,65.207 C19.7131,65.207 20.3871,65.486 20.8931,65.993 C21.4001,66.5 21.6781,67.173 21.6781,67.889 C21.6781,68.605 21.4001,69.279 20.8931,69.785 Z M43.1331,23.639 C54.2241,23.639 63.2471,32.662 63.2471,43.753 C63.2471,54.844 54.2241,63.867 43.1331,63.867 C32.0421,63.867 23.0191,54.844 23.0191,43.753 C23.0191,32.662 32.0421,23.639 43.1331,23.639 Z M22.7891,71.681 C23.8021,70.669 24.3601,69.321 24.3601,67.889 C24.3601,66.915 24.1011,65.98 23.6191,65.164 L27.9981,60.784 C32.0271,64.367 37.3301,66.549 43.1331,66.549 C55.7031,66.549 65.9291,56.322 65.9291,43.753 C65.9291,31.183 55.7031,20.957 43.1331,20.957 C30.5641,20.957 20.3371,31.183 20.3371,43.753 C20.3371,49.556 22.5181,54.858 26.1021,58.888 L21.7211,63.267 C20.9051,62.784 19.9711,62.525 18.9971,62.525 C17.5641,62.525 16.2171,63.083 15.2051,64.097 L1.7951,77.506 C0.7821,78.518 0.2241,79.865 0.2241,81.299 C0.2241,82.73 0.7821,84.078 1.7951,85.091 C2.8401,86.137 4.2141,86.659 5.5881,86.659 C6.9611,86.659 8.3341,86.137 9.3801,85.091 L22.7891,71.681 Z" id="Fill-17" fill="#EB3386"></path>
                <mask id="mask-2" fill="white">
                    <use xlink:href="#path-1"></use>
                </mask>
                <g id="Clip-20"></g>
                <path d="M76.6494,19.4842 C76.6474,19.4642 76.6434,19.4462 76.6414,19.4272 C76.6374,19.4032 76.6344,19.3792 76.6294,19.3542 C76.6254,19.3322 76.6194,19.3102 76.6144,19.2892 C76.6084,19.2672 76.6044,19.2482 76.5974,19.2272 C76.5914,19.2062 76.5844,19.1852 76.5764,19.1642 C76.5694,19.1432 76.5624,19.1232 76.5534,19.1022 C76.5454,19.0842 76.5364,19.0652 76.5274,19.0462 C76.5174,19.0252 76.5084,19.0052 76.4974,18.9842 C76.4874,18.9652 76.4764,18.9492 76.4664,18.9302 C76.4544,18.9112 76.4434,18.8902 76.4304,18.8712 C76.4174,18.8522 76.4034,18.8342 76.3894,18.8162 C76.3774,18.7992 76.3654,18.7832 76.3514,18.7662 C76.3264,18.7352 76.2994,18.7062 76.2714,18.6762 C76.2684,18.6732 76.2654,18.6712 76.2634,18.6682 L58.8314,1.2362 C58.8314,1.2362 58.8304,1.2352 58.8304,1.2352 C58.7884,1.1932 58.7434,1.1552 58.6954,1.1192 C58.6854,1.1112 58.6744,1.1032 58.6634,1.0942 C58.6154,1.0602 58.5664,1.0292 58.5134,1.0022 C58.5104,0.9992 58.5064,0.9972 58.5024,0.9962 C58.4534,0.9702 58.4024,0.9482 58.3504,0.9282 C58.3394,0.9242 58.3294,0.9212 58.3184,0.9172 C58.2614,0.8972 58.2044,0.8812 58.1454,0.8702 C58.1444,0.8692 58.1424,0.8692 58.1404,0.8692 C58.0864,0.8582 58.0304,0.8512 57.9734,0.8472 C57.9594,0.8462 57.9434,0.8462 57.9274,0.8452 C57.9134,0.8452 57.8984,0.8432 57.8824,0.8432 L13.6324,0.8432 C11.4154,0.8432 9.6104,2.6482 9.6104,4.8662 L9.6104,62.5252 C9.6104,63.2652 10.2104,63.8672 10.9514,63.8672 C11.6914,63.8672 12.2924,63.2652 12.2924,62.5252 L12.2924,4.8662 C12.2924,4.1272 12.8944,3.5252 13.6324,3.5252 L56.5424,3.5252 L56.5424,16.9342 C56.5424,19.1522 58.3464,20.9572 60.5654,20.9572 L68.6094,20.9572 C69.3504,20.9572 69.9514,20.3562 69.9514,19.6172 C69.9514,18.8762 69.3504,18.2752 68.6094,18.2752 L60.5654,18.2752 C59.8254,18.2752 59.2244,17.6732 59.2244,16.9342 L59.2244,5.4212 L73.9744,20.1712 L73.9744,82.6382 C73.9744,83.3792 73.3724,83.9802 72.6334,83.9802 L14.9744,83.9802 C14.2334,83.9802 13.6334,84.5802 13.6334,85.3212 C13.6334,86.0612 14.2334,86.6622 14.9744,86.6622 L72.6334,86.6622 C74.8514,86.6622 76.6564,84.8572 76.6564,82.6382 L76.6564,19.6172 C76.6564,19.5722 76.6534,19.5282 76.6494,19.4842" id="Fill-19" fill="#EB3386" mask="url(#mask-2)"></path>
                <path d="M46.6265,44.8934 C46.1345,45.2504 45.9275,45.7914 46.1155,46.3704 L47.4465,50.4194 L43.9605,47.8624 C43.4685,47.5044 42.7975,47.4934 42.3055,47.8504 L38.8195,50.3764 L40.1515,46.2764 C40.3385,45.6974 40.1315,45.2514 39.6395,44.8944 L36.1535,42.5544 L40.4625,42.5544 C41.0705,42.5544 41.6135,41.9654 41.8015,41.3874 L43.1335,37.1924 L44.4645,41.4364 C44.6525,42.0144 45.1955,42.5544 45.8035,42.5544 L50.1125,42.5544 L46.6265,44.8934 Z M55.7845,40.4254 C55.5965,39.8464 55.0535,39.5544 54.4455,39.5544 L46.8265,39.5544 L44.4725,32.2064 C44.2845,31.6284 43.7415,31.1824 43.1335,31.1824 C42.5255,31.1824 41.9825,31.6544 41.7945,32.2324 L39.4395,39.5544 L31.8215,39.5544 C31.2135,39.5544 30.6705,39.8464 30.4825,40.4254 C30.2945,41.0034 30.5015,41.5904 30.9935,41.9484 L37.1575,46.4014 L34.8035,53.6344 C34.6155,54.2124 34.8225,54.8444 35.3145,55.2024 C35.8065,55.5584 36.4775,55.5554 36.9695,55.1984 L43.1335,50.7184 L49.2965,55.1964 C49.7895,55.5534 50.4595,55.5524 50.9515,55.1954 C51.4435,54.8384 51.6515,54.2004 51.4635,53.6224 L49.1085,46.3754 L55.2725,41.9484 C55.7645,41.5904 55.9725,41.0034 55.7845,40.4254 Z" id="Fill-28" fill="#EB3386" mask="url(#mask-2)"></path>
            </g>
        </g>
    </g>
</svg>