<?xml version="1.0" encoding="UTF-8"?>
<svg width="73px" height="87px" viewBox="0 0 73 87" version="1.1" xmlns="http://www.w3.org/2000/svg" xmlns:xlink="http://www.w3.org/1999/xlink">
    <!-- Generator: Sketch 48.2 (47327) - http://www.bohemiancoding.com/sketch -->
    <title>Group 2</title>
    <desc>Created with Sketch.</desc>
    <defs>
        <polygon id="path-1" points="0.7671 0.338 42.7261 0.338 42.7261 43.7635 0.7671 43.7635"></polygon>
    </defs>
    <g id="Desktop-HD-Copy-13" stroke="none" stroke-width="1" fill="none" fill-rule="evenodd" transform="translate(-584.000000, -1572.000000)">
        <g id="Page-1" transform="translate(584.000000, 1571.000000)">
            <g id="Group-2">
                <path d="M3.0312,84.6619 C3.7882,66.2019 18.4552,51.4269 36.3752,51.4269 C54.2952,51.4269 68.9622,66.2019 69.7202,84.6619 L3.0312,84.6619 Z M36.3752,48.4269 C16.3092,48.4269 -0.0148,65.3699 0.0002,86.1899 C0.0002,87.0069 0.6832,87.6619 1.5002,87.6619 L71.2502,87.6619 C72.0672,87.6619 72.7492,87.0069 72.7502,86.1899 C72.7642,65.3689 56.4422,48.4269 36.3752,48.4269 Z" id="Fill-8" fill="#EB3386"></path>
                <g id="Group-12" transform="translate(14.000000, 0.662300)">
                    <mask id="mask-2" fill="white">
                        <use xlink:href="#path-1"></use>
                    </mask>
                    <g id="Clip-11"></g>
                    <path d="M21.7471,3.3375 C31.6611,3.3375 39.7261,11.7335 39.7261,22.0505 C39.7261,32.3685 31.6611,40.7635 21.7471,40.7635 C11.8321,40.7635 3.7671,32.3685 3.7671,22.0505 C3.7671,11.7335 11.8331,3.3375 21.7471,3.3375 M21.7471,43.7635 C33.3151,43.7635 42.7261,34.0245 42.7261,22.0505 C42.7261,10.0775 33.3161,0.3375 21.7471,0.3375 C10.1781,0.3375 0.7671,10.0785 0.7671,22.0505 C0.7671,34.0235 10.1781,43.7635 21.7471,43.7635" id="Fill-10" fill="#EB3386" mask="url(#mask-2)"></path>
                </g>
                <path d="M32.4648,58.5545 L38.9658,58.5545 L35.8458,61.6745 L32.4648,58.5545 Z M37.0298,64.8675 L43.7928,58.1055 C44.2588,57.6395 44.3978,57.0545 44.1458,56.4455 C43.8938,55.8355 43.2988,55.5545 42.6398,55.5545 L28.5298,55.5545 C27.8708,55.5545 27.2768,55.8355 27.0238,56.4455 C26.7718,57.0545 26.9108,57.6975 27.3778,58.1635 C27.3778,58.1635 34.4418,64.8735 34.4458,64.8775 C34.4168,64.9275 25.3688,84.9185 25.3688,84.9185 L28.0048,86.2145 L28.0048,86.2205 L35.4998,70.0115 L42.8208,86.2245 L45.8898,84.9105 C45.8898,84.9105 37.1538,64.9995 37.0298,64.8675 Z" id="Fill-13" fill="#EB3386"></path>
            </g>
        </g>
    </g>
</svg>