<?xml version="1.0" encoding="UTF-8"?>
<svg width="51px" height="61px" viewBox="0 0 51 61" version="1.1" xmlns="http://www.w3.org/2000/svg" xmlns:xlink="http://www.w3.org/1999/xlink">
    <!-- Generator: Sketch 48.2 (47327) - http://www.bohemiancoding.com/sketch -->
    <title>Page 1</title>
    <desc>Created with Sketch.</desc>
    <defs>
        <polygon id="path-1" points="0.000132438505 0.00715464436 50.798039 0.00715464436 50.798039 28.4106693 0.000132438505 28.4106693"></polygon>
        <polygon id="path-3" points="0.00855042438 0.224666874 28.2267561 0.224666874 28.2267561 29.089375 0.00855042438 29.089375"></polygon>
    </defs>
    <g id="Desktop-HD-Copy-12" stroke="none" stroke-width="1" fill="none" fill-rule="evenodd" transform="translate(-769.000000, -2911.000000)">
        <g id="Group-22-Copy" transform="translate(698.000000, 2911.000000)">
            <g id="Group-21">
                <g id="Group-8">
                    <g id="Group-19">
                        <g id="Group-24" transform="translate(12.000000, 0.000000)">
                            <g id="Page-1" transform="translate(59.000000, 0.000000)">
                                <g id="Group-3" transform="translate(0.000000, 32.589041)">
                                    <mask id="mask-2" fill="white">
                                        <use xlink:href="#path-1"></use>
                                    </mask>
                                    <g id="Clip-2"></g>
                                    <path d="M2.11655005,26.2388701 C2.64512895,12.8750653 12.8864326,2.17895391 25.3991592,2.17895391 C37.9118858,2.17895391 48.1531894,12.8750653 48.6824665,26.2388701 L2.11655005,26.2388701 Z M25.3991592,0.00715464436 C11.3879777,0.00715464436 -0.0103341715,12.2727529 0.000139650966,27.3450398 C0.000139650966,27.9364932 0.477047701,28.4106693 1.0475219,28.4106693 L49.7507964,28.4106693 C50.3212706,28.4106693 50.7974804,27.9364932 50.7981787,27.3450398 C50.8079543,12.272029 39.4110389,0.00715464436 25.3991592,0.00715464436 Z" id="Fill-1" fill="#1A0A2B" mask="url(#mask-2)"></path>
                                </g>
                                <g id="Group-6" transform="translate(10.863014, 0.000000)">
                                    <mask id="mask-4" fill="white">
                                        <use xlink:href="#path-3"></use>
                                    </mask>
                                    <g id="Clip-5"></g>
                                    <path d="M14.1179895,2.21841921 C20.7853384,2.21841921 26.2092004,7.79919754 26.2092004,14.6568548 C26.2092004,21.5151767 20.7853384,27.0952903 14.1179895,27.0952903 C7.44996813,27.0952903 2.02610606,21.5151767 2.02610606,14.6568548 C2.02610606,7.79919754 7.45064065,2.21841921 14.1179895,2.21841921 M14.1179895,29.089375 C21.897684,29.089375 28.2267561,22.6159114 28.2267561,14.6568548 C28.2267561,6.6984628 21.8983566,0.224334527 14.1179895,0.224334527 C6.33762246,0.224334527 0.00855042438,6.69912749 0.00855042438,14.6568548 C0.00855042438,22.6152467 6.33762246,29.089375 14.1179895,29.089375" id="Fill-4" fill="#1A0A2B" mask="url(#mask-4)"></path>
                                </g>
                                <path d="M23.584654,40.4817612 L28.3496345,40.4817612 L26.0627957,42.6069025 L23.584654,40.4817612 Z M26.9306217,44.7817666 L31.887638,40.1759316 C32.2291979,39.8585227 32.3310795,39.4600587 32.1463733,39.0452475 C31.9616671,38.6297551 31.5255552,38.4383562 31.0425338,38.4383562 L20.7004519,38.4383562 C20.2174305,38.4383562 19.7820515,38.6297551 19.5966124,39.0452475 C19.4119061,39.4600587 19.5137877,39.8980285 19.8560806,40.2154374 C19.8560806,40.2154374 25.0337182,44.7858534 25.0366501,44.7885779 C25.0153942,44.8226347 18.3835616,58.4392048 18.3835616,58.4392048 L20.3156473,59.3219558 L20.3156473,59.3260426 L25.8091911,48.2855251 L31.1751997,59.3287671 L33.4246575,58.4337557 C33.4246575,58.4337557 27.0215089,44.8716764 26.9306217,44.7817666 Z" id="Fill-7" fill="#1A0A2B"></path>
                            </g>
                        </g>
                    </g>
                </g>
            </g>
        </g>
    </g>
</svg>