<svg width="73" height="87" xmlns="http://www.w3.org/2000/svg" xmlns:xlink="http://www.w3.org/1999/xlink"><defs><path id="a" d="M.767.338h41.96v43.425H.766z"/></defs><g fill="none" fill-rule="evenodd"><path d="M3.031 83.662c.757-18.46 15.424-33.235 33.344-33.235S68.962 65.202 69.72 83.662H3.031zm33.344-36.235C16.31 47.427-.015 64.37 0 85.19c0 .817.683 1.472 1.5 1.472h69.75c.817 0 1.5-.655 1.5-1.472.014-20.821-16.308-37.763-36.375-37.763z" fill="#EB3386"/><g transform="translate(14 -.338)"><mask id="b" fill="#fff"><use xlink:href="#a"/></mask><path d="M21.747 3.337c9.914 0 17.98 8.396 17.98 18.713 0 10.318-8.066 18.713-17.98 18.713-9.915 0-17.98-8.395-17.98-18.712s8.066-18.713 17.98-18.713m0 40.425c11.568 0 20.98-9.738 20.98-21.712 0-11.973-9.41-21.713-20.98-21.713C10.178.337.767 10.077.767 22.05c0 11.973 9.411 21.713 20.98 21.713" fill="#EB3386" mask="url(#b)"/></g><path d="M32.465 57.554h6.5l-3.12 3.12-3.38-3.12zm4.565 6.314l6.763-6.763c.466-.465.605-1.05.353-1.66-.252-.61-.847-.89-1.506-.89H28.53c-.66 0-1.253.28-1.506.89-.252.61-.113 1.252.354 1.718l7.068 6.715c-.03.05-9.077 20.04-9.077 20.04l2.636 1.296v.007L35.5 69.01l7.32 16.214 3.07-1.314s-8.736-19.912-8.86-20.043z" fill="#EB3386"/></g></svg>