<?xml version="1.0" encoding="UTF-8"?>
<svg width="73px" height="87px" viewBox="0 0 73 87" version="1.1" xmlns="http://www.w3.org/2000/svg" xmlns:xlink="http://www.w3.org/1999/xlink">
    <!-- Generator: Sketch 48.2 (47327) - http://www.bohemiancoding.com/sketch -->
    <title>Group 25</title>
    <desc>Created with Sketch.</desc>
    <defs>
        <polygon id="path-1" points="0.7671 0.338 42.7261 0.338 42.7261 43.7635 0.7671 43.7635"></polygon>
    </defs>
    <g id="Desktop-HD-Copy-12" stroke="none" stroke-width="1" fill="none" fill-rule="evenodd" transform="translate(-1273.000000, -2958.000000)">
        <g id="Group-22-Copy-2" transform="translate(1008.000000, 2957.000000)">
            <g id="Group-21">
                <g id="Group-8">
                    <g id="Group-19">
                        <g id="Group-24" transform="translate(12.000000, 0.000000)">
                            <g id="Group-15" transform="translate(37.000000, 0.000000)">
                                <g id="Page-1" transform="translate(216.000000, 0.000000)">
                                    <g id="Group-25">
                                        <path d="M3.0312,84.6619 C3.7882,66.2019 18.4552,51.4269 36.3752,51.4269 C54.2952,51.4269 68.9622,66.2019 69.7202,84.6619 L3.0312,84.6619 Z M36.3752,48.4269 C16.3092,48.4269 -0.0148,65.3699 0.0002,86.1899 C0.0002,87.0069 0.6832,87.6619 1.5002,87.6619 L71.2502,87.6619 C72.0672,87.6619 72.7492,87.0069 72.7502,86.1899 C72.7642,65.3689 56.4422,48.4269 36.3752,48.4269 Z" id="Fill-1" fill="#1A0A2B"></path>
                                        <g id="Group-5" transform="translate(14.000000, 0.662300)">
                                            <mask id="mask-2" fill="white">
                                                <use xlink:href="#path-1"></use>
                                            </mask>
                                            <g id="Clip-4"></g>
                                            <path d="M21.7471,3.3375 C31.6611,3.3375 39.7261,11.7335 39.7261,22.0505 C39.7261,32.3685 31.6611,40.7635 21.7471,40.7635 C11.8321,40.7635 3.7671,32.3685 3.7671,22.0505 C3.7671,11.7335 11.8331,3.3375 21.7471,3.3375 M21.7471,43.7635 C33.3151,43.7635 42.7261,34.0245 42.7261,22.0505 C42.7261,10.0775 33.3161,0.3375 21.7471,0.3375 C10.1781,0.3375 0.7671,10.0785 0.7671,22.0505 C0.7671,34.0235 10.1781,43.7635 21.7471,43.7635" id="Fill-3" fill="#1A0A2B" mask="url(#mask-2)"></path>
                                        </g>
                                        <path d="M40.2441,69.9783 C39.6991,70.3743 39.4701,70.8893 39.6781,71.5303 L41.1521,75.9733 L37.2911,73.1203 C36.7461,72.7243 36.0031,72.7013 35.4581,73.0963 L31.5981,75.8893 L33.0721,71.3443 C33.2801,70.7053 33.0511,70.3763 32.5061,69.9813 L28.6441,67.5543 L33.4171,67.5543 C34.0911,67.5543 34.6921,66.7353 34.9001,66.0953 L36.3751,61.3653 L37.8491,66.1903 C38.0571,66.8313 38.6591,67.5543 39.3321,67.5543 L44.1051,67.5543 L40.2441,69.9783 Z M50.3861,65.1903 C50.1781,64.5503 49.5771,64.5543 48.9031,64.5543 L40.4651,64.5543 L37.8581,56.0883 C37.6491,55.4483 37.0481,54.7903 36.3751,54.7903 C35.7021,54.7903 35.1001,55.5583 34.8921,56.1993 L32.2851,64.5543 L23.8471,64.5543 C23.1731,64.5543 22.5721,64.5503 22.3641,65.1903 C22.1561,65.8313 22.3851,66.3173 22.9301,66.7133 L29.7571,71.5633 L27.1491,79.5333 C26.9411,80.1733 27.1711,80.8523 27.7161,81.2493 C28.2601,81.6443 29.0031,81.6303 29.5481,81.2343 L36.3751,76.2673 L43.2021,81.2243 C43.7461,81.6203 44.4901,81.6183 45.0341,81.2223 C45.5791,80.8273 45.8081,80.1193 45.6001,79.4783 L42.9931,71.4533 L49.8201,66.7133 C50.3651,66.3173 50.5941,65.8313 50.3861,65.1903 Z" id="Fill-6" fill="#1A0A2B"></path>
                                    </g>
                                </g>
                            </g>
                        </g>
                    </g>
                </g>
            </g>
        </g>
    </g>
</svg>