<?xml version="1.0" encoding="UTF-8"?>
<svg width="74px" height="87px" viewBox="0 0 74 87" version="1.1" xmlns="http://www.w3.org/2000/svg" xmlns:xlink="http://www.w3.org/1999/xlink">
    <!-- Generator: Sketch 48.2 (47327) - http://www.bohemiancoding.com/sketch -->
    <title>Group 6</title>
    <desc>Created with Sketch.</desc>
    <defs>
        <polygon id="path-1" points="15.5737 0.0003 57.5327 0.0003 57.5327 43.4258 15.5737 43.4258"></polygon>
    </defs>
    <g id="Desktop-HD-Copy-13" stroke="none" stroke-width="1" fill="none" fill-rule="evenodd" transform="translate(-748.000000, -1572.000000)">
        <g id="Page-1" transform="translate(584.000000, 1571.000000)">
            <g id="Group-6" transform="translate(164.000000, 1.000000)">
                <g id="Group-4">
                    <path d="M3.8379,83.6619 C4.5949,65.2019 19.2619,50.4269 37.1819,50.4269 C55.1019,50.4269 69.7689,65.2019 70.5269,83.6619 L3.8379,83.6619 Z M37.1819,47.4269 C17.1159,47.4269 0.7919,64.3699 0.8069,85.1899 C0.8069,86.0069 1.4899,86.6619 2.3069,86.6619 L72.0569,86.6619 C72.8739,86.6619 73.5559,86.0069 73.5569,85.1899 C73.5709,64.3689 57.2489,47.4269 37.1819,47.4269 Z" id="Fill-1" fill="#EB3386"></path>
                    <mask id="mask-2" fill="white">
                        <use xlink:href="#path-1"></use>
                    </mask>
                    <g id="Clip-4"></g>
                    <path d="M36.5537,2.9998 C46.4677,2.9998 54.5327,11.3958 54.5327,21.7128 C54.5327,32.0308 46.4677,40.4258 36.5537,40.4258 C26.6387,40.4258 18.5737,32.0308 18.5737,21.7128 C18.5737,11.3958 26.6397,2.9998 36.5537,2.9998 M36.5537,43.4258 C48.1217,43.4258 57.5327,33.6868 57.5327,21.7128 C57.5327,9.7398 48.1227,-0.0002 36.5537,-0.0002 C24.9847,-0.0002 15.5737,9.7408 15.5737,21.7128 C15.5737,33.6858 24.9847,43.4258 36.5537,43.4258" id="Fill-3" fill="#EB3386" mask="url(#mask-2)"></path>
                </g>
                <path d="M41.0508,68.9783 C40.5058,69.3743 40.2768,69.8893 40.4848,70.5303 L41.9588,74.9733 L38.0978,72.1203 C37.5528,71.7243 36.8098,71.7013 36.2648,72.0963 L32.4048,74.8893 L33.8788,70.3443 C34.0868,69.7053 33.8578,69.3763 33.3128,68.9813 L29.4508,66.5543 L34.2238,66.5543 C34.8978,66.5543 35.4988,65.7353 35.7068,65.0953 L37.1818,60.3653 L38.6558,65.1903 C38.8638,65.8313 39.4658,66.5543 40.1388,66.5543 L44.9118,66.5543 L41.0508,68.9783 Z M51.1928,64.1903 C50.9848,63.5503 50.3838,63.5543 49.7098,63.5543 L41.2718,63.5543 L38.6648,55.0883 C38.4558,54.4483 37.8548,53.7903 37.1818,53.7903 C36.5088,53.7903 35.9068,54.5583 35.6988,55.1993 L33.0918,63.5543 L24.6538,63.5543 C23.9798,63.5543 23.3788,63.5503 23.1708,64.1903 C22.9628,64.8313 23.1918,65.3173 23.7368,65.7133 L30.5638,70.5633 L27.9558,78.5333 C27.7478,79.1733 27.9778,79.8523 28.5228,80.2493 C29.0668,80.6443 29.8098,80.6303 30.3548,80.2343 L37.1818,75.2673 L44.0088,80.2243 C44.5528,80.6203 45.2968,80.6183 45.8408,80.2223 C46.3858,79.8273 46.6148,79.1193 46.4068,78.4783 L43.7998,70.4533 L50.6268,65.7133 C51.1718,65.3173 51.4008,64.8313 51.1928,64.1903 Z" id="Fill-6" fill="#EB3386"></path>
            </g>
        </g>
    </g>
</svg>