<svg width="96" height="96" xmlns="http://www.w3.org/2000/svg" xmlns:xlink="http://www.w3.org/1999/xlink"><defs><path d="M71.103 52.38a6.362 6.362 0 0 0 0-9L52.337 24.617a6.365 6.365 0 0 0-9.001 0L24.57 43.38a6.362 6.362 0 0 0 0 9l18.766 18.762a6.365 6.365 0 0 0 9 0M88.21 30.765c9.454 9.453 9.454 24.777 0 34.23l-23.254 23.25c-9.455 9.453-24.783 9.453-34.237 0L7.464 64.995c-9.454-9.453-9.454-24.777 0-34.23l23.254-23.25c9.454-9.453 24.782-9.453 34.237 0" id="a"/></defs><g fill="none" fill-rule="evenodd" opacity=".327"><path d="M71.103 52.675L52.337 71.437a6.365 6.365 0 0 1-9.002 0L24.57 52.675a6.362 6.362 0 0 1 0-9l18.765-18.762a6.364 6.364 0 0 1 9.002 0l18.766 18.762a6.362 6.362 0 0 1 0 9M88.21 31.06L64.954 7.81c-9.454-9.453-24.782-9.453-34.236 0L7.464 31.06c-9.454 9.453-9.454 24.777 0 34.23l23.254 23.25c9.454 9.453 24.782 9.453 34.236 0L88.21 65.29c9.454-9.453 9.454-24.777 0-34.23" fill="#E5E5E5"/><g transform="translate(0 .295)"><mask id="b" fill="#fff"><use xlink:href="#a"/></mask><path d="M88.21 30.765L64.954 7.515c-9.455-9.453-24.783-9.453-34.236 0L7.464 30.764c-9.454 9.453-9.454 24.777 0 34.23l23.255 23.25c9.453 9.453 24.781 9.453 34.236 0l23.254-23.25c9.454-9.453 9.454-24.777 0-34.23" fill="#E5E5E5" mask="url(#b)"/></g></g></svg>