<svg width="120" height="175" xmlns="http://www.w3.org/2000/svg" xmlns:xlink="http://www.w3.org/1999/xlink"><defs><path id="a" d="M.047.302h174.288v174.255H.047z"/><path d="M162.125 116.902l-45.456 45.447c-16.28 16.277-42.676 16.277-58.957 0l-45.455-45.447c-16.28-16.277-16.28-42.669 0-58.946L57.712 12.51c16.281-16.278 42.677-16.278 58.957 0l45.456 45.446" id="c"/><path d="M57.713 12.51C65.853 4.37 76.523.3 87.191.3c10.67 0 21.338 4.07 29.478 12.208l45.455 45.447c8.14 8.14 12.211 18.806 12.211 29.473 0 10.667-4.07 21.334-12.21 29.473l-45.456 45.446c-16.28 16.278-42.676 16.278-58.956 0l-45.456-45.446C4.117 108.762.047 98.096.047 87.429c0-10.667 4.07-21.334 12.21-29.473" id="e"/></defs><g fill="none" fill-rule="evenodd" opacity=".327"><g transform="translate(.647)"><mask id="b" fill="#fff"><use xlink:href="#a"/></mask><path d="M162.125 116.902l-45.455 45.447c-16.28 16.277-42.677 16.277-58.957 0l-45.455-45.447c-16.28-16.277-16.28-42.668 0-58.946l45.455-45.447c16.28-16.276 42.676-16.276 58.957 0l45.455 45.447c16.28 16.278 16.28 42.669 0 58.946" fill="#E5E5E5" mask="url(#b)"/></g><g transform="translate(.647)"><mask id="d" fill="#fff"><use xlink:href="#c"/></mask><path d="M162.125 116.902l-45.455 45.447c-16.28 16.277-42.677 16.277-58.957 0l-45.455-45.447c-16.28-16.277-16.28-42.668 0-58.946l45.455-45.447c16.28-16.276 42.676-16.276 58.957 0l45.455 45.447c16.28 16.278 16.28 42.669 0 58.946" fill="#E5E5E5" mask="url(#d)"/></g><g transform="translate(.647)"><mask id="f" fill="#fff"><use xlink:href="#e"/></mask><path d="M162.125 116.902l-45.455 45.447c-16.28 16.277-42.677 16.277-58.957 0l-45.455-45.447c-16.28-16.277-16.28-42.668 0-58.946l45.455-45.447c16.28-16.276 42.676-16.276 58.957 0l45.455 45.447c16.28 16.278 16.28 42.669 0 58.946" fill="#E5E5E5" mask="url(#f)"/></g></g></svg>