<svg width="137" height="137" xmlns="http://www.w3.org/2000/svg" xmlns:xlink="http://www.w3.org/1999/xlink"><defs><path d="M101.668 74.432a9.102 9.102 0 0 0 0-12.875L74.821 34.714a9.109 9.109 0 0 0-12.878 0L35.095 61.557a9.104 9.104 0 0 0 0 12.875l26.848 26.843a9.109 9.109 0 0 0 12.878 0m51.32-57.766c13.525 13.523 13.525 35.448 0 48.97l-33.27 33.263c-13.525 13.523-35.453 13.523-48.979 0L10.623 92.48c-13.525-13.523-13.525-35.448 0-48.971l33.269-33.263c13.526-13.522 35.454-13.522 48.98 0" id="a"/></defs><g fill="none" fill-rule="evenodd" opacity=".327"><path d="M101.858 75.075l-26.847 26.842a9.108 9.108 0 0 1-12.878 0L35.286 75.075a9.104 9.104 0 0 1 0-12.876l26.847-26.843a9.11 9.11 0 0 1 12.878 0L101.858 62.2a9.102 9.102 0 0 1 0 12.876m24.473-30.924L93.061 10.89c-13.524-13.523-35.453-13.523-48.979 0L10.814 44.15c-13.526 13.524-13.526 35.449 0 48.971l33.268 33.264c13.526 13.522 35.455 13.522 48.98 0l33.27-33.264c13.525-13.522 13.525-35.447 0-48.97" fill="#E5E5E5"/><g transform="translate(.19 .643)"><mask id="b" fill="#fff"><use xlink:href="#a"/></mask><path d="M126.141 43.51l-33.27-33.264c-13.525-13.522-35.454-13.522-48.979 0L10.623 43.51c-13.525 13.523-13.525 35.448 0 48.97l33.27 33.264c13.524 13.522 35.453 13.522 48.978 0l33.27-33.263c13.525-13.523 13.525-35.448 0-48.97" fill="#E5E5E5" mask="url(#b)"/></g></g></svg>