<svg width="39" height="39" xmlns="http://www.w3.org/2000/svg"><g fill="none" fill-rule="evenodd"><circle fill="#FFF" cx="19.5" cy="19.5" r="19.5"/><circle fill="#160426" fill-rule="nonzero" cx="19.5" cy="19.5" r="3.5"/><path d="M23.874 9h-8.75A6.132 6.132 0 0 0 9 15.126v8.75A6.132 6.132 0 0 0 15.126 30h8.75A6.132 6.132 0 0 0 30 23.874v-8.75A6.132 6.132 0 0 0 23.874 9zM19.5 24.75a5.255 5.255 0 0 1-5.25-5.25 5.255 5.255 0 0 1 5.25-5.25 5.255 5.255 0 0 1 5.25 5.25 5.255 5.255 0 0 1-5.25 5.25zm6.125-10.5a.875.875 0 1 1 0-1.75.875.875 0 0 1 0 1.75z" fill="#160426" fill-rule="nonzero"/></g></svg>