<svg width="170" height="170" xmlns="http://www.w3.org/2000/svg"><g fill="#FFF"><path d="M66.1 116.746c-1.755-1.03-3.675-.999-5.363.13-1.92 1.224-1.788 3.19-1.689 5.124h8.906c.099-2.03.231-4.061-1.854-5.254zm19.13.069c-1.69-1.07-3.577-1.07-5.3-.098-2.086 1.167-1.987 3.209-1.888 5.283h8.943c.033-1.977.166-3.954-1.755-5.185z"/><path d="M85 0C38.064 0 0 38.056 0 85.016 0 131.944 38.064 170 85 170s85-38.056 85-84.984C170 38.056 131.936 0 85 0zm10.159 48.245c.16-1.542.868-2.892 1.736-4.146a23.97 23.97 0 0 1 5.369-5.593c.16-.128.643-.418.868-.514.385-.129.578-.064.578.546v.161c-.128 1.286-.321 2.54-.45 3.825-.321 3.407.45 6.557 1.961 9.578 1.93 3.858 3.762 7.779 5.562 11.7 1.318 2.829 2.507 5.657 3.215 8.71.418 1.704.225 3.28-.708 4.758-2.025 3.31-4.565 6.171-7.554 8.614-.258.225-.579.386-.868.546-.354.193-.579.065-.579-.546.129-.45.321-1.06.482-1.671.386-1.608.836-3.183 1.158-4.822.417-2.218-.13-4.307-1.061-6.3-1.48-3.214-2.99-6.396-4.501-9.61-1.672-3.568-3.408-7.104-4.533-10.864-.418-1.415-.836-2.86-.675-4.372zM72.88 44.453c.193-1.993 1.125-3.665 2.218-5.272a31.097 31.097 0 0 1 6.816-7.103c.193-.16.836-.547 1.093-.643.482-.16.74-.064.707.707 0 .032-.032.16-.032.193-.16 1.607-.418 3.246-.547 4.854-.418 4.307.58 8.292 2.508 12.181a522.006 522.006 0 0 1 7.073 14.85c1.671 3.568 3.182 7.2 4.082 11.057.515 2.154.29 4.146-.9 6.043a43.965 43.965 0 0 1-9.58 10.96c-.321.29-.707.482-1.125.707-.45.225-.74.065-.707-.707.16-.578.418-1.35.61-2.121.515-2.025 1.061-4.05 1.447-6.107.514-2.797-.193-5.464-1.35-7.971a1411.98 1411.98 0 0 0-5.723-12.182c-2.121-4.5-4.307-9-5.754-13.79-.514-1.896-1.029-3.728-.836-5.656zm-39.992 89.194c-2.219.418-4.372 0-6.398-.932-.74-.353-.996-.996-.707-1.64.29-.674.932-.931 1.768-.61 1.382.579 2.797.997 4.34.932 2.09-.128 3.311-1.478 3.054-3.407-.16-1.093-.836-1.768-1.8-2.218-1.19-.546-2.411-1.028-3.6-1.575a12.361 12.361 0 0 1-1.705-.9c-3.086-1.96-2.829-6.589.322-8.42 1.19-.708 2.507-.933 3.858-.965.643 0 3.054.418 4.179.868.932.289 1.286.996 1.029 1.735-.258.708-.997.9-1.93.547-1.446-.579-2.957-.9-4.532-.643-1.415.225-2.283 1.029-2.443 2.154-.193 1.317.418 2.378 1.768 2.989 1.382.61 2.829 1.125 4.179 1.768 1.543.707 2.7 1.832 3.15 3.567.74 3.054-1.285 6.107-4.532 6.75zm13.084-4.596c.129 1.286 1.029 2.153 2.315 2.153.675 0 1.35-.096 1.993-.096.675 0 1.125.321 1.254.996.096.611-.161 1.093-.708 1.35-2.829 1.318-6.494-.418-7.297-3.471a6.932 6.932 0 0 1-.193-1.64v-20.667c.032-.835.514-1.382 1.254-1.414.771-.032 1.35.514 1.35 1.414.032 1.832 0 3.665 0 5.529v1.06h3.793c.258 0 .515 0 .772.033a1.251 1.251 0 0 1 1.06 1.285c-.031.643-.514 1.125-1.22 1.157-.997.033-1.994 0-2.99.033h-1.35c-.033.257-.065.482-.065.707v10.864c0 .257 0 .482.032.707zm23.822-6.364c-.032 1.318-.707 1.993-2.025 1.993h-9.291v2.057c.064 3.278 2.121 5.078 5.368 4.564.9-.129 1.8-.482 2.7-.74.322-.096.612-.257.901-.32.643-.162 1.157.096 1.447.674.29.547.064 1.286-.547 1.575-2.797 1.318-5.658 1.864-8.616.643-2.282-.932-3.6-2.764-3.76-5.175-.162-2.7-.194-5.432 0-8.132.224-3.568 3.246-5.978 7.007-5.882 4.019.096 6.687 2.796 6.784 6.846.032.611.032 1.254.032 1.897zm4.18-45.546c-2.026 3.31-4.566 6.172-7.556 8.614-.257.225-.578.386-.868.547-.353.193-.578.064-.578-.547.128-.45.321-1.06.482-1.671.386-1.607.836-3.182 1.157-4.821.418-2.218-.128-4.307-1.06-6.3-1.48-3.214-2.99-6.397-4.501-9.61-1.672-3.569-3.408-7.104-4.533-10.865-.45-1.414-.836-2.893-.675-4.403.16-1.543.868-2.893 1.736-4.147a23.97 23.97 0 0 1 5.368-5.592 5.65 5.65 0 0 1 .868-.515c.386-.128.579-.064.579.547v.16c-.129 1.286-.322 2.54-.45 3.825-.322 3.407.45 6.557 1.96 9.579 1.93 3.857 3.762 7.778 5.563 11.7 1.318 2.828 2.507 5.657 3.214 8.71.386 1.736.193 3.279-.707 4.79zm15.173 45.578c-.032 1.318-.707 1.96-2.057 1.96h-9.163c0 1.126-.128 2.186.033 3.183.417 2.571 2.507 3.889 5.368 3.407.868-.161 1.736-.482 2.604-.74.322-.096.611-.257.9-.321.643-.129 1.19.096 1.447.707.257.61.129 1.222-.482 1.51-2.926 1.415-5.948 1.961-9.002.515-1.929-.9-3.182-2.54-3.343-4.628-.193-2.957-.29-5.947 0-8.904.321-3.503 3.311-5.625 7.04-5.528 3.633.096 6.27 2.475 6.59 5.978.097.997.097 1.929.065 2.86zm29.737 9.45c0 .996-.514 1.639-1.318 1.607-.771-.032-1.286-.643-1.286-1.672 0-3.664-.16-7.36.032-11.024.193-3.407-2.507-5.882-6.526-4.243-1.382.578-1.414.61-1.414 2.09v13.402c0 .707-.257 1.19-.933 1.415-.61.16-1.125-.097-1.382-.611-.16-.29-.16-.675-.16-.996v-12.343c0-2.186-.965-3.214-3.119-3.407-1.254-.129-3.472.225-4.79.771v15.107c-.032.932-.547 1.543-1.318 1.543-.772 0-1.286-.61-1.286-1.543v-15.428c0-.868.386-1.479 1.222-1.8 1.864-.707 3.793-1.093 5.818-1.093 1.704 0 3.215.514 4.469 1.671.868-.385 1.672-.867 2.54-1.157 2.186-.739 4.372-.803 6.397.515 1.961 1.285 3.054 3.117 3.054 5.496v11.7zm9.805-8.26v7.97c0 .258.033.515-.032.772-.096.643-.675 1.125-1.286 1.093-.643-.033-1.093-.386-1.253-1.029-.065-.257-.065-.514-.065-.771v-16.65c.065-.868.611-1.446 1.35-1.414.74.032 1.222.578 1.254 1.414.032.932 0 1.864 0 2.796.032 1.993.032 3.922.032 5.818zm-1.285-14.143c-.933 0-1.704-.772-1.704-1.736s.74-1.736 1.704-1.736 1.703.74 1.703 1.704c0 .996-.771 1.768-1.703 1.768zm11.284 18.546c0 .417.032.867.16 1.285a2.17 2.17 0 0 0 2.058 1.607c.707.033 1.382-.096 2.09-.096.707 0 1.221.418 1.285 1.029.097.707-.289 1.317-.996 1.414-.868.128-1.736.257-2.604.193-2.283-.161-4.019-1.768-4.469-4.018a8.447 8.447 0 0 1-.128-1.575V107.58c.096-.772.61-1.286 1.318-1.286.74 0 1.286.547 1.286 1.382.032 1.865 0 3.729 0 5.593v1.029h4.211c.643 0 1.157.225 1.382.867.29.836-.289 1.608-1.286 1.64-1.093.032-2.218 0-3.343 0h-.9c-.032.257-.064.45-.064.643v10.864z"/></g></svg>