<svg width="128" height="128" xmlns="http://www.w3.org/2000/svg"><g fill="none"><circle fill="#FFF" cx="64" cy="64" r="64"/><path d="M99.8 41.8c-2.6 1.2-5.5 2-8.4 2.3 3-1.8 5.4-4.7 6.5-8.1-2.8 1.7-6 2.9-9.3 3.6-2.7-2.9-6.5-4.6-10.7-4.6-8.1 0-14.7 6.6-14.7 14.7 0 1.2.1 2.3.4 3.4-12.2-.6-23.1-6.5-30.3-15.4-1.3 2.2-2 4.7-2 7.4 0 5.1 2.6 9.6 6.5 12.2-2.4-.1-4.7-.7-6.7-1.8v.2c0 7.1 5.1 13.1 11.8 14.4a16 16 0 0 1-3.9.5c-.9 0-1.9-.1-2.8-.3 1.9 5.8 7.3 10.1 13.7 10.2-5 3.9-11.4 6.3-18.3 6.3-1.2 0-2.4-.1-3.5-.2 6.5 4.2 14.2 6.6 22.5 6.6 27 0 41.8-22.4 41.8-41.8v-1.9c3-2.2 5.5-4.8 7.4-7.7z" fill="#1F0738"/></g></svg>