<?xml version="1.0" encoding="UTF-8"?>
<svg width="171px" height="71px" viewBox="0 0 171 71" version="1.1" xmlns="http://www.w3.org/2000/svg" xmlns:xlink="http://www.w3.org/1999/xlink">
    <!-- Generator: Sketch 48.2 (47327) - http://www.bohemiancoding.com/sketch -->
    <title>logo</title>
    <desc>Created with Sketch.</desc>
    <defs>
        <linearGradient x1="-25.498921%" y1="19.1241621%" x2="55.2196455%" y2="70.5929343%" id="linearGradient-1">
            <stop stop-color="#FCF070" offset="0%"></stop>
            <stop stop-color="#FBE671" offset="7.96742%"></stop>
            <stop stop-color="#F9CB74" offset="21.56%"></stop>
            <stop stop-color="#F69F79" offset="39.12%"></stop>
            <stop stop-color="#F16280" offset="59.74%"></stop>
            <stop stop-color="#ED3285" offset="74.73%"></stop>
            <stop stop-color="#B9266D" offset="85.36%"></stop>
            <stop stop-color="#9C1F60" offset="90.86%"></stop>
        </linearGradient>
        <linearGradient x1="50.0164574%" y1="0.0243205448%" x2="50.0164574%" y2="100.040111%" id="linearGradient-2">
            <stop stop-color="#662F8F" offset="0%"></stop>
            <stop stop-color="#68328F" offset="20.39%"></stop>
            <stop stop-color="#703B8D" offset="35.15%"></stop>
            <stop stop-color="#7C4B8A" offset="48.13%"></stop>
            <stop stop-color="#8D6187" offset="60.1%"></stop>
            <stop stop-color="#A47E82" offset="71.38%"></stop>
            <stop stop-color="#BFA27D" offset="82.12%"></stop>
            <stop stop-color="#DFCB76" offset="92.26%"></stop>
            <stop stop-color="#FCF070" offset="100%"></stop>
        </linearGradient>
    </defs>
    <g id="Desktop-HD" stroke="none" stroke-width="1" fill="none" fill-rule="evenodd" transform="translate(-635.000000, -28.000000)">
        <g id="logo" transform="translate(635.000000, 28.000000)" fill-rule="nonzero">
            <g id="Group" transform="translate(82.000000, 54.000000)" fill="#000000">
                <polygon id="Shape" points="1.84935065 0.5 0.154112554 0.5 0.154112554 0 4.12251082 0 4.12251082 0.5 2.42727273 0.5 2.42727273 4.67857143 1.84935065 4.67857143"></polygon>
                <path d="M11.0190476,0 L11.5584416,0 L13.8701299,4.71428571 L13.2536797,4.71428571 L12.6757576,3.46428571 L9.94025974,3.46428571 L9.36233766,4.71428571 L8.78441558,4.71428571 L11.0190476,0 Z M12.4445887,2.96428571 L11.2887446,0.571428571 L10.1329004,2.96428571 L12.4445887,2.96428571 Z" id="Shape"></path>
                <polygon id="Shape" points="19.4952381 0.0357142857 20.0731602 0.0357142857 20.0731602 4.21428571 22.9242424 4.21428571 22.9242424 4.71428571 19.5337662 4.71428571 19.5337662 0.0357142857"></polygon>
                <polygon id="Shape" points="28.5878788 0.0357142857 32.2095238 0.0357142857 32.2095238 0.5 29.1272727 0.5 29.1272727 2.10714286 31.8627706 2.10714286 31.8627706 2.57142857 29.1272727 2.57142857 29.1272727 4.21428571 32.2480519 4.21428571 32.2480519 4.67857143 28.5878788 4.67857143"></polygon>
                <polygon id="Shape" points="38.0272727 0.0357142857 38.5666667 0.0357142857 41.725974 3.78571429 41.725974 0.0357142857 42.265368 0.0357142857 42.265368 4.71428571 41.8030303 4.71428571 38.5666667 0.892857143 38.5666667 4.71428571 38.0272727 4.71428571"></polygon>
                <polygon id="Shape" points="49.7012987 0.5 48.0060606 0.5 48.0060606 0 51.9744589 0 51.9744589 0.5 50.2792208 0.5 50.2792208 4.67857143 49.7012987 4.67857143"></polygon>
                <polygon id="Shape" points="64.4575758 0.0357142857 65.0354978 0.0357142857 65.0354978 2.10714286 67.9251082 2.10714286 67.9251082 0.0357142857 68.5030303 0.0357142857 68.5030303 4.71428571 67.9251082 4.71428571 67.9251082 2.60714286 65.0354978 2.60714286 65.0354978 4.71428571 64.4575758 4.71428571"></polygon>
                <path d="M74.4748918,2.75 L74.4748918,0.0357142857 L75.0528139,0.0357142857 L75.0528139,2.71428571 C75.0528139,3.71428571 75.6307359,4.28571429 76.5939394,4.28571429 C77.5186147,4.28571429 78.0965368,3.75 78.0965368,2.75 L78.0965368,0.0357142857 L78.6744589,0.0357142857 L78.6744589,2.71428571 C78.6744589,4.07142857 77.8268398,4.78571429 76.5554113,4.78571429 C75.3225108,4.75 74.4748918,4.03571429 74.4748918,2.75 Z" id="Shape"></path>
                <path d="M84.6463203,0.0357142857 L86.8038961,0.0357142857 C87.3818182,0.0357142857 87.8441558,0.178571429 88.1138528,0.464285714 C88.3064935,0.678571429 88.4220779,0.928571429 88.4220779,1.21428571 C88.4220779,1.82142857 88.0367965,2.14285714 87.612987,2.28571429 C88.1909091,2.46428571 88.6917749,2.78571429 88.6917749,3.42857143 C88.6917749,4.21428571 87.9597403,4.71428571 86.8809524,4.71428571 L84.6463203,4.71428571 L84.6463203,0.0357142857 Z M86.6883117,2.10714286 C87.3818182,2.10714286 87.8441558,1.82142857 87.8441558,1.25 C87.8441558,0.785714286 87.4588745,0.5 86.7268398,0.5 L85.1857143,0.5 L85.1857143,2.10714286 L86.6883117,2.10714286 Z M86.9194805,4.21428571 C87.6900433,4.21428571 88.152381,3.89285714 88.152381,3.35714286 C88.152381,2.85714286 87.6900433,2.57142857 86.8038961,2.57142857 L85.2242424,2.57142857 L85.2242424,4.21428571 L86.9194805,4.21428571 Z" id="Shape"></path>
            </g>
            <g id="Group">
                <path d="M35.0491329,31.101087 L4.45375723,11.7304348 C3.64046243,11.2288043 2.51734104,11.1902174 1.66531792,11.6532609 C0.813294798,12.1163043 0.193641618,13.0038043 0.193641618,13.9684783 L0.193641618,64.826087 C0.193641618,66.2923913 1.04566474,67.488587 2.51734104,67.488587 C3.98901734,67.488587 4.84104046,66.2923913 4.84104046,64.826087 L4.84104046,18.7918478 L31.7572254,35.5771739 C32.9965318,36.348913 34.8554913,36.0016304 35.6300578,34.7668478 C36.4433526,33.5320652 36.2884393,31.911413 35.0491329,31.101087 Z" id="Shape" fill="url(#linearGradient-1)"></path>
                <path d="M65.3734104,0.578804348 C64.366474,0.154347826 63.2433526,0.385869565 62.5075145,1.1576087 L1.12312139,62.973913 C0.0774566474,64.0157609 0.116184971,66.2152174 1.39421965,67.2570652 C2.78843931,68.4532609 5.0734104,68.7233696 5.84797688,68.8777174 C7.20346821,69.186413 8.86878613,69.4951087 10.766474,69.7266304 C13.6323699,70.1125 17.1566474,70.3826087 21.0682081,70.5755435 C24.9797688,70.7684783 29.3560694,70.8842391 33.9647399,70.8842391 C42.4462428,70.8842391 50.1144509,70.4983696 55.7687861,69.8809783 C57.2017341,69.7266304 58.4797688,69.5336957 59.6416185,69.3407609 C60.4936416,69.186413 61.3069364,69.0320652 62.0040462,68.8777174 C62.5462428,68.7619565 63.049711,68.6076087 63.4757225,68.4918478 C63.8242775,68.376087 64.134104,68.2603261 64.4439306,68.1445652 C64.6763006,68.0288043 64.9086705,67.9130435 65.1410405,67.7972826 C65.3346821,67.6815217 65.6057803,67.5271739 65.7606936,67.3728261 C66.7676301,66.5625 66.9612717,65.3277174 66.9612717,64.8646739 L66.9612717,3.04836957 C67,1.96793478 66.3803468,1.00326087 65.3734104,0.578804348 Z M33.9260116,66.6782609 C18.783237,66.6782609 6.50635838,65.8679348 6.50635838,64.826087 C6.50635838,63.8228261 18.783237,62.973913 33.9260116,62.973913 C49.0687861,62.973913 61.3456647,63.7842391 61.3456647,64.826087 C61.3456647,65.8293478 49.0687861,66.6782609 33.9260116,66.6782609 Z M61.500578,60.6972826 C60.416185,60.388587 58.7508671,60.1570652 56.9693642,59.9255435 C54.1034682,59.5396739 50.6566474,59.2695652 46.7450867,59.0766304 C42.833526,58.8836957 38.4959538,58.7679348 33.8872832,58.7679348 C25.4057803,58.7679348 17.7375723,59.5782609 12.083237,60.1956522 L61.500578,9.4923913 L61.500578,60.6972826 Z" id="Shape" fill="url(#linearGradient-2)"></path>
            </g>
            <g id="Group" transform="translate(82.000000, 19.000000)" fill="#000000">
                <polygon id="Shape" points="0 26.7338028 0 0.266197183 3.07423581 0.266197183 13.8724891 16.4661972 24.7475983 0.266197183 27.7834061 0.266197183 27.7834061 26.7338028 24.4786026 26.7338028 24.4786026 6.08450704 13.8724891 21.7521127 3.26637555 6.08450704 3.26637555 26.771831 0 26.771831"></polygon>
                <path d="M47.0742358,0.266197183 C51.30131,0.266197183 54.6829694,1.48309859 57.2576419,3.95492958 C59.8323144,6.42676056 61.1388646,9.62112676 61.1388646,13.5760563 C61.1388646,17.5690141 59.8707424,20.7633803 57.3344978,23.1591549 C54.7982533,25.5549296 51.3781659,26.771831 47.0742358,26.771831 L35.6227074,26.771831 L35.6227074,0.266197183 L47.0742358,0.266197183 Z M47.0742358,3.3084507 L38.9275109,3.3084507 L38.9275109,23.6915493 L47.0742358,23.6915493 C50.3790393,23.6915493 52.9537118,22.7788732 54.8366812,20.9535211 C56.7196507,19.128169 57.6803493,16.656338 57.6803493,13.5380282 C57.6803493,10.4577465 56.7196507,7.98591549 54.7982533,6.12253521 C52.9152838,4.25915493 50.3021834,3.3084507 47.0742358,3.3084507 Z" id="Shape"></path>
                <polygon id="Shape" points="66.9799127 26.7338028 66.9799127 0.266197183 70.2847162 0.266197183 70.2847162 23.6915493 87.7694323 23.6915493 87.7694323 26.7338028 66.9799127 26.7338028"></polygon>
            </g>
        </g>
    </g>
</svg>