<svg width="43" height="43" xmlns="http://www.w3.org/2000/svg" xmlns:xlink="http://www.w3.org/1999/xlink"><defs><circle id="a" cx="21.5" cy="21.5" r="21.5"/></defs><g fill="none" fill-rule="evenodd"><mask id="b" fill="#fff"><use xlink:href="#a"/></mask><use fill="#7F92FA" xlink:href="#a"/><g fill="#1F0637" fill-rule="nonzero" mask="url(#b)"><path d="M20.944 4.107a3.99 3.99 0 0 0-.635.293c-.175.101-.402.236-.504.292l-.873.502c-.374.213-.754.433-.85.49-.091.05-.59.337-1.106.635-1.089.625-1.145.653-2.189 1.25-.43.248-.793.468-.805.49a.074.074 0 0 1-.068.045c-.04 0-.703.372-2.54 1.43-.419.242-.878.501-1.02.58a6.362 6.362 0 0 0-.42.248.627.627 0 0 1-.175.107c-.017 0-.29.152-.601.337-.318.186-.601.338-.63.338a.054.054 0 0 0-.056.056c0 .029-.029.057-.063.057s-.204.084-.38.191c-.18.101-.544.321-.816.479-.776.461-1.054.788-1.162 1.39-.028.152-.051 3.907-.045 8.355v8.078l.164.35c.159.343.465.67.816.86.896.502 1.35.766 1.361.8.011.023.04.045.062.045.029 0 .261.124.522.27.26.152.998.575 1.638.94.641.367 1.26.727 1.372.8.12.068.222.13.239.13.017 0 .997.568 1.167.675.046.034.125.073.17.096.046.022.426.236.845.478.414.242.766.44.777.44.011 0 .272.151.578.337.312.186.596.338.63.338.034 0 .062.023.062.05 0 .029.045.063.102.085.051.017.187.085.295.146.107.068.289.17.397.231.107.062.277.158.368.22.097.062.227.135.3.169.069.028.267.146.437.253.176.107.323.197.34.197.012 0 .238.124.494.276C20.882 38.949 20.99 39 21.522 39c.403 0 .732-.13 1.48-.569.244-.146.47-.264.5-.264a.05.05 0 0 0 .05-.05c0-.029.046-.063.102-.08.051-.022.21-.101.352-.185.142-.085.357-.209.482-.276.124-.074.697-.4 1.275-.732.579-.332 1.151-.664 1.276-.732.125-.073.76-.434 1.412-.81.652-.378 1.19-.682 1.202-.682.01 0 .158-.09.328-.197a3.59 3.59 0 0 1 .335-.197c.017 0 .198-.101.402-.225.204-.124.392-.225.414-.225.017 0 .08-.034.125-.08.051-.039.232-.151.402-.241l.601-.338c.153-.096.397-.23.539-.31.136-.079.482-.276.76-.439.283-.163.595-.343.697-.4.198-.118.624-.354 1.48-.844.289-.169.629-.4.748-.524.21-.202.425-.59.482-.85.051-.23.028-16.444-.023-16.607-.124-.411-.64-1.042-.844-1.042-.04 0-.074-.028-.074-.056 0-.034-.023-.056-.057-.056-.028 0-.266-.124-.521-.276a25.959 25.959 0 0 0-.67-.383c-.107-.062-.425-.242-.702-.405-.278-.158-.528-.288-.55-.288-.029 0-.051-.028-.051-.056 0-.034-.023-.056-.051-.056-.034 0-.34-.163-.686-.366a73.914 73.914 0 0 0-.868-.501c-.13-.073-.555-.315-.947-.54-.924-.535-1.037-.597-1.286-.738-.12-.068-.516-.293-.88-.507-.362-.214-.685-.388-.72-.388-.033 0-.062-.028-.062-.056 0-.034-.022-.057-.056-.057-.029 0-.238-.112-.465-.248a274.998 274.998 0 0 0-3.986-2.28 7.707 7.707 0 0 0-.482-.275 2.381 2.381 0 0 1-.34-.209c-.108-.084-.425-.225-.68-.298a1.716 1.716 0 0 0-1.02.045zm1.032 1.312c.312.174.834.467 1.236.698.108.062 1.247.715 2.523 1.452 1.281.732 2.62 1.503 2.976 1.706.358.203.692.4.743.445.051.04.108.056.125.034.022-.017.04-.006.04.028 0 .04.028.067.056.067.034 0 .165.068.29.147.203.124.481.281.872.495.063.034.153.09.199.124.045.04.215.135.368.22.16.078.414.225.567.315.159.09.323.186.369.202a.61.61 0 0 1 .113.068c.029.034.21.135.567.327.108.056.21.118.227.135.017.017.221.135.453.264.233.13.545.31.686.394.148.085.477.27.737.423.267.146.51.32.55.382.063.096.074 1.655.068 8.147 0 7.009-.01 8.044-.085 8.157-.05.068-.283.242-.527.377a7.793 7.793 0 0 0-.504.315.318.318 0 0 1-.103.057c-.022 0-.249.124-.515.281-.267.158-.505.282-.528.282a.087.087 0 0 0-.073.05c-.006.029-.142.113-.3.197a8.214 8.214 0 0 0-.511.288 6.537 6.537 0 0 1-.34.197c-.153.078-.766.422-1.588.9-.708.411-.839.49-1.389.8-.266.152-.555.32-.652.377-.09.056-.294.169-.453.253-.153.09-.306.18-.34.203-.029.023-.17.107-.312.18-.142.079-.482.276-.766.44-.277.163-.612.348-.737.421-.124.068-.93.53-1.785 1.025-.856.49-1.65.946-1.758 1.002a1.036 1.036 0 0 0-.238.17c-.023.027-.045.038-.045.016 0-.023-.097.022-.21.101a1.66 1.66 0 0 1-.346.175c-.147.034-.578-.085-.578-.163 0-.023-.029-.045-.063-.045s-.22-.096-.413-.209c-.42-.259-.749-.445-.942-.54a1.12 1.12 0 0 1-.249-.163c-.057-.057-.125-.085-.147-.074-.023.017-.074-.01-.114-.056-.04-.045-.108-.084-.147-.084-.046 0-.08-.029-.08-.057 0-.033-.028-.056-.062-.056-.068 0-.822-.428-.97-.552-.056-.045-.101-.062-.101-.04 0 .023-.046.007-.097-.039a3.031 3.031 0 0 0-.368-.236c-.698-.383-.822-.45-.964-.546a.624.624 0 0 0-.182-.107c-.017 0-.26-.14-.55-.31-.283-.169-.527-.31-.538-.31-.011 0-.187-.1-.391-.224-.204-.124-.397-.226-.425-.226a.057.057 0 0 1-.057-.056c0-.034-.028-.056-.062-.056-.035 0-.273-.13-.54-.282-.266-.157-.504-.281-.532-.281a.057.057 0 0 1-.057-.057c0-.033-.022-.056-.056-.056-.029 0-.25-.112-.488-.253-.232-.14-.453-.254-.482-.254-.028 0-.05-.028-.05-.056 0-.034-.024-.056-.052-.056-.028 0-.726-.389-1.548-.861-.816-.473-1.814-1.042-2.205-1.267-.522-.293-.737-.45-.8-.569-.113-.242-.113-16.073.006-16.253.08-.118.533-.416.63-.416a.057.057 0 0 0 .056-.057c0-.033.029-.056.063-.056s.277-.13.55-.293c.481-.281.946-.551 1.4-.805.125-.073.788-.45 1.474-.844.686-.394 1.36-.783 1.502-.862.142-.078.443-.253.67-.388.232-.135.43-.242.453-.242.017 0 .074-.034.119-.079.05-.045.221-.146.374-.23a6.86 6.86 0 0 0 .454-.248c.096-.057.283-.164.425-.243.142-.078.572-.326.964-.551.39-.225.76-.44.822-.473.056-.034.141-.096.187-.135.04-.034.096-.068.124-.068.029 0 .239-.112.465-.242 1.072-.636 1.815-1.053 1.86-1.053a.057.057 0 0 0 .057-.056c0-.034.022-.056.05-.056.029 0 .34-.163.692-.366.357-.203.709-.366.788-.366.08 0 .29.084.465.186z"/><path d="M21.001 8.937a3.525 3.525 0 0 0-.482.248c-.125.073-.351.208-.51.298a85.66 85.66 0 0 0-.992.563c-1.684.974-2.79 1.605-2.812 1.605-.012 0-.13.067-.267.152-.13.084-.255.146-.277.14-.029-.005-.046.012-.046.04s-.045.062-.096.079a3.044 3.044 0 0 0-.369.191c-.147.085-.77.45-1.389.805-.618.355-1.173.676-1.236.715-.062.034-.204.113-.311.17-.482.258-1.344.776-1.469.883-.204.18-.397.512-.436.749-.051.298-.063 4.577-.012 4.577.023 0 .023.056 0 .124a1.24 1.24 0 0 0-.011.523.374.374 0 0 1 0 .113c-.028.14-.011.98.023 1.036.022.033.022.061-.006.061-.051 0-.045 1.813.006 1.943.017.045.011.084-.012.084-.022 0-.04.14-.04.31 0 .169.018.31.04.31.023 0 .023.056 0 .123-.04.119-.045.389-.011.524a.21.21 0 0 1 0 .084c-.034.085-.023.62.017.62.023 0 .023.045 0 .095-.057.119-.045.946.011 1.284.074.428.358.8.805 1.041.12.062.256.135.3.164.54.332 2.853 1.638 2.898 1.638.028 0 .051.017.051.04 0 .027.057.072.13.1.199.096.635.333.664.372.017.017.141.09.283.17.142.072.267.151.272.174.012.028.046.045.074.045.028 0 .425.214.879.478.459.265.844.479.861.479.017 0 .074.033.12.079.05.045.22.146.374.225.158.084.323.174.368.202.34.214.975.563 1.02.563.035 0 .057.023.057.057 0 .028.023.056.057.056.045 0 .743.383 1.02.563.63.4 1.157.433 1.758.101a28.48 28.48 0 0 0 1.077-.608c.046-.028.482-.276.964-.551.482-.276 1.281-.738 1.769-1.02.493-.28.918-.512.952-.512.029 0 .057-.017.057-.045 0-.022.12-.101.272-.18.148-.079.42-.23.607-.343.187-.113.453-.265.595-.344.142-.079.754-.428 1.36-.777.607-.354 1.157-.67 1.22-.703 1.44-.777 1.576-.957 1.587-2.112.006-.388-.006-.726-.023-.754a3.106 3.106 0 0 1-.011-.535c.017-.687.011-.698-.023-.833-.017-.068-.005-.135.023-.152.023-.017.028-.13.006-.248a1.034 1.034 0 0 1 0-.326c.022-.056.028-.13.011-.158-.051-.084-.051-.32 0-.349.028-.017.028-.056.006-.096-.057-.09-.057-.326-.006-.354.028-.017.028-.057.006-.096-.057-.09-.057-.326-.006-.355.028-.017.028-.056.006-.095-.017-.034-.034-.276-.023-.54.017-.688.011-.699-.023-.834-.017-.068-.005-.135.023-.152.023-.017.028-.13.006-.248a1.034 1.034 0 0 1 0-.326c.022-.057.028-.13.011-.158-.051-.084-.051-.32 0-.349.028-.017.028-.056.006-.096-.057-.09-.057-.326-.006-.354.028-.017.028-.057.006-.096-.057-.09-.057-.326-.006-.355.028-.017.028-.056.006-.095-.017-.034-.034-.276-.023-.54.017-.688.011-.699-.023-.834-.017-.068 0-.14.029-.158.034-.022.045-.056.034-.078-.034-.051-.04-.243-.034-.924.011-.748-.068-1.007-.414-1.35-.153-.153-.737-.547-.805-.547-.012 0-.55-.304-1.19-.676-.647-.371-1.197-.675-1.225-.675a.05.05 0 0 1-.051-.05c0-.029-.085-.08-.182-.125a.797.797 0 0 1-.215-.107.979.979 0 0 0-.17-.1 3.743 3.743 0 0 1-.312-.175c-.09-.057-.272-.158-.397-.231a261.946 261.946 0 0 1-2.07-1.182c-.045-.034-.186-.107-.311-.175a6.405 6.405 0 0 1-.454-.27 1.734 1.734 0 0 0-.255-.147.852.852 0 0 1-.17-.095c-.08-.045-.487-.287-.907-.524-.731-.416-.856-.49-1.344-.766-.396-.225-.884-.27-1.264-.118zm1.588 1.593c1.173.676 1.303.75 1.547.884.295.17.8.462.89.518.046.034 1.31.755 2.807 1.616l3.061 1.75c.187.108.408.232.493.277a.67.67 0 0 1 .193.14c.045.068.051 1.554.011 1.6-.017.01-.01.106.006.202.023.101.023.315.006.478-.017.17-.023.316-.006.327.011.017.017.214.011.434-.005.225-.005.45-.005.495v.41c0 .175-.006.344-.006.367a.287.287 0 0 0 .006.096c.005.028.005.23.005.45-.005.214-.005.433-.005.478v.411c0 .175-.006.344-.006.366a.287.287 0 0 0 .006.096c.005.028.005.23.005.45-.005.214-.005.434-.005.479v.41c0 .175-.006.344-.006.367a.287.287 0 0 0 .006.096c.005.028.005.23.005.45-.005.214-.005.433-.005.478v.411c0 .175-.006.344-.006.366a.287.287 0 0 0 .006.096c.005.028.005.158.005.282 0 .123-.005.495-.01.821 0 .327-.024.62-.04.648-.035.05-.896.585-.942.585-.011 0-.312.17-.663.372-1.332.771-1.599.923-1.644.923-.028 0-.051.023-.051.057 0 .028-.023.056-.051.056-.029 0-.612.32-1.293.715-.68.388-1.338.765-1.462.833-.125.073-1.02.586-1.996 1.143-.97.563-1.826 1.036-1.9 1.053-.096.022-.407-.124-1.252-.614a38.724 38.724 0 0 1-1.202-.71c-.045-.039-.085-.056-.085-.033 0 .017-.136-.05-.295-.158a17.449 17.449 0 0 0-.556-.326c-.141-.08-.737-.423-1.332-.76a340.03 340.03 0 0 0-2.721-1.565c-.125-.074-.697-.4-1.276-.732a61.051 61.051 0 0 0-1.202-.687.414.414 0 0 1-.198-.23c-.057-.232-.04-11.44.017-11.497.057-.05 2.483-1.464 3.084-1.79l1.247-.715 1.248-.715c.107-.062.618-.355 1.133-.653.516-.293 1.038-.591 1.163-.664.124-.068.646-.366 1.162-.665.516-.298.975-.54 1.02-.54.046 0 .533.259 1.078.568z"/><path d="M20.984 13.84a2.589 2.589 0 0 0-.323.175.978.978 0 0 1-.17.102c-.08.033-.182.09-.227.123a32.92 32.92 0 0 1-1.281.732c-.012 0-.13.068-.267.152-.13.08-.38.226-.55.316-.17.095-.323.185-.34.202a2.125 2.125 0 0 1-.283.17 24.27 24.27 0 0 0-.766.427c-2.131 1.239-2.03 1.16-2.154 1.526-.05.157-.068 1.03-.068 3.772 0 3.242.006 3.586.096 3.783.102.225.409.518.545.518.045 0 .08.017.08.04 0 .027.056.072.13.106.067.034.35.191.623.35.278.162.527.292.556.292.028 0 .05.022.05.056 0 .028.023.056.052.056.04 0 .731.383 1.026.563.346.22 2.852 1.633 2.891 1.633.023 0 .057.017.068.04.046.112.539.315.783.326.317.017.442-.045 1.774-.816.505-.293.97-.563 1.032-.597.232-.124 2.438-1.39 2.494-1.43.035-.023.17-.107.312-.18.981-.54 1.123-.648 1.282-.946.096-.186.107-.405.107-3.772.006-2.37-.011-3.642-.05-3.772-.069-.22-.375-.546-.63-.675a30.228 30.228 0 0 1-.975-.546c-.442-.26-.834-.468-.862-.468-.028 0-.062-.017-.074-.045-.017-.045-.924-.574-.98-.574-.023 0-.148-.079-.284-.169-.136-.096-.272-.169-.3-.169-.034 0-.068-.017-.08-.045-.005-.022-.107-.084-.215-.146-.318-.17-.663-.36-1.366-.766-.363-.208-.72-.4-.794-.428-.267-.09-.567-.062-.862.085zm2.721 2.095c1.146.659 2.177 1.25 2.29 1.312.114.067.358.202.54.31.186.106.413.23.504.28.096.052.227.13.3.175l.125.085v3.417c0 3.367 0 3.417-.113 3.451-.063.017-.114.056-.114.079 0 .022-.09.073-.198.118-.108.045-.198.096-.198.124 0 .023-.023.045-.051.045-.074 0-1.673.918-1.696.968-.011.028-.05.045-.085.045-.04 0-.226.102-.425.226-.193.123-.391.225-.436.225-.046 0-.085.022-.085.05 0 .029-.108.102-.239.17a9.11 9.11 0 0 0-.504.275c-.142.085-.612.355-1.038.597-.714.41-.793.439-.901.371a14.6 14.6 0 0 0-.833-.467.562.562 0 0 1-.17-.101 1.19 1.19 0 0 0-.182-.113 16.9 16.9 0 0 1-.618-.349c-.255-.146-.487-.264-.51-.264-.028 0-.051-.029-.051-.057 0-.033-.023-.056-.057-.056-.028 0-.238-.107-.465-.242a11.314 11.314 0 0 0-.499-.282 4.072 4.072 0 0 1-.453-.27c-.08-.05-.318-.186-.539-.304a6.544 6.544 0 0 1-.533-.315c-.073-.062-.153-.107-.181-.107-.023 0-.199-.09-.386-.203l-.345-.202V18.08l.583-.332c.318-.186 1.526-.878 2.676-1.537a231.819 231.819 0 0 0 2.353-1.357c.142-.084.3-.152.352-.14.05.01 1.031.562 2.182 1.221z"/></g><text font-family="OpenSans-Bold, Open Sans" font-size="25" font-weight="bold" fill="#FFF"><tspan x="14.365" y="31">4</tspan></text></g></svg>