<svg width="19" height="19" xmlns="http://www.w3.org/2000/svg"><g fill="#FFF"><path d="M9.086 1.456c-2.093 0-4.06.82-5.54 2.31a7.862 7.862 0 0 0-2.294 5.576 7.86 7.86 0 0 0 2.295 5.577 7.757 7.757 0 0 0 5.539 2.31c2.092 0 4.06-.82 5.54-2.31a7.862 7.862 0 0 0 2.294-5.577 7.862 7.862 0 0 0-2.295-5.576 7.756 7.756 0 0 0-5.54-2.31m0 17.034a8.978 8.978 0 0 1-3.536-.72 9.051 9.051 0 0 1-2.888-1.96A9.144 9.144 0 0 1 0 9.343a9.143 9.143 0 0 1 2.661-6.468A9.052 9.052 0 0 1 5.55.914 8.978 8.978 0 0 1 9.086.195c1.226 0 2.416.242 3.537.72a9.052 9.052 0 0 1 2.887 1.96 9.143 9.143 0 0 1 2.661 6.468 9.144 9.144 0 0 1-2.66 6.468 9.051 9.051 0 0 1-2.888 1.96 8.98 8.98 0 0 1-3.537.719"/><path d="M10.379 9.102a.632.632 0 0 1-.312-1.177l5.399-3.11a.624.624 0 0 1 .854.235.632.632 0 0 1-.232.86l-5.4 3.11a.621.621 0 0 1-.31.082"/><path d="M10.378 9.102h-.002a.628.628 0 0 1-.624-.632l.01-3.646c0-.348.28-.63.625-.63h.002a.628.628 0 0 1 .625.633l-.01 3.647a.628.628 0 0 1-.626.628"/><path d="M13.511 10.806a.619.619 0 0 1-.297-.076l-3.133-1.703a.632.632 0 0 1-.254-.854.624.624 0 0 1 .848-.255L13.81 9.62a.632.632 0 0 1-.298 1.185m-4.416 7.473a.628.628 0 0 1-.626-.629l-.02-6.976a.628.628 0 0 1 .624-.633h.002c.345 0 .625.281.626.628l.02 6.977a.628.628 0 0 1-.624.633h-.002z"/><path d="M5.944 13.133a.633.633 0 0 1-.315-1.175l3.132-1.833a.624.624 0 0 1 .856.229.633.633 0 0 1-.227.862l-3.132 1.832a.62.62 0 0 1-.314.085"/><path d="M12.093 13.239a.619.619 0 0 1-.336-.1l-3.018-1.937a.633.633 0 0 1-.19-.87.623.623 0 0 1 .864-.193l3.017 1.938a.633.633 0 0 1 .191.87.625.625 0 0 1-.528.292M8.367 8.785a.632.632 0 0 0-.232-.86l-5.751-3.3a.624.624 0 0 0-.854.234.633.633 0 0 0 .232.86l5.75 3.3a.621.621 0 0 0 .855-.234z"/><path d="M7.824 9.102h.001a.628.628 0 0 0 .625-.632l-.01-3.646a.628.628 0 0 0-.626-.63h-.002a.628.628 0 0 0-.624.633l.01 3.647c0 .347.28.628.626.628"/><path d="M4.69 10.806c.1 0 .203-.024.297-.076l3.134-1.703a.632.632 0 0 0 .253-.854.624.624 0 0 0-.848-.255L4.392 9.62a.632.632 0 0 0 .298 1.185"/></g></svg>