<svg width="144" height="124" xmlns="http://www.w3.org/2000/svg" xmlns:xlink="http://www.w3.org/1999/xlink"><defs><path id="a" d="M.125.157h110.237v103.78H.125z"/><radialGradient cx="80.04%" cy="33.871%" fx="80.04%" fy="33.871%" r="118.907%" gradientTransform="matrix(-.9348 .1185 -.10784 -.95988 1.585 .569)" id="b"><stop stop-color="#FF2AC7" offset="0%"/><stop stop-color="#0042CB" offset="100%"/></radialGradient><path id="d" d="M.125.157h110.237v103.686H.125z"/></defs><g fill="none" fill-rule="evenodd"><g transform="translate(0 20)"><mask id="c" fill="#fff"><use xlink:href="#a"/></mask><path d="M68.129.157h-25.77c-10.486 0-20.175 5.618-25.417 14.738L4.057 37.309a29.587 29.587 0 0 0 0 29.476L16.942 89.2c5.242 9.12 14.93 14.737 25.416 14.737h25.77c10.486 0 20.174-5.617 25.417-14.737l12.885-22.415a29.587 29.587 0 0 0 0-29.476L93.545 14.895C88.302 5.775 78.614.157 68.13.157" fill="url(#b)" mask="url(#c)"/></g><g opacity=".475" transform="translate(33)"><mask id="e" fill="#fff"><use xlink:href="#d"/></mask><path d="M68.129.157h-25.77C31.872.157 22.183 5.77 16.941 14.88L4.057 37.276a29.537 29.537 0 0 0 0 29.448L16.942 89.12c5.242 9.111 14.93 14.724 25.416 14.724h25.77c10.486 0 20.174-5.613 25.417-14.724l12.885-22.395a29.537 29.537 0 0 0 0-29.448L93.545 14.88C88.302 5.77 78.614.157 68.13.157" fill="#E5E5E5" mask="url(#e)"/></g></g></svg>