<svg width="113" height="57" xmlns="http://www.w3.org/2000/svg"><g fill="none"><path d="M36.5 23.5c-1.1 0-2.3.5-3 1.1l-.1.1-.1-.1-.2-.9H31v15.7h2.3v-5.8l.1-.1.1.1c.7.7 1.9 1.1 3 1.1 3 0 5.6-2.3 5.6-5.7 0-3.1-2.5-5.5-5.6-5.5zm-.1 9.2c-2 0-3.3-1.6-3.3-3.6s1.4-3.6 3.3-3.6c2.2 0 3.3 1.6 3.3 3.6s-1.1 3.6-3.3 3.6zM17.9 17.5v17.1h2.5V19.8h6.4v14.8h2.4V17.5zM91.2 29l5.1-5.2h-2.9l-4.3 4.3v-4.3h-2.4v10.8h2.4v-4.5l4.5 4.5h3zm-13 2.2v-7.4H76v10.8h2.6l4.3-7.4v7.4h2.2V23.8h-2.6zm-26.8-6.6h-.2c-.6-.6-1.7-1.1-3-1.1-3 0-5.6 2.3-5.6 5.7 0 3.4 2.5 5.7 5.6 5.7 1.1 0 2.3-.5 3-1.1l.1-.1.1.1.2.9h2.1V23.8h-2.1l-.2.8zm-3 8.1c-2.2 0-3.3-1.6-3.3-3.6s1.1-3.6 3.3-3.6c2 0 3.3 1.6 3.3 3.6s-1.4 3.6-3.3 3.6zm17.5-6.8h3.4v8.7h2.3v-8.7H75v-2.1h-9.1zm-.6-2.1h-3L58 28.1v-4.3h-2.4v10.8H58v-4.5l4.5 4.5h3l-5.4-5.5z" fill="#1B012E"/><path fill="#1EB573" d="M113 0H32.4l2.1 2.5h76v52h-32l2.1 2.5H113z"/><path fill="#F26722" d="M2.5 54.5v-52h32L32.4 0H0v57h80.6l-2.1-2.5z"/></g></svg>