<svg width="157" height="39" xmlns="http://www.w3.org/2000/svg"><g fill="none"><path d="M28.967 4.318L16.231 31.544h-4.245L25.808 1.771c1.283.588 2.27 1.47 3.16 2.547zM20.871.4c1.481 0 2.864.294 4.147.881l-14.02 30.263h-.493c-1.283 0-2.567-.293-3.653-.685L20.872.4zm16.685 12.536c.889.686 1.58 1.47 2.271 2.35l-7.503 16.258c-.296 0-.691.098-.987.098h-2.37l8.59-18.706zM34.792 30.86l6.22-13.32c.395 1.078.592 2.35.592 3.526 0 4.505-2.863 8.325-6.812 9.794zm-3.554-20.077l-9.675 20.762h-3.95L29.758 5.493c.888 1.567 1.48 3.33 1.48 5.289zM20.082.4L6.062 30.565C2.508 28.9.04 25.276.04 21.163c0-5.68 4.64-10.381 10.366-10.381 0-5.485 4.246-9.99 9.676-10.382zm15.895 11.557l-9.083 19.587H23.24l9.577-20.567c1.184.098 2.172.49 3.159.98z" fill="#0072FF"/><path d="M142.108 31.646l.099-14.103h3.653v1.176c1.086-.882 2.369-1.372 3.949-1.372 1.974 0 3.653.882 4.837 2.253.889 1.077 1.481 2.546 1.382 4.995v7.15h-3.751V24.3c0-1.371-.296-2.155-.79-2.644-.494-.49-1.283-.784-2.073-.784-1.58 0-2.863.98-3.456 1.763v9.206l-3.85-.196zM136.579 10.1c1.382 0 2.468 1.077 2.468 2.448 0 1.372-1.086 2.449-2.468 2.449s-2.468-1.077-2.468-2.449c.099-1.469 1.185-2.448 2.468-2.448zm1.876 21.546h-3.752l.1-14.103h3.75l-.098 14.103zm-14.414-14.494c4.245 0 7.404 3.33 7.404 7.345 0 4.113-3.258 7.345-7.503 7.345s-7.404-3.33-7.404-7.345c.098-4.113 3.258-7.345 7.503-7.345zm0 11.263c2.172 0 3.751-1.665 3.751-3.82s-1.48-3.918-3.652-3.918-3.752 1.763-3.752 3.82c0 2.155 1.48 3.82 3.653 3.918zm-9.182.195c-1.678 2.253-3.751 3.134-6.417 3.134-4.344 0-7.503-3.33-7.503-7.345 0-4.113 3.258-7.345 7.602-7.345 2.468 0 4.64 1.175 5.923 2.84l-2.665 2.35c-.79-.979-1.876-1.665-3.258-1.665-2.172 0-3.752 1.665-3.752 3.82 0 2.253 1.58 3.82 3.85 3.82a3.91 3.91 0 0 0 3.357-1.861l2.863 2.252zm-28.335 9.794l3.95-8.423-6.22-12.732H88.4l4.048 8.521 3.85-8.423h3.95l-9.774 21.057h-3.95zM75.566 23.615l7.7 7.836h-5.035l-5.923-6.17v6.072h-3.752l.099-20.665h3.751v11.067l4.838-4.505h5.331l-7.01 6.365zm-21.72 2.253c1.184 1.273 2.863 2.253 4.739 2.253 1.777 0 2.961-1.078 2.961-2.547 0-2.644-3.751-2.938-6.417-4.603-1.58-.98-2.863-2.35-2.863-4.603 0-3.624 3.357-5.68 6.713-5.68 2.074 0 3.95.49 5.825 1.958l-2.073 2.939c-.79-.784-2.172-1.372-3.455-1.372-1.481 0-3.16.588-3.16 2.155 0 3.33 9.28 2.35 9.28 9.206 0 3.624-3.257 6.072-6.91 6.072-2.765 0-5.233-1.175-7.306-3.036l2.666-2.742z" fill="#16022B"/></g></svg>