<svg width="97" height="72" xmlns="http://www.w3.org/2000/svg"><g fill="#EB3386" fill-rule="evenodd"><path d="M29.704 6.49c7.78 0 14.11 6.33 14.11 14.112s-6.33 14.112-14.11 14.112c-7.781 0-14.111-6.33-14.111-14.112 0-7.781 6.33-14.111 14.11-14.111m0 31.223c9.436 0 17.112-7.676 17.112-17.112 0-9.434-7.676-17.111-17.111-17.111S12.593 11.168 12.593 20.6c0 9.437 7.676 17.113 17.11 17.113"/><path d="M29.7 31.101a7.27 7.27 0 0 0 6.95-5.062 1.5 1.5 0 0 0-2.857-.915 4.279 4.279 0 0 1-4.091 2.978 4.274 4.274 0 0 1-4.09-2.979 1.499 1.499 0 1 0-2.857.914 7.262 7.262 0 0 0 6.946 5.064m27.636 27.014a29.654 29.654 0 0 0-7.842-10.701l.779-1.356a23.7 23.7 0 0 1 19.39-10.102c12.54 0 22.832 9.809 23.61 22.159H57.335zM3.702 68.235C4.485 54.3 16.067 43.2 30.192 43.2S55.9 54.3 56.678 68.235H3.703zm65.962-35.28a26.702 26.702 0 0 0-21.89 11.44 1.417 1.417 0 0 0-.072.113l-.594 1.04a29.347 29.347 0 0 0-16.917-5.35C13.907 40.199.66 53.449.66 69.735a1.5 1.5 0 0 0 1.5 1.5h56.06a1.5 1.5 0 0 0 1.5-1.5c0-2.998-.45-5.891-1.284-8.62H94.82a1.5 1.5 0 0 0 1.5-1.5c0-14.7-11.957-26.658-26.656-26.658zm-.438-29.947c6.898 0 12.512 5.612 12.512 12.511 0 6.9-5.613 12.51-12.512 12.51-6.898 0-12.51-5.61-12.51-12.51 0-6.899 5.612-12.51 12.51-12.51m0 28.02c8.554 0 15.512-6.958 15.512-15.51C84.738 6.966 77.78.01 69.226.01c-8.553 0-15.51 6.957-15.51 15.51 0 8.552 6.957 15.51 15.51 15.51"/><path d="M69.225 25.095a5.834 5.834 0 0 0 5.572-4.059 1.5 1.5 0 1 0-2.855-.92 2.846 2.846 0 0 1-2.718 1.98 2.843 2.843 0 0 1-2.716-1.979 1.498 1.498 0 1 0-2.855.917 5.832 5.832 0 0 0 5.572 4.061"/></g></svg>