<svg width="128" height="128" xmlns="http://www.w3.org/2000/svg"><g fill="none" fill-rule="evenodd"><path d="M64 128C28.654 128 0 99.346 0 64 0 28.654 28.654 0 64 0c35.346 0 64 28.654 64 64 0 35.346-28.654 64-64 64zM21 33h84v58H21V33z" fill="#FFF" fill-rule="nonzero"/><path d="M84.227 65.417c-1.447-1.856-3.63-3.131-6.55-3.824 3.719-1.882 5.352-5.076 4.904-9.582-.15-1.634-.605-3.05-1.367-4.25-.761-1.2-1.79-2.166-3.088-2.896a17.077 17.077 0 0 0-4.23-1.672c-1.52-.383-3.268-.662-5.239-.835V33h-5.763v9.098c-.998 0-2.52.025-4.566.074V33h-5.764v9.358c-.823.025-2.033.037-3.63.037L41 42.358v6.09h4.154c1.896 0 3.007.842 3.33 2.525v10.658c.25 0 .45.013.6.037h-.6v14.928c-.198 1.262-.922 1.894-2.17 1.894h-4.153L41 85.286h7.485c.474 0 1.16.006 2.058.017.898.013 1.571.019 2.02.019v9.469h5.765v-9.358c1.048.026 2.57.038 4.566.038v9.32h5.763v-9.47c2.047-.098 3.862-.283 5.445-.556 1.585-.273 3.1-.7 4.548-1.282 1.446-.581 2.656-1.306 3.63-2.172.973-.866 1.777-1.968 2.414-3.305.635-1.337 1.041-2.884 1.215-4.643.326-3.44-.236-6.089-1.683-7.946zM58.44 48.855a278.854 278.854 0 0 0 3.5-.056c.536-.012 1.26.019 2.171.093.91.075 1.678.174 2.301.297.624.124 1.31.328 2.059.613.749.284 1.347.631 1.796 1.04.45.408.83.928 1.141 1.56.312.63.468 1.355.468 2.172a5.13 5.13 0 0 1-.336 1.894 3.57 3.57 0 0 1-1.01 1.43c-.449.383-.911.718-1.386 1.002-.473.285-1.079.514-1.815.687-.735.174-1.378.31-1.926.409-.55.099-1.235.167-2.059.204-.823.037-1.447.062-1.871.074-.425.013-1.005.013-1.74 0-.737-.012-1.167-.018-1.292-.018v-11.4zm15.74 25.289a5.273 5.273 0 0 1-.917 1.486c-.375.42-.868.792-1.479 1.113a12.73 12.73 0 0 1-1.777.78 14.4 14.4 0 0 1-2.077.52 27.21 27.21 0 0 1-2.135.316c-.61.062-1.34.111-2.189.149-.848.036-1.51.055-1.983.055-.474 0-1.073-.007-1.797-.019s-1.185-.018-1.385-.018V65.974c.2 0 .792-.012 1.778-.037.986-.025 1.79-.037 2.414-.037.624 0 1.485.037 2.583.112 1.097.073 2.02.184 2.77.333a18.32 18.32 0 0 1 2.45.687c.886.31 1.604.687 2.153 1.133a5.582 5.582 0 0 1 1.384 1.708c.375.693.563 1.485.563 2.377 0 .694-.119 1.324-.356 1.894z" fill="#160427" fill-rule="nonzero"/><circle stroke="#160427" stroke-width="7" cx="64" cy="64" r="50"/></g></svg>