<svg width="40" height="40" xmlns="http://www.w3.org/2000/svg"><g fill="none" fill-rule="evenodd"><circle fill="#FFF" cx="20" cy="20" r="20"/><path d="M28.516 22.902c.83.801 1.705 1.555 2.448 2.437.329.392.64.796.878 1.251.337.647.032 1.358-.554 1.397l-3.642-.002c-.94.077-1.689-.297-2.319-.932-.504-.509-.971-1.05-1.456-1.575a3.437 3.437 0 0 0-.655-.577c-.498-.319-.93-.221-1.213.292-.29.522-.355 1.1-.384 1.681-.039.85-.298 1.072-1.16 1.111-1.84.086-3.588-.19-5.211-1.109-1.431-.81-2.54-1.954-3.507-3.249-1.88-2.521-3.32-5.292-4.615-8.14-.291-.642-.078-.986.637-.998a99.891 99.891 0 0 1 3.566-.002c.483.007.803.281.99.733.642 1.564 1.429 3.052 2.416 4.431.263.367.531.735.913.993.422.286.744.191.942-.274.126-.295.182-.613.21-.93.094-1.087.107-2.173-.058-3.257-.102-.677-.487-1.115-1.17-1.243-.347-.065-.295-.193-.127-.39.293-.339.568-.55 1.117-.55h4.116c.648.127.792.415.88 1.06l.004 4.524c-.007.25.126.991.581 1.157.364.117.604-.17.822-.4.986-1.034 1.689-2.257 2.317-3.524.28-.557.519-1.135.751-1.713.173-.43.443-.64.93-.63l3.962.003c.118 0 .237.001.35.02.668.113.85.397.645 1.042-.325 1.013-.957 1.856-1.575 2.703-.66.905-1.367 1.778-2.023 2.688-.601.831-.554 1.25.194 1.972z" fill="#1B062F" fill-rule="nonzero"/></g></svg>