<svg width="220" height="220" xmlns="http://www.w3.org/2000/svg"><g fill="#FFF" fill-rule="evenodd"><path d="M110 220C49.249 220 0 170.751 0 110S49.249 0 110 0s110 49.249 110 110-49.249 110-110 110zM95.89 60C72.2 60 53 76.206 53 96.19c0 11.524 6.42 21.744 16.377 28.36L63.722 136l15.405-6.68c3.302 1.186 6.734 2.163 10.4 2.62-.5-2.208-.786-4.474-.786-6.797 0-19.956 19.236-36.19 42.89-36.19 2.166 0 4.282.18 6.369.44C134.226 72.66 116.82 60 95.89 60zM168 124.889C168 108.935 151.88 96 132 96s-36 12.935-36 28.889c0 15.954 16.12 28.889 36 28.889 3.269 0 6.38-.462 9.396-1.12L160.8 161l-6.71-13.455c8.41-5.287 13.91-13.419 13.91-22.656z"/><path d="M81.593 87.143c-2.96 0-5.361-2.432-5.361-5.429 0-2.996 2.402-5.428 5.361-5.428 2.96 0 5.361 2.432 5.361 5.428 0 2.997-2.402 5.429-5.36 5.429zm28.593 0c-2.96 0-5.361-2.432-5.361-5.429 0-2.996 2.402-5.428 5.361-5.428 2.96 0 5.361 2.432 5.361 5.428 0 2.997-2.402 5.429-5.36 5.429zm11.014 35.94c-2.98 0-5.4-2.426-5.4-5.416s2.42-5.417 5.4-5.417c2.98 0 5.4 2.427 5.4 5.417 0 2.99-2.42 5.416-5.4 5.416zm21.6 0c-2.98 0-5.4-2.426-5.4-5.416s2.42-5.417 5.4-5.417c2.98 0 5.4 2.427 5.4 5.417 0 2.99-2.42 5.416-5.4 5.416z"/></g></svg>