<svg width="164" height="164" xmlns="http://www.w3.org/2000/svg"><path d="M82 0C36.776 0 0 36.776 0 82s36.776 82 82 82 82-36.776 82-82S127.224 0 82 0zm45 121.99c0 2.688-2.169 5.01-5.01 5.01H99.138V92.204h11.67l1.803-13.595H99.138v-8.615c0-3.972 1.04-6.538 6.66-6.538h7.18v-12.19c-1.283-.121-5.53-.519-10.54-.519-10.387 0-17.444 6.294-17.444 17.964v10.02h-11.67v13.595h11.67V127H42.01c-2.688 0-5.01-2.169-5.01-5.01V42.01c0-2.688 2.169-5.01 5.01-5.01h79.98c2.688 0 5.01 2.169 5.01 5.01v79.98z" fill="#FFF"/></svg>