<svg width="128" height="128" xmlns="http://www.w3.org/2000/svg"><g fill="none"><circle fill="#F0EAEA" cx="64" cy="64" r="64"/><g fill="#1F0738"><path d="M64 29.045c-19.791 0-35.84 16.045-35.84 35.84 0 15.835 10.27 29.27 24.51 34.009 1.79.33 2.45-.779 2.45-1.725 0-.855-.034-3.678-.05-6.673-9.97 2.168-12.075-4.228-12.075-4.228-1.63-4.143-3.98-5.245-3.98-5.245-3.251-2.224.246-2.178.246-2.178 3.598.253 5.494 3.695 5.494 3.695 3.196 5.478 8.385 3.894 10.43 2.978.322-2.317 1.25-3.898 2.275-4.793-7.96-.906-16.33-3.979-16.33-17.712 0-3.913 1.401-7.11 3.694-9.62-.372-.903-1.6-4.548.348-9.485 0 0 3.009-.963 9.857 3.674 2.86-.794 5.926-1.192 8.971-1.206 3.046.014 6.114.412 8.978 1.206 6.841-4.637 9.847-3.674 9.847-3.674 1.95 4.937.724 8.582.352 9.485 2.298 2.51 3.688 5.707 3.688 9.62 0 13.766-8.385 16.796-16.365 17.684 1.285 1.112 2.43 3.293 2.43 6.637 0 4.795-.04 8.654-.04 9.835 0 .954.645 2.071 2.462 1.72 14.232-4.744 24.489-18.174 24.489-34.004 0-19.795-16.047-35.84-35.841-35.84z"/><path d="M41.735 80.503c-.079.179-.359.231-.615.11-.26-.117-.406-.36-.321-.539.077-.183.357-.234.617-.111.26.117.409.361.32.54zm1.452 1.62c-.171.158-.505.084-.732-.166-.235-.25-.279-.584-.105-.746.176-.156.5-.083.735.167.234.253.28.584.101.745zm1.413 2.063c-.22.154-.58.01-.801-.309-.22-.318-.22-.701.005-.855.222-.152.576-.014.801.302.22.323.22.706-.005.862zm1.936 1.994c-.197.217-.615.159-.922-.137-.313-.288-.4-.7-.204-.916.2-.217.621-.155.929.139.311.288.406.7.197.914zm2.67 1.159c-.087.28-.49.407-.896.288-.405-.123-.67-.451-.588-.734.084-.284.489-.416.898-.289.405.123.67.449.586.735zm2.934.214c.01.296-.334.54-.76.547-.429.01-.776-.23-.78-.522 0-.298.336-.54.764-.548.426-.007.776.23.776.523zm2.73-.464c.05.288-.246.585-.669.663-.417.076-.802-.102-.854-.388-.052-.296.25-.592.664-.669.425-.072.804.1.858.394z"/></g></g></svg>