<svg width="161" height="161" xmlns="http://www.w3.org/2000/svg"><g fill="#F0EAEA"><path d="M80.499 0C35.995 0 0 35.996 0 80.5S35.995 161 80.499 161c44.503 0 80.499-35.996 80.499-80.5.327-44.504-35.996-80.5-80.5-80.5zm45.158 119.441c0 3.6-2.945 6.545-6.545 6.545h-76.9c-3.599 0-6.544-2.945-6.544-6.545V42.213c0-3.6 2.945-6.544 6.545-6.544h76.572c3.6 0 6.545 2.945 6.545 6.544l.327 77.228z"/><path d="M96.381 70c-7.159 0-10.413 3.938-12.04 6.89v-5.906H71C71.325 74.922 71 112 71 112h13.341V89.031c0-1.312 0-2.297.326-3.281.976-2.297 3.254-4.922 6.833-4.922 4.881 0 6.833 3.61 6.833 9.188V112H112V88.375C112 75.906 105.167 70 96.381 70zM56.5 51c-4.565 0-7.5 3.068-7.5 7.5 0 4.09 2.935 7.5 7.5 7.5 4.565 0 7.5-3.41 7.5-7.5 0-4.432-2.935-7.5-7.5-7.5zM49 70h14v41H49z"/></g></svg>