<svg width="231" height="231" xmlns="http://www.w3.org/2000/svg"><g fill="#FFF"><path d="M115.498 0C51.646 0 0 51.646 0 115.5S51.646 231 115.498 231c63.853 0 115.499-51.646 115.499-115.5C231.467 51.646 179.35 0 115.498 0zm64.792 171.372c0 5.165-4.225 9.39-9.39 9.39H60.566c-5.164 0-9.39-4.225-9.39-9.39V60.567c0-5.165 4.226-9.39 9.39-9.39h109.865c5.164 0 9.39 4.225 9.39 9.39l.47 110.805z"/><path d="M138.524 100c-10.302 0-14.984 5.625-17.326 9.844v-8.438H102c.468 5.625 0 58.594 0 58.594h19.198v-32.813c0-1.874 0-3.28.469-4.687 1.404-3.281 4.682-7.031 9.833-7.031 7.024 0 9.833 5.156 9.833 13.125V160H161v-33.75c0-17.813-9.833-26.25-22.476-26.25zM81 73c-6.696 0-11 4.295-11 10.5C70 89.227 74.304 94 81 94s11-4.773 11-10.5C92 77.295 87.696 73 81 73zm-10 28h20v59H71z"/></g></svg>