<svg width="131" height="131" xmlns="http://www.w3.org/2000/svg"><g fill="none" fill-rule="evenodd"><circle fill="#FFF" fill-rule="nonzero" cx="65.5" cy="65.5" r="65.5"/><g fill="#1F0738" fill-rule="nonzero"><path d="M96.926 37.33L85.238 96.254s-1.641 4.095-6.125 2.133L52.159 77.716l-9.801-4.733-16.491-5.566s-2.524-.907-2.769-2.87c-.245-1.96 2.867-3.015 2.867-3.015L91.56 35.785c-.024 0 5.366-2.379 5.366 1.545z"/><path d="M50.1 95.616s-.783-.073-1.764-3.188c-.98-3.114-5.954-19.445-5.954-19.445L82.004 47.8s2.279-1.398 2.205 0c0 0 .417.245-.808 1.398-1.226 1.152-31.12 28.027-31.12 28.027"/><path d="M62.524 85.636l-10.66 9.735s-.832.637-1.739.245l2.034-18.072"/></g><path stroke="#FFF" d="M42.389 72.931l42.01-26.314-31.448 30.348-2.07 18.739"/></g></svg>