<?xml version="1.0" encoding="UTF-8"?>
<svg width="231px" height="231px" viewBox="0 0 231 231" version="1.1" xmlns="http://www.w3.org/2000/svg" xmlns:xlink="http://www.w3.org/1999/xlink">
    <!-- Generator: Sketch 48.2 (47327) - http://www.bohemiancoding.com/sketch -->
    <title>linkedin_f</title>
    <desc>Created with Sketch.</desc>
    <defs></defs>
    <g id="Desktop-HD-Copy-13" stroke="none" stroke-width="1" fill="none" fill-rule="evenodd" transform="translate(-522.000000, -221.000000)">
        <g id="linkedin_f" transform="translate(522.000000, 221.000000)">
            <rect id="Rectangle-5" fill="#FFFFFF" x="35" y="50" width="174" height="131"></rect>
            <path d="M115.498426,0 C51.6456378,0 0,51.6463415 0,115.5 C0,179.353659 51.6456378,231 115.498426,231 C179.351215,231 230.996852,179.353659 230.996852,115.5 C231.466358,51.6463415 179.351215,0 115.498426,0 Z M180.290226,171.371951 C180.290226,176.536585 176.064674,180.762195 170.90011,180.762195 L60.5662479,180.762195 C55.4016841,180.762195 51.1761319,176.536585 51.1761319,171.371951 L51.1761319,60.5670732 C51.1761319,55.402439 55.4016841,51.1768293 60.5662479,51.1768293 L170.430604,51.1768293 C175.595168,51.1768293 179.82072,55.402439 179.82072,60.5670732 L180.290226,171.371951 Z" id="Shape" fill="#4D3C5F" fill-rule="nonzero"></path>
            <path d="M138.52381,100 C128.222222,100 123.539683,105.625 121.198413,109.84375 C121.198413,109.84375 121.198413,109.84375 121.198413,109.84375 L121.198413,101.40625 L102,101.40625 C102.468254,107.03125 102,160 102,160 L121.198413,160 L121.198413,127.1875 C121.198413,125.3125 121.198413,123.90625 121.666667,122.5 C123.071429,119.21875 126.349206,115.46875 131.5,115.46875 C138.52381,115.46875 141.333333,120.625 141.333333,128.59375 L141.333333,160 L161,160 L161,126.25 C161,108.4375 151.166667,100 138.52381,100 Z" id="Shape" fill="#4D3C5F" fill-rule="nonzero"></path>
            <path d="M81,73 C74.3043478,73 70,77.2954545 70,83.5 C70,89.2272727 74.3043478,94 81,94 C87.6956522,94 92,89.2272727 92,83.5 C92,77.2954545 87.6956522,73 81,73 Z" id="Shape" fill="#4D3C5F" fill-rule="nonzero"></path>
            <rect id="Rectangle-path" fill="#4D3C5F" fill-rule="nonzero" x="71" y="101" width="20" height="59"></rect>
        </g>
    </g>
</svg>