<?xml version="1.0" encoding="UTF-8"?>
<svg width="174px" height="194px" viewBox="0 0 174 194" version="1.1" xmlns="http://www.w3.org/2000/svg" xmlns:xlink="http://www.w3.org/1999/xlink">
    <!-- Generator: Sketch 48.2 (47327) - http://www.bohemiancoding.com/sketch -->
    <title>steemit_f</title>
    <desc>Created with Sketch.</desc>
    <defs></defs>
    <g id="Desktop-HD-Copy-13" stroke="none" stroke-width="1" fill="none" fill-rule="evenodd" transform="translate(-113.000000, -175.000000)">
        <g id="steemit_f" transform="translate(113.000000, 175.000000)">
            <polygon id="Path-2" fill="#FFFFFF" points="16.2231862 113.43385 22.8639763 133.332957 61.2467056 154.286073 142.595043 142.808297 151.45122 127.302383 142.595043 36.2389144 89.8266194 12.3188276 54.7222322 27.1196833"></polygon>
            <path d="M153.099718,187.746454 C151.345174,186.715083 149.425106,186.747314 147.73677,187.875376 C145.816702,189.100129 145.949121,191.06618 146.048435,193 C149.060955,193 151.974161,193 154.953577,193 C155.052891,190.969488 155.185309,188.938977 153.099718,187.746454 Z" id="Shape" fill="#1F0738" fill-rule="nonzero"></path>
            <path d="M172.229603,187.81469 C170.540437,186.74522 168.652546,186.74522 166.930259,187.717465 C164.843643,188.88416 164.943006,190.925876 165.042368,193 C168.05637,193 166.250457,193.919609 173.98501,193 C174.018131,191.023101 174.150615,189.046201 172.229603,187.81469 Z" id="Shape" fill="#1F0738" fill-rule="nonzero"></path>
            <path d="M85,0 C131.93646,0 170,38.0563434 170,85.0160711 C170,131.943657 131.93646,170 85,170 C38.0635401,170 0,131.943657 0,85.0160711 C0,38.0563434 38.0635401,0 85,0 Z M95.1588502,48.245415 C94.9981089,49.7560976 95.4160363,51.2024957 95.8339637,52.6167517 C96.9591528,56.377387 98.6951589,59.913027 100.366868,63.4808092 C101.877837,66.6950274 103.388805,69.8771034 104.867625,73.0913216 C105.799924,75.0841369 106.346445,77.1733787 105.928517,79.3911893 C105.607035,81.0304405 105.156959,82.6054074 104.77118,84.2125165 C104.610439,84.823218 104.417549,85.4339195 104.288956,85.88391 C104.288956,86.4946115 104.513994,86.6231802 104.867625,86.4303271 C105.156959,86.2696162 105.478442,86.1089053 105.735628,85.88391 C108.725416,83.4411042 111.265129,80.58045 113.290469,77.2698053 C114.222769,75.7912649 114.415658,74.216298 113.997731,72.5127623 C113.290469,69.4592551 112.100983,66.6307431 110.782905,63.802231 C108.982602,59.8808849 107.150151,55.9595387 105.221256,52.1024768 C103.710287,49.0811117 102.938729,45.9311779 103.260212,42.5241066 C103.388805,41.2384194 103.581694,39.9848743 103.710287,38.699187 C103.710287,38.6670448 103.710287,38.5706183 103.710287,38.5384761 C103.710287,37.9277746 103.517398,37.8634903 103.131619,37.992059 C102.906581,38.0884855 102.424357,38.3777652 102.263616,38.5063339 C100.173979,40.0813008 98.3736762,41.9455474 96.8948563,44.0990735 C96.0268533,45.3526186 95.3195915,46.7025903 95.1588502,48.245415 Z M72.8801059,44.4526375 C72.6872163,46.3811685 73.2015885,48.2132728 73.7159607,50.1096616 C75.1626324,54.8988467 77.3487141,59.3987521 79.4704992,63.8986576 C81.3993949,67.9485725 83.2961422,71.9984874 85.1928896,76.0805445 C86.3502269,78.5876347 87.0574887,81.2554358 86.5431165,84.0518056 C86.1573374,86.1089053 85.6108169,88.1338627 85.0964448,90.1588202 C84.9035552,90.9302326 84.6463691,91.7016449 84.4856278,92.2802042 C84.4534796,93.0516166 84.7428139,93.2123275 85.1928896,92.9873322 C85.6108169,92.7623369 85.9965961,92.5694838 86.3180787,92.2802042 C90.1115734,89.1624126 93.3263994,85.4982038 95.8982602,81.3197202 C97.0877458,79.4233314 97.3127837,77.4305162 96.7984115,75.27699 C95.8982602,71.4199282 94.387292,67.7878616 92.7155825,64.2200794 C90.433056,59.2380412 88.086233,54.2881452 85.6429652,49.3703914 C83.7140696,45.4811874 82.7174735,41.4955568 83.1354009,37.1885044 C83.2639939,35.5813953 83.52118,33.9421441 83.6819213,32.335035 C83.6819213,32.3028928 83.7140696,32.1743241 83.7140696,32.1421819 C83.7462179,31.3707695 83.4890318,31.274343 83.0068079,31.4350539 C82.7496218,31.5314804 82.1066566,31.9171866 81.913767,32.0778975 C79.2776097,34.0707128 76.9950832,36.4492343 75.0983359,39.1813197 C74.005295,40.7884288 73.0729955,42.4598223 72.8801059,44.4526375 Z M32.8876702,133.647192 C36.1346445,133.004349 38.1599849,129.950841 37.4205749,126.897334 C36.9704992,125.161656 35.8131619,124.03668 34.2700454,123.329552 C32.9198185,122.686708 31.4731467,122.172433 30.0907716,121.561732 C28.7405446,120.95103 28.1297277,119.890338 28.3226172,118.572509 C28.4833585,117.447533 29.3513616,116.643978 30.765885,116.418983 C32.3411498,116.161845 33.852118,116.483267 35.2987897,117.061826 C36.2310893,117.41539 36.9704992,117.222537 37.2276853,116.515409 C37.4848714,115.776139 37.1312405,115.069011 36.198941,114.779732 C35.0737519,114.329741 32.6626324,113.911893 32.0196672,113.911893 C30.6694402,113.944035 29.3513616,114.16903 28.1618759,114.876158 C25.0113464,116.708262 24.7541604,121.336737 27.8403933,123.29741 C28.3869138,123.650974 28.9655825,123.940253 29.5442511,124.197391 C30.7337368,124.743808 31.9553707,125.225941 33.1448563,125.772358 C34.1093041,126.222348 34.7844175,126.897334 34.9451589,127.990168 C35.2023449,129.918699 33.980711,131.268671 31.8910741,131.39724 C30.3479576,131.461524 28.9334342,131.043676 27.551059,130.465116 C26.7152042,130.143694 26.072239,130.400832 25.7829047,131.075818 C25.4935703,131.718661 25.7507564,132.361505 26.4901664,132.715069 C28.5155068,133.647192 30.6694402,134.065041 32.8876702,133.647192 Z M45.9720121,129.05086 C45.9398638,128.825865 45.9398638,128.60087 45.9398638,128.343732 C45.9398638,124.711666 45.9398638,121.111741 45.9398638,117.479675 C45.9398638,117.25468 45.9720121,117.029684 46.0041604,116.772547 C46.4863843,116.772547 46.9043116,116.772547 47.3543873,116.772547 C48.3509834,116.740405 49.3475794,116.772547 50.3441755,116.740405 C51.0514372,116.708262 51.5336611,116.22613 51.5658094,115.583286 C51.5979576,114.972585 51.147882,114.394025 50.5049168,114.297599 C50.2477307,114.265457 49.9905446,114.265457 49.7333585,114.265457 C48.5117247,114.265457 47.2900908,114.265457 45.9398638,114.265457 C45.9398638,113.847608 45.9398638,113.526186 45.9398638,113.204765 C45.9398638,111.340518 45.9720121,109.508414 45.9398638,107.676309 C45.9398638,106.776328 45.3611952,106.229911 44.5896369,106.262053 C43.8502269,106.294196 43.368003,106.840613 43.3358548,107.676309 C43.3358548,107.772736 43.3358548,107.83702 43.3358548,107.933447 C43.3358548,114.747589 43.3358548,121.52959 43.3358548,128.343732 C43.3358548,128.890149 43.4001513,129.468709 43.5287443,129.982984 C44.3324508,133.036491 47.9973525,134.772169 50.8263994,133.454339 C51.3729198,133.197202 51.6301059,132.715069 51.5336611,132.104368 C51.4050681,131.429382 50.9549924,131.10796 50.279879,131.10796 C49.6369138,131.10796 48.9618003,131.204386 48.2866868,131.204386 C47.0007564,131.204386 46.1006051,130.336548 45.9720121,129.05086 Z M69.7938729,122.686708 C69.7938729,122.043865 69.7938729,121.401021 69.7617247,120.79032 C69.6652799,116.740405 66.9969743,114.040461 62.9784418,113.944035 C59.2170953,113.847608 56.1951589,116.258272 55.970121,119.826054 C55.7772315,122.525997 55.8093797,125.258083 55.970121,127.958026 C56.1308623,130.36869 57.448941,132.200794 59.7314675,133.132917 C62.6891074,134.35432 65.5503026,133.807903 68.3472012,132.490074 C68.9580182,132.200794 69.183056,131.461524 68.8937216,130.915107 C68.6043873,130.336548 68.0900151,130.07941 67.4470499,130.240121 C67.1577156,130.304405 66.8683812,130.465116 66.5468986,130.561543 C65.6467474,130.81868 64.7465961,131.172244 63.8464448,131.300813 C60.5994705,131.815088 58.5419818,130.015126 58.4776853,126.736623 C58.4776853,126.09378 58.4776853,125.450936 58.4776853,124.679524 C58.8956127,124.679524 59.2170953,124.679524 59.5385779,124.679524 C62.27118,124.679524 65.0359304,124.679524 67.7685325,124.679524 C69.0866112,124.679524 69.7617247,124.004538 69.7938729,122.686708 Z M73.9731467,77.1412365 C74.873298,75.630554 75.0661876,74.0877292 74.6804085,72.3520514 C73.9731467,69.2985441 72.7836611,66.4700321 71.4655825,63.6415201 C69.6652799,59.7201739 67.832829,55.7988278 65.9039334,51.9417659 C64.3929652,48.9204008 63.621407,45.770467 63.9428896,42.3633957 C64.0714826,41.0777085 64.2643722,39.8241634 64.3929652,38.5384761 C64.3929652,38.5063339 64.3929652,38.4099074 64.3929652,38.3777652 C64.3929652,37.7670637 64.2000756,37.7027794 63.8142965,37.8313481 C63.5892587,37.9277746 63.1070348,38.2170543 62.9462935,38.345623 C60.8566566,39.9205899 59.056354,41.7848365 57.577534,43.9383626 C56.709531,45.1919077 56.0022693,46.5418794 55.841528,48.0847041 C55.6807867,49.5953867 56.0665658,51.073927 56.5166415,52.488183 C57.6418306,56.2488183 59.3778366,59.7844583 61.0495461,63.3522405 C62.5605144,66.5664587 64.0714826,69.7485347 65.5503026,72.9627529 C66.4826021,74.9555682 67.0291225,77.04481 66.6111952,79.2626205 C66.2897126,80.9018718 65.8396369,82.4768387 65.4538578,84.0839478 C65.2931165,84.6946493 65.1002269,85.3053507 64.9716339,85.7553413 C64.9716339,86.3660427 65.1966717,86.4946115 65.5503026,86.3017584 C65.8396369,86.1410475 66.1611195,85.9803365 66.4183056,85.7553413 C69.4080938,83.3125355 71.9478064,80.4518813 73.9731467,77.1412365 Z M89.1471256,122.71885 C89.1792738,121.786727 89.1792738,120.854604 89.082829,119.858196 C88.7613464,116.354698 86.1251891,113.976177 82.4924357,113.87975 C78.7632375,113.783324 75.7734493,115.904708 75.4519667,119.408206 C75.1626324,122.365286 75.2590772,125.354509 75.4519667,128.31159 C75.612708,130.400832 76.8664902,132.040083 78.7953858,132.940064 C81.8494705,134.386462 84.871407,133.840045 87.7968986,132.425789 C88.4077156,132.13651 88.5363086,131.525808 88.2791225,130.915107 C88.0219365,130.304405 87.475416,130.07941 86.8324508,130.207979 C86.5431165,130.272263 86.2537821,130.432974 85.9322995,130.529401 C85.0642965,130.786538 84.1962935,131.10796 83.3282905,131.268671 C80.4670953,131.750804 78.3774584,130.432974 77.959531,127.8616 C77.7987897,126.865192 77.9273828,125.8045 77.9273828,124.679524 C78.2167171,124.679524 78.5381997,124.679524 78.8596823,124.679524 C81.5922844,124.679524 84.3570348,124.679524 87.0896369,124.679524 C88.4398638,124.679524 89.1149773,124.03668 89.1471256,122.71885 Z M118.884266,132.168652 C118.884266,128.279448 118.884266,124.358102 118.884266,120.468898 C118.884266,118.090376 117.791225,116.258272 115.830182,114.972585 C113.804841,113.654755 111.618759,113.71904 109.432678,114.45831 C108.564675,114.747589 107.760968,115.229722 106.892965,115.615428 C105.639183,114.45831 104.128215,113.944035 102.424357,113.944035 C100.399017,113.944035 98.470121,114.329741 96.6055219,115.036869 C95.7696672,115.358291 95.383888,115.968992 95.383888,116.836831 C95.383888,121.97958 95.383888,127.122329 95.383888,132.265078 C95.383888,133.197202 95.8982602,133.807903 96.6698185,133.807903 C97.4413767,133.807903 97.9557489,133.197202 97.9878971,132.265078 C97.9878971,132.072225 97.9878971,131.84723 97.9878971,131.654377 C97.9878971,127.154472 97.9878971,122.622424 97.9878971,118.090376 C97.9878971,117.768954 97.9878971,117.447533 97.9878971,117.158253 C99.3059758,116.611836 101.524206,116.258272 102.777988,116.386841 C104.931921,116.579694 105.896369,117.608244 105.896369,119.793912 C105.896369,123.908111 105.896369,128.02231 105.896369,132.13651 C105.896369,132.457932 105.896369,132.843638 106.05711,133.132917 C106.314297,133.647192 106.828669,133.90433 107.439486,133.743619 C108.114599,133.518624 108.371785,133.036491 108.371785,132.329363 C108.371785,127.8616 108.371785,123.393836 108.371785,118.926073 C108.371785,117.447533 108.403933,117.41539 109.786309,116.836831 C113.804841,115.19758 116.505295,117.672528 116.312405,121.079599 C116.119516,124.743808 116.280257,128.440159 116.280257,132.104368 C116.280257,133.132917 116.794629,133.743619 117.566188,133.775761 C118.369894,133.807903 118.884266,133.16506 118.884266,132.168652 Z M128.689486,123.908111 C128.689486,122.011722 128.689486,120.083192 128.657337,118.090376 C128.657337,117.158253 128.689486,116.22613 128.657337,115.294006 C128.625189,114.45831 128.142965,113.911893 127.403555,113.87975 C126.664145,113.847608 126.117625,114.426168 126.053328,115.294006 C126.053328,115.422575 126.053328,115.519002 126.053328,115.64757 C126.053328,121.079599 126.053328,126.511628 126.053328,131.943657 C126.053328,132.200794 126.053328,132.457932 126.117625,132.715069 C126.278366,133.357913 126.728442,133.711477 127.371407,133.743619 C127.982224,133.775761 128.560893,133.293628 128.657337,132.650785 C128.721634,132.393647 128.689486,132.13651 128.689486,131.879372 C128.689486,129.211571 128.689486,126.575912 128.689486,123.908111 Z M127.403555,109.765551 C128.335855,109.765551 129.107413,108.994139 129.107413,107.997731 C129.107413,107.033466 128.368003,106.294196 127.403555,106.294196 C126.439107,106.294196 125.699697,107.065608 125.699697,108.029873 C125.699697,108.994139 126.471256,109.765551 127.403555,109.765551 Z M138.687595,128.31159 C138.687595,124.679524 138.687595,121.079599 138.687595,117.447533 C138.687595,117.25468 138.719743,117.061826 138.751891,116.804689 C139.073374,116.804689 139.362708,116.804689 139.652042,116.804689 C140.777231,116.804689 141.902421,116.836831 142.995461,116.804689 C143.992057,116.772547 144.570726,116.001134 144.281392,115.165438 C144.056354,114.522594 143.541982,114.297599 142.899017,114.297599 C141.516641,114.297599 140.166415,114.297599 138.687595,114.297599 C138.687595,113.911893 138.687595,113.590471 138.687595,113.269049 C138.687595,111.404802 138.719743,109.540556 138.687595,107.676309 C138.687595,106.840613 138.141074,106.294196 137.401664,106.294196 C136.694402,106.294196 136.18003,106.80847 136.083585,107.579883 C136.083585,107.772736 136.083585,107.997731 136.083585,108.190584 C136.083585,114.844016 136.083585,121.497448 136.083585,128.150879 C136.083585,128.697296 136.115734,129.211571 136.212179,129.725846 C136.662254,131.975799 138.39826,133.582908 140.680787,133.743619 C141.54879,133.807903 142.416793,133.679334 143.284796,133.550766 C143.992057,133.454339 144.377837,132.843638 144.281392,132.13651 C144.217095,131.525808 143.702723,131.10796 142.995461,131.10796 C142.2882,131.10796 141.613086,131.236529 140.905825,131.204386 C139.909228,131.172244 139.105522,130.529401 138.848336,129.597277 C138.719743,129.179429 138.687595,128.729438 138.687595,128.31159 Z" id="Shape" fill="#1F0738" fill-rule="nonzero"></path>
        </g>
    </g>
</svg>