<svg width="78" height="74" xmlns="http://www.w3.org/2000/svg"><g fill="#EB3386" fill-rule="evenodd"><path d="M74.565 70.943H3.116v-59.44h12.636v4.54a1.5 1.5 0 1 0 3 0v-4.54h38.464v4.54a1.5 1.5 0 1 0 3 0v-4.54h14.349v59.44zm1.5-62.44H60.216V1.658a1.5 1.5 0 1 0-3 0v6.845H18.752V1.658a1.5 1.5 0 1 0-3 0v6.845H1.616a1.5 1.5 0 0 0-1.5 1.5v62.44a1.5 1.5 0 0 0 1.5 1.5h74.449a1.5 1.5 0 0 0 1.5-1.5v-62.44a1.5 1.5 0 0 0-1.5-1.5z"/><path d="M59.738 51.393l-5.062-5.063a1.498 1.498 0 0 0-2.12 0 1.497 1.497 0 0 0 0 2.121l5.06 5.063-5.06 5.063a1.497 1.497 0 0 0 1.06 2.56 1.49 1.49 0 0 0 1.06-.439l5.063-5.063 5.06 5.063a1.499 1.499 0 0 0 2.122 0 1.5 1.5 0 0 0 0-2.12l-5.06-5.064 5.06-5.063a1.5 1.5 0 1 0-2.121-2.12l-5.062 5.062zM15.039 34.876h6.249v-6.247h-6.249v6.247zm7.749-9.248h-9.249a1.5 1.5 0 0 0-1.5 1.5v9.248a1.5 1.5 0 0 0 1.5 1.5h9.249a1.5 1.5 0 0 0 1.5-1.5v-9.248a1.5 1.5 0 0 0-1.5-1.5zm13.327 9.248h6.246v-6.247h-6.246v6.247zm7.746-9.248h-9.246a1.5 1.5 0 0 0-1.5 1.5v9.248a1.5 1.5 0 0 0 1.5 1.5h9.246a1.5 1.5 0 0 0 1.5-1.5v-9.248a1.5 1.5 0 0 0-1.5-1.5zM15.039 56.146h6.249v-6.247h-6.249v6.247zm7.749-9.247h-9.249a1.5 1.5 0 0 0-1.5 1.5v9.247a1.5 1.5 0 0 0 1.5 1.5h9.249a1.5 1.5 0 0 0 1.5-1.5v-9.247a1.5 1.5 0 0 0-1.5-1.5zm13.327 9.247h6.246v-6.247h-6.246v6.247zm7.746-9.247h-9.246a1.5 1.5 0 0 0-1.5 1.5v9.247a1.5 1.5 0 0 0 1.5 1.5h9.246a1.5 1.5 0 0 0 1.5-1.5v-9.247a1.5 1.5 0 0 0-1.5-1.5zm12.363-12.023h6.249v-6.247h-6.249v6.247zm-1.5-9.248a1.5 1.5 0 0 0-1.5 1.5v9.248a1.5 1.5 0 0 0 1.5 1.5h9.249c.827 0 1.5-.672 1.5-1.5v-9.248c0-.828-.673-1.5-1.5-1.5h-9.249z"/></g></svg>