<svg width="70" height="89" xmlns="http://www.w3.org/2000/svg"><g fill="none" fill-rule="evenodd"><path d="M66.038 51.978C60.447 72.344 38.407 83.31 34.6 85.066 30.83 83.307 9.11 72.39 3.48 52.048V16.674c11.34-1.254 20.695-4.015 31.162-12.839 10.565 8.87 20 11.577 31.5 12.807V50.94l-.105 1.038zm1.572-38.02a1.399 1.399 0 0 0-.325-.075c-11.696-1.17-21.087-3.759-31.748-13.04a1.435 1.435 0 0 0-2.022.14c-.03.034-.04.077-.064.113-10.575 9.137-19.922 11.706-31.543 12.867-.027.003-.052.012-.08.016a1.84 1.84 0 0 0-.132.026 1.768 1.768 0 0 0-.264.096c-.043.022-.086.044-.126.07a1.447 1.447 0 0 0-.681 1.135c-.002.028-.01.055-.01.084v36.851c0 .127.018.252.05.374C7.078 76.256 32.94 87.491 34.04 87.957a1.434 1.434 0 0 0 1.115.002c1.11-.467 27.272-11.7 33.682-35.344.02-.075.034-.15.042-.229l.125-1.227c.005-.048.008-.098.008-.145V15.39a1.43 1.43 0 0 0-1.401-1.43z" fill="#1F0738"/><path stroke="#1F0738" stroke-width="2.835" d="M19.353 29.106h18.81l6.696 8.122v26.788H19.353z"/><path stroke="#1F0738" stroke-width="2.835" d="M44.859 57.747h5.414v-34.91h-23.51v6.269"/><path stroke="#1F0738" stroke-width="2.835" d="M37.449 29.106v8.691h7.41"/></g></svg>