<svg width="85" height="92" xmlns="http://www.w3.org/2000/svg"><g fill="#EB3386" fill-rule="evenodd"><path d="M58.47 86.322c0 1.114-.9 2.02-2.009 2.02a2.027 2.027 0 0 1-2.029-2.02c0-1.114.91-2.021 2.03-2.021a2.016 2.016 0 0 1 2.008 2.02zm17.585-1.71a2.025 2.025 0 0 1 0 4.048 2.024 2.024 0 0 1 0-4.047zm5.172-33.288l-3.922 21H52.953l-.06-.185-.128-.428a1.318 1.318 0 0 0-.098-.24l-6.74-20.147h35.3zm-31.364 22.3l2.801 9.535c-1.05 1.238-1.555 2.953-.99 4.804a5.031 5.031 0 0 0 3.47 3.36c3.072.822 5.86-1.195 6.361-4h9.587c.291 2.544 2.465 4.523 5.101 4.452 2.664-.072 4.891-2.362 4.887-5.027a5.032 5.032 0 0 0-5.025-5.02c-1.883 0-3.507 1.056-4.365 2.596H61.323c-.873-1.868-2.75-3.172-4.94-3.172a5.46 5.46 0 0 0-1.28.165l-1.76-5.993H78.78c.714 0 1.327-.508 1.46-1.21l4.487-24.034a1.483 1.483 0 0 0-1.458-1.756H44.681l-1.664-4.976a1.5 1.5 0 0 0-1.422-1.024h-6.14a1.5 1.5 0 1 0 0 3h4.94l9.468 28.3z"/><path d="M3.279 16.324h70v-13h-70v13zm31.9 49h-31.9v-46h70v21.512a1.5 1.5 0 1 0 3 0V1.824a1.5 1.5 0 0 0-1.5-1.5h-73a1.5 1.5 0 0 0-1.5 1.5v65a1.5 1.5 0 0 0 1.5 1.5h33.4a1.5 1.5 0 1 0 0-3z"/><path d="M21.82 11.324h5.986a1.5 1.5 0 1 0 0-3H21.82a1.5 1.5 0 1 0 0 3m-12.31 0h5.986a1.5 1.5 0 1 0 0-3H9.51a1.5 1.5 0 1 0 0 3"/></g></svg>