<?xml version="1.0" encoding="UTF-8"?>
<svg width="164px" height="164px" viewBox="0 0 164 164" version="1.1" xmlns="http://www.w3.org/2000/svg" xmlns:xlink="http://www.w3.org/1999/xlink">
    <!-- Generator: Sketch 48.2 (47327) - http://www.bohemiancoding.com/sketch -->
    <title>fb2</title>
    <desc>Created with Sketch.</desc>
    <defs></defs>
    <g id="Desktop-HD-Copy-13" stroke="none" stroke-width="1" fill="none" fill-rule="evenodd" transform="translate(-786.000000, -310.000000)">
        <g id="fb2" transform="translate(786.000000, 310.000000)">
            <rect id="Rectangle-7" fill="#FFFFFF" x="34" y="29" width="103" height="103"></rect>
            <path d="M82,0 C36.7764968,0 0,36.7764968 0,82 C0,127.223503 36.7764968,164 82,164 C127.223503,164 164,127.223503 164,82 C164,36.7764968 127.223503,0 82,0 Z M127,121.989817 C127,124.678208 124.830957,127 121.989817,127 L99.1384929,127 L99.1384929,92.203666 L110.808554,92.203666 L112.610998,78.6089613 L99.1384929,78.6089613 L99.1384929,69.99389 C99.1384929,66.0224033 100.177189,63.4562118 105.798371,63.4562118 L112.977597,63.4562118 L112.977597,51.2668024 C111.694501,51.1446029 107.448065,50.7474542 102.437882,50.7474542 C92.0509165,50.7474542 84.99389,57.0407332 84.99389,68.7107943 L84.99389,78.7311609 L73.3238289,78.7311609 L73.3238289,92.3258656 L84.99389,92.3258656 L84.99389,127 L42.0101833,127 C39.3217923,127 37,124.830957 37,121.989817 L37,42.0101833 C37,39.3217923 39.1690428,37 42.0101833,37 L121.989817,37 C124.678208,37 127,39.1690428 127,42.0101833 L127,121.989817 Z" id="Shape" fill="#4D3C5F" fill-rule="nonzero"></path>
        </g>
    </g>
</svg>