<svg width="90" height="90" xmlns="http://www.w3.org/2000/svg"><g fill="#EB3386" fill-rule="evenodd"><path d="M44.619 86.238C21.67 86.238 3 67.568 3 44.619 3 21.67 21.67 3 44.619 3c22.949 0 41.619 18.67 41.619 41.619 0 22.949-18.67 41.619-41.62 41.619m0-86.238C20.017 0 .002 20.016.002 44.619c0 24.604 20.015 44.619 44.618 44.619 24.604 0 44.619-20.016 44.619-44.619S69.223 0 44.618 0"/><path d="M44.619 70.213c-8.781 0-16.015-6.757-16.775-15.346h33.555c-.761 8.59-7.997 15.346-16.78 15.346m18.348-18.346H26.276a1.5 1.5 0 0 0-1.5 1.5c0 10.943 8.902 19.846 19.843 19.846 10.943 0 19.848-8.902 19.848-19.846a1.5 1.5 0 0 0-1.5-1.5M22.099 31.235a4.341 4.341 0 0 1 4.337-4.337 4.341 4.341 0 0 1 4.337 4.337 4.342 4.342 0 0 1-4.337 4.337 4.342 4.342 0 0 1-4.337-4.337m11.674 0c0-4.045-3.292-7.337-7.337-7.337s-7.337 3.292-7.337 7.337 3.292 7.337 7.337 7.337c4.046 0 7.337-3.292 7.337-7.337m28.197 4.337a4.34 4.34 0 0 1-4.338-4.337 4.34 4.34 0 0 1 4.337-4.337 4.342 4.342 0 0 1 4.338 4.337 4.343 4.343 0 0 1-4.338 4.337m0-11.674c-4.046 0-7.337 3.292-7.337 7.337s3.291 7.337 7.337 7.337c4.046 0 7.338-3.292 7.338-7.337s-3.293-7.337-7.338-7.337"/></g></svg>