<svg id="Layer_1" xmlns="http://www.w3.org/2000/svg" xmlns:xlink="http://www.w3.org/1999/xlink" viewBox="0 0 40 47.8"><style>.st2{clip-path:url(#SVGID_6_)}.st7{fill:#251752}</style><defs><path id="SVGID_1_" d="M21.7 47.4l16.9-10.5c.9-.5 1.4-1.5 1.4-2.5V13.5c0-1-.5-2-1.4-2.5L21.7.4c-1-.6-2.2-.6-3.2 0L1.4 11c-.9.5-1.4 1.5-1.4 2.6v20.8c0 1 .5 2 1.4 2.6l17.1 10.5c1 .5 2.2.5 3.2-.1z"/></defs><clipPath id="SVGID_2_"><use xlink:href="#SVGID_1_" overflow="visible"/></clipPath><g clip-path="url(#SVGID_2_)"><defs><path id="SVGID_3_" d="M-486-2051.1h1571v7355H-486z"/></defs><clipPath id="SVGID_4_"><use xlink:href="#SVGID_3_" overflow="visible"/></clipPath><g clip-path="url(#SVGID_4_)"><defs><path id="SVGID_5_" d="M-7-5.1h52v58H-7z"/></defs><clipPath id="SVGID_6_"><use xlink:href="#SVGID_5_" overflow="visible"/></clipPath><g class="st2"><defs><path id="SVGID_7_" d="M0-.1h40v48H0z"/></defs><clipPath id="SVGID_8_"><use xlink:href="#SVGID_7_" overflow="visible"/></clipPath><g clip-path="url(#SVGID_8_)"><path fill="#8390f6" d="M-5-5.1h50v57.9H-5z"/></g></g><g class="st2"><defs><path id="SVGID_9_" d="M7 19.3L2.2 22v-5.4h-.4v5.7l-3.1 1.8c.1.1.2.3.2.4L2 22.7l5 2.9c.1-.2.1-.3.2-.4l-4.7-2.7 4.7-2.7c-.1-.2-.1-.4-.2-.5zm-2.9-4.1c-.1.1-.1.3-.2.4L7 17.4c.1-.2.1-.3.2-.4l-3.1-1.8zm11.8.3h.2c.3 0 .7-.1.9-.4s.4-.6.4-.9c0-.2 0-.3-.1-.4-.1-.2-.1-.3-.3-.4-.2-.3-.6-.4-.9-.4-.4 0-.7.1-.9.4-.1.1-.2.3-.3.4-.1.3-.1.6 0 .8 0 .2.1.3.2.4.3.3.5.5.8.5zm-1.8-.3L10.9 17c.1.1.2.3.2.4l3.2-1.8c-.1-.1-.2-.3-.2-.4zm-3.2 4.5l4.7 2.7-4.7 2.7c.1.1.2.3.2.4l5-2.9 3.1 1.8c.1-.2.1-.3.2-.4l-3.1-1.8v-5.7h-.4V22l-4.8-2.7c0 .1-.1.3-.2.4zm-.6-1.7c-.2-.5-.7-.9-1.2-.9-.3 0-.7.1-.9.4-.2.2-.4.6-.4.9 0 .1 0 .3.1.4.1.2.1.3.3.4.2.2.4.4.7.4h.4c.3-.1.5-.2.7-.4.2-.2.3-.5.3-.8V18zm-2.2 7.6c-.1.1-.2.3-.2.4v.3c0 .4.2.7.5 1 .3.2.7.3 1 .3.6-.1 1-.6 1-1.2v-.3c0-.2-.1-.3-.2-.4-.2-.3-.6-.5-1-.5H9c-.5 0-.7.2-.9.4zm1.2-1.4v-3.6h-.5v3.6h.5zm0-17.7h-.4V10l-5 2.9c0 .2.1.3.1.5l4.8-2.8v5.5h.4v-5.5l4.8 2.8c.1-.2.2-.3.3-.4l-5-2.9V6.5z"/></defs><clipPath id="SVGID_10_"><use xlink:href="#SVGID_9_" overflow="visible"/></clipPath><g clip-path="url(#SVGID_10_)"><defs><path id="SVGID_11_" d="M0-.1h40v48H0z"/></defs><clipPath id="SVGID_12_"><use xlink:href="#SVGID_11_" overflow="visible"/></clipPath><g clip-path="url(#SVGID_12_)"><path class="st7" d="M-6.4 1.5h30.9v31.2H-6.4z"/></g></g></g><g class="st2"><defs><path id="SVGID_13_" d="M2 15.8h.2c.3-.1.5-.2.7-.4.1-.2.2-.4.2-.5.1-.3.1-.6 0-.9-.1-.2-.1-.3-.3-.4-.2-.3-.5-.4-.9-.4-.3 0-.7.2-.9.4 0 .1-.1.3-.2.4-.1.1-.1.3-.1.4 0 .3.1.7.4.9.2.3.5.5.9.5zm16.9 12.7c-.2-.3-.4-.6-.5-.9l-8.5 5.3c-.3-.3-.6-.4-.9-.5v-3.2h-.5v3.2c-.3.1-.7.2-.9.5l-8.5-5.3c-.1.4-.3.7-.5.9l8.5 5.3c0 .1-.1.3-.1.4 0 1 .8 1.8 1.7 1.8s1.7-.8 1.7-1.8c0-.2 0-.3-.1-.4l8.6-5.3zM21.3 9c-.4 0-.9.2-1.2.5l-8.5-5.3c-.1.3-.3.6-.5.9l8.5 5.3c-.1.4-.1.8.1 1.1l-2.5 1.6c.1.1.2.3.2.4L20 12c.2.3.5.5.9.6v10.5h1V12.6c.8-.3 1.3-1.1 1.2-2-.2-.9-.9-1.6-1.8-1.6z"/></defs><clipPath id="SVGID_14_"><use xlink:href="#SVGID_13_" overflow="visible"/></clipPath><g clip-path="url(#SVGID_14_)"><defs><path id="SVGID_15_" d="M0-.1h40v48H0z"/></defs><clipPath id="SVGID_16_"><use xlink:href="#SVGID_15_" overflow="visible"/></clipPath><g clip-path="url(#SVGID_16_)"><path class="st7" d="M-6.4-.8H28V41H-6.4z"/></g></g></g><g class="st2"><defs><path id="SVGID_17_" d="M-5.7 12.8v10.9h1V12.8c.3-.1.7-.3.9-.6l2.6 1.6c.1-.2.2-.3.3-.5l-2.6-1.6c.1-.2.1-.5.1-.7 0-.2 0-.3-.1-.5l8.8-5.4c-.3-.2-.5-.5-.6-.9l-8.8 5.4c-.3-.3-.7-.5-1.2-.5-.9.1-1.7.9-1.7 1.9 0 .9.5 1.6 1.3 1.8"/></defs><clipPath id="SVGID_18_"><use xlink:href="#SVGID_17_" overflow="visible"/></clipPath><g clip-path="url(#SVGID_18_)"><defs><path id="SVGID_19_" d="M0-.1h40v48H0z"/></defs><clipPath id="SVGID_20_"><use xlink:href="#SVGID_19_" overflow="visible"/></clipPath><g clip-path="url(#SVGID_20_)"><path class="st7" d="M-12-.8h22.2v29.5H-12z"/></g></g></g><g class="st2"><defs><path id="SVGID_21_" d="M-3.8 26.1c-.2-.3-.5-.5-.9-.7-.2 0-.3-.1-.5-.1s-.3 0-.5.1c-.7.2-1.3 1-1.3 1.8s.4 1.5 1.1 1.8c.7.3 1.4.1 1.9-.4s.7-1.4.4-2.1c-.1-.1-.1-.3-.2-.4m25.2-.7c-.3-.1-.7-.1-1 0-.4.1-.7.3-.9.7-.1.1-.2.3-.2.5-.1.2-.1.5-.1.7 0 .5.2 1 .5 1.4.5.5 1.3.7 1.9.4.7-.3 1.1-1 1.1-1.8-.1-.9-.6-1.6-1.3-1.9M6.6 4.1c.3.3.6.5 1 .5H8c.4-.1.7-.2 1-.5.2-.3.4-.6.5-.9v-.4c0-.5-.2-1-.5-1.3-.3-.4-.7-.6-1.2-.6s-.9.2-1.2.6c-.3.3-.5.8-.5 1.3v.4c.1.4.3.7.5.9"/></defs><clipPath id="SVGID_22_"><use xlink:href="#SVGID_21_" overflow="visible"/></clipPath><g clip-path="url(#SVGID_22_)"><defs><path id="SVGID_23_" d="M0-.1h40v48H0z"/></defs><clipPath id="SVGID_24_"><use xlink:href="#SVGID_23_" overflow="visible"/></clipPath><g clip-path="url(#SVGID_24_)"><path class="st7" d="M-12-4.1h39.6v38.3H-12z"/></g></g></g></g></g><defs><path id="SVGID_25_" d="M-486-2051.1h1571v7355H-486z"/></defs><clipPath id="SVGID_26_"><use xlink:href="#SVGID_25_" overflow="visible"/></clipPath><g clip-path="url(#SVGID_26_)"><path d="M24.6 31.9l-1.3-4.2h-6.5l-1.3 4.2h-4.1L17.7 14h4.6l6.3 17.9h-4zm-2.2-7.4c-1.2-3.8-1.9-6-2-6.5-.2-.5-.3-.9-.3-1.2-.3 1-1 3.6-2.3 7.7h4.6z" fill="#fff"/></g></svg>