<svg width="45" height="45" xmlns="http://www.w3.org/2000/svg"><path d="M41.677 0H3.325C1.488 0 0 1.443 0 3.224v38.55C0 43.556 1.489 45 3.325 45h38.352C43.513 45 45 43.555 45 41.774V3.224C45 1.444 43.513 0 41.677 0zM13.643 37.668h-6.8V17.351h6.8v20.317zm-3.4-23.093h-.045c-2.28 0-3.758-1.559-3.758-3.511 0-1.991 1.521-3.508 3.847-3.508 2.325 0 3.756 1.516 3.8 3.508 0 1.953-1.474 3.511-3.843 3.511zm27.909 23.093h-6.797v-10.87c0-2.732-.985-4.595-3.443-4.595-1.88 0-2.997 1.257-3.487 2.47-.181.435-.226 1.04-.226 1.646v11.349h-6.796s.089-18.412 0-20.317H24.2v2.88c.902-1.384 2.514-3.358 6.124-3.358 4.473 0 7.828 2.902 7.828 9.145v11.65zM24.156 20.296a1.07 1.07 0 0 1 .044-.065v.065h-.044z" fill="#FFF"/></svg>