<svg width="74" height="87" xmlns="http://www.w3.org/2000/svg" xmlns:xlink="http://www.w3.org/1999/xlink"><defs><path id="a" d="M15.574 0h41.959v43.426h-41.96z"/></defs><g fill="none" fill-rule="evenodd"><path d="M3.838 83.662c.757-18.46 15.424-33.235 33.344-33.235s32.587 14.775 33.345 33.235H3.837zm33.344-36.235C17.116 47.427.792 64.37.807 85.19c0 .817.683 1.472 1.5 1.472h69.75c.817 0 1.499-.655 1.5-1.472.014-20.821-16.308-37.763-36.375-37.763z" fill="#EB3386"/><mask id="b" fill="#fff"><use xlink:href="#a"/></mask><path d="M36.554 3c9.914 0 17.979 8.396 17.979 18.713 0 10.318-8.065 18.713-17.98 18.713-9.914 0-17.98-8.395-17.98-18.713C18.574 11.396 26.64 3 36.554 3m0 40.426c11.569 0 20.98-9.74 20.98-21.713S48.123 0 36.553 0c-11.568 0-20.98 9.74-20.98 21.713s9.412 21.713 20.98 21.713" fill="#EB3386" mask="url(#b)"/><path d="M41.05 68.978c-.544.396-.773.911-.565 1.552l1.474 4.443-3.861-2.853c-.545-.396-1.288-.419-1.833-.024l-3.86 2.793 1.474-4.545c.208-.639-.021-.968-.566-1.363l-3.862-2.427h4.773c.674 0 1.275-.819 1.483-1.459l1.475-4.73 1.474 4.825c.208.641.81 1.364 1.483 1.364h4.773l-3.861 2.424zm10.143-4.788c-.208-.64-.81-.636-1.483-.636h-8.438l-2.607-8.466c-.21-.64-.81-1.298-1.483-1.298s-1.275.768-1.483 1.41l-2.607 8.354h-8.438c-.674 0-1.275-.004-1.483.636-.208.641.02 1.127.566 1.523l6.827 4.85-2.608 7.97c-.208.64.022 1.32.567 1.716a1.563 1.563 0 0 0 1.832-.015l6.827-4.967 6.827 4.957a1.561 1.561 0 0 0 2.398-1.746L43.8 70.453l6.827-4.74c.545-.396.774-.882.566-1.523z" fill="#EB3386"/></g></svg>