<?xml version="1.0" encoding="UTF-8"?>
<svg width="86px" height="86px" viewBox="0 0 86 86" version="1.1" xmlns="http://www.w3.org/2000/svg" xmlns:xlink="http://www.w3.org/1999/xlink">
    <!-- Generator: Sketch 48.2 (47327) - http://www.bohemiancoding.com/sketch -->
    <title>Group 3</title>
    <desc>Created with Sketch.</desc>
    <defs></defs>
    <g id="Desktop-HD-Copy-13" stroke="none" stroke-width="1" fill="none" fill-rule="evenodd" transform="translate(-498.000000, -1659.000000)">
        <g id="Group-3" transform="translate(498.000000, 1659.000000)">
            <circle id="Oval-12" fill="#FFFFFF" cx="43" cy="43" r="43"></circle>
            <path d="M40.9184523,40.9184523 L40.9184523,20.585119 C40.9184523,19.4345258 41.8511924,18.5017857 43.0017857,18.5017857 C44.1523789,18.5017857 45.085119,19.4345258 45.085119,20.585119 L45.085119,40.9184523 L65.4184523,40.9184523 C66.5690456,40.9184523 67.5017857,41.8511924 67.5017857,43.0017857 C67.5017857,44.1523789 66.5690456,45.085119 65.4184523,45.085119 L45.085119,45.085119 L45.085119,65.4184523 C45.085119,66.5690456 44.1523789,67.5017857 43.0017857,67.5017857 C41.8511924,67.5017857 40.9184523,66.5690456 40.9184523,65.4184523 L40.9184523,45.085119 L20.585119,45.085119 C19.4345258,45.085119 18.5017857,44.1523789 18.5017857,43.0017857 C18.5017857,41.8511924 19.4345258,40.9184523 20.585119,40.9184523 L40.9184523,40.9184523 Z" id="Combined-Shape" fill="#20073E" transform="translate(43.001786, 43.001786) rotate(45.000000) translate(-43.001786, -43.001786) "></path>
        </g>
    </g>
</svg>