<svg id="Слой_1" xmlns="http://www.w3.org/2000/svg" viewBox="0 0 390 512"><style>.st0{fill:#1f0738}</style><g id="Desktop-HD-Copy-12" transform="translate(-422 -2994)"><g id="phantom-of-the-opera" transform="translate(422 2994)"><path id="Shape" class="st0" d="M285.5 172.1c-7.1-7.4-19.6-11.8-33.5-11.8-13.9 0-26.5 4.4-33.6 11.9-3 3.1-2.9 8.1.3 11.1 1.5 1.5 3.5 2.2 5.4 2.2 2.1 0 4.2-.8 5.7-2.4 3.1-3.2 10.8-7 22.2-7 11.4 0 19.1 3.8 22.2 7 3 3.1 8 3.2 11.1.2 3.1-3.1 3.2-8.1.2-11.2z"/><circle id="Oval" class="st0" cx="251.9" cy="203.7" r="11.3"/><circle id="Oval_1_" class="st0" cx="138.1" cy="203.7" r="11.3"/><path id="Shape_1_" class="st0" d="M228.2 303.5c-6.8-5.8-18.2-9.2-30.4-9.2s-23.6 3.4-30.4 9.2c-3.3 2.8-3.7 7.8-.9 11.1 1.6 1.8 3.8 2.8 6 2.8 1.8 0 3.6-.6 5.1-1.9 3-2.5 10.1-5.5 20.2-5.5s17.2 2.9 20.2 5.5c3.3 2.8 8.3 2.4 11.1-.9 2.9-3.3 2.4-8.3-.9-11.1z"/><circle id="Oval_2_" class="st0" cx="193.1" cy="435.7" r="8.6"/><circle id="Oval_3_" class="st0" cx="193.1" cy="474.9" r="8.6"/><path id="Shape_2_" class="st0" d="M138.1 168.6c-24.4 0-44.2 15.7-44.2 35.1 0 19.3 19.8 35.1 44.2 35.1s44.2-15.7 44.2-35.1-19.9-35.1-44.2-35.1zm0 54.4c-15.4 0-28.4-8.8-28.4-19.3s13-19.3 28.4-19.3 28.4 8.8 28.4 19.3-13 19.3-28.4 19.3z"/><path id="Shape_3_" class="st0" d="M314.7 344.1h-30.5c7.1-6.9 13.3-14.6 18.7-23 9.7-15.3 16-32.4 18.6-50.2 22.3-9.5 37-31.3 37-55.9v-3.7c0-8.2-2.8-15.8-7.5-21.8V156c0-42.1-16.6-81.5-46.6-111.2-3.1-3.1-8.1-3-11.1.1-3.1 3.1-3 8.1.1 11.1 27 26.6 41.9 62.1 41.9 99.9v22c-1.9-.7-3.9-1.2-6-1.6h-.1c-2-.4-4.1-.6-6.2-.6h-.1V155c-.2-26.1-13-51.1-34-66.7l-.1-.1c-14.4-10.6-32-16.5-49.9-16.5-15.5 0-30.2 4.7-43.8 11.9-2.7-1.4-6.5-3.3-11.4-5.4-25.7-10.7-55.6-8-78.8 7.4C97.3 90.7 90.7 97 85 104c-.4.6-.7.7-1.4.9-.1 0-.1 0-.2.1-11.4 4.2-20.2 13.9-23.2 25.6-.8 3.1-1.2 6.3-1.2 9.4v36.7c-1.5.3-2.9.8-4.3 1.3v-22c0-77.3 62.9-140.3 140.3-140.3 26.5 0 52.4 7.5 74.7 21.6 3.7 2.3 8.5 1.2 10.9-2.4 2.3-3.7 1.2-8.5-2.4-10.9C253.3 8.3 224.5 0 195 0 109 0 39 70 39 156v33.5c-4.7 6-7.5 13.6-7.5 21.8v3.7c0 20.6 10.5 39.7 27.6 50.9v14.2c0 4.4 3.5 7.9 7.9 7.9s7.9-3.5 7.9-7.9V140c0-11.7 9.8-21.5 21.5-21.5h69.3c11.9 0 21.5 9.7 21.5 21.5v107.4c0 9.4-7.6 17-17 17-18 0-32.7 14.7-32.7 32.7 0 2-.1 4-.4 6-2.3 15-15.3 26.5-30.9 26.5-13.2 0-25-8.3-29.5-20.7-1.5-4.1-6-6.2-10.1-4.7s-6.2 6-4.7 10.1c5.5 15.1 18.3 26.2 33.5 29.8H75.3C34 344.1.4 377.7.4 419v26.8c0 4.4 3.5 7.9 7.9 7.9s7.9-3.5 7.9-7.9V419c0-32.6 26.5-59.1 59.1-59.1h18L148 496.2H82.5v-85.9c0-4.4-3.5-7.9-7.9-7.9s-7.9 3.5-7.9 7.9v85.9H16.1v-19c0-4.4-3.5-7.9-7.9-7.9s-7.9 3.5-7.9 7.9V504c0 4.4 3.5 7.9 7.9 7.9h373.4c4.4 0 7.9-3.5 7.9-7.9v-85c.1-41.3-33.5-74.9-74.8-74.9zm8.1-152.5h.1c4 0 7.7 1.2 10.9 3.3.1.1.2.1.2.2.4.3.7.5 1.1.8.2.1.4.3.5.4.3.2.5.5.8.7.2.2.5.4.7.7 3.5 3.6 5.6 8.4 5.6 13.8v3.7c0 15.3-7.7 29.2-19.9 37.4v-61zM59.1 245.4c-7.5-8.2-11.8-19-11.8-30.4v-3.7c0-7.3 4.4-14.3 10.9-17.7.3-.2.6-.3.9-.4v52.2zm93.8 57.8v-.2c.2-2 .2-3.9.2-5.9 0-9.4 7.6-17 17-17 18 0 32.7-14.7 32.7-32.7V140c0-20.6-16.7-37.3-37.3-37.3h-57.3c9-7.3 19.8-12.2 31.2-14.2h.1c12.7-2.2 26-.6 37.9 4.3 8.3 3.5 13.3 6.5 13.3 6.5 2.5 1.6 5.8 1.6 8.3 0 19.5-12.1 43.5-15.6 65.1-6.9 19.6 7.9 34.8 24.8 40.4 45.2 3.4 12.5 2.4 26.4 2.4 39.5 0 27.4 1.5 55.2-.2 82.5 0 .4 0 .8-.1 1.2-2.5 33.9-21.1 65.6-49.2 84.6-2.1 1.4-4.3 2.8-6.5 4.1 0 0-.1 0-.1.1-3-3-7.1-4.3-11.2-4.3-7 0-16.1 3.6-27.3 10.8h-.1c-3.7-2-7.9-3.1-12.1-3.1h-10.3c-4.2 0-8.5 1.1-12.2 3.2-11.2-7.2-20.4-10.8-27.3-10.8-4.6 0-8.5 1.5-11.2 4.3h-.1c-4-2.3-7.9-4.9-11.6-7.7-.2-.1-1.3-1.1-1.4-1.1 14.8-6.8 25.2-21 26.9-37.7zm70.2 64.9c8.2-5 13.8-6.9 16.6-6.9h.1c0 .1.1.3.1.5v32.7c0 .3-.1.5-.1.6-1.8.1-7.2-1.1-16.7-7 1.3-3.1 2.1-6.4 2.1-10-.1-3.4-.8-6.8-2.1-9.9zm-13.7 10c0 2.7-1.4 5.3-3.5 7.1-1.6 1.3-3.6 2.1-5.7 2.1h-10.3c-4.3 0-8.2-3.2-9-7.4-.4-2-.1-4.1.8-5.9 1.5-3.1 4.9-5.2 8.3-5.2h10.3c4.8.1 9.1 4.3 9.1 9.3zm-42.5 10c-.1 0-.1.1-.2.1-2.7 1.6-5.4 3.2-8.3 4.5-2.5 1.1-5.4 2.4-8.1 2.4h-.1c-.4 0-.1-14.7-.1-15.7V363c0-.4-.1-.8 0-1.1v-.2c0-.2.1-.3.1-.5h.1c2.7 0 8.3 1.9 16.6 6.9 0 0-1.3 3.6-1.3 4-.5 2-.7 4-.7 6 0 3.4.7 6.8 2 10zM225 496.2h-60l-54.7-136.4h15.2c2.6 1.7 5.2 3.2 7.9 4.7.3.2.5.3.8.5 0 0 .1 0 .1.1v29.8c0 5.9 3.5 12 8.9 14.4 5.7 2.6 12.1 1.3 17.8-.8 5.9-2.1 11.3-5.2 16.6-8.6 6.9 3.9 14.7 3.2 22.3 3.2h.1c3.4 0 7-.6 10.1-2.2.3-.2 1.8-1.2 2.1-1 22.8 14.7 31.4 10.8 34.4 9.4 2.9-1.3 8-4.9 8.9-13.6v-30.6c3-1.6 6-3.4 8.8-5.2h15.2L225 496.2zm148.9 0h-50.6v-85.9c0-4.4-3.5-7.9-7.9-7.9s-7.9 3.5-7.9 7.9v85.9h-65.6l54.7-136.4h18c32.6 0 59.1 26.5 59.1 59.1v77.3z"/></g></g></svg>