<svg id="Слой_1" xmlns="http://www.w3.org/2000/svg" viewBox="0 0 68 90"><style>.st0{fill:#1f0738}.st1{fill:#e040a9}</style><g id="Desktop-HD-Copy-12" transform="translate(-1093 -3337)"><g id="Group-14" transform="translate(338 3297)"><g id="Group-13-Copy-2" transform="translate(647)"><g id="Group-12"><g id="talent" transform="translate(108 40)"><path id="Shape" d="M49.5 30.1c-1.2-1.3-3.3-2.1-5.7-2.1-2.4 0-4.5.8-5.7 2.1-.5.6-.5 1.5.1 2 .3.3.6.4.9.4.4 0 .7-.1 1-.4.5-.6 1.8-1.3 3.8-1.3s3.2.7 3.8 1.3c.5.6 1.4.6 1.9 0 .4-.5.4-1.4-.1-2z"/><ellipse id="Oval" cx="44.6" cy="36.3" rx="2.3" ry="2.3"/><ellipse id="Oval_1_" cx="24.9" cy="36.3" rx="2.3" ry="2.3"/><path id="Shape_1_" d="M40.3 54c-1.2-1.1-3.3-1.8-5.5-1.8s-4.3.7-5.5 1.8c-.6.6-.7 1.5-.2 2.2.3.4.7.6 1.1.6.3 0 .7-.1.9-.4.5-.5 1.8-1.1 3.7-1.1s3.1.6 3.7 1.1c.6.6 1.5.5 2-.2s.4-1.7-.2-2.2z"/><ellipse id="Oval_2_" cx="32.9" cy="75.3" rx="1.1" ry="1.1"/><ellipse id="Oval_3_" cx="32.9" cy="83.6" rx="1.1" ry="1.1"/><path id="Shape_2_" d="M24.6 29.5c-4.4 0-7.9 2.7-7.9 6.1 0 3.3 3.6 6.1 7.9 6.1s7.9-2.7 7.9-6.1c0-3.4-3.6-6.1-7.9-6.1zm0 9.4c-2.8 0-5.1-1.5-5.1-3.3s2.3-3.3 5.1-3.3 5.1 1.5 5.1 3.3-2.4 3.3-5.1 3.3z"/><path id="Shape_3_" class="st0" d="M48.5 4.2C44.1 1.5 39.1 0 33.9 0 18.9 0 6.6 12.3 6.6 27.5v5.9c-.8 1.1-1.3 2.4-1.3 3.8v.7c0 3.6 1.8 6.9 4.7 8.9l.2.1v-.5c.1-1 0-2.1 0-3.1C8.8 41.8 8 39.9 8 37.9v-.7c0-1.3.8-2.5 1.9-3.1.1 0 .1-.1.2-.1v.1-3c-.2.1-.5.1-.8.2v-3.9c0-13.6 11-24.7 24.6-24.7 4.6 0 9.2 1.3 13.1 3.8.6.4 1.5.2 1.9-.4.4-.6.2-1.4-.4-1.9z"/><path id="Shape_4_" class="st0" d="M54.9 60.5h-5.4c1.2-1.2 2.3-2.6 3.3-4 1.7-2.7 2.8-5.7 3.2-8.8 3.9-1.7 6.5-5.5 6.5-9.8v-.6c0-1.4-.5-2.8-1.3-3.8v-5.9c0-7.4-2.9-14.3-8.1-19.5-.5-.5-1.4-.5-1.9 0s-.5 1.4 0 1.9c4.7 4.7 7.3 10.9 7.3 17.5v3.9c-.3-.1-.7-.2-1-.3-.4-.1-.8-.1-1.1-.1v-3.6c0-4.6-2.3-9-5.9-11.7-2.5-1.9-5.6-2.9-8.7-2.9-2.7 0-5.3.8-7.7 2.1-.5-.2-1.1-.6-2-.9-4.5-1.9-9.7-1.4-13.8 1.3-1.3.9-2.5 2-3.5 3.2 1.3 0 2.7 0 4.1-.2 1.6-1.3 3.4-2.1 5.4-2.5 2.2-.4 4.5-.1 6.6.8 1.5.6 2.3 1.1 2.3 1.1.4.3 1 .3 1.5 0 3.4-2.1 7.6-2.7 11.4-1.2 3.4 1.4 6.1 4.4 7.1 7.9.6 2.2.4 4.6.4 6.9 0 4.8.3 9.7 0 14.5v.2c-.4 6-3.7 11.5-8.6 14.9-.3.2-.8.5-1.1.7.6.8.8 1.7.8 2.7.5-.3 1.1-.6 1.5-.9h2.7l-9.6 24H28.8l-9.6-24h2.7c.5.3.9.6 1.4.8 0 0 .1 0 .1.1.1-.9.6-1.7.9-2.7-.7-.4-1.4-.9-2-1.4 0 0-.2-.1-.2-.2-1.8.6-3.6.5-5.5.5h.1-3.5C5.9 60.5 0 66.4 0 73.7v4.7c0 .8.6 1.4 1.4 1.4s1.4-.6 1.4-1.4v-4.7c0-5.7 4.6-10.4 10.3-10.4h3.1l9.6 23.9H14.3v-15c0-.8-.6-1.4-1.4-1.4s-1.4.6-1.4 1.4v15.1H2.8V84c0-.8-.6-1.4-1.4-1.4S0 83.1 0 83.9v4.7c0 .8.6 1.4 1.4 1.4h65.3c.8 0 1.4-.6 1.4-1.4V73.7c-.1-7.3-6-13.2-13.2-13.2zm1.4-26.8c.7 0 1.4.2 1.9.6.1.1.1.1.2.1l.1.1c.1 0 .1.1.1.1l.1.1c.6.6 1 1.5 1 2.4v.6c0 2.7-1.3 5.1-3.5 6.6V33.7zm9 53.5h-8.8v-15c0-.8-.6-1.4-1.4-1.4-.8 0-1.4.6-1.4 1.4v15.1H42.2l9.6-24h3.1c5.7 0 10.3 4.7 10.3 10.4l.1 13.5z"/><path id="Shape_5_" class="st1" d="M23.4 64.1v5.5c0 1.1.6 2.2 1.5 2.7 1 .5 2 .2 3-.1 1-.4 1.9-1 2.8-1.6 1.2.7 2.5.6 3.7.6.6 0 1.2-.1 1.7-.4.1 0 .3-.2.4-.2 3.8 2.7 5.3 2 5.8 1.7.5-.2 1.3-.9 1.5-2.5v-5.6c.1 0-.1 0 0 0 0-1.1-.3-2.3-.8-2.8-.5-.6-1.2-.8-1.9-.8-1.2 0-2.7.7-4.6 2-.6-.4-1.3-.6-2-.6h-1.7c-.7 0-1.4.2-2 .6-1.9-1.3-3.4-2-4.6-2-.8 0-1.4.3-1.9.8-.2.1-.9 1.7-.9 2.7zm17.7-.7c.1 0 .1 0 0 0 .1 0 .1.1 0 0v6.2c-.3 0-1.2-.2-2.8-1.3.2-.6.4-1.2.4-1.8 0-.6-.1-1.3-.4-1.8 1.4-.9 2.4-1.3 2.8-1.3zm-9.7 2.4c.3-.6.8-1 1.4-1h1.7c.8 0 1.5.8 1.5 1.7 0 .5-.2 1-.6 1.3-.3.2-.6.4-1 .4h-1.7c-.7 0-1.4-.6-1.5-1.4 0-.3 0-.7.2-1zm-5.3-2.2c0-.1 0-.1 0 0v-.1c.5 0 1.4.4 2.8 1.3l-.2.7c-.1.4-.1.7-.1 1.1 0 .6.1 1.3.4 1.8-.5.3-.9.6-1.4.8-.4.2-.9.4-1.4.4-.1 0 0-2.7 0-2.9v-3c-.1 0-.1-.1-.1-.1z"/><path id="Shape_6_" class="st1" d="M22.2 60c0-.1.1 0 0 0 0 0 0-.1 0 0 2.5-1.2 4.3-3.7 4.6-6.6v-1c0-1.6 1.3-3 2.9-3 3.1 0 5.7-2.6 5.7-5.7v-19c0-3.6-2.9-6.5-6.5-6.5h-10c-1.3.2-2.7.2-4 .2l-.2.2c-2 .7-3.5 2.4-4 4.5-.1.5-.2 1.1-.2 1.6v18.4c0 1 .1 2.1 0 3.1v3c0 .8.6 1.4 1.4 1.4.8 0 1.4-.6 1.4-1.4V24.7c0-2.1 1.7-3.8 3.7-3.8h12c2.1 0 3.7 1.7 3.7 3.8v18.8c0 1.6-1.3 3-2.9 3-3.1 0-5.7 2.6-5.7 5.7 0 .4 0 .7-.1 1.1-.4 2.6-2.7 4.6-5.4 4.6-2.3 0-4.3-1.5-5.1-3.6-.3-.7-1-1.1-1.8-.8-.7.3-1.1 1.1-.8 1.8.9 2.6 3.1 4.6 5.8 5.2 2 0 3.7.1 5.5-.5z"/></g></g></g></g></g></svg>