<svg width="57" height="90" xmlns="http://www.w3.org/2000/svg"><g fill="#1F0738" fill-rule="evenodd"><path d="M28.92 86.087c-13.808 0-25.038-11.23-25.038-25.035 0-13.8 11.23-25.028 25.037-25.028h.003a24.87 24.87 0 0 1 12.482 3.332c.097.074.205.133.321.182a25.144 25.144 0 0 1 4.887 3.815c4.728 4.726 7.33 11.012 7.33 17.7.002 13.804-11.224 25.034-25.023 25.034zM8.495 3.864h40.837l-8.002 32.05a27.885 27.885 0 0 0-12.41-2.89h-.002a27.87 27.87 0 0 0-12.418 2.91L8.496 3.863zm40.24 37.368a28.157 28.157 0 0 0-4.697-3.783l8.67-34.722a1.504 1.504 0 0 0-.272-1.287 1.504 1.504 0 0 0-1.182-.577H6.575a1.497 1.497 0 0 0-1.454 1.864l8.673 34.745C6.036 42.463.884 51.164.884 61.052c0 15.46 12.577 28.035 28.037 28.035 15.453 0 28.023-12.576 28.023-28.035 0-7.488-2.916-14.528-8.208-19.82z"/><path d="M35.909 62.924a1.502 1.502 0 0 0-.431 1.327l1.386 8.071-7.063-3.715a1.496 1.496 0 0 0-1.376-.01l-7.466 3.782 1.393-8.128a1.503 1.503 0 0 0-.43-1.327l-5.863-5.719 8.104-1.177c.488-.07.91-.378 1.13-.82l3.625-7.344 3.622 7.343c.219.442.64.75 1.13.82l8.103 1.177-5.864 5.72zm7.347-8.535l-8.376-1.216-3.744-7.59a2.466 2.466 0 0 0-2.221-1.38h-.01a2.46 2.46 0 0 0-2.212 1.387l-3.743 7.583-8.37 1.215a2.46 2.46 0 0 0-2.005 1.685 2.453 2.453 0 0 0 .628 2.536l6.06 5.912-1.437 8.375a2.465 2.465 0 0 0 .969 2.41 2.466 2.466 0 0 0 2.592.22l7.704-3.904 7.307 3.843c.84.446 1.84.377 2.613-.18a2.467 2.467 0 0 0 .99-2.428L38.57 64.52l6.06-5.912a2.46 2.46 0 0 0 .626-2.54 2.46 2.46 0 0 0-2-1.678z"/></g></svg>