<svg width="87" height="104" xmlns="http://www.w3.org/2000/svg"><g fill="#EB3386" fill-rule="evenodd"><path d="M51.493 29.047c-11.84 0-21.471 9.632-21.471 21.47 0 11.84 9.632 21.472 21.47 21.472 11.84 0 21.473-9.632 21.473-21.471 0-11.84-9.632-21.471-21.472-21.471m0 45.787c-13.407 0-24.316-10.908-24.316-24.316S38.086 26.2 51.493 26.2c13.408 0 24.316 10.909 24.316 24.317S64.9 74.834 51.493 74.834"/><path d="M81.648 83.781c-.378 0-.754-.149-1.034-.446L66.236 68.118a1.422 1.422 0 1 1 2.068-1.954l14.378 15.217a1.423 1.423 0 0 1-1.034 2.4M78.83 36.958H68.805a1.423 1.423 0 1 1 0-2.845h8.604V15.262a1.423 1.423 0 0 1 2.846 0v20.273c0 .786-.637 1.423-1.423 1.423"/><path d="M85.578 43.16H72.64a1.423 1.423 0 0 1 0-2.845h11.514v-20.26a1.423 1.423 0 1 1 2.845 0v21.683c0 .786-.637 1.423-1.422 1.423M28.6 51.314H1.421a1.424 1.424 0 0 1 0-2.846H28.6a1.424 1.424 0 0 1 0 2.846m.187-5.739h-8.9c-.413 0-.806-.18-1.077-.493l-4.86-5.629H1.423a1.424 1.424 0 0 1 0-2.845H14.6c.415 0 .807.18 1.078.492l4.86 5.63h8.248a1.423 1.423 0 1 1 0 2.845M14.601 63.158H1.422a1.423 1.423 0 0 1 0-2.845H13.95l4.86-5.63c.27-.312.663-.492 1.077-.492h8.9a1.422 1.422 0 0 1 0 2.845h-8.249l-4.86 5.629c-.27.313-.663.493-1.077.493m29.432 40.665a1.423 1.423 0 0 1-1.423-1.422V79.417c-1.493-.573-4.465-1.791-6.972-3.298-5.328-3.311-9.423-8.088-11.865-13.826a1.423 1.423 0 0 1 2.619-1.114 27.194 27.194 0 0 0 10.73 12.512c3.17 1.904 7.34 3.38 7.383 3.394.569.2.95.738.95 1.342V102.4c0 .785-.636 1.422-1.422 1.422m7.437-23.205a1.423 1.423 0 1 1 0-2.846c3.243 0 7.064-.907 7.103-.917a27.024 27.024 0 0 0 8.333-3.843 1.423 1.423 0 0 1 1.61 2.346 29.94 29.94 0 0 1-9.244 4.256c-.203.049-4.215 1.004-7.803 1.004m23.537-12.241a1.423 1.423 0 0 1-1.164-2.239 27.275 27.275 0 0 0 4.677-11.995c.315-4.139-.325-7.302-.33-7.333a1.424 1.424 0 0 1 1.103-1.681 1.425 1.425 0 0 1 1.682 1.102c.03.144.734 3.586.38 8.169l-.009.075a30.118 30.118 0 0 1-5.172 13.295 1.418 1.418 0 0 1-1.167.607M25.47 39.85a1.422 1.422 0 0 1-1.289-2.023c4.925-10.58 15.645-17.419 27.311-17.419a30.224 30.224 0 0 1 21.964 9.514 1.423 1.423 0 0 1-2.074 1.947c-5.212-5.556-12.275-8.615-19.89-8.615-10.563 0-20.27 6.191-24.73 15.773a1.424 1.424 0 0 1-1.292.823"/><path d="M51.47 103.823a1.423 1.423 0 0 1-1.424-1.422V79.194a1.423 1.423 0 1 1 2.846 0V102.4c0 .785-.638 1.422-1.423 1.422m2.351-43.996c-.573 0-1.114-.35-1.33-.92l-5.721-15.114-5.931 15.13a1.422 1.422 0 1 1-2.65-1.038l7.279-18.57c.215-.546.719-.892 1.333-.902a1.423 1.423 0 0 1 1.323.919l7.029 18.568a1.425 1.425 0 0 1-1.331 1.927"/><path d="M51.407 53.447H42.8a1.422 1.422 0 0 1 0-2.845h8.606a1.422 1.422 0 0 1 0 2.845m8.105 6.379a1.423 1.423 0 0 1-1.423-1.423v-19.06a1.423 1.423 0 1 1 2.846 0v19.06c0 .786-.637 1.423-1.423 1.423M27.803 2.845a3.32 3.32 0 0 0-3.315 3.316 3.319 3.319 0 0 0 3.315 3.316A3.319 3.319 0 0 0 31.12 6.16a3.32 3.32 0 0 0-3.316-3.316m0 9.478a6.17 6.17 0 0 1-6.16-6.162A6.168 6.168 0 0 1 27.802 0a6.168 6.168 0 0 1 6.162 6.16 6.17 6.17 0 0 1-6.162 6.163"/><path d="M41.771 24.553a1.423 1.423 0 0 1-1.423-1.423V7.583h-7.806a1.422 1.422 0 0 1 0-2.845h9.229c.785 0 1.422.637 1.422 1.422v16.97c0 .786-.637 1.423-1.422 1.423"/></g></svg>