<svg width="82" height="62" xmlns="http://www.w3.org/2000/svg"><path d="M12.278 59.785c-3.314-1.456-5.884-3.516-7.823-6.271C-.04 47.13-.97 40.216 2.235 33.067c3.256-7.261 9.082-11.22 17.019-11.96 1.074-.1 1.313-.53 1.399-1.512.842-9.536 7.822-17.117 16.986-18.508.478-.073.964-.081 1.797-.148L12.278 59.785M49.027 2.31c-.392.932-.608 1.493-.86 2.04-8.545 18.535-17.106 37.064-25.613 55.618-.598 1.306-1.288 1.955-2.752 1.68-2.033-.383-4.078-.699-6.367-1.086.334-.86.502-1.37.726-1.855 8.635-18.72 17.292-37.429 25.878-56.17.657-1.438 1.47-1.944 2.92-1.617 1.96.443 3.919.897 6.068 1.39M23.696 61.695L50.58 3.385c2.28 1.196 4.134 2.605 5.514 4.519.289.4.095 1.352-.164 1.918-3.747 8.219-7.545 16.414-11.328 24.617-3.954 8.573-7.927 17.139-11.833 25.734-.523 1.15-1.178 1.602-2.432 1.547-2.078-.091-4.162-.025-6.642-.025m10.918 0l23.376-50.712.465.04c1.602 3.91 3.748 7.683 1.629 12.234A5372.592 5372.592 0 0 0 43.12 60.094c-.55 1.202-1.196 1.705-2.525 1.628-1.86-.107-3.73-.027-5.983-.027m11.016 0c.348-.872.528-1.391.757-1.888 5.66-12.283 11.348-24.554 16.957-36.861.623-1.367 1.325-1.77 2.685-1.247 1.365.524 2.754.98 4.281 1.519-.325.785-.534 1.343-.783 1.884-5.358 11.636-10.739 23.262-16.054 34.918-.569 1.246-1.23 1.814-2.636 1.704-1.614-.125-3.246-.03-5.207-.03m27.706-36.699c1.502 1.654 2.742 2.925 3.846 4.304.255.318.216 1.089.02 1.517a5068.167 5068.167 0 0 1-13.722 29.772c-.203.438-.739.992-1.148 1.017-1.82.11-3.65.048-5.889.048 5.645-12.247 11.157-24.212 16.892-36.658m-5.127 34.771l11.519-24.952c2.276 5.716 1.816 11.16-1.068 16.38-2.332 4.221-5.75 7.217-10.158 9.01l-.293-.438" fill="#EB3386" fill-rule="evenodd"/></svg>