<svg width="174" height="194" xmlns="http://www.w3.org/2000/svg"><g fill="none" fill-rule="evenodd"><path fill="#FFF" d="M16.223 113.434l6.641 19.899 38.383 20.953 81.348-11.478 8.856-15.506-8.856-91.063-52.768-23.92-35.105 14.8z"/><path d="M153.1 187.746c-1.755-1.03-3.675-.999-5.363.13-1.92 1.224-1.788 3.19-1.689 5.124h8.906c.099-2.03.231-4.061-1.854-5.254zm19.13.069c-1.69-1.07-3.577-1.07-5.3-.098-2.086 1.167-1.987 3.209-1.888 5.283 3.014 0 1.208.92 8.943 0 .033-1.977.166-3.954-1.755-5.185z" fill="#1F0738" fill-rule="nonzero"/><path d="M85 0c46.936 0 85 38.056 85 85.016C170 131.944 131.936 170 85 170S0 131.944 0 85.016C0 38.056 38.064 0 85 0zm10.159 48.245c-.16 1.511.257 2.957.675 4.372 1.125 3.76 2.861 7.296 4.533 10.864 1.51 3.214 3.022 6.396 4.5 9.61.933 1.993 1.48 4.082 1.062 6.3-.322 1.64-.772 3.214-1.158 4.822-.16.61-.353 1.22-.482 1.67 0 .612.225.74.579.547.289-.16.61-.321.868-.546 2.99-2.443 5.53-5.304 7.554-8.614.933-1.479 1.126-3.054.708-4.757-.708-3.054-1.897-5.882-3.215-8.71-1.8-3.922-3.633-7.843-5.562-11.7-1.51-3.022-2.282-6.172-1.96-9.579.128-1.286.32-2.54.45-3.825v-.16c0-.611-.194-.676-.58-.547a5.622 5.622 0 0 0-.867.514 23.97 23.97 0 0 0-5.37 5.593c-.867 1.254-1.574 2.604-1.735 4.146zM72.88 44.453c-.193 1.928.322 3.76.836 5.657 1.447 4.789 3.633 9.289 5.754 13.789 1.93 4.05 3.826 8.1 5.723 12.182 1.157 2.507 1.864 5.174 1.35 7.97-.386 2.058-.932 4.083-1.447 6.108-.192.771-.45 1.543-.61 2.121-.033.772.257.932.707.707.418-.225.804-.418 1.125-.707a43.965 43.965 0 0 0 9.58-10.96c1.19-1.897 1.415-3.89.9-6.043-.9-3.857-2.41-7.49-4.082-11.057a522.006 522.006 0 0 0-7.073-14.85c-1.929-3.889-2.926-7.874-2.508-12.181.129-1.608.386-3.247.547-4.854 0-.032.032-.16.032-.193.032-.771-.225-.868-.707-.707-.257.096-.9.482-1.093.643a31.097 31.097 0 0 0-6.816 7.103c-1.093 1.607-2.025 3.279-2.218 5.272zm-39.992 89.194c3.247-.643 5.272-3.696 4.533-6.75-.45-1.735-1.608-2.86-3.151-3.567-1.35-.643-2.797-1.158-4.18-1.768-1.35-.611-1.96-1.672-1.767-2.99.16-1.124 1.028-1.928 2.443-2.153 1.575-.257 3.086.064 4.533.643.932.353 1.671.16 1.929-.547.257-.739-.097-1.446-1.03-1.735-1.124-.45-3.535-.868-4.178-.868-1.35.032-2.669.257-3.858.964-3.15 1.832-3.408 6.46-.322 8.421.547.354 1.126.643 1.704.9 1.19.547 2.411 1.029 3.6 1.575.965.45 1.64 1.125 1.801 2.218.257 1.929-.964 3.279-3.054 3.407-1.543.065-2.958-.353-4.34-.932-.836-.321-1.479-.064-1.768.61-.29.644-.032 1.287.707 1.64 2.026.932 4.18 1.35 6.398.932zm13.084-4.596c-.032-.225-.032-.45-.032-.707V117.48c0-.225.032-.45.064-.707h1.35c.997-.033 1.994 0 2.99-.033.707-.032 1.19-.514 1.222-1.157a1.251 1.251 0 0 0-1.061-1.285c-.257-.033-.514-.033-.772-.033H45.94v-1.06c0-1.864.032-3.697 0-5.529 0-.9-.579-1.446-1.35-1.414-.74.032-1.222.579-1.254 1.414v20.667c0 .547.064 1.126.193 1.64.803 3.053 4.468 4.79 7.297 3.471.547-.257.804-.739.708-1.35-.129-.675-.579-.996-1.254-.996-.643 0-1.318.096-1.993.096-1.286 0-2.186-.867-2.315-2.153zm23.822-6.364c0-.643 0-1.286-.032-1.897-.097-4.05-2.765-6.75-6.784-6.846-3.76-.096-6.783 2.314-7.008 5.882-.193 2.7-.16 5.432 0 8.132.16 2.41 1.479 4.243 3.761 5.175 2.958 1.221 5.82.675 8.616-.643.611-.29.836-1.028.547-1.575-.29-.578-.804-.836-1.447-.675-.29.064-.579.225-.9.322-.9.257-1.8.61-2.7.739-3.248.514-5.305-1.286-5.37-4.564v-2.057h9.292c1.318 0 1.993-.675 2.025-1.993zm4.18-45.546c.9-1.51 1.092-3.053.706-4.789-.707-3.053-1.896-5.882-3.214-8.71-1.8-3.922-3.633-7.843-5.562-11.7-1.511-3.022-2.283-6.172-1.961-9.579.128-1.285.321-2.539.45-3.825v-.16c0-.61-.193-.675-.579-.547a5.622 5.622 0 0 0-.868.515 23.97 23.97 0 0 0-5.368 5.592c-.868 1.254-1.576 2.604-1.736 4.147-.161 1.51.225 2.989.675 4.403 1.125 3.76 2.86 7.296 4.533 10.864 1.51 3.214 3.021 6.397 4.5 9.61.933 1.994 1.48 4.083 1.061 6.3-.321 1.64-.771 3.215-1.157 4.822-.16.61-.354 1.221-.482 1.671 0 .611.225.74.578.547.29-.161.611-.322.868-.547 2.99-2.442 5.53-5.303 7.555-8.614zm15.173 45.578c.032-.932.032-1.864-.064-2.86-.322-3.504-2.958-5.883-6.59-5.98-3.73-.096-6.72 2.026-7.041 5.53-.29 2.956-.193 5.946 0 8.903.16 2.089 1.414 3.728 3.343 4.628 3.054 1.446 6.076.9 9.002-.514.61-.29.74-.9.482-1.51-.257-.612-.804-.837-1.447-.708-.289.064-.578.225-.9.321-.868.258-1.736.579-2.604.74-2.86.482-4.95-.836-5.368-3.407-.161-.997-.033-2.057-.033-3.182h9.163c1.35 0 2.025-.643 2.057-1.961zm29.737 9.45v-11.7c0-2.379-1.093-4.21-3.054-5.496-2.025-1.318-4.211-1.254-6.397-.515-.868.29-1.672.772-2.54 1.157-1.254-1.157-2.765-1.671-4.469-1.671-2.025 0-3.954.386-5.818 1.093-.836.321-1.222.932-1.222 1.8v15.428c0 .932.514 1.543 1.286 1.543.771 0 1.286-.61 1.318-1.543v-15.107c1.318-.546 3.536-.9 4.79-.771 2.154.193 3.118 1.221 3.118 3.407v12.343c0 .32 0 .707.161.996.257.514.772.771 1.382.61.676-.224.933-.707.933-1.414v-13.403c0-1.478.032-1.51 1.414-2.09 4.019-1.638 6.72.837 6.526 4.244-.192 3.664-.032 7.36-.032 11.024 0 1.029.515 1.64 1.286 1.672.804.032 1.318-.61 1.318-1.607zm9.805-8.26c0-1.897 0-3.826-.032-5.819 0-.932.032-1.864 0-2.796-.032-.836-.514-1.382-1.253-1.414-.74-.032-1.286.546-1.35 1.414v16.65c0 .257 0 .514.064.771.16.643.61.996 1.253 1.029.611.032 1.19-.45 1.286-1.093.065-.257.032-.514.032-.772v-7.97zm-1.285-14.143c.932 0 1.703-.772 1.703-1.768 0-.965-.739-1.704-1.703-1.704-.965 0-1.704.772-1.704 1.736s.771 1.736 1.704 1.736zm11.284 18.546v-10.864c0-.193.032-.386.064-.643h.9c1.125 0 2.25.032 3.343 0 .997-.032 1.576-.804 1.286-1.64-.225-.642-.739-.867-1.382-.867h-4.211v-1.029c0-1.864.032-3.728 0-5.593 0-.835-.547-1.382-1.286-1.382-.708 0-1.222.514-1.318 1.286v20.57c0 .547.032 1.062.128 1.576.45 2.25 2.186 3.857 4.469 4.018.868.064 1.736-.065 2.604-.193.707-.097 1.093-.707.996-1.414-.064-.611-.578-1.029-1.286-1.029-.707 0-1.382.129-2.09.096a2.17 2.17 0 0 1-2.057-1.607c-.128-.418-.16-.868-.16-1.285z" fill="#4D3C5F" fill-rule="nonzero"/></g></svg>