<svg width="48" height="48" xmlns="http://www.w3.org/2000/svg"><g fill="none" fill-rule="evenodd"><circle cx="24" cy="24" r="24" fill="#150526"/><path d="M33.198 13.435L20.69 19.123a.63.63 0 0 0-.315.844.657.657 0 0 0 .864.308l7.715-3.509-3.75 2.967-8.608 6.808-4.708-2.013 6.597-3a.63.63 0 0 0 .315-.845.657.657 0 0 0-.864-.308l-7.1 3.23a1.025 1.025 0 0 0-.607.954c.01.398.255.756.628.915l5.257 2.247 1.54 9.026c.094.558.868.717 1.185.243l4.367-6.512 8.259 3.765c.662.302 1.449-.16 1.492-.869l1.163-19.326a.606.606 0 0 0 0-.055c-.012-.45-.507-.747-.923-.558zm-14.79 20.002l-1.006-5.899 10.251-8.108-7.845 8.595a.637.637 0 0 0-.148.276l-1.252 5.136zm1.382-.182l.95-3.902 1.276.582-2.226 3.32zm2.946-4.394l-1.376-.627 6.771-7.418-.98 1.46-4.415 6.585zm8.945 4.078l-7.754-3.535 8.753-13.052-.999 16.587z" fill="#FFF" fill-rule="nonzero"/></g></svg>