<svg width="128" height="128" xmlns="http://www.w3.org/2000/svg"><g fill="none"><circle fill="#4D3C5F" cx="64" cy="64" r="64"/><path d="M100 41.866a29.712 29.712 0 0 1-8.484 2.305c3.049-1.812 5.392-4.682 6.495-8.1a29.724 29.724 0 0 1-9.38 3.553A14.813 14.813 0 0 0 77.85 35c-8.16 0-14.773 6.556-14.773 14.641 0 1.149.131 2.266.383 3.338A42.06 42.06 0 0 1 33.013 37.68a14.471 14.471 0 0 0-2 7.361c0 5.08 2.607 9.561 6.57 12.187a14.8 14.8 0 0 1-6.69-1.831l-.001.184c0 7.095 5.092 13.012 11.85 14.358a14.923 14.923 0 0 1-6.672.25c1.88 5.817 7.335 10.05 13.8 10.169a29.8 29.8 0 0 1-18.347 6.268c-1.192 0-2.368-.069-3.523-.204A42.075 42.075 0 0 0 50.644 93c27.17 0 42.028-22.311 42.028-41.66 0-.636-.014-1.267-.043-1.895a29.855 29.855 0 0 0 7.371-7.58z" fill="#FFF"/></g></svg>