<?xml version="1.0" encoding="UTF-8"?>
<svg width="128px" height="128px" viewBox="0 0 128 128" version="1.1" xmlns="http://www.w3.org/2000/svg" xmlns:xlink="http://www.w3.org/1999/xlink">
    <!-- Generator: Sketch 48.2 (47327) - http://www.bohemiancoding.com/sketch -->
    <title>Github</title>
    <desc>Created with Sketch.</desc>
    <defs></defs>
    <g id="Artboard" stroke="none" stroke-width="1" fill="none" fill-rule="evenodd" transform="translate(-504.000000, -233.000000)">
        <g id="Github" transform="translate(504.000000, 233.000000)">
            <circle id="github-back" fill="#4D3C5F" fill-rule="nonzero" cx="64" cy="64" r="64"></circle>
            <g id="github-github" transform="translate(28.000000, 29.000000)" fill="#FFFFFF">
                <path d="M36,0.0449 C16.209,0.0449 0.1602,16.0898 0.1602,35.8848 C0.1602,51.7197 10.4297,65.1543 24.6699,69.8936 C26.4609,70.2246 27.1191,69.1152 27.1191,68.1689 C27.1191,67.3145 27.0859,64.4912 27.0703,61.4961 C17.0996,63.6641 14.9951,57.2676 14.9951,57.2676 C13.3652,53.125 11.0156,52.0225 11.0156,52.0225 C7.7637,49.7988 11.2612,49.8447 11.2612,49.8447 C14.8594,50.0977 16.7549,53.54 16.7549,53.54 C19.9512,59.0176 25.1396,57.4336 27.1846,56.5176 C27.5068,54.2012 28.4355,52.6201 29.46,51.7246 C21.5,50.8193 13.1309,47.7461 13.1309,34.0127 C13.1309,30.1001 14.5313,26.9023 16.8242,24.3931 C16.4521,23.4897 15.2246,19.8447 17.1719,14.9077 C17.1719,14.9077 20.1807,13.9453 27.0293,18.582 C29.8887,17.7881 32.9551,17.3896 36,17.376 C39.0459,17.3896 42.1143,17.7881 44.9785,18.582 C51.8193,13.9453 54.8252,14.9077 54.8252,14.9077 C56.7754,19.8447 55.5488,23.4897 55.1768,24.3931 C57.4746,26.9023 58.8652,30.1001 58.8652,34.0127 C58.8652,47.7793 50.4805,50.8086 42.5,51.6973 C43.7852,52.8086 44.9297,54.9902 44.9297,58.334 C44.9297,63.1289 44.8896,66.9883 44.8896,68.1689 C44.8896,69.123 45.5352,70.2402 47.3525,69.8887 C61.584,65.1445 71.8408,51.7148 71.8408,35.8848 C71.8408,16.0898 55.7939,0.0449 36,0.0449 Z" id="Shape"></path>
                <path d="M13.7354,51.5029 C13.6563,51.6816 13.376,51.7344 13.1201,51.6133 C12.8604,51.4961 12.7144,51.2529 12.7988,51.0742 C12.876,50.8906 13.1563,50.8398 13.416,50.9629 C13.6768,51.0801 13.8247,51.3242 13.7354,51.5029 Z" id="Shape" fill-rule="nonzero"></path>
                <path d="M15.1865,53.123 C15.0156,53.2813 14.6816,53.207 14.4551,52.957 C14.2197,52.707 14.1763,52.373 14.3496,52.2109 C14.5264,52.0547 14.8496,52.1279 15.085,52.3779 C15.3193,52.6309 15.3652,52.9619 15.1865,53.123 Z" id="Shape" fill-rule="nonzero"></path>
                <path d="M16.5996,55.1865 C16.3799,55.3398 16.0205,55.1953 15.7988,54.877 C15.5791,54.5586 15.5791,54.1758 15.8037,54.0225 C16.0264,53.8701 16.3799,54.0078 16.605,54.3242 C16.8242,54.6475 16.8242,55.0303 16.5996,55.1865 Z" id="Shape" fill-rule="nonzero"></path>
                <path d="M18.5356,57.1797 C18.3389,57.3975 17.9209,57.3389 17.6143,57.043 C17.3008,56.7549 17.2139,56.3438 17.4102,56.127 C17.6104,55.9102 18.0313,55.9717 18.3389,56.2656 C18.6504,56.5537 18.7451,56.9668 18.5356,57.1797 Z" id="Shape" fill-rule="nonzero"></path>
                <path d="M21.2061,58.3389 C21.1191,58.6191 20.7168,58.7461 20.3105,58.627 C19.9053,58.5039 19.6406,58.1758 19.7217,57.8926 C19.8057,57.6094 20.2109,57.4775 20.6201,57.6045 C21.0254,57.7266 21.29,58.0527 21.2061,58.3389 Z" id="Shape" fill-rule="nonzero"></path>
                <path d="M24.1396,58.5527 C24.1494,58.8486 23.8057,59.0938 23.3794,59.0996 C22.9512,59.1094 22.6035,58.8691 22.5996,58.5781 C22.5996,58.2803 22.9355,58.0381 23.3643,58.0303 C23.79,58.0225 24.1396,58.2598 24.1396,58.5527 Z" id="Shape" fill-rule="nonzero"></path>
                <path d="M26.8691,58.0889 C26.9199,58.377 26.624,58.6738 26.2012,58.752 C25.7842,58.8281 25.3994,58.6504 25.3467,58.3643 C25.2949,58.0684 25.5967,57.7725 26.0112,57.6953 C26.4355,57.623 26.8154,57.7959 26.8691,58.0889 Z" id="Shape" fill-rule="nonzero"></path>
            </g>
        </g>
    </g>
</svg>