<?xml version="1.0" encoding="UTF-8"?>
<svg width="127px" height="127px" viewBox="0 0 127 127" version="1.1" xmlns="http://www.w3.org/2000/svg" xmlns:xlink="http://www.w3.org/1999/xlink">
    <!-- Generator: Sketch 48.2 (47327) - http://www.bohemiancoding.com/sketch -->
    <title>telegram-seeklogo</title>
    <desc>Created with Sketch.</desc>
    <defs></defs>
    <g id="Artboard" stroke="none" stroke-width="1" fill="none" fill-rule="evenodd" transform="translate(-140.000000, -234.000000)">
        <g id="telegram-seeklogo" transform="translate(140.000000, 234.000000)" fill-rule="nonzero">
            <circle id="Oval" fill="#1F0738" cx="63.5" cy="63.5" r="63.5"></circle>
            <g id="Group" transform="translate(23.000000, 34.000000)">
                <path d="M72,2.19376246 L60.6035159,59.4118566 C60.6035159,59.4118566 59.0027519,63.3883117 54.6305159,61.483423 L28.3493158,41.4106584 L18.7925157,36.8151145 L2.71319961,31.4099928 C2.71319961,31.4099928 0.2523236,30.5289818 0.0134035986,28.6240931 C-0.225516403,26.7192044 2.80876761,25.6953267 2.80876761,25.6953267 L66.767652,0.693662612 C66.74376,0.693662612 72,-1.61601493 72,2.19376246 Z" id="Shape" fill="#FFFFFF"></path>
                <path d="M26.5535806,59 C26.5535806,59 25.7862328,58.9286196 24.8270479,55.9068512 C23.8678631,52.8850827 19,37.0386433 19,37.0386433 L57.7750473,12.6027675 C57.7750473,12.6027675 60.0051521,11.2465407 59.9332132,12.6027675 C59.9332132,12.6027675 60.3408668,12.840702 59.1418857,13.9589943 C57.9429047,15.0772865 28.6877669,41.1549106 28.6877669,41.1549106" id="Shape" fill="#D3E6F2"></path>
                <path d="M38,49.0031889 L27.6837945,58.6312676 C27.6837945,58.6312676 26.8774704,59.2618218 26,58.8737884 L27.9683794,41" id="Shape" fill="#B6D0E5"></path>
            </g>
        </g>
    </g>
</svg>