<svg width="127" height="127" xmlns="http://www.w3.org/2000/svg"><g fill="none"><circle fill="#4D3C5F" cx="63.5" cy="63.5" r="63.5"/><path d="M94.928 36.257L83.556 93.339s-1.597 3.968-5.96 2.067L51.371 75.381l-9.537-4.585-16.045-5.392s-2.455-.88-2.694-2.78c-.238-1.9 2.79-2.921 2.79-2.921L89.707 34.76c-.024 0 5.221-2.304 5.221 1.497z" fill="#FFF"/><path d="M49.368 92.722s-.763-.071-1.716-3.088c-.954-3.017-5.794-18.838-5.794-18.838L80.41 46.4s2.217-1.354 2.146 0c0 0 .405.238-.787 1.354C80.576 48.87 51.49 74.906 51.49 74.906" fill="#D3E6F2"/><path d="M61.456 83.054l-10.371 9.43s-.81.618-1.693.238l1.979-17.507" fill="#B6D0E5"/></g></svg>