<?xml version="1.0" encoding="UTF-8"?>
<svg width="127px" height="127px" viewBox="0 0 127 127" version="1.1" xmlns="http://www.w3.org/2000/svg" xmlns:xlink="http://www.w3.org/1999/xlink">
    <!-- Generator: Sketch 48.2 (47327) - http://www.bohemiancoding.com/sketch -->
    <title>telegram-seeklogo</title>
    <desc>Created with Sketch.</desc>
    <defs></defs>
    <g id="Artboard" stroke="none" stroke-width="1" fill="none" fill-rule="evenodd" transform="translate(-140.000000, -234.000000)">
        <g id="telegram-seeklogo" transform="translate(140.000000, 234.000000)" fill-rule="nonzero">
            <circle id="Oval" fill="#4D3C5F" cx="63.5" cy="63.5" r="63.5"></circle>
            <g id="Group" transform="translate(23.000000, 34.000000)">
                <path d="M71.9284768,2.25670498 L60.5562914,59.3394636 C60.5562914,59.3394636 58.9589404,63.3065134 54.5960265,61.4061303 L28.3708609,41.3808429 L18.8344371,36.7961686 L2.78940397,31.4038314 C2.78940397,31.4038314 0.333774834,30.5249042 0.0953642384,28.6245211 C-0.143046358,26.7241379 2.88476821,25.702682 2.88476821,25.702682 L66.7072848,0.760153257 C66.6834437,0.760153257 71.9284768,-1.5440613 71.9284768,2.25670498 Z" id="Shape" fill="#FFFFFF"></path>
                <path d="M26.3682119,58.7218391 C26.3682119,58.7218391 25.605298,58.6505747 24.6516556,55.6337165 C23.6980132,52.6168582 18.8582781,36.7961686 18.8582781,36.7961686 L57.4092715,12.4 C57.4092715,12.4 59.6264901,11.045977 59.5549669,12.4 C59.5549669,12.4 59.9602649,12.6375479 58.7682119,13.754023 C57.5761589,14.8704981 28.4900662,40.9057471 28.4900662,40.9057471" id="Shape" fill="#D3E6F2"></path>
                <path d="M38.4556291,49.0536398 L28.0847682,58.4842912 C28.0847682,58.4842912 27.2741722,59.1019157 26.392053,58.7218391 L28.3708609,41.2145594" id="Shape" fill="#B6D0E5"></path>
            </g>
        </g>
    </g>
</svg>