<svg width="127" height="127" xmlns="http://www.w3.org/2000/svg"><g fill="none"><circle fill="#1F0738" cx="63.5" cy="63.5" r="63.5"/><path d="M95 36.194L83.604 93.412s-1.601 3.976-5.973 2.071L51.349 75.411l-9.556-4.596-16.08-5.405s-2.46-.881-2.7-2.786c-.239-1.905 2.796-2.929 2.796-2.929l63.959-25.001c-.024 0 5.232-2.31 5.232 1.5z" fill="#FFF"/><path d="M49.554 93s-.768-.071-1.727-3.093C46.867 86.885 42 71.039 42 71.039l38.775-24.436s2.23-1.356 2.158 0c0 0 .408.238-.791 1.356-1.2 1.118-30.454 27.196-30.454 27.196" fill="#D3E6F2"/><path d="M61 83.003l-10.316 9.628s-.807.63-1.684.243L50.968 75" fill="#B6D0E5"/></g></svg>